<svg xmlns="http://www.w3.org/2000/svg" width="1230" height="610" viewBox="0 0 1230 610"><defs><radialGradient id="q9xza" cx="-51.72" cy="558.98" r="1358.71" gradientUnits="userSpaceOnUse"><stop offset="0" stop-color="#ededed"/><stop offset="1" stop-color="#fafafa"/></radialGradient><filter id="q9xzc" width="180%" height="180%" x="-30%" y="-30%" filterUnits="objectBoundingBox"><feGaussianBlur in="SourceGraphic" result="FeGaussianBlur4992Out" stdDeviation="50 50"/></filter><filter id="q9xzd" width="180%" height="184%" x="-30%" y="-32%" filterUnits="objectBoundingBox"><feGaussianBlur in="SourceGraphic" result="FeGaussianBlur4999Out" stdDeviation="40 40"/></filter><radialGradient id="q9xze" cx="124" cy="835.33" r="687.16" gradientUnits="userSpaceOnUse"><stop offset="0" stop-color="#4600d1"/><stop offset=".5" stop-color="#ac0cc5"/><stop offset="1" stop-color="#fff"/></radialGradient><clipPath id="q9xzb"><path d="M0 10C0 4.477 4.477 0 10 0h1210c5.523 0 10 4.477 10 10v590c0 5.523-4.477 10-10 10H10c-5.523 0-10-4.477-10-10z"/></clipPath></defs><g><g><g opacity=".7"><path fill="url(#q9xza)" d="M0 10C0 4.477 4.477 0 10 0h1210c5.523 0 10 4.477 10 10v590c0 5.523-4.477 10-10 10H10c-5.523 0-10-4.477-10-10z"/></g><g clip-path="url(#q9xzb)" filter="url(#q9xzc)" opacity=".1"><path fill="#0fbce7" d="M1091 920.5c144.146 0 261-116.854 261-261 0-144.146-116.854-261-261-261-144.146 0-261 116.854-261 261 0 144.146 116.854 261 261 261z"/></g><g clip-path="url(#q9xzb)" filter="url(#q9xzd)" opacity=".2"><path fill="#0fbce7" d="M-37.5 118C67.71 118 153 32.934 153-72S67.71-262-37.5-262-228-176.934-228-72s85.29 190 190.5 190z"/></g><g clip-path="url(#q9xzb)" opacity=".1" transform="rotate(-75 439.5 659.5)"><path fill="url(#q9xze)" d="M439.69 978.69c176.179 0 319-142.821 319-319s-142.821-319-319-319-319 142.821-319 319 142.821 319 319 319z"/></g><g clip-path="url(#q9xzb)"/></g></g></svg>