<svg xmlns="http://www.w3.org/2000/svg" width="20" height="19" viewBox="0 0 20 19"><g><g><path fill="#45a7e7" d="M9.583 15.43c0-.227.187-.412.417-.412.23 0 .417.185.417.412a.414.414 0 0 1-.417.412.414.414 0 0 1-.417-.412zm.834-10.834v8.329a.416.416 0 1 1-.834 0v-8.33a.416.416 0 1 1 .834 0zM20 16.544c0 .992-.801 1.8-1.786 1.8L10 18.342H1.786a1.795 1.795 0 0 1-1.604-2.58c1.331-2.73 3.562-6.603 5.53-10.02 1.032-1.79 2.006-3.48 2.71-4.765C8.754.372 9.344.01 10 .01s1.246.362 1.578.968c.703 1.284 1.677 2.973 2.707 4.762 1.969 3.418 4.2 7.291 5.532 10.022.122.25.183.513.183.782zm-.833 0a.945.945 0 0 0-.099-.417c-1.319-2.705-3.543-6.565-5.505-9.971a284.961 284.961 0 0 1-2.716-4.777.965.965 0 0 0-1.694 0A285.755 285.755 0 0 1 6.435 6.16C4.474 9.564 2.251 13.423.932 16.127a.961.961 0 0 0 .855 1.383h16.427a.961.961 0 0 0 .953-.966z"/></g></g></svg>