<svg xmlns="http://www.w3.org/2000/svg" width="285" height="243" viewBox="0 0 285 243"><defs><radialGradient id="16wka" cx="285" cy="0" r="374.53" gradientUnits="userSpaceOnUse"><stop offset="0" stop-color="#4b50d1"/><stop offset=".58" stop-color="#050447"/><stop offset="1" stop-color="#050447"/></radialGradient><filter id="16wkc" width="176%" height="176%" x="-28%" y="-28%" filterUnits="objectBoundingBox"><feGaussianBlur in="SourceGraphic" result="FeGaussianBlur4779Out" stdDeviation="40 40"/></filter><clipPath id="16wkb"><path d="M0 10C0 4.477 4.477 0 10 0h265c5.523 0 10 4.477 10 10v223c0 5.523-4.477 10-10 10H10c-5.523 0-10-4.477-10-10z"/></clipPath></defs><g><g><g><path fill="url(#16wka)" d="M0 10C0 4.477 4.477 0 10 0h265c5.523 0 10 4.477 10 10v223c0 5.523-4.477 10-10 10H10c-5.523 0-10-4.477-10-10z"/><path fill="#0e0d57" fill-opacity=".6" d="M0 10C0 4.477 4.477 0 10 0h265c5.523 0 10 4.477 10 10v223c0 5.523-4.477 10-10 10H10c-5.523 0-10-4.477-10-10z"/></g><g clip-path="url(#16wkb)" filter="url(#16wkc)" opacity=".3"><path fill="#0fbce7" d="M-32.5 262C84.86 262 180 166.86 180 49.5S84.86-163-32.5-163-245-67.86-245 49.5-149.86 262-32.5 262z"/></g><g clip-path="url(#16wkb)"/></g></g></svg>