<svg xmlns="http://www.w3.org/2000/svg" width="17" height="432" viewBox="0 0 17 432"><defs><clipPath id="5fq8a"><path fill="#fff" d="M0 432v-17h17v17zm8.5-4a4.5 4.5 0 1 0 0-9 4.5 4.5 0 0 0 0 9z"/></clipPath><clipPath id="5fq8b"><path fill="#fff" d="M8.5 428a4.5 4.5 0 1 0 0-9 4.5 4.5 0 0 0 0 9z"/></clipPath><clipPath id="5fq8c"><path fill="#fff" d="M0 280v-17h17v17zm8.5-4a4.5 4.5 0 1 0 0-9 4.5 4.5 0 0 0 0 9z"/></clipPath><clipPath id="5fq8d"><path fill="#fff" d="M8.5 276a4.5 4.5 0 1 0 0-9 4.5 4.5 0 0 0 0 9z"/></clipPath><clipPath id="5fq8e"><path fill="#fff" d="M0 118v-17h17v17zm8.5-4a4.5 4.5 0 1 0 0-9 4.5 4.5 0 0 0 0 9z"/></clipPath><clipPath id="5fq8f"><path fill="#fff" d="M8.5 114a4.5 4.5 0 1 0 0-9 4.5 4.5 0 0 0 0 9z"/></clipPath></defs><g><g><g><g><path fill="#fff" d="M8.5 428a4.5 4.5 0 1 0 0-9 4.5 4.5 0 0 0 0 9z"/><path fill="none" stroke-miterlimit="20" stroke-width="8" d="M8.5 428a4.5 4.5 0 1 0 0-9 4.5 4.5 0 0 0 0 9z" clip-path="url(&quot;#5fq8a&quot;)"/><path fill="none" stroke="#3698e4" stroke-miterlimit="20" stroke-width="6" d="M8.5 428a4.5 4.5 0 1 0 0-9 4.5 4.5 0 0 0 0 9z" clip-path="url(&quot;#5fq8b&quot;)"/></g><g><g><path fill="none" stroke="#3698e4" stroke-dasharray="0 4" stroke-linecap="round" stroke-miterlimit="20" stroke-width="2" d="M8.496 287l-.632 115"/></g><g transform="rotate(-180 8 406)"><path fill="#3698e4" d="M8.1 401.42l4.5 9h-9z"/></g></g></g><g><g><path fill="#fff" d="M8.5 276a4.5 4.5 0 1 0 0-9 4.5 4.5 0 0 0 0 9z"/><path fill="none" stroke-miterlimit="20" stroke-width="8" d="M8.5 276a4.5 4.5 0 1 0 0-9 4.5 4.5 0 0 0 0 9z" clip-path="url(&quot;#5fq8c&quot;)"/><path fill="none" stroke="#3698e4" stroke-miterlimit="20" stroke-width="6" d="M8.5 276a4.5 4.5 0 1 0 0-9 4.5 4.5 0 0 0 0 9z" clip-path="url(&quot;#5fq8d&quot;)"/></g><g><g><path fill="none" stroke="#3698e4" stroke-dasharray="0 4" stroke-linecap="round" stroke-miterlimit="20" stroke-width="2" d="M8.496 125l-.632 125"/></g><g transform="rotate(-180 8 254)"><path fill="#3698e4" d="M8.1 249.42l4.5 9h-9z"/></g></g></g><g><g><path fill="#fff" d="M8.5 114a4.5 4.5 0 1 0 0-9 4.5 4.5 0 0 0 0 9z"/><path fill="none" stroke-miterlimit="20" stroke-width="8" d="M8.5 114a4.5 4.5 0 1 0 0-9 4.5 4.5 0 0 0 0 9z" clip-path="url(&quot;#5fq8e&quot;)"/><path fill="none" stroke="#3698e4" stroke-miterlimit="20" stroke-width="6" d="M8.5 114a4.5 4.5 0 1 0 0-9 4.5 4.5 0 0 0 0 9z" clip-path="url(&quot;#5fq8f&quot;)"/></g><g><g><path fill="none" stroke="#3698e4" stroke-dasharray="0 4" stroke-linecap="round" stroke-miterlimit="20" stroke-width="2" d="M8.496 1l-.632 87"/></g><g transform="rotate(-180 8 92)"><path fill="#3698e4" d="M8.1 87.42l4.5 9h-9z"/></g></g></g></g></g></svg>