<svg xmlns="http://www.w3.org/2000/svg" width="871" height="28" viewBox="0 0 871 28"><defs><clipPath id="3x90a"><path fill="#fff" d="M854 28V11h17v17zm8.5-4a4.5 4.5 0 1 0 0-9 4.5 4.5 0 0 0 0 9z"/></clipPath><clipPath id="3x90b"><path fill="#fff" d="M862.5 24a4.5 4.5 0 1 0 0-9 4.5 4.5 0 0 0 0 9z"/></clipPath><clipPath id="3x90c"><path fill="#fff" d="M502 28V11h17v17zm8.5-4a4.5 4.5 0 1 0 0-9 4.5 4.5 0 0 0 0 9z"/></clipPath><clipPath id="3x90d"><path fill="#fff" d="M510.5 24a4.5 4.5 0 1 0 0-9 4.5 4.5 0 0 0 0 9z"/></clipPath><clipPath id="3x90e"><path fill="#fff" d="M151 28V11h17v17zm8.5-4a4.5 4.5 0 1 0 0-9 4.5 4.5 0 0 0 0 9z"/></clipPath><clipPath id="3x90f"><path fill="#fff" d="M159.5 24a4.5 4.5 0 1 0 0-9 4.5 4.5 0 0 0 0 9z"/></clipPath></defs><g><g><g><g><path fill="#fff" d="M862.5 24a4.5 4.5 0 1 0 0-9 4.5 4.5 0 0 0 0 9z"/><path fill="none" stroke-miterlimit="20" stroke-width="8" d="M862.5 24a4.5 4.5 0 1 0 0-9 4.5 4.5 0 0 0 0 9z" clip-path="url(&quot;#3x90a&quot;)"/><path fill="none" stroke="#3698e4" stroke-miterlimit="20" stroke-width="6" d="M862.5 24a4.5 4.5 0 1 0 0-9 4.5 4.5 0 0 0 0 9z" clip-path="url(&quot;#3x90b&quot;)"/></g><g><g><path fill="none" stroke="#3698e4" stroke-dasharray="0 4" stroke-linecap="round" stroke-miterlimit="20" stroke-width="2" d="M524.42 19h319.113"/></g><g transform="rotate(-270 845 19)"><path fill="#3698e4" d="M845.1 14.42l4.5 9h-9z"/></g></g></g><g><g><path fill="#fff" d="M510.5 24a4.5 4.5 0 1 0 0-9 4.5 4.5 0 0 0 0 9z"/><path fill="none" stroke-miterlimit="20" stroke-width="8" d="M510.5 24a4.5 4.5 0 1 0 0-9 4.5 4.5 0 0 0 0 9z" clip-path="url(&quot;#3x90c&quot;)"/><path fill="none" stroke="#3698e4" stroke-miterlimit="20" stroke-width="6" d="M510.5 24a4.5 4.5 0 1 0 0-9 4.5 4.5 0 0 0 0 9z" clip-path="url(&quot;#3x90d&quot;)"/></g><g><g><path fill="none" stroke="#3698e4" stroke-dasharray="0 4" stroke-linecap="round" stroke-miterlimit="20" stroke-width="2" d="M173.42 19h319.113"/></g><g transform="rotate(-270 493 19)"><path fill="#3698e4" d="M493.1 14.42l4.5 9h-9z"/></g></g></g><g><g><path fill="#fff" d="M159.5 24a4.5 4.5 0 1 0 0-9 4.5 4.5 0 0 0 0 9z"/><path fill="none" stroke-miterlimit="20" stroke-width="8" d="M159.5 24a4.5 4.5 0 1 0 0-9 4.5 4.5 0 0 0 0 9z" clip-path="url(&quot;#3x90e&quot;)"/><path fill="none" stroke="#3698e4" stroke-miterlimit="20" stroke-width="6" d="M159.5 24a4.5 4.5 0 1 0 0-9 4.5 4.5 0 0 0 0 9z" clip-path="url(&quot;#3x90f&quot;)"/></g><g><g><path fill="none" stroke="#3698e4" stroke-dasharray="0 4" stroke-linecap="round" stroke-miterlimit="20" stroke-width="2" d="M1 1v0l.39 9.373A9 9 0 0 0 10.381 19h130.147v0"/></g><g transform="rotate(-270 141 19)"><path fill="#3698e4" d="M141.1 14.42l4.5 9h-9z"/></g></g></g></g></g></svg>