<svg xmlns="http://www.w3.org/2000/svg" width="1230" height="90" viewBox="0 0 1230 90"><defs><radialGradient id="lfeba" cx="194.69" cy="133.7" r="1011.39" gradientUnits="userSpaceOnUse"><stop offset="0" stop-color="#0060ba"/><stop offset="1" stop-color="#02afd4"/></radialGradient><clipPath id="lfebc"><path fill="#fff" d="M1385.5-160.49a3.5 3.5 0 1 0 0-7 3.5 3.5 0 0 0 0 7z"/></clipPath><clipPath id="lfebd"><path fill="#fff" d="M1215.5-2.49a3.5 3.5 0 1 0 0-7 3.5 3.5 0 0 0 0 7z"/></clipPath><clipPath id="lfebe"><path fill="#fff" d="M1263.5 23.51a3.5 3.5 0 1 0 0-7 3.5 3.5 0 0 0 0 7z"/></clipPath><clipPath id="lfebf"><path fill="#fff" d="M1564.5-74.49a3.5 3.5 0 1 0 0-7 3.5 3.5 0 0 0 0 7z"/></clipPath><clipPath id="lfebg"><path fill="#fff" d="M1160.5 70.51a3.5 3.5 0 1 0 0-7 3.5 3.5 0 0 0 0 7z"/></clipPath><clipPath id="lfebh"><path fill="#fff" d="M1110.5 41.51a3.5 3.5 0 1 0 0-7 3.5 3.5 0 0 0 0 7z"/></clipPath><clipPath id="lfebb"><path d="M0 10C0 4.477 4.477 0 10 0h1210c5.523 0 10 4.477 10 10v70c0 5.523-4.477 10-10 10H10C4.477 90 0 85.523 0 80z"/></clipPath></defs><g><g><g opacity=".9"><path fill="url(#lfeba)" d="M0 10C0 4.477 4.477 0 10 0h1210c5.523 0 10 4.477 10 10v70c0 5.523-4.477 10-10 10H10C4.477 90 0 85.523 0 80z"/></g><g/><g clip-path="url(#lfebb)"><g><path fill="none" stroke="#11dadc" stroke-miterlimit="20" stroke-width="2" d="M1385.5-160.49a3.5 3.5 0 1 0 0-7 3.5 3.5 0 0 0 0 7z" clip-path="url(&quot;#lfebc&quot;)"/></g><g><path fill="none" stroke="#11dadc" stroke-miterlimit="20" stroke-width="2" d="M1215.5-2.49a3.5 3.5 0 1 0 0-7 3.5 3.5 0 0 0 0 7z" clip-path="url(&quot;#lfebd&quot;)"/></g><g><path fill="none" stroke="#cf44fb" stroke-miterlimit="20" stroke-width="2" d="M1263.5 23.51a3.5 3.5 0 1 0 0-7 3.5 3.5 0 0 0 0 7z" clip-path="url(&quot;#lfebe&quot;)"/></g><g><path fill="none" stroke="#cf44fb" stroke-miterlimit="20" stroke-width="2" d="M1564.5-74.49a3.5 3.5 0 1 0 0-7 3.5 3.5 0 0 0 0 7z" clip-path="url(&quot;#lfebf&quot;)"/></g><g><path fill="none" stroke="#cf44fb" stroke-miterlimit="20" stroke-width="2" d="M1160.5 70.51a3.5 3.5 0 1 0 0-7 3.5 3.5 0 0 0 0 7z" clip-path="url(&quot;#lfebg&quot;)"/></g><g><path fill="none" stroke="#11dadc" stroke-miterlimit="20" stroke-width="2" d="M1110.5 41.51a3.5 3.5 0 1 0 0-7 3.5 3.5 0 0 0 0 7z" clip-path="url(&quot;#lfebh&quot;)"/></g><g opacity=".3"><path fill="none" stroke="#fff" stroke-miterlimit="20" stroke-width=".5" d="M1569.93-83.549L1765.001-354"/></g><g opacity=".3"><path fill="none" stroke="#fff" stroke-miterlimit="20" stroke-width=".5" d="M1557.322-81.49l-165.422-79"/></g><g opacity=".3"><path fill="none" stroke="#fff" stroke-miterlimit="20" stroke-width=".5" d="M1267 13.706l114-170.346"/></g><g opacity=".3"><path fill="none" stroke="#fff" stroke-miterlimit="20" stroke-width=".5" d="M1221.57-1.09l34.896 18.089"/></g><g opacity=".3"><path fill="none" stroke="#fff" stroke-miterlimit="20" stroke-width=".5" d="M1212-.09l-47 61.096"/></g><g opacity=".3"><path fill="none" stroke="#fff" stroke-miterlimit="20" stroke-width=".5" d="M1153.91 63.51l-36.91-21"/></g><g opacity=".3"><path fill="none" stroke="#fff" stroke-miterlimit="20" stroke-width=".5" d="M1054 113.013l52-69.823"/></g></g></g></g></svg>