<svg xmlns="http://www.w3.org/2000/svg" width="1230" height="318" viewBox="0 0 1230 318"><defs><radialGradient id="77dra" cx="-51.72" cy="291.4" r="1301.48" gradientUnits="userSpaceOnUse"><stop offset="0" stop-color="#f5f5f5"/><stop offset="1" stop-color="#f4f4f6"/></radialGradient><radialGradient id="77drc" cx="-186.49" cy="571.32" r="687.16" gradientUnits="userSpaceOnUse"><stop offset="0" stop-color="#4600d1"/><stop offset=".5" stop-color="#ac0cc5"/><stop offset="1" stop-color="#fff"/></radialGradient><radialGradient id="77drd" cx="29.91" cy="506.53" r="355.43" gradientUnits="userSpaceOnUse"><stop offset="0" stop-color="#4600d1"/><stop offset=".5" stop-color="#ac0cc5"/><stop offset="1" stop-color="#fff"/></radialGradient><filter id="77dre" width="168%" height="168%" x="-24%" y="-24%" filterUnits="objectBoundingBox"><feGaussianBlur in="SourceGraphic" result="FeGaussianBlur4473Out" stdDeviation="40 40"/></filter><filter id="77drf" width="256%" height="256%" x="-68%" y="-68%" filterUnits="objectBoundingBox"><feGaussianBlur in="SourceGraphic" result="FeGaussianBlur4480Out" stdDeviation="40 40"/></filter><clipPath id="77drb"><path d="M0 10C0 4.477 4.477 0 10 0h1210c5.523 0 10 4.477 10 10v298c0 5.523-4.477 10-10 10H10c-5.523 0-10-4.477-10-10z"/></clipPath></defs><g><g><g><path fill="url(#77dra)" d="M0 10C0 4.477 4.477 0 10 0h1210c5.523 0 10 4.477 10 10v298c0 5.523-4.477 10-10 10H10c-5.523 0-10-4.477-10-10z"/></g><g clip-path="url(#77drb)" opacity=".1" transform="rotate(-75 129.5 395.5)"><path fill="url(#77drc)" d="M129.2 714.68c176.179 0 319-142.821 319-319s-142.821-319-319-319-319 142.821-319 319 142.821 319 319 319z"/></g><g clip-path="url(#77drb)" opacity=".1" transform="rotate(-75 193.5 415.5)"><path fill="url(#77drd)" d="M193.2 580.68c91.127 0 165-73.873 165-165s-73.873-165-165-165-165 73.873-165 165 73.873 165 165 165z"/></g><g clip-path="url(#77drb)" filter="url(#77dre)" opacity=".1"><path fill="#0fbce7" d="M1037.5 43C1203.462 43 1338-91.538 1338-257.5S1203.462-558 1037.5-558 737-423.462 737-257.5 871.538 43 1037.5 43z"/></g><g clip-path="url(#77drb)" filter="url(#77drf)" opacity=".1"><path fill="#0fbce7" d="M1037.5-103c38.384 0 69.5-31.116 69.5-69.5s-31.116-69.5-69.5-69.5-69.5 31.116-69.5 69.5 31.116 69.5 69.5 69.5z"/></g><g clip-path="url(#77drb)"/></g></g></svg>