<svg xmlns="http://www.w3.org/2000/svg" width="1230" height="350" viewBox="0 0 1230 350"><defs><radialGradient id="ch8xa" cx="-51.72" cy="320.72" r="1305.95" gradientUnits="userSpaceOnUse"><stop offset="0" stop-color="#f5f5f5"/><stop offset="1" stop-color="#f4f4f6"/></radialGradient><radialGradient id="ch8xc" cx="-186.49" cy="625.32" r="687.16" gradientUnits="userSpaceOnUse"><stop offset="0" stop-color="#4600d1"/><stop offset=".5" stop-color="#ac0cc5"/><stop offset="1" stop-color="#fff"/></radialGradient><radialGradient id="ch8xd" cx="29.91" cy="560.53" r="355.43" gradientUnits="userSpaceOnUse"><stop offset="0" stop-color="#4600d1"/><stop offset=".5" stop-color="#ac0cc5"/><stop offset="1" stop-color="#fff"/></radialGradient><filter id="ch8xe" width="168%" height="168%" x="-24%" y="-24%" filterUnits="objectBoundingBox"><feGaussianBlur in="SourceGraphic" result="FeGaussianBlur4030Out" stdDeviation="40 40"/></filter><filter id="ch8xf" width="256%" height="256%" x="-68%" y="-68%" filterUnits="objectBoundingBox"><feGaussianBlur in="SourceGraphic" result="FeGaussianBlur4037Out" stdDeviation="40 40"/></filter><clipPath id="ch8xb"><path d="M0 10C0 4.477 4.477 0 10 0h1210c5.523 0 10 4.477 10 10v330c0 5.523-4.477 10-10 10H10c-5.523 0-10-4.477-10-10z"/></clipPath></defs><g><g><g><path fill="url(#ch8xa)" d="M0 10C0 4.477 4.477 0 10 0h1210c5.523 0 10 4.477 10 10v330c0 5.523-4.477 10-10 10H10c-5.523 0-10-4.477-10-10z"/></g><g clip-path="url(#ch8xb)" opacity=".1" transform="rotate(-75 129.5 449.5)"><path fill="url(#ch8xc)" d="M129.2 768.68c176.179 0 319-142.821 319-319s-142.821-319-319-319-319 142.821-319 319 142.821 319 319 319z"/></g><g clip-path="url(#ch8xb)" opacity=".1" transform="rotate(-75 193.5 469.5)"><path fill="url(#ch8xd)" d="M193.2 634.68c91.127 0 165-73.873 165-165s-73.873-165-165-165-165 73.873-165 165 73.873 165 165 165z"/></g><g clip-path="url(#ch8xb)" filter="url(#ch8xe)" opacity=".1"><path fill="#0fbce7" d="M1037.5 97C1203.462 97 1338-37.538 1338-203.5S1203.462-504 1037.5-504 737-369.462 737-203.5 871.538 97 1037.5 97z"/></g><g clip-path="url(#ch8xb)" filter="url(#ch8xf)" opacity=".1"><path fill="#0fbce7" d="M1037.5-49c38.384 0 69.5-31.116 69.5-69.5s-31.116-69.5-69.5-69.5-69.5 31.116-69.5 69.5S999.116-49 1037.5-49z"/></g><g clip-path="url(#ch8xb)"/></g></g></svg>