<svg xmlns="http://www.w3.org/2000/svg" width="50" height="38" viewBox="0 0 50 38"><g><g><g><path fill="#fedb41" d="M41.302 17.372l-18.257 18.26a6.025 6.025 0 0 1-4.288 1.776c-1.62 0-3.143-.631-4.289-1.777L.232 21.392a.791.791 0 0 1 0-1.118l7.457-7.459a.791.791 0 0 1 1.119 0l2.8 2.8a.791.791 0 0 1-1.12 1.119l-2.24-2.24-6.338 6.339 13.677 13.68a4.453 4.453 0 0 0 3.17 1.312 4.453 4.453 0 0 0 3.17-1.313l18.256-18.26a.79.79 0 1 1 1.119 1.12zM50 8.35c0 .21-.084.41-.232.56l-6.229 6.23a.791.791 0 0 1-1.119-1.12l5.67-5.67-6.339-6.34-21.365 21.369a2.29 2.29 0 0 1-1.63.675c-.615 0-1.193-.24-1.629-.675l-4.4-4.402a.791.791 0 0 1 1.118-1.119l4.401 4.402a.717.717 0 0 0 .51.211.718.718 0 0 0 .511-.211L41.192.332a.79.79 0 0 1 1.119 0l7.457 7.458c.149.149.232.35.232.56z"/></g></g></g></svg>