<svg xmlns="http://www.w3.org/2000/svg" width="695" height="444" viewBox="0 0 695 444"><defs><radialGradient id="kbova" cx="-42.47" cy="412.87" r="809.65" gradientUnits="userSpaceOnUse"><stop offset="0" stop-color="#abf0ff"/><stop offset=".35" stop-color="#10c0e6"/><stop offset="1" stop-color="#0071db"/></radialGradient><linearGradient id="kbovc" x1="583.49" x2="737.54" y1="158.55" y2="243.23" gradientUnits="userSpaceOnUse"><stop offset="0" stop-color="#cf44fb"/><stop offset=".57" stop-color="#2854c6"/><stop offset=".79" stop-color="#1e46b6"/><stop offset="1" stop-color="#001a86"/></linearGradient><linearGradient id="kbovd" x1="742.74" x2="813.6" y1="230.43" y2="145.41" gradientUnits="userSpaceOnUse"><stop offset="0" stop-color="#11dadc"/><stop offset="1" stop-color="#0c7cfe"/></linearGradient><linearGradient id="kbove" x1="696.78" x2="709.84" y1="386.9" y2="264.33" gradientUnits="userSpaceOnUse"><stop offset="0" stop-color="#11d8dd"/><stop offset="1" stop-color="#0c7cfe"/></linearGradient><clipPath id="kbovb"><path d="M695 434c0 5.523-4.477 10-10 10H10c-5.523 0-10-4.477-10-10V10C0 4.477 4.477 0 10 0h675c5.523 0 10 4.477 10 10v218.15z"/></clipPath></defs><g><g><g opacity=".8"><path fill="url(#kbova)" d="M695 434c0 5.523-4.477 10-10 10H10c-5.523 0-10-4.477-10-10V10C0 4.477 4.477 0 10 0h675c5.523 0 10 4.477 10 10v218.15z"/></g><g clip-path="url(#kbovb)"/><g clip-path="url(#kbovb)"><g><g><path fill="url(#kbovc)" d="M709.49 80.816a29.05 29.05 0 0 0-28.882.136l-100.034 57.943a29.05 29.05 0 0 0-14.49 25.008l-.504 113.854a29.046 29.046 0 0 0 14.556 25.305l99.833 57.47a29.05 29.05 0 0 0 29.285-.174l56.562-33.465a28.979 28.979 0 0 0 .32-49.689l-31.784-19.361c-6.116-3.727-14.064-2.175-18.332 3.576l-13.59 18.318a9.682 9.682 0 0 1-15.565-.015c-18.512-25.125-34.13-51.612-46.438-80.388a9.675 9.675 0 0 1 7.895-13.413c31.348-3.24 61.288-4.123 92.626-1.14a9.671 9.671 0 0 1 7.913 13.468c-1.583 3.685-3.383 7.84-5.147 11.912-4.969 11.472-.4 24.842 10.552 30.874l23.492 12.936a30.934 30.934 0 0 0 45.852-26.752l.714-64.072a29.052 29.052 0 0 0-14.725-25.597L709.491 80.816z"/></g><g><path fill="url(#kbovd)" d="M720.25 86.95s25.154 20.565 34.59 49.616c10.06 30.968-7.758 67.928-17.117 84.213a9.68 9.68 0 0 0-.981 7.43 9.67 9.67 0 0 0 4.618 5.9c15.77 8.811 48.92 27.31 67.958 37.935a9.685 9.685 0 0 0 14.402-8.37l.891-101.063a29.05 29.05 0 0 0-14.869-25.61L720.25 86.95z"/></g><g transform="scale(1 -1) rotate(-60 160.064 0)"><g><path fill="url(#kbove)" d="M647.19 215.19s25.154 20.565 34.59 49.616c10.06 30.968-7.758 67.928-17.117 84.213a9.68 9.68 0 0 0-.981 7.43 9.67 9.67 0 0 0 4.618 5.9c15.77 8.811 48.92 27.31 67.958 37.935a9.685 9.685 0 0 0 14.402-8.37l.891-101.063a29.05 29.05 0 0 0-14.869-25.61L647.19 215.19z"/></g></g></g></g></g></g></svg>