<svg xmlns="http://www.w3.org/2000/svg" width="1230" height="152" viewBox="0 0 1230 152"><defs><radialGradient id="irpva" cx="-51.72" cy="139.29" r="1285.04" gradientUnits="userSpaceOnUse"><stop offset="0" stop-color="#f5f5f5"/><stop offset="1" stop-color="#f4f4f6"/></radialGradient><radialGradient id="irpvc" cx="543.51" cy="607.32" r="687.16" gradientUnits="userSpaceOnUse"><stop offset="0" stop-color="#4600d1"/><stop offset=".5" stop-color="#ac0cc5"/><stop offset="1" stop-color="#fff"/></radialGradient><radialGradient id="irpvd" cx="759.91" cy="542.53" r="355.43" gradientUnits="userSpaceOnUse"><stop offset="0" stop-color="#4600d1"/><stop offset=".5" stop-color="#ac0cc5"/><stop offset="1" stop-color="#fff"/></radialGradient><filter id="irpve" width="168%" height="168%" x="-24%" y="-24%" filterUnits="objectBoundingBox"><feGaussianBlur in="SourceGraphic" result="FeGaussianBlur4598Out" stdDeviation="40 40"/></filter><filter id="irpvf" width="256%" height="256%" x="-68%" y="-68%" filterUnits="objectBoundingBox"><feGaussianBlur in="SourceGraphic" result="FeGaussianBlur4605Out" stdDeviation="40 40"/></filter><clipPath id="irpvb"><path d="M0 10C0 4.477 4.477 0 10 0h1210c5.523 0 10 4.477 10 10v132c0 5.523-4.477 10-10 10H10c-5.523 0-10-4.477-10-10z"/></clipPath></defs><g><g><g><g><path fill="url(#irpva)" d="M0 10C0 4.477 4.477 0 10 0h1210c5.523 0 10 4.477 10 10v132c0 5.523-4.477 10-10 10H10c-5.523 0-10-4.477-10-10z"/></g><g clip-path="url(#irpvb)" opacity=".1" transform="rotate(-75 859.5 431.5)"><path fill="url(#irpvc)" d="M859.2 750.68c176.179 0 319-142.821 319-319s-142.821-319-319-319-319 142.821-319 319 142.821 319 319 319z"/></g><g clip-path="url(#irpvb)" opacity=".1" transform="rotate(-75 923.5 451.5)"><path fill="url(#irpvd)" d="M923.2 616.68c91.127 0 165-73.873 165-165s-73.873-165-165-165-165 73.873-165 165 73.873 165 165 165z"/></g><g clip-path="url(#irpvb)" filter="url(#irpve)" opacity=".1"><path fill="#0fbce7" d="M69.5 157C235.462 157 370 22.462 370-143.5S235.462-444 69.5-444-231-309.462-231-143.5-96.462 157 69.5 157z"/></g><g clip-path="url(#irpvb)" filter="url(#irpvf)" opacity=".1"><path fill="#0fbce7" d="M69.5 11c38.384 0 69.5-31.116 69.5-69.5S107.884-128 69.5-128 0-96.884 0-58.5 31.116 11 69.5 11z"/></g><g clip-path="url(#irpvb)"/></g></g></g></svg>