<svg xmlns="http://www.w3.org/2000/svg" width="1920" height="370" viewBox="0 0 1920 370"><defs><linearGradient id="x33mb" x1="1003.95" x2="1003.95" y1="172.56" y2="389.03" gradientUnits="userSpaceOnUse"><stop offset="0" stop-color="#3534a3"/><stop offset="1" stop-color="#050447"/></linearGradient><radialGradient id="x33md" cx="1326.7" cy="89.3" r="353.27" gradientUnits="userSpaceOnUse"><stop offset="0" stop-color="#4600d1"/><stop offset=".5" stop-color="#ac0cc5"/><stop offset="1" stop-color="#fff"/></radialGradient><filter id="x33mc" width="200%" height="200%" x="-40%" y="-40%" filterUnits="objectBoundingBox"><feGaussianBlur in="SourceGraphic" result="FeGaussianBlur1754Out" stdDeviation="50 50"/></filter><filter id="x33me" width="164%" height="168%" x="-22%" y="-24%" filterUnits="objectBoundingBox"><feGaussianBlur in="SourceGraphic" result="FeGaussianBlur1761Out" stdDeviation="50 50"/></filter><clipPath id="x33ma"><path d="M0 0h1920v370H0z"/></clipPath></defs><g><g><g><path fill="#050447" d="M0 0h1920v370H0z"/></g><g clip-path="url(#x33ma)" opacity=".2"><path fill="url(#x33mb)" d="M405 395h587l32.54-43.412 51.46 29.217L1128.5 308l48.5 26.166L1320.643 150l159.751 86L1590.63 75v455.297H405"/></g><g clip-path="url(#x33ma)" filter="url(#x33mc)" opacity=".5"><path fill="url(#x33md)" d="M1489 163c90.575 0 164-73.425 164-164s-73.425-164-164-164-164 73.425-164 164 73.425 164 164 164z"/></g><g clip-path="url(#x33ma)" filter="url(#x33me)" opacity=".3"><path fill="#0fb6e9" d="M470.19 962.07c215.391 0 390-168.789 390-377s-174.609-377-390-377-390 168.789-390 377 174.609 377 390 377z"/></g><g clip-path="url(#x33ma)"/></g></g></svg>