<svg xmlns="http://www.w3.org/2000/svg" width="768" height="535" viewBox="0 0 768 535"><defs><linearGradient id="5ryfb" x1="688.95" x2="688.95" y1="172.56" y2="389.03" gradientUnits="userSpaceOnUse"><stop offset="0" stop-color="#3534a3"/><stop offset="1" stop-color="#050447"/></linearGradient><radialGradient id="5ryfd" cx="681.7" cy="89.3" r="353.27" gradientUnits="userSpaceOnUse"><stop offset="0" stop-color="#4600d1"/><stop offset=".5" stop-color="#ac0cc5"/><stop offset="1" stop-color="#fff"/></radialGradient><filter id="5ryfc" width="200%" height="200%" x="-40%" y="-40%" filterUnits="objectBoundingBox"><feGaussianBlur in="SourceGraphic" result="FeGaussianBlur1795Out" stdDeviation="50 50"/></filter><filter id="5ryfe" width="164%" height="168%" x="-22%" y="-24%" filterUnits="objectBoundingBox"><feGaussianBlur in="SourceGraphic" result="FeGaussianBlur1802Out" stdDeviation="50 50"/></filter><clipPath id="5ryfa"><path d="M0 0h768v535H0z"/></clipPath></defs><g><g><g><path fill="#050447" d="M0 0h768v535H0z"/></g><g clip-path="url(#5ryfa)" opacity=".2"><path fill="url(#5ryfb)" d="M90 395h587l32.54-43.412L761 380.805 813.5 308l48.5 26.166L1005.643 150l159.751 86L1275.63 75v455.297H90"/></g><g clip-path="url(#5ryfa)" filter="url(#5ryfc)" opacity=".5"><path fill="url(#5ryfd)" d="M844 163c90.575 0 164-73.425 164-164s-73.425-164-164-164S680-91.575 680-1s73.425 164 164 164z"/></g><g clip-path="url(#5ryfa)" filter="url(#5ryfe)" opacity=".3"><path fill="#0fb6e9" d="M155.19 1152.07c215.391 0 390-168.789 390-377s-174.609-377-390-377-390 168.789-390 377 174.609 377 390 377z"/></g><g clip-path="url(#5ryfa)"/></g></g></svg>