<svg xmlns="http://www.w3.org/2000/svg" width="1203" height="463" viewBox="0 0 1203 463"><defs><clipPath id="m75ba"><path fill="#fff" d="M1031.5 463a4.5 4.5 0 1 0 0-9 4.5 4.5 0 0 0 0 9z"/></clipPath><clipPath id="m75bb"><path fill="#fff" d="M683.5 463a4.5 4.5 0 1 0 0-9 4.5 4.5 0 0 0 0 9z"/></clipPath><clipPath id="m75bc"><path fill="#fff" d="M335.5 463a4.5 4.5 0 1 0 0-9 4.5 4.5 0 0 0 0 9z"/></clipPath><clipPath id="m75bd"><path fill="#fff" d="M1031.5 10a4.5 4.5 0 1 0 0-9 4.5 4.5 0 0 0 0 9z"/></clipPath><clipPath id="m75be"><path fill="#fff" d="M683.5 10a4.5 4.5 0 1 0 0-9 4.5 4.5 0 0 0 0 9z"/></clipPath><clipPath id="m75bf"><path fill="#fff" d="M335.5 10a4.5 4.5 0 1 0 0-9 4.5 4.5 0 0 0 0 9z"/></clipPath></defs><g><g><g transform="matrix(1 0 0 -1 0 916)"><g><g><path fill="none" stroke="#fedb41" stroke-miterlimit="20" stroke-width="6" d="M1031.5 463a4.5 4.5 0 1 0 0-9 4.5 4.5 0 0 0 0 9z" clip-path="url(&quot;#m75ba&quot;)"/></g><g><g><path fill="none" stroke="#fedb41" stroke-dasharray="0 4" stroke-linecap="round" stroke-miterlimit="20" stroke-width="2" d="M699.42 458h312.113"/></g><g transform="rotate(-270 1014 458)"><path fill="#fedb41" d="M1014.1 453.42l4.5 9h-9z"/></g></g></g><g><g><path fill="none" stroke="#c66fec" stroke-miterlimit="20" stroke-width="6" d="M683.5 463a4.5 4.5 0 1 0 0-9 4.5 4.5 0 0 0 0 9z" clip-path="url(&quot;#m75bb&quot;)"/></g><g><g><path fill="none" stroke="#c66fec" stroke-dasharray="0 4" stroke-linecap="round" stroke-miterlimit="20" stroke-width="2" d="M351.42 458h311.113"/></g><g transform="rotate(-270 666 458)"><path fill="#c66fec" d="M666.1 453.42l4.5 9h-9z"/></g></g></g><g><g><path fill="none" stroke="#c66fec" stroke-miterlimit="20" stroke-width="6" d="M335.5 463a4.5 4.5 0 1 0 0-9 4.5 4.5 0 0 0 0 9z" clip-path="url(&quot;#m75bc&quot;)"/></g><g><g><path fill="none" stroke="#c66fec" stroke-dasharray="0 4" stroke-linecap="round" stroke-miterlimit="20" stroke-width="2" d="M208.69 458h105.837"/></g><g transform="rotate(-270 318 458)"><path fill="#c66fec" d="M318.1 453.42l4.5 9h-9z"/></g></g></g></g></g><g><g><g><g><path fill="none" stroke="#fedb41" stroke-miterlimit="20" stroke-width="6" d="M1031.5 10a4.5 4.5 0 1 0 0-9 4.5 4.5 0 0 0 0 9z" clip-path="url(&quot;#m75bd&quot;)"/></g><g><g><path fill="none" stroke="#fedb41" stroke-dasharray="0 4" stroke-linecap="round" stroke-miterlimit="20" stroke-width="2" d="M699.42 5h312.113"/></g><g transform="rotate(-270 1014 5)"><path fill="#fedb41" d="M1014.1.42l4.5 9h-9z"/></g></g></g><g><g><path fill="none" stroke="#3698e4" stroke-miterlimit="20" stroke-width="6" d="M683.5 10a4.5 4.5 0 1 0 0-9 4.5 4.5 0 0 0 0 9z" clip-path="url(&quot;#m75be&quot;)"/></g><g><g><path fill="none" stroke="#3698e4" stroke-dasharray="0 4" stroke-linecap="round" stroke-miterlimit="20" stroke-width="2" d="M351.42 5h311.113"/></g><g transform="rotate(-270 666 5)"><path fill="#3698e4" d="M666.1.42l4.5 9h-9z"/></g></g></g><g><g><path fill="none" stroke="#3698e4" stroke-miterlimit="20" stroke-width="6" d="M335.5 10a4.5 4.5 0 1 0 0-9 4.5 4.5 0 0 0 0 9z" clip-path="url(&quot;#m75bf&quot;)"/></g><g><g><path fill="none" stroke="#3698e4" stroke-dasharray="0 4" stroke-linecap="round" stroke-miterlimit="20" stroke-width="2" d="M179.69 5h133.837"/></g><g transform="rotate(-270 318 5)"><path fill="#3698e4" d="M318.1.42l4.5 9h-9z"/></g></g></g><g><g transform="rotate(-270 19 458)"><path fill="#c66fec" d="M19.1 453.42l4.5 9h-9z"/></g><g><path fill="none" stroke="#c66fec" stroke-dasharray="0 4" stroke-linecap="round" stroke-miterlimit="20" stroke-width="2" d="M1.69 320v128.848a9 9 0 0 0 9 9h10.837v0"/></g></g><g><g><path fill="none" stroke="#3698e4" stroke-dasharray="0 4" stroke-linecap="round" stroke-miterlimit="20" stroke-width="2" d="M1.69 139.848v0V14a9 9 0 0 1 9-9h9.837v0"/></g><g transform="rotate(-270 19 5)"><path fill="#3698e4" d="M19.1.42l4.5 9h-9z"/></g></g></g></g></g></svg>