<?xml version="1.0" encoding="UTF-8"?>
<svg width="1203px" height="463px" viewBox="0 0 1203 463" version="1.1" xmlns="http://www.w3.org/2000/svg" xmlns:xlink="http://www.w3.org/1999/xlink">
    <title>349C3EBD-533F-4709-AD27-E26A611CC77C</title>
    <defs>
        <radialGradient cx="100%" cy="0%" fx="100%" fy="0%" r="215.692969%" gradientTransform="translate(1.000000,0.000000),scale(0.523256,1.000000),rotate(152.378925),translate(-1.000000,-0.000000)" id="radialGradient-1">
            <stop stop-color="#4B50D1" offset="0%"></stop>
            <stop stop-color="#050447" offset="57.9278586%"></stop>
            <stop stop-color="#050447" offset="100%"></stop>
        </radialGradient>
        <path d="M10,10 L164.036922,10 L164.036922,10 L173,0 L182.485164,10 L334,10 C339.522847,10 344,14.4771525 344,20 L344,170 C344,175.522847 339.522847,180 334,180 L10,180 C4.4771525,180 6.76353751e-16,175.522847 0,170 L0,20 C3.55264007e-15,14.4771525 4.4771525,10 10,10 Z" id="path-2"></path>
        <filter x="-70.1%" y="-70.1%" width="240.2%" height="240.2%" filterUnits="objectBoundingBox" id="filter-4">
            <feGaussianBlur stdDeviation="50" in="SourceGraphic"></feGaussianBlur>
        </filter>
        <filter x="-55.8%" y="-55.8%" width="211.6%" height="211.6%" filterUnits="objectBoundingBox" id="filter-5">
            <feGaussianBlur stdDeviation="40" in="SourceGraphic"></feGaussianBlur>
        </filter>
        <path d="M10,10 L334,10 C339.522847,10 344,14.4771525 344,20 L344,170 C344,175.522847 339.522847,180 334,180 L10,180 C4.4771525,180 6.76353751e-16,175.522847 0,170 L0,20 C-6.76353751e-16,14.4771525 4.4771525,10 10,10 Z" id="path-6"></path>
        <path d="M10,10 L164.036922,10 L164.036922,10 L173,0 L182.485164,10 L334,10 C339.522847,10 344,14.4771525 344,20 L344,170 C344,175.522847 339.522847,180 334,180 L10,180 C4.4771525,180 6.76353751e-16,175.522847 0,170 L0,20 C3.55264007e-15,14.4771525 4.4771525,10 10,10 Z" id="path-8"></path>
        <filter x="-70.1%" y="-70.1%" width="240.2%" height="240.2%" filterUnits="objectBoundingBox" id="filter-10">
            <feGaussianBlur stdDeviation="50" in="SourceGraphic"></feGaussianBlur>
        </filter>
        <filter x="-55.8%" y="-55.8%" width="211.6%" height="211.6%" filterUnits="objectBoundingBox" id="filter-11">
            <feGaussianBlur stdDeviation="40" in="SourceGraphic"></feGaussianBlur>
        </filter>
        <path d="M10,10 L334,10 C339.522847,10 344,14.4771525 344,20 L344,170 C344,175.522847 339.522847,180 334,180 L10,180 C4.4771525,180 6.76353751e-16,175.522847 0,170 L0,20 C-6.76353751e-16,14.4771525 4.4771525,10 10,10 Z" id="path-12"></path>
        <path d="M10,10 L164.036922,10 L164.036922,10 L173,0 L182.485164,10 L334,10 C339.522847,10 344,14.4771525 344,20 L344,170 C344,175.522847 339.522847,180 334,180 L10,180 C4.4771525,180 6.76353751e-16,175.522847 0,170 L0,20 C3.55264007e-15,14.4771525 4.4771525,10 10,10 Z" id="path-14"></path>
        <filter x="-70.1%" y="-70.1%" width="240.2%" height="240.2%" filterUnits="objectBoundingBox" id="filter-16">
            <feGaussianBlur stdDeviation="50" in="SourceGraphic"></feGaussianBlur>
        </filter>
        <filter x="-55.8%" y="-55.8%" width="211.6%" height="211.6%" filterUnits="objectBoundingBox" id="filter-17">
            <feGaussianBlur stdDeviation="40" in="SourceGraphic"></feGaussianBlur>
        </filter>
        <path d="M10,10 L334,10 C339.522847,10 344,14.4771525 344,20 L344,170 C344,175.522847 339.522847,180 334,180 L10,180 C4.4771525,180 6.76353751e-16,175.522847 0,170 L0,20 C-6.76353751e-16,14.4771525 4.4771525,10 10,10 Z" id="path-18"></path>
    </defs>
    <g id="Внутренние" stroke="none" stroke-width="1" fill="none" fill-rule="evenodd">
        <g id="Карьера-1920" transform="translate(-372.000000, -1241.000000)">
            <g id="Контент" transform="translate(0.000000, 202.000000)">
                <g id="Как-расти" transform="translate(345.000000, 1034.000000)">
                    <g id="1" transform="translate(28.000000, 5.000000)">
                        <g id="Стрелки">
                            <g id="4" transform="translate(698.000000, 0.000000)">
                                <circle id="Oval" stroke="#FEDB41" stroke-width="3" cx="332.5" cy="5.5" r="3"></circle>
                                <g id="1">
                                    <line x1="0.416152188" y1="5" x2="312.529458" y2="5" id="Path-5" stroke="#FEDB41" stroke-width="2" stroke-linecap="round" stroke-dasharray="0,4"></line>
                                    <polygon id="Triangle" fill="#FEDB41" transform="translate(315.098593, 4.923897) rotate(-270.000000) translate(-315.098593, -4.923897) " points="315.098593 0.423897048 319.598593 9.42389705 310.598593 9.42389705"></polygon>
                                </g>
                            </g>
                            <g id="2" transform="translate(350.000000, 0.000000)">
                                <circle id="Oval" stroke="#3698E4" stroke-width="3" cx="332.5" cy="5.5" r="3"></circle>
                                <g id="1">
                                    <line x1="0.416152188" y1="5" x2="311.529458" y2="5" id="Path-5" stroke="#3698E4" stroke-width="2" stroke-linecap="round" stroke-dasharray="0,4"></line>
                                    <polygon id="Triangle" fill="#3698E4" transform="translate(315.098593, 4.923897) rotate(-270.000000) translate(-315.098593, -4.923897) " points="315.098593 0.423897048 319.598593 9.42389705 310.598593 9.42389705"></polygon>
                                </g>
                            </g>
                            <g id="1" transform="translate(178.000000, 0.000000)">
                                <circle id="Oval" stroke="#3698E4" stroke-width="3" cx="156.5" cy="5.5" r="3"></circle>
                                <g>
                                    <line x1="0.692244808" y1="5" x2="134.529458" y2="5" id="Path-5" stroke="#3698E4" stroke-width="2" stroke-linecap="round" stroke-dasharray="0,4"></line>
                                    <polygon id="Triangle" fill="#3698E4" transform="translate(139.098593, 4.923897) rotate(-270.000000) translate(-139.098593, -4.923897) " points="139.098593 0.423897048 143.598593 9.42389705 134.598593 9.42389705"></polygon>
                                </g>
                            </g>
                            <g id="Group-11" transform="translate(0.692245, 320.000000)">
                                <polygon id="Triangle" fill="#C66FEC" transform="translate(17.406348, 137.923897) rotate(-270.000000) translate(-17.406348, -137.923897) " points="17.4063481 133.423897 21.9063481 142.423897 12.9063481 142.423897"></polygon>
                                <path d="M-5.32907052e-14,137.847992 L-5.32907052e-14,10 C-5.39670589e-14,4.4771525 4.4771525,-2.4057e-13 10,-2.4158453e-13 L19.837213,-2.4158453e-13 L19.837213,-2.4158453e-13" id="Path-5" stroke="#C66FEC" stroke-width="2" stroke-linecap="round" stroke-dasharray="0,4" transform="translate(9.918607, 68.923996) scale(1, -1) translate(-9.918607, -68.923996) "></path>
                            </g>
                            <g id="Group-10" transform="translate(0.692245, 0.423897)">
                                <path d="M-2.98427949e-13,139.424095 L-2.98427949e-13,14.576103 C-3.0088066e-13,9.05325545 4.4771525,4.57610295 10,4.57610295 L18.837213,4.57610295 L18.837213,4.57610295" id="Path-5" stroke="#3698E4" stroke-width="2" stroke-linecap="round" stroke-dasharray="0,4"></path>
                                <polygon id="Triangle" fill="#3698E4" transform="translate(17.406348, 4.500000) rotate(-270.000000) translate(-17.406348, -4.500000) " points="17.4063481 0 21.9063481 9 12.9063481 9"></polygon>
                            </g>
                        </g>
                    </g>
                </g>
            </g>
        </g>
    </g>
</svg>