<svg xmlns="http://www.w3.org/2000/svg" width="1230" height="340" viewBox="0 0 1230 340"><defs><radialGradient id="fayfa" cx="194.69" cy="505.09" r="1038.95" gradientUnits="userSpaceOnUse"><stop offset="0" stop-color="#0071db"/><stop offset="1" stop-color="#10c0e6"/></radialGradient><filter id="fayfc" width="176%" height="176%" x="-28%" y="-28%" filterUnits="objectBoundingBox"><feGaussianBlur in="SourceGraphic" result="FeGaussianBlur1539Out" stdDeviation="40 40"/></filter><filter id="fayfd" width="176%" height="176%" x="-28%" y="-28%" filterUnits="objectBoundingBox"><feGaussianBlur in="SourceGraphic" result="FeGaussianBlur1546Out" stdDeviation="40 40"/></filter><clipPath id="fayff"><path fill="#fff" d="M782.5 307a3.5 3.5 0 1 0 0-7 3.5 3.5 0 0 0 0 7z"/></clipPath><clipPath id="fayfg"><path fill="#fff" d="M680.5 272a3.5 3.5 0 1 0 0-7 3.5 3.5 0 0 0 0 7z"/></clipPath><clipPath id="fayfh"><path fill="#fff" d="M634.5 312a3.5 3.5 0 1 0 0-7 3.5 3.5 0 0 0 0 7z"/></clipPath><clipPath id="fayfi"><path fill="#fff" d="M534.5 275a3.5 3.5 0 1 0 0-7 3.5 3.5 0 0 0 0 7z"/></clipPath><linearGradient id="fayfj" x1="789" x2="789" y1="206.55" y2="245.09" gradientUnits="userSpaceOnUse"><stop offset="0" stop-color="#f4fdff"/><stop offset="1" stop-color="#9ce9f9"/></linearGradient><clipPath id="fayfb"><path d="M0 10C0 4.477 4.477 0 10 0h1210c5.523 0 10 4.477 10 10v320c0 5.523-4.477 10-10 10H10c-5.523 0-10-4.477-10-10z"/></clipPath><clipPath id="fayfe"><path d="M0 10C0 4.477 4.477 0 10 0h1210c5.523 0 10 4.477 10 10v320c0 5.523-4.477 10-10 10H10c-5.523 0-10-4.477-10-10z"/></clipPath></defs><g><g><g><g><path fill="url(#fayfa)" d="M0 10C0 4.477 4.477 0 10 0h1210c5.523 0 10 4.477 10 10v320c0 5.523-4.477 10-10 10H10c-5.523 0-10-4.477-10-10z"/></g><g clip-path="url(#fayfb)" filter="url(#fayfc)" opacity=".3"><path fill="#fff" d="M861.5 160C978.86 160 1074 64.86 1074-52.5S978.86-265 861.5-265 649-169.86 649-52.5 744.14 160 861.5 160z"/></g><g clip-path="url(#fayfb)" filter="url(#fayfd)" opacity=".3"><path fill="#10e2ce" d="M292.5 633C409.86 633 505 537.86 505 420.5S409.86 208 292.5 208 80 303.14 80 420.5 175.14 633 292.5 633z"/></g><g/><g clip-path="url(#fayfe)"><g><path fill="none" stroke="#63cce2" stroke-miterlimit="20" stroke-width="2" d="M782.5 307a3.5 3.5 0 1 0 0-7 3.5 3.5 0 0 0 0 7z" clip-path="url(&quot;#fayff&quot;)"/></g><g><path fill="none" stroke="#11dadc" stroke-miterlimit="20" stroke-width="2" d="M680.5 272a3.5 3.5 0 1 0 0-7 3.5 3.5 0 0 0 0 7z" clip-path="url(&quot;#fayfg&quot;)"/></g><g><path fill="none" stroke="#63cce2" stroke-miterlimit="20" stroke-width="2" d="M634.5 312a3.5 3.5 0 1 0 0-7 3.5 3.5 0 0 0 0 7z" clip-path="url(&quot;#fayfh&quot;)"/></g><g><path fill="none" stroke="#11dadc" stroke-miterlimit="20" stroke-width="2" d="M534.5 275a3.5 3.5 0 1 0 0-7 3.5 3.5 0 0 0 0 7z" clip-path="url(&quot;#fayfi&quot;)"/></g><g opacity=".6"><path fill="none" stroke="#fff" stroke-miterlimit="20" stroke-width=".5" d="M453.32 340l73.99-65"/></g><g opacity=".6"><path fill="none" stroke="#fff" stroke-miterlimit="20" stroke-width=".5" d="M627.486 306.948L541.3 273.9"/></g><g opacity=".6"><path fill="none" stroke="#fff" stroke-miterlimit="20" stroke-width=".5" d="M787.7 298L1021.004-3"/></g><g opacity=".6"><path fill="none" stroke="#fff" stroke-miterlimit="20" stroke-width=".5" d="M775.032 301.287L687.78 270.24"/></g><g opacity=".6"><path fill="none" stroke="#fff" stroke-miterlimit="20" stroke-width=".5" d="M640.75 303.5l34.935-30.5"/></g></g><g clip-path="url(#fayfe)"><g><path fill="#5bd5f0" d="M1014 69.125c0-1.726 1.4-3.125 3.125-3.125h43.75c1.726 0 3.125 1.4 3.125 3.125v90.625h-50z"/></g><g><path fill="#39a9e6" d="M1014 83.5v76.25h6.25V78.5z"/></g><g><path fill="#39a9e6" d="M1057.75 103.5v56.25h6.25V108.5z"/></g><g><path fill="#9ce9f9" d="M990.173 102.562a3.125 3.125 0 0 0-1.173 2.44v51.623c0 1.726 1.4 3.125 3.125 3.125H1014V83.5z"/></g><g><path fill="#9ce9f9" d="M1064 108.5v51.25h21.875c1.726 0 3.125-1.4 3.125-3.125v-26.623c0-.95-.432-1.847-1.173-2.44z"/></g><g><g><path fill="#e3faff" d="M1076.5 134.75h12.5V141h-12.5z"/></g><g><path fill="#e3faff" d="M1076.5 147.25h12.5v6.25h-12.5z"/></g><g><path fill="#e3faff" d="M989 134.75h12.5V141H989z"/></g><g><path fill="#e3faff" d="M989 122.25h12.5v6.25H989z"/></g><g><path fill="#e3faff" d="M989 109.75h12.5V116H989z"/></g></g><g><path fill="#e3faff" d="M989 147.25h12.5v6.25H989z"/></g><g><path fill="#e3faff" d="M1026.5 78.5h25v6.25h-25z"/></g><g><path fill="#e3faff" d="M1026.5 91h25v6.25h-25z"/></g><g><path fill="#e3faff" d="M1026.5 103.5h25v6.25h-25z"/></g><g><path fill="#e3faff" d="M1026.5 116h25v6.25h-25z"/></g><g><path fill="#e3faff" d="M1026.5 128.5h25v6.25h-25z"/></g><g><path fill="#e3faff" d="M1032.75 147.25h12.5v12.5h-12.5z"/></g></g><g clip-path="url(#fayfe)"/><g clip-path="url(#fayfe)"><g><path fill="#5bd5f0" d="M852 101a5 5 0 0 1 5-5h70a5 5 0 0 1 5 5v145h-80z"/></g><g><path fill="#39a9e6" d="M852 124v122h10V116z"/></g><g><path fill="#39a9e6" d="M922 156v90h10v-82z"/></g><g><path fill="#9ce9f9" d="M813.877 154.499a5 5 0 0 0-1.877 3.904V241a5 5 0 0 0 5 5h35V124z"/></g><g><path fill="#9ce9f9" d="M932 164v82h35a5 5 0 0 0 5-5v-42.597a5 5 0 0 0-1.877-3.904z"/></g><g><g><path fill="#e3faff" d="M952 206h20v10h-20z"/></g><g><path fill="#e3faff" d="M952 226h20v10h-20z"/></g><g><path fill="#e3faff" d="M812 206h20v10h-20z"/></g><g><path fill="#e3faff" d="M812 186h20v10h-20z"/></g><g><path fill="#e3faff" d="M812 166h20v10h-20z"/></g></g><g><path fill="#e3faff" d="M812 226h20v10h-20z"/></g><g><path fill="#e3faff" d="M872 116h40v10h-40z"/></g><g><path fill="#e3faff" d="M872 136h40v10h-40z"/></g><g><path fill="#e3faff" d="M872 156h40v10h-40z"/></g><g><path fill="#e3faff" d="M872 176h40v10h-40z"/></g><g><path fill="#e3faff" d="M872 196h40v10h-40z"/></g><g><path fill="#e3faff" d="M882 226h20v20h-20z"/></g></g><g clip-path="url(#fayfe)"><g><path fill="url(#fayfj)" d="M788.997 206.55a2.726 2.726 0 0 0-2.727 2.727v33.091a2.726 2.726 0 0 0 2.727 2.727 2.726 2.726 0 0 0 2.728-2.727v-33.09a2.726 2.726 0 0 0-2.728-2.728z"/></g><g><g><g><path fill="#eac420" d="M789.595 210.08c15.456 0 27.985-12.53 27.985-27.985 0-15.456-12.53-27.985-27.985-27.985-15.456 0-27.985 12.53-27.985 27.985 0 15.456 12.53 27.985 27.985 27.985z"/></g><g><path fill="#fedb41" d="M789.591 204.333c12.278 0 22.231-9.954 22.231-22.232 0-12.278-9.953-22.231-22.23-22.231-12.279 0-22.232 9.953-22.232 22.231 0 12.278 9.953 22.232 22.231 22.232z"/></g><g><path fill="#ffe571" d="M790.732 162.303c-10.932-.63-20.308 7.72-20.938 18.655-.631 10.934 7.722 20.307 18.654 20.938z"/></g></g></g><g transform="rotate(4 789 182)"><path d="M787.528 190c-.473 0-.936-.14-1.33-.406l-7.198-4.83 2.662-4.019 5.369 3.602L795.252 174l3.748 3.019-9.598 12.075a2.391 2.391 0 0 1-1.874.906z"/></g></g><g clip-path="url(#fayfe)"><g><path fill="#5bd5f0" d="M737 67.875c0-1.036.84-1.875 1.875-1.875h26.25c1.036 0 1.875.84 1.875 1.875v54.375h-30z"/></g><g><path fill="#39a9e6" d="M737 76.5v45.75h3.75V73.5z"/></g><g><path fill="#39a9e6" d="M763.25 88.5v33.75H767V91.5z"/></g><g><path fill="#9ce9f9" d="M722.704 87.937a1.875 1.875 0 0 0-.704 1.464v30.974c0 1.036.84 1.875 1.875 1.875H737V76.5z"/></g><g><path fill="#9ce9f9" d="M767 91.5v30.75h13.125c1.036 0 1.875-.84 1.875-1.875v-15.974c0-.57-.259-1.108-.704-1.464z"/></g><g><g><path fill="#e3faff" d="M774.5 107.25h7.5V111h-7.5z"/></g><g><path fill="#e3faff" d="M774.5 114.75h7.5v3.75h-7.5z"/></g><g><path fill="#e3faff" d="M722 107.25h7.5V111H722z"/></g><g><path fill="#e3faff" d="M722 99.75h7.5v3.75H722z"/></g><g><path fill="#e3faff" d="M722 92.25h7.5V96H722z"/></g></g><g><path fill="#e3faff" d="M722 114.75h7.5v3.75H722z"/></g><g><path fill="#e3faff" d="M744.5 73.5h15v3.75h-15z"/></g><g><path fill="#e3faff" d="M744.5 81h15v3.75h-15z"/></g><g><path fill="#e3faff" d="M744.5 88.5h15v3.75h-15z"/></g><g><path fill="#e3faff" d="M744.5 96h15v3.75h-15z"/></g><g><path fill="#e3faff" d="M744.5 103.5h15v3.75h-15z"/></g><g><path fill="#e3faff" d="M748.25 114.75h7.5v7.5h-7.5z"/></g></g><g clip-path="url(#fayfe)"/><g clip-path="url(#fayfe)" opacity=".8"><g opacity=".8"><g opacity=".8"><path fill="#5bd5f0" d="M1115.25 256.424c0-.604.49-1.094 1.094-1.094h15.312c.604 0 1.094.49 1.094 1.094v31.719h-17.5z"/></g><g opacity=".8"><path fill="#39a9e6" d="M1115.25 261.46v26.688h2.188V259.71z"/></g><g opacity=".8"><path fill="#39a9e6" d="M1130.56 268.46v19.688h2.188V270.21z"/></g><g opacity=".8"><path fill="#9ce9f9" d="M1106.91 268.132c-.259.207-.41.521-.41.854v18.068c0 .604.49 1.094 1.094 1.094h7.656V261.46z"/></g><g opacity=".8"><path fill="#9ce9f9" d="M1132.75 270.21v17.938h7.656c.604 0 1.094-.49 1.094-1.094v-9.318c0-.333-.151-.647-.41-.854z"/></g><g opacity=".8"><g opacity=".8"><path fill="#e3faff" d="M1137.13 279.4h4.375v2.187h-4.375z"/></g><g opacity=".8"><path fill="#e3faff" d="M1137.13 283.77h4.375v2.188h-4.375z"/></g><g opacity=".8"><path fill="#e3faff" d="M1106.5 279.4h4.375v2.187h-4.375z"/></g><g opacity=".8"><path fill="#e3faff" d="M1106.5 275.02h4.375v2.188h-4.375z"/></g><g opacity=".8"><path fill="#e3faff" d="M1106.5 270.65h4.375v2.187h-4.375z"/></g></g><g opacity=".8"><path fill="#e3faff" d="M1106.5 283.77h4.375v2.188h-4.375z"/></g><g opacity=".8"><path fill="#e3faff" d="M1119.63 259.71h8.75v2.188h-8.75z"/></g><g opacity=".8"><path fill="#e3faff" d="M1119.63 264.08h8.75v2.188h-8.75z"/></g><g opacity=".8"><path fill="#e3faff" d="M1119.63 268.46h8.75v2.188h-8.75z"/></g><g opacity=".8"><path fill="#e3faff" d="M1119.63 272.83h8.75v2.188h-8.75z"/></g><g opacity=".8"><path fill="#e3faff" d="M1119.63 277.21h8.75v2.188h-8.75z"/></g><g opacity=".8"><path fill="#e3faff" d="M1121.81 283.77h4.375v4.375h-4.375z"/></g></g><g opacity=".8"/></g><g clip-path="url(#fayfe)"><g><g><path fill="#5bd5f0" d="M592 161.92c0-.69.56-1.25 1.25-1.25h17.5c.69 0 1.25.56 1.25 1.25v36.25h-20z"/></g><g><path fill="#39a9e6" d="M592 167.67v30.5h2.5v-32.5z"/></g><g><path fill="#39a9e6" d="M609.5 175.67v22.5h2.5v-20.5z"/></g><g><path fill="#9ce9f9" d="M582.47 175.295a1.25 1.25 0 0 0-.47.976v20.649c0 .69.56 1.25 1.25 1.25H592v-30.5z"/></g><g><path fill="#9ce9f9" d="M612 177.67v20.5h8.75c.69 0 1.25-.56 1.25-1.25v-10.65c0-.379-.173-.738-.47-.975z"/></g><g><g><path fill="#e3faff" d="M617 188.17h5v2.5h-5z"/></g><g><path fill="#e3faff" d="M617 193.17h5v2.5h-5z"/></g><g><path fill="#e3faff" d="M582 188.17h5v2.5h-5z"/></g><g><path fill="#e3faff" d="M582 183.17h5v2.5h-5z"/></g><g><path fill="#e3faff" d="M582 178.17h5v2.5h-5z"/></g></g><g><path fill="#e3faff" d="M582 193.17h5v2.5h-5z"/></g><g><path fill="#e3faff" d="M597 165.67h10v2.5h-10z"/></g><g><path fill="#e3faff" d="M597 170.67h10v2.5h-10z"/></g><g><path fill="#e3faff" d="M597 175.67h10v2.5h-10z"/></g><g><path fill="#e3faff" d="M597 180.67h10v2.5h-10z"/></g><g><path fill="#e3faff" d="M597 185.67h10v2.5h-10z"/></g><g><path fill="#e3faff" d="M599.5 193.17h5v5h-5z"/></g></g><g/></g></g></g></g></svg>