<svg xmlns="http://www.w3.org/2000/svg" xmlns:xlink="http://www.w3.org/1999/xlink" width="1281" height="397" viewBox="0 0 1281 397">
    <defs>
        <circle id="7sqqlfpbia" cx="773.5" cy="285.01" r="3.5"/>
        <circle id="7s1e2q736b" cx="821.5" cy="311.01" r="3.5"/>
        <circle id="gmq49lgwtc" cx="1122.5" cy="213.01" r="3.5"/>
        <circle id="syp4917wad" cx="718.5" cy="358.01" r="3.5"/>
        <circle id="7421sjj75e" cx="668.5" cy="329.01" r="3.5"/>
        <circle id="ckf28qj9wf" cx="634.5" cy="372.01" r="3.5"/>
        <circle id="9n8w7ufj5g" cx="421.5" cy="372.5" r="3.5"/>
        <circle id="c4gdmytsuh" cx="213.5" cy="372.5" r="3.5"/>
        <circle id="txhe54zvli" cx="5.5" cy="372.01" r="3.5"/>
    </defs>
    <g fill="none" fill-rule="evenodd">
        <g>
            <g>
                <path stroke="#FFF" stroke-width=".5" d="M5.5 375.51L5.5 394.617M213.5 375.51L213.5 394.617M421.5 375.51L421.5 394.617M634.5 375.51L634.5 394.617" opacity=".3" transform="translate(-354 -51) translate(356 52.49)"/>
                <g>
                    <path stroke="#FFF" stroke-width=".5" d="M0 372.51L635 372.51 667.539 329.098 719 358.315 771.5 285.51 820 311.677 943.643 127.51 1123.394 213.51 1278 0" opacity=".3" transform="translate(-354 -51) translate(356 52.49)"/>
                    <g transform="translate(-354 -51) translate(356 52.49)">
                        <use fill="#260A66" xlink:href="#7sqqlfpbia"/>
                        <circle cx="773.5" cy="285.01" r="5.5" stroke="#260A66" stroke-width="4"/>
                        <circle cx="773.5" cy="285.01" r="3" stroke="#11DADC" stroke-linejoin="square"/>
                    </g>
                    <g transform="translate(-354 -51) translate(356 52.49)">
                        <use fill="#050447" xlink:href="#7s1e2q736b"/>
                        <circle cx="821.5" cy="311.01" r="5.5" stroke="#1B075B" stroke-width="4"/>
                        <circle cx="821.5" cy="311.01" r="3" stroke="#CF44FB" stroke-linejoin="square"/>
                    </g>
                    <g transform="translate(-354 -51) translate(356 52.49)">
                        <use fill="#0E0C56" xlink:href="#gmq49lgwtc"/>
                        <circle cx="1122.5" cy="213.01" r="5.5" stroke="#0C0D56" stroke-width="4"/>
                        <circle cx="1122.5" cy="213.01" r="3" stroke="#CF44FB" stroke-linejoin="square"/>
                    </g>
                    <g transform="translate(-354 -51) translate(356 52.49)">
                        <use fill="#18065A" xlink:href="#syp4917wad"/>
                        <circle cx="718.5" cy="358.01" r="5.5" stroke="#18065A" stroke-width="4"/>
                        <circle cx="718.5" cy="358.01" r="3" stroke="#CF44FB" stroke-linejoin="square"/>
                    </g>
                    <g transform="translate(-354 -51) translate(356 52.49)">
                        <use fill="#1C0760" xlink:href="#7421sjj75e"/>
                        <circle cx="668.5" cy="329.01" r="5.5" stroke="#1C0760" stroke-width="4"/>
                        <circle cx="668.5" cy="329.01" r="3" stroke="#11DADC" stroke-linejoin="square"/>
                    </g>
                    <g transform="translate(-354 -51) translate(356 52.49)">
                        <use fill="#110554" xlink:href="#ckf28qj9wf"/>
                        <circle cx="634.5" cy="372.01" r="5.5" stroke="#110554" stroke-width="4"/>
                        <circle cx="634.5" cy="372.01" r="3" stroke="#9D9DC5" stroke-linejoin="square"/>
                    </g>
                    <g transform="translate(-354 -51) translate(356 52.49)">
                        <use fill="#050447" xlink:href="#9n8w7ufj5g"/>
                        <circle cx="421.5" cy="372.5" r="5.5" stroke="#050447" stroke-width="4"/>
                        <circle cx="421.5" cy="372.5" r="3" stroke="#9D9DC5" stroke-linejoin="square"/>
                    </g>
                    <g transform="translate(-354 -51) translate(356 52.49)">
                        <use fill="#050447" xlink:href="#c4gdmytsuh"/>
                        <circle cx="213.5" cy="372.5" r="5.5" stroke="#050447" stroke-width="4"/>
                        <circle cx="213.5" cy="372.5" r="3" stroke="#9D9DC5" stroke-linejoin="square"/>
                    </g>
                    <g transform="translate(-354 -51) translate(356 52.49)">
                        <use fill="#050447" xlink:href="#txhe54zvli"/>
                        <circle cx="5.5" cy="372.01" r="5.5" stroke="#050447" stroke-width="4"/>
                        <circle cx="5.5" cy="372.01" r="3" stroke="#9D9DC5" stroke-linejoin="square"/>
                    </g>
                </g>
            </g>
        </g>
    </g>
</svg>
