<svg xmlns="http://www.w3.org/2000/svg" width="312" height="94" viewBox="0 0 312 94"><defs><clipPath id="8di6a"><path fill="#fff" d="M295.5 27.49a3.5 3.5 0 1 0 0-7 3.5 3.5 0 0 0 0 7z"/></clipPath><clipPath id="8di6b"><path fill="#fff" d="M163.5 70.49a3.5 3.5 0 1 0 0-7 3.5 3.5 0 0 0 0 7z"/></clipPath><clipPath id="8di6c"><path fill="#fff" d="M23.5 70a3.5 3.5 0 1 0 0-7 3.5 3.5 0 0 0 0 7z"/></clipPath></defs><g><g clip-path="url(#clip-B2450925-E6A9-4E7D-849C-4CF10C3A7306)"><g opacity=".3"><path fill="none" stroke="#fff" stroke-miterlimit="20" stroke-width=".5" d="M23.5 75v6.106"/></g><g opacity=".3"><path fill="none" stroke="#fff" stroke-miterlimit="20" stroke-width=".5" d="M163.5 75v6.106"/></g><g opacity=".3"><path fill="none" stroke="#fff" stroke-miterlimit="20" stroke-width=".5" d="M23.5 37v22.106"/></g><g opacity=".3"><path fill="none" stroke="#fff" stroke-miterlimit="20" stroke-width=".5" d="M163.5 37v22.106"/></g><g opacity=".3"><path fill="none" stroke="#fff" stroke-miterlimit="20" stroke-width=".5" d="M339.5 69v19.106"/></g><g opacity=".3"><path fill="none" stroke="#fff" stroke-miterlimit="20" stroke-width=".5" d="M502.5 69v19.106"/></g><g><g opacity=".3"><path fill="none" stroke="#fff" stroke-miterlimit="20" stroke-width=".5" d="M171 67.496v0h92.261v0L290.91 29.46v0"/></g><g opacity=".3"><path fill="none" stroke="#fff" stroke-miterlimit="20" stroke-width=".5" d="M345.889 52.677L302.4 27.49"/></g><g opacity=".3"><path fill="none" stroke="#fff" stroke-miterlimit="20" stroke-width=".5" d="M31 67.5h124.261"/></g><g><path fill="none" stroke="#11dadc" stroke-miterlimit="20" stroke-width="2" d="M295.5 27.49a3.5 3.5 0 1 0 0-7 3.5 3.5 0 0 0 0 7z" clip-path="url(&quot;#8di6a&quot;)"/></g><g><path fill="none" stroke="#9d9dc5" stroke-miterlimit="20" stroke-width="2" d="M163.5 70.49a3.5 3.5 0 1 0 0-7 3.5 3.5 0 0 0 0 7z" clip-path="url(&quot;#8di6b&quot;)"/></g><g><path fill="none" stroke="#9d9dc5" stroke-miterlimit="20" stroke-width="2" d="M23.5 70a3.5 3.5 0 1 0 0-7 3.5 3.5 0 0 0 0 7z" clip-path="url(&quot;#8di6c&quot;)"/></g></g></g></g></svg>