<svg xmlns="http://www.w3.org/2000/svg" width="1920" height="152" viewBox="0 0 1920 152"><defs><radialGradient id="qcx1c" cx="829.14" cy="96.28" r="650.54" gradientUnits="userSpaceOnUse"><stop offset="0" stop-color="#4600d1"/><stop offset=".5" stop-color="#ac0cc5"/><stop offset="1" stop-color="#fff"/></radialGradient><filter id="qcx1b" width="172%" height="172%" x="-26%" y="-26%" filterUnits="objectBoundingBox"><feGaussianBlur in="SourceGraphic" result="FeGaussianBlur3962Out" stdDeviation="50 50"/></filter><radialGradient id="qcx1e" cx="965.7" cy="-12.7" r="353.27" gradientUnits="userSpaceOnUse"><stop offset="0" stop-color="#4600d1"/><stop offset=".5" stop-color="#ac0cc5"/><stop offset="1" stop-color="#fff"/></radialGradient><filter id="qcx1d" width="200%" height="200%" x="-40%" y="-40%" filterUnits="objectBoundingBox"><feGaussianBlur in="SourceGraphic" result="FeGaussianBlur3973Out" stdDeviation="50 50"/></filter><filter id="qcx1f" width="176%" height="176%" x="-28%" y="-28%" filterUnits="objectBoundingBox"><feGaussianBlur in="SourceGraphic" result="FeGaussianBlur3980Out" stdDeviation="50 50"/></filter><filter id="qcx1g" width="216%" height="220%" x="-48%" y="-50%" filterUnits="objectBoundingBox"><feGaussianBlur in="SourceGraphic" result="FeGaussianBlur3987Out" stdDeviation="50 50"/></filter><clipPath id="qcx1a"><path d="M0 0h1920v152H0z"/></clipPath></defs><g><g><g><path fill="#050447" d="M0 0h1920v152H0z"/></g><g clip-path="url(#qcx1a)" filter="url(#qcx1b)" opacity=".2"><path fill="url(#qcx1c)" d="M1128 232c166.79 0 302-135.21 302-302s-135.21-302-302-302S826-236.79 826-70s135.21 302 302 302z"/></g><g clip-path="url(#qcx1a)" filter="url(#qcx1d)" opacity=".5"><path fill="url(#qcx1e)" d="M1128 61c90.575 0 164-73.425 164-164s-73.425-164-164-164-164 73.425-164 164 73.425 164 164 164z"/></g><g clip-path="url(#qcx1a)" filter="url(#qcx1f)" opacity=".5"><path fill="#0fb6e9" d="M376.19 598.07c150.774 0 273-118.197 273-264s-122.226-264-273-264-273 118.197-273 264 122.226 264 273 264z"/></g><g clip-path="url(#qcx1a)" filter="url(#qcx1g)" opacity=".5"><path fill="#0fb6e9" d="M395.19 416.07c70.692 0 128-55.517 128-124s-57.308-124-128-124c-70.692 0-128 55.517-128 124s57.308 124 128 124z"/></g><g/></g></g></svg>