<svg xmlns="http://www.w3.org/2000/svg" xmlns:xlink="http://www.w3.org/1999/xlink" width="1920" height="560" viewBox="0 0 1920 560">
    <defs>
        <filter id="3eotiup8oe" width="149.7%" height="149.7%" x="-24.8%" y="-24.8%" filterUnits="objectBoundingBox">
            <feGaussianBlur in="SourceGraphic" stdDeviation="50"/>
        </filter>
        <filter id="yv6ik28lzf" width="191.5%" height="191.5%" x="-45.7%" y="-45.7%" filterUnits="objectBoundingBox">
            <feGaussianBlur in="SourceGraphic" stdDeviation="50"/>
        </filter>
        <filter id="xqujz8udsg" width="179.4%" height="179.4%" x="-39.7%" y="-39.7%" filterUnits="objectBoundingBox">
            <feGaussianBlur in="SourceGraphic" stdDeviation="50"/>
        </filter>
        <filter id="ebmh0144sh" width="154.9%" height="156.8%" x="-27.5%" y="-28.4%" filterUnits="objectBoundingBox">
            <feGaussianBlur in="SourceGraphic" stdDeviation="50"/>
        </filter>
        <filter id="wtqq9ib2li" width="217.2%" height="221%" x="-58.6%" y="-60.5%" filterUnits="objectBoundingBox">
            <feGaussianBlur in="SourceGraphic" stdDeviation="50"/>
        </filter>
        <path id="qq4yxc8ila" d="M0 0H1920V560H0z"/>
        <path id="4xht6pkkgj" d="M0 0H1920V560H0z"/>
        <radialGradient id="y0hy1d4zjd" cx=".519%" cy="77.53%" r="107.705%" fx=".519%" fy="77.53%" gradientTransform="matrix(.75097 -.66034 1.3815 1.5711 -1.07 -.44)">
            <stop offset="0%" stop-color="#4600D1"/>
            <stop offset="50.002%" stop-color="#AC0CC5"/>
            <stop offset="100%" stop-color="#FFF"/>
        </radialGradient>
        <linearGradient id="6ssqr0cjcb" x1="50.517%" x2="50.517%" y1="21.428%" y2="68.973%">
            <stop offset="0%" stop-color="#3534A3"/>
            <stop offset="100%" stop-color="#050447"/>
        </linearGradient>
    </defs>
    <g fill="none" fill-rule="evenodd">
        <g>
            <mask id="0pfha3nkoc" fill="#fff">
                <use xlink:href="#qq4yxc8ila"/>
            </mask>
            <use fill="#050447" xlink:href="#qq4yxc8ila"/>
            <path fill="url(#6ssqr0cjcb)" d="M405 425L992 425 1024.539 381.588 1076 410.805 1128.5 338 1177 364.166 1320.643 180 1480.394 266 1590.629 105 1590.629 560.297 405 560.297" mask="url(#0pfha3nkoc)" opacity=".2"/>
            <circle cx="1080" cy="71" r="302" fill="url(#y0hy1d4zjd)" filter="url(#3eotiup8oe)" mask="url(#0pfha3nkoc)" opacity=".2"/>
            <circle cx="1080" cy="38" r="164" fill="url(#y0hy1d4zjd)" filter="url(#yv6ik28lzf)" mask="url(#0pfha3nkoc)" opacity=".5"/>
            <circle cx="452" cy="675" r="189" fill="url(#y0hy1d4zjd)" filter="url(#xqujz8udsg)" mask="url(#0pfha3nkoc)" opacity=".2"/>
            <ellipse cx="1843.193" cy="642.07" fill="#0FB6E9" filter="url(#ebmh0144sh)" mask="url(#0pfha3nkoc)" opacity=".5" rx="273" ry="264"/>
            <ellipse cx="1862.193" cy="600.07" fill="#0FB6E9" filter="url(#wtqq9ib2li)" mask="url(#0pfha3nkoc)" opacity=".5" rx="128" ry="124"/>
        </g>
    </g>
</svg>
