<svg xmlns="http://www.w3.org/2000/svg" width="745" height="453" viewBox="0 0 745 453"><defs><clipPath id="j61ba"><path fill="#fff" d="M811.5 183a3.5 3.5 0 1 0 0-7 3.5 3.5 0 0 0 0 7z"/></clipPath><clipPath id="j61bb"><path fill="#fff" d="M641.5 341a3.5 3.5 0 1 0 0-7 3.5 3.5 0 0 0 0 7z"/></clipPath><clipPath id="j61bc"><path fill="#fff" d="M689.5 367a3.5 3.5 0 1 0 0-7 3.5 3.5 0 0 0 0 7z"/></clipPath><clipPath id="j61bd"><path fill="#fff" d="M990.5 269a3.5 3.5 0 1 0 0-7 3.5 3.5 0 0 0 0 7z"/></clipPath><clipPath id="j61be"><path fill="#fff" d="M586.5 414a3.5 3.5 0 1 0 0-7 3.5 3.5 0 0 0 0 7z"/></clipPath><clipPath id="j61bf"><path fill="#fff" d="M536.5 385a3.5 3.5 0 1 0 0-7 3.5 3.5 0 0 0 0 7z"/></clipPath><clipPath id="j61bg"><path fill="#fff" d="M502.5 428a3.5 3.5 0 1 0 0-7 3.5 3.5 0 0 0 0 7z"/></clipPath><clipPath id="j61bh"><path fill="#fff" d="M339.5 428.49a3.5 3.5 0 1 0 0-7 3.5 3.5 0 0 0 0 7z"/></clipPath><clipPath id="j61bi"><path fill="#fff" d="M181.5 428.49a3.5 3.5 0 1 0 0-7 3.5 3.5 0 0 0 0 7z"/></clipPath><clipPath id="j61bj"><path fill="#fff" d="M23.5 428a3.5 3.5 0 1 0 0-7 3.5 3.5 0 0 0 0 7z"/></clipPath></defs><g><g clip-path="url(#clip-FE3EE106-D6AA-4209-BF57-3CB5601212B2)"><g opacity=".3"><path fill="none" stroke="#fff" stroke-miterlimit="20" stroke-width=".5" d="M23.5 432v15.106"/></g><g opacity=".3"><path fill="none" stroke="#fff" stroke-miterlimit="20" stroke-width=".5" d="M181.5 432v15.106"/></g><g opacity=".3"><path fill="none" stroke="#fff" stroke-miterlimit="20" stroke-width=".5" d="M339.5 432v15.106"/></g><g opacity=".3"><path fill="none" stroke="#fff" stroke-miterlimit="20" stroke-width=".5" d="M502.5 431v16.106"/></g><g><g><path fill="none" stroke="#11dadc" stroke-miterlimit="20" stroke-width="2" d="M811.5 183a3.5 3.5 0 1 0 0-7 3.5 3.5 0 0 0 0 7z" clip-path="url(&quot;#j61ba&quot;)"/></g><g><path fill="none" stroke="#11dadc" stroke-miterlimit="20" stroke-width="2" d="M641.5 341a3.5 3.5 0 1 0 0-7 3.5 3.5 0 0 0 0 7z" clip-path="url(&quot;#j61bb&quot;)"/></g><g><path fill="none" stroke="#cf44fb" stroke-miterlimit="20" stroke-width="2" d="M689.5 367a3.5 3.5 0 1 0 0-7 3.5 3.5 0 0 0 0 7z" clip-path="url(&quot;#j61bc&quot;)"/></g><g><path fill="none" stroke="#cf44fb" stroke-miterlimit="20" stroke-width="2" d="M990.5 269a3.5 3.5 0 1 0 0-7 3.5 3.5 0 0 0 0 7z" clip-path="url(&quot;#j61bd&quot;)"/></g><g><path fill="none" stroke="#cf44fb" stroke-miterlimit="20" stroke-width="2" d="M586.5 414a3.5 3.5 0 1 0 0-7 3.5 3.5 0 0 0 0 7z" clip-path="url(&quot;#j61be&quot;)"/></g><g><path fill="none" stroke="#11dadc" stroke-miterlimit="20" stroke-width="2" d="M536.5 385a3.5 3.5 0 1 0 0-7 3.5 3.5 0 0 0 0 7z" clip-path="url(&quot;#j61bf&quot;)"/></g><g opacity=".3"><path fill="none" stroke="#fff" stroke-miterlimit="20" stroke-width=".5" d="M995.93 259.941L1183.388 0"/></g><g opacity=".3"><path fill="none" stroke="#fff" stroke-miterlimit="20" stroke-width=".5" d="M983.322 262L817.9 183"/></g><g opacity=".3"><path fill="none" stroke="#fff" stroke-miterlimit="20" stroke-width=".5" d="M693 357.196L807 186.85"/></g><g opacity=".3"><path fill="none" stroke="#fff" stroke-miterlimit="20" stroke-width=".5" d="M647.57 342.4l34.896 18.089"/></g><g opacity=".3"><path fill="none" stroke="#fff" stroke-miterlimit="20" stroke-width=".5" d="M638 343.4l-47 61.096"/></g><g opacity=".3"><path fill="none" stroke="#fff" stroke-miterlimit="20" stroke-width=".5" d="M579.91 407L543 386"/></g><g opacity=".3"><path fill="none" stroke="#fff" stroke-miterlimit="20" stroke-width=".5" d="M508.34 418.375l23.664-31.695"/></g><g><path fill="none" stroke="#9d9dc5" stroke-miterlimit="20" stroke-width="2" d="M502.5 428a3.5 3.5 0 1 0 0-7 3.5 3.5 0 0 0 0 7z" clip-path="url(&quot;#j61bg&quot;)"/></g><g><path fill="none" stroke="#9d9dc5" stroke-miterlimit="20" stroke-width="2" d="M339.5 428.49a3.5 3.5 0 1 0 0-7 3.5 3.5 0 0 0 0 7z" clip-path="url(&quot;#j61bh&quot;)"/></g><g><path fill="none" stroke="#9d9dc5" stroke-miterlimit="20" stroke-width="2" d="M181.5 428.49a3.5 3.5 0 1 0 0-7 3.5 3.5 0 0 0 0 7z" clip-path="url(&quot;#j61bi&quot;)"/></g><g><path fill="none" stroke="#9d9dc5" stroke-miterlimit="20" stroke-width="2" d="M23.5 428a3.5 3.5 0 1 0 0-7 3.5 3.5 0 0 0 0 7z" clip-path="url(&quot;#j61bj&quot;)"/></g><g opacity=".3"><path fill="none" stroke="#fff" stroke-miterlimit="20" stroke-width=".5" d="M347.5 425h147.261"/></g><g opacity=".3"><path fill="none" stroke="#fff" stroke-miterlimit="20" stroke-width=".5" d="M189.5 425h142.261"/></g><g opacity=".3"><path fill="none" stroke="#fff" stroke-miterlimit="20" stroke-width=".5" d="M31.5 425h142.261"/></g></g></g></g></svg>