<svg xmlns="http://www.w3.org/2000/svg" width="30" height="47" viewBox="0 0 30 47">
    <defs>
        <radialGradient id="1h0knk74ja" cx=".754%" cy="77.323%" r="148.05%" fx=".754%" fy="77.323%" gradientTransform="matrix(.53728 -.47244 1.7645 .62966 -1.36 .29)">
            <stop offset="0%" stop-color="#8954BF"/>
            <stop offset="50.367%" stop-color="#A843B8"/>
            <stop offset="99.427%" stop-color="#D175F3"/>
        </radialGradient>
        <linearGradient id="0x7k6x0qdb" x1="50%" x2="50%" y1="100%" y2="0%">
            <stop offset="0%" stop-color="#EA89FF"/>
            <stop offset="100%" stop-color="#FFF1FF"/>
        </linearGradient>
    </defs>
    <g fill="none" fill-rule="evenodd">
        <g>
            <g>
                <g>
                    <g>
                        <path fill="url(#1h0knk74ja)" d="M20.673 20.475c4.072-2.116 6.6-6.268 6.6-10.839V2.727c0-.753-.61-1.363-1.364-1.363H4.091c-.754 0-1.364.61-1.364 1.363v6.91c0 4.57 2.528 8.722 6.6 10.838.962.498 1.582 1.595 1.582 2.798 0 1.202-.62 2.3-1.582 2.798-4.072 2.116-6.6 6.268-6.6 10.838v6.91c0 .753.61 1.363 1.364 1.363h21.818c.754 0 1.364-.61 1.364-1.364V36.91c0-4.57-2.528-8.722-6.6-10.838-.962-.498-1.582-1.596-1.582-2.798 0-1.203.62-2.3 1.582-2.798z" transform="translate(-1260 -3194) translate(345 2300) translate(630 774) translate(285 120)"/>
                        <path fill="url(#0x7k6x0qdb)" fill-rule="nonzero" d="M20.455 8.273H9.545c-.753 0-1.363.61-1.363 1.363 0 2.528 1.4 4.825 3.654 5.996.812.42 1.545.97 2.176 1.635.258.27.615.423.988.423s.73-.153.988-.423c.634-.666 1.364-1.215 2.17-1.631 2.26-1.175 3.66-3.473 3.66-6 0-.753-.61-1.363-1.363-1.363zM15 28.727c-.754 0-1.364.61-1.364 1.364v2.159c-.54.5-1.145.924-1.8 1.263-2.253 1.17-3.654 3.468-3.654 5.996 0 .753.61 1.363 1.363 1.363h10.91c.753 0 1.363-.61 1.363-1.363 0-2.527-1.4-4.825-3.66-6l-.002-.001c-.65-.336-1.252-.758-1.792-1.26v-2.157c0-.754-.61-1.364-1.364-1.364zm-13.636-26h27.272c.754 0 1.364-.61 1.364-1.363C30 .61 29.39 0 28.636 0H1.364C.61 0 0 .61 0 1.364c0 .753.61 1.363 1.364 1.363zm27.272 41.091H1.364c-.754 0-1.364.61-1.364 1.364 0 .754.61 1.363 1.364 1.363h27.272c.754 0 1.364-.61 1.364-1.363 0-.754-.61-1.364-1.364-1.364z" transform="translate(-1260 -3194) translate(345 2300) translate(630 774) translate(285 120)"/>
                    </g>
                </g>
            </g>
        </g>
    </g>
</svg>
