<svg xmlns="http://www.w3.org/2000/svg" width="40" height="40" viewBox="0 0 40 40"><g><g><g><path fill="#45a7e7" d="M23.048 17.169l-3.054 2.163-3.053-2.163a3.907 3.907 0 0 1-1.646-3.183v-2.484h9.399v2.484a3.908 3.908 0 0 1-1.646 3.183zm2.865 12.542c.196 0 .361.167.361.364v1.017a.367.367 0 0 1-.361.363H14.076a.367.367 0 0 1-.362-.363v-1.017c0-.197.166-.364.362-.364h11.837zm-.015-15.725v-2.484h.015c.863 0 1.566-.702 1.566-1.565V8.926c0-.863-.703-1.566-1.566-1.566H17.07a.602.602 0 0 0 0 1.204h8.842c.196 0 .361.166.361.362v1.01a.366.366 0 0 1-.361.362H14.076a.366.366 0 0 1-.362-.361V8.926c0-.196.166-.362.362-.362h.586a.601.601 0 1 0 0-1.204h-.586c-.863 0-1.566.703-1.566 1.566v1.01c0 .864.703 1.566 1.566 1.566h.014v2.484c0 1.652.806 3.21 2.155 4.166l2.616 1.853-2.616 1.853a5.113 5.113 0 0 0-2.155 4.166v2.483h-.014c-.863 0-1.566.703-1.566 1.566v1.01c0 .864.703 1.567 1.566 1.567h11.837c.863 0 1.566-.703 1.566-1.566v-1.011c0-.863-.703-1.566-1.566-1.566h-.015v-2.483c0-1.653-.805-3.21-2.154-4.166l-.047-.034a.602.602 0 0 0-.696.984l.047.033a3.907 3.907 0 0 1 1.646 3.183v2.483h-9.4v-2.483c0-1.263.617-2.453 1.647-3.183l3.053-2.163 1.04.737a.602.602 0 1 0 .697-.983l-.603-.427 2.616-1.853a5.113 5.113 0 0 0 2.154-4.166z"/></g><g><path fill="#45a7e7" d="M39.539 15.729a.602.602 0 0 0-1.177.256c2.556 11.738-6.412 22.806-18.359 22.806-10.36 0-18.789-8.429-18.789-18.789 0-10.36 8.429-18.789 18.79-18.789A18.7 18.7 0 0 1 35.09 8.801l-1.42-.25a.602.602 0 1 0-.21 1.185c2.866.446 2.995.667 3.356.407.361-.261.192-.457.679-3.392a.602.602 0 1 0-1.192-.174l-.224 1.54a20.138 20.138 0 0 0-6.287-5.552C16.688-4.806.01 4.542.01 20.002c0 5.34 2.08 10.361 5.856 14.137 7.813 7.814 20.46 7.815 28.275 0 4.994-4.994 6.803-11.956 5.398-18.41z"/></g><g><path fill="#45a7e7" d="M28.049 5.807c-7.709-4.372-17.41-1.77-21.962 5.669a.602.602 0 0 0 1.027.628c4.332-7.08 13.365-9.206 20.34-5.25a15.15 15.15 0 0 1 7.66 13.159c0 8.33-6.803 15.1-15.129 15.1-10.772 0-18.083-11.051-13.926-20.948a.602.602 0 0 0-1.111-.467C.462 24.38 8.338 36.317 19.985 36.317c5.87 0 11.313-3.169 14.206-8.27 4.513-7.955 1.563-17.87-6.142-22.24z"/></g></g></g></svg>