<svg xmlns="http://www.w3.org/2000/svg" width="681" height="802" viewBox="0 0 681 802"><defs><clipPath id="ytx6a"><path fill="#fff" d="M676.5 657a4.5 4.5 0 1 0 0-9 4.5 4.5 0 0 0 0 9z"/></clipPath><clipPath id="ytx6b"><path fill="#fff" d="M676.5 407a4.5 4.5 0 1 0 0-9 4.5 4.5 0 0 0 0 9z"/></clipPath><clipPath id="ytx6c"><path fill="#fff" d="M676.5 254a4.5 4.5 0 1 0 0-9 4.5 4.5 0 0 0 0 9z"/></clipPath><clipPath id="ytx6d"><path fill="#fff" d="M676.5 101a4.5 4.5 0 1 0 0-9 4.5 4.5 0 0 0 0 9z"/></clipPath></defs><g><g><g><g><g><path fill="none" stroke="#fedb41" stroke-dasharray="0 4" stroke-linecap="round" stroke-miterlimit="20" stroke-width="2" d="M677 668v0l-.184 120.122c-.009 5.517-4.483 9.985-10 9.985H605v0"/></g></g><g transform="rotate(-90 600.5 797.5)"><path fill="#fedb41" d="M600.5 793l4.5 9h-9z"/></g></g><g><g><g><path fill="none" stroke="#3698e4" stroke-dasharray="0 4" stroke-linecap="round" stroke-miterlimit="20" stroke-width="2" d="M677.003 418l-.226 216.033"/></g></g><g><path fill="none" stroke="#3698e4" stroke-miterlimit="20" stroke-width="6" d="M676.5 657a4.5 4.5 0 1 0 0-9 4.5 4.5 0 0 0 0 9z" clip-path="url(&quot;#ytx6a&quot;)"/></g><g transform="rotate(180 676.5 635.5)"><path fill="#3698e4" d="M676.5 631l4.5 9h-9z"/></g></g><g><g><g><path fill="none" stroke="#3698e4" stroke-dasharray="0 4" stroke-linecap="round" stroke-miterlimit="20" stroke-width="2" d="M677.003 265l-.226 119.033"/></g></g><g><path fill="none" stroke="#3698e4" stroke-miterlimit="20" stroke-width="6" d="M676.5 407a4.5 4.5 0 1 0 0-9 4.5 4.5 0 0 0 0 9z" clip-path="url(&quot;#ytx6b&quot;)"/></g><g transform="rotate(180 676.5 385.5)"><path fill="#3698e4" d="M676.5 381l4.5 9h-9z"/></g></g><g><g><g><path fill="none" stroke="#3698e4" stroke-dasharray="0 4" stroke-linecap="round" stroke-miterlimit="20" stroke-width="2" d="M677.003 112l-.226 119.033"/></g></g><g><path fill="none" stroke="#3698e4" stroke-miterlimit="20" stroke-width="6" d="M676.5 254a4.5 4.5 0 1 0 0-9 4.5 4.5 0 0 0 0 9z" clip-path="url(&quot;#ytx6c&quot;)"/></g><g transform="rotate(180 676.5 232.5)"><path fill="#3698e4" d="M676.5 228l4.5 9h-9z"/></g></g><g><g><g><path fill="none" stroke="#3698e4" stroke-dasharray="0 4" stroke-linecap="round" stroke-miterlimit="20" stroke-width="2" d="M1.69 51.848v0V11c0-5.523 4.477-10 10-10h655.278a10 10 0 0 1 10 10.03l-.196 67.003v0"/></g></g><g><path fill="none" stroke="#3698e4" stroke-miterlimit="20" stroke-width="6" d="M676.5 101a4.5 4.5 0 1 0 0-9 4.5 4.5 0 0 0 0 9z" clip-path="url(&quot;#ytx6d&quot;)"/></g><g transform="rotate(180 676.5 79.5)"><path fill="#3698e4" d="M676.5 75l4.5 9h-9z"/></g></g></g></g></svg>