<svg xmlns="http://www.w3.org/2000/svg" width="97" height="713" viewBox="0 0 97 713"><defs><clipPath id="qlnla"><path fill="#fff" d="M92.5 602a4.5 4.5 0 1 0 0-9 4.5 4.5 0 0 0 0 9z"/></clipPath><clipPath id="qlnlb"><path fill="#fff" d="M92.5 432a4.5 4.5 0 1 0 0-9 4.5 4.5 0 0 0 0 9z"/></clipPath><clipPath id="qlnlc"><path fill="#fff" d="M92.5 272a4.5 4.5 0 1 0 0-9 4.5 4.5 0 0 0 0 9z"/></clipPath><clipPath id="qlnld"><path fill="#fff" d="M92.5 113a4.5 4.5 0 1 0 0-9 4.5 4.5 0 0 0 0 9z"/></clipPath></defs><g><g><g><g><g><path fill="none" stroke="#fedb41" stroke-dasharray="0 4" stroke-linecap="round" stroke-miterlimit="20" stroke-width="2" d="M92.1 611v91.073"/></g><g transform="rotate(-180 92.5 708.5)"><path fill="#fedb41" d="M92.5 704l4.5 9h-9z"/></g></g></g><g><g><path fill="#d8d8d8" d="M92.5 602a4.5 4.5 0 1 0 0-9 4.5 4.5 0 0 0 0 9z"/><path fill="none" stroke="#3698e4" stroke-miterlimit="20" stroke-width="6" d="M92.5 602a4.5 4.5 0 1 0 0-9 4.5 4.5 0 0 0 0 9z" clip-path="url(&quot;#qlnla&quot;)"/></g><g><g><path fill="none" stroke="#3698e4" stroke-dasharray="0 4" stroke-linecap="round" stroke-miterlimit="20" stroke-width="2" d="M92.1 441v138.073"/></g><g transform="rotate(-180 92 582)"><path fill="#3698e4" d="M92.1 577.42l4.5 9h-9z"/></g></g></g><g><g><path fill="#d8d8d8" d="M92.5 432a4.5 4.5 0 1 0 0-9 4.5 4.5 0 0 0 0 9z"/><path fill="none" stroke="#3698e4" stroke-miterlimit="20" stroke-width="6" d="M92.5 432a4.5 4.5 0 1 0 0-9 4.5 4.5 0 0 0 0 9z" clip-path="url(&quot;#qlnlb&quot;)"/></g><g><g><path fill="none" stroke="#3698e4" stroke-dasharray="0 4" stroke-linecap="round" stroke-miterlimit="20" stroke-width="2" d="M92.1 281v128.073"/></g><g transform="rotate(-180 92 412)"><path fill="#3698e4" d="M92.1 407.42l4.5 9h-9z"/></g></g></g><g><g><path fill="#d8d8d8" d="M92.5 272a4.5 4.5 0 1 0 0-9 4.5 4.5 0 0 0 0 9z"/><path fill="none" stroke="#3698e4" stroke-miterlimit="20" stroke-width="6" d="M92.5 272a4.5 4.5 0 1 0 0-9 4.5 4.5 0 0 0 0 9z" clip-path="url(&quot;#qlnlc&quot;)"/></g><g><g><path fill="none" stroke="#3698e4" stroke-dasharray="0 4" stroke-linecap="round" stroke-miterlimit="20" stroke-width="2" d="M92.1 121v128.073"/></g><g transform="rotate(-180 92 252)"><path fill="#3698e4" d="M92.1 247.42l4.5 9h-9z"/></g></g></g><g><g><path fill="#d8d8d8" d="M92.5 113a4.5 4.5 0 1 0 0-9 4.5 4.5 0 0 0 0 9z"/><path fill="none" stroke="#3698e4" stroke-miterlimit="20" stroke-width="6" d="M92.5 113a4.5 4.5 0 1 0 0-9 4.5 4.5 0 0 0 0 9z" clip-path="url(&quot;#qlnld&quot;)"/></g><g><g><path fill="none" stroke="#3698e4" stroke-dasharray="0 4" stroke-linecap="round" stroke-miterlimit="20" stroke-width="2" d="M1 1v0h81.099c5.522 0 10 4.477 10 10v79.073"/></g><g transform="rotate(-180 92 93)"><path fill="#3698e4" d="M92.1 88.42l4.5 9h-9z"/></g></g></g></g></g></svg>