<svg xmlns="http://www.w3.org/2000/svg" width="200" height="287" viewBox="0 0 200 287"><g><g><g transform="matrix(0 -1 -1 0 256 256)"><g transform="rotate(-270 5 251)"><path fill="#fedb41" d="M20.1 261.42l4.5 9h-9z"/></g><g><path fill="none" stroke="#fedb41" stroke-dasharray="0 4" stroke-linecap="round" stroke-miterlimit="20" stroke-width="2" d="M-14.58 266h35.113"/></g></g><g transform="rotate(90 195.5 281.5)"><g><path fill="none" stroke="#fff" stroke-dasharray="0 4" stroke-linecap="round" stroke-miterlimit="20" stroke-width="2" d="M175.92 266.5h35.113"/></g><g transform="rotate(-270 195.5 281.5)"><path fill="#fff" d="M211 261.5l4.5 9h-9z"/></g></g><g transform="matrix(0 -1 -1 0 143 143)"><g transform="rotate(-270 5 138)"><path fill="#fedb41" d="M20.1 148.42l4.5 9h-9z"/></g><g><path fill="none" stroke="#fedb41" stroke-dasharray="0 4" stroke-linecap="round" stroke-miterlimit="20" stroke-width="2" d="M-14.58 153h35.113"/></g></g><g transform="matrix(0 -1 -1 0 11 11)"><g transform="rotate(-270 5 6)"><path fill="#fedb41" d="M20.1 16.42l4.5 9h-9z"/></g><g><path fill="none" stroke="#fedb41" stroke-dasharray="0 4" stroke-linecap="round" stroke-miterlimit="20" stroke-width="2" d="M-14.58 21h35.113"/></g></g><g transform="rotate(90 195.5 168.5)"><g><path fill="none" stroke="#fff" stroke-dasharray="0 4" stroke-linecap="round" stroke-miterlimit="20" stroke-width="2" d="M175.92 153.5h35.113"/></g><g transform="rotate(-270 195.5 168.5)"><path fill="#fff" d="M211 148.5l4.5 9h-9z"/></g></g><g transform="rotate(90 195 36)"><g><path fill="none" stroke="#fff" stroke-dasharray="0 4" stroke-linecap="round" stroke-miterlimit="20" stroke-width="2" d="M175.42 21h35.113"/></g><g transform="rotate(-270 195 36)"><path fill="#fff" d="M210.1 16.42l4.5 9h-9z"/></g></g></g></g></svg>