<svg xmlns="http://www.w3.org/2000/svg" width="147" height="160" viewBox="0 0 147 160"><defs><radialGradient id="tv88a" cx="3.45" cy="121.47" r="144.02" gradientUnits="userSpaceOnUse"><stop offset="0" stop-color="#450096"/><stop offset="1" stop-color="#cf44fb"/></radialGradient><clipPath id="tv88b"><path d="M0 4a4 4 0 0 1 4-4h139a4 4 0 0 1 4 4v152a4 4 0 0 1-4 4H4a4 4 0 0 1-4-4z"/></clipPath></defs><g><g><g opacity=".7"><path fill="url(#tv88a)" d="M0 4a4 4 0 0 1 4-4h139a4 4 0 0 1 4 4v152a4 4 0 0 1-4 4H4a4 4 0 0 1-4-4z"/></g><g clip-path="url(#tv88b)"/></g></g></svg>