<svg xmlns="http://www.w3.org/2000/svg" xmlns:xlink="http://www.w3.org/1999/xlink" width="147" height="160" viewBox="0 0 147 160">
    <defs>
        <radialGradient id="rytd093i6b" cx="2.35%" cy="75.92%" r="97.972%" fx="2.35%" fy="75.92%" gradientTransform="matrix(.72244 -.63526 1.44656 1.38862 -1.092 -.28)">
            <stop offset="0%" stop-color="#450096"/>
            <stop offset="100%" stop-color="#CF44FB"/>
        </radialGradient>
        <path id="tib6h6zfwa" d="M4 0h139c2.21 0 4 1.79 4 4v152c0 2.21-1.79 4-4 4H4c-2.21 0-4-1.79-4-4V4c0-2.21 1.79-4 4-4z"/>
    </defs>
    <g fill="none" fill-rule="evenodd">
        <g>
            <g>
                <g>
                    <g transform="translate(-975 -694) translate(345 610) translate(630) translate(0 84)">
                        <mask id="ycz3wdp7wc" fill="#fff">
                            <use xlink:href="#tib6h6zfwa"/>
                        </mask>
                        <use fill="url(#rytd093i6b)" opacity=".7" xlink:href="#tib6h6zfwa"/>
                        <path d="M4 0h139c2.21 0 4 1.79 4 4v152c0 2.21-1.79 4-4 4H4c-2.21 0-4-1.79-4-4V4c0-2.21 1.79-4 4-4z" mask="url(#ycz3wdp7wc)"/>
                    </g>
                </g>
            </g>
        </g>
    </g>
</svg>
