<svg xmlns="http://www.w3.org/2000/svg" width="315" height="220" viewBox="0 0 315 220"><defs><clipPath id="2khua"><path d="M0 6a6 6 0 0 1 6-6h303a6 6 0 0 1 6 6v208a6 6 0 0 1-6 6H6a6 6 0 0 1-6-6z"/></clipPath></defs><g><g><g><path fill="#050447" d="M0 6a6 6 0 0 1 6-6h303a6 6 0 0 1 6 6v208a6 6 0 0 1-6 6H6a6 6 0 0 1-6-6z"/></g><g clip-path="url(#2khua)" opacity=".3"><path fill="none" stroke="#fff" stroke-miterlimit="20" stroke-width=".5" d="M-599 179v0h576v0l32.54-43.412v0L61 164.805v0L113.5 92v0l48.5 26.166v0L281.643-66v0l183.751 86v0L575.63-141v0"/></g></g></g></svg>