<svg xmlns="http://www.w3.org/2000/svg" width="147" height="160" viewBox="0 0 147 160">
    <defs>
        <radialGradient id="0r49vbkaqa" cx="-6.111%" cy="92.988%" r="134.055%" fx="-6.111%" fy="92.988%" gradientTransform="scale(1 .91875) rotate(-37.67 .06 .971)">
            <stop offset="0%" stop-color="#ABF0FF"/>
            <stop offset="35.37%" stop-color="#10C0E6"/>
            <stop offset="100%" stop-color="#0071DB"/>
        </radialGradient>
    </defs>
    <g fill="none" fill-rule="evenodd">
        <g>
            <g>
                <g>
                    <g>
                        <path fill="url(#0r49vbkaqa)" d="M4 0h139c2.21 0 4 1.79 4 4v152c0 2.21-1.79 4-4 4H4c-2.21 0-4-1.79-4-4V4c0-2.21 1.79-4 4-4z" opacity=".8" transform="translate(-1277 -694) translate(345 610) translate(630) translate(302 84) rotate(180 73.5 80)"/>
                        <path d="M4 0h139c2.21 0 4 1.79 4 4v152c0 2.21-1.79 4-4 4H4c-2.21 0-4-1.79-4-4V4c0-2.21 1.79-4 4-4z" transform="translate(-1277 -694) translate(345 610) translate(630) translate(302 84) rotate(180 73.5 80)"/>
                    </g>
                </g>
            </g>
        </g>
    </g>
</svg>
