<svg xmlns="http://www.w3.org/2000/svg" width="147" height="160" viewBox="0 0 147 160"><defs><radialGradient id="1zura" cx="36.06" cy="125.59" r="197.06" gradientUnits="userSpaceOnUse"><stop offset="0" stop-color="#0071db"/><stop offset=".65" stop-color="#10c0e6"/><stop offset="1" stop-color="#abf0ff"/></radialGradient><clipPath id="1zurb"><path d="M0 4a4 4 0 0 1 4-4h139a4 4 0 0 1 4 4v152a4 4 0 0 1-4 4H4a4 4 0 0 1-4-4z"/></clipPath></defs><g><g><g opacity=".8"><path fill="url(#1zura)" d="M0 4a4 4 0 0 1 4-4h139a4 4 0 0 1 4 4v152a4 4 0 0 1-4 4H4a4 4 0 0 1-4-4z"/></g><g clip-path="url(#1zurb)"/></g></g></svg>