<svg xmlns="http://www.w3.org/2000/svg" width="1230" height="344" viewBox="0 0 1230 344"><defs><radialGradient id="vzbwa" cx="-51.72" cy="315.23" r="1305.08" gradientUnits="userSpaceOnUse"><stop offset="0" stop-color="#f5f5f5"/><stop offset="1" stop-color="#f4f4f6"/></radialGradient><radialGradient id="vzbwc" cx="543.51" cy="607.32" r="687.16" gradientUnits="userSpaceOnUse"><stop offset="0" stop-color="#4600d1"/><stop offset=".5" stop-color="#ac0cc5"/><stop offset="1" stop-color="#fff"/></radialGradient><radialGradient id="vzbwd" cx="759.91" cy="542.53" r="355.43" gradientUnits="userSpaceOnUse"><stop offset="0" stop-color="#4600d1"/><stop offset=".5" stop-color="#ac0cc5"/><stop offset="1" stop-color="#fff"/></radialGradient><filter id="vzbwe" width="168%" height="168%" x="-24%" y="-24%" filterUnits="objectBoundingBox"><feGaussianBlur in="SourceGraphic" result="FeGaussianBlur3177Out" stdDeviation="40 40"/></filter><filter id="vzbwf" width="256%" height="256%" x="-68%" y="-68%" filterUnits="objectBoundingBox"><feGaussianBlur in="SourceGraphic" result="FeGaussianBlur3184Out" stdDeviation="40 40"/></filter><linearGradient id="vzbwg" x1="188.73" x2="188.73" y1="250" y2="112.54" gradientUnits="userSpaceOnUse"><stop offset="0" stop-color="#cbaff6"/><stop offset="1" stop-color="#efe2f2"/></linearGradient><linearGradient id="vzbwh" x1="335.02" x2="335.02" y1="279.29" y2="250.54" gradientUnits="userSpaceOnUse"><stop offset="0" stop-color="#cbaff6"/><stop offset="1" stop-color="#efe2f2"/></linearGradient><linearGradient id="vzbwi" x1="78.03" x2="78.03" y1="102.76" y2="52.45" gradientUnits="userSpaceOnUse"><stop offset="0" stop-color="#cbaff6"/><stop offset="1" stop-color="#efe2f2"/></linearGradient><clipPath id="vzbwb"><path d="M0 10C0 4.477 4.477 0 10 0h1210c5.523 0 10 4.477 10 10v324c0 5.523-4.477 10-10 10H10c-5.523 0-10-4.477-10-10z"/></clipPath></defs><g><g><g><g><path fill="url(#vzbwa)" d="M0 10C0 4.477 4.477 0 10 0h1210c5.523 0 10 4.477 10 10v324c0 5.523-4.477 10-10 10H10c-5.523 0-10-4.477-10-10z"/></g><g clip-path="url(#vzbwb)" opacity=".1" transform="rotate(-75 859.5 431.5)"><path fill="url(#vzbwc)" d="M859.2 750.68c176.179 0 319-142.821 319-319s-142.821-319-319-319-319 142.821-319 319 142.821 319 319 319z"/></g><g clip-path="url(#vzbwb)" opacity=".1" transform="rotate(-75 923.5 451.5)"><path fill="url(#vzbwd)" d="M923.2 616.68c91.127 0 165-73.873 165-165s-73.873-165-165-165-165 73.873-165 165 73.873 165 165 165z"/></g><g clip-path="url(#vzbwb)" filter="url(#vzbwe)" opacity=".1"><path fill="#0fbce7" d="M69.5 157C235.462 157 370 22.462 370-143.5S235.462-444 69.5-444-231-309.462-231-143.5-96.462 157 69.5 157z"/></g><g clip-path="url(#vzbwb)" filter="url(#vzbwf)" opacity=".1"><path fill="#0fbce7" d="M69.5 11c38.384 0 69.5-31.116 69.5-69.5S107.884-128 69.5-128 0-96.884 0-58.5 31.116 11 69.5 11z"/></g><g clip-path="url(#vzbwb)"/></g><g><g><path fill="#fdf7ff" d="M300.001 106.914v42.539c0 8.724-7.096 15.82-15.82 15.82h-31.992a5.27 5.27 0 0 1-5.274-5.273v-31.64a5.283 5.283 0 0 0-5.273-5.274h-31.64a5.27 5.27 0 0 1-5.274-5.274v-10.898c0-8.724 7.096-15.82 15.82-15.82h29.457l19.549-19.55a5.275 5.275 0 0 1 5.747-1.142 5.276 5.276 0 0 1 3.255 4.871v15.82h5.625c8.724 0 15.82 7.097 15.82 15.82zm-68.906 63.633v21.093c0 11.629-9.465 21.446-21.094 21.446h-16.768c-10.835 0-21.227-4.08-29.488-10.899h-6.478c-5.912 0-10.547-4.635-10.547-10.547v-21.093c0-5.912 4.635-10.547 10.547-10.547h5.716c3.172-4.285 4.83-9.383 4.83-14.873v-6.22c0-5.913 4.636-10.548 10.548-10.548h5.273c12.73 0 23.39 9.074 25.842 21.094h.525c11.629 0 21.094 9.465 21.094 21.094z"/></g><g><path fill="url(#vzbwg)" d="M225.82 191.642a15.8 15.8 0 0 1-15.82 15.82h-16.77c-10.23 0-19.933-3.692-27.527-10.547h-8.438c-2.953 0-5.273-2.32-5.273-5.273v-21.094c0-2.954 2.32-5.274 5.273-5.274h8.227c4.957-5.59 7.594-12.656 7.594-20.145v-6.222c0-2.953 2.32-5.273 5.273-5.273h5.274c11.601 0 21.094 9.492 21.094 21.094H210a15.8 15.8 0 0 1 15.82 15.82zm15.82-79.102H135.82A15.8 15.8 0 0 0 120 128.36v84.727a15.8 15.8 0 0 0 15.82 15.82h5.625v15.82c0 2.95 2.475 5.274 5.274 5.274 1.37 0 2.742-.527 3.69-1.582l19.619-19.512h71.613a15.8 15.8 0 0 0 15.82-15.82V128.36a15.8 15.8 0 0 0-15.82-15.82z"/></g></g><g><g><path fill="#fdf7ff" d="M339.475 258.262h-.11a5.526 5.526 0 0 0-5.404-4.412h-1.103c-1.237 0-2.206.97-2.206 2.206v1.301a5.163 5.163 0 0 1-1.01 3.11h-1.196c-1.237 0-2.206.97-2.206 2.207v4.411c0 1.237.97 2.206 2.206 2.206h1.355c1.728 1.426 3.901 2.28 6.167 2.28h3.507c2.432 0 4.412-2.054 4.412-4.486v-4.411a4.418 4.418 0 0 0-4.412-4.412z"/></g><g><path fill="url(#vzbwh)" d="M342.782 267.084a3.304 3.304 0 0 1-3.308 3.309h-3.508a8.537 8.537 0 0 1-5.757-2.206h-1.765a1.092 1.092 0 0 1-1.103-1.103v-4.412c0-.617.485-1.103 1.103-1.103h1.72a6.296 6.296 0 0 0 1.589-4.213v-1.301c0-.618.485-1.103 1.103-1.103h1.103a4.425 4.425 0 0 1 4.412 4.412h1.103a3.304 3.304 0 0 1 3.308 3.308zm3.31-16.544h-22.133a3.304 3.304 0 0 0-3.309 3.309v17.72a3.304 3.304 0 0 0 3.309 3.31h1.176v3.308c0 .617.518 1.103 1.103 1.103.287 0 .574-.11.772-.331l4.103-4.08h14.978a3.304 3.304 0 0 0 3.309-3.31v-17.72a3.304 3.304 0 0 0-3.309-3.309z"/></g><g/></g><g><g><path fill="#fdf7ff" d="M85.822 65.96h-.192c-.898-4.399-4.8-7.72-9.459-7.72h-1.93a3.82 3.82 0 0 0-3.86 3.86v2.277c0 2.01-.607 3.876-1.768 5.444H66.52a3.82 3.82 0 0 0-3.86 3.86v7.72a3.82 3.82 0 0 0 3.86 3.861h2.372c3.023 2.496 6.827 3.989 10.793 3.989h6.137c4.256 0 7.72-3.593 7.72-7.85v-7.72c0-4.256-3.464-7.72-7.72-7.72z"/></g><g><path fill="url(#vzbwi)" d="M91.612 81.402a5.783 5.783 0 0 1-5.79 5.79h-6.139c-3.744 0-7.296-1.35-10.075-3.86H66.52c-1.081 0-1.93-.849-1.93-1.93v-7.72c0-1.081.849-1.93 1.93-1.93h3.01c1.815-2.047 2.78-4.633 2.78-7.374v-2.277c0-1.081.85-1.93 1.93-1.93h1.93c4.247 0 7.721 3.474 7.721 7.72h1.93a5.783 5.783 0 0 1 5.79 5.79zm5.79-28.952H58.67a5.783 5.783 0 0 0-5.79 5.79v31.011a5.783 5.783 0 0 0 5.79 5.79h2.06v5.791c0 1.08.905 1.93 1.93 1.93a1.81 1.81 0 0 0 1.35-.579l7.18-7.141h26.212a5.783 5.783 0 0 0 5.79-5.79V58.24a5.783 5.783 0 0 0-5.79-5.79z"/></g><g/></g></g></g></svg>