<?xml version="1.0" encoding="UTF-8"?>
<svg width="1230px" height="344px" viewBox="0 0 1230 344" version="1.1" xmlns="http://www.w3.org/2000/svg" xmlns:xlink="http://www.w3.org/1999/xlink">
    <title>5DE529A3-FE7A-4635-B705-C8B7A59A60DE</title>
    <defs>
        <radialGradient cx="-4.2045617%" cy="91.6354697%" fx="-4.2045617%" fy="91.6354697%" r="379.383648%" gradientTransform="translate(-0.042046,0.916355),scale(0.279675,1.000000),rotate(-11.220482),translate(0.042046,-0.916355)" id="radialGradient-1">
            <stop stop-color="#F5F5F5" offset="0%"></stop>
            <stop stop-color="#F4F4F6" offset="100%"></stop>
        </radialGradient>
        <rect id="path-2" x="0" y="0" width="1230" height="344" rx="10"></rect>
        <radialGradient cx="0.519212726%" cy="77.5295909%" fx="0.519212726%" fy="77.5295909%" r="107.704726%" gradientTransform="translate(0.005192,0.775296),rotate(-41.325808),scale(1.000000,2.092115),translate(-0.005192,-0.775296)" id="radialGradient-4">
            <stop stop-color="#4600D1" offset="0%"></stop>
            <stop stop-color="#AC0CC5" offset="50.0023902%"></stop>
            <stop stop-color="#FFFFFF" offset="100%"></stop>
        </radialGradient>
        <filter x="-20.0%" y="-20.0%" width="139.9%" height="139.9%" filterUnits="objectBoundingBox" id="filter-5">
            <feGaussianBlur stdDeviation="40" in="SourceGraphic"></feGaussianBlur>
        </filter>
        <filter x="-86.3%" y="-86.3%" width="272.7%" height="272.7%" filterUnits="objectBoundingBox" id="filter-6">
            <feGaussianBlur stdDeviation="40" in="SourceGraphic"></feGaussianBlur>
        </filter>
        <linearGradient x1="50%" y1="100%" x2="50%" y2="0%" id="linearGradient-7">
            <stop stop-color="#CBAFF6" offset="0%"></stop>
            <stop stop-color="#EFE2F2" offset="100%"></stop>
        </linearGradient>
    </defs>
    <g id="Главная" stroke="none" stroke-width="1" fill="none" fill-rule="evenodd">
        <g id="Главная-1920" transform="translate(-345.000000, -5122.000000)">
            <g id="Фон" transform="translate(345.000000, 5122.000000)">
                <g id="Group-9">
                    <mask id="mask-3" fill="white">
                        <use xlink:href="#path-2"></use>
                    </mask>
                    <use id="Mask" fill="url(#radialGradient-1)" xlink:href="#path-2"></use>
                    <circle id="Oval" fill="url(#radialGradient-4)" opacity="0.100000001" mask="url(#mask-3)" transform="translate(859.196418, 431.678561) rotate(-75.000000) translate(-859.196418, -431.678561) " cx="859.196418" cy="431.678561" r="319"></circle>
                    <circle id="Oval" fill="url(#radialGradient-4)" opacity="0.100000001" mask="url(#mask-3)" transform="translate(923.196418, 451.678561) rotate(-75.000000) translate(-923.196418, -451.678561) " cx="923.196418" cy="451.678561" r="165"></circle>
                    <circle id="Oval" fill="#0FBCE7" opacity="0.100000001" filter="url(#filter-5)" mask="url(#mask-3)" cx="69.5" cy="-143.5" r="300.5"></circle>
                    <circle id="Oval" fill="#0FBCE7" opacity="0.100000001" filter="url(#filter-6)" mask="url(#mask-3)" cx="69.5" cy="-58.5" r="69.5"></circle>
                    <rect id="Rectangle" mask="url(#mask-3)" x="0" y="0" width="1230" height="344" rx="10"></rect>
                </g>
                <g id="feedback" transform="translate(120.000000, 70.000000)" fill-rule="nonzero">
                    <path d="M90,79.453125 L89.4747656,79.453125 C87.0233203,67.4335547 76.3632422,58.359375 63.6328125,58.359375 L58.359375,58.359375 C52.4475,58.359375 47.8125,62.994375 47.8125,68.90625 L47.8125,75.1271484 C47.8125,80.6167969 46.1541797,85.7151562 42.9820313,90 L37.265625,90 C31.35375,90 26.71875,94.635 26.71875,100.546875 L26.71875,121.640625 C26.71875,127.5525 31.35375,132.1875 37.265625,132.1875 L43.7442188,132.1875 C52.0045312,139.006055 62.3970703,143.085937 73.2322266,143.085937 L90,143.085937 C101.628281,143.085937 111.09375,133.268906 111.09375,121.640625 L111.09375,100.546875 C111.09375,88.9185937 101.628281,79.453125 90,79.453125 Z M164.179688,21.09375 L158.554688,21.09375 L158.554688,5.2734375 C158.554688,3.1415625 157.267266,1.21535156 155.299922,0.401835937 C153.343125,-0.411679688 151.066758,0.0309375 149.552578,1.54511719 L130.003945,21.09375 L100.546875,21.09375 C91.8232031,21.09375 84.7265625,28.1903906 84.7265625,36.9140625 L84.7265625,47.8125 C84.7265625,50.7273047 87.0851953,53.0859375 90,53.0859375 L121.640625,53.0859375 C124.545234,53.0859375 126.914062,55.4547656 126.914062,58.359375 L126.914062,90 C126.914062,92.9148047 129.272695,95.2734375 132.1875,95.2734375 L164.179688,95.2734375 C172.903359,95.2734375 180,88.1767969 180,79.453125 L180,36.9140625 C180,28.1903906 172.903359,21.09375 164.179688,21.09375 Z" id="Shape" fill="#FDF7FF"></path>
                    <path d="M121.640625,42.5390625 L15.8203125,42.5390625 C7.06640625,42.5390625 0,49.6054687 0,58.359375 L0,143.085938 C0,151.839492 7.06640625,158.90625 15.8203125,158.90625 L21.4453125,158.90625 L21.4453125,174.726562 C21.4453125,177.675469 23.9196094,180 26.71875,180 C28.0898438,180 29.4609375,179.473008 30.4098047,178.417617 L50.0276953,158.90625 L121.640625,158.90625 C130.394531,158.90625 137.460938,151.839492 137.460938,143.085938 L137.460938,58.359375 C137.460938,49.6054687 130.394531,42.5390625 121.640625,42.5390625 Z M105.820313,121.640625 C105.820313,130.39418 98.7539063,137.460938 90,137.460938 L73.2301172,137.460938 C63,137.460938 53.296875,133.76918 45.7027734,126.914062 L37.2652734,126.914062 C34.3117969,126.914062 31.9918359,124.593398 31.9918359,121.640625 L31.9918359,100.546875 C31.9918359,97.5933984 34.3117969,95.2734375 37.2652734,95.2734375 L45.4921875,95.2734375 C50.4492188,89.6832422 53.0859375,82.6171875 53.0859375,75.1285547 L53.0859375,68.90625 C53.0859375,65.9527734 55.4058984,63.6328125 58.359375,63.6328125 L63.6328125,63.6328125 C75.2340234,63.6328125 84.7265625,73.1246484 84.7265625,84.7265625 L90,84.7265625 C98.7539063,84.7265625 105.820313,91.7929688 105.820313,100.546875 L105.820313,121.640625 Z" id="Shape" fill="url(#linearGradient-7)"></path>
                </g>
                <g id="feedback" transform="translate(315.000000, 244.000000)">
                    <path d="M24.4705882,14.2647059 L24.3607353,14.2647059 C23.8480147,11.7508088 21.6184559,9.85294118 18.9558824,9.85294118 L17.8529412,9.85294118 C16.6164706,9.85294118 15.6470588,10.8223529 15.6470588,12.0588235 L15.6470588,13.3599265 C15.6470588,14.5080882 15.3002206,15.5744118 14.6367647,16.4705882 L13.4411765,16.4705882 C12.2047059,16.4705882 11.2352941,17.44 11.2352941,18.6764706 L11.2352941,23.0882353 C11.2352941,24.3247059 12.2047059,25.2941176 13.4411765,25.2941176 L14.7961765,25.2941176 C16.5238235,26.7202206 18.6974265,27.5735294 20.9636029,27.5735294 L24.4705882,27.5735294 C26.9026471,27.5735294 28.8823529,25.5202941 28.8823529,23.0882353 L28.8823529,18.6764706 C28.8823529,16.2444118 26.9026471,14.2647059 24.4705882,14.2647059 Z" id="Shape" fill="#FDF7FF" fill-rule="nonzero"></path>
                    <path d="M31.0882353,6.54411765 L8.95588235,6.54411765 C7.125,6.54411765 5.64705882,8.02205882 5.64705882,9.85294118 L5.64705882,27.5735294 C5.64705882,29.4043382 7.125,30.8823529 8.95588235,30.8823529 L10.1323529,30.8823529 L10.1323529,34.1911765 C10.1323529,34.8079412 10.6498529,35.2941176 11.2352941,35.2941176 C11.5220588,35.2941176 11.8088235,35.1838971 12.0072794,34.9631618 L16.1103676,30.8823529 L31.0882353,30.8823529 C32.9191176,30.8823529 34.3970588,29.4043382 34.3970588,27.5735294 L34.3970588,9.85294118 C34.3970588,8.02205882 32.9191176,6.54411765 31.0882353,6.54411765 Z M27.7794118,23.0882353 C27.7794118,24.9190441 26.3014706,26.3970588 24.4705882,26.3970588 L20.9631618,26.3970588 C18.8235294,26.3970588 16.7941176,25.6249265 15.2058088,24.1911765 L13.4411029,24.1911765 C12.8233824,24.1911765 12.3381618,23.7058088 12.3381618,23.0882353 L12.3381618,18.6764706 C12.3381618,18.05875 12.8233824,17.5735294 13.4411029,17.5735294 L15.1617647,17.5735294 C16.1985294,16.4043382 16.75,14.9264706 16.75,13.3602206 L16.75,12.0588235 C16.75,11.4411029 17.2352206,10.9558824 17.8529412,10.9558824 L18.9558824,10.9558824 C21.3822794,10.9558824 23.3676471,12.9411029 23.3676471,15.3676471 L24.4705882,15.3676471 C26.3014706,15.3676471 27.7794118,16.8455882 27.7794118,18.6764706 L27.7794118,23.0882353 Z" id="Shape" fill="url(#linearGradient-7)" fill-rule="nonzero"></path>
                    <rect id="Rectangle" x="0" y="0" width="40" height="37.1764706"></rect>
                </g>
                <g id="feedback" transform="translate(43.000000, 41.000000)">
                    <path d="M42.8235294,24.9632353 L42.6312868,24.9632353 C41.7340257,20.5639154 37.8322978,17.2426471 33.1727941,17.2426471 L31.2426471,17.2426471 C29.0788235,17.2426471 27.3823529,18.9391176 27.3823529,21.1029412 L27.3823529,23.3798713 C27.3823529,25.3891544 26.775386,27.2552206 25.6143382,28.8235294 L23.5220588,28.8235294 C21.3582353,28.8235294 19.6617647,30.52 19.6617647,32.6838235 L19.6617647,40.4044118 C19.6617647,42.5682353 21.3582353,44.2647059 23.5220588,44.2647059 L25.8933088,44.2647059 C28.9166912,46.760386 32.7204963,48.2536765 36.6863051,48.2536765 L42.8235294,48.2536765 C47.0796324,48.2536765 50.5441176,44.6605147 50.5441176,40.4044118 L50.5441176,32.6838235 C50.5441176,28.4277206 47.0796324,24.9632353 42.8235294,24.9632353 Z" id="Shape" fill="#FDF7FF" fill-rule="nonzero"></path>
                    <path d="M54.4044118,11.4522059 L15.6727941,11.4522059 C12.46875,11.4522059 9.88235294,14.0386029 9.88235294,17.2426471 L9.88235294,48.2536765 C9.88235294,51.4575919 12.46875,54.0441176 15.6727941,54.0441176 L17.7316176,54.0441176 L17.7316176,59.8345588 C17.7316176,60.9138971 18.6372426,61.7647059 19.6617647,61.7647059 C20.1636029,61.7647059 20.6654412,61.5718199 21.012739,61.1855331 L28.1931434,54.0441176 L54.4044118,54.0441176 C57.6084559,54.0441176 60.1948529,51.4575919 60.1948529,48.2536765 L60.1948529,17.2426471 C60.1948529,14.0386029 57.6084559,11.4522059 54.4044118,11.4522059 Z M48.6139706,40.4044118 C48.6139706,43.6083272 46.0275735,46.1948529 42.8235294,46.1948529 L36.6855331,46.1948529 C32.9411765,46.1948529 29.3897059,44.8436213 26.6101654,42.3345588 L23.5219301,42.3345588 C22.4409191,42.3345588 21.5917831,41.4851654 21.5917831,40.4044118 L21.5917831,32.6838235 C21.5917831,31.6028125 22.4409191,30.7536765 23.5219301,30.7536765 L26.5330882,30.7536765 C28.3474265,28.7075919 29.3125,26.1213235 29.3125,23.380386 L29.3125,21.1029412 C29.3125,20.0219301 30.161636,19.1727941 31.2426471,19.1727941 L33.1727941,19.1727941 C37.418989,19.1727941 40.8933824,22.6469301 40.8933824,26.8933824 L42.8235294,26.8933824 C46.0275735,26.8933824 48.6139706,29.4797794 48.6139706,32.6838235 L48.6139706,40.4044118 Z" id="Shape" fill="url(#linearGradient-7)" fill-rule="nonzero"></path>
                    <rect id="Rectangle" x="0" y="0" width="70" height="65.0588235"></rect>
                </g>
            </g>
        </g>
    </g>
</svg>