<svg xmlns="http://www.w3.org/2000/svg" width="300" height="407" viewBox="0 0 300 407">
    <defs>
        <linearGradient id="4nwbvgic9b" x1="15.077%" x2="63.346%" y1="28.364%" y2="57.831%">
            <stop offset="0%" stop-color="#CF44FB"/>
            <stop offset="57%" stop-color="#2854C6"/>
            <stop offset="79%" stop-color="#1E46B6"/>
            <stop offset="100%" stop-color="#001A86"/>
        </linearGradient>
        <linearGradient id="b1h7puz8nc" x1="41.074%" x2="62.374%" y1="77.006%" y2="31.374%">
            <stop offset="0%" stop-color="#11DADC"/>
            <stop offset="100%" stop-color="#0C7CFE"/>
        </linearGradient>
        <linearGradient id="vryo9vzh3d" x1="49.223%" x2="53.147%" y1="92.158%" y2="26.372%">
            <stop offset="0%" stop-color="#11D8DD"/>
            <stop offset="100%" stop-color="#0C7CFE"/>
        </linearGradient>
        <filter id="zw8lr5yupa" width="134.5%" height="647.3%" x="-17.2%" y="-273.6%" filterUnits="objectBoundingBox">
            <feGaussianBlur in="SourceGraphic" stdDeviation="10"/>
        </filter>
    </defs>
    <g fill="none" fill-rule="evenodd">
        <g>
            <g>
                <g fill="#000" opacity=".7">
                    <path d="M77.266.148C83.26-.048 90.642-.049 96.667.143l10.327.33 57.017 1.797c6.222.196 10.05.567 9.989.969l-.6 3.825c-.02.13-1.25.249-3.235.314-1.986.065-4.433.066-6.439.003l-45.648-1.436c-1.525-.048-2.643-.128-3.102-.223-.46-.095-.222-.196.659-.281l.294-.03.301-.03.465-.047.318-.032.324-.034.328-.035.334-.035.337-.037.341-.037.344-.039.173-.02.348-.04.174-.02.35-.04.175-.021.35-.042.176-.022.351-.043c.234-.03.467-.059.699-.09l.347-.045.173-.023.343-.046.844-.12c.307-.087.044-.178-.77-.256-1.051-.1-2.893-.167-4.956-.179-21.05-.113-41.162-.08-62.22.043-2.05.012-3.877.079-4.922.179-1.046.1-1.187.222-.38.329 8.268 1.089 18.759 2.092 31.193 3.043 1.225.093 3.164.148 5.225.148 2.062 0 4.002-.055 5.23-.148l4.863-.37.248-.02.486-.04.237-.02.463-.04.226-.02.441-.038.426-.038.412-.037.396-.036.38-.035.185-.017.359-.034.342-.033.327-.031c.866-.086 2.304-.148 3.993-.173 1.688-.025 3.485-.01 4.983.04l44.892 1.51c1.972.066 3.177.186 3.17.315-.006.13-1.223.25-3.202.315L97.06 10.812c-6.142.203-13.768.202-19.892-.003L18 8.823l.093.002-8.314-.27C3.702 8.358-.032 7.992 0 7.597l.339-4.31c.03-.385 3.649-.742 9.522-.939l67.405-2.2z" filter="url(#zw8lr5yupa)" transform="translate(-1170 -142) translate(1170 142) translate(63 366)"/>
                </g>
                <g>
                    <path fill="url(#4nwbvgic9b)" d="M166.718 4.405c-10.351-5.865-23.033-5.805-33.327.157C104.789 21.13 46.579 54.845 17.968 71.42c-10.303 5.967-16.666 16.95-16.72 28.855l-.581 131.37c-.054 12.045 6.358 23.19 16.796 29.199l115.19 66.311c10.476 6.03 23.387 5.954 33.79-.2l65.265-38.615c10.106-5.978 16.335-16.82 16.41-28.562.076-11.74-6.013-22.662-16.04-28.77l-36.674-22.34c-7.058-4.3-16.228-2.51-21.152 4.126l-15.682 21.136c-2.11 2.844-5.442 4.52-8.984 4.516-3.541-.004-6.871-1.685-8.975-4.533-21.36-28.99-39.381-59.553-53.583-92.756-1.386-3.259-1.144-6.983.653-10.034 1.795-3.053 4.934-5.073 8.456-5.442 36.172-3.738 70.719-4.758 106.877-1.316 3.545.354 6.708 2.38 8.512 5.452 1.806 3.071 2.035 6.82.619 10.088-1.827 4.253-3.904 9.047-5.939 13.745-5.733 13.237-.461 28.664 12.175 35.624l27.107 14.926c10.995 6.054 24.361 5.888 35.203-.437 10.841-6.325 17.563-17.88 17.703-30.43.291-26.217.614-55.233.825-73.93.134-12.204-6.375-23.517-16.992-29.535L166.717 4.405z" transform="translate(-1170 -142) translate(1170 142)"/>
                    <path fill="url(#b1h7puz8nc)" d="M179.138 11.484s29.023 23.729 39.912 57.249c11.607 35.733-8.952 78.379-19.751 97.17-1.513 2.59-1.921 5.679-1.132 8.572.79 2.893 2.71 5.347 5.329 6.808 18.196 10.167 56.446 31.512 78.412 43.77 3.446 1.923 7.649 1.886 11.06-.096 3.41-1.982 5.524-5.617 5.558-9.561l1.029-116.61c.107-12.245-6.47-23.574-17.157-29.55l-103.26-57.752z" transform="translate(-1170 -142) translate(1170 142)"/>
                    <g fill="url(#vryo9vzh3d)" transform="translate(-1170 -142) translate(1170 142) scale(1 -1) rotate(-60 -217.064 -161.603)">
                        <path d="M.268.027S29.29 23.756 40.18 57.277c11.607 35.732-8.952 78.378-19.751 97.169-1.513 2.59-1.921 5.679-1.132 8.572.79 2.893 2.71 5.348 5.329 6.808 18.196 10.167 56.446 31.512 78.412 43.77 3.446 1.923 7.649 1.886 11.06-.096 3.41-1.982 5.524-5.617 5.558-9.561l1.029-116.61c.107-12.245-6.47-23.574-17.157-29.55L.268.027z"/>
                    </g>
                </g>
            </g>
        </g>
    </g>
</svg>
