<?xml version="1.0" encoding="UTF-8"?>
<svg width="447px" height="70px" viewBox="0 0 447 70" version="1.1" xmlns="http://www.w3.org/2000/svg" xmlns:xlink="http://www.w3.org/1999/xlink">
    <title>92853CCC-23E5-4BC1-9CA5-0D83B35B9814</title>
    <g id="Внутренние" stroke="none" stroke-width="1" fill="none" fill-rule="evenodd">
        <g id="Карьера-768" transform="translate(-236.000000, -6619.000000)">
            <g id="Контент" transform="translate(0.000000, 227.000000)">
                <g id="Обратите-внимание" transform="translate(30.000000, 5741.000000)">
                    <g id="Ограничения" transform="translate(0.000000, 144.000000)">
                        <g id="Блок" transform="translate(40.000000, 342.000000)">
                            <g id="Пример" transform="translate(30.000000, 143.000000)">
                                <g id="Стрелка" transform="translate(359.000000, 57.500000) scale(-1, 1) translate(-359.000000, -57.500000) translate(136.000000, 23.000000)">
                                    <path d="M441.098593,62 L441.098593,52.2716064 C441.098593,46.7487589 436.62144,42.2716064 431.098593,42.2716064 L10.932373,42.2716064 C5.40952555,42.2716064 0.932373047,37.7944539 0.932373047,32.2716064 L0.932373047,10.5 C0.932373047,4.9771525 5.40952555,0.5 10.932373,0.5 L16.1133057,0.5 L16.1133057,0.5" id="Path-5" stroke="#A04EA8" stroke-width="2" stroke-linecap="round" stroke-dasharray="0,4"></path>
                                    <polygon id="Triangle" fill="#A04EA8" fill-rule="nonzero" transform="translate(441.098593, 63.923897) scale(-1, 1) rotate(-180.000000) translate(-441.098593, -63.923897) " points="441.098593 59.423897 445.598593 68.423897 436.598593 68.423897"></polygon>
                                </g>
                            </g>
                        </g>
                    </g>
                </g>
            </g>
        </g>
    </g>
</svg>