<svg xmlns="http://www.w3.org/2000/svg" width="1230" height="421" viewBox="0 0 1230 421"><defs><radialGradient id="frvfa" cx="707.01" cy="780.24" r="1300.05" gradientUnits="userSpaceOnUse"><stop offset="0" stop-color="#9a14a4"/><stop offset=".36" stop-color="#9814a2"/><stop offset=".58" stop-color="#050447"/><stop offset="1" stop-color="#050447"/></radialGradient><radialGradient id="frvfd" cx="143.51" cy="682.32" r="687.16" gradientUnits="userSpaceOnUse"><stop offset="0" stop-color="#4600d1"/><stop offset=".51" stop-color="#ac0cc5"/><stop offset="1" stop-color="#fff"/></radialGradient><filter id="frvfc" width="164%" height="164%" x="-22%" y="-22%" filterUnits="objectBoundingBox"><feGaussianBlur in="SourceGraphic" result="FeGaussianBlur4637Out" stdDeviation="40 40"/></filter><radialGradient id="frvff" cx="359.91" cy="617.53" r="355.43" gradientUnits="userSpaceOnUse"><stop offset="0" stop-color="#4600d1"/><stop offset=".51" stop-color="#ac0cc5"/><stop offset="1" stop-color="#fff"/></radialGradient><filter id="frvfe" width="188%" height="188%" x="-34%" y="-34%" filterUnits="objectBoundingBox"><feGaussianBlur in="SourceGraphic" result="FeGaussianBlur4648Out" stdDeviation="40 40"/></filter><radialGradient id="frvfh" cx="763.12" cy="58.95" r="647.31" gradientUnits="userSpaceOnUse"><stop offset="0" stop-color="#4600d1"/><stop offset=".51" stop-color="#ac0cc5"/><stop offset="1" stop-color="#fff"/></radialGradient><filter id="frvfg" width="168%" height="168%" x="-24%" y="-24%" filterUnits="objectBoundingBox"><feGaussianBlur in="SourceGraphic" result="FeGaussianBlur4659Out" stdDeviation="40 40"/></filter><radialGradient id="frvfj" cx="991.72" cy="16.77" r="149.71" gradientUnits="userSpaceOnUse"><stop offset="0" stop-color="#4600d1"/><stop offset=".51" stop-color="#ac0cc5"/><stop offset="1" stop-color="#fff"/></radialGradient><filter id="frvfi" width="256%" height="256%" x="-68%" y="-68%" filterUnits="objectBoundingBox"><feGaussianBlur in="SourceGraphic" result="FeGaussianBlur4670Out" stdDeviation="40 40"/></filter><clipPath id="frvfb"><path d="M0 10C0 4.477 4.477 0 10 0h1210c5.523 0 10 4.477 10 10v401c0 5.523-4.477 10-10 10H10c-5.523 0-10-4.477-10-10z"/></clipPath></defs><g><g><g><path fill="url(#frvfa)" d="M0 10C0 4.477 4.477 0 10 0h1210c5.523 0 10 4.477 10 10v401c0 5.523-4.477 10-10 10H10c-5.523 0-10-4.477-10-10z"/><path fill="#0e0d57" fill-opacity=".6" d="M0 10C0 4.477 4.477 0 10 0h1210c5.523 0 10 4.477 10 10v401c0 5.523-4.477 10-10 10H10c-5.523 0-10-4.477-10-10z"/></g><g clip-path="url(#frvfb)" filter="url(#frvfc)" opacity=".2" transform="rotate(-75 459.5 506.5)"><path fill="url(#frvfd)" d="M459.2 825.68c176.179 0 319-142.821 319-319s-142.821-319-319-319-319 142.821-319 319 142.821 319 319 319z"/></g><g clip-path="url(#frvfb)" filter="url(#frvfe)" opacity=".3" transform="rotate(-75 523.5 526.5)"><path fill="url(#frvff)" d="M523.2 691.68c91.127 0 165-73.873 165-165s-73.873-165-165-165-165 73.873-165 165 73.873 165 165 165z"/></g><g clip-path="url(#frvfb)" filter="url(#frvfg)" opacity=".2"><path fill="url(#frvfh)" d="M1060.5 194c165.962 0 300.5-134.538 300.5-300.5S1226.462-407 1060.5-407 760-272.462 760-106.5 894.538 194 1060.5 194z"/></g><g clip-path="url(#frvfb)" filter="url(#frvfi)" opacity=".3"><path fill="url(#frvfj)" d="M1060.5 48c38.384 0 69.5-31.116 69.5-69.5S1098.884-91 1060.5-91 991-59.884 991-21.5s31.116 69.5 69.5 69.5z"/></g><g clip-path="url(#frvfb)"/></g></g></svg>