<svg xmlns="http://www.w3.org/2000/svg" width="285" height="259" viewBox="0 0 285 259"><defs><radialGradient id="50hca" cx="263.04" cy="259" r="299.9" gradientUnits="userSpaceOnUse"><stop offset="0" stop-color="#0060ba"/><stop offset="1" stop-color="#02afd4"/></radialGradient><filter id="50hcc" width="176%" height="176%" x="-28%" y="-28%" filterUnits="objectBoundingBox"><feGaussianBlur in="SourceGraphic" result="FeGaussianBlur4804Out" stdDeviation="40 40"/></filter><clipPath id="50hcd"><path fill="#fff" d="M384.5 22.51a3.5 3.5 0 1 0 0-7 3.5 3.5 0 0 0 0 7z"/></clipPath><clipPath id="50hce"><path fill="#fff" d="M214.5 180.51a3.5 3.5 0 1 0 0-7 3.5 3.5 0 0 0 0 7z"/></clipPath><clipPath id="50hcf"><path fill="#fff" d="M262.5 206.51a3.5 3.5 0 1 0 0-7 3.5 3.5 0 0 0 0 7z"/></clipPath><clipPath id="50hcg"><path fill="#fff" d="M563.5 108.51a3.5 3.5 0 1 0 0-7 3.5 3.5 0 0 0 0 7z"/></clipPath><clipPath id="50hch"><path fill="#fff" d="M159.5 253.51a3.5 3.5 0 1 0 0-7 3.5 3.5 0 0 0 0 7z"/></clipPath><clipPath id="50hci"><path fill="#fff" d="M109.5 224.51a3.5 3.5 0 1 0 0-7 3.5 3.5 0 0 0 0 7z"/></clipPath><clipPath id="50hcb"><path d="M0 10C0 4.477 4.477 0 10 0h265c5.523 0 10 4.477 10 10v239c0 5.523-4.477 10-10 10H10c-5.523 0-10-4.477-10-10z"/></clipPath></defs><g><g><g opacity=".9"><path fill="url(#50hca)" d="M0 10C0 4.477 4.477 0 10 0h265c5.523 0 10 4.477 10 10v239c0 5.523-4.477 10-10 10H10c-5.523 0-10-4.477-10-10z"/></g><g clip-path="url(#50hcb)" filter="url(#50hcc)" opacity=".3"><path fill="#10e2ce" d="M30.5 102C147.86 102 243 6.86 243-110.5S147.86-323 30.5-323-182-227.86-182-110.5-86.86 102 30.5 102z"/></g><g clip-path="url(#50hcb)"/><g clip-path="url(#50hcb)"><g><path fill="none" stroke="#11dadc" stroke-miterlimit="20" stroke-width="2" d="M384.5 22.51a3.5 3.5 0 1 0 0-7 3.5 3.5 0 0 0 0 7z" clip-path="url(&quot;#50hcd&quot;)"/></g><g><path fill="none" stroke="#11dadc" stroke-miterlimit="20" stroke-width="2" d="M214.5 180.51a3.5 3.5 0 1 0 0-7 3.5 3.5 0 0 0 0 7z" clip-path="url(&quot;#50hce&quot;)"/></g><g><path fill="none" stroke="#cf44fb" stroke-miterlimit="20" stroke-width="2" d="M262.5 206.51a3.5 3.5 0 1 0 0-7 3.5 3.5 0 0 0 0 7z" clip-path="url(&quot;#50hcf&quot;)"/></g><g><path fill="none" stroke="#cf44fb" stroke-miterlimit="20" stroke-width="2" d="M563.5 108.51a3.5 3.5 0 1 0 0-7 3.5 3.5 0 0 0 0 7z" clip-path="url(&quot;#50hcg&quot;)"/></g><g><path fill="none" stroke="#cf44fb" stroke-miterlimit="20" stroke-width="2" d="M159.5 253.51a3.5 3.5 0 1 0 0-7 3.5 3.5 0 0 0 0 7z" clip-path="url(&quot;#50hch&quot;)"/></g><g><path fill="none" stroke="#11dadc" stroke-miterlimit="20" stroke-width="2" d="M109.5 224.51a3.5 3.5 0 1 0 0-7 3.5 3.5 0 0 0 0 7z" clip-path="url(&quot;#50hci&quot;)"/></g><g opacity=".3"><path fill="none" stroke="#fff" stroke-miterlimit="20" stroke-width=".5" d="M568.93 99.451L764.001-171"/></g><g opacity=".3"><path fill="none" stroke="#fff" stroke-miterlimit="20" stroke-width=".5" d="M556.322 101.51l-165.422-79"/></g><g opacity=".3"><path fill="none" stroke="#fff" stroke-miterlimit="20" stroke-width=".5" d="M266 196.706L380 26.36"/></g><g opacity=".3"><path fill="none" stroke="#fff" stroke-miterlimit="20" stroke-width=".5" d="M220.57 181.91l34.896 18.089"/></g><g opacity=".3"><path fill="none" stroke="#fff" stroke-miterlimit="20" stroke-width=".5" d="M211 182.91l-47 61.096"/></g><g opacity=".3"><path fill="none" stroke="#fff" stroke-miterlimit="20" stroke-width=".5" d="M152.91 246.51l-36.91-21"/></g><g opacity=".3"><path fill="none" stroke="#fff" stroke-miterlimit="20" stroke-width=".5" d="M53 296.013l52-69.823"/></g><g opacity=".3"><path fill="none" stroke="#fff" stroke-miterlimit="20" stroke-width=".5" d="M-337.5 264.51h192.261"/></g><g opacity=".3"><path fill="none" stroke="#fff" stroke-miterlimit="20" stroke-width=".5" d="M-545.5 264.51h192.261"/></g></g></g></g></svg>