<?xml version="1.0" encoding="UTF-8"?>
<svg width="20px" height="26px" viewBox="0 0 20 26" version="1.1" xmlns="http://www.w3.org/2000/svg" xmlns:xlink="http://www.w3.org/1999/xlink">
    <title>44A2AD58-FB01-49F4-8DFB-613467267EC1</title>
    <defs>
        <linearGradient x1="15.076769%" y1="28.3640026%" x2="63.3459354%" y2="57.8311393%" id="linearGradient-1">
            <stop stop-color="#CF44FB" offset="0%"></stop>
            <stop stop-color="#2854C6" offset="57%"></stop>
            <stop stop-color="#1E46B6" offset="79%"></stop>
            <stop stop-color="#001A86" offset="100%"></stop>
        </linearGradient>
        <linearGradient x1="41.0743886%" y1="77.0056848%" x2="62.3737419%" y2="31.3740687%" id="linearGradient-2">
            <stop stop-color="#11DADC" offset="0%"></stop>
            <stop stop-color="#0C7CFE" offset="100%"></stop>
        </linearGradient>
        <linearGradient x1="49.2226633%" y1="92.1584111%" x2="53.1472696%" y2="26.3718249%" id="linearGradient-3">
            <stop stop-color="#11D8DD" offset="0%"></stop>
            <stop stop-color="#0C7CFE" offset="100%"></stop>
        </linearGradient>
    </defs>
    <g id="Внутренние" stroke="none" stroke-width="1" fill="none" fill-rule="evenodd">
        <g id="Помощь-768" transform="translate(-415.000000, -2912.000000)">
            <g id="Контент" transform="translate(30.000000, 227.000000)">
                <g id="Ограничения" transform="translate(0.000000, 2086.000000)">
                    <g id="1" transform="translate(385.000000, 592.000000)">
                        <g id="logo-color" transform="translate(0.000000, 7.000000)">
                            <path d="M11.1385216,0.292892466 C10.450348,-0.0970882382 9.60715496,-0.0930872292 8.92274707,0.30332647 C7.02109101,1.40478072 3.1509385,3.6464441 1.24865483,4.74836906 C0.563697771,5.14509656 0.140610678,5.87531994 0.137080376,6.66689212 C0.127430884,8.83716494 0.108053448,13.2194466 0.0983812243,15.4012518 C0.0947952024,16.2020027 0.521098793,16.9430524 1.21507773,17.3425256 C3.12018564,18.4392728 6.96531223,20.6527722 8.87371509,21.7513238 C9.57020447,22.1522877 10.428617,22.1471883 11.1203209,21.7379871 C12.2165189,21.0894314 13.9389141,20.0703508 15.4595329,19.170673 C16.1313886,18.773161 16.5455322,18.0523517 16.5505531,17.2716843 C16.555574,16.4910952 16.150766,15.7649513 15.4840881,15.3588097 C14.5820567,14.8093378 13.6745337,14.2564925 13.0457477,13.8734939 C12.5765313,13.5876179 11.9668089,13.7066283 11.6394322,14.1478376 C11.3184101,14.5805742 10.9197997,15.1178862 10.5968163,15.5531332 C10.4565456,15.7422005 10.2349996,15.8536011 9.9994892,15.8533658 C9.76405728,15.8531304 9.54266811,15.7413375 9.4027897,15.5519564 C7.98266684,13.6244899 6.78448231,11.5925265 5.84024418,9.38498938 C5.74806407,9.16830728 5.76414656,8.92071543 5.88362767,8.71784073 C6.00303033,8.51488759 6.21171041,8.38057921 6.44588712,8.35602399 C8.85080735,8.10749073 11.1477003,8.03970893 13.5517576,8.26855095 C13.7874249,8.2920863 13.9977525,8.42678694 14.1177043,8.6309953 C14.2377345,8.83520366 14.2529541,9.08444299 14.1588127,9.3017527 C14.0373703,9.58449067 13.8992962,9.90323772 13.763968,10.2155518 C13.3827738,11.0956953 13.7332936,12.1213658 14.573427,12.5840707 C15.1097976,12.8793608 15.7404665,13.2266641 16.3756855,13.5764778 C17.1066934,13.9790107 17.9953881,13.9679491 18.7161973,13.5474509 C19.4370066,13.1268742 19.8839428,12.3586805 19.8932,11.5241955 C19.9125775,9.78116772 19.9340731,7.85197531 19.9480973,6.60891671 C19.9569808,5.79749639 19.5242442,5.04530669 18.8183407,4.64520579 C16.8951106,3.55528386 13.0390009,1.36994841 11.1385216,0.292892466 Z" id="Path" fill="url(#linearGradient-1)"></path>
                            <path d="M11.9642984,0.763520961 C11.9642984,0.763520961 13.8939616,2.34117374 14.6179089,4.56981423 C15.3896329,6.94555063 14.0226999,9.78093237 13.3047149,11.0302671 C13.2041405,11.2024673 13.1769964,11.4078525 13.2294803,11.6002147 C13.2819641,11.792577 13.4096041,11.9557554 13.5837657,12.0528779 C14.793561,12.7288131 17.3367122,14.1479945 18.7971589,14.9630236 C19.0262363,15.0908205 19.3056793,15.0883885 19.5324816,14.9565906 C19.7592055,14.8247926 19.8997115,14.5831631 19.9019866,14.3209009 C19.9193243,12.3573468 19.952666,8.57239229 19.970396,6.56788676 C19.977535,5.7537991 19.5402483,5.00058953 18.8297162,4.60323442 C16.6113528,3.36252936 11.9642984,0.763520961 11.9642984,0.763520961 Z" id="Path" fill="url(#linearGradient-2)"></path>
                            <g id="Group" transform="translate(10.841479, 18.044680) scale(-1, 1) rotate(120.000012) translate(-10.841479, -18.044680) translate(6.341479, 10.544680)" fill="url(#linearGradient-3)">
                                <path d="M0.0178084065,0.0558572047 C0.0178084065,0.0558572047 1.94747086,1.63350943 2.67141788,3.86214914 C3.44314165,6.23788471 2.07620916,9.07326546 1.35822442,10.3225997 C1.25765007,10.4947999 1.23050598,10.700185 1.28298978,10.8925472 C1.33547359,11.0849093 1.46311358,11.2480877 1.63727509,11.3452102 C2.84706997,12.0211451 5.39022025,13.4403261 6.85066649,14.2553549 C7.07974379,14.3831518 7.35918672,14.3807198 7.58598893,14.2489219 C7.8127127,14.117124 7.95321867,13.8754945 7.95549376,13.6132324 L8.02390314,5.86022097 C8.0310422,5.0461336 7.5937556,4.29292429 6.88322371,3.89556932 C4.6648611,2.6548647 0.0178084065,0.0558572047 0.0178084065,0.0558572047 Z" id="Path"></path>
                            </g>
                        </g>
                    </g>
                </g>
            </g>
        </g>
    </g>
</svg>