<svg xmlns="http://www.w3.org/2000/svg" width="181" height="53" viewBox="0 0 181 53">
    <defs>
        <linearGradient id="9yn3agkvka" x1="15.077%" x2="63.346%" y1="28.364%" y2="57.831%">
            <stop offset="0%" stop-color="#CF44FB"/>
            <stop offset="57%" stop-color="#2854C6"/>
            <stop offset="79%" stop-color="#1E46B6"/>
            <stop offset="100%" stop-color="#001A86"/>
        </linearGradient>
        <linearGradient id="2nwve05qcb" x1="41.074%" x2="62.374%" y1="77.006%" y2="31.374%">
            <stop offset="0%" stop-color="#11DADC"/>
            <stop offset="100%" stop-color="#0C7CFE"/>
        </linearGradient>
        <linearGradient id="l6ejdnt5ec" x1="49.223%" x2="53.147%" y1="92.158%" y2="26.372%">
            <stop offset="0%" stop-color="#11D8DD"/>
            <stop offset="100%" stop-color="#0C7CFE"/>
        </linearGradient>
    </defs>
    <g fill="none" fill-rule="evenodd">
        <g>
            <g>
                <text fill="#FFF" font-family="Basecoat-Regular, Basecoat" font-size="28" letter-spacing="1.6" transform="translate(-345 -20) translate(345 20)">
                    <tspan x="52" y="34">GENESIS</tspan>
                </text>
                <g>
                    <path fill="url(#9yn3agkvka)" d="M22.277.586c-1.376-.78-3.063-.772-4.432.02C14.042 2.81 6.302 7.294 2.497 9.497c-1.37.794-2.216 2.255-2.223 3.838L.197 30.803c-.007 1.601.845 3.083 2.233 3.882l15.317 8.818c1.393.802 3.11.791 4.494-.027l8.678-5.135c1.344-.795 2.172-2.236 2.182-3.798.01-1.56-.8-3.013-2.133-3.825l-4.877-2.971c-.938-.572-2.157-.334-2.812.549l-2.085 2.81c-.28.378-.724.601-1.195.6-.47 0-.914-.223-1.193-.602-2.84-3.855-5.237-7.919-7.126-12.334-.184-.433-.152-.929.087-1.334.24-.406.656-.675 1.125-.724 4.81-.497 9.403-.633 14.212-.175.47.047.892.317 1.131.725.24.408.27.907.083 1.342-.243.565-.52 1.202-.79 1.827-.762 1.76-.061 3.812 1.619 4.737l3.604 1.985c1.462.805 3.24.783 4.681-.058 1.442-.841 2.336-2.378 2.354-4.047l.11-9.83c.018-1.623-.848-3.127-2.26-3.928L22.278.586z" transform="translate(-345 -20) translate(345 20) translate(0 2)"/>
                    <path fill="url(#2nwve05qcb)" d="M23.929 1.527s3.859 3.155 5.307 7.613c1.543 4.751-1.19 10.422-2.627 12.92-.2.345-.255.756-.15 1.14.105.385.36.712.709.906l10.426 5.82c.458.256 1.017.25 1.471-.013.453-.263.734-.747.739-1.271l.137-15.506c.014-1.628-.86-3.135-2.282-3.93L23.93 1.527z" transform="translate(-345 -20) translate(345 20) translate(0 2)"/>
                    <g fill="url(#l6ejdnt5ec)" transform="translate(-345 -20) translate(345 20) translate(0 2) scale(1 -1) rotate(-60 -28.903 -21.528)">
                        <path d="M.036.112s3.859 3.155 5.307 7.612c1.543 4.752-1.19 10.423-2.627 12.921-.2.345-.255.755-.15 1.14.105.385.36.711.709.905L13.7 28.51c.458.256 1.017.251 1.471-.012.453-.264.734-.747.739-1.272l.137-15.506c.014-1.628-.86-3.134-2.282-3.929L.036.111z"/>
                    </g>
                </g>
            </g>
        </g>
    </g>
</svg>
