<svg xmlns="http://www.w3.org/2000/svg" width="30" height="31" viewBox="0 0 30 31"><g><g><g><path fill="#ffce00" d="M29.282 16.745L16.075 29.953c-.205.205-.483.321-.774.321H1.157c-.975 0-1.464-1.178-.774-1.867 4.039-4.043 13.239-13.246 13.239-13.246S4.42 5.96.382 1.917C-.306 1.228.183.05 1.158.05H15.3c.29 0 .57.116.774.32l5.994 5.995 7.213 7.211a2.242 2.242 0 0 1 0 3.17z"/></g><g><path fill="#fedb41" d="M21.01 16.745L7.803 29.953c-.205.205-.483.321-.773.321H1.157c-.975 0-1.464-1.178-.774-1.867 4.039-4.043 13.239-13.246 13.239-13.246S4.42 5.96.382 1.917C-.306 1.228.183.05 1.158.05H7.03c.29 0 .569.116.773.32L21.01 13.577a2.242 2.242 0 0 1 0 3.17z"/></g></g></g></svg>