<?xml version="1.0" encoding="UTF-8"?>
<svg width="181px" height="53px" viewBox="0 0 181 53" version="1.1" xmlns="http://www.w3.org/2000/svg" xmlns:xlink="http://www.w3.org/1999/xlink">
    <title>Лого</title>
    <defs>
        <linearGradient x1="15.076769%" y1="28.3640026%" x2="63.3459354%" y2="57.8311393%" id="linearGradient-1">
            <stop stop-color="#CF44FB" offset="0%"></stop>
            <stop stop-color="#2854C6" offset="57%"></stop>
            <stop stop-color="#1E46B6" offset="79%"></stop>
            <stop stop-color="#001A86" offset="100%"></stop>
        </linearGradient>
        <linearGradient x1="41.0743886%" y1="77.0056848%" x2="62.3737419%" y2="31.3740687%" id="linearGradient-2">
            <stop stop-color="#11DADC" offset="0%"></stop>
            <stop stop-color="#0C7CFE" offset="100%"></stop>
        </linearGradient>
        <linearGradient x1="49.2226633%" y1="92.1584111%" x2="53.1472696%" y2="26.3718249%" id="linearGradient-3">
            <stop stop-color="#11D8DD" offset="0%"></stop>
            <stop stop-color="#0C7CFE" offset="100%"></stop>
        </linearGradient>
    </defs>
    <g id="Главная" stroke="none" stroke-width="1" fill="none" fill-rule="evenodd">
        <g id="Главная-768" transform="translate(-30.000000, -20.000000)">
            <g id="Шапка" transform="translate(30.000000, 20.000000)">
                <g id="Лого" transform="translate(0.000000, -0.000000)">
                    <path d="M63.816,34.28 C64.74,34.28 65.552,34.196 66.588,33.916 C67.288,33.72 68.072,33.356 69.052,32.88 C69.696,32.544 70.648,31.704 71.264,31.088 C71.6,30.724 71.824,30.64 71.852,30.36 L71.852,29.212 L71.88,27.336 C71.8582222,27.0311111 71.8533827,26.4721481 71.8523073,25.9225953 L71.852,25.46 L71.852,25.46 C71.88,24.564 71.852,23.556 71.852,23.528 C71.824,23.388 71.74,23.276 71.544,23.276 L66.812,23.276 C66.364,23.276 66.168,23.248 65.692,23.248 C64.796,23.248 64.236,23.276 64.18,23.276 C63.956,23.276 63.872,23.388 63.872,23.5 L63.872,24.788 C63.872,24.872 63.9,25.32 63.9,25.6 C63.9,25.712 63.928,25.936 63.928,26.02 L63.928,26.272 C63.928,26.384 64.096,26.468 64.292,26.468 C64.824,26.496 65.188,26.468 66.308,26.468 L68.632,26.468 L68.632,29.1 C68.464,29.24 68.324,29.408 68.184,29.52 C67.96,29.716 67.344,30.108 67.036,30.276 C66.756,30.416 66.168,30.612 65.832,30.724 C65.328,30.864 64.6,31.032 64.012,31.032 C63.256,31.032 62.584,31.004 62.276,30.948 C61.632,30.78 61.408,30.696 60.792,30.388 C60.708,30.36 60.484,30.276 60.4,30.22 C60.148,30.108 59.868,29.94 59.644,29.716 C59.448,29.548 59.252,29.408 59.112,29.296 C58.496,28.736 58.132,28.288 57.74,27.588 C57.572,27.252 57.012,25.992 56.872,24.872 C56.844,24.62 56.788,24.144 56.788,23.864 C56.788,22.436 57.18,21.596 57.348,20.952 C57.628,20.056 58.244,19.16 59.028,18.432 C59.868,17.704 60.68,17.256 61.24,17.06 C61.772,16.864 62.724,16.724 63.48,16.724 C64.04,16.724 64.824,16.808 65.608,17.144 C66.14,17.34 66.644,17.592 67.092,17.956 C67.68,18.432 68.268,19.076 68.744,19.748 C68.828,19.86 68.94,19.972 69.052,19.972 C69.108,19.972 69.192,19.916 69.248,19.888 C69.472,19.748 69.584,19.692 69.808,19.524 C70.144,19.3 70.228,19.216 70.452,19.048 C70.648,18.936 70.788,18.796 70.928,18.712 C71.124,18.6 71.124,18.6 71.292,18.46 C71.376,18.376 71.432,18.32 71.432,18.18 C71.432,18.124 71.376,18.012 71.348,17.928 C71.18,17.676 70.872,17.228 70.676,16.976 C70.172,16.304 69.584,15.8 68.94,15.268 C68.38,14.792 67.54,14.316 66.616,13.98 C65.832,13.7 64.964,13.504 64.096,13.476 C63.256,13.448 62.892,13.42 62.668,13.42 C62.36,13.42 62.248,13.448 61.716,13.532 C61.52,13.532 60.568,13.812 60.456,13.812 C59.672,13.952 58.524,14.68 58.244,14.82 C57.404,15.296 56.732,15.94 56.144,16.528 C55.444,17.284 54.912,18.096 54.548,18.964 C54.296,19.552 53.848,20.42 53.596,21.68 C53.484,22.268 53.4,22.94 53.4,23.668 C53.4,24.928 53.624,26.412 54.296,28.176 C54.408,28.484 54.884,29.548 55.136,29.856 C55.696,30.64 56.2,31.116 56.592,31.508 C57.6,32.488 58.216,32.768 58.944,33.3 C59.224,33.496 59.56,33.524 59.868,33.692 C60.204,33.888 60.596,33.916 60.96,34 C61.968,34.28 62.304,34.224 62.668,34.252 C63.088,34.252 63.452,34.28 63.816,34.28 Z M86.724,34 C87.744,33.98 88.5925714,33.9742857 89.2186939,33.9726531 L89.7207653,33.9720102 C89.7695714,33.972 89.816,33.972 89.86,33.972 C90.112,33.972 90.308,33.972 90.336,33.832 C90.364,33.72 90.364,33.58 90.364,33.496 C90.364,33.132 90.392,32.404 90.364,31.9 C90.364,31.508 90.336,31.172 90.336,31.004 C90.336,30.92 90.252,30.78 90.028,30.78 L87.704,30.78 L87.704,30.78 L86.556,30.808 C85.968,30.808 85.408,30.836 84.82,30.836 L81.32,30.836 L81.32,29.38 C81.32,28.456 81.292,27.84 81.292,27.056 C81.32,26.748 81.32,26.552 81.32,26.244 L81.32,25.32 L88.096,25.32 C88.348,25.32 88.488,25.32 88.488,25.068 L88.516,24.004 C88.516,23.724 88.544,23.304 88.544,23.08 C88.544,22.744 88.488,22.548 88.488,22.492 C88.488,22.296 88.488,22.212 88.124,22.184 L87.564,22.156 C87.368,22.1 86.276,22.156 85.996,22.156 L82.72,22.156 L82.6849267,22.1560127 L82.6849267,22.1560127 L82.479381,22.1568157 C82.2063905,22.1586509 81.7486154,22.1646154 81.264,22.184 C81.264,21.1909333 81.2396089,20.0759111 81.2363567,19.6129446 L81.236,16.892 L83.672,16.892 C84.26,16.892 85.128,16.92 85.716,16.92 L89.72,16.92 C90,16.92 90.028,16.808 90.028,16.668 L90.056,16.08 L90.056,16.08 L90.084,14.288 C90.084,14.148 90.056,14.008 90.056,13.896 C90.056,13.812 89.972,13.7 89.776,13.7 C89.5203478,13.7 87.7707977,13.7233422 86.3389039,13.7274017 L84.4201865,13.7271455 C84.001875,13.7252656 83.28,13.71925 82.664,13.7 L79.724,13.7 C78.94,13.728 78.296,13.728 78.184,13.756 C78.072,13.756 77.988,13.924 77.988,14.092 L77.988,15.408 L78.016,16.444 C77.988,17.928 77.96,19.748 77.96,22.044 C77.96,22.632 77.988,23.164 77.988,23.724 L77.96,25.068 C77.96,26.916 77.988,28.092 77.988,29.66 L77.988,31.732 L78.016,32.572 C78.016,32.936 77.988,33.44 77.988,33.664 C78.016,33.944 78.1,33.972 78.184,33.972 C78.324,33.972 78.464,34 78.688,34 L86.724,34 Z M109.912,34.028 L110.696,34 C110.724,34 110.836,33.916 110.836,33.804 C110.864,33.664 110.864,33.468 110.864,33.356 L110.864,32.712 C110.8444,32.4376 110.83852,31.99856 110.836756,31.481316 L110.836,30.78 C110.836,28.624 110.892,25.404 110.892,23.416 L110.892,22.52 C110.892,21.12 110.92,19.524 110.92,18.796 L110.92,15.604 C110.92,15.044 110.948,14.736 110.948,14.12 C110.948,13.784 110.836,13.728 110.668,13.728 L110.5,13.728 C110.136,13.728 110.024,13.7 109.492,13.7 L107.868,13.7 C107.7,13.7 107.616,13.728 107.616,14.12 L107.616854,22.0011934 C107.618734,22.8110469 107.62475,23.35125 107.644,23.64 L107.644307,26.7633635 C107.645383,27.3422222 107.650222,27.8213333 107.672,28.148 L107.532,27.924 C107.196,27.336 106.3,25.88 106.104,25.432 L105.46,24.368 C104.984,23.472 104.76,23.192 103.92,21.68 C102.912,19.86 102.24,18.852 102.24,18.852 C101.484,17.508 101.344,17.284 101.344,17.284 C101.154462,16.948 100.991432,16.659716 100.835335,16.3816277 L100.603944,15.967452 C100.334343,15.4822249 100.056,14.9707692 99.664,14.232 C99.468,13.84 99.384,13.7 98.992,13.7 C98.908,13.7 98.74,13.7 98.544,13.728 L98.208,13.7 L98.208,13.7 L97.144,13.7 C96.892,13.7 96.668,13.728 96.416,13.728 C96.304,13.728 96.248,13.812 96.248,13.924 L96.248,17.004 C96.248,19.006 96.2238571,21.9012857 96.2204082,23.8963878 L96.22,25.236 L96.2198954,25.389801 L96.2198954,25.389801 L96.2191046,25.7172704 C96.2183393,25.9431071 96.217125,26.18225 96.215625,26.42425 L96.2131811,26.7880867 C96.2062015,27.7570663 96.1959566,28.6881684 96.1928954,28.9126582 L96.192,33.636 C96.192,33.9636 96.3054,33.99636 96.43014,33.999636 L97.872,34 C98.292,34 98.376,34.028 99.272,34 C99.384,34 99.524,33.972 99.524,33.44 C99.524,32.9696 99.4996089,32.0113778 99.4963567,30.7474536 L99.496,27.028 C99.496,25.488 99.524,24.536 99.496,24.116 L99.496,21.568 C99.496,21.008 99.468,20.504 99.468,20.112 C99.972,20.952 100.336,21.596 100.42,21.764 C100.42,21.764 100.921223,22.7246777 101.508831,23.7081382 L101.696779,24.0183681 C101.728421,24.0698347 101.760182,24.1210909 101.792,24.172 L102.744,25.712 C103.052,26.216 104.004,27.7 104.424,28.456 C104.536,28.68 105.124,29.52 105.488,30.136 C105.936,30.808 106.356,31.508 106.804,32.18 L107.616,33.524 C107.84,33.888 107.924,34 108.26,34 L109.156,34 C109.436,34 109.772,34.028 109.912,34.028 Z M126.912,34 C127.932,33.98 128.780571,33.9742857 129.406694,33.9726531 L129.908765,33.9720102 C129.957571,33.972 130.004,33.972 130.048,33.972 C130.3,33.972 130.496,33.972 130.524,33.832 C130.552,33.72 130.552,33.58 130.552,33.496 C130.552,33.132 130.58,32.404 130.552,31.9 C130.552,31.508 130.524,31.172 130.524,31.004 C130.524,30.92 130.44,30.78 130.216,30.78 L127.892,30.78 L127.892,30.78 L126.744,30.808 C126.156,30.808 125.596,30.836 125.008,30.836 L121.508,30.836 L121.508,29.38 C121.508,28.456 121.48,27.84 121.48,27.056 C121.508,26.748 121.508,26.552 121.508,26.244 L121.508,25.32 L128.284,25.32 C128.536,25.32 128.676,25.32 128.676,25.068 L128.704,24.004 C128.704,23.724 128.732,23.304 128.732,23.08 C128.732,22.744 128.676,22.548 128.676,22.492 C128.676,22.296 128.676,22.212 128.312,22.184 L127.752,22.156 C127.556,22.1 126.464,22.156 126.184,22.156 L122.908,22.156 L122.872927,22.1560127 L122.872927,22.1560127 L122.667381,22.1568157 C122.394391,22.1586509 121.936615,22.1646154 121.452,22.184 C121.452,21.1909333 121.427609,20.0759111 121.424357,19.6129446 L121.424,16.892 L123.86,16.892 C124.448,16.892 125.316,16.92 125.904,16.92 L129.908,16.92 C130.188,16.92 130.216,16.808 130.216,16.668 L130.244,16.08 L130.244,16.08 L130.272,14.288 C130.272,14.148 130.244,14.008 130.244,13.896 C130.244,13.812 130.16,13.7 129.964,13.7 C129.708348,13.7 127.958798,13.7233422 126.526904,13.7274017 L124.608187,13.7271455 C124.189875,13.7252656 123.468,13.71925 122.852,13.7 L119.912,13.7 C119.128,13.728 118.484,13.728 118.372,13.756 C118.26,13.756 118.176,13.924 118.176,14.092 L118.176,15.408 L118.204,16.444 C118.176,17.928 118.148,19.748 118.148,22.044 C118.148,22.632 118.176,23.164 118.176,23.724 L118.148,25.068 C118.148,26.916 118.176,28.092 118.176,29.66 L118.176,31.732 L118.204,32.572 C118.204,32.936 118.176,33.44 118.176,33.664 C118.204,33.944 118.288,33.972 118.372,33.972 C118.512,33.972 118.652,34 118.876,34 L126.912,34 Z M143.016,34.308 C143.296,34.308 143.744,34.224 144.192,34.112 C144.78,33.972 145.2,33.832 146.04,33.44 C146.74,33.188 147.104,32.824 147.776,32.04 C148.084,31.732 148.588,31.06 148.868,30.248 C148.98,29.968 149.176,29.24 149.176,28.708 C149.176,28.4 149.148,28.064 149.12,27.812 C149.092,27.588 149.008,27.224 148.952,27.028 C148.812,26.664 148.56,26.048 148.364,25.768 C147.972,25.152 147.58,24.816 147.3,24.536 C146.768,24.06 146.32,23.78 145.732,23.472 C145.256,23.248 144.5,22.884 143.884,22.632 C142.988,22.24 142.12,21.96 141.532,21.708 C140.692,21.344 139.88,20.952 139.376,20.56 C139.124,20.364 138.732,19.888 138.592,19.552 C138.452,19.104 138.48,18.544 138.816,18.096 C139.18,17.424 139.628,17.172 140.356,16.948 C140.804,16.78 141.308,16.696 141.672,16.64 C142.204,16.64 142.764,16.78 143.072,16.92 C143.996,17.172 144.92,17.704 145.256,17.984 C145.788,18.376 146.208,18.796 146.348,18.88 C146.516,18.992 146.712,18.908 146.796,18.88 C147.132,18.6 147.412,18.236 147.664,17.984 C147.916,17.76 148.028,17.592 148.196,17.424 C148.28,17.34 148.364,17.2 148.448,17.088 C148.504,16.948 148.392,16.724 148.28,16.584 C147.888,16.08 147.468,15.716 147.244,15.548 C146.152,14.68 145.648,14.428 145.06,14.232 C144.192,13.728 143.52,13.616 142.708,13.504 C142.344,13.448 141.756,13.448 141.196,13.476 C140.748,13.504 140.048,13.644 139.516,13.812 C138.704,14.148 137.696,14.596 137.248,15.044 C136.296,15.8 136.1,16.164 135.596,16.892 C135.288,17.396 135.26,17.872 135.204,18.376 C135.148,18.684 135.148,19.048 135.176,19.412 C135.232,19.944 135.316,20.392 135.54,20.812 C135.68,21.288 136.016,21.82 136.352,22.212 C136.52,22.408 136.828,22.744 137.052,22.912 C137.192,23.08 137.332,23.136 137.5,23.248 C137.724,23.444 137.864,23.5 138.2,23.668 C138.536,23.892 138.816,23.976 139.18,24.172 C139.432,24.312 139.824,24.452 140.076,24.564 L141.42,25.096 C142.036,25.348 142.148,25.376 142.736,25.656 C143.016,25.768 143.38,25.964 143.604,26.104 C144.108,26.356 144.724,26.748 145.032,27.056 C145.256,27.252 145.592,27.868 145.648,28.288 C145.676,28.596 145.564,29.324 145.256,29.828 C145.06,30.22 144.64,30.584 144.192,30.78 C143.856,30.92 143.072,31.116 142.568,31.144 C141.952,31.144 141,31.004 140.468,30.78 C139.628,30.5 138.844,30.024 138.2,29.464 C137.752,29.156 137.444,28.848 137.052,28.54 C137.024,28.484 136.912,28.4 136.828,28.4 C136.66,28.484 136.576,28.512 136.464,28.624 C136.24,28.848 135.876,29.184 135.624,29.492 C135.512,29.632 135.372,29.744 135.232,29.884 C135.064,29.996 135.064,30.08 134.952,30.22 C134.868,30.304 134.84,30.36 134.812,30.444 C134.756,30.556 134.728,30.668 134.812,30.808 C135.064,31.144 135.652,31.62 135.932,31.844 C136.352,32.264 137.192,32.88 137.668,33.16 C138.284,33.496 138.956,33.748 139.88,33.944 C140.524,34.14 141.168,34.252 141.896,34.28 C142.316,34.336 142.652,34.308 143.016,34.308 Z M155.928,34.028 L157.356,34 L157.58,34 C157.72,34 157.748,33.86 157.748,33.748 L157.748,30.472 C157.748,29.24 157.72,27.952 157.72,26.916 L157.72,15.716 C157.72,15.268 157.776,14.764 157.72,14.316 L157.72,14.092 C157.72,13.728 157.636,13.7 157.524,13.7 L157.384,13.7 C156.936,13.7 156.6,13.672 156.18,13.672 C155.9,13.672 155.62,13.7 155.312,13.7 L154.64,13.7 C154.440889,13.7 154.418765,13.8548642 154.416307,14.0662661 L154.416,18.46 C154.444,19.468 154.416,19.944 154.416,20.112 L154.444,21.876 C154.444,22.52 154.5,25.684 154.5,26.3 L154.500816,31.667767 C154.502651,32.4268639 154.508615,33.0889231 154.528,33.496 C154.528,34 154.612,33.972 154.78,34 C154.96,34.02 155.24,34.0257143 155.548571,34.0273469 L155.928,34.028 L155.928,34.028 Z M171.584,34.308 C171.864,34.308 172.312,34.224 172.76,34.112 C173.348,33.972 173.768,33.832 174.608,33.44 C175.308,33.188 175.672,32.824 176.344,32.04 C176.652,31.732 177.156,31.06 177.436,30.248 C177.548,29.968 177.744,29.24 177.744,28.708 C177.744,28.4 177.716,28.064 177.688,27.812 C177.66,27.588 177.576,27.224 177.52,27.028 C177.38,26.664 177.128,26.048 176.932,25.768 C176.54,25.152 176.148,24.816 175.868,24.536 C175.336,24.06 174.888,23.78 174.3,23.472 C173.824,23.248 173.068,22.884 172.452,22.632 C171.556,22.24 170.688,21.96 170.1,21.708 C169.26,21.344 168.448,20.952 167.944,20.56 C167.692,20.364 167.3,19.888 167.16,19.552 C167.02,19.104 167.048,18.544 167.384,18.096 C167.748,17.424 168.196,17.172 168.924,16.948 C169.372,16.78 169.876,16.696 170.24,16.64 C170.772,16.64 171.332,16.78 171.64,16.92 C172.564,17.172 173.488,17.704 173.824,17.984 C174.356,18.376 174.776,18.796 174.916,18.88 C175.084,18.992 175.28,18.908 175.364,18.88 C175.7,18.6 175.98,18.236 176.232,17.984 C176.484,17.76 176.596,17.592 176.764,17.424 C176.848,17.34 176.932,17.2 177.016,17.088 C177.072,16.948 176.96,16.724 176.848,16.584 C176.456,16.08 176.036,15.716 175.812,15.548 C174.72,14.68 174.216,14.428 173.628,14.232 C172.76,13.728 172.088,13.616 171.276,13.504 C170.912,13.448 170.324,13.448 169.764,13.476 C169.316,13.504 168.616,13.644 168.084,13.812 C167.272,14.148 166.264,14.596 165.816,15.044 C164.864,15.8 164.668,16.164 164.164,16.892 C163.856,17.396 163.828,17.872 163.772,18.376 C163.716,18.684 163.716,19.048 163.744,19.412 C163.8,19.944 163.884,20.392 164.108,20.812 C164.248,21.288 164.584,21.82 164.92,22.212 C165.088,22.408 165.396,22.744 165.62,22.912 C165.76,23.08 165.9,23.136 166.068,23.248 C166.292,23.444 166.432,23.5 166.768,23.668 C167.104,23.892 167.384,23.976 167.748,24.172 C168,24.312 168.392,24.452 168.644,24.564 L169.988,25.096 C170.604,25.348 170.716,25.376 171.304,25.656 C171.584,25.768 171.948,25.964 172.172,26.104 C172.676,26.356 173.292,26.748 173.6,27.056 C173.824,27.252 174.16,27.868 174.216,28.288 C174.244,28.596 174.132,29.324 173.824,29.828 C173.628,30.22 173.208,30.584 172.76,30.78 C172.424,30.92 171.64,31.116 171.136,31.144 C170.52,31.144 169.568,31.004 169.036,30.78 C168.196,30.5 167.412,30.024 166.768,29.464 C166.32,29.156 166.012,28.848 165.62,28.54 C165.592,28.484 165.48,28.4 165.396,28.4 C165.228,28.484 165.144,28.512 165.032,28.624 C164.808,28.848 164.444,29.184 164.192,29.492 C164.08,29.632 163.94,29.744 163.8,29.884 C163.632,29.996 163.632,30.08 163.52,30.22 C163.436,30.304 163.408,30.36 163.38,30.444 C163.324,30.556 163.296,30.668 163.38,30.808 C163.632,31.144 164.22,31.62 164.5,31.844 C164.92,32.264 165.76,32.88 166.236,33.16 C166.852,33.496 167.524,33.748 168.448,33.944 C169.092,34.14 169.736,34.252 170.464,34.28 C170.884,34.336 171.22,34.308 171.584,34.308 Z" id="GENESIS" fill="#FFFFFF" fill-rule="nonzero"></path>
                    <g id="logo-color" transform="translate(0.000000, 2.000000)">
                        <path d="M22.2770431,0.585784933 C20.900696,-0.194176476 19.2143099,-0.186174458 17.8454941,0.60665294 C14.042182,2.80956145 6.301877,7.2928882 2.49730966,9.49673812 C1.12739554,10.2901931 0.281221357,11.7506399 0.274160753,13.3337842 C0.254861768,17.6743299 0.216106896,26.4388932 0.196762449,30.8025035 C0.189590405,32.4040054 1.04219759,33.8861047 2.43015547,34.6850513 C6.24037129,36.8785457 13.9306245,41.3055445 17.7474302,43.5026476 C19.1404089,44.3045753 20.8572341,44.2943767 22.2406418,43.4759742 C24.4330378,42.1788628 27.8778282,40.1407017 30.9190657,38.3413459 C32.2627772,37.5463219 33.0910645,36.1047034 33.1011062,34.5433685 C33.111148,32.9821905 32.301532,31.5299026 30.9681762,30.7176194 C29.1641133,29.6186755 27.3490674,28.5129849 26.0914953,27.7469878 C25.1530626,27.1752358 23.9336178,27.4132566 23.2788644,28.2956752 C22.6368201,29.1611484 21.8395995,30.2357723 21.1936326,31.1062664 C20.9130913,31.484401 20.4699992,31.7072023 19.9989784,31.7067315 C19.5281146,31.7062608 19.0853362,31.482675 18.8055794,31.1039129 C15.9653337,27.2489799 13.5689646,23.185053 11.6804884,18.7699788 C11.4961281,18.3366146 11.5282931,17.8414309 11.7672553,17.4356815 C12.0060607,17.0297752 12.4234208,16.7611584 12.8917742,16.712048 C17.7016147,16.2149815 22.2954007,16.0794179 27.1035152,16.5371019 C27.5748498,16.5841726 27.9955049,16.8535739 28.2354085,17.2619906 C28.4754691,17.6704073 28.5059081,18.168886 28.3176254,18.6035054 C28.0747406,19.1689813 27.7985925,19.8064754 27.527936,20.4311036 C26.7655477,22.1913906 27.4665872,24.2427315 29.1468541,25.1681414 C30.2195952,25.7587217 31.4809329,26.4533282 32.751371,27.1529557 C34.2133868,27.9580214 35.9907762,27.9358982 37.4323947,27.0949018 C38.8740131,26.2537485 39.7678856,24.717361 39.7864001,23.0483911 C39.825155,19.5623354 39.8681462,15.7039506 39.8961946,13.2178334 C39.9139617,11.5949928 39.0484885,10.0906134 37.6366815,9.29041158 C33.7902212,7.11056771 26.0780017,2.73989682 22.2770431,0.585784933 Z" id="Path" fill="url(#linearGradient-1)"></path>
                        <path d="M23.9285969,1.52704192 C23.9285969,1.52704192 27.7879231,4.68234748 29.2358177,9.13962845 C30.7792658,13.8911013 28.0453998,19.5618647 26.6094299,22.0605341 C26.4082811,22.4049347 26.3539929,22.815705 26.4589605,23.2004294 C26.5639282,23.5851539 26.8192082,23.9115107 27.1675314,24.1057558 C29.587122,25.4576261 34.6734243,28.295989 37.5943178,29.9260472 C38.0524726,30.181641 38.6113586,30.1767771 39.0649632,29.9131812 C39.5184109,29.6495853 39.799423,29.1663262 39.8039731,28.6418017 C39.8386486,24.7146937 39.905332,17.1447846 39.940792,13.1357735 C39.9550701,11.5075982 39.0804966,10.0011791 37.6594323,9.20646884 C33.2227055,6.72505872 23.9285969,1.52704192 23.9285969,1.52704192 Z" id="Path" fill="url(#linearGradient-2)"></path>
                        <g id="Group" transform="translate(20.999945, 35.906348) scale(-1, 1) rotate(120.000012) translate(-20.999945, -35.906348) translate(12.499945, 21.406348)" fill="url(#linearGradient-3)">
                            <path d="M0.0356168131,0.111714409 C0.0356168131,0.111714409 3.89494171,3.26701886 5.34283577,7.72429828 C6.8862833,12.4757694 4.15241832,18.1465309 2.71644883,20.6451994 C2.51530014,20.9895999 2.46101195,21.40037 2.56597957,21.7850943 C2.67094718,22.1698187 2.92622716,22.4961754 3.27455017,22.6904204 C5.69413993,24.0422903 10.7804405,26.8806521 13.701333,28.5107097 C14.1594876,28.7663035 14.7183734,28.7614395 15.1719779,28.4978437 C15.6254254,28.2342479 15.9064373,27.750989 15.9109875,27.2264647 L16.0478063,11.7204419 C16.0620844,10.0922672 15.1875112,8.58584859 13.7664474,7.79113864 C9.3297222,5.30972939 0.0356168131,0.111714409 0.0356168131,0.111714409 Z" id="Path"></path>
                        </g>
                    </g>
                </g>
            </g>
        </g>
    </g>
</svg>