<svg xmlns="http://www.w3.org/2000/svg" width="240" height="108" viewBox="0 0 240 108"><defs><radialGradient id="lv8za" cx="-10.09" cy="98.97" r="262.52" gradientUnits="userSpaceOnUse"><stop offset="0" stop-color="#ededed"/><stop offset="1" stop-color="#fafafa"/></radialGradient><filter id="lv8zc" width="216%" height="216%" x="-48%" y="-48%" filterUnits="objectBoundingBox"><feGaussianBlur in="SourceGraphic" result="FeGaussianBlur2235Out" stdDeviation="40 40"/></filter><filter id="lv8zd" width="216%" height="216%" x="-48%" y="-48%" filterUnits="objectBoundingBox"><feGaussianBlur in="SourceGraphic" result="FeGaussianBlur2242Out" stdDeviation="40 40"/></filter><clipPath id="lv8zb"><path d="M0 4a4 4 0 0 1 4-4h232a4 4 0 0 1 4 4v100a4 4 0 0 1-4 4H4a4 4 0 0 1-4-4z"/></clipPath></defs><g><g><g><path fill="url(#lv8za)" d="M0 4a4 4 0 0 1 4-4h232a4 4 0 0 1 4 4v100a4 4 0 0 1-4 4H4a4 4 0 0 1-4-4z"/></g><g clip-path="url(#lv8zb)" filter="url(#lv8zc)" opacity=".2"><path fill="#0fbce7" d="M522.5 420c59.37 0 107.5-48.13 107.5-107.5S581.87 205 522.5 205 415 253.13 415 312.5 463.13 420 522.5 420z"/></g><g clip-path="url(#lv8zb)" filter="url(#lv8zd)" opacity=".3"><path fill="#0fbce7" d="M-.5 199c59.094 0 107-47.906 107-107S58.594-15-.5-15s-107 47.906-107 107 47.906 107 107 107z"/></g><g clip-path="url(#lv8zb)"/></g></g></svg>