<svg xmlns="http://www.w3.org/2000/svg" width="1020" height="629" viewBox="0 0 1020 629"><defs><radialGradient id="hpfla" cx="1020" cy="0" r="816.5" gradientUnits="userSpaceOnUse"><stop offset="0" stop-color="#4b50d1"/><stop offset=".58" stop-color="#050447"/><stop offset="1" stop-color="#050447"/></radialGradient><filter id="hpflc" width="216%" height="216%" x="-48%" y="-48%" filterUnits="objectBoundingBox"><feGaussianBlur in="SourceGraphic" result="FeGaussianBlur3800Out" stdDeviation="94.21016949152543 94.21016949152543"/></filter><radialGradient id="hpfle" cx="-10.86" cy="64.28" r="650.54" gradientUnits="userSpaceOnUse"><stop offset="0" stop-color="#4600d1"/><stop offset=".5" stop-color="#ac0cc5"/><stop offset="1" stop-color="#fff"/></radialGradient><filter id="hpfld" width="172%" height="172%" x="-26%" y="-26%" filterUnits="objectBoundingBox"><feGaussianBlur in="SourceGraphic" result="FeGaussianBlur3811Out" stdDeviation="50 50"/></filter><radialGradient id="hpflg" cx="125.7" cy="-44.7" r="353.27" gradientUnits="userSpaceOnUse"><stop offset="0" stop-color="#4600d1"/><stop offset=".5" stop-color="#ac0cc5"/><stop offset="1" stop-color="#fff"/></radialGradient><filter id="hpflf" width="200%" height="200%" x="-40%" y="-40%" filterUnits="objectBoundingBox"><feGaussianBlur in="SourceGraphic" result="FeGaussianBlur3822Out" stdDeviation="50 50"/></filter><filter id="hpflh" width="216%" height="216%" x="-48%" y="-48%" filterUnits="objectBoundingBox"><feGaussianBlur in="SourceGraphic" result="FeGaussianBlur3833Out" stdDeviation="94.21016949152543 94.21016949152543"/></filter><clipPath id="hpflb"><path d="M0 10C0 4.477 4.477 0 10 0h1000c5.523 0 10 4.477 10 10v609c0 5.523-4.477 10-10 10H10c-5.523 0-10-4.477-10-10z"/></clipPath></defs><g><g><g><path fill="url(#hpfla)" d="M0 10C0 4.477 4.477 0 10 0h1000c5.523 0 10 4.477 10 10v609c0 5.523-4.477 10-10 10H10c-5.523 0-10-4.477-10-10z"/><path fill="#0e0d57" fill-opacity=".6" d="M0 10C0 4.477 4.477 0 10 0h1000c5.523 0 10 4.477 10 10v609c0 5.523-4.477 10-10 10H10c-5.523 0-10-4.477-10-10z"/></g><g clip-path="url(#hpflb)" filter="url(#hpflc)" opacity=".2"><path fill="#0fbce7" d="M811 817c139.728 0 253-113.272 253-253S950.728 311 811 311 558 424.272 558 564s113.272 253 253 253z"/></g><g clip-path="url(#hpflb)" filter="url(#hpfld)" opacity=".2"><path fill="url(#hpfle)" d="M288 200c166.79 0 302-135.21 302-302S454.79-404 288-404-14-268.79-14-102s135.21 302 302 302z"/></g><g clip-path="url(#hpflb)" filter="url(#hpflf)" opacity=".5"><path fill="url(#hpflg)" d="M288 29c90.575 0 164-73.425 164-164s-73.425-164-164-164-164 73.425-164 164S197.425 29 288 29z"/></g><g clip-path="url(#hpflb)"/><g clip-path="url(#hpflb)" filter="url(#hpflh)" opacity=".3"><path fill="#0fbce7" d="M-513 238c139.176 0 252-112.824 252-252s-112.824-252-252-252-252 112.824-252 252 112.824 252 252 252z"/></g></g></g></svg>