<svg xmlns="http://www.w3.org/2000/svg" width="200" height="184" viewBox="0 0 200 184"><defs><radialGradient id="ainqa" cx="-8.41" cy="168.61" r="248.86" gradientUnits="userSpaceOnUse"><stop offset="0" stop-color="#ededed"/><stop offset="1" stop-color="#fafafa"/></radialGradient><filter id="ainqc" width="216%" height="216%" x="-48%" y="-48%" filterUnits="objectBoundingBox"><feGaussianBlur in="SourceGraphic" result="FeGaussianBlur3854Out" stdDeviation="40 40"/></filter><filter id="ainqd" width="216%" height="216%" x="-48%" y="-48%" filterUnits="objectBoundingBox"><feGaussianBlur in="SourceGraphic" result="FeGaussianBlur3861Out" stdDeviation="40 40"/></filter><clipPath id="ainqb"><path d="M0 10C0 4.477 4.477 0 10 0h180c5.523 0 10 4.477 10 10v164c0 5.523-4.477 10-10 10H10c-5.523 0-10-4.477-10-10z"/></clipPath></defs><g><g><g><path fill="url(#ainqa)" d="M0 10C0 4.477 4.477 0 10 0h180c5.523 0 10 4.477 10 10v164c0 5.523-4.477 10-10 10H10c-5.523 0-10-4.477-10-10z"/></g><g clip-path="url(#ainqb)" filter="url(#ainqc)" opacity=".2"><path fill="#0fbce7" d="M522.5 420c59.37 0 107.5-48.13 107.5-107.5S581.87 205 522.5 205 415 253.13 415 312.5 463.13 420 522.5 420z"/></g><g clip-path="url(#ainqb)" filter="url(#ainqd)" opacity=".3"><path fill="#0fbce7" d="M-.5 199c59.094 0 107-47.906 107-107S58.594-15-.5-15s-107 47.906-107 107 47.906 107 107 107z"/></g><g clip-path="url(#ainqb)"/></g></g></svg>