<svg xmlns="http://www.w3.org/2000/svg" width="320" height="492" viewBox="0 0 320 492"><defs><radialGradient id="peeoc" cx="159.14" cy="237.28" r="650.54" gradientUnits="userSpaceOnUse"><stop offset="0" stop-color="#4600d1"/><stop offset=".5" stop-color="#ac0cc5"/><stop offset="1" stop-color="#fff"/></radialGradient><filter id="peeob" width="172%" height="172%" x="-26%" y="-26%" filterUnits="objectBoundingBox"><feGaussianBlur in="SourceGraphic" result="FeGaussianBlur1839Out" stdDeviation="50 50"/></filter><radialGradient id="peeoe" cx="295.7" cy="128.3" r="353.27" gradientUnits="userSpaceOnUse"><stop offset="0" stop-color="#4600d1"/><stop offset=".5" stop-color="#ac0cc5"/><stop offset="1" stop-color="#fff"/></radialGradient><filter id="peeod" width="200%" height="200%" x="-40%" y="-40%" filterUnits="objectBoundingBox"><feGaussianBlur in="SourceGraphic" result="FeGaussianBlur1850Out" stdDeviation="50 50"/></filter><radialGradient id="peeog" cx="-60.04" cy="719.06" r="407.12" gradientUnits="userSpaceOnUse"><stop offset="0" stop-color="#4600d1"/><stop offset=".5" stop-color="#ac0cc5"/><stop offset="1" stop-color="#fff"/></radialGradient><filter id="peeof" width="192%" height="192%" x="-36%" y="-36%" filterUnits="objectBoundingBox"><feGaussianBlur in="SourceGraphic" result="FeGaussianBlur1861Out" stdDeviation="50 50"/></filter><clipPath id="peeoa"><path d="M0 0h320v492H0z"/></clipPath></defs><g><g><g><path fill="#050447" d="M0 0h320v492H0z"/></g><g clip-path="url(#peeoa)"><g filter="url(#peeob)" opacity=".2"><path fill="url(#peeoc)" d="M458 373c166.79 0 302-135.21 302-302S624.79-231 458-231 156-95.79 156 71s135.21 302 302 302z"/></g><g filter="url(#peeod)" opacity=".3"><path fill="url(#peeoe)" d="M458 202c90.575 0 164-73.425 164-164s-73.425-164-164-164S294-52.575 294 38s73.425 164 164 164z"/></g></g><g clip-path="url(#peeoa)" filter="url(#peeof)" opacity=".2"><path fill="url(#peeog)" d="M127 804c104.382 0 189-84.618 189-189s-84.618-189-189-189-189 84.618-189 189 84.618 189 189 189z"/></g><g/></g></g></svg>