<svg xmlns="http://www.w3.org/2000/svg" width="1920" height="560" viewBox="0 0 1920 560"><defs><radialGradient id="t6yqc" cx="781.14" cy="237.28" r="650.54" gradientUnits="userSpaceOnUse"><stop offset="0" stop-color="#4600d1"/><stop offset=".5" stop-color="#ac0cc5"/><stop offset="1" stop-color="#fff"/></radialGradient><filter id="t6yqb" width="172%" height="172%" x="-26%" y="-26%" filterUnits="objectBoundingBox"><feGaussianBlur in="SourceGraphic" result="FeGaussianBlur1027Out" stdDeviation="50 50"/></filter><radialGradient id="t6yqe" cx="917.7" cy="128.3" r="353.27" gradientUnits="userSpaceOnUse"><stop offset="0" stop-color="#4600d1"/><stop offset=".5" stop-color="#ac0cc5"/><stop offset="1" stop-color="#fff"/></radialGradient><filter id="t6yqd" width="200%" height="200%" x="-40%" y="-40%" filterUnits="objectBoundingBox"><feGaussianBlur in="SourceGraphic" result="FeGaussianBlur1038Out" stdDeviation="50 50"/></filter><radialGradient id="t6yqg" cx="264.96" cy="779.06" r="407.12" gradientUnits="userSpaceOnUse"><stop offset="0" stop-color="#4600d1"/><stop offset=".5" stop-color="#ac0cc5"/><stop offset="1" stop-color="#fff"/></radialGradient><filter id="t6yqf" width="192%" height="192%" x="-36%" y="-36%" filterUnits="objectBoundingBox"><feGaussianBlur in="SourceGraphic" result="FeGaussianBlur1049Out" stdDeviation="50 50"/></filter><filter id="t6yqh" width="176%" height="176%" x="-28%" y="-28%" filterUnits="objectBoundingBox"><feGaussianBlur in="SourceGraphic" result="FeGaussianBlur1056Out" stdDeviation="50 50"/></filter><filter id="t6yqi" width="216%" height="220%" x="-48%" y="-50%" filterUnits="objectBoundingBox"><feGaussianBlur in="SourceGraphic" result="FeGaussianBlur1063Out" stdDeviation="50 50"/></filter><clipPath id="t6yqa"><path d="M0 0h1920v560H0z"/></clipPath></defs><g><g><g><path fill="#050447" d="M0 0h1920v560H0z"/></g><g clip-path="url(#t6yqa)" filter="url(#t6yqb)" opacity=".2"><path fill="url(#t6yqc)" d="M1080 373c166.79 0 302-135.21 302-302s-135.21-302-302-302S778-95.79 778 71s135.21 302 302 302z"/></g><g clip-path="url(#t6yqa)" filter="url(#t6yqd)" opacity=".3"><path fill="url(#t6yqe)" d="M1080 202c90.575 0 164-73.425 164-164s-73.425-164-164-164S916-52.575 916 38s73.425 164 164 164z"/></g><g clip-path="url(#t6yqa)" filter="url(#t6yqf)" opacity=".2"><path fill="url(#t6yqg)" d="M452 864c104.382 0 189-84.618 189-189s-84.618-189-189-189-189 84.618-189 189 84.618 189 189 189z"/></g><g clip-path="url(#t6yqa)" filter="url(#t6yqh)" opacity=".5"><path fill="#0fb6e9" d="M1843.19 906.07c150.774 0 273-118.197 273-264s-122.226-264-273-264-273 118.197-273 264 122.226 264 273 264z"/></g><g clip-path="url(#t6yqa)" filter="url(#t6yqi)" opacity=".5"><path fill="#0fb6e9" d="M1862.19 724.07c70.692 0 128-55.517 128-124s-57.308-124-128-124c-70.692 0-128 55.517-128 124s57.308 124 128 124z"/></g><g/></g></g></svg>