<svg xmlns="http://www.w3.org/2000/svg" width="320" height="550" viewBox="0 0 320 550"><defs><radialGradient id="m75vc" cx="159.14" cy="237.28" r="650.54" gradientUnits="userSpaceOnUse"><stop offset="0" stop-color="#4600d1"/><stop offset=".5" stop-color="#ac0cc5"/><stop offset="1" stop-color="#fff"/></radialGradient><filter id="m75vb" width="172%" height="172%" x="-26%" y="-26%" filterUnits="objectBoundingBox"><feGaussianBlur in="SourceGraphic" result="FeGaussianBlur1963Out" stdDeviation="50 50"/></filter><radialGradient id="m75ve" cx="295.7" cy="128.3" r="353.27" gradientUnits="userSpaceOnUse"><stop offset="0" stop-color="#4600d1"/><stop offset=".5" stop-color="#ac0cc5"/><stop offset="1" stop-color="#fff"/></radialGradient><filter id="m75vd" width="200%" height="200%" x="-40%" y="-40%" filterUnits="objectBoundingBox"><feGaussianBlur in="SourceGraphic" result="FeGaussianBlur1974Out" stdDeviation="50 50"/></filter><radialGradient id="m75vg" cx="-60.04" cy="719.06" r="407.12" gradientUnits="userSpaceOnUse"><stop offset="0" stop-color="#4600d1"/><stop offset=".5" stop-color="#ac0cc5"/><stop offset="1" stop-color="#fff"/></radialGradient><filter id="m75vf" width="192%" height="192%" x="-36%" y="-36%" filterUnits="objectBoundingBox"><feGaussianBlur in="SourceGraphic" result="FeGaussianBlur1985Out" stdDeviation="50 50"/></filter><filter id="m75vh" width="176%" height="176%" x="-28%" y="-28%" filterUnits="objectBoundingBox"><feGaussianBlur in="SourceGraphic" result="FeGaussianBlur1992Out" stdDeviation="50 50"/></filter><filter id="m75vi" width="216%" height="220%" x="-48%" y="-50%" filterUnits="objectBoundingBox"><feGaussianBlur in="SourceGraphic" result="FeGaussianBlur1999Out" stdDeviation="50 50"/></filter><clipPath id="m75va"><path d="M0 0h320v550H0z"/></clipPath></defs><g><g><g><path fill="#050447" d="M0 0h320v550H0z"/></g><g clip-path="url(#m75va)"><g filter="url(#m75vb)" opacity=".2"><path fill="url(#m75vc)" d="M458 373c166.79 0 302-135.21 302-302S624.79-231 458-231 156-95.79 156 71s135.21 302 302 302z"/></g><g filter="url(#m75vd)" opacity=".3"><path fill="url(#m75ve)" d="M458 202c90.575 0 164-73.425 164-164s-73.425-164-164-164S294-52.575 294 38s73.425 164 164 164z"/></g></g><g clip-path="url(#m75va)" filter="url(#m75vf)" opacity=".2"><path fill="url(#m75vg)" d="M127 804c104.382 0 189-84.618 189-189s-84.618-189-189-189-189 84.618-189 189 84.618 189 189 189z"/></g><g clip-path="url(#m75va)" filter="url(#m75vh)" opacity=".5"><path fill="#0fb6e9" d="M1518.19 906.07c150.774 0 273-118.197 273-264s-122.226-264-273-264-273 118.197-273 264 122.226 264 273 264z"/></g><g clip-path="url(#m75va)" filter="url(#m75vi)" opacity=".5"><path fill="#0fb6e9" d="M1537.19 724.07c70.692 0 128-55.517 128-124s-57.308-124-128-124c-70.692 0-128 55.517-128 124s57.308 124 128 124z"/></g><g/></g></g></svg>