<svg xmlns="http://www.w3.org/2000/svg" width="280" height="2317" viewBox="0 0 280 2317"><defs><radialGradient id="pzq7a" cx="280" cy="0" r="1510.11" gradientUnits="userSpaceOnUse"><stop offset="0" stop-color="#4b50d1"/><stop offset=".58" stop-color="#050447"/><stop offset="1" stop-color="#050447"/></radialGradient></defs><g><g><path fill="url(#pzq7a)" d="M0 10C0 4.477 4.477 0 10 0h260c5.523 0 10 4.477 10 10v2297c0 5.523-4.477 10-10 10H10c-5.523 0-10-4.477-10-10z"/><path fill="#0e0d57" fill-opacity=".6" d="M0 10C0 4.477 4.477 0 10 0h260c5.523 0 10 4.477 10 10v2297c0 5.523-4.477 10-10 10H10c-5.523 0-10-4.477-10-10z"/></g></g></svg>