<svg xmlns="http://www.w3.org/2000/svg" width="1230" height="1473" viewBox="0 0 1230 1473"><defs><radialGradient id="avo6a" cx="1230" cy="0" r="1278.86" gradientUnits="userSpaceOnUse"><stop offset="0" stop-color="#4b50d1"/><stop offset=".58" stop-color="#050447"/><stop offset="1" stop-color="#050447"/></radialGradient><filter id="avo6c" width="216%" height="216%" x="-48%" y="-48%" filterUnits="objectBoundingBox"><feGaussianBlur in="SourceGraphic" result="FeGaussianBlur3711Out" stdDeviation="94.21016949152543 94.21016949152543"/></filter><radialGradient id="avo6e" cx="409.14" cy="64.28" r="650.54" gradientUnits="userSpaceOnUse"><stop offset="0" stop-color="#4600d1"/><stop offset=".5" stop-color="#ac0cc5"/><stop offset="1" stop-color="#fff"/></radialGradient><filter id="avo6d" width="172%" height="172%" x="-26%" y="-26%" filterUnits="objectBoundingBox"><feGaussianBlur in="SourceGraphic" result="FeGaussianBlur3722Out" stdDeviation="50 50"/></filter><radialGradient id="avo6g" cx="545.7" cy="-44.7" r="353.27" gradientUnits="userSpaceOnUse"><stop offset="0" stop-color="#4600d1"/><stop offset=".5" stop-color="#ac0cc5"/><stop offset="1" stop-color="#fff"/></radialGradient><filter id="avo6f" width="200%" height="200%" x="-40%" y="-40%" filterUnits="objectBoundingBox"><feGaussianBlur in="SourceGraphic" result="FeGaussianBlur3733Out" stdDeviation="50 50"/></filter><filter id="avo6h" width="216%" height="216%" x="-48%" y="-48%" filterUnits="objectBoundingBox"><feGaussianBlur in="SourceGraphic" result="FeGaussianBlur3744Out" stdDeviation="94.21016949152543 94.21016949152543"/></filter><clipPath id="avo6b"><path d="M0 10C0 4.477 4.477 0 10 0h1210c5.523 0 10 4.477 10 10v1453c0 5.523-4.477 10-10 10H10c-5.523 0-10-4.477-10-10z"/></clipPath></defs><g><g><g><path fill="url(#avo6a)" d="M0 10C0 4.477 4.477 0 10 0h1210c5.523 0 10 4.477 10 10v1453c0 5.523-4.477 10-10 10H10c-5.523 0-10-4.477-10-10z"/><path fill="#0e0d57" fill-opacity=".6" d="M0 10C0 4.477 4.477 0 10 0h1210c5.523 0 10 4.477 10 10v1453c0 5.523-4.477 10-10 10H10c-5.523 0-10-4.477-10-10z"/></g><g clip-path="url(#avo6b)" filter="url(#avo6c)" opacity=".2"><path fill="#0fbce7" d="M1231 817c139.728 0 253-113.272 253-253s-113.272-253-253-253-253 113.272-253 253 113.272 253 253 253z"/></g><g clip-path="url(#avo6b)" filter="url(#avo6d)" opacity=".2"><path fill="url(#avo6e)" d="M708 200c166.79 0 302-135.21 302-302S874.79-404 708-404 406-268.79 406-102s135.21 302 302 302z"/></g><g clip-path="url(#avo6b)" filter="url(#avo6f)" opacity=".5"><path fill="url(#avo6g)" d="M708 29c90.575 0 164-73.425 164-164s-73.425-164-164-164-164 73.425-164 164S617.425 29 708 29z"/></g><g clip-path="url(#avo6b)"/><g clip-path="url(#avo6b)" filter="url(#avo6h)" opacity=".3"><path fill="#0fbce7" d="M-93 238c139.176 0 252-112.824 252-252S46.176-266-93-266-345-153.176-345-14s112.824 252 252 252z"/></g></g></g></svg>