<svg xmlns="http://www.w3.org/2000/svg" width="708" height="1727" viewBox="0 0 708 1727"><defs><radialGradient id="2skia" cx="708" cy="0" r="1219.63" gradientUnits="userSpaceOnUse"><stop offset="0" stop-color="#4b50d1"/><stop offset=".58" stop-color="#050447"/><stop offset="1" stop-color="#050447"/></radialGradient><filter id="2skic" width="216%" height="216%" x="-48%" y="-48%" filterUnits="objectBoundingBox"><feGaussianBlur in="SourceGraphic" result="FeGaussianBlur2144Out" stdDeviation="94.21016949152543 94.21016949152543"/></filter><radialGradient id="2skie" cx="79.14" cy="46.28" r="650.54" gradientUnits="userSpaceOnUse"><stop offset="0" stop-color="#4600d1"/><stop offset=".5" stop-color="#ac0cc5"/><stop offset="1" stop-color="#fff"/></radialGradient><filter id="2skid" width="172%" height="172%" x="-26%" y="-26%" filterUnits="objectBoundingBox"><feGaussianBlur in="SourceGraphic" result="FeGaussianBlur2155Out" stdDeviation="50 50"/></filter><radialGradient id="2skig" cx="215.7" cy="-62.7" r="353.27" gradientUnits="userSpaceOnUse"><stop offset="0" stop-color="#4600d1"/><stop offset=".5" stop-color="#ac0cc5"/><stop offset="1" stop-color="#fff"/></radialGradient><filter id="2skif" width="200%" height="200%" x="-40%" y="-40%" filterUnits="objectBoundingBox"><feGaussianBlur in="SourceGraphic" result="FeGaussianBlur2166Out" stdDeviation="50 50"/></filter><clipPath id="2skib"><path d="M0 10C0 4.477 4.477 0 10 0h688c5.523 0 10 4.477 10 10v1707c0 5.523-4.477 10-10 10H10c-5.523 0-10-4.477-10-10z"/></clipPath></defs><g><g><g><path fill="url(#2skia)" d="M0 10C0 4.477 4.477 0 10 0h688c5.523 0 10 4.477 10 10v1707c0 5.523-4.477 10-10 10H10c-5.523 0-10-4.477-10-10z"/><path fill="#0e0d57" fill-opacity=".6" d="M0 10C0 4.477 4.477 0 10 0h688c5.523 0 10 4.477 10 10v1707c0 5.523-4.477 10-10 10H10c-5.523 0-10-4.477-10-10z"/></g><g clip-path="url(#2skib)" filter="url(#2skic)" opacity=".2"><path fill="#0fbce7" d="M1231 817c139.728 0 253-113.272 253-253s-113.272-253-253-253-253 113.272-253 253 113.272 253 253 253z"/></g><g clip-path="url(#2skib)" filter="url(#2skid)" opacity=".2"><path fill="url(#2skie)" d="M378 182c166.79 0 302-135.21 302-302S544.79-422 378-422 76-286.79 76-120s135.21 302 302 302z"/></g><g clip-path="url(#2skib)" filter="url(#2skif)" opacity=".5"><path fill="url(#2skig)" d="M378 11c90.575 0 164-73.425 164-164s-73.425-164-164-164-164 73.425-164 164S287.425 11 378 11z"/></g><g clip-path="url(#2skib)"/></g></g></svg>