<svg xmlns="http://www.w3.org/2000/svg" width="450" height="380" viewBox="0 0 450 380"><defs><radialGradient id="4g5ga" cx="450" cy="0" r="588.98" gradientUnits="userSpaceOnUse"><stop offset="0" stop-color="#4b50d1"/><stop offset=".58" stop-color="#050447"/><stop offset="1" stop-color="#050447"/></radialGradient><filter id="4g5gc" width="176%" height="176%" x="-28%" y="-28%" filterUnits="objectBoundingBox"><feGaussianBlur in="SourceGraphic" result="FeGaussianBlur3610Out" stdDeviation="40 40"/></filter><filter id="4g5gd" width="176%" height="176%" x="-28%" y="-28%" filterUnits="objectBoundingBox"><feGaussianBlur in="SourceGraphic" result="FeGaussianBlur3617Out" stdDeviation="40 40"/></filter><clipPath id="4g5gb"><path d="M0 10C0 4.477 4.477 0 10 0h430c5.523 0 10 4.477 10 10v360c0 5.523-4.477 10-10 10H10c-5.523 0-10-4.477-10-10z"/></clipPath><clipPath id="4g5ge"><path d="M0 10C0 4.477 4.477 0 10 0h430c5.523 0 10 4.477 10 10v360c0 5.523-4.477 10-10 10H10c-5.523 0-10-4.477-10-10z"/></clipPath></defs><g><g><g><path fill="url(#4g5ga)" d="M0 10C0 4.477 4.477 0 10 0h430c5.523 0 10 4.477 10 10v360c0 5.523-4.477 10-10 10H10c-5.523 0-10-4.477-10-10z"/><path fill="#0e0d57" fill-opacity=".6" d="M0 10C0 4.477 4.477 0 10 0h430c5.523 0 10 4.477 10 10v360c0 5.523-4.477 10-10 10H10c-5.523 0-10-4.477-10-10z"/></g><g clip-path="url(#4g5gb)" filter="url(#4g5gc)" opacity=".3"><path fill="#fff" d="M618.5 201C735.86 201 831 105.86 831-11.5S735.86-224 618.5-224 406-128.86 406-11.5 501.14 201 618.5 201z"/></g><g clip-path="url(#4g5gb)" filter="url(#4g5gd)" opacity=".3"><path fill="#10e2ce" d="M49.5 674C166.86 674 262 578.86 262 461.5S166.86 249 49.5 249-163 344.14-163 461.5-67.86 674 49.5 674z"/></g><g/><g clip-path="url(#4g5ge)"><g><g><g><path fill="#fff" d="M1047.999 161.33H928.71v191.644h119.289a7.333 7.333 0 0 0 7.333-7.333V168.663a7.334 7.334 0 0 0-7.333-7.333z"/></g></g><g><g><g><path fill="#eac420" d="M983.176 310.232c29.827 0 54.006-24.179 54.006-54.006s-24.179-54.006-54.006-54.006-54.006 24.18-54.006 54.006c0 29.827 24.18 54.006 54.006 54.006z"/></g><g><path fill="#fedb41" d="M983.182 299.125c23.695 0 42.903-19.208 42.903-42.903 0-23.694-19.208-42.902-42.903-42.902-23.694 0-42.902 19.208-42.902 42.902 0 23.695 19.208 42.903 42.902 42.903z"/></g><g><path fill="#ffe571" d="M985.382 218.025c-21.097-1.217-39.19 14.898-40.407 35.999-1.218 21.1 14.902 39.19 35.999 40.407z"/></g></g></g><g><path fill="#5bd5f0" d="M993.621 133.385a7.332 7.332 0 0 0-6.606-1.009l-88 29.334a7.334 7.334 0 0 0-5.015 6.957v176.977a7.333 7.333 0 0 0 5.015 6.957l88 29.334a7.334 7.334 0 0 0 9.652-6.957V139.333a7.334 7.334 0 0 0-3.046-5.948z"/></g><g><path fill="#39a9e6" d="M960.003 264.487a7.334 7.334 0 1 1 0-14.667 7.334 7.334 0 0 1 0 14.667z"/></g><g transform="rotate(30 1066.5 274)"><path fill="#5bd5f0" d="M1106.663 247.157h-36.666v-7.334a7.333 7.333 0 0 0-11.401-6.102l-44 29.334a7.334 7.334 0 0 0 0 12.203l44 29.334a7.333 7.333 0 0 0 11.4-6.102v-7.333h36.667a7.334 7.334 0 0 0 7.334-7.334V254.49a7.334 7.334 0 0 0-7.334-7.333z"/></g></g><g><g transform="rotate(-45 1136 116)"><path fill="#5bd5f0" d="M1161.214 104.6h-23.928v-4.8c0-1.77-.972-3.397-2.528-4.232a4.774 4.774 0 0 0-4.912.238l-28.715 19.2A4.804 4.804 0 0 0 1099 119c0 1.605.8 3.104 2.131 3.994l28.715 19.2a4.773 4.773 0 0 0 4.912.238 4.802 4.802 0 0 0 2.528-4.232v-4.8h23.928a4.793 4.793 0 0 0 4.786-4.8v-19.2c0-2.65-2.143-4.8-4.786-4.8z"/></g><g/></g><g><g transform="rotate(45 829 169)"><path fill="#5bd5f0" d="M812.326 162.321h15.582v-3.125c0-1.153.632-2.212 1.645-2.756a3.109 3.109 0 0 1 3.2.155l18.697 12.502a3.128 3.128 0 0 1 0 5.202L832.752 186.8a3.108 3.108 0 0 1-3.199.155 3.127 3.127 0 0 1-1.645-2.756v-3.125h-15.582a3.121 3.121 0 0 1-3.116-3.126v-12.502a3.121 3.121 0 0 1 3.116-3.126z"/></g><g/></g></g></g></g></svg>