<?xml version="1.0" encoding="UTF-8"?>
<svg width="268px" height="90px" viewBox="0 0 268 90" version="1.1" xmlns="http://www.w3.org/2000/svg" xmlns:xlink="http://www.w3.org/1999/xlink">
    <title>1BD1CD43-5DAF-47FB-AEA5-F5A1B4FB6C4C</title>
    <defs>
        <radialGradient cx="-4.2045617%" cy="91.6354697%" fx="-4.2045617%" fy="91.6354697%" r="318.97976%" gradientTransform="translate(-0.042046,0.916355),scale(0.335821,1.000000),rotate(-13.398286),translate(0.042046,-0.916355)" id="radialGradient-1">
            <stop stop-color="#EDEDED" offset="0%"></stop>
            <stop stop-color="#FAFAFA" offset="100%"></stop>
        </radialGradient>
        <path d="M4,0 L254.791314,0 C256.666108,1.29768226e-14 258.289362,1.30212795 258.696062,3.13227817 L268,45 L268,45 L258.696062,86.8677218 C258.289362,88.6978721 256.666108,90 254.791314,90 L4,90 C1.790861,90 2.705415e-16,88.209139 0,86 L0,4 C-2.705415e-16,1.790861 1.790861,4.05812251e-16 4,0 Z" id="path-2"></path>
        <filter x="-88.8%" y="-88.8%" width="277.5%" height="277.5%" filterUnits="objectBoundingBox" id="filter-4">
            <feGaussianBlur stdDeviation="50" in="SourceGraphic"></feGaussianBlur>
        </filter>
    </defs>
    <g id="Окна" stroke="none" stroke-width="1" fill="none" fill-rule="evenodd">
        <g id="НГР-Групп-1920" transform="translate(-907.000000, -393.000000)">
            <g id="3" transform="translate(345.000000, 207.000000)">
                <g id="Фон" transform="translate(562.000000, 186.000000)">
                    <mask id="mask-3" fill="white">
                        <use xlink:href="#path-2"></use>
                    </mask>
                    <use id="Rectangle" fill="url(#radialGradient-1)" opacity="0.699999988" xlink:href="#path-2"></use>
                    <circle id="Oval" fill="#FFFFFF" filter="url(#filter-4)" mask="url(#mask-3)" cx="77.5" cy="108.5" r="84.5"></circle>
                    <path d="M4,0 L234.791314,0 C236.666108,2.36349637e-14 238.289362,1.30212795 238.696062,3.13227817 L248,45 L248,45 L238.696062,86.8677218 C238.289362,88.6978721 236.666108,90 234.791314,90 L4,90 C1.790861,90 -1.73547709e-16,88.209139 0,86 L0,4 C-7.1463071e-16,1.790861 1.790861,-3.82769592e-17 4,0 Z" id="Rectangle" mask="url(#mask-3)"></path>
                </g>
            </g>
        </g>
    </g>
</svg>