<svg xmlns="http://www.w3.org/2000/svg" width="345" height="90" viewBox="0 0 345 90"><defs><radialGradient id="t29la" cx="-15.55" cy="82.47" r="366.63" gradientUnits="userSpaceOnUse"><stop offset="0" stop-color="#ededed"/><stop offset="1" stop-color="#fafafa"/></radialGradient><filter id="t29lc" width="260%" height="260%" x="-70%" y="-70%" filterUnits="objectBoundingBox"><feGaussianBlur in="SourceGraphic" result="FeGaussianBlur3886Out" stdDeviation="50 50"/></filter><clipPath id="t29lb"><path d="M.082 4.868A4 4 0 0 1 3.986 0H341a4 4 0 0 1 4 4v82a4 4 0 0 1-4 4H3.986a4 4 0 0 1-3.904-4.868L9 45z"/></clipPath></defs><g><g><g opacity=".7"><path fill="url(#t29la)" d="M.082 4.868A4 4 0 0 1 3.986 0H341a4 4 0 0 1 4 4v82a4 4 0 0 1-4 4H3.986a4 4 0 0 1-3.904-4.868L9 45z"/></g><g clip-path="url(#t29lb)" filter="url(#t29lc)"><path fill="#fff" d="M86.5 193c46.668 0 84.5-37.832 84.5-84.5S133.168 24 86.5 24 2 61.832 2 108.5 39.832 193 86.5 193z"/></g><g clip-path="url(#t29lb)"/></g></g></svg>