<svg xmlns="http://www.w3.org/2000/svg" width="268" height="90" viewBox="0 0 268 90"><defs><radialGradient id="7mgoa" cx="-11.27" cy="82.47" r="287.08" gradientUnits="userSpaceOnUse"><stop offset="0" stop-color="#ededed"/><stop offset="1" stop-color="#fafafa"/></radialGradient><filter id="7mgoc" width="260%" height="260%" x="-70%" y="-70%" filterUnits="objectBoundingBox"><feGaussianBlur in="SourceGraphic" result="FeGaussianBlur3911Out" stdDeviation="50 50"/></filter><clipPath id="7mgob"><path d="M0 4a4 4 0 0 1 4-4h250.791a4 4 0 0 1 3.905 3.132L268 45l-9.304 41.868A4 4 0 0 1 254.791 90H4a4 4 0 0 1-4-4z"/></clipPath></defs><g><g><g opacity=".7"><path fill="url(#7mgoa)" d="M0 4a4 4 0 0 1 4-4h250.791a4 4 0 0 1 3.905 3.132L268 45l-9.304 41.868A4 4 0 0 1 254.791 90H4a4 4 0 0 1-4-4z"/></g><g clip-path="url(#7mgob)" filter="url(#7mgoc)"><path fill="#fff" d="M77.5 193c46.668 0 84.5-37.832 84.5-84.5S124.168 24 77.5 24-7 61.832-7 108.5 30.832 193 77.5 193z"/></g><g clip-path="url(#7mgob)"/></g></g></svg>