<svg xmlns="http://www.w3.org/2000/svg" width="268" height="90" viewBox="0 0 268 90"><defs><radialGradient id="72t4a" cx="147.56" cy="200.81" r="287.08" gradientUnits="userSpaceOnUse"><stop offset="0" stop-color="#ededed"/><stop offset="1" stop-color="#fafafa"/></radialGradient><filter id="72t4c" width="260%" height="260%" x="-70%" y="-70%" filterUnits="objectBoundingBox"><feGaussianBlur in="SourceGraphic" result="FeGaussianBlur3936Out" stdDeviation="50 50"/></filter><clipPath id="72t4b"><path d="M0 4a4 4 0 0 1 4-4h260a4 4 0 0 1 4 4v82a4 4 0 0 1-4 4H4a4 4 0 0 1-4-4z"/></clipPath></defs><g><g><g opacity=".7"><path fill="url(#72t4a)" d="M0 4a4 4 0 0 1 4-4h260a4 4 0 0 1 4 4v82a4 4 0 0 1-4 4H4a4 4 0 0 1-4-4z"/></g><g clip-path="url(#72t4b)" filter="url(#72t4c)" opacity=".8"><path fill="#fff" d="M218.5 61c46.668 0 84.5-37.832 84.5-84.5S265.168-108 218.5-108 134-70.168 134-23.5 171.832 61 218.5 61z"/></g><g clip-path="url(#72t4b)"/></g></g></svg>