<svg xmlns="http://www.w3.org/2000/svg" width="600" height="300" viewBox="0 0 600 300"><defs><radialGradient id="j2wka" cx="-25.23" cy="274.91" r="663.38" gradientUnits="userSpaceOnUse"><stop offset="0" stop-color="#ededed"/><stop offset="1" stop-color="#fafafa"/></radialGradient><filter id="j2wkc" width="216%" height="216%" x="-48%" y="-48%" filterUnits="objectBoundingBox"><feGaussianBlur in="SourceGraphic" result="FeGaussianBlur2607Out" stdDeviation="40 40"/></filter><filter id="j2wkd" width="216%" height="216%" x="-48%" y="-48%" filterUnits="objectBoundingBox"><feGaussianBlur in="SourceGraphic" result="FeGaussianBlur2614Out" stdDeviation="40 40"/></filter><clipPath id="j2wke"><path fill="#fff" d="M686.5 45.51a3.5 3.5 0 1 0 0-7 3.5 3.5 0 0 0 0 7z"/></clipPath><clipPath id="j2wkf"><path fill="#fff" d="M516.5 203.51a3.5 3.5 0 1 0 0-7 3.5 3.5 0 0 0 0 7z"/></clipPath><clipPath id="j2wkg"><path fill="#fff" d="M564.5 229.51a3.5 3.5 0 1 0 0-7 3.5 3.5 0 0 0 0 7z"/></clipPath><clipPath id="j2wkh"><path fill="#fff" d="M865.5 131.51a3.5 3.5 0 1 0 0-7 3.5 3.5 0 0 0 0 7z"/></clipPath><clipPath id="j2wki"><path fill="#fff" d="M461.5 276.51a3.5 3.5 0 1 0 0-7 3.5 3.5 0 0 0 0 7z"/></clipPath><clipPath id="j2wkj"><path fill="#fff" d="M411.5 247.51a3.5 3.5 0 1 0 0-7 3.5 3.5 0 0 0 0 7z"/></clipPath><clipPath id="j2wkk"><path fill="#fff" d="M377.5 290.51a3.5 3.5 0 1 0 0-7 3.5 3.5 0 0 0 0 7z"/></clipPath><clipPath id="j2wkl"><path fill="#fff" d="M164.5 291a3.5 3.5 0 1 0 0-7 3.5 3.5 0 0 0 0 7z"/></clipPath><clipPath id="j2wkm"><path fill="#fff" d="M85.5 228a3.5 3.5 0 1 0 0-7 3.5 3.5 0 0 0 0 7z"/></clipPath><clipPath id="j2wkb"><path d="M0 10C0 4.477 4.477 0 10 0h580c5.523 0 10 4.477 10 10v280c0 5.523-4.477 10-10 10H10c-5.523 0-10-4.477-10-10z"/></clipPath></defs><g><g><g opacity=".7"><path fill="url(#j2wka)" d="M0 10C0 4.477 4.477 0 10 0h580c5.523 0 10 4.477 10 10v280c0 5.523-4.477 10-10 10H10c-5.523 0-10-4.477-10-10z"/></g><g clip-path="url(#j2wkb)" filter="url(#j2wkc)" opacity=".2"><path fill="#0fbce7" d="M145.5 425c59.37 0 107.5-48.13 107.5-107.5S204.87 210 145.5 210 38 258.13 38 317.5 86.13 425 145.5 425z"/></g><g clip-path="url(#j2wkb)" filter="url(#j2wkd)" opacity=".3"><path fill="#0fbce7" d="M539.5 78c59.094 0 107-47.906 107-107s-47.906-107-107-107-107 47.906-107 107 47.906 107 107 107z"/></g><g clip-path="url(#j2wkb)"/><g clip-path="url(#j2wkb)"><g><path fill="none" stroke="#11dadc" stroke-miterlimit="20" stroke-width="2" d="M686.5 45.51a3.5 3.5 0 1 0 0-7 3.5 3.5 0 0 0 0 7z" clip-path="url(&quot;#j2wke&quot;)"/></g><g><path fill="none" stroke="#11dadc" stroke-miterlimit="20" stroke-width="2" d="M516.5 203.51a3.5 3.5 0 1 0 0-7 3.5 3.5 0 0 0 0 7z" clip-path="url(&quot;#j2wkf&quot;)"/></g><g><path fill="none" stroke="#cf44fb" stroke-miterlimit="20" stroke-width="2" d="M564.5 229.51a3.5 3.5 0 1 0 0-7 3.5 3.5 0 0 0 0 7z" clip-path="url(&quot;#j2wkg&quot;)"/></g><g><path fill="none" stroke="#cf44fb" stroke-miterlimit="20" stroke-width="2" d="M865.5 131.51a3.5 3.5 0 1 0 0-7 3.5 3.5 0 0 0 0 7z" clip-path="url(&quot;#j2wkh&quot;)"/></g><g><path fill="none" stroke="#cf44fb" stroke-miterlimit="20" stroke-width="2" d="M461.5 276.51a3.5 3.5 0 1 0 0-7 3.5 3.5 0 0 0 0 7z" clip-path="url(&quot;#j2wki&quot;)"/></g><g><path fill="none" stroke="#11dadc" stroke-miterlimit="20" stroke-width="2" d="M411.5 247.51a3.5 3.5 0 1 0 0-7 3.5 3.5 0 0 0 0 7z" clip-path="url(&quot;#j2wkj&quot;)"/></g><g><path fill="none" stroke="#9d9dc5" stroke-miterlimit="20" stroke-width="2" d="M377.5 290.51a3.5 3.5 0 1 0 0-7 3.5 3.5 0 0 0 0 7z" clip-path="url(&quot;#j2wkk&quot;)"/></g><g><path fill="none" stroke="#9d9dc5" stroke-miterlimit="20" stroke-width="2" d="M164.5 291a3.5 3.5 0 1 0 0-7 3.5 3.5 0 0 0 0 7z" clip-path="url(&quot;#j2wkl&quot;)"/></g><g><path fill="none" stroke="#9d9dc5" stroke-miterlimit="20" stroke-width="2" d="M85.5 228a3.5 3.5 0 1 0 0-7 3.5 3.5 0 0 0 0 7z" clip-path="url(&quot;#j2wkm&quot;)"/></g><g opacity=".3"><path fill="none" stroke="#5f5f5f" stroke-miterlimit="20" stroke-width=".5" d="M870.93 122.451L1066.001-148"/></g><g opacity=".3"><path fill="none" stroke="#5f5f5f" stroke-miterlimit="20" stroke-width=".5" d="M858.322 124.51l-165.422-79"/></g><g opacity=".3"><path fill="none" stroke="#5f5f5f" stroke-miterlimit="20" stroke-width=".5" d="M568 219.706L682 49.36"/></g><g opacity=".3"><path fill="none" stroke="#5f5f5f" stroke-miterlimit="20" stroke-width=".5" d="M522.57 204.91l34.896 18.089"/></g><g opacity=".3"><path fill="none" stroke="#5f5f5f" stroke-miterlimit="20" stroke-width=".5" d="M513 205.91l-47 61.096"/></g><g opacity=".3"><path fill="none" stroke="#5f5f5f" stroke-miterlimit="20" stroke-width=".5" d="M454.91 269.51l-36.91-21"/></g><g opacity=".3"><path fill="none" stroke="#5f5f5f" stroke-miterlimit="20" stroke-width=".5" d="M383.34 280.885l23.664-31.695"/></g><g opacity=".3"><path fill="none" stroke="#5f5f5f" stroke-miterlimit="20" stroke-width=".5" d="M172.5 287.51h197.261"/></g><g opacity=".3"><path fill="none" stroke="#5f5f5f" stroke-miterlimit="20" stroke-width=".5" d="M85.72 230v57.51h71.043v0"/></g></g></g></g></svg>