<svg xmlns="http://www.w3.org/2000/svg" width="708" height="280" viewBox="0 0 708 280"><defs><radialGradient id="rhvha" cx="-29.77" cy="256.58" r="766.25" gradientUnits="userSpaceOnUse"><stop offset="0" stop-color="#ededed"/><stop offset="1" stop-color="#fafafa"/></radialGradient><filter id="rhvhc" width="216%" height="216%" x="-48%" y="-48%" filterUnits="objectBoundingBox"><feGaussianBlur in="SourceGraphic" result="FeGaussianBlur1026Out" stdDeviation="40 40"/></filter><filter id="rhvhd" width="216%" height="216%" x="-48%" y="-48%" filterUnits="objectBoundingBox"><feGaussianBlur in="SourceGraphic" result="FeGaussianBlur1033Out" stdDeviation="40 40"/></filter><clipPath id="rhvhe"><path fill="#fff" d="M569 208v-16h15v16zm7.5-4.49a3.5 3.5 0 1 0 0-7 3.5 3.5 0 0 0 0 7z"/></clipPath><clipPath id="rhvhf"><path fill="#fff" d="M576.5 203.51a3.5 3.5 0 1 0 0-7 3.5 3.5 0 0 0 0 7z"/></clipPath><clipPath id="rhvhg"><path fill="#fff" d="M617 234v-16h15v16zm7.5-4.49a3.5 3.5 0 1 0 0-7 3.5 3.5 0 0 0 0 7z"/></clipPath><clipPath id="rhvhh"><path fill="#fff" d="M624.5 229.51a3.5 3.5 0 1 0 0-7 3.5 3.5 0 0 0 0 7z"/></clipPath><clipPath id="rhvhi"><path fill="#fff" d="M516 280v-16h15v16zm7.5-4.49a3.5 3.5 0 1 0 0-7 3.5 3.5 0 0 0 0 7z"/></clipPath><clipPath id="rhvhj"><path fill="#fff" d="M523.5 275.51a3.5 3.5 0 1 0 0-7 3.5 3.5 0 0 0 0 7z"/></clipPath><clipPath id="rhvhk"><path fill="#fff" d="M464 252v-16h15v16zm7.5-4.49a3.5 3.5 0 1 0 0-7 3.5 3.5 0 0 0 0 7z"/></clipPath><clipPath id="rhvhl"><path fill="#fff" d="M471.5 247.51a3.5 3.5 0 1 0 0-7 3.5 3.5 0 0 0 0 7z"/></clipPath><clipPath id="rhvhm"><path fill="#fff" d="M80 232v-15h15v15zm7.5-4a3.5 3.5 0 1 0 0-7 3.5 3.5 0 0 0 0 7z"/></clipPath><clipPath id="rhvhn"><path fill="#fff" d="M87.5 228a3.5 3.5 0 1 0 0-7 3.5 3.5 0 0 0 0 7z"/></clipPath><clipPath id="rhvho"><path fill="#fff" d="M430 295v-16h15v16zm7.5-4.49a3.5 3.5 0 1 0 0-7 3.5 3.5 0 0 0 0 7z"/></clipPath><clipPath id="rhvhp"><path fill="#fff" d="M437.5 290.51a3.5 3.5 0 1 0 0-7 3.5 3.5 0 0 0 0 7z"/></clipPath><clipPath id="rhvhb"><path d="M0 10C0 4.477 4.477 0 10 0h688c5.523 0 10 4.477 10 10v260c0 5.523-4.477 10-10 10H10c-5.523 0-10-4.477-10-10z"/></clipPath></defs><g><g><g opacity=".7"><path fill="url(#rhvha)" d="M0 10C0 4.477 4.477 0 10 0h688c5.523 0 10 4.477 10 10v260c0 5.523-4.477 10-10 10H10c-5.523 0-10-4.477-10-10z"/></g><g clip-path="url(#rhvhb)" filter="url(#rhvhc)" opacity=".2"><path fill="#0fbce7" d="M522.5 420c59.37 0 107.5-48.13 107.5-107.5S581.87 205 522.5 205 415 253.13 415 312.5 463.13 420 522.5 420z"/></g><g clip-path="url(#rhvhb)" filter="url(#rhvhd)" opacity=".3"><path fill="#0fbce7" d="M-.5 199c59.094 0 107-47.906 107-107S58.594-15-.5-15s-107 47.906-107 107 47.906 107 107 107z"/></g><g clip-path="url(#rhvhb)"/><g clip-path="url(#rhvhb)"><g opacity=".3"><path fill="none" stroke="#5f5f5f" stroke-miterlimit="20" stroke-width=".5" d="M87.5 232.547v50.963l350.5 4v0l32.54-43.412v0L522 273.315v0l52.5-72.805v0l48.5 26.167v0L746.643 42.51v0l179.751 86v0L1081-85v0"/></g><g><path fill="#eef7f9" d="M576.5 203.51a3.5 3.5 0 1 0 0-7 3.5 3.5 0 0 0 0 7z"/><path fill="none" stroke="#eef7f9" stroke-miterlimit="20" stroke-width="8" d="M576.5 203.51a3.5 3.5 0 1 0 0-7 3.5 3.5 0 0 0 0 7z" clip-path="url(&quot;#rhvhe&quot;)"/><path fill="none" stroke="#11dadc" stroke-miterlimit="20" stroke-width="2" d="M576.5 203.51a3.5 3.5 0 1 0 0-7 3.5 3.5 0 0 0 0 7z" clip-path="url(&quot;#rhvhf&quot;)"/></g><g><path fill="#eef7fa" d="M624.5 229.51a3.5 3.5 0 1 0 0-7 3.5 3.5 0 0 0 0 7z"/><path fill="none" stroke="#eef7fa" stroke-miterlimit="20" stroke-width="8" d="M624.5 229.51a3.5 3.5 0 1 0 0-7 3.5 3.5 0 0 0 0 7z" clip-path="url(&quot;#rhvhg&quot;)"/><path fill="none" stroke="#cf44fb" stroke-miterlimit="20" stroke-width="2" d="M624.5 229.51a3.5 3.5 0 1 0 0-7 3.5 3.5 0 0 0 0 7z" clip-path="url(&quot;#rhvhh&quot;)"/></g><g><path fill="#050447" d="M523.5 275.51a3.5 3.5 0 1 0 0-7 3.5 3.5 0 0 0 0 7z"/><path fill="none" stroke="#110552" stroke-miterlimit="20" stroke-width="8" d="M523.5 275.51a3.5 3.5 0 1 0 0-7 3.5 3.5 0 0 0 0 7z" clip-path="url(&quot;#rhvhi&quot;)"/><path fill="none" stroke="#cf44fb" stroke-miterlimit="20" stroke-width="2" d="M523.5 275.51a3.5 3.5 0 1 0 0-7 3.5 3.5 0 0 0 0 7z" clip-path="url(&quot;#rhvhj&quot;)"/></g><g><path fill="#f8f8f8" d="M471.5 247.51a3.5 3.5 0 1 0 0-7 3.5 3.5 0 0 0 0 7z"/><path fill="none" stroke="#f8f8f8" stroke-miterlimit="20" stroke-width="8" d="M471.5 247.51a3.5 3.5 0 1 0 0-7 3.5 3.5 0 0 0 0 7z" clip-path="url(&quot;#rhvhk&quot;)"/><path fill="none" stroke="#11dadc" stroke-miterlimit="20" stroke-width="2" d="M471.5 247.51a3.5 3.5 0 1 0 0-7 3.5 3.5 0 0 0 0 7z" clip-path="url(&quot;#rhvhl&quot;)"/></g><g><path fill="#eef3f4" d="M87.5 228a3.5 3.5 0 1 0 0-7 3.5 3.5 0 0 0 0 7z"/><path fill="none" stroke="#eef3f4" stroke-miterlimit="20" stroke-width="8" d="M87.5 228a3.5 3.5 0 1 0 0-7 3.5 3.5 0 0 0 0 7z" clip-path="url(&quot;#rhvhm&quot;)"/><path fill="none" stroke="#9d9dc5" stroke-miterlimit="20" stroke-width="2" d="M87.5 228a3.5 3.5 0 1 0 0-7 3.5 3.5 0 0 0 0 7z" clip-path="url(&quot;#rhvhn&quot;)"/></g><g><path fill="#050447" d="M437.5 290.51a3.5 3.5 0 1 0 0-7 3.5 3.5 0 0 0 0 7z"/><path fill="none" stroke="#0b044d" stroke-miterlimit="20" stroke-width="8" d="M437.5 290.51a3.5 3.5 0 1 0 0-7 3.5 3.5 0 0 0 0 7z" clip-path="url(&quot;#rhvho&quot;)"/><path fill="none" stroke="#9d9dc5" stroke-miterlimit="20" stroke-width="2" d="M437.5 290.51a3.5 3.5 0 1 0 0-7 3.5 3.5 0 0 0 0 7z" clip-path="url(&quot;#rhvhp&quot;)"/></g></g></g></g></svg>