<svg xmlns="http://www.w3.org/2000/svg" width="268" height="70" viewBox="0 0 268 70"><defs><radialGradient id="2ic7a" cx="247.78" cy="-101.7" r="289.22" gradientUnits="userSpaceOnUse"><stop offset="0" stop-color="#abf0ff"/><stop offset=".35" stop-color="#10c0e6"/><stop offset="1" stop-color="#0071db"/></radialGradient><clipPath id="2ic7b"><path d="M0 4a4 4 0 0 1 4-4h260a4 4 0 0 1 4 4v62a4 4 0 0 1-4 4H4a4 4 0 0 1-4-4z"/></clipPath></defs><g><g><g opacity=".8"><path fill="url(#2ic7a)" d="M0 4a4 4 0 0 1 4-4h260a4 4 0 0 1 4 4v62a4 4 0 0 1-4 4H4a4 4 0 0 1-4-4z"/></g><g clip-path="url(#2ic7b)"/></g></g></svg>