<svg xmlns="http://www.w3.org/2000/svg" width="708" height="280" viewBox="0 0 708 280"><defs><radialGradient id="44qpa" cx="-29.77" cy="256.58" r="766.25" gradientUnits="userSpaceOnUse"><stop offset="0" stop-color="#ededed"/><stop offset="1" stop-color="#fafafa"/></radialGradient><filter id="44qpc" width="216%" height="216%" x="-48%" y="-48%" filterUnits="objectBoundingBox"><feGaussianBlur in="SourceGraphic" result="FeGaussianBlur1446Out" stdDeviation="40 40"/></filter><filter id="44qpd" width="216%" height="216%" x="-48%" y="-48%" filterUnits="objectBoundingBox"><feGaussianBlur in="SourceGraphic" result="FeGaussianBlur1453Out" stdDeviation="40 40"/></filter><clipPath id="44qpe"><path fill="#fff" d="M549 208v-16h15v16zm7.5-4.49a3.5 3.5 0 1 0 0-7 3.5 3.5 0 0 0 0 7z"/></clipPath><clipPath id="44qpf"><path fill="#fff" d="M556.5 203.51a3.5 3.5 0 1 0 0-7 3.5 3.5 0 0 0 0 7z"/></clipPath><clipPath id="44qpg"><path fill="#fff" d="M597 234v-16h15v16zm7.5-4.49a3.5 3.5 0 1 0 0-7 3.5 3.5 0 0 0 0 7z"/></clipPath><clipPath id="44qph"><path fill="#fff" d="M604.5 229.51a3.5 3.5 0 1 0 0-7 3.5 3.5 0 0 0 0 7z"/></clipPath><clipPath id="44qpi"><path fill="#fff" d="M496 280v-16h15v16zm7.5-4.49a3.5 3.5 0 1 0 0-7 3.5 3.5 0 0 0 0 7z"/></clipPath><clipPath id="44qpj"><path fill="#fff" d="M503.5 275.51a3.5 3.5 0 1 0 0-7 3.5 3.5 0 0 0 0 7z"/></clipPath><clipPath id="44qpk"><path fill="#fff" d="M444 252v-16h15v16zm7.5-4.49a3.5 3.5 0 1 0 0-7 3.5 3.5 0 0 0 0 7z"/></clipPath><clipPath id="44qpl"><path fill="#fff" d="M451.5 247.51a3.5 3.5 0 1 0 0-7 3.5 3.5 0 0 0 0 7z"/></clipPath><clipPath id="44qpm"><path fill="#fff" d="M80 232v-15h15v15zm7.5-4a3.5 3.5 0 1 0 0-7 3.5 3.5 0 0 0 0 7z"/></clipPath><clipPath id="44qpn"><path fill="#fff" d="M87.5 228a3.5 3.5 0 1 0 0-7 3.5 3.5 0 0 0 0 7z"/></clipPath><clipPath id="44qpo"><path fill="#fff" d="M410 295v-16h15v16zm7.5-4.49a3.5 3.5 0 1 0 0-7 3.5 3.5 0 0 0 0 7z"/></clipPath><clipPath id="44qpp"><path fill="#fff" d="M417.5 290.51a3.5 3.5 0 1 0 0-7 3.5 3.5 0 0 0 0 7z"/></clipPath><clipPath id="44qpb"><path d="M0 10C0 4.477 4.477 0 10 0h688c5.523 0 10 4.477 10 10v260c0 5.523-4.477 10-10 10H10c-5.523 0-10-4.477-10-10z"/></clipPath></defs><g><g><g opacity=".7"><path fill="url(#44qpa)" d="M0 10C0 4.477 4.477 0 10 0h688c5.523 0 10 4.477 10 10v260c0 5.523-4.477 10-10 10H10c-5.523 0-10-4.477-10-10z"/></g><g clip-path="url(#44qpb)" filter="url(#44qpc)" opacity=".2"><path fill="#0fbce7" d="M522.5 420c59.37 0 107.5-48.13 107.5-107.5S581.87 205 522.5 205 415 253.13 415 312.5 463.13 420 522.5 420z"/></g><g clip-path="url(#44qpb)" filter="url(#44qpd)" opacity=".3"><path fill="#0fbce7" d="M-.5 199c59.094 0 107-47.906 107-107S58.594-15-.5-15s-107 47.906-107 107 47.906 107 107 107z"/></g><g clip-path="url(#44qpb)"/><g clip-path="url(#44qpb)"><g opacity=".3"><path fill="none" stroke="#5f5f5f" stroke-miterlimit="20" stroke-width=".5" d="M87.5 232.547v50.963l330.5 4v0l32.54-43.412v0L502 273.315v0l52.5-72.805v0l48.5 26.167v0L726.643 42.51v0l179.751 86v0L1061-85v0"/></g><g><path fill="#e1f4f8" d="M556.5 203.51a3.5 3.5 0 1 0 0-7 3.5 3.5 0 0 0 0 7z"/><path fill="none" stroke="#e1f4f8" stroke-miterlimit="20" stroke-width="8" d="M556.5 203.51a3.5 3.5 0 1 0 0-7 3.5 3.5 0 0 0 0 7z" clip-path="url(&quot;#44qpe&quot;)"/><path fill="none" stroke="#11dadc" stroke-miterlimit="20" stroke-width="2" d="M556.5 203.51a3.5 3.5 0 1 0 0-7 3.5 3.5 0 0 0 0 7z" clip-path="url(&quot;#44qpf&quot;)"/></g><g><path fill="#eaf6f9" d="M604.5 229.51a3.5 3.5 0 1 0 0-7 3.5 3.5 0 0 0 0 7z"/><path fill="none" stroke="#eaf6f9" stroke-miterlimit="20" stroke-width="8" d="M604.5 229.51a3.5 3.5 0 1 0 0-7 3.5 3.5 0 0 0 0 7z" clip-path="url(&quot;#44qpg&quot;)"/><path fill="none" stroke="#cf44fb" stroke-miterlimit="20" stroke-width="2" d="M604.5 229.51a3.5 3.5 0 1 0 0-7 3.5 3.5 0 0 0 0 7z" clip-path="url(&quot;#44qph&quot;)"/></g><g><path fill="#050447" d="M503.5 275.51a3.5 3.5 0 1 0 0-7 3.5 3.5 0 0 0 0 7z"/><path fill="none" stroke="#110552" stroke-miterlimit="20" stroke-width="8" d="M503.5 275.51a3.5 3.5 0 1 0 0-7 3.5 3.5 0 0 0 0 7z" clip-path="url(&quot;#44qpi&quot;)"/><path fill="none" stroke="#cf44fb" stroke-miterlimit="20" stroke-width="2" d="M503.5 275.51a3.5 3.5 0 1 0 0-7 3.5 3.5 0 0 0 0 7z" clip-path="url(&quot;#44qpj&quot;)"/></g><g><path fill="#e1f2f6" d="M451.5 247.51a3.5 3.5 0 1 0 0-7 3.5 3.5 0 0 0 0 7z"/><path fill="none" stroke="#e1f2f6" stroke-miterlimit="20" stroke-width="8" d="M451.5 247.51a3.5 3.5 0 1 0 0-7 3.5 3.5 0 0 0 0 7z" clip-path="url(&quot;#44qpk&quot;)"/><path fill="none" stroke="#11dadc" stroke-miterlimit="20" stroke-width="2" d="M451.5 247.51a3.5 3.5 0 1 0 0-7 3.5 3.5 0 0 0 0 7z" clip-path="url(&quot;#44qpl&quot;)"/></g><g><path fill="#eef3f4" d="M87.5 228a3.5 3.5 0 1 0 0-7 3.5 3.5 0 0 0 0 7z"/><path fill="none" stroke="#eef3f4" stroke-miterlimit="20" stroke-width="8" d="M87.5 228a3.5 3.5 0 1 0 0-7 3.5 3.5 0 0 0 0 7z" clip-path="url(&quot;#44qpm&quot;)"/><path fill="none" stroke="#9d9dc5" stroke-miterlimit="20" stroke-width="2" d="M87.5 228a3.5 3.5 0 1 0 0-7 3.5 3.5 0 0 0 0 7z" clip-path="url(&quot;#44qpn&quot;)"/></g><g><path fill="#050447" d="M417.5 290.51a3.5 3.5 0 1 0 0-7 3.5 3.5 0 0 0 0 7z"/><path fill="none" stroke="#0b044d" stroke-miterlimit="20" stroke-width="8" d="M417.5 290.51a3.5 3.5 0 1 0 0-7 3.5 3.5 0 0 0 0 7z" clip-path="url(&quot;#44qpo&quot;)"/><path fill="none" stroke="#9d9dc5" stroke-miterlimit="20" stroke-width="2" d="M417.5 290.51a3.5 3.5 0 1 0 0-7 3.5 3.5 0 0 0 0 7z" clip-path="url(&quot;#44qpp&quot;)"/></g></g></g></g></svg>