<svg xmlns="http://www.w3.org/2000/svg" width="280" height="562" viewBox="0 0 280 562"><defs><radialGradient id="r261a" cx="-11.77" cy="514.99" r="507.63" gradientUnits="userSpaceOnUse"><stop offset="0" stop-color="#ededed"/><stop offset="1" stop-color="#fafafa"/></radialGradient><filter id="r261c" width="216%" height="216%" x="-48%" y="-48%" filterUnits="objectBoundingBox"><feGaussianBlur in="SourceGraphic" result="FeGaussianBlur1583Out" stdDeviation="40 40"/></filter><clipPath id="r261b"><path d="M0 10C0 4.477 4.477 0 10 0h260c5.523 0 10 4.477 10 10v542c0 5.523-4.477 10-10 10H10c-5.523 0-10-4.477-10-10z"/></clipPath></defs><g><g><g opacity=".7"><path fill="url(#r261a)" d="M0 10C0 4.477 4.477 0 10 0h260c5.523 0 10 4.477 10 10v542c0 5.523-4.477 10-10 10H10c-5.523 0-10-4.477-10-10z"/></g><g clip-path="url(#r261b)" filter="url(#r261c)" opacity=".3"><path fill="#0fbce7" d="M328.5 325c59.094 0 107-47.906 107-107s-47.906-107-107-107-107 47.906-107 107 47.906 107 107 107z"/></g><g clip-path="url(#r261b)"/></g></g></svg>