<svg xmlns="http://www.w3.org/2000/svg" width="600" height="320" viewBox="0 0 600 320"><defs><radialGradient id="eqzza" cx="-25.23" cy="293.23" r="668.47" gradientUnits="userSpaceOnUse"><stop offset="0" stop-color="#ededed"/><stop offset="1" stop-color="#fafafa"/></radialGradient><filter id="eqzzc" width="216%" height="216%" x="-48%" y="-48%" filterUnits="objectBoundingBox"><feGaussianBlur in="SourceGraphic" result="FeGaussianBlur2749Out" stdDeviation="40 40"/></filter><filter id="eqzzd" width="216%" height="216%" x="-48%" y="-48%" filterUnits="objectBoundingBox"><feGaussianBlur in="SourceGraphic" result="FeGaussianBlur2756Out" stdDeviation="40 40"/></filter><clipPath id="eqzze"><path fill="#fff" d="M686.5 65.51a3.5 3.5 0 1 0 0-7 3.5 3.5 0 0 0 0 7z"/></clipPath><clipPath id="eqzzf"><path fill="#fff" d="M516.5 223.51a3.5 3.5 0 1 0 0-7 3.5 3.5 0 0 0 0 7z"/></clipPath><clipPath id="eqzzg"><path fill="#fff" d="M564.5 249.51a3.5 3.5 0 1 0 0-7 3.5 3.5 0 0 0 0 7z"/></clipPath><clipPath id="eqzzh"><path fill="#fff" d="M865.5 151.51a3.5 3.5 0 1 0 0-7 3.5 3.5 0 0 0 0 7z"/></clipPath><clipPath id="eqzzi"><path fill="#fff" d="M461.5 296.51a3.5 3.5 0 1 0 0-7 3.5 3.5 0 0 0 0 7z"/></clipPath><clipPath id="eqzzj"><path fill="#fff" d="M411.5 267.51a3.5 3.5 0 1 0 0-7 3.5 3.5 0 0 0 0 7z"/></clipPath><clipPath id="eqzzk"><path fill="#fff" d="M377.5 310.51a3.5 3.5 0 1 0 0-7 3.5 3.5 0 0 0 0 7z"/></clipPath><clipPath id="eqzzl"><path fill="#fff" d="M164.5 311a3.5 3.5 0 1 0 0-7 3.5 3.5 0 0 0 0 7z"/></clipPath><clipPath id="eqzzm"><path fill="#fff" d="M85.5 248a3.5 3.5 0 1 0 0-7 3.5 3.5 0 0 0 0 7z"/></clipPath><clipPath id="eqzzb"><path d="M0 10C0 4.477 4.477 0 10 0h580c5.523 0 10 4.477 10 10v300c0 5.523-4.477 10-10 10H10c-5.523 0-10-4.477-10-10z"/></clipPath></defs><g><g><g opacity=".7"><path fill="url(#eqzza)" d="M0 10C0 4.477 4.477 0 10 0h580c5.523 0 10 4.477 10 10v300c0 5.523-4.477 10-10 10H10c-5.523 0-10-4.477-10-10z"/></g><g clip-path="url(#eqzzb)" filter="url(#eqzzc)" opacity=".2"><path fill="#0fbce7" d="M522.5 420c59.37 0 107.5-48.13 107.5-107.5S581.87 205 522.5 205 415 253.13 415 312.5 463.13 420 522.5 420z"/></g><g clip-path="url(#eqzzb)" filter="url(#eqzzd)" opacity=".3"><path fill="#0fbce7" d="M-.5 199c59.094 0 107-47.906 107-107S58.594-15-.5-15s-107 47.906-107 107 47.906 107 107 107z"/></g><g clip-path="url(#eqzzb)"/><g clip-path="url(#eqzzb)"><g><path fill="none" stroke="#11dadc" stroke-miterlimit="20" stroke-width="2" d="M686.5 65.51a3.5 3.5 0 1 0 0-7 3.5 3.5 0 0 0 0 7z" clip-path="url(&quot;#eqzze&quot;)"/></g><g><path fill="none" stroke="#11dadc" stroke-miterlimit="20" stroke-width="2" d="M516.5 223.51a3.5 3.5 0 1 0 0-7 3.5 3.5 0 0 0 0 7z" clip-path="url(&quot;#eqzzf&quot;)"/></g><g><path fill="none" stroke="#cf44fb" stroke-miterlimit="20" stroke-width="2" d="M564.5 249.51a3.5 3.5 0 1 0 0-7 3.5 3.5 0 0 0 0 7z" clip-path="url(&quot;#eqzzg&quot;)"/></g><g><path fill="none" stroke="#cf44fb" stroke-miterlimit="20" stroke-width="2" d="M865.5 151.51a3.5 3.5 0 1 0 0-7 3.5 3.5 0 0 0 0 7z" clip-path="url(&quot;#eqzzh&quot;)"/></g><g><path fill="none" stroke="#cf44fb" stroke-miterlimit="20" stroke-width="2" d="M461.5 296.51a3.5 3.5 0 1 0 0-7 3.5 3.5 0 0 0 0 7z" clip-path="url(&quot;#eqzzi&quot;)"/></g><g><path fill="none" stroke="#11dadc" stroke-miterlimit="20" stroke-width="2" d="M411.5 267.51a3.5 3.5 0 1 0 0-7 3.5 3.5 0 0 0 0 7z" clip-path="url(&quot;#eqzzj&quot;)"/></g><g><path fill="none" stroke="#9d9dc5" stroke-miterlimit="20" stroke-width="2" d="M377.5 310.51a3.5 3.5 0 1 0 0-7 3.5 3.5 0 0 0 0 7z" clip-path="url(&quot;#eqzzk&quot;)"/></g><g><path fill="none" stroke="#9d9dc5" stroke-miterlimit="20" stroke-width="2" d="M164.5 311a3.5 3.5 0 1 0 0-7 3.5 3.5 0 0 0 0 7z" clip-path="url(&quot;#eqzzl&quot;)"/></g><g><path fill="none" stroke="#9d9dc5" stroke-miterlimit="20" stroke-width="2" d="M85.5 248a3.5 3.5 0 1 0 0-7 3.5 3.5 0 0 0 0 7z" clip-path="url(&quot;#eqzzm&quot;)"/></g><g opacity=".3"><path fill="none" stroke="#5f5f5f" stroke-miterlimit="20" stroke-width=".5" d="M870.93 142.451L1066.001-128"/></g><g opacity=".3"><path fill="none" stroke="#5f5f5f" stroke-miterlimit="20" stroke-width=".5" d="M858.322 144.51l-165.422-79"/></g><g opacity=".3"><path fill="none" stroke="#5f5f5f" stroke-miterlimit="20" stroke-width=".5" d="M568 239.706L682 69.36"/></g><g opacity=".3"><path fill="none" stroke="#5f5f5f" stroke-miterlimit="20" stroke-width=".5" d="M522.57 224.91l34.896 18.089"/></g><g opacity=".3"><path fill="none" stroke="#5f5f5f" stroke-miterlimit="20" stroke-width=".5" d="M513 225.91l-47 61.096"/></g><g opacity=".3"><path fill="none" stroke="#5f5f5f" stroke-miterlimit="20" stroke-width=".5" d="M454.91 289.51l-36.91-21"/></g><g opacity=".3"><path fill="none" stroke="#5f5f5f" stroke-miterlimit="20" stroke-width=".5" d="M383.34 300.885l23.664-31.695"/></g><g opacity=".3"><path fill="none" stroke="#5f5f5f" stroke-miterlimit="20" stroke-width=".5" d="M172.5 307.51h197.261"/></g><g opacity=".3"><path fill="none" stroke="#5f5f5f" stroke-miterlimit="20" stroke-width=".5" d="M85.72 250v57.51h71.043v0"/></g></g></g></g></svg>