<svg xmlns="http://www.w3.org/2000/svg" width="708" height="280" viewBox="0 0 708 280"><defs><radialGradient id="8yl1a" cx="-29.77" cy="256.58" r="766.25" gradientUnits="userSpaceOnUse"><stop offset="0" stop-color="#ededed"/><stop offset="1" stop-color="#fafafa"/></radialGradient><filter id="8yl1c" width="216%" height="216%" x="-48%" y="-48%" filterUnits="objectBoundingBox"><feGaussianBlur in="SourceGraphic" result="FeGaussianBlur1236Out" stdDeviation="40 40"/></filter><filter id="8yl1d" width="216%" height="216%" x="-48%" y="-48%" filterUnits="objectBoundingBox"><feGaussianBlur in="SourceGraphic" result="FeGaussianBlur1243Out" stdDeviation="40 40"/></filter><clipPath id="8yl1e"><path fill="#fff" d="M549 208v-16h15v16zm7.5-4.49a3.5 3.5 0 1 0 0-7 3.5 3.5 0 0 0 0 7z"/></clipPath><clipPath id="8yl1f"><path fill="#fff" d="M556.5 203.51a3.5 3.5 0 1 0 0-7 3.5 3.5 0 0 0 0 7z"/></clipPath><clipPath id="8yl1g"><path fill="#fff" d="M597 234v-16h15v16zm7.5-4.49a3.5 3.5 0 1 0 0-7 3.5 3.5 0 0 0 0 7z"/></clipPath><clipPath id="8yl1h"><path fill="#fff" d="M604.5 229.51a3.5 3.5 0 1 0 0-7 3.5 3.5 0 0 0 0 7z"/></clipPath><clipPath id="8yl1i"><path fill="#fff" d="M496 280v-16h15v16zm7.5-4.49a3.5 3.5 0 1 0 0-7 3.5 3.5 0 0 0 0 7z"/></clipPath><clipPath id="8yl1j"><path fill="#fff" d="M503.5 275.51a3.5 3.5 0 1 0 0-7 3.5 3.5 0 0 0 0 7z"/></clipPath><clipPath id="8yl1k"><path fill="#fff" d="M444 252v-16h15v16zm7.5-4.49a3.5 3.5 0 1 0 0-7 3.5 3.5 0 0 0 0 7z"/></clipPath><clipPath id="8yl1l"><path fill="#fff" d="M451.5 247.51a3.5 3.5 0 1 0 0-7 3.5 3.5 0 0 0 0 7z"/></clipPath><clipPath id="8yl1m"><path fill="#fff" d="M80 232v-15h15v15zm7.5-4a3.5 3.5 0 1 0 0-7 3.5 3.5 0 0 0 0 7z"/></clipPath><clipPath id="8yl1n"><path fill="#fff" d="M87.5 228a3.5 3.5 0 1 0 0-7 3.5 3.5 0 0 0 0 7z"/></clipPath><clipPath id="8yl1o"><path fill="#fff" d="M410 295v-16h15v16zm7.5-4.49a3.5 3.5 0 1 0 0-7 3.5 3.5 0 0 0 0 7z"/></clipPath><clipPath id="8yl1p"><path fill="#fff" d="M417.5 290.51a3.5 3.5 0 1 0 0-7 3.5 3.5 0 0 0 0 7z"/></clipPath><clipPath id="8yl1b"><path d="M0 10C0 4.477 4.477 0 10 0h688c5.523 0 10 4.477 10 10v260c0 5.523-4.477 10-10 10H10c-5.523 0-10-4.477-10-10z"/></clipPath></defs><g><g><g opacity=".7"><path fill="url(#8yl1a)" d="M0 10C0 4.477 4.477 0 10 0h688c5.523 0 10 4.477 10 10v260c0 5.523-4.477 10-10 10H10c-5.523 0-10-4.477-10-10z"/></g><g clip-path="url(#8yl1b)" filter="url(#8yl1c)" opacity=".2"><path fill="#0fbce7" d="M145.5 425c59.37 0 107.5-48.13 107.5-107.5S204.87 210 145.5 210 38 258.13 38 317.5 86.13 425 145.5 425z"/></g><g clip-path="url(#8yl1b)" filter="url(#8yl1d)" opacity=".3"><path fill="#0fbce7" d="M539.5 78c59.094 0 107-47.906 107-107s-47.906-107-107-107-107 47.906-107 107 47.906 107 107 107z"/></g><g clip-path="url(#8yl1b)"/><g clip-path="url(#8yl1b)"><g opacity=".3"><path fill="none" stroke="#5f5f5f" stroke-miterlimit="20" stroke-width=".5" d="M87.5 232.547v50.963l330.5 4v0l32.54-43.412v0L502 273.315v0l52.5-72.805v0l48.5 26.167v0L726.643 42.51v0l179.751 86v0L1061-85v0"/></g><g><path fill="#fafafa" d="M556.5 203.51a3.5 3.5 0 1 0 0-7 3.5 3.5 0 0 0 0 7z"/><path fill="none" stroke="#fafafa" stroke-miterlimit="20" stroke-width="8" d="M556.5 203.51a3.5 3.5 0 1 0 0-7 3.5 3.5 0 0 0 0 7z" clip-path="url(&quot;#8yl1e&quot;)"/><path fill="none" stroke="#11dadc" stroke-miterlimit="20" stroke-width="2" d="M556.5 203.51a3.5 3.5 0 1 0 0-7 3.5 3.5 0 0 0 0 7z" clip-path="url(&quot;#8yl1f&quot;)"/></g><g><path fill="#fbfbfb" d="M604.5 229.51a3.5 3.5 0 1 0 0-7 3.5 3.5 0 0 0 0 7z"/><path fill="none" stroke="#fbfbfb" stroke-miterlimit="20" stroke-width="8" d="M604.5 229.51a3.5 3.5 0 1 0 0-7 3.5 3.5 0 0 0 0 7z" clip-path="url(&quot;#8yl1g&quot;)"/><path fill="none" stroke="#cf44fb" stroke-miterlimit="20" stroke-width="2" d="M604.5 229.51a3.5 3.5 0 1 0 0-7 3.5 3.5 0 0 0 0 7z" clip-path="url(&quot;#8yl1h&quot;)"/></g><g><path fill="#050447" d="M503.5 275.51a3.5 3.5 0 1 0 0-7 3.5 3.5 0 0 0 0 7z"/><path fill="none" stroke="#110552" stroke-miterlimit="20" stroke-width="8" d="M503.5 275.51a3.5 3.5 0 1 0 0-7 3.5 3.5 0 0 0 0 7z" clip-path="url(&quot;#8yl1i&quot;)"/><path fill="none" stroke="#cf44fb" stroke-miterlimit="20" stroke-width="2" d="M503.5 275.51a3.5 3.5 0 1 0 0-7 3.5 3.5 0 0 0 0 7z" clip-path="url(&quot;#8yl1j&quot;)"/></g><g><path fill="#f8f8f8" d="M451.5 247.51a3.5 3.5 0 1 0 0-7 3.5 3.5 0 0 0 0 7z"/><path fill="none" stroke="#f8f8f8" stroke-miterlimit="20" stroke-width="8" d="M451.5 247.51a3.5 3.5 0 1 0 0-7 3.5 3.5 0 0 0 0 7z" clip-path="url(&quot;#8yl1k&quot;)"/><path fill="none" stroke="#11dadc" stroke-miterlimit="20" stroke-width="2" d="M451.5 247.51a3.5 3.5 0 1 0 0-7 3.5 3.5 0 0 0 0 7z" clip-path="url(&quot;#8yl1l&quot;)"/></g><g><path fill="#e2f0f3" d="M87.5 228a3.5 3.5 0 1 0 0-7 3.5 3.5 0 0 0 0 7z"/><path fill="none" stroke="#e2f0f3" stroke-miterlimit="20" stroke-width="8" d="M87.5 228a3.5 3.5 0 1 0 0-7 3.5 3.5 0 0 0 0 7z" clip-path="url(&quot;#8yl1m&quot;)"/><path fill="none" stroke="#9d9dc5" stroke-miterlimit="20" stroke-width="2" d="M87.5 228a3.5 3.5 0 1 0 0-7 3.5 3.5 0 0 0 0 7z" clip-path="url(&quot;#8yl1n&quot;)"/></g><g><path fill="#050447" d="M417.5 290.51a3.5 3.5 0 1 0 0-7 3.5 3.5 0 0 0 0 7z"/><path fill="none" stroke="#0b044d" stroke-miterlimit="20" stroke-width="8" d="M417.5 290.51a3.5 3.5 0 1 0 0-7 3.5 3.5 0 0 0 0 7z" clip-path="url(&quot;#8yl1o&quot;)"/><path fill="none" stroke="#9d9dc5" stroke-miterlimit="20" stroke-width="2" d="M417.5 290.51a3.5 3.5 0 1 0 0-7 3.5 3.5 0 0 0 0 7z" clip-path="url(&quot;#8yl1p&quot;)"/></g></g></g></g></svg>