<svg xmlns="http://www.w3.org/2000/svg" width="280" height="502" viewBox="0 0 280 502"><defs><radialGradient id="b2mna" cx="-11.77" cy="460.01" r="472.02" gradientUnits="userSpaceOnUse"><stop offset="0" stop-color="#ededed"/><stop offset="1" stop-color="#fafafa"/></radialGradient><filter id="b2mnc" width="216%" height="216%" x="-48%" y="-48%" filterUnits="objectBoundingBox"><feGaussianBlur in="SourceGraphic" result="FeGaussianBlur1608Out" stdDeviation="40 40"/></filter><filter id="b2mnd" width="216%" height="216%" x="-48%" y="-48%" filterUnits="objectBoundingBox"><feGaussianBlur in="SourceGraphic" result="FeGaussianBlur1615Out" stdDeviation="40 40"/></filter><clipPath id="b2mnb"><path d="M0 10C0 4.477 4.477 0 10 0h260c5.523 0 10 4.477 10 10v482c0 5.523-4.477 10-10 10H10c-5.523 0-10-4.477-10-10z"/></clipPath></defs><g><g><g opacity=".7"><path fill="url(#b2mna)" d="M0 10C0 4.477 4.477 0 10 0h260c5.523 0 10 4.477 10 10v482c0 5.523-4.477 10-10 10H10c-5.523 0-10-4.477-10-10z"/></g><g clip-path="url(#b2mnb)" filter="url(#b2mnc)" opacity=".2"><path fill="#0fbce7" d="M522.5 420c59.37 0 107.5-48.13 107.5-107.5S581.87 205 522.5 205 415 253.13 415 312.5 463.13 420 522.5 420z"/></g><g clip-path="url(#b2mnb)" filter="url(#b2mnd)" opacity=".3"><path fill="#0fbce7" d="M52.5 56c59.094 0 107-47.906 107-107s-47.906-107-107-107-107 47.906-107 107S-6.594 56 52.5 56z"/></g><g clip-path="url(#b2mnb)"/></g></g></svg>