<svg xmlns="http://www.w3.org/2000/svg" width="280" height="602" viewBox="0 0 280 602"><defs><radialGradient id="rnsna" cx="-11.77" cy="551.65" r="532.09" gradientUnits="userSpaceOnUse"><stop offset="0" stop-color="#ededed"/><stop offset="1" stop-color="#fafafa"/></radialGradient><filter id="rnsnc" width="216%" height="216%" x="-48%" y="-48%" filterUnits="objectBoundingBox"><feGaussianBlur in="SourceGraphic" result="FeGaussianBlur1672Out" stdDeviation="40 40"/></filter><filter id="rnsnd" width="216%" height="216%" x="-48%" y="-48%" filterUnits="objectBoundingBox"><feGaussianBlur in="SourceGraphic" result="FeGaussianBlur1679Out" stdDeviation="40 40"/></filter><clipPath id="rnsnb"><path d="M0 10C0 4.477 4.477 0 10 0h260c5.523 0 10 4.477 10 10v582c0 5.523-4.477 10-10 10H10c-5.523 0-10-4.477-10-10z"/></clipPath></defs><g><g><g opacity=".7"><path fill="url(#rnsna)" d="M0 10C0 4.477 4.477 0 10 0h260c5.523 0 10 4.477 10 10v582c0 5.523-4.477 10-10 10H10c-5.523 0-10-4.477-10-10z"/></g><g clip-path="url(#rnsnb)" filter="url(#rnsnc)" opacity=".2"><path fill="#0fbce7" d="M301.5 456c59.37 0 107.5-48.13 107.5-107.5S360.87 241 301.5 241 194 289.13 194 348.5 242.13 456 301.5 456z"/></g><g clip-path="url(#rnsnb)" filter="url(#rnsnd)" opacity=".3"><path fill="#0fbce7" d="M-43.5 214c59.094 0 107-47.906 107-107S15.594 0-43.5 0s-107 47.906-107 107 47.906 107 107 107z"/></g><g clip-path="url(#rnsnb)"/></g></g></svg>