<svg xmlns="http://www.w3.org/2000/svg" width="280" height="562" viewBox="0 0 280 562"><defs><radialGradient id="umy0a" cx="-11.77" cy="514.99" r="507.63" gradientUnits="userSpaceOnUse"><stop offset="0" stop-color="#ededed"/><stop offset="1" stop-color="#fafafa"/></radialGradient><filter id="umy0c" width="216%" height="216%" x="-48%" y="-48%" filterUnits="objectBoundingBox"><feGaussianBlur in="SourceGraphic" result="FeGaussianBlur1551Out" stdDeviation="40 40"/></filter><filter id="umy0d" width="216%" height="216%" x="-48%" y="-48%" filterUnits="objectBoundingBox"><feGaussianBlur in="SourceGraphic" result="FeGaussianBlur1558Out" stdDeviation="40 40"/></filter><clipPath id="umy0b"><path d="M0 10C0 4.477 4.477 0 10 0h260c5.523 0 10 4.477 10 10v542c0 5.523-4.477 10-10 10H10c-5.523 0-10-4.477-10-10z"/></clipPath></defs><g><g><g opacity=".7"><path fill="url(#umy0a)" d="M0 10C0 4.477 4.477 0 10 0h260c5.523 0 10 4.477 10 10v542c0 5.523-4.477 10-10 10H10c-5.523 0-10-4.477-10-10z"/></g><g clip-path="url(#umy0b)" filter="url(#umy0c)" opacity=".2"><path fill="#0fbce7" d="M522.5 420c59.37 0 107.5-48.13 107.5-107.5S581.87 205 522.5 205 415 253.13 415 312.5 463.13 420 522.5 420z"/></g><g clip-path="url(#umy0b)" filter="url(#umy0d)" opacity=".3"><path fill="#0fbce7" d="M-.5 199c59.094 0 107-47.906 107-107S58.594-15-.5-15s-107 47.906-107 107 47.906 107 107 107z"/></g><g clip-path="url(#umy0b)"/></g></g></svg>