<svg xmlns="http://www.w3.org/2000/svg" width="600" height="320" viewBox="0 0 600 320"><defs><radialGradient id="k7j4a" cx="-25.23" cy="293.23" r="667.65" gradientUnits="userSpaceOnUse"><stop offset="0" stop-color="#f5f5f5"/><stop offset="1" stop-color="#f4f4f6"/></radialGradient><filter id="k7j4c" width="184%" height="184%" x="-32%" y="-32%" filterUnits="objectBoundingBox"><feGaussianBlur in="SourceGraphic" result="FeGaussianBlur2891Out" stdDeviation="40 40"/></filter><radialGradient id="k7j4e" cx="386.28" cy="67.5" r="266.03" gradientUnits="userSpaceOnUse"><stop offset="0" stop-color="#4600d1"/><stop offset=".5" stop-color="#ac0cc5"/><stop offset="1" stop-color="#fff"/></radialGradient><filter id="k7j4d" width="204%" height="204%" x="-42%" y="-42%" filterUnits="objectBoundingBox"><feGaussianBlur in="SourceGraphic" result="FeGaussianBlur2902Out" stdDeviation="40 40"/></filter><clipPath id="k7j4b"><path d="M0 10C0 4.477 4.477 0 10 0h580c5.523 0 10 4.477 10 10v300c0 5.523-4.477 10-10 10H10c-5.523 0-10-4.477-10-10z"/></clipPath></defs><g><g><g><path fill="url(#k7j4a)" d="M0 10C0 4.477 4.477 0 10 0h580c5.523 0 10 4.477 10 10v300c0 5.523-4.477 10-10 10H10c-5.523 0-10-4.477-10-10z"/></g><g clip-path="url(#k7j4b)" filter="url(#k7j4c)" opacity=".1"><path fill="#0fbce7" d="M93.5 537C197.606 537 282 452.606 282 348.5S197.606 160 93.5 160-95 244.394-95 348.5-10.606 537 93.5 537z"/></g><g clip-path="url(#k7j4b)" filter="url(#k7j4d)" opacity=".1"><path fill="url(#k7j4e)" d="M508.5 123C576.707 123 632 67.707 632-.5S576.707-124 508.5-124 385-68.707 385-.5 440.293 123 508.5 123z"/></g><g/></g></g></svg>