<svg xmlns="http://www.w3.org/2000/svg" width="268" height="70" viewBox="0 0 268 70"><defs><radialGradient id="h9j7a" cx="26.05" cy="70" r="302.23" gradientUnits="userSpaceOnUse"><stop offset="0" stop-color="#6d0077"/><stop offset="1" stop-color="#e01cff"/></radialGradient><clipPath id="h9j7b"><path d="M0 4a4 4 0 0 1 4-4h260a4 4 0 0 1 4 4v62a4 4 0 0 1-4 4H4a4 4 0 0 1-4-4z"/></clipPath></defs><g><g><g opacity=".7"><path fill="url(#h9j7a)" d="M0 4a4 4 0 0 1 4-4h260a4 4 0 0 1 4 4v62a4 4 0 0 1-4 4H4a4 4 0 0 1-4-4z"/></g><g clip-path="url(#h9j7b)"/></g></g></svg>