<svg xmlns="http://www.w3.org/2000/svg" width="60" height="60" viewBox="0 0 60 60"><g><g><g><path fill="#e33e23" d="M30 60c16.569 0 30-13.431 30-30C60 13.431 46.569 0 30 0 13.431 0 0 13.431 0 30c0 16.569 13.431 30 30 30z"/></g><g><path fill="#fff" d="M22.885 41.09h.003v.085l-.003-.085zm.003 0v-1.204h2.323c1.456 0 1.389-1.326 1.389-1.326s.2-17.084.2-17.86c0-.775-.51-.719-.51-.719h-1.472v-1.056h4.635l8.476 17.55L46.457 18.8h5.18v1.246h-1.691c-.72 0-.731.404-.731.404v18.496c0 .892.812.813.812.813h1.95v1.166h-8.35l.015-.981s.274-.04 1.562-.04 1.06-1.259 1.06-1.259l.2-15.239-9.104 17.665-9.305-18.01v15.417c0 .892.78 1.332.78 1.332h2.4v1.28zm-10.597-8.502l.016-.056h2.837v6.314c0 .961.946 1.069.946 1.069h1.834v1.125h-8.29v-1.023h1.464c1.176 0 1.193-1.303 1.193-1.303v-6.126zM6.89 30.39zm15.232-3.323c1.84-6.086-4.262-7.344-4.262-7.344h-2.68v10.204h-2.873v-9.873H9.763v-1.043s9.637-.039 10.701.086c5.35.625 7.954 10.21-.615 12.12-6.622 1.477-12.878-.798-12.958-.827.112.024 13.362 2.857 15.231-3.323z"/></g></g></g></svg>