<svg xmlns="http://www.w3.org/2000/svg" width="58" height="60" viewBox="0 0 58 60"><g><g><path fill="#ff8c00" d="M26.808 53.026C12.326 53.026.59 41.288.59 26.808.59 12.327 12.328.59 26.808.59s26.218 11.738 26.218 26.218a26.38 26.38 0 0 1-3.695 13.452c-.077.114-.268.076-.306-.076-.914-6.44-4.84-9.985-10.555-11.051-.497-.077-.572-.382.075-.458 1.753-.152 4.23-.114 5.526.114.076-.648.115-1.334.115-2.02 0-9.565-7.775-17.34-17.34-17.34s-17.34 7.775-17.34 17.34c0 9.566 7.775 17.34 17.34 17.34h.8a23.391 23.391 0 0 1-.343-4.687c.039-1.067.267-1.22.725-.381 2.4 4.153 5.83 7.888 12.537 9.374 5.487 1.22 10.975 2.63 16.882 10.137.533.648-.267 1.334-.877.8-6.02-5.335-11.508-7.088-16.5-7.088-5.602.039-9.412.762-13.261.762zM42.05 42.818c1.181.99 1.525 2.13.915 2.967-.344.419-.915.684-1.563.684-.647 0-1.333-.228-1.79-.646-1.068-.913-1.372-2.435-.687-3.27.267-.343.687-.533 1.22-.533.61 0 1.295.266 1.905.798zm3.882-5.105c.988.38 1.368 1.863 1.443 2.509.152 1.18-.189 1.636-.569 1.636-.38 0-.912-.457-1.48-1.369-.57-.913-.798-1.94-.494-2.472.189-.343.607-.494 1.101-.304z"/></g></g></svg>