<svg xmlns="http://www.w3.org/2000/svg" width="1230" height="575" viewBox="0 0 1230 575"><defs><radialGradient id="2xqha" cx="891.6" cy="-169.14" r="1357.76" gradientUnits="userSpaceOnUse"><stop offset="0" stop-color="#9a14a4"/><stop offset=".36" stop-color="#9814a2"/><stop offset=".58" stop-color="#050447"/><stop offset="1" stop-color="#050447"/></radialGradient><radialGradient id="2xqhd" cx="-194.49" cy="686.32" r="687.16" gradientUnits="userSpaceOnUse"><stop offset="0" stop-color="#4600d1"/><stop offset=".51" stop-color="#ac0cc5"/><stop offset="1" stop-color="#fff"/></radialGradient><filter id="2xqhc" width="164%" height="164%" x="-22%" y="-22%" filterUnits="objectBoundingBox"><feGaussianBlur in="SourceGraphic" result="FeGaussianBlur4925Out" stdDeviation="40 40"/></filter><radialGradient id="2xqhf" cx="21.91" cy="621.53" r="355.43" gradientUnits="userSpaceOnUse"><stop offset="0" stop-color="#4600d1"/><stop offset=".51" stop-color="#ac0cc5"/><stop offset="1" stop-color="#fff"/></radialGradient><filter id="2xqhe" width="188%" height="188%" x="-34%" y="-34%" filterUnits="objectBoundingBox"><feGaussianBlur in="SourceGraphic" result="FeGaussianBlur4936Out" stdDeviation="40 40"/></filter><radialGradient id="2xqhh" cx="732.12" cy="22.95" r="647.31" gradientUnits="userSpaceOnUse"><stop offset="0" stop-color="#4600d1"/><stop offset=".51" stop-color="#ac0cc5"/><stop offset="1" stop-color="#fff"/></radialGradient><filter id="2xqhg" width="168%" height="168%" x="-24%" y="-24%" filterUnits="objectBoundingBox"><feGaussianBlur in="SourceGraphic" result="FeGaussianBlur4947Out" stdDeviation="40 40"/></filter><radialGradient id="2xqhj" cx="960.72" cy="-19.23" r="149.71" gradientUnits="userSpaceOnUse"><stop offset="0" stop-color="#4600d1"/><stop offset=".51" stop-color="#ac0cc5"/><stop offset="1" stop-color="#fff"/></radialGradient><filter id="2xqhi" width="256%" height="256%" x="-68%" y="-68%" filterUnits="objectBoundingBox"><feGaussianBlur in="SourceGraphic" result="FeGaussianBlur4958Out" stdDeviation="40 40"/></filter><clipPath id="2xqhb"><path d="M0 10C0 4.477 4.477 0 10 0h1210c5.523 0 10 4.477 10 10v555c0 5.523-4.477 10-10 10H10c-5.523 0-10-4.477-10-10z"/></clipPath></defs><g><g><g><path fill="url(#2xqha)" d="M0 10C0 4.477 4.477 0 10 0h1210c5.523 0 10 4.477 10 10v555c0 5.523-4.477 10-10 10H10c-5.523 0-10-4.477-10-10z"/><path fill="#0e0d57" fill-opacity=".6" d="M0 10C0 4.477 4.477 0 10 0h1210c5.523 0 10 4.477 10 10v555c0 5.523-4.477 10-10 10H10c-5.523 0-10-4.477-10-10z"/></g><g clip-path="url(#2xqhb)" filter="url(#2xqhc)" opacity=".2" transform="rotate(-75 121.5 510.5)"><path fill="url(#2xqhd)" d="M121.2 829.68c176.179 0 319-142.821 319-319s-142.821-319-319-319-319 142.821-319 319 142.821 319 319 319z"/></g><g clip-path="url(#2xqhb)" filter="url(#2xqhe)" opacity=".3" transform="rotate(-75 185.5 530.5)"><path fill="url(#2xqhf)" d="M185.2 695.68c91.127 0 165-73.873 165-165s-73.873-165-165-165-165 73.873-165 165 73.873 165 165 165z"/></g><g clip-path="url(#2xqhb)" filter="url(#2xqhg)" opacity=".2"><path fill="url(#2xqhh)" d="M1029.5 158c165.962 0 300.5-134.538 300.5-300.5S1195.462-443 1029.5-443 729-308.462 729-142.5 863.538 158 1029.5 158z"/></g><g clip-path="url(#2xqhb)" filter="url(#2xqhi)" opacity=".3"><path fill="url(#2xqhj)" d="M1029.5 12c38.384 0 69.5-31.116 69.5-69.5s-31.116-69.5-69.5-69.5S960-95.884 960-57.5 991.116 12 1029.5 12z"/></g><g clip-path="url(#2xqhb)"/></g></g></svg>