<svg xmlns="http://www.w3.org/2000/svg" width="240" height="150" viewBox="0 0 240 150"><defs><radialGradient id="1pxya" cx="59.1" cy="-159.4" r="283.02" gradientUnits="userSpaceOnUse"><stop offset="0" stop-color="#9a14a4"/><stop offset=".36" stop-color="#9814a2"/><stop offset=".58" stop-color="#050447"/><stop offset="1" stop-color="#050447"/></radialGradient><radialGradient id="1pxyd" cx=".72" cy="187.77" r="149.71" gradientUnits="userSpaceOnUse"><stop offset="0" stop-color="#4600d1"/><stop offset=".51" stop-color="#ac0cc5"/><stop offset="1" stop-color="#fff"/></radialGradient><filter id="1pxyc" width="256%" height="256%" x="-68%" y="-68%" filterUnits="objectBoundingBox"><feGaussianBlur in="SourceGraphic" result="FeGaussianBlur4752Out" stdDeviation="40 40"/></filter><clipPath id="1pxyb"><path d="M0 6a6 6 0 0 1 6-6h228a6 6 0 0 1 6 6v138a6 6 0 0 1-6 6H6a6 6 0 0 1-6-6z"/></clipPath></defs><g><g><g><path fill="url(#1pxya)" d="M0 6a6 6 0 0 1 6-6h228a6 6 0 0 1 6 6v138a6 6 0 0 1-6 6H6a6 6 0 0 1-6-6z"/><path fill="#0e0d57" fill-opacity=".6" d="M0 6a6 6 0 0 1 6-6h228a6 6 0 0 1 6 6v138a6 6 0 0 1-6 6H6a6 6 0 0 1-6-6z"/></g><g clip-path="url(#1pxyb)" filter="url(#1pxyc)" opacity=".7"><path fill="url(#1pxyd)" d="M69.5 219c38.384 0 69.5-31.116 69.5-69.5S107.884 80 69.5 80 0 111.116 0 149.5 31.116 219 69.5 219z"/></g><g clip-path="url(#1pxyb)"/></g></g></svg>