<svg xmlns="http://www.w3.org/2000/svg" width="1210" height="285" viewBox="0 0 1210 285"><defs><radialGradient id="blqua" cx="-50.88" cy="261.16" r="1278.35" gradientUnits="userSpaceOnUse"><stop offset="0" stop-color="#ededed"/><stop offset="1" stop-color="#fafafa"/></radialGradient><filter id="blquc" width="216%" height="216%" x="-48%" y="-48%" filterUnits="objectBoundingBox"><feGaussianBlur in="SourceGraphic" result="FeGaussianBlur4713Out" stdDeviation="40 40"/></filter><filter id="blqud" width="216%" height="216%" x="-48%" y="-48%" filterUnits="objectBoundingBox"><feGaussianBlur in="SourceGraphic" result="FeGaussianBlur4720Out" stdDeviation="40 40"/></filter><clipPath id="blqub"><path d="M0 10C0 4.477 4.477 0 10 0h1190c5.523 0 10 4.477 10 10v265c0 5.523-4.477 10-10 10H10c-5.523 0-10-4.477-10-10z"/></clipPath></defs><g><g><g opacity=".7"><path fill="url(#blqua)" d="M0 10C0 4.477 4.477 0 10 0h1190c5.523 0 10 4.477 10 10v265c0 5.523-4.477 10-10 10H10c-5.523 0-10-4.477-10-10z"/></g><g clip-path="url(#blqub)" filter="url(#blquc)" opacity=".2"><path fill="#0fbce7" d="M600.5 367c59.37 0 107.5-48.13 107.5-107.5S659.87 152 600.5 152 493 200.13 493 259.5 541.13 367 600.5 367z"/></g><g clip-path="url(#blqub)" filter="url(#blqud)" opacity=".3"><path fill="#0fbce7" d="M-29.5 67c59.094 0 107-47.906 107-107s-47.906-107-107-107-107 47.906-107 107 47.906 107 107 107z"/></g><g clip-path="url(#blqub)"/></g></g></svg>