<svg xmlns="http://www.w3.org/2000/svg" width="59" height="60" viewBox="0 0 59 60"><defs><linearGradient id="czwea" x1="9.97" x2="2.38" y1="49.9" y2="28.27" gradientUnits="userSpaceOnUse"><stop offset=".14" stop-color="#f1e813"/><stop offset=".3" stop-color="#e6e418"/><stop offset=".58" stop-color="#c9da26"/><stop offset=".89" stop-color="#a2cc39"/></linearGradient><linearGradient id="czweb" x1="10.53" x2="29.67" y1="9.93" y2="2.73" gradientUnits="userSpaceOnUse"><stop offset=".06" stop-color="#0fa7df"/><stop offset=".54" stop-color="#0098f8"/><stop offset=".92" stop-color="#0290ea"/></linearGradient><linearGradient id="czwec" x1="27.43" x2="49.03" y1="55.33" y2="50.51" gradientUnits="userSpaceOnUse"><stop offset=".12" stop-color="#a2cc39"/><stop offset=".28" stop-color="#86c239"/><stop offset=".87" stop-color="#219f38"/></linearGradient><linearGradient id="czwed" x1="27.92" x2="46.41" y1="2.3" y2="7.93" gradientUnits="userSpaceOnUse"><stop offset=".06" stop-color="#0290ea"/><stop offset=".79" stop-color="#0c89ca"/></linearGradient><linearGradient id="czwee" x1="9.29" x2="29.42" y1="48.85" y2="56.27" gradientUnits="userSpaceOnUse"><stop offset=".13" stop-color="#f1e813"/><stop offset=".3" stop-color="#eae616"/><stop offset=".53" stop-color="#d8df1f"/><stop offset=".8" stop-color="#bad52d"/><stop offset=".98" stop-color="#a2cc39"/></linearGradient><linearGradient id="czwef" x1="2.53" x2="10.77" y1="30.57" y2="9.39" gradientUnits="userSpaceOnUse"><stop offset=".07" stop-color="#a2cc39"/><stop offset=".26" stop-color="#81c45e"/><stop offset=".92" stop-color="#0fa7df"/></linearGradient></defs><g><g><g><path fill="#21a038" d="M52.562 11.55a29.909 29.909 0 0 1 3.516 5.912L29.35 37.43l-11.17-7.096v-8.538l11.17 7.097z"/></g><g><path fill="url(#czwea)" d="M6.779 29.738c0-.383.009-.763.027-1.142l-6.77-.336A30.002 30.002 0 0 0 2.23 41.121a29.683 29.683 0 0 0 6.365 9.64l4.802-4.864a22.808 22.808 0 0 1-4.9-7.41 23.053 23.053 0 0 1-1.717-8.749z"/></g><g><path fill="url(#czweb)" d="M29.339 6.865c.377 0 .753.014 1.126.033l.339-6.863A30.487 30.487 0 0 0 29.339 0a28.925 28.925 0 0 0-11.232 2.256A29.24 29.24 0 0 0 8.59 8.708l4.802 4.866a22.467 22.467 0 0 1 7.312-4.968 22.225 22.225 0 0 1 8.635-1.74z"/></g><g><path fill="url(#czwec)" d="M29.348 52.606c-.378 0-.754 0-1.13-.03l-.338 6.86a28.905 28.905 0 0 0 12.694-2.22 29.222 29.222 0 0 0 9.51-6.452L45.293 45.9a22.479 22.479 0 0 1-7.312 4.965 22.232 22.232 0 0 1-8.632 1.741z"/></g><g><path fill="url(#czwed)" d="M42.058 10.858l5.705-4.261A28.969 28.969 0 0 0 29.33 0v6.868a22.241 22.241 0 0 1 12.728 3.99z"/></g><g><path fill="#21a038" d="M58.68 29.739a30.31 30.31 0 0 0-.461-5.329l-6.316 4.717v.612a23.069 23.069 0 0 1-1.94 9.274 22.797 22.797 0 0 1-5.493 7.674l4.555 5.102a29.647 29.647 0 0 0 7.14-9.985 29.995 29.995 0 0 0 2.514-12.065z"/></g><g><path fill="url(#czwee)" d="M29.348 52.603a22.264 22.264 0 0 1-9.153-1.966 22.532 22.532 0 0 1-7.573-5.567L7.59 49.684a29.282 29.282 0 0 0 9.853 7.237 28.933 28.933 0 0 0 11.905 2.55z"/></g><g><path fill="url(#czwef)" d="M14.212 12.782L9.659 7.68a29.644 29.644 0 0 0-7.142 9.985A29.996 29.996 0 0 0 0 29.73h6.779a23.071 23.071 0 0 1 1.94-9.274 22.8 22.8 0 0 1 5.493-7.674z"/></g></g></g></svg>