<svg xmlns="http://www.w3.org/2000/svg" xmlns:xlink="http://www.w3.org/1999/xlink" width="280" height="821" viewBox="0 0 280 821">
    <defs>
        <radialGradient id="aahzjagzbb" cx="21.629%" cy="107.903%" r="289.362%" fx="21.629%" fy="107.903%" gradientTransform="scale(1 .34105) rotate(-62.073 1.949 2.121)">
            <stop offset="0%" stop-color="#0060BA"/>
            <stop offset="100%" stop-color="#02AFD4"/>
        </radialGradient>
        <filter id="9jo2bmjsyc" width="156.5%" height="156.5%" x="-28.2%" y="-28.2%" filterUnits="objectBoundingBox">
            <feGaussianBlur in="SourceGraphic" stdDeviation="40"/>
        </filter>
        <rect id="uc77ktimea" width="280" height="821" x="0" y="0" rx="10"/>
    </defs>
    <g fill="none" fill-rule="evenodd">
        <g>
            <g>
                <g transform="translate(-20 -2901) translate(20 96) translate(0 2805)">
                    <mask id="5rvlossowd" fill="#fff">
                        <use xlink:href="#uc77ktimea"/>
                    </mask>
                    <use fill="url(#aahzjagzbb)" opacity=".9" xlink:href="#uc77ktimea"/>
                    <circle cx="82.5" cy="6.5" r="212.5" fill="#10E2CE" filter="url(#9jo2bmjsyc)" mask="url(#5rvlossowd)" opacity=".3"/>
                    <rect width="280" height="821" mask="url(#5rvlossowd)" rx="10"/>
                    <path fill="#5BD5F0" fill-rule="nonzero" d="M266.857 407.2h-10.714v-2.1c0-.775-.435-1.486-1.132-1.852-.697-.365-1.542-.325-2.2.105l-12.857 8.4c-.596.39-.954 1.045-.954 1.747 0 .702.358 1.358.954 1.747l12.857 8.4c.66.431 1.505.47 2.2.104.697-.365 1.132-1.077 1.132-1.851v-2.1h10.714c1.184 0 2.143-.94 2.143-2.1v-8.4c0-1.16-.96-2.1-2.143-2.1z" mask="url(#5rvlossowd)" transform="rotate(-45 254 413.5)"/>
                </g>
            </g>
        </g>
    </g>
</svg>
