<svg xmlns="http://www.w3.org/2000/svg" width="1230" height="459" viewBox="0 0 1230 459"><defs><radialGradient id="2ysza" cx="194.69" cy="681.87" r="1062.72" gradientUnits="userSpaceOnUse"><stop offset="0" stop-color="#0060ba"/><stop offset="1" stop-color="#02afd4"/></radialGradient><filter id="2yszc" width="176%" height="176%" x="-28%" y="-28%" filterUnits="objectBoundingBox"><feGaussianBlur in="SourceGraphic" result="FeGaussianBlur5033Out" stdDeviation="40 40"/></filter><filter id="2yszd" width="176%" height="176%" x="-28%" y="-28%" filterUnits="objectBoundingBox"><feGaussianBlur in="SourceGraphic" result="FeGaussianBlur5040Out" stdDeviation="40 40"/></filter><clipPath id="2yszb"><path d="M0 10C0 4.477 4.477 0 10 0h1210c5.523 0 10 4.477 10 10v439c0 5.523-4.477 10-10 10H10c-5.523 0-10-4.477-10-10z"/></clipPath></defs><g><g><g opacity=".9"><path fill="url(#2ysza)" d="M0 10C0 4.477 4.477 0 10 0h1210c5.523 0 10 4.477 10 10v439c0 5.523-4.477 10-10 10H10c-5.523 0-10-4.477-10-10z"/></g><g clip-path="url(#2yszb)" filter="url(#2yszc)" opacity=".3"><path fill="#fff" d="M1212.5 733c117.36 0 212.5-95.14 212.5-212.5S1329.86 308 1212.5 308 1000 403.14 1000 520.5 1095.14 733 1212.5 733z"/></g><g clip-path="url(#2yszb)" filter="url(#2yszd)" opacity=".3"><path fill="#10e2ce" d="M82.5 219C199.86 219 295 123.86 295 6.5S199.86-206 82.5-206-130-110.86-130 6.5-34.86 219 82.5 219z"/></g><g clip-path="url(#2yszb)"/><g clip-path="url(#2yszb)" transform="rotate(-45 1126.5 188.5)"><path fill="#5bd5f0" d="M1155.153 176.134h-26.786v-5.357a5.357 5.357 0 0 0-8.328-4.457l-32.143 21.428a5.358 5.358 0 0 0 0 8.915l32.143 21.429a5.357 5.357 0 0 0 8.328-4.458v-5.357h26.786a5.357 5.357 0 0 0 5.357-5.357V181.49a5.357 5.357 0 0 0-5.357-5.357z"/></g></g></g></svg>