<svg xmlns="http://www.w3.org/2000/svg" width="1200" height="504" viewBox="0 0 1200 504"><defs><radialGradient id="ts1oa" cx="1545.44" cy="174.58" r="1830.85" gradientUnits="userSpaceOnUse"><stop offset="0" stop-color="#9a14a4"/><stop offset=".58" stop-color="#050447"/><stop offset="1" stop-color="#050447"/></radialGradient><radialGradient id="ts1od" cx="292.68" cy="619.2" r="348.96" gradientUnits="userSpaceOnUse"><stop offset="0" stop-color="#4600d1"/><stop offset=".5" stop-color="#ac0cc5"/><stop offset="1" stop-color="#fff"/></radialGradient><filter id="ts1oc" width="188%" height="188%" x="-34%" y="-34%" filterUnits="objectBoundingBox"><feGaussianBlur in="SourceGraphic" result="FeGaussianBlur1641Out" stdDeviation="40 40"/></filter><radialGradient id="ts1of" cx="779.14" cy="159.28" r="650.54" gradientUnits="userSpaceOnUse"><stop offset="0" stop-color="#4600d1"/><stop offset=".5" stop-color="#ac0cc5"/><stop offset="1" stop-color="#fff"/></radialGradient><filter id="ts1oe" width="172%" height="172%" x="-26%" y="-26%" filterUnits="objectBoundingBox"><feGaussianBlur in="SourceGraphic" result="FeGaussianBlur1652Out" stdDeviation="50 50"/></filter><radialGradient id="ts1oh" cx="915.7" cy="50.3" r="353.27" gradientUnits="userSpaceOnUse"><stop offset="0" stop-color="#4600d1"/><stop offset=".5" stop-color="#ac0cc5"/><stop offset="1" stop-color="#fff"/></radialGradient><filter id="ts1og" width="200%" height="200%" x="-40%" y="-40%" filterUnits="objectBoundingBox"><feGaussianBlur in="SourceGraphic" result="FeGaussianBlur1663Out" stdDeviation="50 50"/></filter><clipPath id="ts1ob"><path d="M0 10C0 4.477 4.477 0 10 0h1180c5.523 0 10 4.477 10 10v484c0 5.523-4.477 10-10 10H10c-5.523 0-10-4.477-10-10z"/></clipPath></defs><g><g><g><path fill="url(#ts1oa)" d="M0 10C0 4.477 4.477 0 10 0h1180c5.523 0 10 4.477 10 10v484c0 5.523-4.477 10-10 10H10c-5.523 0-10-4.477-10-10z"/><path fill="#0e0d57" fill-opacity=".6" d="M0 10C0 4.477 4.477 0 10 0h1180c5.523 0 10 4.477 10 10v484c0 5.523-4.477 10-10 10H10c-5.523 0-10-4.477-10-10z"/></g><g clip-path="url(#ts1ob)" filter="url(#ts1oc)" opacity=".2"><path fill="url(#ts1od)" d="M453 692c89.47 0 162-72.53 162-162s-72.53-162-162-162-162 72.53-162 162 72.53 162 162 162z"/></g><g clip-path="url(#ts1ob)" filter="url(#ts1oe)" opacity=".2"><path fill="url(#ts1of)" d="M1078 295c166.79 0 302-135.21 302-302s-135.21-302-302-302S776-173.79 776-7s135.21 302 302 302z"/></g><g clip-path="url(#ts1ob)" filter="url(#ts1og)" opacity=".5"><path fill="url(#ts1oh)" d="M1078 124c90.575 0 164-73.425 164-164s-73.425-164-164-164-164 73.425-164 164 73.425 164 164 164z"/></g><g clip-path="url(#ts1ob)"/></g></g></svg>