<svg xmlns="http://www.w3.org/2000/svg" width="20" height="20" viewBox="0 0 20 20"><g><g><path fill="#b7b7b7" d="M16.29 17.616l-.091.22.092.211.22.092.21-.092.093-.21-.101-.22zm.22-1.697l-.311.302.312.294.303-.294zm0-6.478l-.311.294.312.302.303-.302zm0 3.23l-.311.302.312.312.303-.312zm0-1.624l-.311.312.312.302.303-.302zm0 3.248l-.311.302.312.294.303-.294zm-.22-6.386l-.091.202.092.22.22.083.21-.083.093-.22-.092-.202zm-1.963 9.707l-.092.22.092.211.211.092.211-.092.092-.21-.092-.22zm.211-1.697l-.303.302.303.294.303-.294zm0-3.248l-.303.302.303.312.303-.312zm0 1.624l-.303.293.303.303.303-.303zm0-4.854l-.303.294.303.302.303-.302zm0 1.606l-.303.312.303.302.303-.302zm0-2.633l.211-.083.092-.22-.092-.211h-.422l-.092.21.092.22zm-2.183 9.202l-.083.22.083.211.22.092.21-.092.093-.21-.092-.22zm.22-1.697l-.303.302.303.294.303-.294zm0-4.872l-.303.312.303.302.303-.302zm0-1.606l-.303.294.303.302.303-.302zm0 3.23l-.303.302.303.312.303-.312zm0 1.624l-.303.293.303.303.303-.303zm-.22-6.395l-.083.21.092.22.21.084.212-.083.092-.22-.092-.211zm-4.01-4.836l-.294.303v13.836l.294.303.303-.303V3.367zm-2.257 0l-.303.303v13.836l.303.303.303-.303V3.367zm-2.257 0l-.312.303v13.836l.312.303.294-.303V3.367zm7.083 3.68h7.258v12.579h-7.258zM1.867 2.119H10.3v17.204H1.867zm0-1.504H10.3v.899H1.867zm16.91 18.708V6.44l-.312-.303h-1.66V5.12l-.294-.303h-5.597V2.119h.156l.303-.302-.303-.312h-.156V.303L10.611 0H1.565l-.303.303v1.202h-.156l-.303.312.303.302h.156v17.204h-.9l-.302.302.303.303h19.313l.303-.303-.303-.302z"/></g></g></svg>