<svg xmlns="http://www.w3.org/2000/svg" width="24" height="24" viewBox="0 0 24 24">
    <g fill="none" fill-rule="evenodd">
        <g fill="#4ACDED">
            <g>
                <g>
                    <g>
                        <g>
                            <path d="M11.801.049C5.938-.506.702 3.715 0 9.562v4.576c.073 2.765 1.451 5.333 3.716 6.922l.064.053c2.33 1.69 5.143 2.583 8.021 2.547 5.867.555 11.106-3.67 11.806-9.522V9.56C22.901 3.713 17.664-.506 11.801.049zm11.09 9.513c-.454 4.58-4.105 8.189-8.69 8.589l-.967-4.088c1.704-.295 3.168-1.377 3.95-2.92.221-.498.336-1.038.336-1.583-.142-2.088-1.623-3.843-3.657-4.333l1.545-3.981c4.08.771 7.143 4.174 7.483 8.314v.002zm-16.048.543c-.032-.179-.048-.36-.048-.543.334-2.444 2.547-4.183 5-3.93.414.001.827.04 1.233.118v2.134l-.245-.032-.154-.02c-.091-.017-.183-.028-.275-.032l-.138-.011-.42-.011-.414.01-.138.012c-.095.004-.189.015-.282.031l-.153.02-.256.033-.153.032-.25.064-.149.032-.254.073-.128.043-.33.127-.036.01c-.12.045-.238.099-.35.16l-.118.054-.222.116-.128.085-.2.116-.129.086-.18.138-.117.085-.186.148-.095.086c-.082.072-.158.15-.229.233l-.031.021c-.085.088-.165.18-.24.277l-.068.084-.117.151zm9.916 0l-.122-.16-.059-.073c-.073-.097-.153-.19-.238-.276l-.021-.022-.24-.233-.095-.086-.185-.148-.109-.084-.191-.138-.127-.086-.201-.128-.123-.073-.229-.117-.108-.053c-.114-.063-.233-.117-.356-.16l-.038-.013-.34-.127-.126-.043-.101-.031V5.942c1.695.42 2.93 1.879 3.062 3.62-.001.182-.02.363-.053.541v.002zm-9.576.818l.08-.138.084-.138.09-.127.102-.138.095-.118.109-.127.109-.116.121-.129.122-.108.134-.11.127-.108.148-.109.134-.084.158-.096.144-.085.164-.086.149-.074.175-.074.155-.05.19-.075.155-.053.197-.053.159-.043.207-.042.159-.042.223-.032.154-.022.25-.031.132-.011c.128-.01.26-.01.388-.01.127 0 .26 0 .392.01l.128.01.255.032.148.022.223.032.165.042.207.042.154.043.197.053.159.053.185.074.155.065.18.073.143.074.17.086.139.085.164.096.127.085.149.108.127.096.138.117.116.11.129.127.108.11.118.137.096.118.1.138.084.127.09.138.076.138.042.074c-1.033 1.565-2.783 2.506-4.658 2.506-1.875 0-3.625-.941-4.658-2.506l.038-.086zm4.618 3.29c.242.003.483-.011.722-.042l.967 4.088c-.56.074-1.124.11-1.689.109-2.574.03-5.097-.718-7.24-2.144l3.598-3.069c1.085.701 2.351 1.069 3.642 1.057v.002zm0-13.45c.979 0 1.954.107 2.91.318l-1.54 3.97c-.451-.09-.91-.136-1.37-.138-2.853-.258-5.392 1.805-5.723 4.651.004.546.122 1.084.346 1.582.271.592.666 1.12 1.157 1.55l-3.615 3.089C1.98 14.325.781 12.028.716 9.564 1.42 4.113 6.333.211 11.801.76v.002zM.712 14.134V12.83c.663 1.41 1.658 2.637 2.9 3.578v3.664C1.825 18.612.767 16.444.716 14.138l-.004-.003zm3.616 6.497v-3.706c2.228 1.427 4.823 2.176 7.469 2.155.593 0 1.185-.04 1.773-.116v3.865c-.588.076-1.18.115-1.773.116-2.669.03-5.28-.778-7.465-2.311l-.004-.003zm18.558-6.497c-.438 4.553-4.05 8.153-8.605 8.577v-3.854c3.679-.49 6.89-2.74 8.605-6.03v1.307z" transform="translate(-652 -2296) translate(0 202) translate(0 1975) translate(345 104) translate(307 15)"/>
                        </g>
                    </g>
                </g>
            </g>
        </g>
    </g>
</svg>
