<svg xmlns="http://www.w3.org/2000/svg" width="1190" height="160" viewBox="0 0 1190 160"><defs><radialGradient id="5oxda" cx="0" cy="0" r="1200.71" gradientUnits="userSpaceOnUse"><stop offset="0" stop-color="#9a14a4"/><stop offset=".58" stop-color="#050447"/><stop offset="1" stop-color="#050447"/></radialGradient><radialGradient id="5oxdd" cx="-134.89" cy="71.91" r="230.49" gradientUnits="userSpaceOnUse"><stop offset="0" stop-color="#4600d1"/><stop offset=".51" stop-color="#ac0cc5"/><stop offset="1" stop-color="#fff"/></radialGradient><filter id="5oxdc" width="216%" height="216%" x="-48%" y="-48%" filterUnits="objectBoundingBox"><feGaussianBlur in="SourceGraphic" result="FeGaussianBlur1498Out" stdDeviation="40 40"/></filter><radialGradient id="5oxdf" cx="837.62" cy="246.69" r="231.57" gradientUnits="userSpaceOnUse"><stop offset="0" stop-color="#4600d1"/><stop offset=".51" stop-color="#ac0cc5"/><stop offset="1" stop-color="#fff"/></radialGradient><filter id="5oxde" width="216%" height="216%" x="-48%" y="-48%" filterUnits="objectBoundingBox"><feGaussianBlur in="SourceGraphic" result="FeGaussianBlur1509Out" stdDeviation="40 40"/></filter><clipPath id="5oxdb"><path d="M0 10C0 4.477 4.477 0 10 0h1170c5.523 0 10 4.477 10 10v140c0 5.523-4.477 10-10 10H10c-5.523 0-10-4.477-10-10z"/></clipPath></defs><g><g><g><path fill="url(#5oxda)" d="M0 10C0 4.477 4.477 0 10 0h1170c5.523 0 10 4.477 10 10v140c0 5.523-4.477 10-10 10H10c-5.523 0-10-4.477-10-10z"/><path fill="#0e0d57" fill-opacity=".6" d="M0 10C0 4.477 4.477 0 10 0h1170c5.523 0 10 4.477 10 10v140c0 5.523-4.477 10-10 10H10c-5.523 0-10-4.477-10-10z"/></g><g clip-path="url(#5oxdb)" filter="url(#5oxdc)" opacity=".3"><path fill="url(#5oxdd)" d="M-29 120C30.094 120 78 72.094 78 13S30.094-94-29-94-136-46.094-136 13s47.906 107 107 107z"/></g><g clip-path="url(#5oxdb)" filter="url(#5oxde)" opacity=".3"><path fill="url(#5oxdf)" d="M944 295c59.37 0 107.5-48.13 107.5-107.5S1003.37 80 944 80s-107.5 48.13-107.5 107.5S884.63 295 944 295z"/></g><g/></g></g></svg>