<?xml version="1.0" encoding="UTF-8"?>
<svg width="131px" height="4px" viewBox="0 0 131 4" version="1.1" xmlns="http://www.w3.org/2000/svg" xmlns:xlink="http://www.w3.org/1999/xlink">
    <title>C21056B8-F322-482D-AE99-D65B6BAA1284</title>
    <g id="Внутренние" stroke="none" stroke-width="1" fill="none" fill-rule="evenodd">
        <g id="Карьера-1920" transform="translate(-1128.000000, -3365.000000)" fill="#a94fb3">
            <g id="Контент" transform="translate(0.000000, 202.000000)">
                <g id="Варианты" transform="translate(0.000000, 1975.000000)">
                    <g id="10" transform="translate(345.000000, 1152.000000)">
                        <g id="Партнерские-бонусы" transform="translate(639.000000, 0.000000)">
                            <g id="1" transform="translate(144.000000, 7.000000)">
                                <g id="Рейтинг" transform="translate(0.000000, 29.000000)">
                                    <rect id="Rectangle" x="121" y="0" width="10" height="4" rx="1"></rect>
                                    <rect id="Rectangle" x="110" y="0" width="10" height="4" rx="1"></rect>
                                    <rect id="Rectangle" x="99" y="0" width="10" height="4" rx="1"></rect>
                                    <rect id="Rectangle" x="88" y="0" width="10" height="4" rx="1"></rect>
                                    <rect id="Rectangle" x="77" y="0" width="10" height="4" rx="1"></rect>
                                    <rect id="Rectangle" x="66" y="0" width="10" height="4" rx="1"></rect>
                                    <rect id="Rectangle" x="55" y="0" width="10" height="4" rx="1"></rect>
                                    <rect id="Rectangle" x="44" y="0" width="10" height="4" rx="1"></rect>
                                    <rect id="Rectangle" x="33" y="0" width="10" height="4" rx="1"></rect>
                                    <rect id="Rectangle" x="22" y="0" width="10" height="4" rx="1"></rect>
                                    <rect id="Rectangle" x="11" y="0" width="10" height="4" rx="1"></rect>
                                    <rect id="Rectangle" x="0" y="0" width="10" height="4" rx="1"></rect>
                                </g>
                            </g>
                        </g>
                    </g>
                </g>
            </g>
        </g>
    </g>
</svg>