<svg xmlns="http://www.w3.org/2000/svg" width="50" height="50" viewBox="0 0 50 50">
    <defs>
        <radialGradient id="mjkom3p1ba" cx="-6.111%" cy="92.988%" r="130.094%" fx="-6.111%" fy="92.988%">
            <stop offset="0%" stop-color="#FEDB41"/>
            <stop offset="100%" stop-color="#F4CA10"/>
        </radialGradient>
    </defs>
    <g fill="none" fill-rule="evenodd">
        <g>
            <g>
                <g>
                    <g>
                        <g fill="#FEDB41">
                            <path d="M31.208 44.018l1.711 4.702C30.43 49.55 27.768 50 25 50s-5.43-.45-7.919-1.28l1.711-4.702c1.955.637 4.041.982 6.208.982s4.253-.345 6.208-.982zm9.637-6.813l4.1 2.87c-2.816 3.72-6.648 6.627-11.083 8.309l-1.711-4.7c3.464-1.327 6.465-3.59 8.694-6.479zm-31.69 0c2.136 2.77 4.981 4.962 8.263 6.308l.431.17-1.711 4.7c-4.435-1.681-8.267-4.588-11.083-8.308l4.1-2.87zM49.98 26c-.186 4.745-1.696 9.15-4.169 12.857l-.278.41-4.096-2.87c2.068-2.977 3.349-6.543 3.538-10.397h5.005zM5.025 26c.19 3.854 1.47 7.42 3.538 10.398l-4.096 2.868C1.83 35.476.213 30.921.02 26h5.005zm40.964-14.587C48.527 15.325 50 19.99 50 25h-5c0-3.942-1.14-7.618-3.11-10.716l4.1-2.87zm-41.978 0l4.099 2.871C6.14 17.382 5 21.058 5 25H0c0-5.01 1.473-9.675 4.01-13.587zM34.18 1.74c4.4 1.738 8.19 4.689 10.955 8.44l.292.405-4.095 2.87c-2.205-3.113-5.276-5.568-8.863-7.013L34.18 1.74zm-18.362 0l1.711 4.702c-3.587 1.445-6.658 3.9-8.863 7.012l-4.095-2.869C7.36 6.641 11.262 3.54 15.819 1.74zM25 0c2.888 0 5.662.49 8.242 1.39l-1.71 4.701C29.485 5.384 27.287 5 25 5s-4.485.384-6.532 1.091l-1.71-4.7C19.338.49 22.112 0 25 0z" transform="translate(-991 -4972) translate(0 4132) translate(0 332) translate(991 508)"/>
                        </g>
                        <g fill="url(#mjkom3p1ba)" opacity=".4" transform="translate(-991 -4972) translate(0 4132) translate(0 332) translate(991 508) translate(5 5)">
                            <path d="M24.966 35.214l1.37 3.762C24.343 39.64 22.213 40 20 40c-2.214 0-4.344-.36-6.335-1.024l1.369-3.762c1.563.51 3.232.786 4.966.786s3.403-.276 4.966-.786zm7.71-5.45l3.28 2.296c-2.252 2.976-5.318 5.302-8.866 6.647l-1.37-3.76c2.772-1.061 5.173-2.871 6.956-5.183zm-25.352 0c1.709 2.215 3.985 3.97 6.61 5.046l.345.137-1.369 3.76c-3.548-1.345-6.614-3.671-8.866-6.647l3.28-2.296zm32.66-8.964c-.15 3.796-1.356 7.32-3.335 10.286l-.223.327-3.277-2.295c1.655-2.382 2.68-5.235 2.831-8.318h4.004zm-35.964 0c.152 3.083 1.176 5.936 2.83 8.318l-3.276 2.295C1.464 28.381.17 24.737.016 20.8H4.02zM36.79 9.13C38.821 12.26 40 15.993 40 20h-4c0-3.154-.912-6.095-2.488-8.572l3.28-2.297zm-33.582 0l3.279 2.298C4.912 13.905 4 16.846 4 20H0c0-4.008 1.179-7.74 3.209-10.87zm24.136-7.738c3.52 1.39 6.551 3.751 8.764 6.752l.234.324-3.277 2.295c-1.763-2.49-4.22-4.454-7.09-5.61l1.369-3.761zm-14.69 0l1.37 3.761c-2.87 1.156-5.328 3.12-7.091 5.61L3.657 8.468c2.23-3.155 5.352-5.636 8.998-7.076zM20 0c2.31 0 4.53.392 6.594 1.112l-1.368 3.76C23.588 4.308 21.83 4 20 4s-3.588.307-5.226.873l-1.368-3.76C15.471.391 17.69 0 20 0z"/>
                        </g>
                        <g>
                            <path fill="#FEDB41" d="M23.702 2.931c-.238-.168-.555-.172-.795-.01L18.87 5.58c-.156.104-.264.265-.3.448-.037.183.002.373.106.528.232.346.354.75.354 1.168 0 1.164-.946 2.11-2.11 2.11-1.162 0-2.108-.946-2.108-2.11 0-.684.337-1.328.902-1.725.317-.223.394-.66.171-.979L12.576.29c-.262-.376-.89-.376-1.151 0L8.114 5.02c-.223.318-.146.756.171.979.565.397.902 1.042.902 1.725 0 1.164-.946 2.11-2.109 2.11s-2.11-.946-2.11-2.11c0-.418.123-.821.355-1.168.104-.155.143-.345.106-.528-.036-.183-.144-.344-.3-.448L1.093 2.92c-.241-.16-.557-.157-.795.011-.237.168-.347.463-.277.745l2.859 11.25c.088.354.431.591.798.523 5.523-.92 11.12-.92 16.644 0 .039.007.078.01.116.01.317 0 .602-.216.682-.533l2.86-11.25c.07-.282-.04-.578-.278-.745z" transform="translate(-991 -4972) translate(0 4132) translate(0 332) translate(991 508) translate(13 16)"/>
                            <path fill="#C6A62B" d="M12 13c3.333 0 6.493.404 9.324 1.128l-.204.798c-.08.317-.365.533-.683.533-.037 0-.076-.003-.115-.01-5.523-.92-11.12-.92-16.644 0-.367.068-.71-.169-.798-.523l-.204-.798C5.507 13.404 8.667 13 12 13z" transform="translate(-991 -4972) translate(0 4132) translate(0 332) translate(991 508) translate(13 16)"/>
                        </g>
                    </g>
                </g>
            </g>
        </g>
    </g>
</svg>
