<svg xmlns="http://www.w3.org/2000/svg" width="1920" height="1282" viewBox="0 0 1920 1282"><defs><radialGradient id="yp80c" cx="281.9" cy="1827.88" r="1016.73" gradientUnits="userSpaceOnUse"><stop offset="0" stop-color="#4600d1"/><stop offset=".5" stop-color="#ac0cc5"/><stop offset="1" stop-color="#fff"/></radialGradient><filter id="yp80b" width="160%" height="160%" x="-20%" y="-20%" filterUnits="objectBoundingBox"><feGaussianBlur in="SourceGraphic" result="FeGaussianBlur4506Out" stdDeviation="50 50"/></filter><radialGradient id="yp80e" cx="495.66" cy="1656.95" r="551.45" gradientUnits="userSpaceOnUse"><stop offset="0" stop-color="#4600d1"/><stop offset=".5" stop-color="#ac0cc5"/><stop offset="1" stop-color="#fff"/></radialGradient><filter id="yp80d" width="180%" height="180%" x="-30%" y="-30%" filterUnits="objectBoundingBox"><feGaussianBlur in="SourceGraphic" result="FeGaussianBlur4517Out" stdDeviation="50 50"/></filter><radialGradient id="yp80g" cx="115.14" cy="137.28" r="650.54" gradientUnits="userSpaceOnUse"><stop offset="0" stop-color="#4600d1"/><stop offset=".5" stop-color="#ac0cc5"/><stop offset="1" stop-color="#fff"/></radialGradient><filter id="yp80f" width="172%" height="172%" x="-26%" y="-26%" filterUnits="objectBoundingBox"><feGaussianBlur in="SourceGraphic" result="FeGaussianBlur4528Out" stdDeviation="50 50"/></filter><radialGradient id="yp80i" cx="251.7" cy="28.3" r="353.27" gradientUnits="userSpaceOnUse"><stop offset="0" stop-color="#4600d1"/><stop offset=".5" stop-color="#ac0cc5"/><stop offset="1" stop-color="#fff"/></radialGradient><filter id="yp80h" width="200%" height="200%" x="-40%" y="-40%" filterUnits="objectBoundingBox"><feGaussianBlur in="SourceGraphic" result="FeGaussianBlur4539Out" stdDeviation="50 50"/></filter><filter id="yp80j" width="176%" height="176%" x="-28%" y="-28%" filterUnits="objectBoundingBox"><feGaussianBlur in="SourceGraphic" result="FeGaussianBlur4546Out" stdDeviation="50 50"/></filter><filter id="yp80k" width="220%" height="220%" x="-50%" y="-50%" filterUnits="objectBoundingBox"><feGaussianBlur in="SourceGraphic" result="FeGaussianBlur4553Out" stdDeviation="50 50"/></filter><clipPath id="yp80a"><path d="M0 0h1920v1282H0z"/></clipPath></defs><g><g><g><path fill="#050447" d="M0 0h1920v1282H0z"/></g><g clip-path="url(#yp80a)" filter="url(#yp80b)" opacity=".2"><path fill="url(#yp80c)" d="M749 2040c260.678 0 472-211.322 472-472s-211.322-472-472-472-472 211.322-472 472 211.322 472 472 472z"/></g><g clip-path="url(#yp80a)" filter="url(#yp80d)" opacity=".5"><path fill="url(#yp80e)" d="M749 1772c141.385 0 256-114.615 256-256s-114.615-256-256-256-256 114.615-256 256 114.615 256 256 256z"/></g><g clip-path="url(#yp80a)" filter="url(#yp80f)" opacity=".2"><path fill="url(#yp80g)" d="M414 273c166.79 0 302-135.21 302-302S580.79-331 414-331 112-195.79 112-29s135.21 302 302 302z"/></g><g clip-path="url(#yp80a)" filter="url(#yp80h)" opacity=".5"><path fill="url(#yp80i)" d="M414 102c90.575 0 164-73.425 164-164s-73.425-164-164-164-164 73.425-164 164 73.425 164 164 164z"/></g><g clip-path="url(#yp80a)" filter="url(#yp80j)" opacity=".5"><path fill="#0fb6e9" d="M1494 123c150.774 0 273-118.197 273-264s-122.226-264-273-264-273 118.197-273 264 122.226 264 273 264z"/></g><g clip-path="url(#yp80a)" filter="url(#yp80k)" opacity=".5"><path fill="#0fb6e9" d="M1513-59c70.692 0 128-55.517 128-124s-57.308-124-128-124c-70.692 0-128 55.517-128 124s57.308 124 128 124z"/></g><g clip-path="url(#yp80a)"/></g></g></svg>