<svg xmlns="http://www.w3.org/2000/svg" width="344" height="180" viewBox="0 0 344 180"><defs><radialGradient id="5gm3a" cx="172" cy="215.24" r="388.25" gradientUnits="userSpaceOnUse"><stop offset="0" stop-color="#9a14a4"/><stop offset=".36" stop-color="#9814a2"/><stop offset=".58" stop-color="#050447"/><stop offset="1" stop-color="#050447"/></radialGradient><radialGradient id="5gm3d" cx="-114.39" cy="105.91" r="230.49" gradientUnits="userSpaceOnUse"><stop offset="0" stop-color="#4600d1"/><stop offset=".51" stop-color="#ac0cc5"/><stop offset="1" stop-color="#fff"/></radialGradient><filter id="5gm3c" width="216%" height="216%" x="-48%" y="-48%" filterUnits="objectBoundingBox"><feGaussianBlur in="SourceGraphic" result="FeGaussianBlur4257Out" stdDeviation="40 40"/></filter><radialGradient id="5gm3f" cx="225.12" cy="338.69" r="231.57" gradientUnits="userSpaceOnUse"><stop offset="0" stop-color="#4600d1"/><stop offset=".51" stop-color="#ac0cc5"/><stop offset="1" stop-color="#fff"/></radialGradient><filter id="5gm3e" width="216%" height="216%" x="-48%" y="-48%" filterUnits="objectBoundingBox"><feGaussianBlur in="SourceGraphic" result="FeGaussianBlur4268Out" stdDeviation="40 40"/></filter><clipPath id="5gm3b"><path d="M0 160c0 5.523 4.477 10 10 10h154.037L173 180l9.485-10H334c5.523 0 10-4.477 10-10V10c0-5.523-4.477-10-10-10H10C4.477 0 0 4.477 0 10z"/></clipPath></defs><g><g><g><path fill="url(#5gm3a)" d="M0 160c0 5.523 4.477 10 10 10h154.037L173 180l9.485-10H334c5.523 0 10-4.477 10-10V10c0-5.523-4.477-10-10-10H10C4.477 0 0 4.477 0 10z"/><path fill="#0e0d57" fill-opacity=".6" d="M0 160c0 5.523 4.477 10 10 10h154.037L173 180l9.485-10H334c5.523 0 10-4.477 10-10V10c0-5.523-4.477-10-10-10H10C4.477 0 0 4.477 0 10z"/></g><g clip-path="url(#5gm3b)" filter="url(#5gm3c)" opacity=".3"><path fill="url(#5gm3d)" d="M-8.5 154c59.094 0 107-47.906 107-107S50.594-60-8.5-60s-107 47.906-107 107 47.906 107 107 107z"/></g><g clip-path="url(#5gm3b)" filter="url(#5gm3e)" opacity=".3"><path fill="url(#5gm3f)" d="M331.5 387c59.37 0 107.5-48.13 107.5-107.5S390.87 172 331.5 172 224 220.13 224 279.5 272.13 387 331.5 387z"/></g><g/></g></g></svg>