<svg xmlns="http://www.w3.org/2000/svg" width="252" height="320" viewBox="0 0 252 320"><defs><radialGradient id="pqoja" cx="0" cy="0" r="407.31" gradientUnits="userSpaceOnUse"><stop offset="0" stop-color="#9a14a4"/><stop offset=".58" stop-color="#050447"/><stop offset="1" stop-color="#050447"/></radialGradient><radialGradient id="pqojd" cx="-112.39" cy="172.91" r="230.49" gradientUnits="userSpaceOnUse"><stop offset="0" stop-color="#4600d1"/><stop offset=".5" stop-color="#ac0cc5"/><stop offset="1" stop-color="#fff"/></radialGradient><filter id="pqojc" width="216%" height="216%" x="-48%" y="-48%" filterUnits="objectBoundingBox"><feGaussianBlur in="SourceGraphic" result="FeGaussianBlur1273Out" stdDeviation="40 40"/></filter><radialGradient id="pqojf" cx="154.12" cy="293.69" r="231.57" gradientUnits="userSpaceOnUse"><stop offset="0" stop-color="#4600d1"/><stop offset=".51" stop-color="#ac0cc5"/><stop offset="1" stop-color="#fff"/></radialGradient><filter id="pqoje" width="216%" height="216%" x="-48%" y="-48%" filterUnits="objectBoundingBox"><feGaussianBlur in="SourceGraphic" result="FeGaussianBlur1284Out" stdDeviation="40 40"/></filter><clipPath id="pqojb"><path d="M0 10C0 4.477 4.477 0 10 0h232c5.523 0 10 4.477 10 10v300c0 5.523-4.477 10-10 10H10c-5.523 0-10-4.477-10-10z"/></clipPath></defs><g><g><g><path fill="url(#pqoja)" d="M0 10C0 4.477 4.477 0 10 0h232c5.523 0 10 4.477 10 10v300c0 5.523-4.477 10-10 10H10c-5.523 0-10-4.477-10-10z"/><path fill="#0e0d57" fill-opacity=".6" d="M0 10C0 4.477 4.477 0 10 0h232c5.523 0 10 4.477 10 10v300c0 5.523-4.477 10-10 10H10c-5.523 0-10-4.477-10-10z"/></g><g clip-path="url(#pqojb)" filter="url(#pqojc)" opacity=".3"><path fill="url(#pqojd)" d="M-6.5 221c59.094 0 107-47.906 107-107S52.594 7-6.5 7s-107 47.906-107 107 47.906 107 107 107z"/></g><g clip-path="url(#pqojb)" filter="url(#pqoje)" opacity=".3"><path fill="url(#pqojf)" d="M260.5 342c59.37 0 107.5-48.13 107.5-107.5S319.87 127 260.5 127 153 175.13 153 234.5 201.13 342 260.5 342z"/></g><g/></g></g></svg>