<svg xmlns="http://www.w3.org/2000/svg" width="304" height="287" viewBox="0 0 304 287"><defs><filter id="ymd1b" width="216%" height="216%" x="-48%" y="-48%" filterUnits="objectBoundingBox"><feGaussianBlur in="SourceGraphic" result="FeGaussianBlur5138Out" stdDeviation="40 40"/></filter><filter id="ymd1c" width="216%" height="216%" x="-48%" y="-48%" filterUnits="objectBoundingBox"><feGaussianBlur in="SourceGraphic" result="FeGaussianBlur5145Out" stdDeviation="40 40"/></filter><clipPath id="ymd1a"><path d="M0 10C0 4.477 4.477 0 10 0h284c5.523 0 10 4.477 10 10v267c0 5.523-4.477 10-10 10H10c-5.523 0-10-4.477-10-10z"/></clipPath></defs><g><g><g><path fill="#050447" d="M0 10C0 4.477 4.477 0 10 0h284c5.523 0 10 4.477 10 10v267c0 5.523-4.477 10-10 10H10c-5.523 0-10-4.477-10-10z"/></g><g clip-path="url(#ymd1a)" filter="url(#ymd1b)" opacity=".2"><path fill="#0fbce7" d="M303.5 376c59.37 0 107.5-48.13 107.5-107.5S362.87 161 303.5 161 196 209.13 196 268.5 244.13 376 303.5 376z"/></g><g clip-path="url(#ymd1a)" filter="url(#ymd1c)" opacity=".3"><path fill="#0fbce7" d="M32.5 136c59.094 0 107-47.906 107-107S91.594-78 32.5-78s-107 47.906-107 107 47.906 107 107 107z"/></g><g clip-path="url(#ymd1a)"/></g></g></svg>