<svg xmlns="http://www.w3.org/2000/svg" width="406" height="210" viewBox="0 0 406 210"><defs><filter id="duw5b" width="216%" height="216%" x="-48%" y="-48%" filterUnits="objectBoundingBox"><feGaussianBlur in="SourceGraphic" result="FeGaussianBlur1023Out" stdDeviation="40 40"/></filter><filter id="duw5c" width="216%" height="216%" x="-48%" y="-48%" filterUnits="objectBoundingBox"><feGaussianBlur in="SourceGraphic" result="FeGaussianBlur1030Out" stdDeviation="40 40"/></filter><clipPath id="duw5a"><path d="M0 10C0 4.477 4.477 0 10 0h386c5.523 0 10 4.477 10 10v190c0 5.523-4.477 10-10 10H10c-5.523 0-10-4.477-10-10z"/></clipPath></defs><g><g><g><path fill="#050447" d="M0 10C0 4.477 4.477 0 10 0h386c5.523 0 10 4.477 10 10v190c0 5.523-4.477 10-10 10H10c-5.523 0-10-4.477-10-10z"/></g><g clip-path="url(#duw5a)" filter="url(#duw5b)" opacity=".3"><path fill="#0fbce7" d="M56.5 137c59.094 0 107-47.906 107-107S115.594-77 56.5-77s-107 47.906-107 107 47.906 107 107 107z"/></g><g clip-path="url(#duw5a)" filter="url(#duw5c)" opacity=".3"><path fill="#0fbce7" d="M351.5 318c59.37 0 107.5-48.13 107.5-107.5S410.87 103 351.5 103 244 151.13 244 210.5 292.13 318 351.5 318z"/></g><g/></g></g></svg>