<svg xmlns="http://www.w3.org/2000/svg" width="305" height="287" viewBox="0 0 305 287"><defs><radialGradient id="1dmoa" cx="392.8" cy="99.42" r="498.46" gradientUnits="userSpaceOnUse"><stop offset="0" stop-color="#9a14a4"/><stop offset=".58" stop-color="#050447"/><stop offset="1" stop-color="#050447"/></radialGradient><radialGradient id="1dmod" cx="188.12" cy="312.69" r="231.57" gradientUnits="userSpaceOnUse"><stop offset="0" stop-color="#4600d1"/><stop offset=".5" stop-color="#ac0cc5"/><stop offset="1" stop-color="#fff"/></radialGradient><filter id="1dmoc" width="216%" height="216%" x="-48%" y="-48%" filterUnits="objectBoundingBox"><feGaussianBlur in="SourceGraphic" result="FeGaussianBlur5076Out" stdDeviation="40 40"/></filter><radialGradient id="1dmof" cx="-106.39" cy="150.91" r="230.49" gradientUnits="userSpaceOnUse"><stop offset="0" stop-color="#4600d1"/><stop offset=".5" stop-color="#ac0cc5"/><stop offset="1" stop-color="#fff"/></radialGradient><filter id="1dmoe" width="216%" height="216%" x="-48%" y="-48%" filterUnits="objectBoundingBox"><feGaussianBlur in="SourceGraphic" result="FeGaussianBlur5087Out" stdDeviation="40 40"/></filter><clipPath id="1dmob"><path d="M0 10C0 4.477 4.477 0 10 0h285c5.523 0 10 4.477 10 10v267c0 5.523-4.477 10-10 10H10c-5.523 0-10-4.477-10-10z"/></clipPath></defs><g><g><g><path fill="url(#1dmoa)" d="M0 10C0 4.477 4.477 0 10 0h285c5.523 0 10 4.477 10 10v267c0 5.523-4.477 10-10 10H10c-5.523 0-10-4.477-10-10z"/><path fill="#0e0d57" fill-opacity=".6" d="M0 10C0 4.477 4.477 0 10 0h285c5.523 0 10 4.477 10 10v267c0 5.523-4.477 10-10 10H10c-5.523 0-10-4.477-10-10z"/></g><g clip-path="url(#1dmob)" filter="url(#1dmoc)" opacity=".2"><path fill="url(#1dmod)" d="M294.5 361c59.37 0 107.5-48.13 107.5-107.5S353.87 146 294.5 146 187 194.13 187 253.5 235.13 361 294.5 361z"/></g><g clip-path="url(#1dmob)" filter="url(#1dmoe)" opacity=".3"><path fill="url(#1dmof)" d="M-.5 199c59.094 0 107-47.906 107-107S58.594-15-.5-15s-107 47.906-107 107 47.906 107 107 107z"/></g><g clip-path="url(#1dmob)"/></g></g></svg>