<svg xmlns="http://www.w3.org/2000/svg" width="201" height="210" viewBox="0 0 201 210"><defs><radialGradient id="5b9wa" cx="0" cy="0" r="290.69" gradientUnits="userSpaceOnUse"><stop offset="0" stop-color="#9a14a4"/><stop offset=".58" stop-color="#050447"/><stop offset="1" stop-color="#050447"/></radialGradient><radialGradient id="5b9wd" cx="-5.39" cy="307.91" r="230.49" gradientUnits="userSpaceOnUse"><stop offset="0" stop-color="#4600d1"/><stop offset=".5" stop-color="#ac0cc5"/><stop offset="1" stop-color="#fff"/></radialGradient><filter id="5b9wc" width="216%" height="216%" x="-48%" y="-48%" filterUnits="objectBoundingBox"><feGaussianBlur in="SourceGraphic" result="FeGaussianBlur1061Out" stdDeviation="40 40"/></filter><radialGradient id="5b9wf" cx="27.12" cy="56.69" r="231.57" gradientUnits="userSpaceOnUse"><stop offset="0" stop-color="#4600d1"/><stop offset=".51" stop-color="#ac0cc5"/><stop offset="1" stop-color="#fff"/></radialGradient><filter id="5b9we" width="216%" height="216%" x="-48%" y="-48%" filterUnits="objectBoundingBox"><feGaussianBlur in="SourceGraphic" result="FeGaussianBlur1072Out" stdDeviation="40 40"/></filter><clipPath id="5b9wb"><path d="M0 10C0 4.477 4.477 0 10 0h181c5.523 0 10 4.477 10 10v190c0 5.523-4.477 10-10 10H10c-5.523 0-10-4.477-10-10z"/></clipPath></defs><g><g><g><path fill="url(#5b9wa)" d="M0 10C0 4.477 4.477 0 10 0h181c5.523 0 10 4.477 10 10v190c0 5.523-4.477 10-10 10H10c-5.523 0-10-4.477-10-10z"/><path fill="#0e0d57" fill-opacity=".6" d="M0 10C0 4.477 4.477 0 10 0h181c5.523 0 10 4.477 10 10v190c0 5.523-4.477 10-10 10H10c-5.523 0-10-4.477-10-10z"/></g><g clip-path="url(#5b9wb)" filter="url(#5b9wc)" opacity=".3"><path fill="url(#5b9wd)" d="M100.5 356c59.094 0 107-47.906 107-107s-47.906-107-107-107-107 47.906-107 107 47.906 107 107 107z"/></g><g clip-path="url(#5b9wb)" filter="url(#5b9we)" opacity=".3"><path fill="url(#5b9wf)" d="M133.5 105C192.87 105 241 56.87 241-2.5S192.87-110 133.5-110 26-61.87 26-2.5 74.13 105 133.5 105z"/></g><g/></g></g></svg>