<svg xmlns="http://www.w3.org/2000/svg" width="344" height="180" viewBox="0 0 344 180"><defs><radialGradient id="nuaaa" cx="344" cy="0" r="388.25" gradientUnits="userSpaceOnUse"><stop offset="0" stop-color="#4b50d1"/><stop offset=".58" stop-color="#050447"/><stop offset="1" stop-color="#050447"/></radialGradient><filter id="nuaac" width="232%" height="232%" x="-56%" y="-56%" filterUnits="objectBoundingBox"><feGaussianBlur in="SourceGraphic" result="FeGaussianBlur4132Out" stdDeviation="50 50"/></filter><filter id="nuaad" width="216%" height="216%" x="-48%" y="-48%" filterUnits="objectBoundingBox"><feGaussianBlur in="SourceGraphic" result="FeGaussianBlur4139Out" stdDeviation="40 40"/></filter><clipPath id="nuaab"><path d="M0 20c0-5.523 4.477-10 10-10h154.037L173 0l9.485 10H334c5.523 0 10 4.477 10 10v150c0 5.523-4.477 10-10 10H10c-5.523 0-10-4.477-10-10z"/></clipPath></defs><g><g><g><path fill="url(#nuaaa)" d="M0 20c0-5.523 4.477-10 10-10h154.037L173 0l9.485 10H334c5.523 0 10 4.477 10 10v150c0 5.523-4.477 10-10 10H10c-5.523 0-10-4.477-10-10z"/><path fill="#0e0d57" fill-opacity=".6" d="M0 20c0-5.523 4.477-10 10-10h154.037L173 0l9.485 10H334c5.523 0 10 4.477 10 10v150c0 5.523-4.477 10-10 10H10c-5.523 0-10-4.477-10-10z"/></g><g clip-path="url(#nuaab)" filter="url(#nuaac)" opacity=".3"><path fill="#0fbce7" d="M179.5 330c59.094 0 107-47.906 107-107s-47.906-107-107-107-107 47.906-107 107 47.906 107 107 107z"/></g><g clip-path="url(#nuaab)" filter="url(#nuaad)" opacity=".3"><path fill="#0fbce7" d="M88.5 64C147.87 64 196 15.87 196-43.5S147.87-151 88.5-151-19-102.87-19-43.5 29.13 64 88.5 64z"/></g><g/></g></g></svg>