<svg xmlns="http://www.w3.org/2000/svg" width="252" height="320" viewBox="0 0 252 320"><defs><radialGradient id="u3lja" cx="252" cy="0" r="407.31" gradientUnits="userSpaceOnUse"><stop offset="0" stop-color="#4b50d1"/><stop offset=".58" stop-color="#050447"/><stop offset="1" stop-color="#050447"/></radialGradient><filter id="u3ljc" width="232%" height="232%" x="-56%" y="-56%" filterUnits="objectBoundingBox"><feGaussianBlur in="SourceGraphic" result="FeGaussianBlur1235Out" stdDeviation="50 50"/></filter><filter id="u3ljd" width="216%" height="216%" x="-48%" y="-48%" filterUnits="objectBoundingBox"><feGaussianBlur in="SourceGraphic" result="FeGaussianBlur1242Out" stdDeviation="40 40"/></filter><clipPath id="u3ljb"><path d="M0 10C0 4.477 4.477 0 10 0h232c5.523 0 10 4.477 10 10v300c0 5.523-4.477 10-10 10H10c-5.523 0-10-4.477-10-10z"/></clipPath></defs><g><g><g><path fill="url(#u3lja)" d="M0 10C0 4.477 4.477 0 10 0h232c5.523 0 10 4.477 10 10v300c0 5.523-4.477 10-10 10H10c-5.523 0-10-4.477-10-10z"/><path fill="#0e0d57" fill-opacity=".6" d="M0 10C0 4.477 4.477 0 10 0h232c5.523 0 10 4.477 10 10v300c0 5.523-4.477 10-10 10H10c-5.523 0-10-4.477-10-10z"/></g><g clip-path="url(#u3ljb)" filter="url(#u3ljc)" opacity=".3"><path fill="#0fbce7" d="M-6.5 221c59.094 0 107-47.906 107-107S52.594 7-6.5 7s-107 47.906-107 107 47.906 107 107 107z"/></g><g clip-path="url(#u3ljb)" filter="url(#u3ljd)" opacity=".3"><path fill="#0fbce7" d="M135.5 443c59.37 0 107.5-48.13 107.5-107.5S194.87 228 135.5 228 28 276.13 28 335.5 76.13 443 135.5 443z"/></g><g/></g></g></svg>