<svg xmlns="http://www.w3.org/2000/svg" width="394" height="326" viewBox="0 0 394 326"><defs><radialGradient id="y6tza" cx="243.93" cy="-90.81" r="494.89" gradientUnits="userSpaceOnUse"><stop offset="0" stop-color="#4b50d1"/><stop offset=".58" stop-color="#050447"/><stop offset="1" stop-color="#050447"/></radialGradient><filter id="y6tzc" width="216%" height="216%" x="-48%" y="-48%" filterUnits="objectBoundingBox"><feGaussianBlur in="SourceGraphic" result="FeGaussianBlur1252Out" stdDeviation="40 40"/></filter><filter id="y6tzd" width="216%" height="216%" x="-48%" y="-48%" filterUnits="objectBoundingBox"><feGaussianBlur in="SourceGraphic" result="FeGaussianBlur1259Out" stdDeviation="40 40"/></filter><clipPath id="y6tzf"><path fill="#fff" d="M401 253v-16h15v16zm7.5-4.49a3.5 3.5 0 1 0 0-7 3.5 3.5 0 0 0 0 7z"/></clipPath><clipPath id="y6tzg"><path fill="#fff" d="M408.5 248.51a3.5 3.5 0 1 0 0-7 3.5 3.5 0 0 0 0 7z"/></clipPath><clipPath id="y6tzh"><path fill="#fff" d="M449 279v-16h15v16zm7.5-4.49a3.5 3.5 0 1 0 0-7 3.5 3.5 0 0 0 0 7z"/></clipPath><clipPath id="y6tzi"><path fill="#fff" d="M456.5 274.51a3.5 3.5 0 1 0 0-7 3.5 3.5 0 0 0 0 7z"/></clipPath><clipPath id="y6tzj"><path fill="#fff" d="M750 181v-16h15v16zm7.5-4.49a3.5 3.5 0 1 0 0-7 3.5 3.5 0 0 0 0 7z"/></clipPath><clipPath id="y6tzk"><path fill="#fff" d="M757.5 176.51a3.5 3.5 0 1 0 0-7 3.5 3.5 0 0 0 0 7z"/></clipPath><clipPath id="y6tzl"><path fill="#fff" d="M346 326v-16h15v16zm7.5-4.49a3.5 3.5 0 1 0 0-7 3.5 3.5 0 0 0 0 7z"/></clipPath><clipPath id="y6tzm"><path fill="#fff" d="M353.5 321.51a3.5 3.5 0 1 0 0-7 3.5 3.5 0 0 0 0 7z"/></clipPath><clipPath id="y6tzn"><path fill="#fff" d="M296 297v-16h15v16zm7.5-4.49a3.5 3.5 0 1 0 0-7 3.5 3.5 0 0 0 0 7z"/></clipPath><clipPath id="y6tzo"><path fill="#fff" d="M303.5 292.51a3.5 3.5 0 1 0 0-7 3.5 3.5 0 0 0 0 7z"/></clipPath><clipPath id="y6tzp"><path fill="#fff" d="M262 340v-16h15v16zm7.5-4.49a3.5 3.5 0 1 0 0-7 3.5 3.5 0 0 0 0 7z"/></clipPath><clipPath id="y6tzq"><path fill="#fff" d="M269.5 335.51a3.5 3.5 0 1 0 0-7 3.5 3.5 0 0 0 0 7z"/></clipPath><clipPath id="y6tzr"><path fill="#fff" d="M49 340v-15h15v15zm7.5-4a3.5 3.5 0 1 0 0-7 3.5 3.5 0 0 0 0 7z"/></clipPath><clipPath id="y6tzs"><path fill="#fff" d="M56.5 336a3.5 3.5 0 1 0 0-7 3.5 3.5 0 0 0 0 7z"/></clipPath><clipPath id="y6tzt"><path fill="#fff" d="M-159 340v-15h15v15zm7.5-4a3.5 3.5 0 1 0 0-7 3.5 3.5 0 0 0 0 7z"/></clipPath><clipPath id="y6tzu"><path fill="#fff" d="M-151.5 336a3.5 3.5 0 1 0 0-7 3.5 3.5 0 0 0 0 7z"/></clipPath><clipPath id="y6tzv"><path fill="#fff" d="M-367 340v-16h15v16zm7.5-4.49a3.5 3.5 0 1 0 0-7 3.5 3.5 0 0 0 0 7z"/></clipPath><clipPath id="y6tzw"><path fill="#fff" d="M-359.5 335.51a3.5 3.5 0 1 0 0-7 3.5 3.5 0 0 0 0 7z"/></clipPath><clipPath id="y6tzb"><path d="M384 0c5.523 0 10 4.477 10 10v296c0 5.43-4.327 9.848-9.72 9.996L384 316H206.485L197 326l-8.963-10H10c-5.43 0-9.848-4.327-9.996-9.72L0 306V10C0 4.57 4.327.152 9.72.004L10 0z"/></clipPath><clipPath id="y6tze"><path d="M0 10C0 4.477 4.477 0 10 0h374c5.523 0 10 4.477 10 10v296c0 5.523-4.477 10-10 10H10c-5.523 0-10-4.477-10-10z"/></clipPath></defs><g><g><g><path fill="url(#y6tza)" d="M384 0c5.523 0 10 4.477 10 10v296c0 5.43-4.327 9.848-9.72 9.996L384 316H206.485L197 326l-8.963-10H10c-5.43 0-9.848-4.327-9.996-9.72L0 306V10C0 4.57 4.327.152 9.72.004L10 0z"/><path fill="#0e0d57" fill-opacity=".6" d="M384 0c5.523 0 10 4.477 10 10v296c0 5.43-4.327 9.848-9.72 9.996L384 316H206.485L197 326l-8.963-10H10c-5.43 0-9.848-4.327-9.996-9.72L0 306V10C0 4.57 4.327.152 9.72.004L10 0z"/></g><g clip-path="url(#y6tzb)" filter="url(#y6tzc)" opacity=".3"><path fill="#0fbce7" d="M470 463c59.094 0 107-47.906 107-107s-47.906-107-107-107-107 47.906-107 107 47.906 107 107 107z"/></g><g clip-path="url(#y6tzb)" filter="url(#y6tzd)" opacity=".3"><path fill="#0fbce7" d="M6 350c59.37 0 107.5-48.13 107.5-107.5S65.37 135 6 135s-107.5 48.13-107.5 107.5S-53.37 350 6 350z"/></g><g/><g clip-path="url(#y6tze)"><g opacity=".3"><path fill="none" stroke="#fff" stroke-miterlimit="20" stroke-width=".5" d="M-365 332.51v0h635v0l32.54-43.412v0L354 318.315v0l52.5-72.805v0l48.5 26.167v0L578.643 87.51v0l179.751 86v0L913-40v0"/></g><g><path fill="#0b185c" d="M408.5 248.51a3.5 3.5 0 1 0 0-7 3.5 3.5 0 0 0 0 7z"/><path fill="none" stroke="#0b185c" stroke-miterlimit="20" stroke-width="8" d="M408.5 248.51a3.5 3.5 0 1 0 0-7 3.5 3.5 0 0 0 0 7z" clip-path="url(&quot;#y6tzf&quot;)"/><path fill="none" stroke="#11dadc" stroke-miterlimit="20" stroke-width="2" d="M408.5 248.51a3.5 3.5 0 1 0 0-7 3.5 3.5 0 0 0 0 7z" clip-path="url(&quot;#y6tzg&quot;)"/></g><g><path fill="#0f296b" d="M456.5 274.51a3.5 3.5 0 1 0 0-7 3.5 3.5 0 0 0 0 7z"/><path fill="none" stroke="#0f296b" stroke-miterlimit="20" stroke-width="8" d="M456.5 274.51a3.5 3.5 0 1 0 0-7 3.5 3.5 0 0 0 0 7z" clip-path="url(&quot;#y6tzh&quot;)"/><path fill="none" stroke="#cf44fb" stroke-miterlimit="20" stroke-width="2" d="M456.5 274.51a3.5 3.5 0 1 0 0-7 3.5 3.5 0 0 0 0 7z" clip-path="url(&quot;#y6tzi&quot;)"/></g><g><path fill="#0e0c56" d="M757.5 176.51a3.5 3.5 0 1 0 0-7 3.5 3.5 0 0 0 0 7z"/><path fill="none" stroke="#0c0d56" stroke-miterlimit="20" stroke-width="8" d="M757.5 176.51a3.5 3.5 0 1 0 0-7 3.5 3.5 0 0 0 0 7z" clip-path="url(&quot;#y6tzj&quot;)"/><path fill="none" stroke="#cf44fb" stroke-miterlimit="20" stroke-width="2" d="M757.5 176.51a3.5 3.5 0 1 0 0-7 3.5 3.5 0 0 0 0 7z" clip-path="url(&quot;#y6tzk&quot;)"/></g><g><path fill="#18065a" d="M353.5 321.51a3.5 3.5 0 1 0 0-7 3.5 3.5 0 0 0 0 7z"/><path fill="none" stroke="#18065a" stroke-miterlimit="20" stroke-width="8" d="M353.5 321.51a3.5 3.5 0 1 0 0-7 3.5 3.5 0 0 0 0 7z" clip-path="url(&quot;#y6tzl&quot;)"/><path fill="none" stroke="#cf44fb" stroke-miterlimit="20" stroke-width="2" d="M353.5 321.51a3.5 3.5 0 1 0 0-7 3.5 3.5 0 0 0 0 7z" clip-path="url(&quot;#y6tzm&quot;)"/></g><g><path fill="#0a0b53" d="M303.5 292.51a3.5 3.5 0 1 0 0-7 3.5 3.5 0 0 0 0 7z"/><path fill="none" stroke="#0a0b53" stroke-miterlimit="20" stroke-width="8" d="M303.5 292.51a3.5 3.5 0 1 0 0-7 3.5 3.5 0 0 0 0 7z" clip-path="url(&quot;#y6tzn&quot;)"/><path fill="none" stroke="#11dadc" stroke-miterlimit="20" stroke-width="2" d="M303.5 292.51a3.5 3.5 0 1 0 0-7 3.5 3.5 0 0 0 0 7z" clip-path="url(&quot;#y6tzo&quot;)"/></g><g><path fill="#110554" d="M269.5 335.51a3.5 3.5 0 1 0 0-7 3.5 3.5 0 0 0 0 7z"/><path fill="none" stroke="#110554" stroke-miterlimit="20" stroke-width="8" d="M269.5 335.51a3.5 3.5 0 1 0 0-7 3.5 3.5 0 0 0 0 7z" clip-path="url(&quot;#y6tzp&quot;)"/><path fill="none" stroke="#9d9dc5" stroke-miterlimit="20" stroke-width="2" d="M269.5 335.51a3.5 3.5 0 1 0 0-7 3.5 3.5 0 0 0 0 7z" clip-path="url(&quot;#y6tzq&quot;)"/></g><g><path fill="#050447" d="M56.5 336a3.5 3.5 0 1 0 0-7 3.5 3.5 0 0 0 0 7z"/><path fill="none" stroke="#050447" stroke-miterlimit="20" stroke-width="8" d="M56.5 336a3.5 3.5 0 1 0 0-7 3.5 3.5 0 0 0 0 7z" clip-path="url(&quot;#y6tzr&quot;)"/><path fill="none" stroke="#9d9dc5" stroke-miterlimit="20" stroke-width="2" d="M56.5 336a3.5 3.5 0 1 0 0-7 3.5 3.5 0 0 0 0 7z" clip-path="url(&quot;#y6tzs&quot;)"/></g><g><path fill="#050447" d="M-151.5 336a3.5 3.5 0 1 0 0-7 3.5 3.5 0 0 0 0 7z"/><path fill="none" stroke="#050447" stroke-miterlimit="20" stroke-width="8" d="M-151.5 336a3.5 3.5 0 1 0 0-7 3.5 3.5 0 0 0 0 7z" clip-path="url(&quot;#y6tzt&quot;)"/><path fill="none" stroke="#9d9dc5" stroke-miterlimit="20" stroke-width="2" d="M-151.5 336a3.5 3.5 0 1 0 0-7 3.5 3.5 0 0 0 0 7z" clip-path="url(&quot;#y6tzu&quot;)"/></g><g><path fill="#050447" d="M-359.5 335.51a3.5 3.5 0 1 0 0-7 3.5 3.5 0 0 0 0 7z"/><path fill="none" stroke="#050447" stroke-miterlimit="20" stroke-width="8" d="M-359.5 335.51a3.5 3.5 0 1 0 0-7 3.5 3.5 0 0 0 0 7z" clip-path="url(&quot;#y6tzv&quot;)"/><path fill="none" stroke="#9d9dc5" stroke-miterlimit="20" stroke-width="2" d="M-359.5 335.51a3.5 3.5 0 1 0 0-7 3.5 3.5 0 0 0 0 7z" clip-path="url(&quot;#y6tzw&quot;)"/></g></g></g></g></svg>