<svg xmlns="http://www.w3.org/2000/svg" width="201" height="210" viewBox="0 0 201 210"><defs><radialGradient id="bzb6a" cx="222.01" cy="22" r="290.69" gradientUnits="userSpaceOnUse"><stop offset="0" stop-color="#9a14a4"/><stop offset=".58" stop-color="#050447"/><stop offset="1" stop-color="#050447"/></radialGradient><radialGradient id="bzb6d" cx="138.61" cy="87.91" r="230.49" gradientUnits="userSpaceOnUse"><stop offset="0" stop-color="#4600d1"/><stop offset=".5" stop-color="#ac0cc5"/><stop offset="1" stop-color="#fff"/></radialGradient><filter id="bzb6c" width="216%" height="216%" x="-48%" y="-48%" filterUnits="objectBoundingBox"><feGaussianBlur in="SourceGraphic" result="FeGaussianBlur1146Out" stdDeviation="40 40"/></filter><radialGradient id="bzb6f" cx="-44.88" cy="309.69" r="231.57" gradientUnits="userSpaceOnUse"><stop offset="0" stop-color="#4600d1"/><stop offset=".51" stop-color="#ac0cc5"/><stop offset="1" stop-color="#fff"/></radialGradient><filter id="bzb6e" width="216%" height="216%" x="-48%" y="-48%" filterUnits="objectBoundingBox"><feGaussianBlur in="SourceGraphic" result="FeGaussianBlur1157Out" stdDeviation="40 40"/></filter><clipPath id="bzb6b"><path d="M0 10C0 4.477 4.477 0 10 0h181c5.523 0 10 4.477 10 10v190c0 5.523-4.477 10-10 10H10c-5.523 0-10-4.477-10-10z"/></clipPath></defs><g><g><g><path fill="url(#bzb6a)" d="M0 10C0 4.477 4.477 0 10 0h181c5.523 0 10 4.477 10 10v190c0 5.523-4.477 10-10 10H10c-5.523 0-10-4.477-10-10z"/><path fill="#0e0d57" fill-opacity=".6" d="M0 10C0 4.477 4.477 0 10 0h181c5.523 0 10 4.477 10 10v190c0 5.523-4.477 10-10 10H10c-5.523 0-10-4.477-10-10z"/></g><g clip-path="url(#bzb6b)" filter="url(#bzb6c)" opacity=".3"><path fill="url(#bzb6d)" d="M244.5 136c59.094 0 107-47.906 107-107s-47.906-107-107-107-107 47.906-107 107 47.906 107 107 107z"/></g><g clip-path="url(#bzb6b)" filter="url(#bzb6e)" opacity=".3"><path fill="url(#bzb6f)" d="M61.5 358c59.37 0 107.5-48.13 107.5-107.5S120.87 143 61.5 143-46 191.13-46 250.5 2.13 358 61.5 358z"/></g><g/></g></g></svg>