<svg xmlns="http://www.w3.org/2000/svg" width="252" height="320" viewBox="0 0 252 320"><defs><radialGradient id="sm07a" cx="324.54" cy="110.85" r="438.13" gradientUnits="userSpaceOnUse"><stop offset="0" stop-color="#9a14a4"/><stop offset=".58" stop-color="#050447"/><stop offset="1" stop-color="#050447"/></radialGradient><radialGradient id="sm07d" cx="-26.39" cy="102.91" r="230.49" gradientUnits="userSpaceOnUse"><stop offset="0" stop-color="#4600d1"/><stop offset=".5" stop-color="#ac0cc5"/><stop offset="1" stop-color="#fff"/></radialGradient><filter id="sm07c" width="216%" height="216%" x="-48%" y="-48%" filterUnits="objectBoundingBox"><feGaussianBlur in="SourceGraphic" result="FeGaussianBlur1315Out" stdDeviation="40 40"/></filter><radialGradient id="sm07f" cx="-5.88" cy="357.69" r="231.57" gradientUnits="userSpaceOnUse"><stop offset="0" stop-color="#4600d1"/><stop offset=".51" stop-color="#ac0cc5"/><stop offset="1" stop-color="#fff"/></radialGradient><filter id="sm07e" width="216%" height="216%" x="-48%" y="-48%" filterUnits="objectBoundingBox"><feGaussianBlur in="SourceGraphic" result="FeGaussianBlur1326Out" stdDeviation="40 40"/></filter><clipPath id="sm07b"><path d="M0 10C0 4.477 4.477 0 10 0h232c5.523 0 10 4.477 10 10v300c0 5.523-4.477 10-10 10H10c-5.523 0-10-4.477-10-10z"/></clipPath></defs><g><g><g><path fill="url(#sm07a)" d="M0 10C0 4.477 4.477 0 10 0h232c5.523 0 10 4.477 10 10v300c0 5.523-4.477 10-10 10H10c-5.523 0-10-4.477-10-10z"/><path fill="#0e0d57" fill-opacity=".6" d="M0 10C0 4.477 4.477 0 10 0h232c5.523 0 10 4.477 10 10v300c0 5.523-4.477 10-10 10H10c-5.523 0-10-4.477-10-10z"/></g><g clip-path="url(#sm07b)" filter="url(#sm07c)" opacity=".3"><path fill="url(#sm07d)" d="M79.5 151c59.094 0 107-47.906 107-107S138.594-63 79.5-63s-107 47.906-107 107 47.906 107 107 107z"/></g><g clip-path="url(#sm07b)" filter="url(#sm07e)" opacity=".3"><path fill="url(#sm07f)" d="M100.5 406c59.37 0 107.5-48.13 107.5-107.5S159.87 191 100.5 191-7 239.13-7 298.5 41.13 406 100.5 406z"/></g><g/></g></g></svg>