<svg xmlns="http://www.w3.org/2000/svg" width="337" height="346" viewBox="0 0 337 346"><defs><radialGradient id="rqg4a" cx="358.35" cy="346" r="483" gradientUnits="userSpaceOnUse"><stop offset="0" stop-color="#4b50d1"/><stop offset=".58" stop-color="#050447"/><stop offset="1" stop-color="#050447"/></radialGradient><filter id="rqg4c" width="232%" height="232%" x="-56%" y="-56%" filterUnits="objectBoundingBox"><feGaussianBlur in="SourceGraphic" result="FeGaussianBlur1460Out" stdDeviation="50 50"/></filter><filter id="rqg4d" width="216%" height="216%" x="-48%" y="-48%" filterUnits="objectBoundingBox"><feGaussianBlur in="SourceGraphic" result="FeGaussianBlur1467Out" stdDeviation="40 40"/></filter><clipPath id="rqg4b"><path d="M0 20c0-5.523 4.477-10 10-10h150.037L169 0l9.485 10H327c5.523 0 10 4.477 10 10v316c0 5.523-4.477 10-10 10H10c-5.523 0-10-4.477-10-10z"/></clipPath></defs><g><g><g><path fill="url(#rqg4a)" d="M0 20c0-5.523 4.477-10 10-10h150.037L169 0l9.485 10H327c5.523 0 10 4.477 10 10v316c0 5.523-4.477 10-10 10H10c-5.523 0-10-4.477-10-10z"/><path fill="#0e0d57" fill-opacity=".6" d="M0 20c0-5.523 4.477-10 10-10h150.037L169 0l9.485 10H327c5.523 0 10 4.477 10 10v316c0 5.523-4.477 10-10 10H10c-5.523 0-10-4.477-10-10z"/></g><g clip-path="url(#rqg4b)" filter="url(#rqg4c)" opacity=".3"><path fill="#0fbce7" d="M250.5 88c59.094 0 107-47.906 107-107s-47.906-107-107-107-107 47.906-107 107 47.906 107 107 107z"/></g><g clip-path="url(#rqg4b)" filter="url(#rqg4d)" opacity=".3"><path fill="#0fbce7" d="M-20.5 457C38.87 457 87 408.87 87 349.5S38.87 242-20.5 242-128 290.13-128 349.5-79.87 457-20.5 457z"/></g><g/></g></g></svg>