<svg xmlns="http://www.w3.org/2000/svg" width="252" height="320" viewBox="0 0 252 320"><defs><radialGradient id="g8a8a" cx="132.05" cy="35.14" r="365.45" gradientUnits="userSpaceOnUse"><stop offset="0" stop-color="#4b50d1"/><stop offset=".58" stop-color="#050447"/><stop offset="1" stop-color="#050447"/></radialGradient><filter id="g8a8c" width="232%" height="232%" x="-56%" y="-56%" filterUnits="objectBoundingBox"><feGaussianBlur in="SourceGraphic" result="FeGaussianBlur1471Out" stdDeviation="50 50"/></filter><filter id="g8a8d" width="216%" height="216%" x="-48%" y="-48%" filterUnits="objectBoundingBox"><feGaussianBlur in="SourceGraphic" result="FeGaussianBlur1478Out" stdDeviation="40 40"/></filter><clipPath id="g8a8b"><path d="M0 10C0 4.477 4.477 0 10 0h232c5.523 0 10 4.477 10 10v300c0 5.523-4.477 10-10 10H10c-5.523 0-10-4.477-10-10z"/></clipPath></defs><g><g><g><path fill="url(#g8a8a)" d="M0 10C0 4.477 4.477 0 10 0h232c5.523 0 10 4.477 10 10v300c0 5.523-4.477 10-10 10H10c-5.523 0-10-4.477-10-10z"/><path fill="#0e0d57" fill-opacity=".6" d="M0 10C0 4.477 4.477 0 10 0h232c5.523 0 10 4.477 10 10v300c0 5.523-4.477 10-10 10H10c-5.523 0-10-4.477-10-10z"/></g><g clip-path="url(#g8a8b)" filter="url(#g8a8c)" opacity=".3"><path fill="#0fbce7" d="M145.5 89c59.094 0 107-47.906 107-107s-47.906-107-107-107-107 47.906-107 107 47.906 107 107 107z"/></g><g clip-path="url(#g8a8b)" filter="url(#g8a8d)" opacity=".3"><path fill="#0fbce7" d="M18.5 430C77.87 430 126 381.87 126 322.5S77.87 215 18.5 215-89 263.13-89 322.5-40.87 430 18.5 430z"/></g><g/></g></g></svg>