<svg xmlns="http://www.w3.org/2000/svg" width="304" height="287" viewBox="0 0 304 287"><defs><filter id="ywc7b" width="216%" height="216%" x="-48%" y="-48%" filterUnits="objectBoundingBox"><feGaussianBlur in="SourceGraphic" result="FeGaussianBlur5167Out" stdDeviation="40 40"/></filter><filter id="ywc7c" width="216%" height="216%" x="-48%" y="-48%" filterUnits="objectBoundingBox"><feGaussianBlur in="SourceGraphic" result="FeGaussianBlur5174Out" stdDeviation="40 40"/></filter><clipPath id="ywc7a"><path d="M0 10C0 4.477 4.477 0 10 0h284c5.523 0 10 4.477 10 10v267c0 5.523-4.477 10-10 10H10c-5.523 0-10-4.477-10-10z"/></clipPath></defs><g><g><g><path fill="#050447" d="M0 10C0 4.477 4.477 0 10 0h284c5.523 0 10 4.477 10 10v267c0 5.523-4.477 10-10 10H10c-5.523 0-10-4.477-10-10z"/></g><g clip-path="url(#ywc7a)" filter="url(#ywc7b)" opacity=".2"><path fill="#0fbce7" d="M325.5 238c59.37 0 107.5-48.13 107.5-107.5S384.87 23 325.5 23 218 71.13 218 130.5 266.13 238 325.5 238z"/></g><g clip-path="url(#ywc7a)" filter="url(#ywc7c)" opacity=".3"><path fill="#0fbce7" d="M-5.5 320c59.094 0 107-47.906 107-107S53.594 106-5.5 106s-107 47.906-107 107 47.906 107 107 107z"/></g><g clip-path="url(#ywc7a)"/></g></g></svg>