<svg xmlns="http://www.w3.org/2000/svg" width="252" height="320" viewBox="0 0 252 320"><defs><radialGradient id="dwuda" cx="285.62" cy="179.38" r="407.31" gradientUnits="userSpaceOnUse"><stop offset="0" stop-color="#9a14a4" stop-opacity=".6"/><stop offset=".58" stop-color="#050447" stop-opacity=".6"/><stop offset="1" stop-color="#050447" stop-opacity=".6"/></radialGradient><radialGradient id="dwudd" cx="-72.39" cy="91.91" r="230.49" gradientUnits="userSpaceOnUse"><stop offset="0" stop-color="#4600d1"/><stop offset=".5" stop-color="#ac0cc5"/><stop offset="1" stop-color="#fff"/></radialGradient><filter id="dwudc" width="216%" height="216%" x="-48%" y="-48%" filterUnits="objectBoundingBox"><feGaussianBlur in="SourceGraphic" result="FeGaussianBlur1399Out" stdDeviation="40 40"/></filter><radialGradient id="dwudf" cx="26.12" cy="400.69" r="231.57" gradientUnits="userSpaceOnUse"><stop offset="0" stop-color="#4600d1"/><stop offset=".51" stop-color="#ac0cc5"/><stop offset="1" stop-color="#fff"/></radialGradient><filter id="dwude" width="216%" height="216%" x="-48%" y="-48%" filterUnits="objectBoundingBox"><feGaussianBlur in="SourceGraphic" result="FeGaussianBlur1410Out" stdDeviation="40 40"/></filter><clipPath id="dwudb"><path d="M0 10C0 4.477 4.477 0 10 0h232c5.523 0 10 4.477 10 10v300c0 5.523-4.477 10-10 10H10c-5.523 0-10-4.477-10-10z"/></clipPath></defs><g><g><g><path fill="#0e0d57" d="M0 10C0 4.477 4.477 0 10 0h232c5.523 0 10 4.477 10 10v300c0 5.523-4.477 10-10 10H10c-5.523 0-10-4.477-10-10z"/><path fill="url(#dwuda)" d="M0 10C0 4.477 4.477 0 10 0h232c5.523 0 10 4.477 10 10v300c0 5.523-4.477 10-10 10H10c-5.523 0-10-4.477-10-10z"/></g><g clip-path="url(#dwudb)" filter="url(#dwudc)" opacity=".3"><path fill="url(#dwudd)" d="M33.5 140c59.094 0 107-47.906 107-107S92.594-74 33.5-74s-107 47.906-107 107 47.906 107 107 107z"/></g><g clip-path="url(#dwudb)" filter="url(#dwude)" opacity=".3"><path fill="url(#dwudf)" d="M132.5 449c59.37 0 107.5-48.13 107.5-107.5S191.87 234 132.5 234 25 282.13 25 341.5 73.13 449 132.5 449z"/></g><g/></g></g></svg>