<svg xmlns="http://www.w3.org/2000/svg" width="305" height="287" viewBox="0 0 305 287"><defs><filter id="16z2b" width="216%" height="216%" x="-48%" y="-48%" filterUnits="objectBoundingBox"><feGaussianBlur in="SourceGraphic" result="FeGaussianBlur5109Out" stdDeviation="40 40"/></filter><filter id="16z2c" width="216%" height="216%" x="-48%" y="-48%" filterUnits="objectBoundingBox"><feGaussianBlur in="SourceGraphic" result="FeGaussianBlur5116Out" stdDeviation="40 40"/></filter><clipPath id="16z2a"><path d="M0 10C0 4.477 4.477 0 10 0h285c5.523 0 10 4.477 10 10v267c0 5.523-4.477 10-10 10H10c-5.523 0-10-4.477-10-10z"/></clipPath></defs><g><g><g><path fill="#050447" d="M0 10C0 4.477 4.477 0 10 0h285c5.523 0 10 4.477 10 10v267c0 5.523-4.477 10-10 10H10c-5.523 0-10-4.477-10-10z"/></g><g clip-path="url(#16z2a)" filter="url(#16z2b)" opacity=".2"><path fill="#0fbce7" d="M32.5 389C91.87 389 140 340.87 140 281.5S91.87 174 32.5 174-75 222.13-75 281.5-26.87 389 32.5 389z"/></g><g clip-path="url(#16z2a)" filter="url(#16z2c)" opacity=".3"><path fill="#0fbce7" d="M227.5 107c59.094 0 107-47.906 107-107s-47.906-107-107-107-107 47.906-107 107 47.906 107 107 107z"/></g><g clip-path="url(#16z2a)"/></g></g></svg>