<svg xmlns="http://www.w3.org/2000/svg" width="344" height="180" viewBox="0 0 344 180"><defs><radialGradient id="ubf8a" cx="258.49" cy="238.92" r="388.25" gradientUnits="userSpaceOnUse"><stop offset="0" stop-color="#9a14a4"/><stop offset=".36" stop-color="#9814a2"/><stop offset=".58" stop-color="#050447"/><stop offset="1" stop-color="#050447"/></radialGradient><radialGradient id="ubf8d" cx="44.61" cy="250.91" r="230.49" gradientUnits="userSpaceOnUse"><stop offset="0" stop-color="#4600d1"/><stop offset=".51" stop-color="#ac0cc5"/><stop offset="1" stop-color="#fff"/></radialGradient><filter id="ubf8c" width="216%" height="216%" x="-48%" y="-48%" filterUnits="objectBoundingBox"><feGaussianBlur in="SourceGraphic" result="FeGaussianBlur4214Out" stdDeviation="40 40"/></filter><radialGradient id="ubf8f" cx="94.12" cy="-29.31" r="231.57" gradientUnits="userSpaceOnUse"><stop offset="0" stop-color="#4600d1"/><stop offset=".51" stop-color="#ac0cc5"/><stop offset="1" stop-color="#fff"/></radialGradient><filter id="ubf8e" width="216%" height="216%" x="-48%" y="-48%" filterUnits="objectBoundingBox"><feGaussianBlur in="SourceGraphic" result="FeGaussianBlur4225Out" stdDeviation="40 40"/></filter><clipPath id="ubf8b"><path d="M0 160c0 5.523 4.477 10 10 10h154.037L173 180l9.485-10H334c5.523 0 10-4.477 10-10V10c0-5.523-4.477-10-10-10H10C4.477 0 0 4.477 0 10z"/></clipPath></defs><g><g><g><path fill="url(#ubf8a)" d="M0 160c0 5.523 4.477 10 10 10h154.037L173 180l9.485-10H334c5.523 0 10-4.477 10-10V10c0-5.523-4.477-10-10-10H10C4.477 0 0 4.477 0 10z"/><path fill="#0e0d57" fill-opacity=".6" d="M0 160c0 5.523 4.477 10 10 10h154.037L173 180l9.485-10H334c5.523 0 10-4.477 10-10V10c0-5.523-4.477-10-10-10H10C4.477 0 0 4.477 0 10z"/></g><g clip-path="url(#ubf8b)" filter="url(#ubf8c)" opacity=".3"><path fill="url(#ubf8d)" d="M150.5 299c59.094 0 107-47.906 107-107s-47.906-107-107-107-107 47.906-107 107 47.906 107 107 107z"/></g><g clip-path="url(#ubf8b)" filter="url(#ubf8e)" opacity=".3"><path fill="url(#ubf8f)" d="M200.5 19C259.87 19 308-29.13 308-88.5S259.87-196 200.5-196 93-147.87 93-88.5 141.13 19 200.5 19z"/></g><g/></g></g></svg>