<svg xmlns="http://www.w3.org/2000/svg" width="252" height="300" viewBox="0 0 252 300"><defs><radialGradient id="opr0a" cx="252" cy="0" r="391.8" gradientUnits="userSpaceOnUse"><stop offset="0" stop-color="#4b50d1"/><stop offset=".58" stop-color="#050447"/><stop offset="1" stop-color="#050447"/></radialGradient><filter id="opr0c" width="232%" height="232%" x="-56%" y="-56%" filterUnits="objectBoundingBox"><feGaussianBlur in="SourceGraphic" result="FeGaussianBlur3052Out" stdDeviation="50 50"/></filter><filter id="opr0d" width="216%" height="216%" x="-48%" y="-48%" filterUnits="objectBoundingBox"><feGaussianBlur in="SourceGraphic" result="FeGaussianBlur3059Out" stdDeviation="40 40"/></filter><clipPath id="opr0b"><path d="M0 20c0-5.523 4.477-10 10-10h107.037L126 0l9.485 10H242c5.523 0 10 4.477 10 10v270c0 5.523-4.477 10-10 10H10c-5.523 0-10-4.477-10-10z"/></clipPath></defs><g><g><g><path fill="url(#opr0a)" d="M0 20c0-5.523 4.477-10 10-10h107.037L126 0l9.485 10H242c5.523 0 10 4.477 10 10v270c0 5.523-4.477 10-10 10H10c-5.523 0-10-4.477-10-10z"/><path fill="#0e0d57" fill-opacity=".6" d="M0 20c0-5.523 4.477-10 10-10h107.037L126 0l9.485 10H242c5.523 0 10 4.477 10 10v270c0 5.523-4.477 10-10 10H10c-5.523 0-10-4.477-10-10z"/></g><g clip-path="url(#opr0b)" filter="url(#opr0c)" opacity=".3"><path fill="#0fbce7" d="M-6.5 231c59.094 0 107-47.906 107-107S52.594 17-6.5 17s-107 47.906-107 107 47.906 107 107 107z"/></g><g clip-path="url(#opr0b)" filter="url(#opr0d)" opacity=".3"><path fill="#0fbce7" d="M135.5 453c59.37 0 107.5-48.13 107.5-107.5S194.87 238 135.5 238 28 286.13 28 345.5 76.13 453 135.5 453z"/></g><g/></g></g></svg>