<svg xmlns="http://www.w3.org/2000/svg" width="252" height="320" viewBox="0 0 252 320"><defs><radialGradient id="jq8ba" cx="105.79" cy="-26.84" r="407.31" gradientUnits="userSpaceOnUse"><stop offset="0" stop-color="#4b50d1"/><stop offset=".58" stop-color="#050447"/><stop offset="1" stop-color="#050447"/></radialGradient><filter id="jq8bc" width="232%" height="232%" x="-56%" y="-56%" filterUnits="objectBoundingBox"><feGaussianBlur in="SourceGraphic" result="FeGaussianBlur1437Out" stdDeviation="50 50"/></filter><filter id="jq8bd" width="216%" height="216%" x="-48%" y="-48%" filterUnits="objectBoundingBox"><feGaussianBlur in="SourceGraphic" result="FeGaussianBlur1444Out" stdDeviation="40 40"/></filter><clipPath id="jq8bb"><path d="M0 10C0 4.477 4.477 0 10 0h232c5.523 0 10 4.477 10 10v300c0 5.523-4.477 10-10 10H10c-5.523 0-10-4.477-10-10z"/></clipPath></defs><g><g><g><path fill="url(#jq8ba)" d="M0 10C0 4.477 4.477 0 10 0h232c5.523 0 10 4.477 10 10v300c0 5.523-4.477 10-10 10H10c-5.523 0-10-4.477-10-10z"/><path fill="#0e0d57" fill-opacity=".6" d="M0 10C0 4.477 4.477 0 10 0h232c5.523 0 10 4.477 10 10v300c0 5.523-4.477 10-10 10H10c-5.523 0-10-4.477-10-10z"/></g><g clip-path="url(#jq8bb)" filter="url(#jq8bc)" opacity=".3"><path fill="#0fbce7" d="M-6.5 221c59.094 0 107-47.906 107-107S52.594 7-6.5 7s-107 47.906-107 107 47.906 107 107 107z"/></g><g clip-path="url(#jq8bb)" filter="url(#jq8bd)" opacity=".3"><path fill="#0fbce7" d="M260.5 342c59.37 0 107.5-48.13 107.5-107.5S319.87 127 260.5 127 153 175.13 153 234.5 201.13 342 260.5 342z"/></g><g/></g></g></svg>