<svg xmlns="http://www.w3.org/2000/svg" width="200" height="210" viewBox="0 0 200 210"><defs><radialGradient id="oavla" cx="116.75" cy="-70.37" r="290" gradientUnits="userSpaceOnUse"><stop offset="0" stop-color="#9a14a4"/><stop offset=".36" stop-color="#9814a2"/><stop offset=".58" stop-color="#050447"/><stop offset="1" stop-color="#050447"/></radialGradient><radialGradient id="oavld" cx="13.61" cy="270.91" r="230.49" gradientUnits="userSpaceOnUse"><stop offset="0" stop-color="#4600d1"/><stop offset=".5" stop-color="#ac0cc5"/><stop offset="1" stop-color="#fff"/></radialGradient><filter id="oavlc" width="216%" height="216%" x="-48%" y="-48%" filterUnits="objectBoundingBox"><feGaussianBlur in="SourceGraphic" result="FeGaussianBlur1104Out" stdDeviation="40 40"/></filter><radialGradient id="oavlf" cx="154.12" cy="293.69" r="231.57" gradientUnits="userSpaceOnUse"><stop offset="0" stop-color="#4600d1"/><stop offset=".51" stop-color="#ac0cc5"/><stop offset="1" stop-color="#fff"/></radialGradient><filter id="oavle" width="216%" height="216%" x="-48%" y="-48%" filterUnits="objectBoundingBox"><feGaussianBlur in="SourceGraphic" result="FeGaussianBlur1115Out" stdDeviation="40 40"/></filter><clipPath id="oavlb"><path d="M0 10C0 4.477 4.477 0 10 0h180c5.523 0 10 4.477 10 10v190c0 5.523-4.477 10-10 10H10c-5.523 0-10-4.477-10-10z"/></clipPath></defs><g><g><g><path fill="url(#oavla)" d="M0 10C0 4.477 4.477 0 10 0h180c5.523 0 10 4.477 10 10v190c0 5.523-4.477 10-10 10H10c-5.523 0-10-4.477-10-10z"/><path fill="#0e0d57" fill-opacity=".6" d="M0 10C0 4.477 4.477 0 10 0h180c5.523 0 10 4.477 10 10v190c0 5.523-4.477 10-10 10H10c-5.523 0-10-4.477-10-10z"/></g><g clip-path="url(#oavlb)" filter="url(#oavlc)" opacity=".3"><path fill="url(#oavld)" d="M119.5 319c59.094 0 107-47.906 107-107s-47.906-107-107-107-107 47.906-107 107 47.906 107 107 107z"/></g><g clip-path="url(#oavlb)" filter="url(#oavle)" opacity=".3"><path fill="url(#oavlf)" d="M260.5 342c59.37 0 107.5-48.13 107.5-107.5S319.87 127 260.5 127 153 175.13 153 234.5 201.13 342 260.5 342z"/></g><g/></g></g></svg>