<svg xmlns="http://www.w3.org/2000/svg" width="394" height="326" viewBox="0 0 394 326"><defs><radialGradient id="nslia" cx="394" cy="0" r="511.38" gradientUnits="userSpaceOnUse"><stop offset="0" stop-color="#4b50d1"/><stop offset=".58" stop-color="#050447"/><stop offset="1" stop-color="#050447"/></radialGradient><filter id="nslic" width="232%" height="232%" x="-56%" y="-56%" filterUnits="objectBoundingBox"><feGaussianBlur in="SourceGraphic" result="FeGaussianBlur1184Out" stdDeviation="50 50"/></filter><filter id="nslid" width="216%" height="216%" x="-48%" y="-48%" filterUnits="objectBoundingBox"><feGaussianBlur in="SourceGraphic" result="FeGaussianBlur1191Out" stdDeviation="40 40"/></filter><clipPath id="nslib"><path d="M384 0c5.523 0 10 4.477 10 10v296c0 5.43-4.327 9.848-9.72 9.996L384 316H206.485L197 326l-8.963-10H10c-5.43 0-9.848-4.327-9.996-9.72L0 306V10C0 4.57 4.327.152 9.72.004L10 0z"/></clipPath></defs><g><g><g><path fill="url(#nslia)" d="M384 0c5.523 0 10 4.477 10 10v296c0 5.43-4.327 9.848-9.72 9.996L384 316H206.485L197 326l-8.963-10H10c-5.43 0-9.848-4.327-9.996-9.72L0 306V10C0 4.57 4.327.152 9.72.004L10 0z"/><path fill="#0e0d57" fill-opacity=".6" d="M384 0c5.523 0 10 4.477 10 10v296c0 5.43-4.327 9.848-9.72 9.996L384 316H206.485L197 326l-8.963-10H10c-5.43 0-9.848-4.327-9.996-9.72L0 306V10C0 4.57 4.327.152 9.72.004L10 0z"/></g><g clip-path="url(#nslib)" filter="url(#nslic)" opacity=".3"><path fill="#0fbce7" d="M61 61c59.094 0 107-47.906 107-107S120.094-153 61-153-46-105.094-46-46 1.906 61 61 61z"/></g><g clip-path="url(#nslib)" filter="url(#nslid)" opacity=".3"><path fill="#0fbce7" d="M215 429c59.37 0 107.5-48.13 107.5-107.5S274.37 214 215 214s-107.5 48.13-107.5 107.5S155.63 429 215 429z"/></g><g/></g></g></svg>