<svg xmlns="http://www.w3.org/2000/svg" width="344" height="180" viewBox="0 0 344 180"><defs><radialGradient id="3tg9a" cx="200.81" cy="-60.31" r="388.25" gradientUnits="userSpaceOnUse"><stop offset="0" stop-color="#9a14a4"/><stop offset=".36" stop-color="#9814a2"/><stop offset=".58" stop-color="#050447"/><stop offset="1" stop-color="#050447"/></radialGradient><radialGradient id="3tg9d" cx="-10.39" cy="-3.09" r="230.49" gradientUnits="userSpaceOnUse"><stop offset="0" stop-color="#4600d1"/><stop offset=".51" stop-color="#ac0cc5"/><stop offset="1" stop-color="#fff"/></radialGradient><filter id="3tg9c" width="216%" height="216%" x="-48%" y="-48%" filterUnits="objectBoundingBox"><feGaussianBlur in="SourceGraphic" result="FeGaussianBlur4171Out" stdDeviation="40 40"/></filter><radialGradient id="3tg9f" cx="203.12" cy="93.69" r="231.57" gradientUnits="userSpaceOnUse"><stop offset="0" stop-color="#4600d1"/><stop offset=".51" stop-color="#ac0cc5"/><stop offset="1" stop-color="#fff"/></radialGradient><filter id="3tg9e" width="216%" height="216%" x="-48%" y="-48%" filterUnits="objectBoundingBox"><feGaussianBlur in="SourceGraphic" result="FeGaussianBlur4182Out" stdDeviation="40 40"/></filter><clipPath id="3tg9b"><path d="M0 160c0 5.523 4.477 10 10 10h154.037L173 180l9.485-10H334c5.523 0 10-4.477 10-10V10c0-5.523-4.477-10-10-10H10C4.477 0 0 4.477 0 10z"/></clipPath></defs><g><g><g><path fill="url(#3tg9a)" d="M0 160c0 5.523 4.477 10 10 10h154.037L173 180l9.485-10H334c5.523 0 10-4.477 10-10V10c0-5.523-4.477-10-10-10H10C4.477 0 0 4.477 0 10z"/><path fill="#0e0d57" fill-opacity=".6" d="M0 160c0 5.523 4.477 10 10 10h154.037L173 180l9.485-10H334c5.523 0 10-4.477 10-10V10c0-5.523-4.477-10-10-10H10C4.477 0 0 4.477 0 10z"/></g><g clip-path="url(#3tg9b)" filter="url(#3tg9c)" opacity=".3"><path fill="url(#3tg9d)" d="M95.5 45c59.094 0 107-47.906 107-107s-47.906-107-107-107-107 47.906-107 107S36.406 45 95.5 45z"/></g><g clip-path="url(#3tg9b)" filter="url(#3tg9e)" opacity=".3"><path fill="url(#3tg9f)" d="M309.5 142C368.87 142 417 93.87 417 34.5S368.87-73 309.5-73 202-24.87 202 34.5 250.13 142 309.5 142z"/></g><g/></g></g></svg>