<svg xmlns="http://www.w3.org/2000/svg" width="252" height="300" viewBox="0 0 252 300"><defs><radialGradient id="yl0na" cx="252" cy="0" r="391.8" gradientUnits="userSpaceOnUse"><stop offset="0" stop-color="#4b50d1"/><stop offset=".58" stop-color="#050447"/><stop offset="1" stop-color="#050447"/></radialGradient><filter id="yl0nc" width="232%" height="232%" x="-56%" y="-56%" filterUnits="objectBoundingBox"><feGaussianBlur in="SourceGraphic" result="FeGaussianBlur3018Out" stdDeviation="50 50"/></filter><filter id="yl0nd" width="216%" height="216%" x="-48%" y="-48%" filterUnits="objectBoundingBox"><feGaussianBlur in="SourceGraphic" result="FeGaussianBlur3025Out" stdDeviation="40 40"/></filter><clipPath id="yl0nb"><path d="M0 20c0-5.523 4.477-10 10-10h107.037L126 0l9.485 10H242c5.523 0 10 4.477 10 10v270c0 5.523-4.477 10-10 10H10c-5.523 0-10-4.477-10-10z"/></clipPath></defs><g><g><g><path fill="url(#yl0na)" d="M0 20c0-5.523 4.477-10 10-10h107.037L126 0l9.485 10H242c5.523 0 10 4.477 10 10v270c0 5.523-4.477 10-10 10H10c-5.523 0-10-4.477-10-10z"/><path fill="#0e0d57" fill-opacity=".6" d="M0 20c0-5.523 4.477-10 10-10h107.037L126 0l9.485 10H242c5.523 0 10 4.477 10 10v270c0 5.523-4.477 10-10 10H10c-5.523 0-10-4.477-10-10z"/></g><g clip-path="url(#yl0nb)" filter="url(#yl0nc)" opacity=".3"><path fill="#0fbce7" d="M126.5 78c59.094 0 107-47.906 107-107s-47.906-107-107-107-107 47.906-107 107 47.906 107 107 107z"/></g><g clip-path="url(#yl0nb)" filter="url(#yl0nd)" opacity=".3"><path fill="#0fbce7" d="M268.5 300c59.37 0 107.5-48.13 107.5-107.5S327.87 85 268.5 85 161 133.13 161 192.5 209.13 300 268.5 300z"/></g><g/></g></g></svg>