<svg xmlns="http://www.w3.org/2000/svg" width="337" height="346" viewBox="0 0 337 346"><defs><radialGradient id="rm5oa" cx="337" cy="0" r="483" gradientUnits="userSpaceOnUse"><stop offset="0" stop-color="#4b50d1"/><stop offset=".58" stop-color="#050447"/><stop offset="1" stop-color="#050447"/></radialGradient><filter id="rm5oc" width="232%" height="232%" x="-56%" y="-56%" filterUnits="objectBoundingBox"><feGaussianBlur in="SourceGraphic" result="FeGaussianBlur1392Out" stdDeviation="50 50"/></filter><filter id="rm5od" width="216%" height="216%" x="-48%" y="-48%" filterUnits="objectBoundingBox"><feGaussianBlur in="SourceGraphic" result="FeGaussianBlur1399Out" stdDeviation="40 40"/></filter><clipPath id="rm5ob"><path d="M0 20c0-5.523 4.477-10 10-10h150.037L169 0l9.485 10H327c5.523 0 10 4.477 10 10v316c0 5.523-4.477 10-10 10H10c-5.523 0-10-4.477-10-10z"/></clipPath></defs><g><g><g><path fill="url(#rm5oa)" d="M0 20c0-5.523 4.477-10 10-10h150.037L169 0l9.485 10H327c5.523 0 10 4.477 10 10v316c0 5.523-4.477 10-10 10H10c-5.523 0-10-4.477-10-10z"/><path fill="#0e0d57" fill-opacity=".6" d="M0 20c0-5.523 4.477-10 10-10h150.037L169 0l9.485 10H327c5.523 0 10 4.477 10 10v316c0 5.523-4.477 10-10 10H10c-5.523 0-10-4.477-10-10z"/></g><g clip-path="url(#rm5ob)" filter="url(#rm5oc)" opacity=".3"><path fill="#0fbce7" d="M-8.5 164c59.094 0 107-47.906 107-107S50.594-50-8.5-50s-107 47.906-107 107 47.906 107 107 107z"/></g><g clip-path="url(#rm5ob)" filter="url(#rm5od)" opacity=".3"><path fill="#0fbce7" d="M331.5 397c59.37 0 107.5-48.13 107.5-107.5S390.87 182 331.5 182 224 230.13 224 289.5 272.13 397 331.5 397z"/></g><g/></g></g></svg>