<svg xmlns="http://www.w3.org/2000/svg" width="394" height="346" viewBox="0 0 394 346"><defs><radialGradient id="3nbqa" cx="274.49" cy="360.88" r="524.36" gradientUnits="userSpaceOnUse"><stop offset="0" stop-color="#4b50d1"/><stop offset=".58" stop-color="#050447"/><stop offset="1" stop-color="#050447"/></radialGradient><filter id="3nbqc" width="232%" height="232%" x="-56%" y="-56%" filterUnits="objectBoundingBox"><feGaussianBlur in="SourceGraphic" result="FeGaussianBlur1218Out" stdDeviation="50 50"/></filter><filter id="3nbqd" width="216%" height="216%" x="-48%" y="-48%" filterUnits="objectBoundingBox"><feGaussianBlur in="SourceGraphic" result="FeGaussianBlur1225Out" stdDeviation="40 40"/></filter><clipPath id="3nbqb"><path d="M384 0c5.523 0 10 4.477 10 10v316c0 5.43-4.327 9.848-9.72 9.996L384 336H206.485L197 346l-8.963-10H10c-5.43 0-9.848-4.327-9.996-9.72L0 326V10C0 4.57 4.327.152 9.72.004L10 0z"/></clipPath></defs><g><g><g><path fill="url(#3nbqa)" d="M384 0c5.523 0 10 4.477 10 10v316c0 5.43-4.327 9.848-9.72 9.996L384 336H206.485L197 346l-8.963-10H10c-5.43 0-9.848-4.327-9.996-9.72L0 326V10C0 4.57 4.327.152 9.72.004L10 0z"/><path fill="#0e0d57" fill-opacity=".6" d="M384 0c5.523 0 10 4.477 10 10v316c0 5.43-4.327 9.848-9.72 9.996L384 336H206.485L197 346l-8.963-10H10c-5.43 0-9.848-4.327-9.996-9.72L0 326V10C0 4.57 4.327.152 9.72.004L10 0z"/></g><g clip-path="url(#3nbqb)" filter="url(#3nbqc)" opacity=".3"><path fill="#0fbce7" d="M61 71c59.094 0 107-47.906 107-107S120.094-143 61-143-46-95.094-46-36 1.906 71 61 71z"/></g><g clip-path="url(#3nbqb)" filter="url(#3nbqd)" opacity=".3"><path fill="#0fbce7" d="M35 299c59.37 0 107.5-48.13 107.5-107.5S94.37 84 35 84-72.5 132.13-72.5 191.5-24.37 299 35 299z"/></g><g/></g></g></svg>