<svg xmlns="http://www.w3.org/2000/svg" width="252" height="320" viewBox="0 0 252 320"><defs><radialGradient id="3efna" cx="258.93" cy="44.69" r="407.31" gradientUnits="userSpaceOnUse"><stop offset="0" stop-color="#4b50d1"/><stop offset=".58" stop-color="#050447"/><stop offset="1" stop-color="#050447"/></radialGradient><filter id="3efnc" width="232%" height="232%" x="-56%" y="-56%" filterUnits="objectBoundingBox"><feGaussianBlur in="SourceGraphic" result="FeGaussianBlur1505Out" stdDeviation="50 50"/></filter><filter id="3efnd" width="216%" height="216%" x="-48%" y="-48%" filterUnits="objectBoundingBox"><feGaussianBlur in="SourceGraphic" result="FeGaussianBlur1512Out" stdDeviation="40 40"/></filter><clipPath id="3efnb"><path d="M0 10C0 4.477 4.477 0 10 0h232c5.523 0 10 4.477 10 10v300c0 5.523-4.477 10-10 10H10c-5.523 0-10-4.477-10-10z"/></clipPath></defs><g><g><g><path fill="url(#3efna)" d="M0 10C0 4.477 4.477 0 10 0h232c5.523 0 10 4.477 10 10v300c0 5.523-4.477 10-10 10H10c-5.523 0-10-4.477-10-10z"/><path fill="#0e0d57" fill-opacity=".6" d="M0 10C0 4.477 4.477 0 10 0h232c5.523 0 10 4.477 10 10v300c0 5.523-4.477 10-10 10H10c-5.523 0-10-4.477-10-10z"/></g><g clip-path="url(#3efnb)" filter="url(#3efnc)" opacity=".3"><path fill="#0fbce7" d="M57.5 293c59.094 0 107-47.906 107-107S116.594 79 57.5 79s-107 47.906-107 107 47.906 107 107 107z"/></g><g clip-path="url(#3efnb)" filter="url(#3efnd)" opacity=".3"><path fill="#0fbce7" d="M233.5 170C292.87 170 341 121.87 341 62.5S292.87-45 233.5-45 126 3.13 126 62.5 174.13 170 233.5 170z"/></g><g/></g></g></svg>