<svg xmlns="http://www.w3.org/2000/svg" width="344" height="180" viewBox="0 0 344 180"><defs><radialGradient id="6zyna" cx="344" cy="0" r="388.25" gradientUnits="userSpaceOnUse"><stop offset="0" stop-color="#4b50d1"/><stop offset=".58" stop-color="#050447"/><stop offset="1" stop-color="#050447"/></radialGradient><filter id="6zync" width="232%" height="232%" x="-56%" y="-56%" filterUnits="objectBoundingBox"><feGaussianBlur in="SourceGraphic" result="FeGaussianBlur4064Out" stdDeviation="50 50"/></filter><filter id="6zynd" width="216%" height="216%" x="-48%" y="-48%" filterUnits="objectBoundingBox"><feGaussianBlur in="SourceGraphic" result="FeGaussianBlur4071Out" stdDeviation="40 40"/></filter><clipPath id="6zynb"><path d="M0 20c0-5.523 4.477-10 10-10h154.037L173 0l9.485 10H334c5.523 0 10 4.477 10 10v150c0 5.523-4.477 10-10 10H10c-5.523 0-10-4.477-10-10z"/></clipPath></defs><g><g><g><path fill="url(#6zyna)" d="M0 20c0-5.523 4.477-10 10-10h154.037L173 0l9.485 10H334c5.523 0 10 4.477 10 10v150c0 5.523-4.477 10-10 10H10c-5.523 0-10-4.477-10-10z"/><path fill="#0e0d57" fill-opacity=".6" d="M0 20c0-5.523 4.477-10 10-10h154.037L173 0l9.485 10H334c5.523 0 10 4.477 10 10v150c0 5.523-4.477 10-10 10H10c-5.523 0-10-4.477-10-10z"/></g><g clip-path="url(#6zynb)" filter="url(#6zync)" opacity=".3"><path fill="#0fbce7" d="M-8.5 164c59.094 0 107-47.906 107-107S50.594-50-8.5-50s-107 47.906-107 107 47.906 107 107 107z"/></g><g clip-path="url(#6zynb)" filter="url(#6zynd)" opacity=".3"><path fill="#0fbce7" d="M337.5 272c59.37 0 107.5-48.13 107.5-107.5S396.87 57 337.5 57 230 105.13 230 164.5 278.13 272 337.5 272z"/></g><g/></g></g></svg>