<svg xmlns="http://www.w3.org/2000/svg" width="1084" height="101" viewBox="0 0 1084 101" preserveAspectRatio="none">
    <g fill="none" fill-rule="evenodd">
        <g>
            <g>
                <g>
                    <g transform="translate(-405 -1902) translate(345 1657) translate(60 246) translate(720 25)">
                        <path stroke="#8BEAFF" stroke-dasharray="0 4" stroke-linecap="round" d="M3.416 13L3.416 36"/>
                        <circle cx="3.5" cy="3.5" r="2.5" stroke="#FEDB41" stroke-width="2"/>
                    </g>
                    <g transform="translate(-405 -1902) translate(345 1657) translate(60 246) translate(363)">
                        <path stroke="#8BEAFF" stroke-dasharray="0 4" stroke-linecap="round" d="M.416 83v6c0 5.523 4.477 10 10 10h340c5.523 0 10-4.477 10-10v-7h0"/>
                        <path stroke="#8BEAFF" stroke-dasharray="0 4" stroke-linecap="round" d="M.416 1v6c0 5.523 4.477 10 10 10h340c5.523 0 10-4.477 10-10V0h0" transform="matrix(1 0 0 -1 0 17)"/>
                        <path stroke="#8BEAFF" stroke-dasharray="0 4" stroke-linecap="round" d="M360.416 82v7c0 5.523 4.477 10 10 10h340c5.523 0 10-4.477 10-10v-7h0V10c0-5.523-4.477-10-10-10H370.333c-5.444 0-9.87 4.389-9.917 9.832h0" transform="matrix(1 0 0 -1 0 99)"/>
                        <circle cx="360.5" cy="70.5" r="2.5" stroke="#FEDB41" stroke-width="2"/>
                    </g>
                    <g stroke="#FEDB41" stroke-width="2" transform="translate(-405 -1902) translate(345 1657) translate(60 246) translate(360 67)">
                        <circle cx="3.5" cy="3.5" r="2.5"/>
                    </g>
                    <g transform="translate(-405 -1902) translate(345 1657) translate(60 246) translate(360 25)">
                        <path stroke="#8BEAFF" stroke-dasharray="0 4" stroke-linecap="round" d="M3.416 13L3.416 36"/>
                        <circle cx="3.5" cy="3.5" r="2.5" stroke="#FEDB41" stroke-width="2"/>
                    </g>
                    <g transform="translate(-405 -1902) translate(345 1657) translate(60 246)">
                        <path stroke="#8BEAFF" stroke-dasharray="0 4" stroke-linecap="round" d="M3.416 82v7c0 5.523 4.477 10 10 10h340c5.523 0 10-4.477 10-10v-6h0"/>
                        <path stroke="#8BEAFF" stroke-dasharray="0 4" stroke-linecap="round" d="M3.416 0v7c0 5.523 4.477 10 10 10h340c5.523 0 10-4.477 10-10V1h0" transform="matrix(1 0 0 -1 0 17)"/>
                        <circle cx="3.5" cy="70.5" r="2.5" stroke="#FEDB41" stroke-width="2"/>
                    </g>
                    <g transform="translate(-405 -1902) translate(345 1657) translate(60 246) translate(0 25)">
                        <path stroke="#8BEAFF" stroke-dasharray="0 4" stroke-linecap="round" d="M3.416 13L3.416 35"/>
                        <circle cx="3.5" cy="3.5" r="2.5" stroke="#FEDB41" stroke-width="2"/>
                    </g>
                </g>
            </g>
        </g>
    </g>
</svg>
