<?xml version="1.0" encoding="UTF-8"?>
<svg width="83px" height="102px" viewBox="0 0 83 102" version="1.1" xmlns="http://www.w3.org/2000/svg" xmlns:xlink="http://www.w3.org/1999/xlink">
    <title>Group 7</title>
    <defs>
        <linearGradient x1="15.076769%" y1="28.3640026%" x2="63.3459354%" y2="57.8311393%" id="linearGradient-1">
            <stop stop-color="#CF44FB" offset="0%"></stop>
            <stop stop-color="#2854C6" offset="57%"></stop>
            <stop stop-color="#1E46B6" offset="79%"></stop>
            <stop stop-color="#001A86" offset="100%"></stop>
        </linearGradient>
        <linearGradient x1="41.0743886%" y1="77.0056848%" x2="62.3737419%" y2="31.3740687%" id="linearGradient-2">
            <stop stop-color="#11DADC" offset="0%"></stop>
            <stop stop-color="#0C7CFE" offset="100%"></stop>
        </linearGradient>
        <linearGradient x1="49.2226633%" y1="92.1584111%" x2="53.1472696%" y2="26.3718249%" id="linearGradient-3">
            <stop stop-color="#11D8DD" offset="0%"></stop>
            <stop stop-color="#0C7CFE" offset="100%"></stop>
        </linearGradient>
    </defs>
    <g id="Главная" stroke="none" stroke-width="1" fill="none" fill-rule="evenodd">
        <g id="Главная-1920" transform="translate(-1158.000000, -720.000000)">
            <g id="Как-мы-работаем" transform="translate(345.000000, 610.000000)">
                <g id="Как-это-работает" transform="translate(630.000000, 0.000000)">
                    <g id="2" transform="translate(121.000000, 54.000000)">
                        <g id="Group-7" transform="translate(62.000000, 56.000000)">
                            <path d="M7.804,98.18 C8.398,98.18 8.92,98.126 9.586,97.946 C10.036,97.82 10.54,97.586 11.17,97.28 C11.584,97.064 12.196,96.524 12.592,96.128 C12.808,95.894 12.952,95.84 12.97,95.66 L12.97,94.922 L12.988,93.716 C12.9751429,93.536 12.9714694,93.2182449 12.9704198,92.89393 L12.97,92.51 L12.97,92.51 C12.9741538,92.3770769 12.9763905,92.2403195 12.9773737,92.108355 L12.9772262,91.7354675 C12.9752189,91.4700473 12.97,91.2776923 12.97,91.268 C12.952,91.178 12.898,91.106 12.772,91.106 L9.73,91.106 C9.442,91.106 9.316,91.088 9.01,91.088 C8.434,91.088 8.074,91.106 8.038,91.106 C7.894,91.106 7.84,91.178 7.84,91.25 L7.84,92.078 C7.84,92.132 7.858,92.42 7.858,92.6 C7.858,92.672 7.876,92.816 7.876,92.87 L7.876,93.032 C7.876,93.104 7.984,93.158 8.11,93.158 C8.4178,93.1742 8.63812,93.16124 9.203986,93.158486 L10.9,93.158 L10.9,94.85 C10.792,94.94 10.702,95.048 10.612,95.12 C10.468,95.246 10.072,95.498 9.874,95.606 C9.694,95.696 9.316,95.822 9.1,95.894 C8.776,95.984 8.308,96.092 7.93,96.092 C7.444,96.092 7.012,96.074 6.814,96.038 C6.4,95.93 6.256,95.876 5.86,95.678 C5.806,95.66 5.662,95.606 5.608,95.57 C5.446,95.498 5.266,95.39 5.122,95.246 C4.996,95.138 4.87,95.048 4.78,94.976 C4.384,94.616 4.15,94.328 3.898,93.878 C3.79,93.662 3.43,92.852 3.34,92.132 C3.322,91.97 3.286,91.664 3.286,91.484 C3.286,90.566 3.538,90.026 3.646,89.612 C3.826,89.036 4.222,88.46 4.726,87.992 C5.266,87.524 5.788,87.236 6.148,87.11 C6.49,86.984 7.102,86.894 7.588,86.894 C7.948,86.894 8.452,86.948 8.956,87.164 C9.298,87.29 9.622,87.452 9.91,87.686 C10.288,87.992 10.666,88.406 10.972,88.838 C11.026,88.91 11.098,88.982 11.17,88.982 C11.206,88.982 11.26,88.946 11.296,88.928 C11.44,88.838 11.512,88.802 11.656,88.694 C11.872,88.55 11.926,88.496 12.07,88.388 C12.196,88.316 12.286,88.226 12.376,88.172 C12.502,88.1 12.502,88.1 12.61,88.01 C12.664,87.956 12.7,87.92 12.7,87.83 C12.7,87.794 12.664,87.722 12.646,87.668 C12.538,87.506 12.34,87.218 12.214,87.056 C11.89,86.624 11.512,86.3 11.098,85.958 C10.738,85.652 10.198,85.346 9.604,85.13 C9.1,84.95 8.542,84.824 7.984,84.806 C7.444,84.788 7.21,84.77 7.066,84.77 C6.868,84.77 6.796,84.788 6.454,84.842 C6.328,84.842 5.716,85.022 5.644,85.022 C5.14,85.112 4.402,85.58 4.222,85.67 C3.682,85.976 3.25,86.39 2.872,86.768 C2.422,87.254 2.08,87.776 1.846,88.334 C1.684,88.712 1.396,89.27 1.234,90.08 C1.162,90.458 1.108,90.89 1.108,91.358 C1.108,92.168 1.252,93.122 1.684,94.256 C1.756,94.454 2.062,95.138 2.224,95.336 C2.584,95.84 2.908,96.146 3.16,96.398 C3.808,97.028 4.204,97.208 4.672,97.55 C4.852,97.676 5.068,97.694 5.266,97.802 C5.482,97.928 5.734,97.946 5.968,98 C6.616,98.18 6.832,98.144 7.066,98.162 C7.336,98.162 7.57,98.18 7.804,98.18 Z M22.5305714,98 C23.1731714,97.9874 23.7099314,97.98362 24.1099814,97.982486 L24.4186814,97.982018 C24.4643114,97.982 24.5069714,97.982 24.5465714,97.982 C24.7085714,97.982 24.8345714,97.982 24.8525714,97.892 C24.8705714,97.82 24.8705714,97.73 24.8705714,97.676 C24.8705714,97.442 24.8885714,96.974 24.8705714,96.65 C24.8705714,96.398 24.8525714,96.182 24.8525714,96.074 C24.8525714,96.02 24.7985714,95.93 24.6545714,95.93 L23.1605714,95.93 L23.1605714,95.93 L22.4225714,95.948 C22.0445714,95.948 21.6845714,95.966 21.3065714,95.966 L19.0565714,95.966 L19.0565714,95.03 C19.0565714,94.436 19.0385714,94.04 19.0385714,93.536 C19.0565714,93.338 19.0565714,93.212 19.0565714,93.014 L19.0565714,92.42 L23.4125714,92.42 C23.5745714,92.42 23.6645714,92.42 23.6645714,92.258 L23.6825714,91.574 C23.6825714,91.394 23.7005714,91.124 23.7005714,90.98 C23.7005714,90.764 23.6645714,90.638 23.6645714,90.602 C23.6645714,90.476 23.6645714,90.422 23.4305714,90.404 L23.0705714,90.386 C22.9445714,90.35 22.2425714,90.386 22.0625714,90.386 L19.7819048,90.3866667 C19.6045714,90.388 19.3205714,90.392 19.0205714,90.404 C19.0205714,89.7821818 19.0056954,89.0859835 19.0029907,88.7752096 L19.0025714,87.002 L20.5685714,87.002 C20.9465714,87.002 21.5045714,87.02 21.8825714,87.02 L24.4565714,87.02 C24.6365714,87.02 24.6545714,86.948 24.6545714,86.858 L24.6725714,86.48 L24.6725714,86.48 L24.6905714,85.328 C24.6905714,85.238 24.6725714,85.148 24.6725714,85.076 C24.6725714,85.022 24.6185714,84.95 24.4925714,84.95 L24.3836995,84.9506888 C24.0043915,84.9539862 22.8683361,84.968 22.0265714,84.968 L21.2705714,84.968 L21.2466561,84.9679918 L21.2466561,84.9679918 L21.0551613,84.9674756 C20.7871276,84.9662959 20.3193407,84.9624615 19.9205714,84.95 L18.0305714,84.95 C17.5265714,84.968 17.1125714,84.968 17.0405714,84.986 C16.9685714,84.986 16.9145714,85.094 16.9145714,85.202 L16.9145714,86.048 L16.9325714,86.714 C16.9145714,87.668 16.8965714,88.838 16.8965714,90.314 C16.8965714,90.692 16.9145714,91.034 16.9145714,91.394 L16.8965714,92.258 C16.8965714,93.446 16.9145714,94.202 16.9145714,95.21 L16.9145714,96.542 L16.9325714,97.082 C16.9325714,97.316 16.9145714,97.64 16.9145714,97.784 C16.9325714,97.964 16.9865714,97.982 17.0405714,97.982 C17.1305714,97.982 17.2205714,98 17.3645714,98 L22.5305714,98 Z M37.4371429,98.018 L37.9411429,98 C37.9591429,98 38.0311429,97.946 38.0311429,97.874 C38.0491429,97.784 38.0491429,97.658 38.0491429,97.586 L38.0491429,97.172 C38.0356429,96.983 38.0322679,96.6725 38.0314241,96.3088437 L38.0311429,95.93 C38.0311429,95.426 38.0359032,94.8315537 38.0419618,94.2176334 L38.0515906,93.2910188 C38.0597048,92.5214545 38.0671429,91.7769091 38.0671429,91.196 L38.067497,90.3927708 L38.067497,90.3927708 L38.0699554,89.9320625 C38.0750179,89.241875 38.0851429,88.577 38.0851429,88.226 L38.0851429,86.174 C38.0851429,85.814 38.1031429,85.616 38.1031429,85.22 C38.1031429,85.004 38.0311429,84.968 37.9231429,84.968 L37.8151429,84.968 C37.6145714,84.968 37.5330204,84.9547755 37.2984431,84.9509971 L36.1231429,84.95 C36.0151429,84.95 35.9611429,84.968 35.9611429,85.22 L35.9618095,90.3333333 C35.9631429,90.828 35.9671429,91.16 35.9791429,91.34 L35.9795627,93.4377085 C35.9806122,93.7696327 35.9842857,94.0451429 35.9971429,94.238 L35.9071429,94.094 C35.6911429,93.716 35.1151429,92.78 34.9891429,92.492 L34.5751429,91.808 C34.2691429,91.232 34.1251429,91.052 33.5851429,90.08 C32.9371429,88.91 32.5051429,88.262 32.5051429,88.262 C32.0191429,87.398 31.9291429,87.254 31.9291429,87.254 C31.5331429,86.552 31.3171429,86.174 30.8491429,85.292 C30.7231429,85.04 30.6691429,84.95 30.4171429,84.95 C30.3631429,84.95 30.2551429,84.95 30.1291429,84.968 L29.9131429,84.95 L29.9131429,84.95 L29.2291429,84.95 L28.7611429,84.968 L28.7611429,84.968 C28.6891429,84.968 28.6531429,85.022 28.6531429,85.094 L28.6531429,87.074 C28.6531429,88.334 28.6382668,90.1444132 28.6355621,91.4233464 L28.6351429,92.366 C28.6351429,93.176 28.6205629,94.52546 28.6176469,94.734764 L28.6171429,97.766 C28.6171429,97.97075 28.6860491,97.9963437 28.7635686,97.999543 L29.6971429,98 C29.9671429,98 30.0211429,98.018 30.5971429,98 C30.6691429,98 30.7591429,97.982 30.7591429,97.64 C30.7591429,97.3454545 30.7442668,96.7533884 30.7415621,95.971991 L30.7411429,93.518 C30.7411429,92.528 30.7591429,91.916 30.7411429,91.646 L30.7411429,90.008 C30.7411429,89.648 30.7231429,89.324 30.7231429,89.072 C31.0471429,89.612 31.2811429,90.026 31.3351429,90.134 C31.3351429,90.134 31.7671429,90.962 32.2171429,91.682 L32.8291429,92.672 C33.0271429,92.996 33.6391429,93.95 33.9091429,94.436 C33.9811429,94.58 34.3591429,95.12 34.5931429,95.516 L35.4391429,96.83 L35.4391429,96.83 L35.9611429,97.694 C36.1051429,97.928 36.1591429,98 36.3751429,98 L36.9511429,98 C37.1311429,98 37.3471429,98.018 37.4371429,98.018 Z M48.3657143,98 C49.0083143,97.9874 49.5450743,97.98362 49.9451243,97.982486 L50.2538243,97.982018 C50.2994543,97.982 50.3421143,97.982 50.3817143,97.982 C50.5437143,97.982 50.6697143,97.982 50.6877143,97.892 C50.7057143,97.82 50.7057143,97.73 50.7057143,97.676 C50.7057143,97.442 50.7237143,96.974 50.7057143,96.65 C50.7057143,96.398 50.6877143,96.182 50.6877143,96.074 C50.6877143,96.02 50.6337143,95.93 50.4897143,95.93 L48.9957143,95.93 L48.9957143,95.93 L48.2577143,95.948 C47.8797143,95.948 47.5197143,95.966 47.1417143,95.966 L44.8917143,95.966 L44.8917143,95.03 C44.8917143,94.436 44.8737143,94.04 44.8737143,93.536 C44.8857143,93.404 44.8897143,93.304 44.8910476,93.1933333 L44.8917143,92.42 L49.2477143,92.42 C49.4097143,92.42 49.4997143,92.42 49.4997143,92.258 L49.5177143,91.574 C49.5177143,91.394 49.5357143,91.124 49.5357143,90.98 C49.5357143,90.764 49.4997143,90.638 49.4997143,90.602 C49.4997143,90.476 49.4997143,90.422 49.2657143,90.404 L48.9057143,90.386 C48.7797143,90.35 48.0777143,90.386 47.8977143,90.386 L45.6170476,90.3866667 C45.4397143,90.388 45.1557143,90.392 44.8557143,90.404 C44.8557143,89.72 44.8377143,88.946 44.8377143,88.694 L44.8377143,87.002 L46.4037143,87.002 C46.7817143,87.002 47.3397143,87.02 47.7177143,87.02 L50.2917143,87.02 C50.4717143,87.02 50.4897143,86.948 50.4897143,86.858 L50.5077143,86.48 L50.5077143,86.48 L50.5257143,85.328 C50.5257143,85.238 50.5077143,85.148 50.5077143,85.076 C50.5077143,85.022 50.4537143,84.95 50.3277143,84.95 L50.2188423,84.9506888 C49.8395344,84.9539862 48.703479,84.968 47.8617143,84.968 L47.1057143,84.968 L47.0817989,84.9679918 L47.0817989,84.9679918 L46.8903042,84.9674756 C46.6222705,84.9662959 46.1544835,84.9624615 45.7557143,84.95 L43.8657143,84.95 C43.3617143,84.968 42.9477143,84.968 42.8757143,84.986 C42.8037143,84.986 42.7497143,85.094 42.7497143,85.202 L42.7497143,86.048 L42.7677143,86.714 C42.7497143,87.668 42.7317143,88.838 42.7317143,90.314 C42.7317143,90.692 42.7497143,91.034 42.7497143,91.394 L42.7317143,92.258 C42.7317143,93.314 42.7459365,94.0286667 42.749097,94.8823951 L42.7497143,96.542 L42.7677143,97.082 C42.7677143,97.316 42.7497143,97.64 42.7497143,97.784 C42.7651429,97.9382857 42.8070204,97.973551 42.8526764,97.9804781 L42.8757143,97.982 C42.9657143,97.982 43.0557143,98 43.1997143,98 L48.3657143,98 Z M58.7182857,98.198 C58.8982857,98.198 59.1862857,98.144 59.4742857,98.072 C59.8522857,97.982 60.1222857,97.892 60.6622857,97.64 C61.1122857,97.478 61.3462857,97.244 61.7782857,96.74 C61.9762857,96.542 62.3002857,96.11 62.4802857,95.588 C62.5522857,95.408 62.6782857,94.94 62.6782857,94.598 C62.6782857,94.4 62.6602857,94.184 62.6422857,94.022 C62.6242857,93.878 62.5702857,93.644 62.5342857,93.518 C62.4442857,93.284 62.2822857,92.888 62.1562857,92.708 C61.9042857,92.312 61.6522857,92.096 61.4722857,91.916 C61.1302857,91.61 60.8422857,91.43 60.4642857,91.232 C60.1582857,91.088 59.6722857,90.854 59.2762857,90.692 C58.7002857,90.44 58.1422857,90.26 57.7642857,90.098 C57.2242857,89.864 56.7022857,89.612 56.3782857,89.36 C56.2162857,89.234 55.9642857,88.928 55.8742857,88.712 C55.7842857,88.424 55.8022857,88.064 56.0182857,87.776 C56.2522857,87.344 56.5402857,87.182 57.0082857,87.038 C57.2962857,86.93 57.6202857,86.876 57.8542857,86.84 C58.1962857,86.84 58.5562857,86.93 58.7542857,87.02 C59.3482857,87.182 59.9422857,87.524 60.1582857,87.704 C60.5002857,87.956 60.7702857,88.226 60.8602857,88.28 C60.9682857,88.352 61.0942857,88.298 61.1482857,88.28 C61.3642857,88.1 61.5442857,87.866 61.7062857,87.704 C61.8682857,87.56 61.9402857,87.452 62.0482857,87.344 C62.1022857,87.29 62.1562857,87.2 62.2102857,87.128 C62.2462857,87.038 62.1742857,86.894 62.1022857,86.804 C61.8502857,86.48 61.5802857,86.246 61.4362857,86.138 C60.7342857,85.58 60.4102857,85.418 60.0322857,85.292 C59.4742857,84.968 59.0422857,84.896 58.5202857,84.824 C58.2862857,84.788 57.9082857,84.788 57.5482857,84.806 C57.2602857,84.824 56.8102857,84.914 56.4682857,85.022 C55.9462857,85.238 55.2982857,85.526 55.0102857,85.814 C54.3982857,86.3 54.2722857,86.534 53.9482857,87.002 C53.7502857,87.326 53.7322857,87.632 53.6962857,87.956 C53.6602857,88.154 53.6602857,88.388 53.6782857,88.622 C53.7142857,88.964 53.7682857,89.252 53.9122857,89.522 C54.0022857,89.828 54.2182857,90.17 54.4342857,90.422 C54.5422857,90.548 54.7402857,90.764 54.8842857,90.872 C54.9742857,90.98 55.0642857,91.016 55.1722857,91.088 C55.3162857,91.214 55.4062857,91.25 55.6222857,91.358 C55.8382857,91.502 56.0182857,91.556 56.2522857,91.682 C56.4142857,91.772 56.6662857,91.862 56.8282857,91.934 L57.6922857,92.276 C58.0882857,92.438 58.1602857,92.456 58.5382857,92.636 C58.7182857,92.708 58.9522857,92.834 59.0962857,92.924 C59.4202857,93.086 59.8162857,93.338 60.0142857,93.536 C60.1582857,93.662 60.3742857,94.058 60.4102857,94.328 C60.4282857,94.526 60.3562857,94.994 60.1582857,95.318 C60.0322857,95.57 59.7622857,95.804 59.4742857,95.93 C59.2582857,96.02 58.7542857,96.146 58.4302857,96.164 C58.0342857,96.164 57.4222857,96.074 57.0802857,95.93 C56.5402857,95.75 56.0362857,95.444 55.6222857,95.084 C55.3342857,94.886 55.1362857,94.688 54.8842857,94.49 C54.8662857,94.454 54.7942857,94.4 54.7402857,94.4 C54.6322857,94.454 54.5782857,94.472 54.5062857,94.544 C54.3622857,94.688 54.1282857,94.904 53.9662857,95.102 C53.8942857,95.192 53.8042857,95.264 53.7142857,95.354 C53.6062857,95.426 53.6062857,95.48 53.5342857,95.57 C53.4802857,95.624 53.4622857,95.66 53.4442857,95.714 C53.4082857,95.786 53.3902857,95.858 53.4442857,95.948 C53.6062857,96.164 53.9842857,96.47 54.1642857,96.614 C54.4342857,96.884 54.9742857,97.28 55.2802857,97.46 C55.6762857,97.676 56.1082857,97.838 56.7022857,97.964 C57.1162857,98.09 57.5302857,98.162 57.9982857,98.18 C58.2682857,98.216 58.4842857,98.198 58.7182857,98.198 Z M67.0188571,98.018 L67.9368571,98 L68.0808571,98 C68.1708571,98 68.1888571,97.91 68.1888571,97.838 L68.1888571,95.732 C68.1888571,94.94 68.1708571,94.112 68.1708571,93.446 L68.1708571,86.246 C68.1708571,85.958 68.2068571,85.634 68.1708571,85.346 L68.1708571,85.202 C68.1708571,84.968 68.1168571,84.95 68.0448571,84.95 L67.9548571,84.95 C67.6668571,84.95 67.4508571,84.932 67.1808571,84.932 C67.0008571,84.932 66.8208571,84.95 66.6228571,84.95 L66.1908571,84.95 C66.0468571,84.95 66.0468571,85.076 66.0468571,85.238 L66.0468571,88.01 C66.0517662,88.1867273 66.0539976,88.3380165 66.0546468,88.4667889 L66.0541599,88.6951766 C66.0522125,88.8952727 66.0468571,89.0130909 66.0468571,89.072 L66.0648571,90.206 C66.0648571,90.5924 66.0962171,92.39 66.1003985,92.9499253 L66.1008571,95.822 C66.1008571,96.578 66.1008571,97.298 66.1188571,97.676 C66.1188571,98 66.1728571,97.982 66.2808571,98 C66.4428571,98.018 66.7308571,98.018 67.0188571,98.018 Z M77.0834286,98.198 C77.2634286,98.198 77.5514286,98.144 77.8394286,98.072 C78.2174286,97.982 78.4874286,97.892 79.0274286,97.64 C79.4774286,97.478 79.7114286,97.244 80.1434286,96.74 C80.3414286,96.542 80.6654286,96.11 80.8454286,95.588 C80.9174286,95.408 81.0434286,94.94 81.0434286,94.598 C81.0434286,94.4 81.0254286,94.184 81.0074286,94.022 C80.9894286,93.878 80.9354286,93.644 80.8994286,93.518 C80.8094286,93.284 80.6474286,92.888 80.5214286,92.708 C80.2694286,92.312 80.0174286,92.096 79.8374286,91.916 C79.4954286,91.61 79.2074286,91.43 78.8294286,91.232 C78.5234286,91.088 78.0374286,90.854 77.6414286,90.692 C77.0654286,90.44 76.5074286,90.26 76.1294286,90.098 C75.5894286,89.864 75.0674286,89.612 74.7434286,89.36 C74.5814286,89.234 74.3294286,88.928 74.2394286,88.712 C74.1494286,88.424 74.1674286,88.064 74.3834286,87.776 C74.6174286,87.344 74.9054286,87.182 75.3734286,87.038 C75.6614286,86.93 75.9854286,86.876 76.2194286,86.84 C76.5614286,86.84 76.9214286,86.93 77.1194286,87.02 C77.7134286,87.182 78.3074286,87.524 78.5234286,87.704 C78.8654286,87.956 79.1354286,88.226 79.2254286,88.28 C79.3334286,88.352 79.4594286,88.298 79.5134286,88.28 C79.7294286,88.1 79.9094286,87.866 80.0714286,87.704 C80.2334286,87.56 80.3054286,87.452 80.4134286,87.344 C80.4674286,87.29 80.5214286,87.2 80.5754286,87.128 C80.6114286,87.038 80.5394286,86.894 80.4674286,86.804 C80.2154286,86.48 79.9454286,86.246 79.8014286,86.138 C79.0994286,85.58 78.7754286,85.418 78.3974286,85.292 C77.8394286,84.968 77.4074286,84.896 76.8854286,84.824 C76.6514286,84.788 76.2734286,84.788 75.9134286,84.806 C75.6254286,84.824 75.1754286,84.914 74.8334286,85.022 C74.3114286,85.238 73.6634286,85.526 73.3754286,85.814 C72.7634286,86.3 72.6374286,86.534 72.3134286,87.002 C72.1154286,87.326 72.0974286,87.632 72.0614286,87.956 C72.0254286,88.154 72.0254286,88.388 72.0434286,88.622 C72.0794286,88.964 72.1334286,89.252 72.2774286,89.522 C72.3674286,89.828 72.5834286,90.17 72.7994286,90.422 C72.9074286,90.548 73.1054286,90.764 73.2494286,90.872 C73.3394286,90.98 73.4294286,91.016 73.5374286,91.088 C73.6814286,91.214 73.7714286,91.25 73.9874286,91.358 C74.2034286,91.502 74.3834286,91.556 74.6174286,91.682 C74.7794286,91.772 75.0314286,91.862 75.1934286,91.934 L76.0574286,92.276 C76.4534286,92.438 76.5254286,92.456 76.9034286,92.636 C77.0834286,92.708 77.3174286,92.834 77.4614286,92.924 C77.7854286,93.086 78.1814286,93.338 78.3794286,93.536 C78.5234286,93.662 78.7394286,94.058 78.7754286,94.328 C78.7934286,94.526 78.7214286,94.994 78.5234286,95.318 C78.3974286,95.57 78.1274286,95.804 77.8394286,95.93 C77.6234286,96.02 77.1194286,96.146 76.7954286,96.164 C76.3994286,96.164 75.7874286,96.074 75.4454286,95.93 C74.9054286,95.75 74.4014286,95.444 73.9874286,95.084 C73.6994286,94.886 73.5014286,94.688 73.2494286,94.49 C73.2314286,94.454 73.1594286,94.4 73.1054286,94.4 C72.9974286,94.454 72.9434286,94.472 72.8714286,94.544 C72.7274286,94.688 72.4934286,94.904 72.3314286,95.102 C72.2594286,95.192 72.1694286,95.264 72.0794286,95.354 C71.9714286,95.426 71.9714286,95.48 71.8994286,95.57 C71.8454286,95.624 71.8274286,95.66 71.8094286,95.714 C71.7734286,95.786 71.7554286,95.858 71.8094286,95.948 C71.9714286,96.164 72.3494286,96.47 72.5294286,96.614 C72.7994286,96.884 73.3394286,97.28 73.6454286,97.46 C74.0414286,97.676 74.4734286,97.838 75.0674286,97.964 C75.4814286,98.09 75.8954286,98.162 76.3634286,98.18 C76.6334286,98.216 76.8494286,98.198 77.0834286,98.198 Z" id="GENESIS" fill="#FFFFFF" fill-rule="nonzero"></path>
                            <g id="logo-color" transform="translate(12.000000, 0.000000)">
                                <path d="M33.120421,0.86911722 C31.0559003,-0.300824893 28.5263212,-0.288821866 26.4730975,0.900419232 C20.7681293,4.20478199 9.15767182,10.9297721 3.45082081,14.235547 C1.39594964,15.4257295 0.126688362,17.6163996 0.116097456,19.9911162 C0.087148979,26.5019347 0.0290166712,39.6487796 0,46.1941951 C-0.0107580657,48.596448 1.26815271,50.8195969 3.35008953,52.0180168 C9.06541326,55.3082583 20.600793,61.9487565 26.3260016,65.2444112 C28.4154697,66.4473028 30.9907074,66.4320049 33.065819,65.2044011 C36.3544131,63.258734 41.5215986,60.2014924 46.0834549,57.5024587 C48.0990221,56.3099227 49.3414531,54.147495 49.3565157,51.8054926 C49.3715783,49.4637255 48.1571544,47.2852938 46.1571206,46.0668688 C43.4510263,44.4184531 40.7284574,42.7599172 38.8420993,41.6109215 C37.4344502,40.7532935 35.605283,41.1103247 34.6231529,42.4339526 C33.6600865,43.7321624 32.4642555,45.3440983 31.4953053,46.6498394 C31.0744933,47.2170413 30.4098551,47.5512432 29.7033239,47.5505371 C28.9970282,47.5498311 28.3328607,47.2144524 27.9132254,46.6463091 C23.6528569,40.8639096 20.0583033,34.7680193 17.2255889,28.145408 C16.9490485,27.4953617 16.997296,26.7525861 17.3557393,26.143962 C17.7139473,25.5351026 18.3399876,25.1321774 19.0425177,25.0585118 C26.2572784,24.312912 33.1479574,24.1095666 40.3601292,24.7960927 C41.067131,24.8666987 41.6981137,25.2708006 42.0579691,25.8834257 C42.41806,26.4960508 42.4637185,27.2437688 42.1812944,27.8956979 C41.8169672,28.7439118 41.4027451,29.700153 40.9967603,30.6370952 C39.8531778,33.2775258 40.9047371,36.3545371 43.4251375,37.7426519 C45.0342492,38.6285223 46.9262557,39.6704322 48.8319128,40.7198733 C51.0249365,41.927472 53.6910206,41.8942871 55.8534483,40.6327925 C58.015876,39.3710625 59.3566847,37.0664813 59.3844565,34.5630265 C59.4425888,29.333943 59.5070756,23.5463657 59.5491483,19.81719 C59.5757988,17.382929 58.2775891,15.1263599 56.1598785,13.9260572 C50.3901881,10.6562914 38.8218589,4.10028505 33.120421,0.86911722 Z" id="Path" fill="url(#linearGradient-1)"></path>
                                <path d="M35.8928953,2.29056288 C35.8928953,2.29056288 41.6818847,7.02352122 43.8537266,13.7094427 C46.1688987,20.8366519 42.0680998,29.3427971 39.9141448,33.0908012 C39.6124216,33.607402 39.5309893,34.2235574 39.6884408,34.8006441 C39.8458923,35.3777309 40.2288124,35.8672661 40.7512971,36.1586337 C44.380683,38.1864392 52.0101365,42.4439835 56.3914768,44.8890708 C57.0787089,45.2724616 57.917038,45.2651656 58.5974449,44.8697718 C59.2776164,44.4743779 59.6991345,43.7494892 59.7059597,42.9627026 C59.7579728,37.0720405 59.8579981,25.7171769 59.9111879,19.7036603 C59.9326051,17.2613973 58.6207449,15.0017686 56.4891485,13.8097033 C49.8340583,10.0875881 35.8928953,2.29056288 35.8928953,2.29056288 Z" id="Path" fill="url(#linearGradient-2)"></path>
                                <g id="Group" transform="translate(31.591423, 53.518015) scale(-1, 1) rotate(120.000012) translate(-31.591423, -53.518015) translate(19.091423, 31.518015)" fill="url(#linearGradient-3)">
                                    <path d="M0.0534252196,0.167571614 C0.0534252196,0.167571614 5.84241257,4.9005283 8.01425365,11.5864474 C10.329425,18.7136541 6.22862748,27.2197964 4.07467325,30.9677991 C3.7729502,31.4843998 3.69151793,32.100555 3.84896935,32.6776415 C4.00642077,33.254728 4.38934073,33.7442631 4.91182526,34.0356306 C8.5412099,36.0634354 16.1706608,40.3209782 20.5519995,42.7660646 C21.2392314,43.1494553 22.0775602,43.1421593 22.7579668,42.7467656 C23.4381381,42.3513719 23.859656,41.6264835 23.8664813,40.8396971 L24.0717094,17.5806629 C24.0931266,15.1384008 22.7812668,12.8787729 20.6496711,11.686708 C13.9945833,7.96459409 0.0534252196,0.167571614 0.0534252196,0.167571614 Z" id="Path"></path>
                                </g>
                            </g>
                        </g>
                    </g>
                </g>
            </g>
        </g>
    </g>
</svg>