<svg xmlns="http://www.w3.org/2000/svg" width="60" height="41" viewBox="0 0 60 41"><g><g><g><g><path fill="#45a7e7" d="M4.128.08h50.8a4.128 4.128 0 0 1 4.128 4.128v32.117a4.128 4.128 0 0 1-4.128 4.128h-50.8A4.128 4.128 0 0 1 0 36.325V4.208A4.128 4.128 0 0 1 4.128.08z"/></g></g><g><g><path fill="#fdfae5" d="M6.57 27.38h8.147v4.128H6.57z"/></g><g><path fill="#fdfae5" d="M19.16 27.38h8.147v4.128H19.16z"/></g><g><path fill="#faf1b4" d="M31.75 27.38h8.147v4.128H31.75z"/></g><g><path fill="#faf1b4" d="M44.34 27.38h8.147v4.128H44.34z"/></g><g><path fill="#fdfae5" d="M6.69 11.09h12.466v8.757H6.69z"/></g></g></g></g></svg>