<svg xmlns="http://www.w3.org/2000/svg" width="38" height="40" viewBox="0 0 38 40">
    <g fill="none" fill-rule="evenodd">
        <g fill="#C66FEC" fill-rule="nonzero">
            <g>
                <g>
                    <g>
                        <g>
                            <path d="M18.563 35.015c.205.205.208.537.006.746l-1.34 1.339c-.099.1-.234.156-.375.156-.216 0-.41-.13-.492-.329-.082-.199-.037-.428.115-.58l1.34-1.339c.208-.202.54-.199.746.007zM28.898 24.68c.205.206.208.538.006.746l-7.843 7.843c-.1.1-.235.155-.375.155-.216 0-.41-.13-.492-.329-.082-.199-.037-.428.115-.58l7.843-7.841c.209-.202.54-.199.746.006zM39.823.156c.122.122.177.296.148.466L37.539 14.78c-.034.196-.174.357-.364.417s-.396.01-.537-.13l-2.572-2.573-1.88 1.88c-.21.202-.541.2-.747-.006-.205-.205-.208-.537-.006-.746l2.256-2.256c.208-.208.545-.208.753 0l2.222 2.221 2.128-12.4-12.4 2.125 2.224 2.22c.208.208.208.545 0 .753L17.333 17.569l5.075 5.075 2.62-2.62c.209-.202.54-.199.746.006.205.206.208.538.007.746l-2.997 2.997c-.099.1-.234.155-.374.156-.141 0-.276-.056-.376-.156l-5.828-5.828c-.208-.208-.208-.545 0-.753l11.28-11.284-2.573-2.573c-.14-.14-.191-.348-.13-.537.06-.19.22-.33.416-.364L39.357.007c.17-.029.344.027.466.149zM2.25 20.238c.206.206.209.538.007.747l-1.34 1.339c-.099.1-.234.156-.375.156-.216 0-.41-.13-.492-.329-.082-.199-.037-.428.115-.58l1.34-1.339c.208-.202.54-.199.745.006zm7.541-1.71c.205.205.208.537.006.746l-1.339 1.34c-.1.098-.235.154-.376.154-.215 0-.41-.13-.491-.329-.083-.198-.037-.427.115-.58l1.339-1.338c.209-.201.54-.198.746.007zm2.794-8.622c.205.205.208.537.006.746L4.75 18.493c-.1.1-.235.156-.376.156-.215 0-.41-.13-.492-.328-.082-.2-.036-.428.116-.58l7.843-7.842c.208-.201.54-.198.746.007zm16.942 6.372c.206.205.209.537.007.746l-1.102 1.102c-.1.1-.235.156-.376.156-.215 0-.41-.13-.492-.329-.082-.199-.036-.427.116-.58l1.101-1.101c.21-.202.541-.2.746.006zm-11.343-6.142c.205.205.208.537.007.746l-5.902 5.9c-.1.1-.235.156-.376.156-.216 0-.41-.13-.492-.33-.082-.198-.037-.427.115-.579l5.902-5.9c.209-.201.54-.199.746.007z" transform="translate(-1080 -438) translate(345 202) translate(0 159) translate(735 77) rotate(90 19 19)"/>
                        </g>
                    </g>
                </g>
            </g>
        </g>
    </g>
</svg>
