<svg xmlns="http://www.w3.org/2000/svg" width="40" height="37" viewBox="0 0 40 37">
    <g fill="none" fill-rule="evenodd">
        <g fill="#4ACDED">
            <g>
                <g>
                    <g>
                        <g>
                            <path d="M19.958 0c7.742 0 14.13 6.06 14.538 13.791l.781.125c1.499.21 2.579 1.544 2.47 3.053 1.45.434 2.367 1.86 2.161 3.358-.214 1.515-1.474 2.663-3.001 2.737-.279 1.339-1.452 2.303-2.82 2.317l-.404-.037h-.054c-.931 6.393-6.412 11.135-12.873 11.136-.492.005-.984-.025-1.471-.09-1.049-.119-1.923-.856-2.218-1.869-.295-1.013.048-2.104.87-2.766.544-.428 1.233-.626 1.921-.552.691.074 1.324.423 1.753.97.438.538.637 1.232.552 1.921-.043.407-.188.796-.421 1.131 5.465-.464 9.89-4.63 10.685-10.057-.703-.14-1.329-.533-1.76-1.104-.464-.61-.663-1.38-.552-2.137l.807-5.712c.1-.756.498-1.441 1.104-1.904.37-.27.797-.455 1.248-.538C32.86 6.719 27.02 1.21 19.954 1.21c-7.067 0-12.908 5.508-13.322 12.562.452.08.88.264 1.248.538.619.457 1.026 1.143 1.131 1.904l.802 5.721c.11.758-.088 1.528-.551 2.137-.464.606-1.15 1.003-1.906 1.104l-1.12.163-.404.037c-.626-.006-1.233-.212-1.733-.588-.55-.415-.929-1.015-1.068-1.689-.655-.016-1.289-.235-1.814-.627-.652-.481-1.08-1.208-1.186-2.012-.118-.84.102-1.692.61-2.37.384-.517.917-.902 1.527-1.104-.123-1.517.962-2.866 2.47-3.071l.782-.125C5.828 6.06 12.216 0 19.958 0zm-.225 32.397c-.373-.037-.747.072-1.04.305-.291.23-.479.566-.523.934-.034.374.075.746.305 1.041.23.289.572.475.944.52.37.037.741-.073 1.033-.304.29-.236.475-.579.512-.951.043-.368-.064-.737-.296-1.025-.236-.284-.569-.47-.935-.52zm-1.006-21.84c.813-.124 1.64-.124 2.452 0 .255.049.454.248.502.503l.322 2.012 1.655-1.184c.205-.162.495-.162.7 0 .671.472 1.259 1.053 1.739 1.719.152.215.152.504 0 .72l-1.203 1.654 2.023.324c.255.035.459.231.504.485.062.408.095.819.097 1.23 0 .413-.032.825-.094 1.233-.044.258-.246.459-.504.502l-2.023.324 1.203 1.655c.153.209.153.492 0 .7-.477.672-1.062 1.259-1.732 1.737-.214.143-.494.143-.708 0l-1.655-1.203-.324 2.012c-.035.258-.235.463-.493.502-.814.145-1.647.145-2.46 0-.261-.034-.465-.24-.495-.502l-.32-2.016-1.656 1.203c-.217.144-.5.144-.717 0-.664-.485-1.246-1.073-1.725-1.742-.152-.208-.152-.492 0-.7l1.196-1.655-2.012-.324c-.258-.043-.46-.245-.504-.502-.068-.404-.101-.813-.098-1.223-.003-.412.03-.824.098-1.23.044-.255.248-.45.504-.486l2.012-.324-1.196-1.655c-.153-.215-.153-.504 0-.719.48-.664 1.065-1.245 1.733-1.72.208-.161.5-.161.71 0l1.653 1.185.322-2.012c.042-.255.24-.456.494-.502zm1.832 1.15c-.4-.037-.803-.037-1.203 0l-.314 1.922c-.034.225-.19.412-.405.486-.184.05-.362.123-.53.215-.201.09-.436.07-.62-.055l-1.579-1.15c-.31.26-.596.55-.853.863l1.15 1.563c.133.184.154.427.052.63-.09.185-.161.358-.224.52-.07.214-.254.372-.476.411l-1.922.306c-.017.217-.026.397-.026.603 0 .206.01.403.026.601l1.922.304c.222.039.405.197.476.412.06.178.132.353.215.522.108.2.09.443-.044.625l-1.15 1.582c.26.306.546.59.854.848l1.563-1.131c.186-.144.44-.163.646-.05.165.09.34.162.52.215.218.069.377.259.405.486l.323 1.916c.4.037.803.037 1.203 0l.306-1.922c.03-.226.188-.414.404-.485.183-.055.36-.127.53-.216.202-.109.449-.087.629.056l1.561 1.129c.313-.252.599-.535.853-.844l-1.14-1.582c-.134-.182-.154-.425-.053-.627l.217-.528c.068-.216.253-.375.476-.412l1.92-.305.028-.594-.02-.602-1.92-.305c-.222-.029-.407-.182-.477-.393l-.224-.54c-.101-.203-.08-.446.053-.63l1.14-1.563c-.25-.32-.536-.61-.853-.863l-1.561 1.15c-.185.137-.432.158-.638.055-.167-.094-.345-.166-.53-.215-.213-.077-.368-.263-.405-.486zm13.955 3.305v4.704c.012.225-.1.438-.293.554-.193.116-.433.116-.626 0s-.305-.33-.293-.554v-4.704c-.194.052-.377.14-.539.261-.355.267-.591.664-.656 1.104l-.799 5.712c-.067.44.05.887.324 1.238.266.358.662.598 1.104.665l1.114.144c.44.066.888-.05 1.24-.324.347-.26.583-.652.645-1.089l.44-3.143.314-2.207.046-.367c.063-.442-.052-.891-.32-1.248s-.667-.593-1.109-.656l-.592-.09zm-27.893 0v4.704c0 .164-.066.32-.182.435-.116.115-.273.178-.436.176-.161 0-.315-.065-.428-.18-.113-.115-.176-.27-.174-.43v-4.705l-.601.09c-.914.135-1.55.979-1.429 1.894l.055.368.315 2.246.434 3.106c.138.91.98 1.543 1.894 1.42l1.103-.144.163-.034c.375-.097.707-.319.94-.631.273-.352.392-.798.332-1.238l-.798-5.712c-.067-.438-.303-.831-.657-1.096-.159-.123-.339-.214-.531-.269zm-4.293 3.215c-.773.37-1.219 1.197-1.103 2.047.062.488.322.93.719 1.22.259.2.565.327.888.37l-.43-3.108zm35.276-.039l-.234 1.655-.28 1.994c.851-.15 1.508-.833 1.626-1.688.058-.484-.067-.975-.358-1.367-.193-.263-.454-.468-.754-.594zm-17.657-2.586c1.334-.002 2.417 1.078 2.42 2.411.003 1.334-1.075 2.418-2.41 2.423-.641.002-1.258-.25-1.713-.704-.455-.453-.71-1.069-.71-1.711-.001-1.334 1.079-2.417 2.413-2.419zm.01 1.205c-.322-.001-.63.126-.859.354-.227.228-.354.538-.352.86 0 .49.296.934.75 1.121.453.188.975.084 1.322-.264.347-.347.45-.87.262-1.323-.188-.453-.631-.749-1.122-.748z" transform="translate(-684 -302) translate(345 202) translate(0 67) translate(309) translate(30 33)"/>
                        </g>
                    </g>
                </g>
            </g>
        </g>
    </g>
</svg>
