<svg xmlns="http://www.w3.org/2000/svg" width="30" height="30" viewBox="0 0 30 30">
    <g fill="none" fill-rule="evenodd">
        <g fill="#4ACDED">
            <g>
                <g>
                    <g>
                        <path d="M28.901 0c.242 0 .439.194.442.435V25.78c-.003.242-.2.436-.442.436H22.5l-2.401 1.577c-.788.483-1.734.635-2.633.422-.561-.078-1.13-.1-1.696-.066-1.246.162-2.453.547-3.563 1.135-.063.041-.136.063-.211.062h-.053c-.589-.144-1.038-.62-1.148-1.216-.18-.68.007-1.406.494-1.914H.45c-.119.002-.233-.044-.318-.127-.084-.084-.131-.197-.131-.316V.435C.002.318.05.206.134.125.218.043.331-.002.45 0zM10.155 13.976c-.3-.004-.577.167-.709.438-.131.271-.094.594.096.828l6.155 9.353c.078.116.096.263.046.394-.047.13-.152.23-.284.27-.153.05-.313.081-.474.092-.598.069-1.181.238-1.723.502-.785.363-1.866 1.174-1.62 2.019.049.207.165.393.33.528 1.169-.596 2.433-.984 3.735-1.149.621-.024 1.244.003 1.86.08.69.194 1.43.094 2.044-.277l2.748-1.826c.63-.404 1.07-1.047 1.217-1.78.152-.73.006-1.49-.406-2.113l-2.805-4.262c-.29-.395-.838-.494-1.247-.224-.13.084-.235.203-.303.343-.07.122-.191.205-.33.224-.137.022-.277-.022-.377-.119-.31-.302-.787-.35-1.15-.114-.192.13-.328.328-.382.554-.027.125-.11.232-.225.29-.112.064-.246.075-.367.031-.272-.1-.575-.067-.817.092s-.394.423-.41.712c-.013.192-.145.354-.33.406-.186.043-.379-.03-.49-.185l-3.126-4.75c-.114-.187-.304-.313-.52-.344zm18.303-8.643H.891v19.989h11.467c.178-.106.364-.198.549-.29.532-.245 1.092-.422 1.669-.528l-3.003-4.553h-4.42c-1.493 0-2.703-1.21-2.703-2.702V11.27c.006-1.488 1.214-2.692 2.703-2.692h15.042c1.488 0 2.696 1.204 2.702 2.692v5.979c-.009 1.104-.688 2.091-1.716 2.494l.719 1.108c.55.817.746 1.821.54 2.784-.129.626-.418 1.208-.837 1.69h4.846l.01-19.992zm-6.26 4.127H7.152c-.481-.002-.944.188-1.284.528-.34.34-.532.801-.531 1.282v5.979c0 .48.192.94.533 1.279.34.339.801.528 1.282.526h3.84l-2.19-3.323c-.517-.747-.358-1.768.362-2.323.37-.272.835-.381 1.286-.3.45.085.846.345 1.103.723l2.646 4.031c.13-.176.29-.328.474-.448.348-.232.766-.334 1.181-.29.14-.276.35-.509.609-.677.556-.367 1.269-.397 1.854-.078.092-.097.196-.181.309-.251.776-.516 1.817-.357 2.403.369l.067.102 1.581 2.402c.783-.219 1.327-.93 1.334-1.742V11.27c-.001-1-.814-1.811-1.815-1.81zm6.26-8.576H.891v3.563h27.567V.884zm-2.21 1.465c.178-.17.458-.17.634 0 .084.084.133.198.136.317-.008.118-.056.23-.136.317-.085.08-.2.125-.317.125-.118 0-.231-.044-.316-.125-.078-.088-.122-.2-.126-.317 0-.118.044-.232.126-.317zm-2.124-.131c.118 0 .231.048.314.132.083.084.13.198.128.316-.003.243-.203.438-.446.435-.243-.002-.439-.2-.438-.444.002-.243.2-.44.442-.44zm-2.765.13c.127-.13.32-.168.488-.098.167.07.274.235.27.416 0 .118-.046.23-.125.317-.181.158-.452.158-.633 0-.08-.087-.124-.2-.125-.317-.001-.118.044-.232.125-.317z" transform="translate(-821 -3741) translate(345 3665) translate(446 36) translate(30 40)"/>
                    </g>
                </g>
            </g>
        </g>
    </g>
</svg>
