<svg xmlns="http://www.w3.org/2000/svg" width="39" height="39" viewBox="0 0 39 39">
    <g fill="none" fill-rule="evenodd">
        <g fill="#4ACDED">
            <g>
                <g>
                    <g>
                        <g>
                            <path d="M19.072.145c.217-.193.544-.193.76 0l4.714 4.024c1.418-2.81 4.423-4.45 7.553-4.126 3.13.326 5.733 2.55 6.543 5.591.81 3.04-.343 6.266-2.896 8.104L38.7 16.26l.134.174.027.07.036.211v21.6l-.036.194v.016l-.027.054-.087.122-.047.06-.118.069-.061.036-.203.027H.586l-.2-.034-.062-.036-.114-.07-.052-.052-.095-.11-.027-.053v-.016L0 38.32V16.715l.043-.211.027-.064.13-.18h.011l6.271-5.355V6.373c0-.158.062-.31.173-.422.112-.112.264-.174.422-.173h5.39zm.371 22.833l-17.26 14.75H36.71l-17.268-14.75zm18.29-4.988l-11.146 9.52 11.146 9.534V17.99zm-36.552 0v19.054l11.137-9.535L1.18 17.99zM23.749 6.968H7.663V21.98l5.574 4.76 5.844-4.986c.217-.191.543-.191.76 0l5.844 4.987 5.565-4.76v-6.807c-4.162-.032-7.52-3.413-7.525-7.576l.024-.63zm10.938 7.419c-.71.355-1.473.597-2.258.717v5.878l4.98-4.268zM6.482 12.445l-4.986 4.27 4.986 4.267v-8.537zm21.224 5.966c.21 0 .403.112.508.293.104.181.104.405 0 .586-.105.181-.298.293-.508.293H11.198c-.21 0-.403-.112-.507-.293-.105-.181-.105-.405 0-.586.104-.181.298-.293.507-.293zm-3.535-3.832c.157 0 .307.063.417.175.11.112.171.263.17.42-.004.323-.263.586-.587.593H11.198c-.324-.007-.583-.27-.586-.593-.002-.157.059-.308.169-.42.11-.112.26-.175.417-.175zm7.146-13.402c-3.543.017-6.404 2.884-6.413 6.421.005 3.54 2.878 6.407 6.419 6.404 3.54-.003 6.408-2.875 6.406-6.416-.002-3.54-2.872-6.409-6.412-6.409zm-10.086 9.57c.312.017.555.274.555.586 0 .312-.243.57-.555.587H11.198c-.312-.017-.555-.275-.555-.587 0-.312.243-.57.555-.587zM34.29 4.014c.15-.046.314-.029.451.048.141.069.247.193.294.343.046.15.028.312-.05.448l-3.43 6.629c-.087.176-.259.294-.454.313h-.07c-.175.003-.342-.074-.453-.21l-2.87-3.488c-.189-.252-.146-.608.097-.808.243-.201.6-.176.813.056l2.309 2.806 3.017-5.843c.07-.141.195-.248.346-.294zM19.45 1.369l-5.162 4.41h9.666l.123-.469L19.45 1.37z" transform="translate(-993 -299) translate(345 202) translate(0 67) translate(618) translate(30 30)"/>
                        </g>
                    </g>
                </g>
            </g>
        </g>
    </g>
</svg>
