<svg xmlns="http://www.w3.org/2000/svg" width="30" height="30" viewBox="0 0 30 30">
    <g fill="none" fill-rule="evenodd">
        <g fill="#C66FEC" fill-rule="nonzero">
            <g>
                <g>
                    <g>
                        <g>
                            <path d="M15 0c1.4 0 2.753.197 4.039.557h.006c.004.001.006.004.01.004.48.135.949.293 1.408.473h.17c.186 0 .343.104.434.252.413.184.817.385 1.21.603-.08-.09-.133-.206-.133-.337 0-.286.232-.518.517-.518h.506c.285 0 .517.232.517.518 0 .286-.232.517-.517.517h-.506c-.034 0-.064-.013-.097-.019l.19.115.033.02.173.105c.009.006.013.014.02.02.535.337 1.049.704 1.536 1.105.004.003.008.003.012.007.124.101.247.206.368.312.009.007.012.018.02.025.467.413.908.854 1.321 1.32.008.01.02.013.027.022.107.12.211.244.314.368.004.005.005.011.008.016.4.486.767.999 1.103 1.532.006.008.014.012.02.02l.106.176.02.034c.039.062.077.123.114.186-.006-.03-.018-.056-.018-.087V6.84c0-.287.232-.518.517-.518.286 0 .518.231.518.518v.505c0 .286-.232.517-.518.517-.128 0-.24-.051-.331-.128.216.39.415.79.597 1.199.148.09.252.247.252.433v.17c.18.46.337.928.472 1.408l.005.01C29.803 12.25 30 13.601 30 15s-.197 2.751-.556 4.037c-.002.013-.005.016-.006.02-.135.48-.292.948-.472 1.406v.17c0 .186-.104.343-.252.434-.184.413-.385.817-.603 1.21.09-.08.206-.133.337-.133.286 0 .518.231.518.517v.506c0 .286-.232.517-.518.517-.285 0-.517-.231-.517-.517v-.506c0-.034.013-.064.02-.096l-.12.197-.011.019-.109.18c-.008.013-.02.023-.03.036-.333.528-.697 1.036-1.093 1.517-.003.004-.004.01-.007.015-.103.124-.208.247-.314.368-.007.008-.017.01-.024.018-.414.468-.856.91-1.324 1.324-.008.008-.01.018-.019.025-.121.108-.244.212-.369.314-.004.004-.01.006-.015.01-.485.399-.999.765-1.532 1.102-.008.006-.012.014-.02.02l-.172.103-.043.026c-.06.036-.12.074-.182.11.03-.006.057-.018.088-.018h.505c.286 0 .517.231.517.517 0 .286-.231.518-.517.518h-.505c-.286 0-.518-.232-.518-.518 0-.128.052-.24.129-.331-.39.216-.79.415-1.2.597-.09.148-.246.252-.433.252h-.17c-.46.18-.929.338-1.409.473-.003 0-.006.003-.009.004l-.01.001C17.75 29.804 16.398 30 15 30c-1.398 0-2.75-.197-4.035-.556l-.01-.001c-.004-.001-.006-.004-.01-.004-.48-.135-.949-.293-1.408-.473h-.17c-.186 0-.343-.104-.434-.252-.413-.184-.817-.385-1.21-.603.08.09.133.207.133.337 0 .286-.232.518-.517.518h-.506c-.285 0-.517-.232-.517-.518 0-.286.232-.517.517-.517h.506c.034 0 .064.013.097.02l-.19-.115-.033-.02-.173-.105c-.009-.005-.013-.014-.02-.02-.535-.337-1.048-.704-1.534-1.104l-.014-.008c-.124-.101-.247-.206-.368-.312-.009-.007-.012-.018-.02-.025-.468-.414-.91-.855-1.323-1.323-.007-.008-.018-.01-.025-.018-.107-.122-.211-.245-.314-.37-.004-.004-.005-.01-.008-.015-.396-.481-.76-.99-1.094-1.517-.009-.013-.02-.023-.03-.036l-.11-.183-.011-.018c-.04-.064-.08-.129-.118-.194.006.03.018.056.018.087v.505c0 .286-.232.517-.517.517-.286 0-.518-.231-.518-.517v-.505c0-.286.232-.518.518-.518.127 0 .24.052.331.129-.216-.39-.415-.79-.597-1.2-.148-.09-.252-.246-.252-.433v-.17c-.18-.458-.337-.927-.472-1.405l-.005-.013C.197 17.75 0 16.399 0 15s.197-2.751.556-4.037c.002-.012.005-.015.006-.019.134-.479.292-.948.472-1.407v-.17c0-.186.104-.343.252-.434.184-.413.385-.817.603-1.21-.09.08-.206.133-.337.133-.286 0-.518-.231-.518-.517v-.506c0-.286.232-.517.518-.517.285 0 .517.231.517.517v.506c0 .034-.013.064-.02.096l.12-.197.011-.018.109-.18.02-.022c.337-.533.703-1.046 1.103-1.531l.007-.015c.103-.125.208-.248.314-.369l.026-.02c.413-.467.855-.908 1.322-1.322.008-.007.01-.017.02-.025.12-.107.244-.212.368-.314l.014-.007c.486-.4 1-.767 1.533-1.105.008-.006.012-.014.02-.02l.172-.103.043-.026c.06-.036.12-.074.182-.11-.03.006-.057.018-.088.018H6.84c-.286 0-.517-.231-.517-.517 0-.286.231-.518.517-.518h.505c.286 0 .518.232.518.518 0 .128-.052.24-.129.331.39-.216.79-.415 1.2-.597.09-.148.246-.252.433-.252h.17c.46-.18.929-.338 1.409-.473.003 0 .006-.003.009-.004C12.247.197 13.6 0 15 0zm10.687 27.931c.285 0 .517.231.517.517 0 .286-.232.518-.517.518h-.506c-.285 0-.517-.232-.517-.518 0-.286.232-.517.517-.517zm-20.875 0c.286 0 .518.231.518.517 0 .286-.232.518-.518.518h-.505c-.285 0-.517-.232-.517-.518 0-.286.232-.517.517-.517zm12.045-5.108c-.597.141-1.217.225-1.857.225-.64 0-1.26-.084-1.857-.225l-1.437 5.746c1.057.257 2.16.397 3.294.397 1.135 0 2.237-.14 3.294-.397zm10.693 4.453c.179-.221.505-.257.728-.079.223.179.258.504.079.727-.13.162-.278.309-.438.437-.096.076-.21.113-.323.113-.152 0-.302-.067-.405-.195-.178-.223-.14-.549.083-.727.1-.08.194-.173.276-.276zm-25.83-.085c.224-.177.55-.141.728.083.08.101.173.194.275.276.223.178.258.504.08.727-.102.127-.253.194-.404.194-.113 0-.228-.038-.323-.114-.162-.13-.309-.278-.437-.439-.178-.223-.142-.548.082-.727zm5.762-9.344l-5.77 1.442c.334 1.034.784 2.017 1.338 2.93l.018.03c1.164 1.908 2.772 3.517 4.679 4.68l.039.024c.911.552 1.892 1.001 2.925 1.335l1.442-5.77c-2.148-.817-3.855-2.523-4.671-4.671zm15.037 0c-.817 2.148-2.523 3.854-4.672 4.671l1.443 5.77c1.03-.333 2.01-.781 2.92-1.332l.048-.03c1.906-1.164 3.513-2.771 4.676-4.679l.015-.024c.555-.915 1.005-1.899 1.34-2.934zm5.93 6.823c.285 0 .517.232.517.518v.505c0 .286-.232.518-.518.518-.285 0-.517-.232-.517-.518v-.505c0-.286.232-.518.517-.518zm-26.897-.006c.285 0 .517.23.517.517v.506c0 .286-.232.517-.517.517-.286 0-.518-.231-.518-.517v-.506c0-.286.232-.517.518-.517zM15 7.986c-3.867 0-7.014 3.147-7.014 7.014 0 3.867 3.147 7.014 7.014 7.014 3.867 0 7.014-3.147 7.014-7.014 0-3.867-3.147-7.014-7.014-7.014zm13.57 3.72l-5.747 1.437c.142.597.225 1.217.225 1.857 0 .64-.083 1.26-.225 1.857l5.746 1.437c.257-1.057.397-2.16.397-3.294 0-1.135-.14-2.237-.397-3.294zm-27.14 0c-.256 1.057-.396 2.16-.396 3.294 0 1.135.14 2.237.397 3.294l5.746-1.437c-.142-.597-.225-1.217-.225-1.857 0-.64.083-1.26.225-1.857zm9.28-9.994c-1.03.333-2.01.781-2.92 1.332l-.048.03C5.836 4.237 4.229 5.844 3.066 7.752l-.015.024c-.555.915-1.005 1.899-1.34 2.934l5.77 1.442c.817-2.148 2.523-3.854 4.672-4.671zm8.579-.001l-1.443 5.77c2.148.817 3.855 2.523 4.672 4.672l5.77-1.443c-.334-1.03-.782-2.01-1.334-2.921l-.027-.046c-1.163-1.904-2.769-3.51-4.674-4.673l-.039-.023c-.911-.552-1.892-1.001-2.925-1.336zM15 1.034c-1.135 0-2.237.14-3.294.396l1.437 5.747c.597-.142 1.217-.225 1.857-.225.64 0 1.26.083 1.857.225l1.437-5.746c-1.057-.257-2.16-.397-3.294-.397zm13.448 2.762c.286 0 .518.231.518.517v.506c0 .286-.232.517-.518.517-.285 0-.517-.23-.517-.517v-.506c0-.286.232-.517.517-.517zM1.552 3.789c.285 0 .517.232.517.518v.505c0 .286-.232.518-.517.518-.286 0-.518-.232-.518-.518v-.505c0-.286.232-.518.518-.518zm25.646-2.066c.179-.222.504-.258.727-.08.161.13.308.278.437.439.178.223.141.548-.082.727-.096.076-.21.112-.323.112-.152 0-.302-.066-.405-.195-.08-.101-.173-.194-.275-.276-.223-.178-.258-.504-.08-.727zM2.082 1.639c.223-.178.549-.142.727.082.178.223.141.549-.082.727-.101.08-.194.173-.276.276-.102.127-.253.193-.404.193-.114 0-.228-.038-.324-.115-.222-.179-.258-.504-.079-.727.13-.162.278-.308.438-.436zm2.737-.605c.285 0 .517.232.517.518 0 .286-.232.517-.517.517h-.506c-.285 0-.517-.231-.517-.517 0-.286.232-.518.517-.518zm20.874 0c.285 0 .517.232.517.518 0 .286-.232.517-.517.517h-.505c-.286 0-.518-.231-.518-.517 0-.286.232-.518.518-.518z" transform="translate(-913 -1517) translate(0 202) translate(345 1034) translate(190 251) translate(378 30)"/>
                        </g>
                    </g>
                </g>
            </g>
        </g>
    </g>
</svg>
