<svg xmlns="http://www.w3.org/2000/svg" width="30" height="30" viewBox="0 0 30 30">
    <g fill="none" fill-rule="evenodd">
        <g fill="#4ACDED">
            <g>
                <g>
                    <g>
                        <g>
                            <g>
                                <path d="M4.075 23.011c.121.001.236.05.32.136.085.086.132.202.13.322v5.881c.01.168-.075.327-.219.414-.144.087-.324.087-.468 0-.144-.087-.228-.246-.219-.414v-5.88c-.001-.122.047-.24.132-.325.086-.086.203-.134.325-.134zM7.7 21.185c.249.006.448.208.451.457v7.708c.01.167-.075.325-.218.411-.143.087-.322.087-.465 0-.143-.086-.227-.244-.218-.41v-7.709c.003-.249.202-.45.45-.457zm18.088-2.725c.12 0 .236.049.32.135.085.085.131.201.13.322V29.35c.009.167-.075.325-.218.411-.143.087-.322.087-.465 0-.143-.086-.227-.244-.218-.41V18.916c-.001-.12.046-.237.13-.323.085-.086.2-.134.321-.134zm3.618.913c.246-.001.448.196.45.443v9.534c.01.167-.074.325-.217.411-.143.087-.322.087-.465 0-.143-.086-.227-.244-.218-.41v-9.535c.003-.246.204-.444.45-.443zM.456 25.282c.12 0 .236.048.32.134.085.086.132.202.13.322v3.612c.001.12-.046.236-.13.322-.084.085-.2.134-.32.135-.252 0-.456-.205-.456-.457v-3.612c0-.252.204-.456.457-.456zm10.856-1.813c.122-.001.239.046.325.132.085.086.133.203.132.325v5.424c.001.12-.046.236-.13.322-.084.086-.2.134-.32.135-.252-.001-.456-.205-.457-.457v-5.424c0-.25.2-.453.45-.457zm7.238-4.552c.252 0 .457.204.457.456v9.977c0 .252-.205.457-.457.457-.12 0-.235-.05-.32-.135-.084-.086-.131-.201-.13-.322v-9.977c-.001-.12.046-.236.13-.322.085-.085.2-.134.32-.134zm-3.619 2.268c.249.006.448.208.45.457v7.708c0 .16-.086.31-.225.39-.14.08-.31.08-.45 0-.139-.08-.224-.23-.224-.39v-7.708c.002-.249.2-.45.45-.457zm7.238-3.628c.119 0 .233.046.317.13.085.084.132.198.133.317v11.342c0 .16-.086.31-.225.39-.14.08-.31.08-.45 0-.139-.08-.224-.23-.224-.39V18c.002-.247.203-.445.45-.443zm-1.397-4.85c1.005 0 1.82.815 1.82 1.82v.025l6.928 1.934c.242.07.383.322.316.565-.068.236-.313.373-.55.308l-6.935-1.933c-.323.56-.918.907-1.564.913-.46-.001-.904-.179-1.237-.497l-6.075 3.88c.23.688.031 1.447-.508 1.933-.54.485-1.315.604-1.975.302-.66-.302-1.077-.966-1.063-1.691 0-.123.014-.244.041-.363l-1.625-.825c-.616.708-1.674.82-2.424.255L.745 23.577c-.086.056-.186.089-.288.093-.137.001-.267-.057-.357-.16-.156-.198-.126-.484.068-.646l5.168-4.232c-.116-.234-.175-.491-.174-.752 0-1.003.813-1.816 1.816-1.816 1.003 0 1.816.813 1.816 1.816-.003.13-.019.261-.046.39l1.618.824c.319-.384.784-.618 1.282-.644.499-.026.986.158 1.343.507l6.062-3.88c-.063-.177-.097-.363-.1-.55 0-1.005.814-1.82 1.82-1.82zM12.1 19.414c-.342-.142-.736-.064-.998.198-.261.262-.34.655-.198.997.142.342.476.565.846.564.503-.003.91-.41.913-.913 0-.37-.222-.704-.563-.846zM.456 13.908c.249.006.448.208.45.456v5.44c.001.12-.046.236-.13.321-.084.086-.2.134-.32.135-.252 0-.456-.204-.456-.456v-5.44c.005-.25.207-.451.457-.456zm6.547 3.062c-.5-.004-.91.399-.913.899-.004.5.399.91.9.913.499.002.906-.4.912-.9.004-.5-.399-.908-.9-.912zm4.31-6.23c.12-.005.236.04.322.123.087.084.135.2.134.32v5.437c.001.12-.046.237-.13.322-.084.086-.2.135-.32.135-.252 0-.457-.204-.457-.457v-5.438c.001-.118.049-.231.133-.314.085-.083.199-.13.317-.128zm-7.24.014c.24 0 .439.188.452.428v4.525c.01.168-.075.327-.219.414-.144.087-.324.087-.468 0-.144-.087-.228-.246-.219-.414v-4.525c.013-.24.212-.428.453-.428zm10.633-2.686c.14-.08.31-.08.45 0s.225.228.225.39v6.793c0 .16-.086.309-.225.39-.14.08-.31.08-.45 0-.139-.081-.224-.23-.224-.39V8.457c0-.16.085-.309.224-.39zm6.08 5.55c-.504 0-.913.41-.913.914 0 .242.095.475.266.646.172.172.405.268.647.267.504 0 .913-.409.913-.913s-.409-.913-.913-.913zM7.46 8.503c.143-.086.322-.086.465 0 .144.087.227.245.218.412v5.438c-.013.239-.21.426-.45.426-.24 0-.437-.187-.45-.426V8.914c-.01-.167.074-.325.217-.412zm21.945-2.315c.246 0 .447.197.45.443v7.265c-.012.24-.21.426-.45.426-.239 0-.437-.187-.45-.426V6.63c.004-.246.204-.443.45-.443zm-3.851 3.228c.143-.086.322-.086.465 0 .143.087.227.245.218.412v3.162c.009.167-.075.325-.218.411-.143.087-.322.087-.465 0-.143-.086-.227-.244-.218-.41V9.826c-.01-.167.075-.325.218-.412zM18.55 5.274c.121 0 .238.048.323.134.086.086.134.203.134.324v5.893c-.006.248-.21.445-.457.444-.246.001-.447-.197-.45-.444V5.732c-.001-.12.045-.237.13-.323.084-.086.2-.135.32-.135zM17.375 0c.986 0 1.793.785 1.82 1.77-.003.188-.038.374-.102.55l4.21 2.672c.343-.33.802-.509 1.277-.5.475.01.927.209 1.255.552l3.35-1.905c.215-.124.49-.052.618.162.12.217.042.49-.175.612l-3.343 1.925c.045.157.07.32.072.484 0 1.003-.813 1.816-1.816 1.816-1.003 0-1.816-.813-1.816-1.816.001-.193.035-.383.1-.564l-4.206-2.673c-.334.317-.777.495-1.238.498-.287-.003-.569-.072-.825-.202l-3.048 3.45c.203.303.313.657.315 1.021 0 1.005-.815 1.82-1.82 1.82-1.004 0-1.818-.815-1.818-1.82l.033-.296-1.846-.792c-.344.437-.868.694-1.424.699-.365-.002-.72-.114-1.02-.322l-5.17 4.605c-.082.077-.19.12-.301.121-.133 0-.258-.06-.343-.16-.078-.09-.118-.206-.11-.325.007-.118.061-.229.15-.307L5.338 6.47c-.14-.255-.212-.541-.21-.832 0-1.003.814-1.816 1.817-1.816 1.003 0 1.816.813 1.816 1.816l-.027.296 1.854.805c.335-.445.858-.708 1.416-.712.287.002.568.076.82.215l3.048-3.45c-.204-.302-.314-.657-.317-1.02C15.582.784 16.39 0 17.375 0zm4.575 8.524c.139-.08.31-.08.45 0 .139.08.224.229.224.39v2.255c0 .248-.201.45-.45.45-.248 0-.449-.202-.449-.45V8.914c0-.161.086-.31.225-.39zM12.004 6.94c-.243 0-.475.095-.647.267-.171.171-.267.404-.266.646 0 .504.409.913.913.913s.913-.409.913-.913-.409-.913-.913-.913zm12.534-1.534c-.242.003-.474.098-.645.268-.171.171-.268.403-.268.645.004.498.41.9.909.899.498-.001.902-.405.903-.904.002-.499-.4-.905-.899-.908zm-17.59-.681c-.504 0-.913.409-.913.913s.409.913.913.913.913-.409.913-.913-.409-.913-.913-.913zM17.375.856c-.243-.001-.476.095-.647.266-.172.172-.268.405-.267.647 0 .504.41.913.914.913s.913-.409.913-.913-.41-.913-.913-.913z" transform="translate(-1261 -1317) translate(0 202) translate(345 1034) translate(28 5) translate(858 36) translate(30 40)"/>
                            </g>
                        </g>
                    </g>
                </g>
            </g>
        </g>
    </g>
</svg>
