<svg xmlns="http://www.w3.org/2000/svg" width="30" height="30" viewBox="0 0 30 30">
    <g fill="none" fill-rule="evenodd">
        <g fill="#4ACDED">
            <g>
                <g>
                    <g>
                        <g>
                            <path d="M9 0v11.5c0 .276-.224.5-.5.5H6.805L15 16.917 23.195 12H21.5c-.276 0-.5-.224-.5-.5V0h1v6h5.5c1.38.002 2.498 1.12 2.5 2.5v14c-.002 1.38-1.12 2.498-2.5 2.5h-8.191l1 2H29.5c.276 0 .5.224.5.5 0 2.5-2.634 2.5-3.5 2.5h-23C2.635 30 0 30 0 27.5c0-.276.224-.5.5-.5h9.191l1-2H2.5C1.12 24.998.002 23.88 0 22.5v-14C.002 7.12 1.12 6.002 2.5 6H8V0h1zm19.94 28H1.06c.175.616.778 1 2.44 1h23c1.662 0 2.265-.384 2.44-1zM18.19 25h-6.382l-1 2h8.382l-1-2zM8 7H2.5C1.672 7 1 7.672 1 8.5v14c0 .828.672 1.5 1.5 1.5h25c.828 0 1.5-.672 1.5-1.5v-14c0-.828-.672-1.5-1.5-1.5H22v1h5.5c.276 0 .5.224.5.5v13c0 .276-.224.5-.5.5h-25c-.276 0-.5-.224-.5-.5v-13c0-.276.224-.5.5-.5H8V7zm0 2H3v12h24V9h-5v2h3c.175 0 .338.092.428.242.143.237.066.544-.17.687l-10 6c-.159.095-.357.095-.515 0l-10-6c-.15-.09-.243-.253-.243-.429 0-.276.224-.5.5-.5h3V9zm7-8c1.596 0 3.5.694 3.5 4-.058.99-.538 1.91-1.319 2.523 1.326.163 2.322 1.291 2.319 2.627V12h-1v-1.85c0-.911-.739-1.65-1.65-1.65h-3.7c-.911 0-1.65.739-1.65 1.65V12h-1v-1.85c-.002-1.335.993-2.462 2.319-2.626-.78-.614-1.26-1.533-1.319-2.524 0-3.306 1.903-4 3.5-4zm.69 3.196c-.72.947-2.264 1.206-3.12 1.277C12.957 6.537 13.884 7.31 15 7.5c.768 0 2.276-1.006 2.477-2.232zM15 2c-1.55 0-2.338.795-2.474 2.47.881-.082 2.247-.37 2.5-1.128.011-.035.027-.068.046-.1.142-.236.449-.313.686-.171l1.666 1C17.2 2.671 16.419 2 15 2z" transform="translate(-565 -1501) translate(345 202) translate(0 1226) translate(190 37) translate(30 36)"/>
                        </g>
                    </g>
                </g>
            </g>
        </g>
    </g>
</svg>
