<svg xmlns="http://www.w3.org/2000/svg" width="30" height="30" viewBox="0 0 30 30">
    <g fill="none" fill-rule="evenodd">
        <g fill="#4ACDED">
            <g>
                <g>
                    <g>
                        <path d="M.498 17.55c.119-.002.234.044.319.127.084.084.131.198.13.318v11.01h21.156c.24.012.426.21.426.45 0 .239-.187.437-.426.45H.498c-.252 0-.457-.205-.457-.457V17.995c0-.12.05-.235.135-.318.086-.084.202-.13.322-.127zM3.162 3.162C7.1-.776 13.388-1.072 17.68 2.478c4.29 3.55 5.177 9.782 2.047 14.388l1.772 1.772.477-.469c.182-.162.457-.162.638 0l6.365 6.364c1.228 1.227 1.228 3.218 0 4.445-1.227 1.228-3.218 1.228-4.445 0l-6.364-6.365c-.086-.082-.136-.196-.136-.315 0-.12.05-.234.136-.316l.47-.484-1.773-1.772c-4.606 3.13-10.838 2.244-14.388-2.047-3.55-4.291-3.254-10.579.684-14.517zm21.354 18.192l-3.172 3.162 3.834 3.834c.876.873 2.293.873 3.169 0 .865-.878.866-2.293-.004-3.17l-3.827-3.826zm-2.219-2.23l-3.168 3.183 1.577 1.571 3.17-3.17-1.579-1.583zM29.448.042c.12 0 .236.049.32.135.085.085.131.201.13.322v21.605c0 .248-.201.45-.45.45-.248 0-.45-.202-.45-.45V5.48h-6.895c-.252 0-.456-.204-.456-.456s.204-.457.456-.457H29V.954H18.02c-.252 0-.457-.204-.457-.456s.205-.457.457-.457zM19.183 17.604c-.233.292-.481.57-.746.833-.263.267-.54.518-.833.752l1.672 1.666 1.585-1.572zM17.797 3.84c-3.853-3.853-10.1-3.853-13.953 0C-.009 7.692-.01 13.939 3.842 17.792c3.855 3.852 10.102 3.852 13.957 0 3.852-3.853 3.851-10.1-.002-13.952zm-10.134.592l.088.018c.115.035.21.116.265.224.059.103.073.226.039.34-.034.114-.113.21-.219.265-.528.293-1.011.659-1.437 1.087-1.073 1.068-1.72 2.49-1.82 4.001h1.324c.248 0 .45.202.45.45s-.202.45-.45.45H4.597c.217 3.097 2.678 5.563 5.775 5.787v-1.316c0-.248.2-.45.45-.45.248 0 .449.202.449.45v1.316c3.115-.2 5.602-2.673 5.82-5.787h-1.32c-.248 0-.45-.202-.45-.45s.202-.45.45-.45h1.32c-.098-1.51-.744-2.933-1.816-4-.427-.43-.911-.795-1.44-1.088-.104-.056-.182-.152-.216-.265-.034-.114-.022-.236.035-.34.116-.22.388-.305.609-.19.603.336 1.158.752 1.65 1.237 1.35 1.344 2.106 3.171 2.1 5.075l.008.028-.007.026c-.018 3.948-3.228 7.138-7.176 7.13h-.048c-3.934-.01-7.12-3.197-7.13-7.13l-.007-.026v-.028c0-1.903.756-3.728 2.103-5.073.492-.485 1.047-.901 1.65-1.238.105-.058.23-.07.345-.035zm3.175-.806c.197.004.37.134.429.323.746 2.244 1.293 4.549 1.633 6.889.001 1.142-.92 2.071-2.062 2.08-1.147-.004-2.074-.934-2.075-2.08.345-2.34.893-4.645 1.637-6.889.063-.19.238-.32.438-.323zm0 2.014c-.554 1.692-.946 3.432-1.172 5.198 0 .645.523 1.168 1.169 1.168.645 0 1.169-.523 1.169-1.168-.227-1.765-.618-3.505-1.166-5.198zM3.653.041c.12 0 .236.049.32.135.085.085.131.201.13.322.003.121-.043.239-.127.326-.085.087-.201.137-.323.137H.947v3.163c-.003.246-.203.443-.45.442-.246.001-.45-.195-.456-.442V.498C.041.246.246.04.498.04zM26.75 2.445c.18-.175.466-.175.645 0 .085.085.135.2.138.321-.006.117-.055.228-.138.31-.081.088-.196.138-.316.137-.124.003-.243-.047-.329-.137-.078-.085-.123-.195-.128-.31.003-.119.048-.233.128-.321zm-2.161-.135c.12 0 .235.05.32.135.084.086.13.201.13.321-.004.247-.204.445-.45.445-.167.009-.325-.075-.412-.218-.086-.143-.086-.322 0-.465.087-.144.245-.227.412-.218zm-2.808.132c.176-.172.455-.178.638-.014.086.091.135.21.137.336-.004.117-.054.227-.137.31-.083.089-.2.139-.322.137-.12 0-.235-.05-.316-.138-.08-.083-.126-.194-.128-.31 0-.12.045-.234.128-.321z" transform="translate(-565 -3741) translate(345 3665) translate(190 36) translate(30 40)"/>
                    </g>
                </g>
            </g>
        </g>
    </g>
</svg>
