<svg xmlns="http://www.w3.org/2000/svg" width="30" height="29" viewBox="0 0 30 29">
    <g fill="none" fill-rule="evenodd">
        <g fill="#4ACDED">
            <g>
                <g>
                    <g>
                        <g>
                            <path d="M29.164 0c.12 0 .235.047.32.132.084.086.13.201.129.32V26.74c.001.119-.045.234-.129.319-.084.085-.198.133-.317.133H25.69c-.093.171-.21.328-.346.467l-.48.48c-.39.399-.925.624-1.484.624-.559 0-1.094-.225-1.485-.624l-.955-.947H.453c-.12.001-.236-.046-.322-.131C.046 26.976 0 26.86 0 26.74V.453C-.001.333.046.217.131.13.217.046.332 0 .453 0zm-9.061 20.727c-.29.43-.62.83-.986 1.196-.365.366-.764.696-1.192.986l4.608 4.604c.473.45 1.217.45 1.69 0l.487-.48c.47-.465.47-1.227 0-1.698zM28.718 5.38H.9V26.3h19.155l-2.91-2.916c-.927.498-1.943.81-2.99.919l-.086.013c-.28.026-.56.054-.846.054-.286 0-.573-.028-.845-.054l-.088-.013c-.688-.071-1.363-.233-2.01-.48l-.034-.013-.019-.013c-1.596-.602-2.966-1.687-3.917-3.104l-.013-.013-.334-.546-.1-.16-.219-.452-.136-.306-.127-.346-.154-.44-.06-.227c-.044-.199-.097-.386-.137-.585l-.006-.067c-.095-.505-.144-1.017-.146-1.531.001-.514.05-1.026.146-1.531l.006-.08.137-.574.06-.226.154-.439.127-.352.146-.301c.073-.146.133-.306.21-.453l.109-.173c.1-.173.207-.359.327-.532l.02-.027c.29-.437.625-.842.999-1.211 1.146-1.155 2.607-1.947 4.201-2.277h.02c.232-.05.468-.085.705-.107l.127-.027c.28-.026.563-.04.846-.04.282 0 .566.014.845.04l.127.027c.237.022.472.058.705.107h.02c1.267.263 2.454.819 3.467 1.624l.027.013.008.014c.245.196.478.405.7.626 1.154 1.143 1.945 2.6 2.273 4.192v.026c.046.226.08.466.106.706l.02.12c.027.28.04.58.04.852 0 .28-.013.56-.04.839l-.02.136c-.027.227-.06.465-.106.705v.014c-.155.777-.425 1.526-.8 2.224l4.745 4.756c.395.396.616.933.614 1.492v.12h2.772L28.718 5.38zm-8.077 11.082h-3.409c-.095.912-.502 1.763-1.15 2.41-.76.76-1.79 1.187-2.864 1.186-.342-.006-.681-.051-1.012-.137l-1.22 3.197c.461.143.934.245 1.412.305h.06c.505.055 1.014.055 1.518 0l.067.003c3.2-.362 5.808-2.734 6.472-5.886v-.025c.042-.207.073-.416.094-.626l.019-.108.013-.32zM12.765 8.59l-.3.01-.106.014-.64.112h-.014c-2.099.44-3.908 1.762-4.966 3.628l-.08.136-.2.413-.12.252-.117.333-.136.374-.053.226c-.05.162-.09.326-.12.492l-.02.107c-.153.88-.153 1.782 0 2.663l.02.094c.03.17.07.34.12.506l.05.209.137.385.12.325.12.252.199.427.083.132c.778 1.373 1.972 2.464 3.409 3.116l1.218-3.195c-.37-.191-.71-.438-1.005-.732-1.571-1.58-1.571-4.133 0-5.714.646-.645 1.493-1.05 2.401-1.145V8.59zm1.274 4.411c-1.367-.366-2.81.228-3.522 1.452-.712 1.223-.517 2.771.477 3.78.586.592 1.387.927 2.222.927.836 0 1.637-.335 2.223-.93.595-.582.929-1.38.925-2.211-.006-1.415-.958-2.652-2.325-3.018zm4.138-2.522l-2.116 2.676h.014c.644.652 1.05 1.503 1.15 2.414l3.41-.003-.014-.307-.02-.106c-.02-.213-.052-.425-.093-.64v-.012c-.327-1.555-1.143-2.965-2.33-4.022zm-4.513-1.89v3.42c.6.066 1.179.266 1.69.587l2.124-2.671c-.826-.582-1.762-.99-2.75-1.199h-.013l-.638-.112-.107-.012-.306-.012zM28.718.893H.9v3.596h27.818V.892zM26.494 2.37c.175-.173.458-.173.633 0 .085.085.134.2.136.32-.007.118-.055.232-.136.32-.087.08-.2.126-.32.126-.116 0-.228-.045-.313-.126-.083-.087-.131-.201-.136-.32 0-.121.05-.237.136-.32zm-4.94 0c.178-.173.461-.173.64 0 .08.086.126.2.126.32-.002.118-.047.232-.127.32-.087.08-.201.126-.32.126-.119-.001-.232-.046-.32-.126-.08-.088-.124-.202-.126-.32 0-.12.045-.234.127-.32zm2.79-.134c.237.014.422.21.422.447 0 .237-.185.433-.422.447-.166.009-.323-.074-.408-.216-.086-.142-.086-.32 0-.462.085-.142.242-.225.408-.216z" transform="translate(-565 -1317) translate(0 202) translate(345 1034) translate(28 5) translate(192 76)"/>
                        </g>
                    </g>
                </g>
            </g>
        </g>
    </g>
</svg>
