<svg xmlns="http://www.w3.org/2000/svg" width="30" height="30" viewBox="0 0 30 30">
    <g fill="none" fill-rule="evenodd">
        <g fill="#4ACDED">
            <g>
                <g>
                    <g>
                        <path d="M29.063.002c.22-.001.405.156.444.366l.007.072v6.065c-.001.18-.11.342-.276.41-.143.06-.304.042-.428-.044l-.06-.048-1.638-1.632L3.382 28.92c-.37.372-.874.582-1.399.584-.798-.002-1.516-.483-1.822-1.22-.287-.69-.158-1.48.322-2.042l.1-.11L24.32 2.397 22.69.766c-.13-.13-.169-.323-.1-.492.06-.14.186-.239.333-.265l.075-.007h6.065zm-9.966 17.237c2.654-1.776 6.192-1.43 8.452.825 1.262 1.254 1.97 2.96 1.965 4.738 0 3.193-2.254 5.942-5.386 6.565-3.132.624-6.268-1.05-7.491-4-1.224-2.95-.194-6.352 2.46-8.128zm4.852-.127c-2.715-.543-5.435.907-6.497 3.463-1.062 2.557-.17 5.508 2.13 7.048s5.368 1.242 7.327-.713c1.094-1.085 1.707-2.562 1.704-4.102.003-2.768-1.95-5.153-4.664-5.696zM28.618.89H24.08l1.188 1.18c.082.087.13.2.136.32-.003.096-.034.188-.09.264l-.046.054L1.212 26.756c-.417.429-.417 1.111 0 1.54.4.384 1.016.41 1.445.077l.088-.077 24.056-24.06c.154-.154.393-.171.567-.052l.062.051 1.188 1.195V.89zm-5.813 18.22c1.492-.002 2.838.895 3.41 2.273.571 1.379.254 2.965-.802 4.019-.69.696-1.628 1.088-2.608 1.088-.98 0-1.919-.392-2.608-1.088-1.056-1.054-1.373-2.64-.801-4.019.549-1.325 1.815-2.205 3.238-2.268l.171-.004zm0 .891c-.742 0-1.454.296-1.977.822-1.06 1.098-1.044 2.842.034 3.92 1.079 1.079 2.823 1.094 3.92.035 1.09-1.094 1.09-2.861 0-3.955-.523-.526-1.235-.822-1.977-.822zM1.13 2.98C2.906.32 6.312-.712 9.266.51c2.954 1.223 4.633 4.362 4.01 7.498-.622 3.136-3.372 5.396-6.57 5.398-1.78.006-3.488-.702-4.743-1.964-2.26-2.261-2.61-5.804-.834-8.462zm9.696-.394C8.554.315 4.872.314 2.6 2.584 1.505 3.674.89 5.154.89 6.698c0 1.545.615 3.025 1.71 4.115 2.272 2.27 5.954 2.27 8.225-.002 2.27-2.272 2.27-5.954 0-8.225zM3.634 4.67c.974-1.463 2.845-2.033 4.469-1.364 1.624.67 2.55 2.393 2.21 4.117-.34 1.723-1.85 2.967-3.606 2.97-.978.004-1.917-.383-2.608-1.074-1.244-1.24-1.439-3.187-.465-4.65zm5.05.057c-1.095-1.079-2.853-1.079-3.948 0-.8.799-1.04 2-.608 3.045.433 1.045 1.452 1.726 2.582 1.726s2.15-.68 2.582-1.726c.432-1.044.192-2.246-.608-3.045z" transform="translate(-1333 -3741) translate(345 3665) translate(958 36) translate(30 40)"/>
                    </g>
                </g>
            </g>
        </g>
    </g>
</svg>
