<svg xmlns="http://www.w3.org/2000/svg" width="30" height="30" viewBox="0 0 30 30">
    <g fill="none" fill-rule="evenodd">
        <g fill="#4ACDED">
            <g>
                <g>
                    <g>
                        <g>
                            <path d="M27.458 17.255c.12 0 .236.049.32.135.086.086.132.202.131.323v6.196h1.59c.18.002.342.11.414.276.074.154.052.337-.055.47l-4.083 5.132c-.09.103-.22.162-.357.162-.137 0-.267-.059-.357-.162l-4.082-5.132c-.11-.132-.131-.317-.053-.47.068-.164.226-.272.404-.276h1.589v-6.196c-.001-.122.047-.239.133-.325.086-.086.203-.134.325-.133h4.08zm-10.4-2c.122 0 .237.049.322.135.084.086.131.202.13.323v8.196h1.59c.18.002.342.11.414.276.074.154.052.337-.055.47l-4.083 5.132c-.09.103-.22.162-.357.162-.137 0-.267-.059-.357-.162l-4.082-5.132c-.11-.132-.131-.317-.054-.47.069-.164.227-.272.405-.276h1.588v-8.196c0-.122.048-.239.134-.325.086-.086.203-.134.324-.133h4.082zM6.58 19.975c.122 0 .24.047.326.134.086.086.134.203.134.325v3.476h1.589c.174.001.332.102.407.26.075.158.052.344-.057.48l-4.081 5.131c-.09.103-.22.162-.358.162-.137 0-.267-.059-.357-.162l-4.081-5.13c-.11-.138-.132-.326-.056-.484.077-.158.237-.259.413-.257h1.589v-3.476c-.001-.121.046-.237.13-.323.086-.086.201-.135.322-.135h4.08zM27 18.166h-3.171v6.207c.001.121-.045.237-.13.323-.085.086-.2.135-.321.135h-1.104l3.147 3.948 3.145-3.948h-1.108c-.253 0-.458-.205-.458-.458v-6.207zm-10.4-2h-3.17v8.207c.001.121-.046.237-.13.323-.085.086-.2.135-.321.135h-1.104l3.147 3.948 3.144-3.948H17.06c-.253 0-.458-.205-.458-.458v-8.207zM6.129 20.878H2.956v3.49c.001.12-.046.236-.13.322-.085.086-.2.135-.321.135H1.4l3.138 3.947 3.145-3.947H6.58c-.12 0-.236-.049-.32-.135-.085-.086-.132-.202-.13-.323v-3.49zM29.048 0c.463-.002.846.341.905.788l.008.114v12.69c-.002.461-.349.84-.795.896l-.114.007H.91c-.24 0-.469-.095-.638-.265-.141-.14-.23-.324-.256-.52l-.008-.118V.902c0-.46.344-.84.79-.895L.91 0h28.138zM.956 10.521v2.842c-.002.102.064.19.158.219l.058.01h2.856c-.2-1.538-1.37-2.762-2.882-3.04l-.19-.03zM25.124.903H4.932C4.725 2.955 3.14 4.586 1.116 4.867l-.211.024v4.715c2.053.186 3.7 1.754 4.001 3.775l.026.21h20.192c.21-2.008 1.733-3.62 3.707-3.954l.213-.031V4.877c-2.002-.239-3.588-1.784-3.892-3.76l-.028-.214zm3.924 9.618c-1.507.234-2.695 1.391-2.979 2.875l-.032.196h2.795c.1-.006.183-.077.208-.17l.008-.06v-2.84zM14.77 2.63c.144-.087.325-.087.47 0 .12.073.199.196.216.332l.003.083v.486c1.018.167 1.777 1.03 1.813 2.06 0 .121-.046.237-.131.323-.085.086-.2.135-.322.135-.252 0-.457-.205-.458-.458-.053-.7-.658-1.229-1.36-1.186-.7-.04-1.304.487-1.36 1.186 0 .785.47 1.199 1.36 1.199.592-.071 1.184.12 1.622.525.437.405.674.98.649 1.576-.026.98-.712 1.81-1.653 2.03l-.16.03v.5c.01.168-.075.328-.22.415-.144.087-.325.087-.469 0-.12-.073-.2-.196-.217-.332l-.003-.083v-.5c-1.024-.156-1.788-1.025-1.812-2.06.013-.24.212-.428.452-.428.24 0 .438.188.451.428.088.684.67 1.197 1.36 1.197.69 0 1.273-.513 1.36-1.197 0-.795-.458-1.199-1.36-1.199-.59.072-1.183-.12-1.62-.525-.435-.405-.671-.981-.643-1.576.031-.977.715-1.804 1.654-2.029l.158-.031v-.486c-.009-.168.076-.328.22-.415zm8.627 2.34c.952.004 1.73.739 1.805 1.671l.006.149v.902c.003.482-.187.945-.527 1.286-.302.303-.7.488-1.124.525l-.16.007h-.909c-.481 0-.943-.192-1.283-.533-.303-.303-.486-.702-.523-1.125l-.006-.16V6.79c.002-.951.732-1.732 1.664-1.812l.148-.007h.91zm-15.888 0c.953.004 1.734.737 1.813 1.671l.006.149v.902c.001.483-.19.946-.532 1.287-.303.303-.703.488-1.127.524l-.16.007h-.902c-.483.001-.946-.19-1.287-.531-.303-.304-.488-.703-.524-1.127l-.007-.16V6.79c.002-.953.735-1.735 1.669-1.813l.149-.006h.902zm15.888.918h-.909c-.24 0-.469.094-.638.264-.142.14-.231.324-.257.52l-.008.118v.902c-.003.242.091.474.26.646.142.143.326.235.524.262l.12.008h.908c.242 0 .474-.098.645-.27.142-.143.231-.328.257-.526l.007-.12V6.79c-.003-.461-.349-.84-.795-.895l-.114-.007zm-15.888 0h-.902c-.24-.002-.471.093-.642.262-.142.141-.233.325-.259.52l-.008.12v.902c-.002.242.093.476.263.648.143.143.328.234.526.26l.12.008h.902c.243 0 .475-.096.646-.268.143-.143.233-.33.257-.528l.007-.12V6.79c0-.24-.096-.471-.267-.64-.143-.142-.327-.23-.524-.255l-.119-.007zM4.028.902H1.172c-.057 0-.112.022-.153.062-.027.027-.046.06-.056.097l-.007.056v2.857c1.538-.2 2.762-1.37 3.042-2.881l.03-.19zm24.804 0h-2.795c.205 1.51 1.34 2.716 2.817 3.023l.194.035V1.117c-.001-.099-.068-.182-.16-.207l-.056-.008z" transform="translate(-1247 -1501) translate(345 202) translate(0 1226) translate(873 37) translate(29 36)"/>
                        </g>
                    </g>
                </g>
            </g>
        </g>
    </g>
</svg>
