<svg xmlns="http://www.w3.org/2000/svg" width="30" height="30" viewBox="0 0 30 30">
    <g fill="none" fill-rule="evenodd">
        <g fill="#C66FEC" fill-rule="nonzero">
            <g>
                <g>
                    <g>
                        <g>
                            <path d="M14.863 0l.232.002c3.565.089 6.407 3.01 6.396 6.577-.002.48-.056.957-.16 1.424.277-.048.557-.075.838-.08 2.918-.008 5.321 2.29 5.443 5.206.122 2.916-2.08 5.407-4.99 5.643v3.357c1.068-.686 2.393-.835 3.586-.403.123.033.228.116.288.228.062.111.074.243.035.363-.039.107-.87 2.525-2.475 2.954-.167.041-.338.064-.51.067-.323-.006-.64-.084-.927-.228v1.705c2.4.408 4.743 1.107 6.975 2.082.19.086.294.295.25.501-.045.206-.226.353-.437.355l-.188-.04c-9.195-3.558-19.386-3.558-28.58 0-.11.054-.238.06-.352.016-.114-.044-.205-.133-.25-.247-.098-.226.004-.489.228-.591 1.662-.733 3.392-1.304 5.164-1.705v-.98c-.299.123-.618.186-.94.187-.136.004-.27-.005-.404-.026-1.085-.186-2.054-1.113-2.872-2.75-.055-.119-.06-.254-.014-.376.049-.122.15-.216.275-.256 1.248-.483 2.64-.433 3.85.138l.102.08v-1.276c-2.933-.244-5.139-2.78-4.973-5.718.165-2.939 2.641-5.21 5.583-5.124 2.942.087 5.28 2.502 5.27 5.445-.003.439-.06.876-.167 1.302 1.077.047 2.113.427 2.964 1.088.135.11.26.232.376.363v-6.178c-3.558-.246-6.268-3.29-6.1-6.853.167-3.563 3.15-6.339 6.716-6.25zM9.47 20.57c-.87.788-1.975 1.265-3.144 1.357v1.142l.043-.019c1.22-.749 2.716-.9 4.062-.412.123.033.228.115.289.228.061.11.073.243.033.363-.351 1.019-1.09 1.859-2.055 2.337-.36.15-.745.227-1.134.229-.422-.006-.84-.084-1.238-.229v1.423c2.685-.533 5.414-.812 8.151-.831v-3.52c-.445.156-.912.237-1.383.243-.425.003-.848-.07-1.248-.215-1.009-.406-1.847-1.145-2.376-2.095zm7.294-7.706c-.443.132-.9.212-1.363.238v7.012l.275-.228c1.405-.745 3.07-.824 4.538-.214.121.038.221.126.275.242.05.12.05.255 0 .375-.537 1.207-1.524 2.156-2.75 2.646-.283.077-.575.116-.868.115-.516-.008-1.024-.128-1.49-.35v3.464c2.122.019 4.24.19 6.339.51v-2.377c-.008-.091-.008-.183 0-.275v-5.25c-2.813-.24-4.976-2.589-4.982-5.412 0-.174.012-.335.026-.496zM4.807 23.854c-.786-.38-1.687-.442-2.518-.174.37.845 1.08 1.494 1.954 1.787.414.075.845-.03 1.188-.283.016-.517-.216-1.011-.624-1.33zm4.874-.437c-.928-.276-1.93-.15-2.76.35-.271.217-.463.52-.542.859.614.299 1.323.338 1.966.107.579-.279 1.048-.742 1.336-1.316zM25.48 22.5c-.79-.223-1.639-.096-2.33.349-.325.315-.516.74-.53 1.188v.02c.323.294.766.418 1.195.336.745-.2 1.343-1.195 1.665-1.893zm-6.076-2.103c-1.061-.374-2.23-.286-3.223.242-.37.262-.635.645-.751 1.082.608.393 1.349.514 2.049.341.82-.306 1.504-.897 1.925-1.665zm-5.881-.796c-1.17-.763-2.577-1.078-3.962-.887.381 1.354 1.322 2.48 2.585 3.097.763.255 1.595.206 2.323-.138-.004-.794-.348-1.549-.946-2.072zM5.88 12.005c-2.5 0-4.525 2.026-4.525 4.525-.002 1.82 1.088 3.464 2.765 4.17 1.677.707 3.615.338 4.916-.935-.205-.417-.382-.848-.531-1.288-.04-.126-.025-.263.041-.377.069-.112.185-.186.315-.2.448-.077.901-.113 1.356-.108.124-.41.188-.834.188-1.262 0-2.5-2.026-4.525-4.525-4.525zm-.004.92c.248 0 .45.2.45.45v.295c.774.161 1.337.833 1.36 1.624.01.166-.074.325-.217.41-.143.087-.322.087-.465 0-.143-.085-.227-.244-.218-.41-.039-.464-.442-.81-.906-.779-.464-.03-.867.316-.906.779 0 .524.295.78.906.78.472-.05.943.107 1.29.432.347.325.535.784.517 1.259-.019.795-.583 1.473-1.362 1.636v.275l.005-.011c0 .248-.202.45-.45.45s-.45-.202-.45-.45v-.275c-.772-.164-1.333-.836-1.355-1.625 0-.249.2-.45.45-.45.248 0 .449.201.449.45.039.461.44.808.902.78h.106c.418-.024.764-.353.8-.78 0-.524-.294-.792-.906-.792-.47.05-.94-.107-1.285-.429-.347-.322-.536-.778-.52-1.25.022-.79.583-1.46 1.355-1.624v-.296c0-.248.201-.45.45-.45zm16.292-4.09c-.388.006-.773.06-1.148.161-.614 1.536-1.787 2.784-3.282 3.491-.062.287-.093.58-.095.873 0 2.5 2.026 4.526 4.525 4.526 2.5 0 4.525-2.026 4.525-4.526 0-2.499-2.026-4.525-4.525-4.525zm-.225.994c.14-.08.31-.08.45 0s.225.229.225.39v.281c.773.164 1.333.836 1.356 1.626 0 .248-.202.45-.45.45s-.45-.202-.45-.45c-.065-.45-.451-.784-.906-.784-.454 0-.84.334-.906.784 0 .522.296.778.906.778.471-.045.939.115 1.284.438.346.324.536.78.522 1.253-.023.79-.583 1.461-1.356 1.625v.275c0 .161-.086.31-.225.39-.14.08-.31.08-.45 0-.139-.08-.224-.229-.224-.39v-.275c-.775-.163-1.338-.834-1.363-1.625 0-.252.204-.456.456-.456.12 0 .236.049.32.135.084.085.131.201.13.321.037.465.441.813.906.78.462.028.862-.319.9-.78 0-.522-.295-.778-.905-.778-.473.05-.945-.108-1.292-.432-.348-.325-.538-.784-.52-1.26.025-.792.59-1.464 1.368-1.625v-.281c0-.161.085-.31.224-.39zM14.926.92C11.802.921 9.27 3.455 9.272 6.58c.006 3.122 2.537 5.65 5.66 5.654 3.123-.002 5.655-2.535 5.653-5.66C20.584 3.45 18.05.918 14.925.92zm.005 1.598c.249 0 .45.201.45.45v.377c.88.165 1.528.92 1.558 1.815.009.167-.075.327-.22.413-.143.087-.323.087-.467 0-.144-.086-.229-.246-.22-.413-.073-.554-.545-.968-1.104-.968-.558 0-1.03.414-1.104.968 0 .64.376.962 1.107.962.525-.062 1.05.11 1.436.469.387.36.596.87.572 1.398-.027.897-.676 1.653-1.558 1.814v.377c.003.16-.083.309-.222.39-.14.08-.31.08-.45 0-.139-.081-.225-.23-.225-.39V9.8c-.883-.16-1.533-.916-1.558-1.813-.019-.172.062-.34.209-.431.147-.092.333-.092.48 0 .146.092.227.26.208.431.082.547.551.951 1.104.951s1.022-.404 1.104-.95c0-.641-.368-.963-1.1-.963-.525.065-1.052-.106-1.439-.467-.387-.361-.594-.875-.566-1.403.03-.894.676-1.648 1.556-1.812v-.377c0-.249.2-.45.45-.45z" transform="translate(-415 -2312) translate(345 202) translate(0 1226) translate(20 819) translate(50 65)"/>
                        </g>
                    </g>
                </g>
            </g>
        </g>
    </g>
</svg>
