<svg xmlns="http://www.w3.org/2000/svg" width="30" height="30" viewBox="0 0 30 30">
    <g fill="none" fill-rule="evenodd">
        <g fill="#4ACDED">
            <g>
                <g>
                    <g>
                        <path d="M17.172 0c1.836 0 3.536.97 4.472 2.548.937 1.58.971 3.536.091 5.147h3.28c.12 0 .233.048.316.133.083.086.128.2.126.32v3.093h1.719c.118.004.23.053.315.135.08.088.128.2.135.318v4.667h.686c.553 0 1.002.448 1.002 1.001v5.55c0 .554-.448 1.003-1.002 1.003h-.686v2.887c-.003 1.224-.997 2.215-2.222 2.215H2.222c-.588.001-1.154-.231-1.57-.647C.235 27.954 0 27.39 0 26.802V9.927c-.001-.591.233-1.158.65-1.577.417-.418.983-.654 1.573-.655h1.89c.003-1.947 1.082-3.722 2.8-4.617 1.719-.894 3.792-.76 5.38.35.748-2.052 2.695-3.42 4.879-3.428zM.89 11.68v2.676h.217c.246.005.445.204.448.45 0 .248-.2.449-.448.449H.89v9.767h.217c.244 0 .441.198.441.442s-.197.441-.441.441H.89v.897c-.001.353.14.692.39.943.25.25.588.39.942.389h23.182c.353 0 .69-.142.94-.391.248-.25.387-.589.386-.941v-.897h-.217c-.244 0-.442-.197-.442-.441s.198-.442.442-.442h.217v-1.101h-3.428c-2.087 0-3.78-1.693-3.78-3.78 0-2.088 1.693-3.78 3.78-3.78h3.428v-1.109h-.217c-.118 0-.232-.048-.314-.132-.083-.084-.13-.198-.128-.316.002-.244.198-.442.442-.448h.217v-2.214H2.222c-.483 0-.953-.162-1.332-.462zm15.464 13.342c.244 0 .441.198.441.442s-.197.441-.441.441h-1.272c-.244 0-.441-.197-.441-.441s.197-.442.441-.442zm-3.817 0c.244 0 .442.198.442.442s-.198.441-.442.441h-1.264c-.244 0-.442-.197-.442-.441s.198-.442.442-.442zm-7.619 0c.244 0 .442.198.442.442s-.198.441-.442.441H3.652c-.244 0-.442-.197-.442-.441s.198-.442.442-.442zm3.817 0c.243 0 .441.198.441.442s-.198.441-.441.441H7.46c-.243 0-.441-.197-.441-.441s.198-.442.441-.442zm15.24 0c.243 0 .441.198.441.442s-.198.441-.441.441h-1.273c-.242 0-.439-.193-.442-.435-.001-.118.045-.232.127-.316.083-.084.196-.131.315-.132zm-3.81 0c.244 0 .441.198.441.442s-.197.441-.441.441h-1.273c-.244 0-.442-.197-.442-.441s.198-.442.442-.442zm8.147-7.778h-5.01c-1.573.034-2.832 1.32-2.832 2.893 0 1.574 1.259 2.86 2.832 2.894h5.01c.061-.007.109-.057.112-.119v-5.55c-.003-.061-.05-.111-.112-.118zm-5.076 1.33c.859.002 1.555.698 1.555 1.557 0 .63-.379 1.198-.96 1.438-.583.241-1.252.108-1.697-.338-.445-.445-.578-1.115-.337-1.696.242-.582.81-.96 1.44-.96zM8.732 14.357c.246.003.445.202.448.448.002.12-.045.236-.13.321-.086.085-.202.132-.322.13H7.46c-.245-.004-.443-.205-.441-.45.006-.244.199-.44.441-.45zm15.243.003c.244.005.439.204.441.448.002.118-.044.232-.127.316-.083.084-.196.132-.314.132h-1.273c-.119 0-.232-.048-.315-.132-.082-.084-.128-.198-.127-.316.002-.244.198-.443.442-.448zm-11.438-.003c.247.005.445.204.449.45 0 .248-.201.449-.449.449h-1.264c-.12.001-.235-.046-.32-.131-.084-.085-.13-.2-.129-.32.003-.246.202-.445.449-.448zm7.628.003c.244.005.44.204.441.448.002.118-.044.232-.127.316-.083.084-.196.132-.314.132h-1.273c-.248 0-.448-.2-.448-.448.005-.245.203-.443.448-.448zm-15.247 0c.245.005.443.203.448.448 0 .247-.2.448-.448.448H3.652c-.12.001-.234-.046-.318-.13-.085-.084-.132-.199-.13-.318.002-.247.201-.445.448-.448zm11.436-.003c.244.006.44.204.441.448.002.118-.044.232-.127.316-.083.084-.196.132-.314.132h-1.272c-.247 0-.448-.2-.448-.448.005-.245.203-.443.448-.448zm8.216-5.774h-3.456c-.986 1.152-2.426 1.816-3.942 1.82-1.067.001-2.107-.336-2.97-.963-.238.673-.616 1.289-1.107 1.806H24.57V8.582zM9.315 3.375c-1.894-.004-3.568 1.23-4.123 3.04-.555 1.811.139 3.772 1.71 4.83h4.83c1.568-1.06 2.259-3.02 1.703-4.83-.556-1.808-2.228-3.042-4.12-3.04zm-5.11 5.207H2.222c-.486-.016-.942.235-1.19.653-.247.419-.247.939 0 1.357.248.419.704.669 1.19.653h3.313c-.697-.736-1.16-1.663-1.33-2.663zm5.11-4.219c.247 0 .447.201.447.448v.238c.706.161 1.216.778 1.24 1.503.008.164-.075.32-.216.406-.141.085-.318.085-.46 0-.14-.085-.224-.242-.214-.406-.07-.386-.406-.667-.798-.667s-.727.28-.797.667c0 .475.258.685.798.685.44-.045.876.1 1.2.401.323.301.5.727.486 1.168-.018.73-.528 1.353-1.24 1.516v.238c-.003.245-.2.443-.446.448-.244-.005-.44-.204-.443-.448v-.238c-.712-.163-1.224-.786-1.246-1.516.005-.243.205-.438.448-.436.243-.001.44.194.443.436.033.409.389.715.798.686.408.03.765-.275.798-.683 0-.465-.258-.675-.798-.675-.44.042-.878-.108-1.201-.41-.324-.303-.501-.73-.488-1.172.027-.726.539-1.342 1.246-1.503v-.238c0-.118.045-.232.128-.316.083-.084.197-.131.315-.132zm7.857-3.48c-1.936.007-3.63 1.301-4.147 3.167.958.967 1.494 2.274 1.49 3.636-.003.278-.027.555-.07.83.764.641 1.73.992 2.727.99 2.351-.042 4.236-1.96 4.236-4.312 0-2.352-1.885-4.27-4.236-4.311zm-.226 1.044c.141-.085.318-.085.46 0 .14.085.223.241.214.406v.232c.71.158 1.222.78 1.24 1.508.009.165-.074.321-.216.406-.14.085-.318.085-.46 0-.14-.085-.223-.241-.214-.406-.059-.394-.397-.685-.795-.685s-.735.291-.794.685c0 .462.251.686.791.686.44-.048.879.097 1.203.398.323.301.5.728.485 1.17-.02.73-.53 1.353-1.24 1.516v.238c-.013.236-.208.421-.445.421-.236 0-.431-.185-.444-.42v-.239c-.712-.162-1.224-.786-1.242-1.516-.002-.118.044-.232.127-.316.083-.084.196-.131.314-.132.12 0 .234.047.318.131.085.084.133.198.133.317.013.197.103.38.252.51.148.13.342.196.539.183.198.014.393-.05.543-.18.15-.13.241-.315.255-.513 0-.461-.258-.685-.798-.685-.44.044-.876-.103-1.199-.405-.322-.302-.498-.728-.482-1.17.02-.725.53-1.345 1.24-1.502v-.232c-.01-.165.073-.321.215-.406z" transform="translate(-1077 -3740) translate(345 3665) translate(702 36) translate(30 39)"/>
                    </g>
                </g>
            </g>
        </g>
    </g>
</svg>
