<svg xmlns="http://www.w3.org/2000/svg" width="40" height="40" viewBox="0 0 40 40">
    <g fill="none" fill-rule="evenodd">
        <g fill="#4ACDED">
            <g>
                <g>
                    <g>
                        <g>
                            <path d="M21.274 0c.858-.001 1.556.692 1.561 1.55v2.088c.846.15 1.678.37 2.487.659l1.036-1.8c.211-.355.554-.611.953-.715.398-.124.83-.072 1.187.143l2.496 1.444c.73.433.98 1.37.563 2.11l-1.043 1.825c.657.559 1.267 1.17 1.826 1.826l1.808-1.035c.358-.21.785-.269 1.186-.161.401.107.742.371.947.733l1.444 2.496c.205.358.26.783.15 1.18-.108.399-.37.737-.729.942l-1.8 1.052c.292.807.518 1.636.677 2.48h2.067c.862-.006 1.565.688 1.57 1.55v2.889c.002.416-.163.816-.458 1.111-.295.295-.695.46-1.112.46h-2.067c-.158.845-.385 1.677-.677 2.486l1.8 1.052c.366.199.63.542.73.946.109.396.054.82-.15 1.176l-1.438 2.48c-.431.746-1.385 1.001-2.131.571l-1.81-1.033c-.559.656-1.17 1.267-1.826 1.826l1.043 1.8c.428.75.174 1.703-.57 2.14l-2.496 1.445c-.363.197-.788.248-1.187.142-.404-.104-.748-.367-.953-.73l-1.036-1.784c-.812.28-1.643.5-2.487.66v2.101c-.005.859-.702 1.552-1.561 1.552h-2.882c-.858 0-1.554-.694-1.56-1.552v-2.087c-.843-.16-1.674-.38-2.486-.66l-1.036 1.785c-.437.742-1.385 1.002-2.14.588l-2.496-1.445c-.747-.434-1.002-1.391-.57-2.14l1.043-1.8c-.66-.557-1.27-1.167-1.826-1.827l-1.81 1.034c-.354.211-.78.27-1.178.16-.402-.107-.744-.37-.953-.73l-1.435-2.496c-.215-.356-.273-.785-.16-1.185.099-.404.364-.747.73-.946l1.8-1.052c-.292-.806-.519-1.635-.677-2.478h-2.07c-.416 0-.815-.165-1.11-.46-.294-.294-.459-.694-.458-1.11v-2.89c.006-.86.708-1.554 1.569-1.55h2.069c.159-.843.385-1.672.677-2.48l-1.8-1.051c-.36-.204-.622-.543-.73-.942-.106-.399-.049-.824.16-1.18L3.38 8.665c.204-.365.548-.629.953-.73.398-.118.827-.06 1.178.16L7.304 9.13c.556-.66 1.167-1.27 1.826-1.826L8.097 5.491c-.206-.357-.262-.781-.155-1.18.107-.397.367-.736.725-.942l2.496-1.444c.357-.215.789-.267 1.187-.143.399.104.741.36.953.714l1.035 1.8c.81-.287 1.642-.508 2.488-.658V1.55C16.83.693 17.527 0 18.386 0zm0 1.185h-2.889c-.198.005-.356.167-.356.365v2.586c.006.3-.218.555-.517.588-1.104.176-2.186.47-3.228.875-.276.105-.588-.009-.73-.267L12.26 3.104c-.046-.088-.126-.154-.222-.182-.092-.015-.185-.002-.269.038L9.273 4.405c-.085.046-.148.126-.175.22-.027.093-.015.193.032.278l1.302 2.248c.145.256.085.58-.142.767-.875.692-1.668 1.482-2.363 2.354-.191.227-.518.285-.776.137L4.912 9.13c-.08-.056-.183-.07-.276-.036-.092.017-.171.076-.213.16l-1.445 2.497c-.103.173-.046.397.126.5l2.246 1.284c.26.15.37.47.258.749-.4 1.042-.69 2.123-.86 3.226-.052.29-.307.498-.6.492h-2.58c-.201 0-.365.163-.365.365v2.881c0 .202.164.366.366.366H4.15c.298.003.55.221.597.516.173 1.104.461 2.186.86 3.229.112.273.001.587-.258.73l-2.246 1.302c-.077.05-.134.126-.162.214-.018.096-.005.196.036.285l1.445 2.496c.047.08.124.137.213.16.094.017.19.005.276-.034l2.239-1.295c.256-.135.571-.08.767.134.696.877 1.488 1.674 2.363 2.374.229.186.289.51.142.767L9.13 34.738c-.047.082-.059.18-.032.271.027.091.09.167.175.21l2.496 1.445c.171.097.388.042.491-.126l1.293-2.246c.11-.182.304-.296.517-.303l.223.053c1.037.407 2.117.694 3.22.856.291.045.51.293.516.588v2.604c.005.195.161.352.356.356h2.896c.198 0 .36-.158.365-.356v-2.604c.007-.295.225-.543.517-.588 1.102-.162 2.182-.45 3.22-.856.272-.103.578.002.73.25l1.291 2.255c.044.087.127.147.223.161.089.034.189.02.266-.035l2.499-1.444c.083-.045.144-.122.169-.213.025-.09.012-.188-.036-.27l-1.293-2.245c-.15-.256-.09-.583.142-.767.875-.7 1.668-1.497 2.363-2.374.192-.22.51-.28.767-.143l2.248 1.295c.171.097.388.041.491-.126l1.44-2.496c.046-.088.058-.19.034-.285-.028-.09-.088-.165-.168-.214l-2.239-1.296c-.255-.146-.365-.457-.257-.73.399-1.043.688-2.125.864-3.227.045-.292.292-.51.588-.517h2.585c.202 0 .366-.164.366-.365l.005-2.886c0-.201-.163-.365-.365-.365H35.51c-.292 0-.541-.212-.588-.5-.173-1.103-.463-2.185-.864-3.227-.108-.279 0-.595.258-.749l2.239-1.278c.17-.105.229-.324.133-.5l-1.445-2.496c-.045-.086-.126-.15-.22-.173-.095-.023-.195-.006-.276.048l-2.243 1.279c-.253.16-.587.1-.77-.137-.696-.872-1.488-1.662-2.363-2.354-.231-.185-.292-.511-.143-.767l1.293-2.25c.1-.174.041-.397-.133-.498L27.89 2.958c-.083-.04-.176-.052-.267-.036-.096.028-.176.094-.223.182l-1.287 2.228c-.144.262-.46.376-.738.267-1.039-.405-2.118-.698-3.22-.875-.297-.033-.521-.288-.516-.588V1.55c0-.201-.163-.365-.365-.365zm-8.05 11.28c3.702-3.326 9.298-3.387 13.072-.143 3 2.58 4.175 6.7 2.988 10.475-1.188 3.774-4.51 6.48-8.447 6.877-1.386.147-2.788-.006-4.11-.447-.239-.075-.496-.068-.73.018L12.31 30.42l-.183.034c-.14 0-.276-.05-.383-.142-.157-.13-.24-.33-.221-.533l.347-3.53c.033-.28-.031-.565-.183-.803-2.823-4.099-2.165-9.656 1.537-12.982zm10.26-.562c-3.566-1.646-7.793-.702-10.32 2.304-2.526 3.007-2.728 7.333-.493 10.562.32.47.458 1.04.391 1.605l-.257 2.62 2.817-.89c.481-.166 1.003-.172 1.488-.019 1.159.392 2.387.529 3.603.402l-.007-.01c3.908-.393 7.069-3.353 7.718-7.226.649-3.874-1.375-7.702-4.94-9.348zM21.632 23.19c.33 0 .597.268.597.597 0 .33-.267.598-.597.598h-6.607c-.33 0-.597-.268-.597-.598 0-.33.267-.597.597-.597zm3.004-3.683c.213 0 .41.114.517.299.107.184.107.412 0 .597s-.304.298-.517.298h-4.2c-.214 0-.41-.113-.517-.298-.107-.185-.107-.413 0-.597.106-.185.303-.299.517-.299zm-7.213 0c.213 0 .41.114.517.299.107.184.107.412 0 .597s-.304.298-.517.298h-2.398c-.213 0-.41-.113-.517-.298-.107-.185-.107-.413 0-.597.107-.185.304-.299.517-.299zm7.213-3.69c.33 0 .597.267.597.597 0 .33-.267.597-.597.597h-9.61c-.33 0-.598-.268-.598-.597 0-.33.267-.597.597-.597z" transform="translate(-1301 -300) translate(345 202) translate(0 67) translate(926) translate(30 31)"/>
                        </g>
                    </g>
                </g>
            </g>
        </g>
    </g>
</svg>
