<svg xmlns="http://www.w3.org/2000/svg" width="30" height="30" viewBox="0 0 30 30">
    <g fill="none" fill-rule="evenodd">
        <g fill="#C66FEC" fill-rule="nonzero">
            <g>
                <g>
                    <g>
                        <g>
                            <path d="M13.235 25.189V30h-.903V25.19h.903zM7.32.694c1.77 0 3.434.69 4.686 1.94l5.746 5.747c.675.675 1.185 1.465 1.517 2.35.885.332 1.675.842 2.35 1.517l5.746 5.746c2.584 2.584 2.584 6.788 0 9.371-1.251 1.252-2.915 1.941-4.685 1.941-1.77 0-3.434-.69-4.686-1.94l-5.746-5.747c-.675-.676-1.185-1.466-1.517-2.35-.885-.332-1.675-.842-2.35-1.517l-5.746-5.746C1.383 10.754.694 9.09.694 7.32s.69-3.434 1.94-4.685C3.887 1.383 5.55.694 7.32.694zm9.613 10.516c-.172 0-.347.008-.52.024-1.329.12-2.581.707-3.527 1.652-.88.88-1.449 2.026-1.62 3.252l.02.01.109.059.042.02.101.048.039.018c.046.02.093.04.14.057l.013.005.129.046.043.015.105.032.044.013.137.035.01.002c.049.012.098.022.148.031l.043.008.11.017.027.004c.096-1.033.546-1.993 1.292-2.74.846-.846 1.972-1.312 3.17-1.312h.06l.113.004c.017 0 .035 0 .052.002l.102.006.06.004.093.01.066.007.084.012.075.01.038.007.038.007.082.014.07.015.087.018.062.016.092.023.056.016.098.029.053.017c.033.01.065.02.098.032l.052.02.097.035.05.02.097.04.052.024.094.042.055.028.088.043.068.037.072.04.089.052.049.029c.046.028.09.057.135.086l.224.15v.01c.165.125.322.26.469.407l5.595 5.595c1.748 1.749 1.786 4.593.084 6.34-.852.874-1.993 1.355-3.212 1.355-1.198 0-2.323-.466-3.17-1.313l-5.637-5.637c-.148-.148-.286-.307-.412-.474h-.017c-.06.003-.119.006-.178.007l-.144.002h-.023c-.08-.001-.158-.003-.237-.006l-.05-.002-.195-.012-.072-.006-.205-.02-.036-.005c-.08-.01-.159-.021-.237-.034l-.063-.01-.092-.016c.267.513.612.98 1.03 1.399l5.746 5.746c1.08 1.081 2.518 1.676 4.047 1.676s2.966-.595 4.047-1.676c2.232-2.232 2.232-5.863 0-8.094l-5.746-5.747c-.63-.629-1.373-1.091-2.21-1.374-.364-.123-.739-.209-1.119-.257-.083-.01-.167-.02-.25-.026-.156-.013-.312-.019-.469-.019zm2.607 3.267c-.269 1.233-.888 2.375-1.788 3.275-.9.9-2.042 1.519-3.275 1.788l5.616 5.617c.677.676 1.576 1.048 2.532 1.048.974 0 1.885-.384 2.565-1.082 1.36-1.395 1.326-3.67-.076-5.072zm-12.127 7.47l.638.638-3.402 3.402-.638-.638 3.402-3.402zM7.32 1.597c-1.529 0-2.966.595-4.047 1.676-1.08 1.081-1.676 2.518-1.676 4.047s.595 2.966 1.676 4.047l5.747 5.747c.629.629 1.372 1.091 2.21 1.374.488.165.994.262 1.509.291.109.006.218.01.328.01.173 0 .348-.007.52-.023 1.329-.12 2.582-.707 3.527-1.653.88-.88 1.449-2.025 1.62-3.251l-.018-.01-.111-.06-.041-.02-.103-.048-.037-.017c-.047-.02-.093-.04-.14-.058l-.012-.004c-.043-.017-.087-.032-.131-.047l-.042-.014-.107-.033-.043-.012-.141-.037h-.005c-.05-.012-.1-.022-.15-.032l-.04-.007-.113-.018-.026-.003c-.097 1.036-.547 1.994-1.292 2.74-.75.75-1.72 1.203-2.767 1.294v.015l-.462.002h-.003l-.127-.004h-.034l-.113-.008-.048-.004-.13-.013-.03-.003-.084-.012-.075-.01-.065-.012-.093-.016-.047-.01-.11-.023-.037-.01c-.04-.009-.079-.018-.117-.029l-.028-.008-.126-.036-.01-.003c-.351-.11-.69-.262-1.006-.457-.046-.028-.09-.057-.135-.086l-.224-.15v-.01c-.165-.125-.323-.26-.47-.407l-5.594-5.595C2.5 8.838 2.461 5.994 4.163 4.247c.852-.874 1.992-1.355 3.212-1.355 1.197 0 2.323.466 3.17 1.313l5.637 5.637c.148.148.286.307.412.474h.024l.047-.003c.079-.003.157-.004.236-.005H16.952c.082 0 .164.002.246.005l.03.001c.072.003.144.008.216.014l.06.004c.075.007.149.014.222.023l.023.002c.08.01.16.022.24.035l.062.01.092.016c-.267-.512-.612-.98-1.03-1.399l-5.746-5.746c-1.08-1.08-2.518-1.676-4.047-1.676zM4.811 16.765v.903H0v-.903h4.811zm11.755-3.33c-.797.092-1.534.446-2.11 1.022-.576.576-.93 1.312-1.022 2.108.798-.093 1.534-.446 2.11-1.021.576-.577.93-1.313 1.022-2.11zm-9.191-9.64c-.974 0-1.885.384-2.565 1.082-1.36 1.395-1.326 3.67.076 5.072l5.574 5.574c.269-1.233.888-2.375 1.788-3.275.9-.9 2.042-1.519 3.275-1.788L9.907 4.843C9.23 4.167 8.33 3.795 7.375 3.795zM30 12.332v.903H25.19v-.903H30zm-4.65-8.32l.638.638-3.402 3.402-.639-.638 3.402-3.402zM17.667 0v4.811h-.903V0h.903z" transform="translate(-565 -1517) translate(0 202) translate(345 1034) translate(190 251) translate(30 30)"/>
                        </g>
                    </g>
                </g>
            </g>
        </g>
    </g>
</svg>
