<svg xmlns="http://www.w3.org/2000/svg" width="30" height="30" viewBox="0 0 30 30">
    <g fill="none" fill-rule="evenodd">
        <g fill="#4ACDED">
            <g>
                <g>
                    <g>
                        <path d="M15.912 0l.454.454v1.803h.234l.454.468-.454.454h-.234v4.046h8.395l.44.454v1.528h2.491l.468.454v19.323h1.35l.453.454-.454.454H.54l-.454-.454.454-.454h1.349V3.179h-.234L1.2 2.725l.454-.468h.234V.454L2.342 0h13.57zm11.34 10.115H16.366v18.869h10.886V10.115zM15.444 3.18H2.796v25.805h12.648V3.179zm3.73 23.245l.137.33-.138.317-.316.138-.33-.138-.124-.317.124-.33h.646zm2.945 0l.137.33-.137.317-.317.138-.316-.138-.138-.317.138-.33h.633zm2.945 0l.151.33-.137.317-.317.138-.33-.138-.138-.317.138-.33h.633zM5.74 4.597l.44.454v20.754l-.44.454-.468-.454V5.05l.468-.454zm3.386 0l.454.454v20.754l-.454.454-.454-.454V5.05l.454-.454zm3.385 0l.455.454v20.754l-.455.454-.44-.454V5.05l.44-.454zm6.345 19.281l.454.454-.454.44-.454-.44.454-.454zm2.945 0l.454.454-.454.44-.454-.44.454-.454zm2.959 0l.454.454-.454.44-.468-.44.468-.454zm-5.904-2.436l.454.44-.454.455-.454-.455.454-.44zm2.945 0l.454.44-.454.455-.454-.455.454-.44zm2.959 0l.454.454-.454.44-.468-.44.468-.454zm-5.904-2.436l.454.454-.454.468-.454-.468.454-.454zm2.945 0l.454.454-.454.468-.454-.468.454-.454zm2.959 0l.454.454-.454.468-.468-.468.468-.454zm-5.904-2.436l.454.468-.454.454-.454-.454.454-.468zm2.945 0l.454.468-.454.454-.454-.454.454-.468zm2.959 0l.454.468-.454.454-.468-.454.468-.468zm-5.904-2.408l.454.44-.454.454-.454-.454.454-.44zm2.945 0l.454.44-.454.454-.454-.454.454-.44zm2.959 0l.454.44-.454.454-.468-.454.468-.44zm-5.588-2.312l.138.316-.138.33-.316.124-.317-.124-.137-.33.124-.316h.646zm2.946 0l.137.316-.137.33-.317.124-.316-.124-.138-.33.138-.316h.633zm2.959.013l.137.303-.137.33-.317.124-.33-.124-.138-.33.138-.303h.647zm-.771-3.73h-7.941v1.074h7.94V8.134zM15.444.924H2.796V2.27h12.648V.922z" transform="translate(-975 -458) translate(345 456) translate(630) translate(0 2)"/>
                    </g>
                </g>
            </g>
        </g>
    </g>
</svg>
