<svg xmlns="http://www.w3.org/2000/svg" width="26" height="34" viewBox="0 0 26 34">
    <g fill="none" fill-rule="evenodd">
        <g fill="#FFF" fill-rule="nonzero">
            <g>
                <g>
                    <path d="M23.178 0l.144.004c.87.05 1.628.524 2.067 1.22.23.364.374.79.4 1.246l.005.144v8.092h-.002v19.836l-.004.144c-.068 1.333-1.133 2.404-2.466 2.481l-.144.004H2.614c-1.4-.004-2.54-1.104-2.61-2.485L0 30.542-.002 2.614l.005-.144c.026-.457.17-.882.4-1.247C.842.528 1.599.053 2.47.004L2.614 0h20.564zm0 32.151l.115-.004c.797-.055 1.434-.689 1.494-1.484l.005-.12V10.705h-.006V2.614c-.002-.767-.538-1.41-1.255-1.573l-.163-.029-.076-.007-.12-.005H2.62l-.12.005-.118.013c-.738.11-1.314.72-1.371 1.475l-.005.12v8.093H1v19.836c.002.851.663 1.547 1.499 1.605l.115.004h20.564zm-16.24-7.865c.534 0 1.046.213 1.423.592.34.342.544.792.579 1.268l.006.16v1.568c-.002 1.067-.831 1.94-1.882 2.012l-.127.005H5.362c-1.067-.007-1.938-.84-2.005-1.89l-.005-.127v-1.568c-.002-.535.209-1.049.586-1.428.34-.34.788-.548 1.264-.586l.16-.006h1.575zm6.818 0c.534 0 1.047.213 1.423.592.34.342.544.792.58 1.268l.005.16v1.568c-.002 1.067-.831 1.94-1.881 2.012l-.127.005H12.18c-1.067-.007-1.938-.84-2.005-1.89l-.004-.127v-1.568c-.003-.535.208-1.049.585-1.428.34-.34.788-.548 1.265-.586l.16-.006h1.575zm6.674 0l.16.006c.476.038.925.245 1.264.586.34.342.544.792.58 1.268l.006.16v1.568l-.005.127c-.064 1.007-.867 1.814-1.873 1.885l-.132.005h-1.575l-.127-.005c-1.007-.069-1.81-.874-1.877-1.88l-.005-.132v-1.568l.006-.16c.035-.476.24-.926.579-1.268.339-.34.788-.548 1.264-.586l.16-.006h1.575zM6.937 25.29H5.362c-.269 0-.526.108-.715.299-.163.163-.264.376-.288.603l-.006.114v1.563c.003.52.4.946.906.997l.103.005h1.583c.52 0 .948-.394 1.002-.9l.006-.102v-1.563c.001-.27-.105-.529-.296-.72-.164-.163-.377-.265-.605-.29l-.115-.006zm6.812 0h-1.575c-.269 0-.526.108-.715.299-.163.163-.264.376-.288.603l-.006.114v1.563c.001.268.11.523.3.711.163.161.375.261.601.285l.114.006h1.576c.31 0 .59-.142.774-.364v-.213c.047-.099.078-.205.09-.315l.007-.11v-1.563l-.006-.114c-.012-.113-.043-.223-.091-.324v-.212l-.062-.069c-.163-.163-.377-.265-.604-.29l-.115-.007zm6.68 0h-1.574l-.115.006c-.228.025-.441.127-.605.29-.163.164-.265.378-.29.605l-.006.115v1.563l.006.103c.05.472.427.846.9.894l.102.005h1.583l.103-.005c.473-.047.85-.422.9-.894l.006-.103v-1.563l-.006-.114c-.024-.227-.125-.44-.288-.603-.189-.19-.446-.298-.715-.299zM6.938 17.46c1.067.005 1.938.838 2.004 1.888l.005.128v1.569c.001.533-.21 1.046-.586 1.424-.34.34-.788.547-1.263.585l-.16.006H5.362c-.534 0-1.046-.213-1.423-.59-.339-.341-.544-.79-.58-1.266l-.007-.16v-1.568c.003-1.068.833-1.94 1.883-2.012l.127-.004h1.575zm13.493 0l.127.004c1.007.068 1.81.873 1.878 1.88l.005.132v1.569l-.006.16c-.037.475-.242.924-.581 1.264-.34.34-.788.547-1.264.585l-.16.006h-1.574l-.16-.006c-.475-.038-.924-.244-1.263-.585-.339-.34-.543-.79-.58-1.265l-.006-.16v-1.568l.005-.128c.064-1.006.866-1.813 1.871-1.883l.133-.005h1.575zm-6.674-.046c1.067.006 1.937.84 2.004 1.89l.004.127V21c.002.534-.209 1.047-.586 1.425-.339.34-.787.547-1.263.586l-.16.006H12.18c-.534 0-1.046-.213-1.423-.592-.34-.34-.544-.79-.58-1.266l-.006-.16v-1.567c.002-1.067.831-1.94 1.882-2.012l.127-.005h1.576zm-6.819 1.061H5.362c-.52 0-.948.392-1.003.898l-.006.103v1.569c-.002.268.104.526.294.717.162.163.374.265.6.292l.115.006h1.583c.268 0 .525-.108.715-.299.162-.163.262-.376.287-.602l.006-.114v-1.57c-.002-.267-.11-.522-.3-.71-.164-.16-.376-.26-.602-.284l-.114-.006zm13.493 0h-1.575l-.114.006c-.226.024-.438.123-.601.284-.164.16-.266.372-.294.597l-.007.114v1.569l.006.114c.025.226.125.44.287.602.163.164.375.266.6.292l.115.007h1.583l.114-.006c.227-.027.439-.129.601-.292.163-.163.264-.376.288-.603l.006-.114v-1.57l-.006-.102c-.055-.506-.483-.899-1.003-.898zm-6.68-.044h-1.576c-.52 0-.948.392-1.003.898l-.006.102V21c.002.525.4.956.912 1.01l.103.005h1.576c.312-.003.59-.147.775-.37v-.216c.046-.098.077-.204.09-.316l.006-.113V19.43l-.006-.102c-.012-.114-.043-.222-.09-.322v-.204c-.164-.202-.406-.34-.68-.367l-.102-.005zm-6.813-7.857c1.067.007 1.937.839 2.004 1.89l.005.126v1.643c-.002 1.067-.831 1.94-1.882 2.012l-.127.005H5.362c-1.067-.006-1.938-.84-2.005-1.89l-.005-.127V12.59c.003-.861.544-1.596 1.306-1.885h-.145c.176-.066.363-.11.558-.124l.147-.007h1.72zm13.637 0c.248.002.485.048.705.131h-.145c.722.274 1.246.949 1.3 1.753l.006.132v1.643l-.005.127c-.064 1.007-.867 1.814-1.873 1.885l-.132.005h-1.575l-.127-.005c-1.007-.068-1.81-.874-1.877-1.88l-.005-.132V12.59l.005-.127c.064-1.006.866-1.812 1.871-1.884l.133-.005h1.719zm-6.818 0c1.066.007 1.936.839 2.003 1.89l.005.126v1.583c-.003 1.064-.834 1.934-1.882 1.998l-.126.004H12.18c-1.064 0-1.937-.827-2.005-1.875l-.004-.127V12.59c.002-.861.544-1.596 1.305-1.885h-.144c.175-.066.362-.11.557-.124l.147-.007h1.72zm6.674 1.076h-1.575l-.103.005c-.473.048-.85.42-.906.892l-.007.103v1.53l.007.101c.057.47.435.84.906.889l.103.005h1.575l.102-.006c.471-.051.846-.423.9-.894l.007-.102v-1.53l-.007-.101c-.061-.501-.487-.889-1.002-.892zm-6.674-.075H12.18c-.525.002-.956.4-1.01.911l-.005.104v1.583c.008.52.406.944.913.996l.102.006h1.576c.312-.003.59-.146.775-.37v-.215c.045-.095.075-.198.089-.307l.007-.11V12.59l-.005-.104c-.013-.115-.044-.225-.091-.325v-.215c-.164-.199-.402-.335-.672-.365l-.103-.006zm-6.819.075H5.362c-.515.003-.94.39-1.002.892l-.007.102v1.53c.008.517.402.94.907.995l.102.006h1.575c.519 0 .948-.39 1.009-.894l.007-.102v-1.53c-.009-.52-.406-.943-.913-.994l-.103-.005zM3.853 3.39h18.086l.074.006c.027.004.054.01.08.018.177.056.312.208.342.396l.006.073v3.853c.002.134-.05.263-.145.358-.075.077-.172.126-.277.143l-.08.007H3.853l-.08-.007c-.105-.017-.202-.066-.277-.143-.076-.076-.124-.174-.14-.279l-.005-.08V3.884l.006-.073c.026-.161.129-.296.269-.367l.094-.035.06-.012.073-.005zm17.579 1H4.36v2.838h17.072V4.391zM11.327 5.45c.093.098.144.227.142.362.004.133-.048.262-.142.356-.096.095-.224.15-.358.153-.134-.005-.262-.06-.36-.153-.09-.096-.14-.224-.14-.356-.005-.206.116-.393.306-.473.19-.08.408-.035.552.112zm3.69-.111c.19.08.311.267.306.473 0 .132-.05.26-.14.356-.098.093-.225.148-.36.153-.134-.004-.262-.058-.358-.153-.094-.094-.146-.223-.142-.356-.002-.135.049-.264.142-.361.144-.147.363-.192.552-.112zm5.179.113c.096.096.15.225.153.36.003.133-.048.261-.14.356-.095.097-.225.152-.36.153-.134-.005-.262-.06-.358-.153-.195-.2-.195-.518 0-.717.202-.176.503-.175.705.001zM6.3 5.451c.195.2.195.518 0 .717-.096.093-.224.148-.358.153-.135-.001-.264-.056-.36-.153-.092-.095-.143-.223-.14-.356.003-.135.058-.264.153-.36.202-.176.503-.177.705-.001zm11.032-.149c.278.006.503.231.508.51-.001.28-.228.507-.508.508-.134 0-.262-.055-.356-.15-.094-.095-.146-.224-.144-.358 0-.252.184-.462.426-.503l.074-.007zm-8.874 0l.074.007c.242.04.426.25.426.503.002.134-.05.263-.144.358-.094.095-.222.15-.356.15-.28-.001-.507-.228-.508-.508.005-.279.23-.504.508-.51z" transform="translate(-405 -3503) translate(345 3474) translate(60 29)"/>
                </g>
            </g>
        </g>
    </g>
</svg>
