<svg xmlns="http://www.w3.org/2000/svg" width="30" height="29" viewBox="0 0 30 29">
    <g fill="none" fill-rule="evenodd">
        <g fill="#FFF" fill-rule="nonzero">
            <g>
                <g>
                    <g>
                        <g>
                            <path d="M17.586 0c1.032 0 1.922.724 2.133 1.734h1.969c.21-1.009 1.1-1.732 2.13-1.732 1.031 0 1.92.723 2.131 1.732h1.823c.888.006 1.606.724 1.613 1.612v23.676c-.005.887-.727 1.602-1.613 1.6H1.612c-.427.001-.836-.166-1.138-.466-.302-.3-.473-.708-.474-1.134V3.346c.001-.89.722-1.61 1.611-1.612h1.824C3.645.724 4.535 0 5.565 0c1.032 0 1.921.724 2.13 1.734h1.527c.21-1.009 1.1-1.732 2.13-1.732 1.031 0 1.92.723 2.131 1.732h1.969C15.662.724 16.553 0 17.586 0zm10.906 6.595H.892v20.43c0 .19.077.372.212.505.135.134.317.209.507.208h26.16c.19 0 .374-.074.509-.208.135-.133.21-.315.212-.505V6.595zM5.846 21.697c.354 0 .694.14.945.39.25.25.39.59.39.945v1.783c-.003.736-.6 1.332-1.335 1.334H4.07c-.736-.002-1.333-.598-1.336-1.334v-1.783c0-.354.14-.694.39-.945.251-.25.591-.39.946-.39zm6.494 0c.737 0 1.334.598 1.334 1.335v1.783c-.005.735-.6 1.33-1.334 1.334h-1.787c-.735-.004-1.33-.599-1.335-1.334v-1.783c0-.737.598-1.334 1.335-1.335zm3.585.994c.141-.085.318-.085.46 0 .142.086.225.242.216.407v1.528c.006.317.265.57.581.568h1.52c.312-.004.564-.256.568-.568v-1.528c-.001-.119.046-.234.13-.318.085-.085.2-.132.32-.13.117 0 .23.048.312.133.083.084.128.198.127.315v1.528c-.005.802-.655 1.45-1.457 1.454h-1.526c-.805-.001-1.459-.65-1.467-1.454v-1.528c-.01-.165.074-.321.216-.407zm-10.079-.108H4.07c-.248 0-.45.201-.45.45v1.782c.005.247.203.445.45.45h1.776c.246-.005.445-.203.45-.45v-1.783c0-.248-.202-.449-.45-.449zm6.494 0h-1.787c-.247.002-.445.203-.445.45v1.782c.004.245.2.443.445.45h1.787c.245-.006.441-.205.443-.45v-1.783c.001-.118-.045-.232-.128-.317-.083-.084-.196-.132-.315-.132zm5.596-9.567c2.333.005 4.223 1.895 4.228 4.228 0 2.335-1.893 4.228-4.228 4.228s-4.228-1.893-4.228-4.228 1.893-4.228 4.228-4.228zm1.271 1.144c-1.25-.517-2.689-.23-3.644.728-.956.958-1.24 2.397-.72 3.646s1.74 2.062 3.093 2.059c1.841-.01 3.333-1.502 3.336-3.343 0-1.353-.815-2.573-2.065-3.09zm-13.36.852c.355.002.695.145.945.397.25.253.39.595.388.95v1.773c.003.356-.136.7-.386.953-.25.254-.591.398-.948.4H4.07c-.357-.002-.698-.146-.949-.4-.25-.253-.39-.597-.387-.953v-1.767c-.003-.357.137-.7.387-.954s.592-.397.949-.4zm6.428 0c.245.005.441.204.443.45.001.118-.045.232-.128.316-.084.085-.197.132-.316.132h-1.526c-.152 0-.298.059-.406.165-.107.107-.169.252-.17.404v1.532c.001.152.063.297.17.404.108.106.254.166.406.165h1.527c.119 0 .232.048.315.132.083.084.13.198.128.317.002.248-.196.451-.444.456h-1.526c-.39-.002-.762-.158-1.035-.435-.274-.276-.427-.65-.425-1.039V16.48c0-.808.652-1.463 1.46-1.467zm12.848 0c.809.002 1.464.657 1.466 1.467v1.532c-.002.81-.657 1.465-1.466 1.467h-1.526c-.245-.006-.44-.205-.443-.45-.001-.118.045-.232.128-.316.083-.084.196-.132.315-.132h1.526c.152.001.298-.058.406-.165.107-.106.168-.252.169-.404V16.48c0-.152-.062-.298-.17-.404-.107-.107-.253-.166-.405-.165h-1.526c-.119 0-.232-.048-.315-.132-.083-.084-.13-.199-.128-.317.002-.244.198-.443.443-.45zm-7.187.001c.244 0 .442.198.442.443v1.353h1.341c.117-.002.229.043.312.125.082.082.129.194.128.31.001.118-.044.232-.127.316-.082.084-.195.132-.313.133h-1.34v1.336c0 .244-.199.442-.443.442s-.442-.198-.442-.442v-1.336h-1.336c-.12.002-.234-.045-.319-.13-.084-.084-.131-.2-.13-.319 0-.118.048-.23.132-.313.085-.082.2-.126.317-.122h1.336v-1.353c0-.245.198-.443.442-.443zm-12.09.897H4.07c-.248 0-.45.201-.45.45v1.772c0 .248.202.449.45.449h1.776c.248 0 .45-.201.45-.45V16.36c0-.248-.202-.449-.45-.449zm19.469-7.57c.355-.003.696.137.947.388.251.25.392.592.39.947v1.783c-.001.736-.597 1.332-1.333 1.334H23.54c-.737-.002-1.335-.597-1.34-1.334V9.675c0-.355.141-.696.393-.946.251-.25.592-.39.947-.39zm-12.975 0c.737 0 1.334.598 1.334 1.335v1.783c-.005.734-.6 1.329-1.334 1.334h-1.787c-.734-.007-1.326-.6-1.331-1.334V9.675c0-.736.595-1.333 1.33-1.336zm0 .885h-1.787c-.245.007-.44.205-.445.45v1.783c0 .247.198.448.445.45h1.787c.119 0 .232-.048.316-.133.083-.084.128-.199.127-.317V9.675c-.002-.245-.198-.444-.443-.45zm12.979 0H23.54c-.247.003-.448.202-.453.45v1.783c0 .12.047.235.132.32.086.084.201.131.321.13h1.774c.12 0 .234-.047.318-.132.084-.084.131-.199.131-.318l.004-1.783c-.005-.246-.203-.445-.45-.45zm-6.617-.82c.389.002.761.159 1.035.435.274.276.426.65.425 1.039v1.512c.009.166-.074.322-.216.408-.142.085-.319.085-.46 0-.142-.086-.225-.242-.216-.408V9.88c.005-.316-.245-.578-.562-.587h-1.526c-.155 0-.304.061-.413.172-.11.11-.17.26-.168.415v1.512c.001.119-.045.233-.128.317-.083.085-.196.132-.315.133-.12 0-.234-.046-.319-.13-.084-.085-.131-.2-.13-.32V9.88c0-.391.155-.766.431-1.042.277-.277.651-.432 1.042-.431zM3.435 2.62H1.611c-.398.004-.72.328-.72.727V5.71H28.48V3.346c0-.4-.32-.723-.72-.727h-5.146c.182.506.661.844 1.199.846.12-.001.234.046.32.13.084.084.132.2.132.319-.005.247-.205.446-.452.449-1.03-.009-1.915-.735-2.124-1.744h-5.305c.181.51.665.848 1.205.846.118 0 .23.049.313.133.083.084.128.198.127.316-.001.244-.196.442-.44.449-1.037 0-1.932-.728-2.143-1.744h-2.358v.014l-.007-.014h-2.933c.184.509.667.847 1.208.846.119 0 .233.047.316.131.083.085.13.2.128.318-.002.245-.199.444-.444.449-1.034-.005-1.923-.732-2.133-1.744H7.306l-.014.014v-.014H4.361c.182.507.662.845 1.2.846.12-.002.235.045.32.13.084.084.131.2.13.319-.002.247-.202.447-.45.449-1.03-.007-1.917-.734-2.126-1.744zM23.812.889c-.536.006-1.013.342-1.199.845h2.416c-.189-.509-.674-.846-1.217-.845zm-6.224 0c-.539.002-1.02.34-1.205.845h2.405c-.183-.505-.662-.843-1.2-.845zm-6.223 0c-.55.003-1.03.34-1.218.845h2.411c-.186-.5-.66-.836-1.193-.845zm-5.794 0h-.01c-.536.005-1.014.341-1.2.845h2.404c-.186-.5-.66-.836-1.194-.845z" transform="translate(-583 -3375) translate(345 2300) translate(0 774) translate(30 280) translate(208 21)"/>
                        </g>
                    </g>
                </g>
            </g>
        </g>
    </g>
</svg>
