<svg xmlns="http://www.w3.org/2000/svg" width="37" height="30" viewBox="0 0 37 30"><g><g><path fill="#d7d7e0" d="M.429 4.07a.608.608 0 0 1 0-.862L2.868.768a.61.61 0 1 1 .862.863L2.332 3.029h9.503a.61.61 0 1 1 0 1.22H2.332L3.73 5.645a.61.61 0 1 1-.862.863zm33.863 2.439a.61.61 0 1 1-.862-.863l1.398-1.398h-9.503a.61.61 0 1 1 0-1.22h9.503L33.43 1.632a.61.61 0 1 1 .862-.862l2.44 2.439a.608.608 0 0 1 0 .862zm-2.527 10.85v6.622a6.104 6.104 0 0 1-6.097 6.097h-5.652a7.895 7.895 0 0 1-5.408-2.132L7.57 21.378a.61.61 0 0 1-.194-.446v-.466a2.586 2.586 0 0 1 3.738-2.31l3.916 1.958a.602.602 0 0 0 .593-.027.6.6 0 0 0 .29-.518V3.25A2.442 2.442 0 0 1 18.35.811a2.442 2.442 0 0 1 2.44 2.439v8.007l.12-.08a3.688 3.688 0 0 1 4.027 0l5.47 3.646a3.042 3.042 0 0 1 1.357 2.536zm-1.22 6.622v-6.622c0-.612-.304-1.181-.814-1.521l-5.47-3.647a2.449 2.449 0 0 0-2.674 0l-1.068.712a.612.612 0 0 1-.948-.507V3.25a1.22 1.22 0 0 0-2.44 0v16.319c0 .638-.323 1.22-.866 1.556a1.815 1.815 0 0 1-1.78.08l-3.916-1.958a1.365 1.365 0 0 0-1.973 1.22v.2l6.844 6.387a6.683 6.683 0 0 0 4.576 1.804h5.652a4.883 4.883 0 0 0 4.878-4.877z"/></g></g></svg>