<svg xmlns="http://www.w3.org/2000/svg" width="60" height="60" viewBox="0 0 60 60">
    <g fill="none" fill-rule="evenodd">
        <g fill="#3698E4" fill-rule="nonzero">
            <g>
                <g>
                    <g>
                        <path d="M58.326 57.423c.492 0 .891.399.891.892 0 .492-.399.891-.891.891H.892c-.493 0-.892-.399-.892-.891 0-.493.4-.892.892-.892zM19.72 42.349c.5 0 .905.405.905.906v10.944c0 .5-.405.906-.905.906h-5.95c-.24 0-.47-.096-.637-.266-.168-.17-.261-.4-.258-.64V43.255c-.003-.24.09-.47.258-.64.168-.17.397-.266.636-.266zm38.605-17.045c.239 0 .468.095.636.265.168.17.261.401.258.64V54.2c.003.24-.09.47-.258.64-.168.17-.397.266-.636.266H52.36c-.239-.001-.467-.097-.635-.267-.167-.17-.26-.4-.257-.639V26.21c-.003-.239.09-.47.258-.64.168-.17.398-.265.637-.265zm-12.862 9.878c.236-.003.464.088.633.253.168.166.265.391.267.628v18.136c.003.24-.091.471-.26.642-.17.17-.4.265-.64.264l-5.968-.003c-.238 0-.467-.097-.634-.267-.168-.17-.26-.4-.257-.639V36.06c.006-.488.404-.88.891-.878zm-12.878-4.473c.237-.008.468.08.64.247.17.165.266.393.265.631V54.2c.002.24-.092.472-.263.643-.17.17-.402.265-.642.263h-5.954c-.239-.001-.467-.097-.635-.267-.167-.17-.26-.4-.257-.639V31.587c-.001-.235.093-.462.26-.627.168-.166.396-.256.632-.25zm-25.73 8.896c.494.01.89.412.895.906v13.688c.003.24-.09.47-.258.64-.168.17-.397.266-.637.266H.906c-.5 0-.906-.406-.906-.906V40.511c.009-.496.41-.897.906-.906zm11.962 4.555h-4.142v9.134h4.142V44.16zM57.42 27.087h-4.154v26.207h4.154V27.087zm-12.862 9.881h-4.156v16.326h4.156V36.968zm-12.856-4.475h-4.156v20.8h4.156v-20.8zM5.965 41.416H1.81v11.878h4.154V41.416zm49.377-26.553l.213.001c1.324.04 2.543.756 3.22 1.906.716 1.214.716 2.721 0 3.935-.715 1.214-2.033 1.944-3.441 1.907-.887.006-1.748-.305-2.425-.878l-6.9 5.299c.656 1.444.364 3.143-.735 4.287-1.1 1.143-2.785 1.502-4.254.904-1.47-.598-2.427-2.031-2.415-3.618l.04-.373-5.779-2.024c-.713 1.106-1.937 1.777-3.253 1.784-.778.005-1.54-.227-2.182-.666l-7.295 6.606c.307.565.476 1.195.49 1.838-.007 2.106-1.698 3.82-3.804 3.856-2.106.035-3.854-1.62-3.933-3.725l-5.512-1.146c-.843 1.776-2.882 2.639-4.743 2.008-1.862-.63-2.957-2.554-2.548-4.477.41-1.922 2.192-3.234 4.15-3.052 1.957.182 3.468 1.8 3.515 3.765l5.5 1.145c.642-1.355 2.003-2.224 3.503-2.236.78.005 1.54.245 2.182.69l7.298-6.63c-.32-.56-.491-1.193-.494-1.838 0-2.14 1.735-3.876 3.876-3.876 2.14 0 3.875 1.736 3.875 3.876l-.04.374 5.756 2.023c.707-1.123 1.946-1.798 3.273-1.783.889 0 1.748.316 2.425.891l6.913-5.315c-.234-.5-.353-1.044-.349-1.596.006-2.135 1.74-3.863 3.876-3.861l-.003-.001zm-38.62 18.852c-1.146.01-2.068.946-2.06 2.092.008 1.147.943 2.07 2.089 2.064.553-.002 1.082-.226 1.47-.62.387-.395.602-.927.597-1.48-.012-1.146-.95-2.066-2.096-2.056zM3.89 30.998c-1.152.015-2.078.953-2.078 2.106.002 1.147.931 2.076 2.078 2.078 1.146-.003 2.074-.932 2.076-2.078 0-1.152-.925-2.09-2.076-2.106zm38.591-4.47c-1.148 0-2.078.93-2.078 2.078 0 1.152.926 2.09 2.078 2.103 1.152-.013 2.078-.95 2.078-2.103 0-1.147-.93-2.078-2.078-2.078zM58.326 0c.239 0 .467.097.635.267.168.17.261.4.26.638v11.747c0 .321-.172.618-.45.78-.28.16-.622.16-.9 0-.28-.162-.45-.459-.45-.78v-1.89H1.796v15.766c.004.243-.09.477-.26.65-.17.172-.403.27-.645.27-.239-.001-.467-.098-.635-.268-.167-.17-.26-.4-.257-.638V.905C-.003.667.09.437.257.267.425.097.653 0 .892 0zM29.624 22.053c-1.148 0-2.078.93-2.078 2.078.001 1.144.926 2.072 2.07 2.078.552.002 1.082-.217 1.474-.606.39-.39.611-.92.612-1.472 0-1.148-.93-2.078-2.078-2.078zm26.493-5.254c-.784-.32-1.683-.135-2.277.468-.595.602-.768 1.504-.438 2.284.33.78 1.096 1.284 1.943 1.277.554-.003 1.084-.226 1.474-.62.39-.395.605-.928.601-1.483-.004-.846-.519-1.606-1.303-1.926zM57.42 1.786H1.797v7.19H57.42v-7.19zm-4.445 2.957c.36-.322.903-.322 1.262 0 .172.168.268.398.268.638s-.096.47-.268.638c-.163.17-.388.269-.624.273-.24-.007-.468-.104-.638-.273-.176-.165-.275-.397-.273-.638.003-.24.101-.47.273-.638zm-9.87 0c.36-.32.9-.32 1.26 0 .17.169.268.398.272.638.006.24-.085.472-.253.644-.168.171-.398.268-.638.267-.242-.002-.473-.1-.641-.273-.353-.352-.353-.924 0-1.276zm5.566-.24c.237-.007.467.083.638.248.17.165.267.392.267.63 0 .5-.405.905-.905.905-.238-.001-.466-.097-.634-.267-.167-.17-.26-.4-.258-.638-.001-.236.093-.462.26-.628.169-.165.396-.255.632-.25z" transform="translate(-345 -1411) translate(0 202) translate(345 1034) translate(0 175)"/>
                    </g>
                </g>
            </g>
        </g>
    </g>
</svg>
