<svg xmlns="http://www.w3.org/2000/svg" width="20" height="17" viewBox="0 0 20 17">
    <defs>
        <radialGradient id="fcr873qdea" cx="92.454%" cy="-145.291%" r="150.627%" fx="92.454%" fy="-145.291%" gradientTransform="matrix(.70446 -.49968 .40638 .8662 .864 .268)">
            <stop offset="0%" stop-color="#ABF0FF"/>
            <stop offset="35.37%" stop-color="#10C0E6"/>
            <stop offset="100%" stop-color="#0071DB"/>
        </radialGradient>
    </defs>
    <g fill="none" fill-rule="evenodd" opacity=".8">
        <g fill="url(#fcr873qdea)" transform="translate(-405 -1094)">
            <g>
                <g>
                    <g>
                        <g>
                            <path d="M16.315.44c.545-.545 1.432-.545 1.976 0l1.3 1.3c.545.544.545 1.43.001 1.976L7.448 15.886c-.264.265-.615.41-.989.41s-.725-.145-.989-.409L.41 10.826c-.545-.545-.545-1.432 0-1.977l1.299-1.3c.545-.544 1.431-.544 1.976 0l2.76 2.761zm1.413.563c-.234-.234-.615-.234-.85 0l-9.877 9.878c-.307.307-.806.307-1.112 0L3.12 8.113c-.117-.117-.271-.175-.425-.175-.154 0-.307.058-.425.175l-1.299 1.3c-.234.234-.234.615 0 .85l5.062 5.06c.113.114.264.177.425.177.16 0 .312-.063.425-.177l12.144-12.17c.234-.235.234-.615 0-.85zM9.51 10.958c.156-.156.408-.156.564 0 .155.155.155.408 0 .563l-3.2 3.2c-.078.078-.18.117-.282.117-.102 0-.204-.039-.282-.117-.156-.155-.156-.408 0-.563zm1.164-1.164c.155-.156.408-.156.563 0 .156.156.156.408 0 .564l-.124.124c-.078.078-.18.117-.282.117-.102 0-.204-.039-.282-.117-.156-.155-.155-.408 0-.563z" transform="translate(345 202) translate(0 776) translate(40 94) translate(20 22)"/>
                        </g>
                    </g>
                </g>
            </g>
        </g>
    </g>
</svg>
