<svg xmlns="http://www.w3.org/2000/svg" width="20" height="19" viewBox="0 0 20 19">
    <g fill="none" fill-rule="evenodd">
        <g fill="#23ACE5" fill-rule="nonzero">
            <g>
                <g>
                    <g>
                        <g>
                            <path d="M6.875 7.5c3.25 0 6.698 1.04 6.868 2.975l.007.15v5c0 2.03-3.543 3.125-6.875 3.125-3.25 0-6.698-1.04-6.868-2.975L0 15.625v-5C0 8.595 3.542 7.5 6.875 7.5zm6.25-7.5c3.25 0 6.698 1.04 6.868 2.975l.007.15v12.5c0 1.748-2.637 2.778-5.328 3.05l-.298.025c-.322 0-.595-.246-.622-.572-.028-.344.228-.648.57-.675 2.79-.233 4.32-1.15 4.423-1.764l.005-.064v-.652c-.727.463-1.745.83-3.016 1.054-.037.008-.074.01-.11.01-.296 0-.56-.213-.614-.516-.06-.339.168-.664.506-.724 2.014-.355 3.138-1.075 3.228-1.604l.006-.068v-.652c-.727.463-1.745.83-3.016 1.054-.037.008-.074.01-.11.01-.296 0-.56-.213-.614-.516-.06-.339.168-.664.506-.724 2.014-.355 3.138-1.075 3.228-1.604l.006-.068v-.652c-.727.464-1.745.83-3.016 1.054-.037.008-.074.01-.11.01-.296 0-.56-.213-.614-.516-.06-.339.168-.664.506-.724 2.014-.355 3.138-1.075 3.228-1.604l.006-.068v-.669c-.997.635-2.466 1.044-3.974 1.208l-.348.034-.054.002c-.322 0-.595-.246-.622-.572-.028-.344.228-.648.57-.676 2.79-.232 4.32-1.15 4.423-1.763l.005-.064v-.651c-1.326.836-3.516 1.276-5.625 1.276-1.985 0-4.041-.39-5.382-1.133L7.5 4.974v.651c0 .345-.28.625-.625.625-.314 0-.574-.231-.618-.533l-.007-.092v-2.5C6.25 1.095 9.793 0 13.125 0zM12.5 14.974c-1.326.836-3.516 1.276-5.625 1.276-1.985 0-4.041-.39-5.382-1.133l-.243-.143v.651c0 .764 2.191 1.875 5.625 1.875 3.33 0 5.491-1.045 5.619-1.805l.006-.07v-.651zm0-2.5c-1.326.836-3.516 1.276-5.625 1.276-1.985 0-4.041-.39-5.382-1.133l-.243-.143v.651C1.25 13.889 3.441 15 6.875 15c3.33 0 5.491-1.045 5.619-1.805l.006-.07v-.651zM6.875 8.75c-3.434 0-5.625 1.111-5.625 1.875S3.441 12.5 6.875 12.5s5.625-1.111 5.625-1.875S10.309 8.75 6.875 8.75zm6.25-7.5C9.691 1.25 7.5 2.361 7.5 3.125S9.691 5 13.125 5s5.625-1.111 5.625-1.875-2.191-1.875-5.625-1.875z" transform="translate(-891 -518) translate(450 207) translate(60 295) translate(360) translate(21 16)"/>
                        </g>
                    </g>
                </g>
            </g>
        </g>
    </g>
</svg>
