<?xml version="1.0" encoding="UTF-8"?>
<svg width="30px" height="30px" viewBox="0 0 30 30" version="1.1" xmlns="http://www.w3.org/2000/svg" xmlns:xlink="http://www.w3.org/1999/xlink">
    <title>770F541C-1EAB-41B9-8529-F02B5B961A0B</title>
    <g id="Главная" stroke="none" stroke-width="1" fill="none" fill-rule="evenodd">
        <g id="Главная-1920" transform="translate(-1485.000000, -2634.000000)" fill="#FFFFFF" fill-rule="nonzero">
            <g id="Компании-партнеры" transform="translate(345.000000, 2300.000000)">
                <g id="2" transform="translate(630.000000, 54.000000)">
                    <g transform="translate(302.000000, 260.000000)" id="Combined-Shape-9">
                        <g transform="translate(208.000000, 20.000000)">
                            <path d="M23.3509375,0 C23.4734258,0 23.5903343,0.0512176421 23.673375,0.14125999 L23.673375,0.14125999 L28.4625,4.93863499 C28.5946075,5.06661359 28.6363874,5.26168347 28.5682847,5.43254288 C28.500182,5.6034023 28.3356708,5.71624682 28.15175,5.71825999 L28.15175,5.71825999 L25.895375,5.71825999 L25.895375,10.25576 C28.105,10.59126 29.85675,11.370885 29.85675,12.56576 L29.85675,12.56576 L29.854,14.96926 L29.854,26.966135 C29.854,28.60376 26.585625,29.463135 23.348875,29.463135 C20.112125,29.463135 16.842375,28.60376 16.842375,26.966135 L16.842375,26.966135 L16.842375,12.56576 C16.842375,11.36951 18.5955,10.59126 20.80375,10.26951 L20.80375,10.26951 L20.80375,5.71000999 L18.547375,5.71000999 C18.3680639,5.70646428 18.2071138,5.59916422 18.134875,5.43500999 C18.0606434,5.26490445 18.1007573,5.06653313 18.23525,4.93863499 L18.23525,4.93863499 L23.0285,0.14125999 C23.1115407,0.0512176421 23.2284492,0 23.3509375,0 Z M6.183375,4.57563499 C6.36014399,4.40088673 6.64460601,4.40088673 6.821375,4.57563499 L6.821375,4.57563499 L11.6215,9.38263499 C11.7521041,9.51082234 11.7883909,9.70710088 11.71225,9.87350999 C11.6434665,10.0405317 11.480379,10.1492567 11.29975,10.14851 L11.29975,10.14851 L9.05025,10.14851 L9.05025,15.07651 C11.253,15.41201 13.011625,16.191635 13.011625,17.38651 L13.011625,17.38651 L13.011625,26.960635 C13.011625,28.60376 9.74325,29.457635 6.5065,29.457635 C3.26975,29.457635 0,28.59826 0,26.960635 L0,26.960635 L0,17.38651 C0,16.191635 1.753125,15.41201 3.961375,15.069635 L3.961375,15.069635 L3.961375,10.141635 L1.70225,10.141635 C1.52139342,10.1431417 1.35791944,10.034159 1.28975,9.86663499 C1.21926111,9.70311487 1.25639182,9.51309304 1.38325,9.38813499 L1.38325,9.38813499 Z M28.9575,25.899135 C28.8088761,25.994553 28.6540768,26.0799911 28.494125,26.154885 L28.494125,26.154885 C27.8935769,26.431781 27.2663302,26.6300779 26.621375,26.74476 L26.621375,26.74476 L26.60075,26.75851 L25.90225,26.87951 L25.834875,26.89326 C25.59975,26.919385 25.35225,26.960635 25.0965,26.98676 L25.0965,26.98676 L24.92875,27.00051 L24.365,27.040385 L24.09,27.054135 L23.47125,27.067885 L23.216875,27.067885 L22.598125,27.054135 L22.323125,27.040385 L21.773125,27.00051 L21.5985,26.98676 C21.349625,26.960635 21.102125,26.919385 20.860125,26.89326 L20.860125,26.89326 L20.799625,26.87951 L20.09425,26.75851 L20.081875,26.74476 C19.4359248,26.6323386 18.8079309,26.4339518 18.214625,26.154885 L18.214625,26.154885 L18.0558985,26.0774852 C17.9514375,26.0232322 17.849756,25.9637092 17.75125,25.899135 L17.75125,25.899135 L17.75125,26.960635 C17.75125,27.617885 19.9265,28.558385 23.351625,28.558385 C26.7685,28.558385 28.950625,27.617885 28.9575,26.960635 L28.9575,26.960635 Z M12.1,25.899135 C11.9523196,25.9929507 11.7994504,26.0783371 11.642125,26.154885 L11.642125,26.154885 C11.0395491,26.4327339 10.4099037,26.6310584 9.7625,26.74476 L9.7625,26.74476 L9.74875,26.75851 L9.048875,26.87951 L8.988375,26.89326 C8.74775,26.919385 8.50575,26.960635 8.25,26.98676 L8.25,26.98676 L8.080875,26.98676 C7.8925,27.01426 7.712375,27.026635 7.517125,27.040385 L7.517125,27.040385 L7.249,27.054135 L6.63025,27.067885 L6.38275,27.067885 L5.765375,27.054135 L5.490375,27.040385 L4.940375,27.00051 L4.76575,26.98676 C4.516875,26.960635 4.269375,26.919385 4.027375,26.89326 L4.027375,26.89326 L3.966875,26.87951 L3.2615,26.75851 L3.249125,26.74476 C2.60123221,26.6312528 1.97110728,26.4329229 1.375,26.154885 L1.375,26.154885 L1.21270009,26.0766408 C1.10568773,26.0221152 1.00110181,25.9628915 0.89925,25.899135 L0.89925,25.899135 L0.89925,26.957885 C0.89925,27.615135 3.081375,28.555635 6.5065,28.555635 L6.5065,28.555635 C9.923375,28.558385 12.1,27.617885 12.1,26.960635 L12.1,26.960635 Z M28.950625,23.51626 C27.2120806,24.3698128 25.2864124,24.7713089 23.351625,24.683635 C21.4163198,24.7722574 19.4899739,24.3707186 17.75125,23.51626 L17.75125,23.51626 L17.75125,24.56951 L17.7593442,24.6326472 C17.7969043,24.7849553 17.9636875,24.969635 18.228375,25.13326 C19.3299639,25.7027606 20.5413254,26.028229 21.78,26.08751 L21.78,26.08751 L21.800625,26.08751 C22.00825,26.113635 22.229625,26.127385 22.444125,26.141135 L22.444125,26.141135 L22.61875,26.141135 C22.814,26.154885 23.00925,26.154885 23.203125,26.154885 L23.203125,26.154885 L23.6882963,26.1543757 C23.8195833,26.1533572 23.9506667,26.1503017 24.07625,26.141135 L24.07625,26.141135 L24.255,26.141135 C24.476375,26.127385 24.69775,26.113635 24.90675,26.08751 L24.90675,26.08751 L24.92875,26.094385 C26.1629709,26.0346022 27.3697445,25.7091064 28.466625,25.140135 C28.776,24.953135 28.950625,24.738635 28.950625,24.576385 L28.950625,24.576385 Z M12.1,23.51626 L11.655875,23.754135 L11.609125,23.78026 C11.028332,24.0343664 10.4228784,24.2278904 9.802375,24.35776 L9.802375,24.35776 L9.695125,24.37151 L9.117625,24.47876 L8.9375,24.50351 L8.28575,24.58876 L7.962625,24.61626 L7.5735,24.639635 L7.198125,24.653385 L6.807625,24.667135 L6.5065,24.67951 L6.197125,24.667135 L5.43125,24.639635 L5.042125,24.61351 L4.72725,24.58601 L4.06175,24.50626 L3.887125,24.47876 L3.3165,24.375635 L3.202375,24.361885 C2.58446698,24.2322878 1.98172138,24.0387456 1.403875,23.784385 L1.403875,23.784385 L1.35025,23.75826 L0.89925,23.51626 L0.89925,24.56951 L0.909613525,24.6326472 C0.951779297,24.7849553 1.1185625,24.969635 1.38325,25.13326 C2.48019353,25.7020694 3.68693105,26.0275555 4.921125,26.08751 L4.921125,26.08751 L4.95,26.08751 C5.163125,26.113635 5.377625,26.12876 5.599,26.141135 L5.599,26.141135 L5.773625,26.141135 C5.968875,26.154885 6.164125,26.154885 6.358,26.154885 L6.358,26.154885 L6.64675,26.154885 C6.842,26.154885 7.035875,26.154885 7.231125,26.141135 L7.231125,26.141135 L7.40575,26.141135 C7.627125,26.12876 7.8375,26.113635 8.063,26.094385 L8.063,26.094385 L8.078125,26.094385 C9.31234594,26.0346022 10.5191195,25.7091064 11.616,25.140135 C11.9185,24.953135 12.1,24.738635 12.1,24.576385 L12.1,24.576385 L12.1,23.51626 Z M12.1,21.105885 C11.9525954,21.1997503 11.7996961,21.2846943 11.642125,21.36026 L11.642125,21.36026 L11.63525,21.37401 C11.0349097,21.6400706 10.4067809,21.8383785 9.7625,21.96526 L9.7625,21.96526 L9.74875,21.96526 C9.5205,22.018885 9.285375,22.04501 9.043375,22.08626 L9.043375,22.08626 L8.988375,22.098635 C8.74775,22.126135 8.50575,22.16601 8.25,22.17976 L8.25,22.17976 L8.07675,22.21276 L7.513,22.252635 L7.244875,22.266385 L6.626125,22.27876 L6.378625,22.27876 L5.759875,22.260885 L5.484875,22.247135 L4.934875,22.20726 L4.76025,22.17976 C4.511375,22.16601 4.263875,22.126135 4.021875,22.098635 L4.021875,22.098635 L3.961375,22.08626 C3.719375,22.04501 3.48425,22.018885 3.256,21.96526 L3.256,21.96526 C2.60435238,21.8385662 1.9757474,21.6402535 1.375,21.37401 L1.375,21.37401 L1.375,21.36026 C1.21071692,21.2865886 1.05175083,21.2015923 0.89925,21.105885 L0.89925,21.105885 L0.89925,22.17976 C0.913,22.340635 1.08075,22.54276 1.38325,22.74351 C2.46774188,23.3057036 3.66105239,23.6265465 4.88125,23.68401 L4.88125,23.68401 L5.028375,23.69776 L5.526125,23.737635 L5.82175,23.751385 L6.1435,23.76376 L6.86125,23.76376 L7.184375,23.751385 L7.48,23.737635 L7.975,23.69776 L8.124875,23.690885 C9.34526195,23.6346363 10.5388285,23.3137246 11.622875,22.750385 C11.925375,22.549635 12.1,22.34751 12.1,22.186635 L12.1,22.186635 Z M28.950625,21.092135 C28.8020011,21.187553 28.6472018,21.2729911 28.48725,21.347885 L28.48725,21.347885 C27.8819926,21.6125046 27.2562519,21.8103253 26.6145,21.93776 L26.6145,21.93776 L26.593875,21.95151 L25.895375,22.07251 L25.828,22.07251 C25.592875,22.112385 25.345375,22.153635 25.089625,22.17976 L25.089625,22.17976 L24.921875,22.17976 C24.7351753,22.2067178 24.5467604,22.2200447 24.358125,22.219635 L24.358125,22.219635 L24.083125,22.233385 C23.876875,22.247135 23.673375,22.247135 23.464375,22.247135 L23.464375,22.247135 L23.34475,22.260885 L23.22375,22.247135 C23.0175,22.247135 22.807125,22.247135 22.605,22.233385 L22.605,22.233385 L22.33,22.219635 C22.1459352,22.2198956 21.9621023,22.2065677 21.78,22.17976 L21.78,22.17976 L21.5985,22.17976 C21.349625,22.153635 21.102125,22.112385 20.860125,22.07251 L20.860125,22.07251 L20.799625,22.07251 L20.09425,21.95151 L20.081875,21.93776 C19.4391049,21.8125738 18.8126611,21.6146767 18.214625,21.347885 L18.214625,21.347885 L18.0558985,21.2704852 C17.9514375,21.2162322 17.849756,21.1567092 17.75125,21.092135 L17.75125,21.092135 L17.75125,22.153635 L17.77875,22.260885 L17.77875,22.28701 L17.832375,22.376385 L17.8585,22.41626 L17.925875,22.500135 L17.99325,22.55376 L18.11425,22.66376 L18.161,22.69126 L18.335625,22.79851 L18.409875,22.83976 C19.9667933,23.5141897 21.656505,23.8263679 23.351625,23.75276 C25.0440232,23.8256397 26.7308909,23.5134657 28.285125,22.83976 L28.285125,22.83976 L28.36625,22.79851 L28.540875,22.69126 L28.58075,22.662385 L28.70175,22.55376 L28.769125,22.49601 L28.8365,22.41626 L28.875,22.381885 L28.92725,22.28701 L28.934125,22.260885 L28.95475,22.153635 Z M0.89925,18.716135 L0.89925,19.77626 L0.909613525,19.8396228 C0.951779297,19.990803 1.1185625,20.1643537 1.38325,20.34001 C2.47779718,20.914957 3.68591601,21.2408157 4.921125,21.29426 L4.921125,21.29426 L4.95,21.29426 C5.163125,21.31626 5.377625,21.334135 5.599,21.347885 L5.599,21.347885 L5.775,21.347885 L6.358,21.37401 L6.64675,21.37401 L7.231125,21.347885 L7.40575,21.347885 C7.627125,21.334135 7.8375,21.31626 8.063,21.29426 L8.063,21.29426 L8.078125,21.29426 C9.31338982,21.2411771 10.5215863,20.9152974 11.616,20.34001 C11.9185,20.13926 12.1,19.937135 12.1,19.77626 L12.1,19.77626 L12.1,18.72301 L12.05875,18.72576 C11.9217428,18.8134972 11.7803965,18.8942665 11.63525,18.96776 L11.63525,18.96776 L11.51425,19.007635 L11.11825,19.18226 L11.08525,19.19601 L11.0715,19.19601 L11.050875,19.20976 C10.866625,19.277135 10.66175,19.33076 10.454125,19.398135 L10.454125,19.398135 L10.38675,19.41051 C10.20525,19.466885 10.016875,19.508135 9.823,19.54801 L9.823,19.54801 L9.755625,19.56176 L9.728125,19.57551 C9.50675,19.615385 9.312875,19.65526 9.103875,19.68276 L9.103875,19.68276 L8.996625,19.695135 C8.7615,19.736385 8.5195,19.76251 8.272,19.79001 L8.272,19.79001 L8.22525,19.79001 L8.151,19.80376 L8.1125,19.80376 C7.91150818,19.831054 7.70895863,19.8452922 7.506125,19.846385 L7.506125,19.846385 L7.473125,19.846385 L7.291625,19.860135 L7.0342963,19.8688433 C6.86155556,19.87251 6.68616667,19.87251 6.5065,19.87251 C6.237,19.87251 5.97575,19.87251 5.713125,19.860135 L5.713125,19.860135 L5.526125,19.846385 C5.31279763,19.8476656 5.09963278,19.8343428 4.888125,19.80651 L4.888125,19.80651 L4.860625,19.80651 L4.780875,19.79276 L4.734125,19.79276 C4.48525,19.76526 4.24325,19.739135 4.008125,19.697885 L4.008125,19.697885 L3.933875,19.697885 L3.309625,19.57826 L3.256,19.56451 L3.238125,19.56451 L3.17075,19.55076 C2.9755,19.508135 2.794,19.466885 2.6125,19.41326 L2.6125,19.41326 L2.54925,19.400885 C2.34025,19.33351 2.1395,19.279885 1.951125,19.21251 L1.951125,19.21251 L1.925,19.19876 L1.90025,19.18501 C1.72269619,19.1268058 1.54985801,19.0550964 1.38325,18.97051 L1.38325,18.97051 L1.375,18.97051 L1.285625,18.930635 C1.17467175,18.8735825 1.06681284,18.810703 0.9625,18.74226 L0.9625,18.74226 L0.89925,18.716135 Z M28.950625,18.683135 C28.8082629,18.7771203 28.6604165,18.8625222 28.507875,18.938885 L28.507875,18.938885 L28.45425,18.96501 C27.8751574,19.2203817 27.2690622,19.4094981 26.6475,19.52876 L26.6475,19.52876 L26.5375,19.56176 C26.349125,19.601635 26.16075,19.629135 25.966875,19.65526 L25.966875,19.65526 L25.79225,19.695135 C25.570875,19.722635 25.3495,19.74876 25.128125,19.76251 L25.128125,19.76251 L24.805,19.79001 C24.677125,19.816135 24.553375,19.816135 24.415875,19.829885 L24.415875,19.829885 L24.033625,19.843635 L23.65,19.857385 L23.049125,19.857385 L22.66,19.843635 L22.276375,19.829885 C22.149875,19.816135 22.02475,19.816135 21.88725,19.79001 L21.88725,19.79001 L21.572375,19.76251 C21.3491123,19.7496426 21.1268565,19.7230087 20.906875,19.68276 L20.906875,19.68276 L20.73225,19.65526 C20.538375,19.629135 20.35,19.601635 20.161625,19.56176 L20.161625,19.56176 L20.054375,19.53426 C19.4329617,19.4161744 18.8271902,19.227015 18.249,18.97051 L18.249,18.97051 L18.195375,18.944385 C18.0414188,18.8698448 17.8929976,18.7843762 17.75125,18.688635 L17.75125,18.688635 L17.75125,19.758385 L17.7593442,19.8205635 C17.7969043,19.9697698 17.9636875,20.1464787 18.228375,20.322135 C19.3323955,20.8853375 20.5423776,21.2104353 21.78,21.276385 L21.78,21.276385 L21.800625,21.276385 L22.444125,21.31626 L22.61875,21.33001 C22.814,21.34376 23.00925,21.34376 23.203125,21.34376 L23.203125,21.34376 L23.6882963,21.3432507 C23.8195833,21.3422322 23.9506667,21.3391767 24.07625,21.33001 L24.07625,21.33001 L24.250875,21.31626 L24.902625,21.28051 L24.932875,21.28051 C26.1660607,21.2141982 27.3714811,20.8890673 28.47075,20.32626 C28.780125,20.12551 28.95475,19.923385 28.95475,19.76251 L28.95475,19.76251 L28.95475,18.688635 Z M9.05025,15.97576 L9.05025,17.00976 C9.05025,17.261878 8.84586799,17.46626 8.59375,17.46626 L8.59375,17.46626 L4.411,17.46626 C4.29018275,17.4659119 4.1745568,17.417103 4.0900352,17.3307721 C4.00551361,17.2444412 3.95916442,17.1278075 3.961375,17.00701 L3.961375,17.00701 L3.961375,15.98951 C2.041875,16.298885 0.89925,16.91626 0.89925,17.38651 L0.89925,17.38651 L0.92675,17.49376 L0.9405,17.519885 L1.02025,17.640885 L1.04775,17.668385 L1.155,17.775635 L1.1935,17.79901 L1.375,17.93651 L1.398375,17.96401 C1.51419932,18.0350712 1.63506302,18.0975711 1.76,18.15101 C1.84643202,18.1989524 1.93893127,18.2350271 2.035,18.25826 L2.035,18.25826 L2.256375,18.366885 L2.578125,18.460385 L2.81325,18.52776 L3.108875,18.60751 L3.477375,18.69001 L3.54475,18.70376 C3.75375,18.74226 3.96825,18.782135 4.195125,18.809635 L4.195125,18.809635 L4.2625,18.823385 L4.907375,18.903135 L5.028375,18.903135 C5.225,18.930635 5.412,18.930635 5.605875,18.95676 L5.605875,18.95676 L5.757125,18.95676 C6.2558712,18.9842605 6.7557538,18.9842605 7.2545,18.95676 L7.2545,18.95676 L7.392,18.95676 C7.596875,18.930635 7.808625,18.916885 8.009375,18.903135 L8.009375,18.903135 L8.108375,18.903135 L8.765625,18.823385 L8.826125,18.809635 L9.403625,18.716135 L9.5315,18.688635 L9.9,18.60751 L10.18875,18.52776 L10.423875,18.460385 L10.747,18.366885 L11.1595,18.19226 L11.226875,18.16476 L11.576125,17.96401 L11.636625,17.93651 L11.7975,17.81551 L11.858,17.761885 L11.946,17.682135 L11.985875,17.640885 L12.060125,17.519885 L12.0725,17.49376 L12.1,17.38651 C12.1,16.91626 10.96425,16.298885 9.05025,15.97576 L9.05025,15.97576 Z M28.9575,16.298885 C28.8076087,16.3957852 28.650381,16.4808353 28.48725,16.55326 L28.48725,16.55326 L28.48725,16.56701 C27.8885371,16.8278525 27.2627587,17.0215348 26.621375,17.14451 L26.621375,17.14451 L26.60075,17.15826 L25.90225,17.27926 L25.834875,17.291635 C25.59975,17.319135 25.35225,17.35901 25.0965,17.37276 L25.0965,17.37276 L24.92875,17.38651 C24.740375,17.412635 24.553375,17.426385 24.365,17.440135 L24.365,17.440135 L24.09,17.453885 C23.88375,17.453885 23.68025,17.453885 23.47125,17.46626 L23.47125,17.46626 L23.2155,17.46626 C23.00925,17.453885 22.798875,17.453885 22.59675,17.453885 L22.59675,17.453885 L22.32175,17.440135 C22.141625,17.426385 21.95325,17.412635 21.77175,17.38651 L21.77175,17.38651 L21.597125,17.37276 C21.34825,17.35901 21.10075,17.319135 20.85875,17.291635 L20.85875,17.291635 L20.79825,17.27926 L20.092875,17.15826 L20.0805,17.14451 C19.4358999,17.0259157 18.8086307,16.8272959 18.21325,16.55326 L18.21325,16.55326 L18.0543598,16.4766697 C17.9498382,16.4228361 17.8481992,16.3634954 17.749875,16.298885 L17.749875,16.298885 L17.749875,17.37276 C17.75675,17.533635 17.9245,17.73576 18.227,17.93651 C19.3142151,18.4916598 20.5059787,18.8120868 21.725,18.87701 L21.725,18.87701 L21.8735,18.889385 L22.37125,18.930635 L22.666875,18.944385 L22.988625,18.95676 L23.7105,18.95676 L24.0405,18.944385 L24.32925,18.930635 L24.8325,18.889385 L24.979625,18.87701 C26.1966436,18.8132588 27.386404,18.4927404 28.47075,17.93651 C28.77325,17.73576 28.947875,17.533635 28.95475,17.37276 L28.95475,17.37276 L28.95475,17.35901 Z M6.505125,5.53675999 L2.792625,9.24925999 L4.411,9.24925999 C4.65727145,9.247734 4.85835641,9.44574426 4.860625,9.69200999 L4.860625,9.69200999 L4.860625,16.56701 L8.144125,16.56701 L8.144125,9.69200999 C8.14639359,9.44574426 8.34747855,9.247734 8.59375,9.24925999 L8.59375,9.24925999 L10.217625,9.24925999 L6.505125,5.53675999 Z M28.925875,13.906385 L28.89975,13.920135 C28.7691777,14.0081158 28.6311503,14.084491 28.48725,14.148385 L28.48725,14.148385 L28.359375,14.21576 L27.97025,14.376635 L27.93725,14.390385 L27.902875,14.390385 C27.709071,14.4683523 27.5095684,14.531329 27.306125,14.57876 L27.306125,14.57876 L27.225,14.604885 C27.0435,14.66126 26.868875,14.70251 26.675,14.742385 L26.675,14.742385 L26.607625,14.756135 L26.587,14.756135 C26.351875,14.80976 26.158,14.849635 25.955875,14.877135 L25.955875,14.877135 L25.84175,14.88951 C25.606625,14.93076 25.364625,14.956885 25.117125,14.984385 L25.117125,14.984385 L25.075875,14.984385 L24.996125,14.99676 L24.96175,14.99676 C24.76375,15.01051 24.558875,15.03801 24.35125,15.03801 L24.35125,15.03801 L24.321,15.03801 L24.146375,15.05176 L23.7529531,15.0625881 L23.7529531,15.0625881 L23.354375,15.064135 C23.084875,15.064135 22.823625,15.064135 22.561,15.05176 L22.561,15.05176 L22.39325,15.03801 C22.14575,15.03801 21.93675,15.01051 21.742875,14.99676 L21.742875,14.99676 L21.7085,14.99676 L21.62875,14.984385 L21.582,14.984385 C21.34,14.956885 21.098,14.93076 20.862875,14.88951 L20.862875,14.88951 L20.78175,14.877135 C20.5719675,14.85148 20.3636178,14.8152253 20.1575,14.76851 L20.1575,14.76851 L20.103875,14.756135 L20.0915,14.756135 L20.024125,14.742385 C19.83025,14.69976 19.655625,14.65851 19.474125,14.604885 L19.474125,14.604885 L19.3875,14.57876 C19.1881637,14.5316391 18.9927854,14.469118 18.803125,14.39176 L18.803125,14.39176 L18.770125,14.39176 L18.756375,14.37801 C18.55425,14.310635 18.3865,14.230885 18.2325,14.16351 L18.2325,14.16351 L18.225625,14.16351 L18.132125,14.109885 L17.81175,13.93526 L17.75125,13.90776 L17.75125,14.967885 L17.7593442,15.0300635 C17.7969043,15.1792698 17.9636875,15.3559787 18.228375,15.531635 C19.3298527,16.1012247 20.5413346,16.4262564 21.78,16.48451 L21.78,16.48451 L21.800625,16.48451 C22.00825,16.51201 22.229625,16.52576 22.444125,16.538135 L22.444125,16.538135 L22.6215,16.538135 C22.81675,16.551885 23.012,16.551885 23.205875,16.551885 L23.205875,16.551885 L23.354375,16.565635 L23.491875,16.551885 C23.687125,16.551885 23.887875,16.551885 24.07625,16.538135 L24.07625,16.538135 L24.250875,16.538135 C24.47225,16.52576 24.693625,16.51201 24.902625,16.48451 L24.902625,16.48451 L24.91775,16.48451 C26.1519623,16.4257567 27.3588569,16.1006972 28.455625,15.531635 C28.765,15.330885 28.939625,15.12876 28.939625,14.967885 L28.939625,14.967885 L28.925875,13.906385 Z M25.895375,11.16876 L25.895375,12.56576 C25.896843,12.6860847 25.8501648,12.8020065 25.7657241,12.8877384 C25.6812833,12.9734703 25.5660832,13.0219021 25.44575,13.02226 L25.44575,13.02226 L21.256125,13.02226 C21.1357918,13.0219021 21.0205917,12.9734703 20.9361509,12.8877384 C20.8517102,12.8020065 20.805032,12.6860847 20.8065,12.56576 L20.8065,12.56576 L20.8065,11.18251 C18.8925,11.491885 17.75125,12.10376 17.75125,12.56576 L17.75125,12.56576 L17.77875,12.68676 L17.7925,12.712885 L17.865375,12.833885 L17.89975,12.861385 L18.0125,12.968635 L18.033125,12.99201 L18.214625,13.12951 L18.255875,13.14326 L18.610625,13.34126 L18.8925,13.46501 L19.1015,13.546135 L19.437,13.653385 L19.6625,13.72076 L19.963625,13.80051 L20.31975,13.881635 L20.3995,13.895385 C20.6085,13.93526 20.816125,13.975135 21.0375,14.002635 L21.0375,14.002635 L21.109,14.016385 C21.316625,14.04251 21.531125,14.07001 21.7525,14.082385 L21.7525,14.082385 L21.819875,14.096135 L21.877625,14.096135 L22.455125,14.13601 L22.603625,14.14976 C23.093125,14.16351 23.610125,14.16351 24.1065,14.14976 L24.1065,14.14976 L24.244,14.13601 L24.861375,14.096135 L24.888875,14.096135 L24.95625,14.082385 C25.177625,14.07001 25.399,14.04251 25.6135,14.016385 L25.6135,14.016385 L25.667125,14.002635 L26.2515,13.90776 L26.3725,13.881635 L26.7355,13.80051 L27.0435,13.72076 L27.267625,13.650635 L27.597625,13.543385 C27.737985,13.4974039 27.8756952,13.4436969 28.010125,13.38251 L28.010125,13.38251 L28.0775,13.34126 C28.1970474,13.2905011 28.311658,13.2288232 28.419875,13.15701 L28.419875,13.15701 L28.52025,13.10201 L28.648125,13.00851 L28.708625,12.954885 L28.796625,12.87376 L28.8365,12.833885 L28.91075,12.712885 L28.923125,12.68676 L28.950625,12.56576 C28.950625,12.10926 27.809375,11.491885 25.895375,11.16876 L25.895375,11.16876 Z M23.351625,1.10375999 L19.644625,4.80388499 L21.256125,4.80388499 C21.3775339,4.80277278 21.4942938,4.85051094 21.5801464,4.93636358 C21.6659991,5.02221622 21.7137372,5.13897612 21.712625,5.26038499 L21.712625,5.26038499 L21.712625,12.12301 L24.98925,12.12301 L24.98925,5.27275999 C24.9881378,5.15135112 25.0358759,5.03459122 25.1217286,4.94873858 C25.2075812,4.86288594 25.3243411,4.81514778 25.44575,4.81625999 L25.44575,4.81625999 L27.064125,4.81625999 L23.351625,1.10375999 Z" id="Combined-Shape"></path>
                        </g>
                    </g>
                </g>
            </g>
        </g>
    </g>
</svg>