<svg xmlns="http://www.w3.org/2000/svg" width="54" height="50" viewBox="0 0 54 50">
    <g fill="none" fill-rule="evenodd">
        <g fill="#4ACDED">
            <g>
                <g>
                    <g>
                        <path d="M31.43.062c10.675-.843 20.057 7.023 21.088 17.682-.005 2.445-.598 4.853-1.73 7.02l2.814 10.109c.09.268.024.564-.17.77-.152.167-.367.264-.593.267h-.168l-11.627-2.438c-1.316.538-2.672.974-4.054 1.304-1.54 8.576-9.291 14.616-17.983 14.014-2.808 0-5.587-.557-8.177-1.64L.986 49.2l-.18.02c-.222.001-.436-.088-.59-.247-.202-.209-.268-.512-.173-.786l2.376-8.562c-.956-1.841-1.457-3.885-1.46-5.96.258-5.983 4.043-11.242 9.634-13.387-.156-.836-.238-1.684-.247-2.534C11.377 7.087 20.756-.78 31.429.062zm3.981 33.603c-.887-8.219-8.181-14.22-16.417-13.508-8.234-.717-15.529 5.283-16.415 13.5.001 1.92.491 3.807 1.423 5.484.094.187.112.403.05.603l-2.11 7.6 8.792-1.835c.165-.046.341-.028.494.05 2.448 1.074 5.093 1.625 7.766 1.615 8.234.704 15.523-5.295 16.417-13.51zm-12.605 5.451c.3-.016.584.134.739.391.154.258.154.58 0 .836-.155.257-.44.408-.74.391H10.757c-.43-.023-.766-.378-.766-.809 0-.43.337-.785.766-.809zm4.066-5.691c.446 0 .808.362.808.808 0 .446-.362.808-.808.808H10.756c-.446 0-.808-.362-.808-.808 0-.446.362-.808.808-.808zm24.025-15.681C49.85 7.992 41.201.866 31.43 1.702c-9.77-.839-18.417 6.29-19.455 16.042.004.646.057 1.29.158 1.93 2.205-.773 4.526-1.164 6.862-1.157 8.91-.66 16.8 5.718 18.02 14.57 1.231-.312 2.437-.715 3.607-1.206l.326-.074.168.025 10.568 2.206-2.547-9.14c-.058-.21-.036-.434.062-.628 1.11-1.996 1.696-4.242 1.7-6.526zm-24.025 9.985c.446 0 .808.361.808.807 0 .446-.362.808-.808.808H10.756c-.446 0-.808-.362-.808-.808 0-.446.362-.807.808-.807zm16.234-3.738c.43.024.766.379.766.81 0 .43-.336.784-.766.808h-5.501c-.3.017-.584-.134-.739-.39-.155-.258-.155-.58 0-.837s.44-.407.739-.39zm0-6.005c.446 0 .808.362.808.808 0 .446-.362.808-.808.808H31.914c-.447 0-.808-.362-.808-.808 0-.446.361-.808.808-.808zm0-6.032c.453 0 .82.367.82.82 0 .453-.367.82-.82.82h-22.58c-.453 0-.82-.367-.82-.82 0-.453.367-.82.82-.82z" transform="translate(-1320 -686) translate(345 202) translate(945 448) translate(30 36)"/>
                    </g>
                </g>
            </g>
        </g>
    </g>
</svg>
