<svg xmlns="http://www.w3.org/2000/svg" width="50" height="61" viewBox="0 0 50 61">
    <g fill="none" fill-rule="evenodd">
        <g fill="#9533A3" fill-rule="nonzero">
            <g>
                <g>
                    <g>
                        <path d="M37.145 0l.239.055.338.222 11.263 11.255.175.244.027.083.053.302v47.125c.003.242-.091.476-.261.649-.137.138-.313.228-.502.26l-.144.011H.907c-.243 0-.475-.098-.645-.271-.137-.138-.224-.316-.252-.505L0 59.286V.92C-.003.678.091.444.262.271c.136-.138.312-.228.5-.26L.908 0h36.238zm-.964 1.84H1.827v56.525h45.6v-45.29h-10.34c-.242 0-.475-.098-.645-.27-.136-.139-.223-.316-.251-.506l-.01-.144V1.841zm-8.826 45.914c.242-.01.477.081.65.25.174.168.272.4.27.643.003.245-.093.48-.266.654-.145.144-.332.235-.533.26l-.121.006H8.203c-.243 0-.475-.098-.645-.271-.17-.173-.265-.407-.262-.65-.001-.24.094-.47.265-.637.136-.135.312-.22.5-.247l.142-.008h19.152zm-12.777-7.31c.5 0 .907.406.907.907 0 .462-.346.843-.793.899l-.114.007H8.203c-.501 0-.907-.406-.907-.906 0-.463.346-.844.793-.9l.114-.007h6.375zm26.448 0c.501 0 .907.406.907.907 0 .462-.346.843-.793.899l-.114.007H20.06c-.501 0-.907-.406-.907-.906 0-.463.346-.844.793-.9l.114-.007h20.967zm-3.653-7.31c.508 0 .92.412.92.92-.008.463-.35.843-.796.91l-.124.01H24.62c-.502-.01-.904-.417-.909-.92-.002-.242.093-.476.263-.649.137-.138.313-.228.502-.259l.144-.012h12.752zm-18.22 0c.242 0 .474.099.644.271.17.173.265.407.262.65-.003.46-.341.84-.784.91l-.123.01H8.202c-.501-.01-.903-.419-.906-.92-.003-.243.091-.477.262-.65.136-.138.312-.228.5-.259l.145-.012h10.95zm21.873-7.307c.507.005.916.414.92.92.003.245-.093.48-.266.654-.145.144-.332.235-.532.26l-.122.007h-9.111c-.243-.002-.475-.1-.645-.272-.17-.173-.264-.406-.262-.649.004-.459.342-.84.784-.909l.123-.01h9.111zm-14.578 0c.501.012.902.42.907.92.002.243-.092.476-.263.649-.136.138-.311.228-.5.26l-.144.012H8.203c-.243-.001-.475-.099-.645-.271-.17-.173-.265-.407-.262-.65.003-.46.34-.84.783-.91l.124-.01h18.245zm14.578-7.282c.245-.003.481.093.654.266.174.173.27.41.267.654-.004.468-.354.853-.806.913l-.115.008H24.621c-.502-.01-.904-.419-.909-.92-.003-.244.092-.478.263-.65.136-.14.313-.23.502-.26l.144-.011h16.405zm-21.874 0c.243 0 .475.098.645.271.17.173.265.407.262.65-.003.46-.341.84-.784.909l-.123.01H8.202c-.501-.01-.903-.418-.906-.92-.003-.242.091-.476.262-.649.136-.138.312-.228.5-.26l.145-.011h10.95zm10.03-7.282c.5 0 .906.406.906.906 0 .462-.346.844-.793.9l-.114.007H8.203c-.501 0-.907-.406-.907-.907 0-.462.346-.843.793-.9l.114-.006H29.18zm8.812-8.15v8.15h8.133l-8.133-8.15z" transform="translate(-345 -1606) translate(345 202) translate(0 1389) translate(0 15)"/>
                    </g>
                </g>
            </g>
        </g>
    </g>
</svg>
