<svg xmlns="http://www.w3.org/2000/svg" width="24" height="18" viewBox="0 0 24 18">
    <g fill="none" fill-rule="evenodd">
        <g fill="#CC45FA" fill-rule="nonzero">
            <g>
                <g>
                    <g>
                        <path d="M22 0H2C.897 0 0 .897 0 2v14c0 1.103.897 2 2 2h20c1.103 0 2-.897 2-2V2c0-1.103-.897-2-2-2zM2 1h20c.074 0 .139.027.208.042-1.732 1.585-7.473 6.837-9.482 8.647-.158.142-.411.311-.726.311s-.568-.169-.726-.311c-2.01-1.81-7.75-7.063-9.482-8.647C1.862 1.027 1.926 1 2 1zM1 16V2c0-.098.03-.187.056-.276C2.381 2.937 6.387 6.6 8.985 8.964c-2.59 2.224-6.596 6.023-7.932 7.297C1.029 16.176 1 16.092 1 16zm21 1H2c-.08 0-.15-.028-.225-.046 1.38-1.316 5.413-5.136 7.956-7.313l.873.79c.413.373.895.569 1.396.569.501 0 .983-.196 1.395-.568l.874-.79c2.544 2.175 6.576 5.996 7.956 7.312-.074.018-.145.046-.225.046zm1-1c0 .092-.03.176-.053.26-1.336-1.274-5.343-5.073-7.932-7.296 2.598-2.363 6.603-6.027 7.929-7.24.026.09.056.178.056.276v14z" transform="translate(-1395 -6223) translate(0 6013) translate(1395 102) translate(0 108)"/>
                    </g>
                </g>
            </g>
        </g>
    </g>
</svg>
