<svg xmlns="http://www.w3.org/2000/svg" width="22" height="17" viewBox="0 0 22 17">
    <g fill="none" fill-rule="evenodd">
        <g fill="#B7B7B7" fill-rule="nonzero">
            <g>
                <g>
                    <g>
                        <path d="M20.167 0H1.833C.823 0 0 .822 0 1.833v12.834c0 1.01.822 1.833 1.833 1.833h18.334c1.01 0 1.833-.822 1.833-1.833V1.833C22 .823 21.178 0 20.167 0zM1.833.917h18.334c.067 0 .127.024.19.038-1.587 1.453-6.85 6.268-8.692 7.927-.144.13-.376.285-.665.285-.289 0-.521-.155-.666-.285C8.493 7.222 3.23 2.407 1.643.955c.063-.014.123-.038.19-.038zm-.916 13.75V1.833c0-.09.027-.17.051-.253 1.215 1.112 4.887 4.471 7.268 6.637-2.373 2.038-6.046 5.52-7.27 6.689-.023-.078-.05-.155-.05-.24zm19.25.916H1.833c-.073 0-.138-.025-.206-.042 1.265-1.206 4.962-4.708 7.293-6.703l.8.724c.379.341.82.521 1.28.521.46 0 .901-.18 1.279-.52l.8-.725c2.333 1.995 6.029 5.497 7.294 6.703-.068.017-.133.042-.206.042zm.916-.916c0 .084-.026.16-.048.239-1.225-1.169-4.898-4.65-7.271-6.69 2.381-2.165 6.053-5.524 7.268-6.636.024.082.051.163.051.253v12.834z" transform="translate(-805 -693) translate(735 160) translate(50 488) translate(20 45)"/>
                    </g>
                </g>
            </g>
        </g>
    </g>
</svg>
