<svg xmlns="http://www.w3.org/2000/svg" width="40" height="40" viewBox="0 0 40 40">
    <g fill="none" fill-rule="evenodd">
        <g>
            <g>
                <g>
                    <g transform="translate(-1095 -254) translate(735 160) translate(50 94) translate(310)">
                        <rect width="40" height="40" fill="#4267B2" rx="4"/>
                        <g fill="#FFF" fill-rule="nonzero">
                            <path d="M8.543 0l.084.003h2.953c.46 0 .835.375.835.835v3.456c0 .46-.375.835-.835.835H9.43c-.563 0-.67.212-.67.602v1.89h2.82c.238 0 .465.101.623.28.159.177.234.414.207.65l-.434 3.765c-.049.422-.405.74-.83.74H8.76v9.707c0 .46-.375.835-.836.835H3.714c-.46 0-.836-.374-.836-.835v-9.755H.865c-.46 0-.836-.375-.836-.836V8.456c0-.46.375-.835.836-.835h2.137V5.37c-.07-.456-.231-2.302 1.447-3.846C5.986.11 7.923 0 8.48 0zm-.006.94h-.125c-.544.01-2.096.144-3.327 1.276-1.376 1.267-1.2 2.75-1.15 3.035.005.026.007.053.007.08v2.76c0 .26-.21.47-.47.47H.97v3.507h2.38c.26 0 .47.21.47.47v10.12H7.82V12.586c0-.26.21-.47.47-.47h2.762l.41-3.555H8.29c-.26 0-.47-.21-.47-.47V5.73c0-.966.601-1.542 1.608-1.542h2.046V.943H8.593C8.586.941 8.546.94 8.48.94zM4.765 17.582c.26 0 .47.21.47.47v3.573c0 .26-.21.47-.47.47s-.47-.21-.47-.47v-3.573c0-.26.21-.47.47-.47zm0-1.74c.26 0 .47.211.47.471v.235c0 .26-.21.47-.47.47s-.47-.21-.47-.47v-.235c0-.26.21-.47.47-.47z" transform="translate(13 8)"/>
                        </g>
                    </g>
                </g>
            </g>
        </g>
    </g>
</svg>
