<svg xmlns="http://www.w3.org/2000/svg" width="40" height="40" viewBox="0 0 40 40">
    <g fill="none" fill-rule="evenodd">
        <g>
            <g>
                <g>
                    <g transform="translate(-1045 -254) translate(735 160) translate(50 94) translate(260)">
                        <rect width="40" height="40" fill="#EA4235" rx="4"/>
                        <g fill="#FFF" fill-rule="nonzero">
                            <path d="M12 0c2.544 0 4.959.78 7.008 2.259l.33.248c.318.216.526.544.573.906.042.33-.052.665-.261.941l-.096.115-1.741 1.857c-.284.304-.678.471-1.109.471-.272 0-.541-.066-.789-.191l-.154-.088-.034-.023c-1.109-.753-2.395-1.15-3.727-1.15-2.675 0-5.04 1.564-6.098 4.005L5.8 9.6l-.106.292c-.231.687-.348 1.395-.348 2.109 0 .69.11 1.377.327 2.045l.118.333c.98 2.558 3.476 4.277 6.21 4.277 1.217 0 2.4-.333 3.44-.964l.258-.164.256-.18c.922-.683 1.651-1.586 2.12-2.628l.007-.04c-.007-.014-.057-.052-.154-.067l-.082-.005h-4.403c-.763 0-1.392-.584-1.463-1.329l-.007-.14v-2.11c0-.762.584-1.391 1.328-1.463l.142-.006h8.917c.743 0 1.407.543 1.57 1.26l.025.146.017.18.021.402.006.288L24 12c0 3.39-1.43 6.608-3.937 8.884l-.263.232C17.626 22.976 14.857 24 12 24c-4.33 0-8.298-2.318-10.433-6.07l-.157-.285-.179-.349C.425 15.657 0 13.835 0 12c0-1.825.42-3.64 1.22-5.273l.177-.347C3.488 2.444 7.551 0 12 0zM5.143 15.342l-2.674 2.191c1.973 3.395 5.589 5.487 9.53 5.487 2.305 0 4.548-.725 6.41-2.058l.291-.216-2.76-2.211c-1.191.72-2.546 1.1-3.94 1.1-1.575 0-3.086-.477-4.37-1.38-.982-.688-1.778-1.584-2.34-2.625l-.147-.288zm17.217-4.804h-8.917c-.24 0-.44.174-.482.402l-.008.088v2.11c0 .24.173.44.402.481l.088.008h4.403c.439 0 .828.185 1.042.496.166.24.214.538.138.83l-.045.138-.005.012c-.451 1.01-1.116 1.907-1.947 2.633l-.254.213 2.689 2.154c2.265-2.087 3.556-5.017 3.556-8.103l-.003-.304-.013-.34-.021-.273c-.034-.257-.268-.488-.526-.536l-.097-.009zM2 7.371C1.33 8.815.98 10.403.98 12.001c0 1.47.297 2.932.865 4.28l.162.365 2.75-2.254c-.26-.78-.39-1.582-.39-2.392 0-.702.097-1.398.291-2.077l.106-.338L2 7.37zm13.208 4.004c.27 0 .49.219.49.49 0 .24-.173.44-.402.481l-.088.008h-.22c-.27 0-.489-.219-.489-.49 0-.24.173-.44.402-.481l.088-.008h.219zm5.852 0c.27 0 .49.219.49.49 0 .24-.173.44-.402.481l-.088.008h-4.267c-.271 0-.49-.219-.49-.49 0-.24.173-.44.402-.481l.088-.008h4.267zM12 .98c-3.841 0-7.369 1.983-9.373 5.224l-.168.28L5.151 8.64c.569-1.16 1.42-2.156 2.49-2.904 1.282-.896 2.79-1.37 4.359-1.37 1.418 0 2.793.392 3.995 1.135l.3.196c.126.078.271.12.41.12.088 0 .207-.017.315-.092l.078-.068 1.74-1.857c.076-.082.112-.175.101-.262-.008-.066-.04-.119-.098-.173L18.7 3.25C16.762 1.764 14.446.98 12 .98z" transform="translate(8 8)"/>
                        </g>
                    </g>
                </g>
            </g>
        </g>
    </g>
</svg>
