<?xml version="1.0" encoding="UTF-8"?>
<svg width="20px" height="19px" viewBox="0 0 20 19" version="1.1" xmlns="http://www.w3.org/2000/svg" xmlns:xlink="http://www.w3.org/1999/xlink">
    <title>3FDAA404-6138-4CD1-B85A-4490232321E8</title>
    <g id="Внутренние" stroke="none" stroke-width="1" fill="none" fill-rule="evenodd">
        <g id="Отзывы-1920" transform="translate(-375.000000, -595.000000)" fill="#A04EA8" fill-rule="nonzero">
            <g id="Контент" transform="translate(345.000000, 202.000000)">
                <g id="1" transform="translate(0.000000, 159.000000)">
                    <g id="support" transform="translate(30.000000, 234.000000)">
                        <path d="M11.4351953,0.018046875 C12.1542969,0.018046875 12.8477734,0.319960937 13.3376953,0.846445312 L13.3376953,0.846445312 L13.3753906,0.886953125 C13.5887109,0.770625 13.8288281,0.708671875 14.0785547,0.708671875 C14.4717969,0.708671875 14.8415234,0.861835937 15.1196094,1.13988281 C15.3976563,1.41792969 15.5508203,1.78765625 15.5508203,2.1809375 C15.5508203,2.34046875 15.5252344,2.4959375 15.4767188,2.64316406 C15.7662891,2.69285156 16.04375,2.82878906 16.2668359,3.05183594 C16.6725781,3.45753906 16.7911719,4.04296875 16.6233984,4.55414062 C16.9214063,4.60488281 17.1959766,4.74574219 17.4140625,4.96386719 C17.6921094,5.24191406 17.8452734,5.61164062 17.8452734,6.00492187 C17.8452734,6.22292969 17.7980078,6.43359375 17.7087109,6.62554687 C17.9691016,6.68519531 18.2163281,6.81589844 18.41875,7.01832031 C18.9928125,7.59238281 18.9928125,8.52644531 18.4187891,9.10050781 L18.4187891,9.10050781 L14.6286328,12.890625 C13.5736719,13.945625 12.1833594,14.5713281 10.6983594,14.6629297 L10.6983594,14.6629297 L10.4472656,14.9149219 C10.9407031,15.1914453 11.5058594,15.3166797 12.0776172,15.2698047 L12.0776172,15.2698047 L12.2014844,15.2596484 C12.3158203,15.2502734 12.4285547,15.2917187 12.5096875,15.3728125 L12.5096875,15.3728125 L14.6526563,17.5160156 C14.8052344,17.6686328 14.8052344,17.9160156 14.6526563,18.0685937 C14.5763672,18.1448828 14.4764063,18.1830469 14.3764063,18.1830469 C14.2764453,18.1830469 14.1764453,18.1448437 14.1001563,18.0685937 L14.1001563,18.0685937 L12.0846094,16.0530078 C11.3023828,16.1047266 10.5330859,15.9051953 9.87894531,15.4855469 L9.87894531,15.4855469 L7.30367188,18.0703125 C7.22738281,18.1469531 7.12710938,18.1852734 7.02691406,18.1852734 C6.92714844,18.1852734 6.82738281,18.1472656 6.75117188,18.0713281 C6.59828125,17.9190234 6.59785156,17.6716406 6.75015625,17.5187891 L6.75015625,17.5187891 L10.2514063,14.0045703 C10.32125,13.9344141 10.4151563,13.8934375 10.5140234,13.8898437 C11.8590625,13.8410156 13.1239453,13.2900391 14.0756641,12.3382812 L14.0756641,12.3382812 L17.8658203,8.54816406 C18.1352344,8.27875 18.1352344,7.84042969 17.8658203,7.57105469 C17.5965625,7.30179687 17.1585156,7.30175781 16.8891016,7.57070312 L16.8891016,7.57070312 L16.4086328,8.05117187 C16.3323438,8.12746094 16.2323438,8.165625 16.1323828,8.165625 C16.0324219,8.165625 15.9324219,8.12742187 15.8561328,8.05117187 C15.7035547,7.89855469 15.7035547,7.65117187 15.8561328,7.49859375 L15.8561328,7.49859375 L16.8611328,6.49359375 C16.9916797,6.363125 17.0635156,6.18960937 17.0635156,6.00507812 C17.0635156,5.82050781 16.9916797,5.64707031 16.8611719,5.5165625 C16.7306641,5.38601562 16.5571875,5.31417969 16.3726172,5.31417969 C16.1880859,5.31417969 16.0146094,5.38601562 15.8841016,5.5165625 L15.8841016,5.5165625 L14.8791016,6.5215625 C14.8028125,6.59785156 14.7028125,6.63601562 14.6028516,6.63601562 C14.5028906,6.63601562 14.4028906,6.5978125 14.3266016,6.5215625 C14.1740234,6.36894531 14.1740234,6.1215625 14.3266016,5.96898437 L14.3266016,5.96898437 L15.3316016,4.96398437 L15.7140234,4.5815625 C15.9833984,4.31214844 15.9833984,3.87386719 15.7140234,3.60445312 C15.4446094,3.33507812 15.0062891,3.33511719 14.7369531,3.60449219 L14.7369531,3.60449219 L13.3495313,4.99191406 C13.2732422,5.06820312 13.1732422,5.10636719 13.0732813,5.10636719 C12.9733203,5.10636719 12.8733203,5.06816406 12.7970313,4.99191406 C12.6444531,4.83929687 12.6444531,4.59191406 12.7970313,4.43933594 L12.7970313,4.43933594 L14.1844531,3.05191406 L14.5668359,2.66953125 C14.6973828,2.5390625 14.7692188,2.36554687 14.7692188,2.18101562 C14.7692188,1.99644531 14.6973828,1.82300781 14.566875,1.6925 C14.4363672,1.56195312 14.2628906,1.49011719 14.0783203,1.49011719 C13.89375,1.49011719 13.7203125,1.56195312 13.5898047,1.6925 L13.5898047,1.6925 L10.9962891,4.28601562 C11.4704688,4.86378906 11.4380078,5.7209375 10.8986328,6.2603125 C10.6116406,6.54730469 10.2346094,6.69082031 9.85757813,6.69082031 C9.83796875,6.69082031 9.81839844,6.69019531 9.79882813,6.68941406 C9.79960938,6.70917969 9.80027344,6.72894531 9.80027344,6.74882812 C9.80027344,7.14207031 9.64710938,7.51179687 9.3690625,7.78988281 C9.08207031,8.076875 8.705,8.22039062 8.32800781,8.22039062 C8.30839844,8.22039062 8.28882813,8.21976562 8.26925781,8.21898437 C8.27003906,8.23875 8.27070313,8.25851562 8.27070313,8.27839844 C8.27070313,8.67164062 8.11753906,9.04136719 7.83949219,9.31945312 C7.55253906,9.60640625 7.17539063,9.74992187 6.7984375,9.74996094 C6.77863281,9.74996094 6.75882813,9.749375 6.73902344,9.74855469 C6.75492188,10.1451172 6.61203125,10.5469531 6.30992188,10.8490234 C6.03183594,11.1271094 5.66210938,11.2802734 5.26886719,11.2802734 C5.00945313,11.2802734 4.76054688,11.2133203 4.54121094,11.0881641 L4.54121094,11.0881641 L0.666914063,14.9624609 C0.590625,15.03875 0.490625,15.0769141 0.390664063,15.0769141 C0.290703125,15.0769141 0.190703125,15.0387109 0.114414063,14.9624609 C-0.0381640625,14.8098437 -0.0381640625,14.5624609 0.114414063,14.4098828 L0.114414063,14.4098828 L3.95167969,10.5726953 L3.17222656,9.79328125 C2.59820313,9.21921875 2.59820313,8.28515625 3.17222656,7.71113281 C3.37058594,7.5128125 3.61566406,7.3784375 3.8825,7.31746094 C3.63050781,6.77296875 3.72867188,6.105 4.17699219,5.65667969 C4.39488281,5.43875 4.66917969,5.29796875 4.96683594,5.24707031 C4.91851563,5.10015625 4.89300781,4.94492187 4.89300781,4.78570312 C4.89300781,4.39246094 5.04617188,4.02273437 5.32421875,3.74464844 C5.5475,3.52140625 5.82535156,3.38539062 6.11515625,3.33582031 C5.94699219,2.82449219 6.06546875,2.23863281 6.47140625,1.83269531 C6.74949219,1.55464844 7.11921875,1.40148437 7.5125,1.40148437 C7.70960938,1.40148437 7.90082031,1.44003906 8.07753906,1.5134375 C8.01121094,1.32574219 7.97652344,1.12613281 7.97652344,0.92109375 L7.97652344,0.92109375 L7.97652344,0.40875 C7.97652344,0.193007812 8.15148438,0.018046875 8.36722656,0.018046875 L8.36722656,0.018046875 Z M18.3784375,12.0589844 C18.5303906,11.9057812 18.7777344,11.9047266 18.9309766,12.0567187 L18.9309766,12.0567187 L19.8844531,13.0024219 C20.0376563,13.154375 20.0386719,13.4017578 19.8866406,13.5549609 C19.8102734,13.6319922 19.7097656,13.6705469 19.6092578,13.6705469 C19.5098047,13.6705469 19.4103125,13.6328125 19.3341406,13.5572266 L19.3341406,13.5572266 L18.3807031,12.6115234 C18.2275,12.4595703 18.2264453,12.2121875 18.3784375,12.0589844 Z M17.4682269,11.0390369 C17.6199164,10.9389075 17.8259473,10.9555957 17.9594531,11.0891016 C18.1119922,11.2417187 18.1119922,11.4891016 17.9594141,11.6416797 C17.8830469,11.7180469 17.7828125,11.7562891 17.6826563,11.7562891 C17.5827344,11.7562891 17.4827734,11.7182031 17.4066016,11.6419922 C17.2540234,11.4894141 17.2536719,11.2423437 17.40625,11.0897656 L17.40625,11.0897656 Z M4.21324219,8.06136719 C4.02871094,8.06136719 3.85519531,8.13320312 3.7246875,8.26375 C3.4553125,8.53316406 3.4553125,8.97148437 3.7246875,9.24085937 L3.7246875,9.24085937 L4.78039063,10.2965234 C4.91085938,10.4270703 5.08433594,10.4989062 5.26890625,10.4989062 C5.45339844,10.4989062 5.62691406,10.4270703 5.75742188,10.2965234 C6.02679688,10.0271094 6.02679688,9.58878906 5.75746094,9.31941406 L5.75746094,9.31941406 L4.70175781,8.26375 C4.57128906,8.13320312 4.39777344,8.06136719 4.21324219,8.06136719 Z M5.21785156,6.00679687 C5.03335938,6.00679687 4.85984375,6.07863281 4.72933594,6.20917969 C4.45996094,6.47855469 4.45996094,6.916875 4.72933594,7.18625 L4.72933594,7.18625 L6.30996094,8.766875 C6.57925781,9.03625 7.01765625,9.03625 7.28707031,8.766875 C7.41753906,8.63636719 7.489375,8.46285156 7.489375,8.27832031 C7.489375,8.09378906 7.41753906,7.9203125 7.28699219,7.78976562 L7.28699219,7.78976562 L7.28695313,7.78976562 L5.70636719,6.20917969 C5.57589844,6.07863281 5.40242188,6.00679687 5.21785156,6.00679687 Z M6.36507813,4.09519531 C6.18820313,4.09519531 6.01125,4.16253906 5.8765625,4.29722656 C5.74601563,4.42769531 5.67417969,4.60121094 5.67417969,4.78574219 C5.67417969,4.9703125 5.74601563,5.14375 5.87652344,5.27425781 L5.87652344,5.27425781 L7.83953125,7.23726562 C8.10886719,7.50664062 8.54722656,7.50660156 8.81664063,7.23726562 C8.94714844,7.10679687 9.01898438,6.93328125 9.01890631,6.74871094 C9.01890631,6.56414062 8.94707031,6.39070312 8.81660156,6.26019531 L8.81660156,6.26019531 L7.74796875,5.19160156 L6.85328125,4.29691406 C6.71863281,4.16246094 6.541875,4.09519531 6.36507813,4.09519531 Z M7.51230469,2.18308594 C7.33539063,2.18308594 7.1584375,2.25042969 7.02375,2.38515625 C6.754375,2.65457031 6.754375,3.09285156 7.02375,3.36226562 L7.02375,3.36226562 L7.40550781,3.74402344 C7.40574219,3.74425781 7.40597656,3.74445312 7.40617188,3.74464844 L7.40617188,3.74464844 L9.36917969,5.70765625 C9.63855469,5.97703125 10.076875,5.97703125 10.34625,5.70765625 C10.4767969,5.5771875 10.5485938,5.40363281 10.5485547,5.21902344 C10.5485547,5.03449219 10.4767188,4.86101562 10.3461719,4.73050781 L10.3461719,4.73050781 L8.00082031,2.38515625 C7.86617188,2.25042969 7.68921875,2.18308594 7.51230469,2.18308594 Z M11.4350781,0.799414062 L8.7578125,0.799414062 L8.7578125,0.921054687 C8.7578125,1.18707031 8.86160156,1.43683594 9.05011719,1.62449219 C9.23746094,1.8109375 9.4859375,1.91347656 9.75011719,1.91347656 L9.75011719,1.91347656 L9.75496094,1.91347656 L10.8271484,1.9084375 L10.8271484,1.9084375 C11.0439453,1.9084375 11.2186719,2.08214844 11.2196875,2.29730469 C11.2207031,2.51308594 11.0465625,2.68882812 10.8308203,2.68984375 L10.8308203,2.68984375 L9.75863281,2.69488281 L9.75863281,2.69488281 C9.62265625,2.69492187 9.49753906,2.68113281 9.37585938,2.65515625 L9.37585938,2.65515625 L10.4489844,3.72828125 L12.7815234,1.39582031 L12.765625,1.37875 C12.4229688,1.01054687 11.9380078,0.799414062 11.4350781,0.799414062 L11.4350781,0.799414062 Z" id="Combined-Shape"></path>
                    </g>
                </g>
            </g>
        </g>
    </g>
</svg>