<svg xmlns="http://www.w3.org/2000/svg" width="30" height="30" viewBox="0 0 30 30">
    <g fill="none" fill-rule="evenodd">
        <g fill="#FFF" fill-rule="nonzero">
            <g>
                <g>
                    <g>
                        <g>
                            <path d="M23.35 0c.123 0 .24.051.323.141l4.79 4.798c.132.128.173.323.105.494-.068.17-.232.283-.416.285h-2.257v4.538c2.21.335 3.962 1.115 3.962 2.31l-.003 2.403v11.997c0 1.638-3.268 2.497-6.505 2.497s-6.507-.86-6.507-2.497v-14.4c0-1.196 1.754-1.975 3.962-2.296V5.71h-2.257c-.179-.004-.34-.11-.412-.275-.074-.17-.034-.368.1-.496L23.03.14c.083-.09.2-.141.322-.141zM6.184 4.576c.177-.175.462-.175.638 0l4.8 4.807c.131.128.167.324.091.49-.069.168-.232.276-.412.276H9.05v4.928c2.203.335 3.962 1.115 3.962 2.31v9.574c0 1.643-3.269 2.497-6.506 2.497C3.27 29.458 0 28.598 0 26.96v-9.574c0-1.195 1.753-1.975 3.961-2.317v-4.928H1.702c-.18.001-.344-.108-.412-.275-.07-.164-.034-.354.093-.479zm22.774 21.323c-.148.096-.303.181-.463.256-.6.277-1.228.475-1.873.59l-.02.014-.699.12-.067.014c-.235.026-.483.068-.739.094L24.93 27l-.564.04-.275.013-.619.014h-.254l-.619-.014-.275-.014-.55-.04-.174-.013c-.25-.026-.497-.068-.739-.094l-.06-.013-.706-.121-.012-.014c-.646-.113-1.274-.311-1.867-.59l-.16-.078c-.104-.054-.205-.113-.304-.178v1.062c0 .657 2.175 1.597 5.6 1.597 3.418 0 5.6-.94 5.607-1.597zm-16.857 0c-.148.094-.3.18-.458.256-.602.278-1.232.476-1.88.59l-.013.014-.7.12-.06.014c-.241.026-.483.068-.739.094h-.17c-.188.027-.368.04-.563.053l-.268.014-.619.014h-.247l-.618-.014-.275-.014-.55-.04-.174-.013c-.25-.026-.497-.068-.739-.094l-.06-.013-.706-.121-.012-.014c-.648-.114-1.278-.312-1.874-.59l-.162-.078c-.107-.055-.212-.114-.314-.178v1.059c0 .657 2.182 1.598 5.607 1.598 3.417.002 5.594-.938 5.594-1.595zm16.85-2.383c-1.738.854-3.664 1.255-5.598 1.168-1.936.088-3.862-.313-5.6-1.168v1.054l.007.063c.038.152.205.337.47.5 1.101.57 2.312.895 3.551.955h.02c.208.026.43.04.644.053h.175c.195.014.39.014.584.014h.485c.132-.002.263-.005.388-.014h.179c.221-.014.443-.027.652-.053l.022.006c1.234-.06 2.44-.385 3.538-.954.309-.187.484-.401.484-.564zm-16.85 0l-.444.238-.047.026c-.58.254-1.186.448-1.807.578l-.107.014-.577.107-.18.025-.652.085-.323.027-.39.024-.375.013-.39.014-.301.013-.31-.013-.766-.027-.389-.026-.315-.028-.665-.08-.175-.027-.57-.103-.115-.014c-.618-.13-1.22-.323-1.798-.578l-.054-.026-.45-.242v1.054l.01.063c.042.152.209.337.473.5 1.097.57 2.304.895 3.538.955h.029c.213.026.428.04.649.053h.175c.195.014.39.014.584.014h.289c.195 0 .389 0 .584-.014h.175c.221-.012.432-.027.657-.047h.015c1.234-.06 2.441-.385 3.538-.954.303-.187.484-.401.484-.564v-1.06zm0-2.41c-.147.094-.3.179-.458.254l-.007.014c-.6.266-1.228.464-1.873.591H9.75c-.229.054-.464.08-.706.121l-.055.013c-.24.027-.482.067-.738.08l-.173.034-.564.04-.268.013-.619.013H6.38l-.62-.018-.274-.014-.55-.04-.175-.027c-.249-.014-.496-.054-.738-.081l-.06-.013c-.243-.041-.478-.067-.706-.12-.652-.127-1.28-.326-1.881-.592v-.014c-.164-.073-.323-.158-.476-.254v1.074c.014.16.182.363.484.564 1.085.562 2.278.883 3.498.94l.147.014.498.04.296.013.322.013h.717l.323-.013.296-.013.495-.04.15-.007c1.22-.056 2.414-.377 3.498-.94.302-.201.477-.403.477-.564zm16.85-.014c-.148.096-.303.181-.463.256-.605.265-1.23.462-1.872.59l-.021.014-.699.12h-.067c-.235.04-.483.082-.738.108h-.168c-.187.027-.375.04-.564.04l-.275.013c-.206.014-.41.014-.619.014l-.12.014-.12-.014c-.207 0-.417 0-.619-.014l-.275-.013c-.184 0-.368-.013-.55-.04h-.181c-.25-.026-.497-.068-.739-.107h-.06l-.706-.121-.012-.014c-.643-.125-1.27-.323-1.867-.59l-.16-.078c-.104-.054-.205-.113-.304-.178v1.062l.028.107v.026l.053.09.026.04.068.083.067.054.121.11.047.027.175.108.074.04c1.557.675 3.247.987 4.942.914 1.692.073 3.379-.24 4.933-.913l.081-.041.175-.108.04-.029.12-.108.068-.058.068-.08.038-.034.052-.095.007-.026.02-.107zM.9 18.716v1.06l.01.064c.042.15.209.324.473.5 1.095.575 2.303.9 3.538.954h.029c.213.022.428.04.649.054h.176l.583.026h.289l.584-.026h.175c.221-.014.432-.032.657-.054h.015c1.235-.053 2.444-.379 3.538-.954.303-.2.484-.403.484-.564v-1.053l-.041.003c-.137.087-.279.168-.424.242l-.12.04-.397.174-.033.014h-.014l-.02.014c-.184.067-.39.12-.597.188l-.067.013c-.182.056-.37.097-.564.137l-.067.014-.028.014c-.221.04-.415.08-.624.107l-.107.012c-.236.041-.477.068-.725.095h-.047l-.074.014h-.038c-.201.027-.404.041-.607.042h-.033l-.181.014-.258.009c-.172.004-.348.004-.527.004-.27 0-.531 0-.794-.013l-.187-.014c-.213.002-.426-.012-.638-.04h-.027l-.08-.013h-.047c-.249-.028-.49-.054-.726-.095h-.074l-.624-.12-.054-.013h-.018l-.067-.014c-.196-.043-.377-.084-.558-.138l-.064-.012c-.209-.067-.41-.121-.598-.188l-.026-.014-.025-.014c-.177-.058-.35-.13-.517-.214h-.008l-.09-.04c-.11-.057-.218-.12-.322-.189l-.064-.026zm28.05-.033c-.142.094-.29.18-.442.256l-.054.026c-.579.255-1.185.444-1.806.564l-.11.033c-.189.04-.377.067-.571.093l-.175.04c-.221.028-.443.054-.664.068l-.323.027c-.128.026-.252.026-.39.04l-.381.014-.384.013h-.6l-.39-.013-.384-.014c-.126-.014-.251-.014-.389-.04l-.315-.027c-.223-.013-.445-.04-.665-.08l-.175-.028c-.194-.026-.382-.053-.57-.093l-.108-.028c-.621-.118-1.227-.307-1.805-.563l-.054-.027c-.154-.074-.302-.16-.444-.255v1.07l.008.062c.038.149.205.325.47.501 1.103.563 2.313.888 3.551.954h.02l.644.04.175.014c.195.014.39.014.584.014h.485c.132-.002.263-.005.388-.014l.175-.014.652-.035h.03c1.233-.067 2.438-.392 3.538-.955.31-.2.484-.403.484-.563v-1.074zm-19.9-2.707v1.034c0 .252-.204.456-.456.456H4.41c-.12 0-.236-.049-.321-.135-.084-.087-.13-.203-.129-.324V15.99C2.041 16.299.9 16.916.9 17.387l.028.107.013.026.08.12.028.028.107.108.038.023.182.138.023.027c.116.071.237.134.362.187.086.048.179.084.275.107l.221.109.322.093.235.068.296.08.368.082.068.014c.209.038.423.078.65.106l.067.013.645.08h.121c.197.028.384.028.578.054h.151c.499.027.999.027 1.498 0h.137c.205-.026.417-.04.617-.054h.1l.657-.08.06-.013.578-.094.127-.027.369-.081.289-.08.235-.068.323-.093.412-.175.068-.027.35-.201.06-.027.16-.121.061-.054.088-.08.04-.041.074-.121.012-.026.028-.107c0-.47-1.136-1.088-3.05-1.411zm19.907.323c-.15.097-.307.182-.47.254v.014c-.598.26-1.224.455-1.866.578l-.02.013-.699.121-.067.013c-.235.027-.483.067-.739.08l-.167.015c-.189.026-.376.04-.564.053l-.275.014c-.206 0-.41 0-.619.012h-.256c-.206-.012-.416-.012-.618-.012l-.275-.014c-.18-.014-.369-.027-.55-.053l-.175-.014c-.249-.014-.496-.054-.738-.081l-.06-.013-.706-.12-.012-.014c-.645-.12-1.272-.318-1.868-.592l-.159-.076c-.104-.054-.206-.114-.304-.178v1.074c.007.16.174.363.477.564 1.087.555 2.279.875 3.498.94l.148.012.498.042.296.013.322.013h.721l.33-.013.29-.013.503-.042.147-.012c1.217-.064 2.406-.384 3.49-.94.303-.201.478-.403.485-.564v-.014zM6.505 5.537L2.793 9.249H4.41c.246-.001.447.197.45.443v6.875h3.283V9.692c.002-.246.203-.444.45-.443h1.624L6.505 5.537zm22.42 8.37l-.025.013c-.13.088-.269.164-.413.228l-.128.068-.389.16-.033.014h-.034c-.194.078-.393.141-.597.189l-.081.026c-.181.056-.356.098-.55.137l-.067.014h-.021c-.235.054-.429.094-.631.121l-.114.013c-.235.04-.477.067-.725.094h-.041l-.08.013h-.034c-.198.014-.403.041-.61.041h-.031l-.175.014-.393.01-.399.002c-.27 0-.53 0-.793-.012l-.168-.014c-.247 0-.456-.027-.65-.041h-.034l-.08-.013h-.047c-.242-.027-.484-.053-.72-.094l-.08-.013c-.21-.026-.418-.062-.625-.108l-.053-.013h-.012l-.068-.014c-.194-.042-.368-.083-.55-.137l-.087-.026c-.199-.047-.394-.11-.584-.187h-.033l-.014-.014c-.202-.067-.37-.147-.523-.214h-.007l-.094-.054-.32-.175-.06-.027v1.06l.007.062c.038.15.205.326.47.502 1.1.57 2.312.894 3.551.953h.02c.208.027.43.04.644.053h.178c.195.014.39.014.584.014l.148.014.138-.014c.195 0 .396 0 .584-.014h.175c.221-.012.443-.026.652-.053h.015c1.234-.06 2.44-.384 3.538-.953.309-.201.484-.403.484-.564l-.014-1.062zm-3.03-2.738v1.397c.002.12-.045.236-.13.322-.084.085-.199.134-.32.134h-4.189c-.12 0-.235-.049-.32-.134-.084-.086-.131-.202-.13-.322v-1.383c-1.914.309-3.055.92-3.055 1.383l.028.12.014.027.072.12.035.028.113.108.02.023.182.138.04.013.356.198.281.124.21.081.335.107.226.068.3.08.357.08.08.014c.209.04.416.08.638.108l.071.013c.208.027.422.054.643.066l.068.014h.058l.577.04.149.014c.49.014 1.006.014 1.503 0l.137-.014.617-.04h.028l.067-.014c.222-.012.443-.04.657-.066l.054-.013.584-.095.121-.026.363-.081.309-.08.224-.07.33-.108c.14-.046.278-.1.412-.16l.067-.042c.12-.05.235-.112.343-.184l.1-.055.128-.093.06-.054.089-.081.04-.04.074-.121.012-.026.028-.121c0-.457-1.142-1.074-3.056-1.397zM23.352 1.104l-3.707 3.7h1.611c.122-.001.238.047.324.132.086.086.134.203.133.324v6.863h3.276v-6.85c0-.122.047-.238.133-.324.086-.086.202-.134.324-.133h1.618l-3.712-3.712z" transform="translate(-855 -3374) translate(345 2300) translate(0 774) translate(302 280) translate(208 20)"/>
                        </g>
                    </g>
                </g>
            </g>
        </g>
    </g>
</svg>
