<svg xmlns="http://www.w3.org/2000/svg" width="22" height="22" viewBox="0 0 22 22">
    <g fill="none" fill-rule="evenodd">
        <g fill="#FEDB41" fill-rule="nonzero">
            <g>
                <g>
                    <g>
                        <g>
                            <path d="M11 0c6.065 0 11 4.935 11 11s-4.935 11-11 11S0 17.065 0 11 4.935 0 11 0zm0 .917C5.44.917.917 5.44.917 11 .917 16.56 5.44 21.083 11 21.083c5.56 0 10.083-4.523 10.083-10.083C21.083 5.44 16.56.917 11 .917zm1.375 7.333c.253 0 .458.205.458.458v9.167c0 .253-.205.458-.458.458h-2.75c-.253 0-.458-.205-.458-.458V11h-.459c-.253 0-.458-.205-.458-.458V8.708c0-.253.205-.458.458-.458zm-.458.917h-2.75v.916h.458c.253 0 .458.205.458.459v6.875h1.834v-8.25zM11 3.667c1.011 0 1.833.822 1.833 1.833 0 1.011-.822 1.833-1.833 1.833-1.011 0-1.833-.822-1.833-1.833 0-1.011.822-1.833 1.833-1.833zm0 .916c-.505 0-.917.412-.917.917 0 .505.412.917.917.917.505 0 .917-.412.917-.917 0-.505-.412-.917-.917-.917z" transform="translate(-1209 -536) translate(345 207) translate(290 316) translate(574 6) translate(0 7)"/>
                        </g>
                    </g>
                </g>
            </g>
        </g>
    </g>
</svg>
