<svg xmlns="http://www.w3.org/2000/svg" width="32" height="34" viewBox="0 0 32 34">
    <g fill="none" fill-rule="evenodd">
        <g fill="#4ACDED">
            <g>
                <g>
                    <g>
                        <g>
                            <path d="M22.674 0c.177 0 .346.072.47.2l8.623 8.96c.117.122.182.284.182.452V31.25c0 1.434-1.17 2.601-2.609 2.601H9.82c-1.438 0-2.608-1.168-2.608-2.603v-5.86h-5.21c-1.076 0-1.951-.875-1.951-1.95v-9.769c0-1.076.875-1.951 1.952-1.951h5.209v-9.11C7.212 1.17 8.382 0 9.82 0zm-1.14 1.302H9.82c-.72 0-1.306.586-1.306 1.306v9.11h11.068c1.076 0 1.951.875 1.951 1.951v9.768c0 1.076-.875 1.951-1.951 1.951H8.514v5.86c0 .718.586 1.301 1.306 1.301h19.52c.72 0 1.307-.583 1.307-1.3V10.417h-8.463c-.36 0-.65-.292-.65-.651V1.302zM19.581 13.02H2.002c-.358 0-.65.291-.65.649v9.768c0 .358.292.65.65.65h17.58c.358 0 .65-.292.65-.65V13.67c0-.358-.292-.65-.65-.65zm-4.222 2.775c.695 0 1.237.146 1.627.437.39.291.642.694.754 1.207l-1.122.21c-.079-.275-.227-.491-.444-.65-.218-.16-.489-.239-.815-.239-.493 0-.885.157-1.176.47-.291.312-.437.776-.437 1.392 0 .663.147 1.161.442 1.493.295.332.682.498 1.16.498.236 0 .474-.047.711-.14.238-.092.442-.205.613-.337v-.71H15.38v-.942h2.433v2.228c-.236.229-.579.43-1.028.604-.449.175-.903.262-1.363.262-.585 0-1.095-.123-1.53-.368-.435-.246-.762-.597-.98-1.053-.219-.457-.328-.953-.328-1.49 0-.582.122-1.1.366-1.552.244-.453.601-.8 1.072-1.041.358-.186.804-.279 1.338-.279zm-8.994.096v3.54c0 .462-.04.818-.122 1.067-.11.326-.308.587-.595.784-.287.197-.666.296-1.137.296-.551 0-.976-.155-1.274-.464-.297-.309-.447-.762-.45-1.36l1.064-.121c.013.32.06.546.142.678.122.201.307.302.557.302.251 0 .43-.072.534-.216.104-.143.156-.442.156-.894V15.89h1.125zm3.014 0c.686 0 1.134.027 1.342.083.32.085.589.267.805.548.216.28.324.644.324 1.089 0 .343-.062.632-.187.866-.124.234-.283.418-.475.551-.192.133-.387.222-.585.265-.27.053-.66.08-1.171.08h-.736v2.11h-1.13V15.89zm-.138.946h-.545v1.586h.618c.445 0 .742-.029.892-.087.15-.059.268-.15.353-.275.085-.125.128-.27.128-.435 0-.203-.06-.371-.18-.503-.119-.133-.27-.215-.453-.248-.135-.026-.406-.038-.813-.038zm13.593-15.08v7.357h7.08l-7.08-7.357z" transform="translate(-585 -1621) translate(345 202) translate(0 1389) translate(210) translate(30 30)"/>
                        </g>
                    </g>
                </g>
            </g>
        </g>
    </g>
</svg>
