<svg xmlns="http://www.w3.org/2000/svg" width="22" height="23" viewBox="0 0 22 23">
    <g fill="none" fill-rule="evenodd">
        <g fill="#B7B7B7" fill-rule="nonzero">
            <g>
                <g>
                    <g>
                        <path d="M14.434 0c4.148 0 7.523 3.375 7.523 7.524 0 4.148-3.375 7.524-7.523 7.524-.923 0-1.82-.164-2.67-.488l-1.745 1.744c-.103.103-.242.16-.388.16h-1.18v1.18c0 .303-.245.549-.548.549h-.537v.537c0 .303-.246.549-.549.549h-1.34v1.342c0 .146-.058.285-.161.388l-1.094 1.092c-.102.102-.242.16-.387.16H.591c-.303 0-.548-.246-.548-.548v-3.937c0-.146.057-.285.16-.388l7.194-7.194c-.323-.852-.487-1.748-.487-2.67C6.91 3.375 10.285 0 14.434 0zm0 1.097c-3.544 0-6.427 2.883-6.427 6.427 0 .897.18 1.765.538 2.58.092.21.041.447-.11.603l-.005.004-7.29 7.292v.99l6.003-6.003c.193-.193.505-.193.698 0 .193.192.193.505 0 .698l-6.702 6.701v.775h2.47l.771-.77V18.73c0-.303.246-.548.548-.548H6.27v-.537c0-.303.246-.549.548-.549h.538v-1.18c0-.302.245-.548.548-.548h1.501l1.844-1.844c.158-.153.395-.204.606-.112.814.358 1.682.539 2.58.539 3.544 0 6.427-2.883 6.427-6.427 0-3.544-2.883-6.427-6.427-6.427zm2.29 2.083c1.132 0 2.053.921 2.053 2.054 0 1.132-.921 2.054-2.054 2.054-1.132 0-2.053-.922-2.053-2.054 0-1.133.92-2.054 2.053-2.054zm0 1.097c-.528 0-.958.43-.958.957 0 .528.43.957.957.957.528 0 .958-.43.958-.957 0-.528-.43-.957-.958-.957z" transform="translate(-805 -788) translate(735 160) translate(50 586) translate(20 42)"/>
                    </g>
                </g>
            </g>
        </g>
    </g>
</svg>
