<svg xmlns="http://www.w3.org/2000/svg" width="20" height="26" viewBox="0 0 20 26">
    <defs>
        <linearGradient id="7jzdyxx9fa" x1="15.077%" x2="63.346%" y1="28.364%" y2="57.831%">
            <stop offset="0%" stop-color="#CF44FB"/>
            <stop offset="57%" stop-color="#2854C6"/>
            <stop offset="79%" stop-color="#1E46B6"/>
            <stop offset="100%" stop-color="#001A86"/>
        </linearGradient>
        <linearGradient id="mh9tpglojb" x1="41.074%" x2="62.374%" y1="77.006%" y2="31.374%">
            <stop offset="0%" stop-color="#11DADC"/>
            <stop offset="100%" stop-color="#0C7CFE"/>
        </linearGradient>
        <linearGradient id="wrprvkji6c" x1="49.223%" x2="53.147%" y1="92.158%" y2="26.372%">
            <stop offset="0%" stop-color="#11D8DD"/>
            <stop offset="100%" stop-color="#0C7CFE"/>
        </linearGradient>
    </defs>
    <g fill="none" fill-rule="evenodd">
        <g>
            <g>
                <g>
                    <g>
                        <g>
                            <path fill="url(#7jzdyxx9fa)" d="M11.139.293c-.689-.39-1.532-.386-2.216.01L1.249 4.748C.564 5.145.14 5.875.137 6.667L.098 15.4c-.003.801.423 1.542 1.117 1.942l7.659 4.408c.696.401 1.555.396 2.246-.013l4.34-2.567c.671-.398 1.086-1.119 1.09-1.9.006-.78-.4-1.506-1.066-1.912l-2.438-1.486c-.47-.285-1.08-.166-1.407.275l-1.042 1.405c-.14.19-.362.3-.598.3-.235 0-.456-.112-.596-.301-1.42-1.928-2.619-3.96-3.563-6.167-.092-.217-.076-.464.044-.667.119-.203.328-.337.562-.362 2.405-.249 4.702-.316 7.106-.087.235.023.446.158.566.362.12.204.135.453.04.67-.12.283-.259.602-.394.915-.381.88-.03 1.905.81 2.368l1.802.992c.73.403 1.62.392 2.34-.029.721-.42 1.168-1.188 1.177-2.023l.055-4.915c.009-.812-.424-1.564-1.13-1.964L11.138.293z" transform="translate(-1189 -2278) translate(345 202) translate(0 1754) translate(844 315) translate(0 7)"/>
                            <path fill="url(#mh9tpglojb)" d="M11.964.764s1.93 1.577 2.654 3.806c.772 2.376-.595 5.21-1.313 6.46-.1.172-.128.378-.076.57.053.193.18.356.355.453l5.213 2.91c.23.128.509.125.735-.006.227-.132.368-.374.37-.636l.068-7.753c.008-.814-.43-1.567-1.14-1.965L11.964.763z" transform="translate(-1189 -2278) translate(345 202) translate(0 1754) translate(844 315) translate(0 7)"/>
                            <g fill="url(#wrprvkji6c)" transform="translate(-1189 -2278) translate(345 202) translate(0 1754) translate(844 315) translate(0 7) scale(1 -1) rotate(-60 -14.452 -10.764)">
                                <path d="M.018.056s1.93 1.578 2.653 3.806c.772 2.376-.595 5.211-1.313 6.46-.1.173-.127.378-.075.57.052.193.18.356.354.453l5.214 2.91c.229.128.508.126.735-.006.227-.132.367-.374.37-.636l.068-7.753c.007-.814-.43-1.567-1.14-1.964L.017.056z"/>
                            </g>
                        </g>
                    </g>
                </g>
            </g>
        </g>
    </g>
</svg>
