<svg xmlns="http://www.w3.org/2000/svg" width="27" height="40" viewBox="0 0 27 40">
    <g fill="none" fill-rule="evenodd">
        <g fill="#A04EA8" fill-rule="nonzero">
            <g>
                <g>
                    <g>
                        <g>
                            <g>
                                <path d="M13.145.005c7.26 0 13.145 5.885 13.145 13.145-.933 6.827-4.004 13.183-8.774 18.156 2.582.766 4.284 2.173 4.284 3.848 0 2.512-3.795 4.472-8.65 4.472-4.856 0-8.65-1.96-8.65-4.472 0-1.675 1.7-3.1 4.274-3.848C4.006 26.332.934 19.976 0 13.15 0 5.89 5.885.005 13.145.005zm3.517 32.293c-1.675 1.929-2.941 3.14-3.093 3.285-.108.116-.259.182-.418.182-.159.001-.311-.065-.42-.182-.162-.15-1.426-1.362-3.101-3.285-2.423.606-3.937 1.756-3.937 2.85 0 1.557 3.065 3.285 7.457 3.285 4.391 0 7.447-1.728 7.45-3.285 0-1.085-1.515-2.244-3.938-2.85zM13.15 1.212C6.558 1.22 1.215 6.558 1.202 13.15 2.848 21.29 7.03 28.7 13.15 34.315 19.269 28.7 23.45 21.29 25.097 13.15 25.083 6.559 19.74 1.22 13.15 1.212zm-.004 2.756c5.14 0 9.305 4.167 9.305 9.306-.01 5.135-4.17 9.295-9.305 9.305-5.14 0-9.305-4.166-9.305-9.305 0-5.14 4.166-9.306 9.305-9.306zm5.73 3.551c-2.322-2.317-5.811-3.006-8.84-1.746-3.029 1.26-5 4.22-4.993 7.5.016 4.468 3.639 8.084 8.107 8.09 3.28 0 6.237-1.976 7.49-5.007 1.254-3.032.558-6.52-1.764-8.837zm-1.227 9.46c.16 0 .316.063.43.177.113.114.177.268.176.43-.005.329-.276.593-.606.588H8.65c-.317-.017-.565-.28-.565-.597 0-.318.248-.58.565-.598zm-7.81-5.07c.19-.115.427-.115.617 0 .19.114.301.324.289.545v2.993c.012.221-.1.431-.289.545-.19.115-.427.115-.617 0-.19-.114-.301-.324-.29-.545v-2.993c-.011-.22.1-.43.29-.545zm6.004 0c.19-.115.428-.115.618 0 .19.114.3.324.288.545v2.993c.013.221-.098.431-.288.545-.19.115-.428.115-.618 0-.19-.114-.3-.324-.289-.545v-2.993c-.012-.22.1-.43.29-.545zm-2.693-.051c.33 0 .596.267.596.596v2.993c0 .33-.267.596-.596.596-.33 0-.597-.267-.597-.596v-2.993c0-.33.267-.596.597-.596zm-.365-5.426c.213-.17.516-.17.73 0l4.508 3.42c.202.162.28.433.195.678-.086.239-.315.397-.569.392H8.65c-.253.003-.482-.154-.569-.392-.081-.247 0-.517.204-.677zm.365 1.231L10.433 9.73h5.44L13.15 7.663z" transform="translate(-405 -514) translate(345 202) translate(0 67) translate(30 213) translate(30 30) translate(0 2)"/>
                            </g>
                        </g>
                    </g>
                </g>
            </g>
        </g>
    </g>
</svg>
