<svg xmlns="http://www.w3.org/2000/svg" width="22" height="10" viewBox="0 0 22 10">
    <g fill="none" fill-rule="evenodd">
        <g fill="#B7B7B7" fill-rule="nonzero">
            <g>
                <g>
                    <g>
                        <path d="M20.167.014C21.177.014 22 .837 22 1.848v5.5c0 1.01-.822 1.833-1.833 1.833H1.833C.823 9.181 0 8.359 0 7.348v-5.5C0 .837.822.014 1.833.014zm0 .917H1.833c-.505 0-.916.411-.916.917v5.5c0 .505.411.916.916.916h18.334c.505 0 .916-.411.916-.916v-5.5c0-.506-.411-.917-.916-.917zM4.125 2.764c.253 0 .458.205.458.459v.58l.503-.29c.218-.126.5-.052.627.168.126.22.051.5-.168.626l-.503.29.503.291c.22.127.294.407.168.626-.085.148-.24.23-.398.23-.078 0-.157-.02-.229-.062l-.503-.29v.58c0 .254-.205.459-.458.459s-.458-.205-.458-.458v-.581l-.503.29c-.072.042-.151.061-.23.061-.158 0-.312-.081-.397-.229-.126-.219-.051-.5.168-.626l.503-.29-.503-.29c-.22-.127-.294-.408-.168-.627.127-.22.408-.294.627-.168l.503.29v-.58c0-.254.205-.459.458-.459zm4.583 0c.254 0 .459.205.459.459v.58l.503-.29c.218-.126.498-.052.626.168.127.22.051.5-.168.626l-.503.29.503.291c.22.127.295.407.168.626-.085.148-.239.23-.398.23-.077 0-.156-.02-.228-.062l-.503-.29v.58c0 .254-.205.459-.459.459-.253 0-.458-.205-.458-.458v-.581l-.503.29c-.072.042-.15.061-.229.061-.158 0-.312-.081-.397-.229-.127-.219-.052-.5.168-.626l.503-.29-.503-.29c-.22-.127-.295-.408-.168-.627.126-.22.407-.294.626-.168l.503.29v-.58c0-.254.205-.459.458-.459zm4.584 0c.253 0 .458.205.458.459v.58l.503-.29c.218-.126.5-.052.626.168.127.22.052.5-.168.626l-.503.29.503.291c.22.127.295.407.168.626-.085.148-.239.23-.397.23-.078 0-.157-.02-.229-.062l-.503-.29v.58c0 .254-.205.459-.458.459-.254 0-.459-.205-.459-.458v-.581l-.503.29c-.072.042-.15.061-.228.061-.159 0-.313-.081-.398-.229-.127-.219-.051-.5.168-.626l.503-.29-.503-.29c-.22-.127-.295-.408-.168-.627.127-.22.407-.294.626-.168l.503.29v-.58c0-.254.205-.459.459-.459zm4.583 0c.253 0 .458.205.458.459v.58l.503-.29c.218-.126.5-.052.627.168.126.22.051.5-.168.626l-.503.29.503.291c.22.127.294.407.168.626-.085.148-.24.23-.398.23-.078 0-.157-.02-.229-.062l-.503-.29v.58c0 .254-.205.459-.458.459s-.458-.205-.458-.458v-.581l-.503.29c-.072.042-.151.061-.23.061-.158 0-.312-.081-.397-.229-.126-.219-.051-.5.168-.626l.503-.29-.503-.29c-.22-.127-.294-.408-.168-.627.127-.22.407-.294.627-.168l.503.29v-.58c0-.254.205-.459.458-.459z" transform="translate(-805 -384) translate(735 160) translate(50 176) translate(20 48)"/>
                    </g>
                </g>
            </g>
        </g>
    </g>
</svg>
