<svg xmlns="http://www.w3.org/2000/svg" width="20" height="27" viewBox="0 0 20 27">
    <g fill="none" fill-rule="evenodd">
        <g fill="#B7B7B7" fill-rule="nonzero">
            <g>
                <g>
                    <g>
                        <path d="M14.444 0c1.144-.012 2.133.888 2.217 2.028l.006.157v1.148h1.11c1.173 0 2.136.912 2.218 2.064l.005.159v18.889c0 1.172-.912 2.135-2.064 2.216l-.158.006H2.222c-1.172 0-2.135-.912-2.216-2.064L0 24.445V5.555c0-1.13.85-2.058 1.945-2.195l.158-.015L13.948.07c.176-.044.326-.068.496-.07zm3.334 4.445H2.222c-.571 0-1.044.434-1.104.99l-.007.12v18.89c0 .571.435 1.044.99 1.104l.121.007h15.556c.572 0 1.044-.435 1.104-.99l.007-.121V5.555c0-.612-.499-1.11-1.111-1.11zm-4.573 17.808c.307 0 .556.249.556.556 0 .307-.249.555-.556.555H6.54c-.307 0-.556-.248-.556-.555 0-.307.249-.556.556-.556zM4.316 20.03l11.113.002c.307 0 .556.25.556.556 0 .307-.25.555-.556.555l-11.113-.001c-.307 0-.555-.25-.555-.556 0-.307.249-.556.555-.556zM10 6.667c3.37 0 6.111 2.741 6.111 6.11 0 3.37-2.741 6.112-6.11 6.112-3.37 0-6.112-2.741-6.112-6.111 0-3.37 2.741-6.111 6.111-6.111zm1.644 6.666H8.356c.112 2.724 1.008 4.445 1.644 4.445.637 0 1.532-1.721 1.644-4.445zm-4.41 0H5.056c.21 1.858 1.419 3.41 3.094 4.08-.542-1.061-.855-2.566-.916-4.08zm7.71 0h-2.178c-.061 1.514-.374 3.019-.916 4.08 1.675-.67 2.885-2.222 3.094-4.08zM8.15 8.142c-1.605.643-2.783 2.095-3.062 3.85l-.032.23h2.178c.061-1.513.374-3.018.916-4.08zM10 7.778c-.615 0-1.47 1.604-1.63 4.166l-.014.278h3.288C11.532 9.5 10.637 7.778 10 7.778zm1.85.364c.5.98.806 2.338.898 3.731l.018.35h2.178c-.209-1.858-1.419-3.41-3.094-4.081zm2.498-7.02l-.115.022-7.917 2.19h9.24V2.184c0-.641-.597-1.144-1.208-1.063z" transform="translate(-806 -589) translate(735 160) translate(50 390) translate(21 39)"/>
                    </g>
                </g>
            </g>
        </g>
    </g>
</svg>
