<svg xmlns="http://www.w3.org/2000/svg" width="40" height="43" viewBox="0 0 40 43">
    <g fill="none" fill-rule="evenodd">
        <g fill="#C66FEC" fill-rule="nonzero">
            <g>
                <g>
                    <g>
                        <g>
                            <path d="M28.343 0c.22 0 .432.09.586.25l10.78 11.201c.146.152.227.354.227.564v27.047c0 1.793-1.462 3.252-3.26 3.252h-24.4c-1.798 0-3.261-1.46-3.261-3.254v-7.324H2.503c-1.345 0-2.44-1.095-2.44-2.44v-12.21c0-1.345 1.095-2.439 2.44-2.439h6.512V3.26c0-1.798 1.463-3.26 3.26-3.26zm-1.426 1.627H12.276c-.901 0-1.634.733-1.634 1.633v11.387h13.835c1.345 0 2.44 1.094 2.44 2.44v12.21c0 1.344-1.095 2.439-2.44 2.439H10.642v7.324c0 .897.733 1.627 1.634 1.627h24.4c.9 0 1.633-.73 1.633-1.625V13.02H27.73c-.449 0-.813-.365-.813-.814V1.627zm-2.44 14.648H2.503c-.448 0-.812.364-.812.811v12.21c0 .448.364.812.812.812h21.974c.448 0 .812-.364.812-.811v-12.21c0-.448-.364-.812-.812-.812zm-17.37 3.588c.859 0 1.418.035 1.679.105.4.105.736.333 1.006.684.27.352.405.805.405 1.362 0 .429-.078.79-.233 1.082-.156.292-.354.522-.594.689-.24.167-.484.277-.732.331-.337.067-.825.1-1.464.1h-.92v2.637H4.843v-6.99zm6.823 0c.582 0 1.026.045 1.33.134.41.12.762.335 1.054.643.293.309.515.686.668 1.133.152.447.229.997.229 1.652 0 .575-.072 1.071-.215 1.488-.175.508-.424.92-.748 1.234-.245.239-.576.425-.992.558-.312.099-.728.148-1.25.148h-2.655v-6.99zm9.279 0v1.183h-3.38V22.7h2.917v1.183h-2.918v2.97h-1.411v-6.99h4.792zm-9.813 1.183h-.634v4.63h1.054c.394 0 .679-.023.853-.067.23-.058.42-.154.57-.291.151-.137.274-.362.37-.675.095-.313.143-.74.143-1.28s-.048-.955-.143-1.244c-.096-.29-.23-.515-.4-.677-.172-.163-.39-.272-.654-.33-.197-.044-.583-.066-1.159-.066zm-6.46 0h-.682v1.983h.772c.557 0 .928-.036 1.116-.11.188-.073.335-.187.441-.343.107-.156.16-.337.16-.543 0-.254-.075-.464-.224-.63-.15-.165-.339-.268-.568-.31-.168-.031-.507-.047-1.015-.047zm21.608-18.85v9.196h8.85l-8.85-9.195z" transform="translate(-395 -3563) translate(0 202) translate(345 3307) translate(50 50) translate(0 4)"/>
                        </g>
                    </g>
                </g>
            </g>
        </g>
    </g>
</svg>
