<svg xmlns="http://www.w3.org/2000/svg" width="57" height="50" viewBox="0 0 57 50">
    <g fill="none" fill-rule="evenodd">
        <g fill-rule="nonzero">
            <g>
                <g>
                    <g>
                        <g fill="#9533A3">
                            <path d="M16.775 0C27.183 0 33.92 8.118 33.92 20.659c.002 3.734-.894 7.413-2.612 10.729.652.265 1.284.575 1.88.863 2.436 1.231 4.006 3.681 4.12 6.392l.007.314v2.039c.008 1.874-1.029 3.598-2.689 4.468-5.556 2.67-11.679 3.945-17.839 3.715-1.64.061-3.279.016-4.904-.134 2.334-.23 4.641-.675 6.892-1.33 5.244-.097 10.416-1.313 15.165-3.578 1.09-.577 1.795-1.677 1.875-2.896l.007-.245.005-2.043c-.006-2.27-1.283-4.346-3.307-5.375-1.45-.73-2.956-1.345-4.503-1.837l-.876-.27c-.275-.083-.535-.16-.788-.229l-.719-.187c-.253.788-.613 1.518-1.061 2.175-.375-.314-.784-.594-1.223-.833.349-.515.632-1.084.837-1.698-.192-.044-.388-.088-.587-.126l-.299-.05-.065-.023-.145-.066-.12-.088-.068-.023c-.904-.906-1.565-2.024-1.923-3.252-1.282.73-2.729 1.119-4.204 1.132-1.465-.003-2.904-.385-4.179-1.107l-.04.138c-.13-.315-.229-.64-.301-.975.25-.206.493-.421.727-.645 2.51 1.54 5.734 1.415 8.128-.376 2.147-1.665 3.645-4.027 4.236-6.679.055-.216.206-.396.41-.487.162-.092.356-.108.528-.046l.101.046.08.023c.102-.008.197-.056.265-.134.43-.452.695-1.032.76-1.647l.014-.233c.098-1.193-.333-2.079-.808-2.213-.233-.06-.478-.036-.693.065l-.29.157-.068.023h-.109l-.111.023h-.034l-.134-.023-.142-.045-.1-.066-.134-.111-.065-.088-.089-.132-.022-.068v-.065l-.02-.066c-.297-1.265-1.09-2.357-2.202-3.03-1.164-.485-2.433-.588-3.634-.32-.03-.507-.1-1.008-.201-1.5 1.646-.358 3.39-.12 4.906.712 1.095.749 1.923 1.826 2.367 3.076.386-.102.792-.094 1.173.022 1.449.652 2.239 2.233 1.892 3.783-.042 1.101-.508 2.144-1.303 2.908-.299.257-.67.415-1.062.453-.736 2.6-2.243 4.913-4.324 6.636.235 1.089.767 2.092 1.536 2.897.697.116 1.39.284 2.052.463l.87.24.81.239.9.275c.498.154.996.332 1.45.51 1.651-3.138 2.512-6.632 2.509-10.177 0-11.633-6.138-19.155-15.649-19.155-.983 0-1.93.08-2.838.237C13.27 1.31 12.56.953 11.823.68 13.357.233 15.013 0 16.775 0zM1.241 26.248c-.108.517-.282 1.016-.516 1.484-.27-.845-.49-1.703-.659-2.572.368.386.76.749 1.175 1.088z" transform="translate(-395 -1849) translate(0 202) translate(345 1607) translate(50 40) translate(18.75)"/>
                        </g>
                        <g fill="#45A7E7">
                            <path d="M36.898 32.291c-1.517-.769-3.095-1.412-4.717-1.923-.796-.242-1.47-.452-2.088-.618-.848-.235-1.707-.427-2.575-.574-.754-.821-1.276-1.828-1.513-2.917 2.084-1.714 3.59-4.028 4.312-6.629.395-.037.768-.195 1.07-.452.8-.76 1.27-1.803 1.312-2.905.092-.832-.045-1.673-.396-2.432.21-.935.316-1.89.32-2.849.048-3.12-1.253-6.112-3.57-8.203C26.735.697 23.627-.291 20.527.076c-3.102-.37-6.212.618-8.532 2.71-2.32 2.091-3.624 5.083-3.576 8.206 0 .937.104 1.87.31 2.783-.375.773-.524 1.635-.433 2.489.043 1.1.51 2.14 1.304 2.903.302.257.677.414 1.072.452.719 2.604 2.228 4.92 4.319 6.63-.237 1.135-.793 2.18-1.602 3.013-1.502.264-2.43.486-2.452.486-.652.177-1.326.376-2.12.618-1.62.514-3.195 1.164-4.706 1.943C1.584 33.575-.01 36.163 0 38.99v2.036c-.008 1.87 1.022 3.59 2.674 4.464 5.554 2.666 11.674 3.94 17.83 3.71 6.157.23 12.277-1.043 17.83-3.71 1.652-.876 2.68-2.595 2.673-4.464V38.99c.005-2.83-1.585-5.42-4.109-6.699zM20.528 1.578c2.7-.373 5.43.454 7.47 2.265 2.04 1.81 3.184 4.423 3.133 7.15 0 .53-.041 1.06-.122 1.583l-.208-.081c-.364-.102-.747-.117-1.118-.046-.12-.463-.296-1.17-.583-2.23l-.023-.046-.066-.13-.079-.134-.108-.088-.111-.066-.134-.045-.142-.043h-.057c-1.994.079-3.875-.927-4.916-2.63l-.088-.11-.073-.111-.158-.088-.1-.066-.133-.025h-.154l-.1.023-.176.045h-.011l-.111.088-.1.07c-2.616 2.281-6.099 3.305-9.534 2.804l-.11.02h-.143l-.134.045-.122.043-.12.111-.088.088-.065.134-.046.11c-.287 1.062-.475 1.768-.586 2.231-.375-.072-.762-.056-1.13.046l-.15.065c-.074-.52-.115-1.043-.122-1.568-.05-2.728 1.098-5.342 3.14-7.152 2.042-1.81 4.774-2.637 7.477-2.262zM11.93 18.615c-.049-.214-.193-.393-.391-.487-.2-.11-.442-.11-.64 0l-.069.023c-.107-.005-.209-.053-.28-.134-.477-.51-.748-1.179-.763-1.877-.108-1.193.322-2.077.797-2.21.279-.073.575-.024.817.133l.226.11c.225.074.471.042.67-.088.19-.128.302-.345.298-.574.032-.177.287-1.218.575-2.3.33.024.75.046 1.258.046 2.992.095 5.921-.876 8.264-2.74 1.252 1.556 3.108 2.504 5.102 2.607.299 1.104.575 2.187.597 2.321.006.242.12.469.31.618.193.135.437.176.663.11l.227-.11c.243-.16.542-.208.823-.134.453.134.905 1.018.806 2.21-.02.7-.296 1.368-.774 1.878l-.265.134-.077-.023c-.195-.11-.434-.11-.629 0-.207.087-.36.268-.41.487-.594 2.647-2.09 5.005-4.23 6.672-2.571 1.922-6.101 1.922-8.672 0-2.137-1.67-3.632-4.027-4.23-6.672h-.003zm4.385 8.527c2.594 1.479 5.776 1.479 8.37 0 .33 1.11.908 2.132 1.693 2.984-1.523 2.168-3.532 3.95-5.867 5.204-2.33-1.26-4.337-3.041-5.866-5.204.779-.853 1.35-1.874 1.672-2.984h-.002zM1.49 41.026V38.99c.002-2.261 1.275-4.33 3.294-5.348 1.441-.741 2.944-1.356 4.491-1.837.666-.242 1.346-.441 2.036-.598.663-.173 1.335-.312 2.012-.418 1.68 2.398 3.882 4.385 6.44 5.81v11.113c-5.667.112-11.282-1.106-16.393-3.557-1.162-.61-1.887-1.816-1.88-3.129zm38.036 0c.007 1.317-.722 2.528-1.889 3.138-5.105 2.445-10.712 3.66-16.37 3.548V36.599c2.583-1.425 4.793-3.44 6.45-5.883.67.118 1.333.269 1.988.453.62.156 1.26.355 2.036.597 1.541.492 3.04 1.106 4.484 1.835 2.024 1.027 3.304 3.1 3.315 5.369l-.014 2.056z" transform="translate(-395 -1849) translate(0 202) translate(345 1607) translate(50 40)"/>
                        </g>
                    </g>
                </g>
            </g>
        </g>
    </g>
</svg>
