<svg xmlns="http://www.w3.org/2000/svg" width="59" height="50" viewBox="0 0 59 50">
    <g fill="none" fill-rule="evenodd">
        <g fill="#45A7E7" fill-rule="nonzero">
            <g>
                <g>
                    <g>
                        <g>
                            <g>
                                <path d="M25.245 10.985c.61.006 1.111.464 1.185 1.056l.01.139v13.103c-.002.315-.13.616-.354.837-.186.185-.428.301-.685.333l-.156.01-11.604-.002c-.233-.4-.503-.78-.807-1.132h8.847v-.082l.058-.297.076-.293.009-.017c.039-.131.085-.26.139-.386l.087-.186.051-.102.144-.263.16-.254.08-.088c.08-.111.164-.219.253-.322l.138-.15.017-.016c.094-.094.193-.183.297-.266l.24-.19c.102-.078.212-.149.326-.218l.171-.102.11-.05c.123-.063.25-.119.378-.168l.195-.068h.024c.13-.046.262-.083.396-.112l.202-.038.068-.018V15.8l-.068-.017c-.136-.018-.272-.044-.406-.078l-.199-.056h-.017c-.131-.046-.26-.099-.386-.158l-.186-.094-.11-.052c-.115-.058-.225-.122-.332-.192l-.157-.11-.091-.067-.243-.196-.231-.209v-.017c-.096-.092-.186-.19-.269-.294l-.12-.16-.089-.101-.303-.506-.052-.1-.121-.283-.105-.289-.008-.017-.077-.302-.058-.305v-.085H3.557c.144-.368.27-.745.38-1.127h21.308zm.037 11.83l-.403.116-.093.025-.175.07-.17.081-.041.017-.178.111-.167.126-.076.05-.31.269v.017l-.321.37-.212.347-.176.395-.034.1-.109.405v.016h2.428l.046-.042-.009-2.474zM10.67 13.553c.276 0 .507.2.554.462l.01.102v.503c1.124.202 1.953 1.165 1.986 2.307 0 .15-.06.293-.165.4-.106.105-.25.164-.4.164-.275 0-.507-.195-.56-.456l-.012-.101c-.044-.685-.598-1.215-1.268-1.246l-.145.001c-.733-.046-1.367.506-1.423 1.238 0 .809.481 1.23 1.423 1.23.666-.078 1.332.14 1.823.597.49.457.756 1.106.727 1.776-.034 1.074-.769 1.989-1.792 2.263l-.195.044v.488c0 .191-.095.36-.24.462-.145-.089-.293-.17-.444-.247l-.444-.218v-.485c-1.122-.205-1.95-1.165-1.987-2.307-.012-.209.093-.407.273-.515.18-.108.404-.108.583 0 .18.108.285.306.273.515.056.68.61 1.203 1.278 1.231l.145-.001c.728.046 1.358-.502 1.413-1.23 0-.824-.47-1.229-1.413-1.229-.667.08-1.335-.139-1.826-.596-.492-.457-.757-1.107-.726-1.778.03-1.076.768-1.992 1.792-2.264l.196-.043v-.503c0-.312.252-.564.564-.564zm8.805 2.903c.492-.002.965.193 1.314.54.306.304.494.703.537 1.128l.01.184v.83c0 .968-.737 1.765-1.682 1.859l-.18.01h-.823c-.969-.005-1.762-.745-1.852-1.69l-.009-.18v-.829c0-.493.197-.965.546-1.312.306-.304.706-.49 1.131-.531l.184-.009h.824zm-16.786 0c.962 0 1.753.735 1.843 1.674l.008.178v.83c.001.802-.505 1.487-1.216 1.752l.42.11c-.848-.236-1.708-.428-2.575-.575C.674 19.888.28 19.27 0 18.604l.001-.295c0-.491.196-.963.543-1.31.305-.304.704-.491 1.128-.533l.183-.009h.833zm16.786 1.128h-.824c-.36.002-.656.264-.714.607l-.01.117v.826c-.002.192.074.377.21.513.109.11.25.18.4.203l.114.008h.824c.36 0 .658-.263.715-.607l.009-.117v-.826c-.006-.397-.327-.718-.724-.724zm-16.786.002h-.833c-.354.009-.645.268-.705.606l-.01.116v.83c0 .355.259.651.599.71l.116.01h.833c.36 0 .657-.263.714-.607l.01-.117v-.824c-.007-.398-.327-.718-.724-.724zm22.557-5.475h-2.428v.035l.109.403.034.093.152.345.024.035.212.353.059.085.269.301.388.338.344.22.033.011.345.173.093.034.2.057.203.043.018.018V12.18l-.055-.068zM20.469.04c.175.08.298.24.334.426l.01.114v7.727c.002.152-.057.298-.164.406-.08.08-.182.135-.292.156l-.112.01h-7.733c-.233.003-.443-.137-.53-.353-.072-.178-.05-.378.054-.534l.072-.088 1.633-1.633C11.435 5.003 8.596 5.23 6.22 5.834c-.065-.254-.155-.503-.266-.743l.103-.514C9.033 3.9 12.192 4.272 14.97 5.7c.14.096.229.25.245.418.013.135-.022.269-.097.38l-.063.077-1.18 1.185h5.81V1.943l-1.178 1.18c-.138.134-.333.188-.516.148l-.109-.034c-3.796-1.672-8.068-1.527-11.674.245.042-.411.063-.825.064-1.24C9.765.617 13.859.427 17.614 1.923l.353.146L19.845.173c.162-.165.408-.218.624-.133z" transform="translate(-425 -2012) translate(0 202) translate(345 1607) translate(50 188) translate(30 15) translate(31.25 8.75)"/>
                            </g>
                            <g>
                                <path d="M36.898 32.291c-1.517-.769-3.095-1.412-4.717-1.923-.796-.242-1.47-.452-2.088-.618-.848-.235-1.707-.427-2.575-.574-.754-.821-1.276-1.828-1.513-2.917 2.084-1.714 3.59-4.028 4.312-6.629.395-.037.768-.195 1.07-.452.8-.76 1.27-1.803 1.312-2.905.092-.832-.045-1.673-.396-2.432.21-.935.316-1.89.32-2.849.048-3.12-1.253-6.112-3.57-8.203C26.735.697 23.627-.291 20.527.076c-3.102-.37-6.212.618-8.532 2.71-2.32 2.091-3.624 5.083-3.576 8.206 0 .937.104 1.87.31 2.783-.375.773-.524 1.635-.433 2.489.043 1.1.51 2.14 1.304 2.903.302.257.677.414 1.072.452.719 2.604 2.228 4.92 4.319 6.63-.237 1.135-.793 2.18-1.602 3.013-1.502.264-2.43.486-2.452.486-.652.177-1.326.376-2.12.618-1.62.514-3.195 1.164-4.706 1.943C1.584 33.575-.01 36.163 0 38.99v2.036c-.008 1.87 1.022 3.59 2.674 4.464 5.554 2.666 11.674 3.94 17.83 3.71 6.157.23 12.277-1.043 17.83-3.71 1.652-.876 2.68-2.595 2.673-4.464V38.99c.005-2.83-1.585-5.42-4.109-6.699zM20.528 1.578c2.7-.373 5.43.454 7.47 2.265 2.04 1.81 3.184 4.423 3.133 7.15 0 .53-.041 1.06-.122 1.583l-.208-.081c-.364-.102-.747-.117-1.118-.046-.12-.463-.296-1.17-.583-2.23l-.023-.046-.066-.13-.079-.134-.108-.088-.111-.066-.134-.045-.142-.043h-.057c-1.994.079-3.875-.927-4.916-2.63l-.088-.11-.073-.111-.158-.088-.1-.066-.133-.025h-.154l-.1.023-.176.045h-.011l-.111.088-.1.07c-2.616 2.281-6.099 3.305-9.534 2.804l-.11.02h-.143l-.134.045-.122.043-.12.111-.088.088-.065.134-.046.11c-.287 1.062-.475 1.768-.586 2.231-.375-.072-.762-.056-1.13.046l-.15.065c-.074-.52-.115-1.043-.122-1.568-.05-2.728 1.098-5.342 3.14-7.152 2.042-1.81 4.774-2.637 7.477-2.262zM11.93 18.615c-.049-.214-.193-.393-.391-.487-.2-.11-.442-.11-.64 0l-.069.023c-.107-.005-.209-.053-.28-.134-.477-.51-.748-1.179-.763-1.877-.108-1.193.322-2.077.797-2.21.279-.073.575-.024.817.133l.226.11c.225.074.471.042.67-.088.19-.128.302-.345.298-.574.032-.177.287-1.218.575-2.3.33.024.75.046 1.258.046 2.992.095 5.921-.876 8.264-2.74 1.252 1.556 3.108 2.504 5.102 2.607.299 1.104.575 2.187.597 2.321.006.242.12.469.31.618.193.135.437.176.663.11l.227-.11c.243-.16.542-.208.823-.134.453.134.905 1.018.806 2.21-.02.7-.296 1.368-.774 1.878l-.265.134-.077-.023c-.195-.11-.434-.11-.629 0-.207.087-.36.268-.41.487-.594 2.647-2.09 5.005-4.23 6.672-2.571 1.922-6.101 1.922-8.672 0-2.137-1.67-3.632-4.027-4.23-6.672h-.003zm4.385 8.527c2.594 1.479 5.776 1.479 8.37 0 .33 1.11.908 2.132 1.693 2.984-1.523 2.168-3.532 3.95-5.867 5.204-2.33-1.26-4.337-3.041-5.866-5.204.779-.853 1.35-1.874 1.672-2.984h-.002zM1.49 41.026V38.99c.002-2.261 1.275-4.33 3.294-5.348 1.441-.741 2.944-1.356 4.491-1.837.666-.242 1.346-.441 2.036-.598.663-.173 1.335-.312 2.012-.418 1.68 2.398 3.882 4.385 6.44 5.81v11.113c-5.667.112-11.282-1.106-16.393-3.557-1.162-.61-1.887-1.816-1.88-3.129zm38.036 0c.007 1.317-.722 2.528-1.889 3.138-5.105 2.445-10.712 3.66-16.37 3.548V36.599c2.583-1.425 4.793-3.44 6.45-5.883.67.118 1.333.269 1.988.453.62.156 1.26.355 2.036.597 1.541.492 3.04 1.106 4.484 1.835 2.024 1.027 3.304 3.1 3.315 5.369l-.014 2.056z" transform="translate(-425 -2012) translate(0 202) translate(345 1607) translate(50 188) translate(30 15)"/>
                            </g>
                        </g>
                    </g>
                </g>
            </g>
        </g>
    </g>
</svg>
