<svg xmlns="http://www.w3.org/2000/svg" width="61" height="50" viewBox="0 0 61 50">
    <g fill="none" fill-rule="evenodd">
        <g fill="#9533A3" fill-rule="nonzero">
            <g>
                <g>
                    <g>
                        <g>
                            <path d="M19.444 3.362c3.926 3.932 3.997 10.256.214 14.275l-.214.221-.843.842.093.105c1.188 1.139 1.28 3.008.21 4.258-.517.584-1.243.94-2.02.993.778 1.156.68 2.691-.237 3.74-.548.629-1.337.996-2.17 1.01-.204 0-.388-.017-.573-.034.042.256.05.516.024.774-.11 1.175-.894 2.18-2.007 2.573-1.113.394-2.353.107-3.179-.737-.095.895-.581 1.7-1.328 2.202l-.1.062v-.939c0-.196-.008-.391-.023-.585.177-.258.29-.56.323-.88.046-.508-.111-1.013-.433-1.404l-.113-.126-.767-.77c-.647-1.117-1.58-2.066-2.731-2.734l-1.868-1.87c.172-.365.334-.735.487-1.108L7.882 28.9l.05.068 1.563 1.567c.648.657 1.662.782 2.45.303.482-.31.793-.827.842-1.398.053-.508-.102-1.013-.424-1.404l-.114-.125-8.638-8.638c-.077-.08-.126-.175-.15-.275.034-.153.063-.307.091-.462l.059-.074c.197-.194.5-.216.721-.065l.079.065 8.645 8.638v.018c.37.362.872.557 1.39.54.522-.005 1.018-.232 1.363-.625.624-.764.592-1.86-.052-2.586l-.12-.124-1.136-1.145-7.4-7.391c-.203-.225-.195-.568.018-.783.189-.19.481-.22.702-.084l.08.06 7.391 7.388.009.017c.372.365.876.565 1.398.555.466-.012.908-.197 1.243-.514l.12-.126c.625-.762.594-1.858-.049-2.584l-.12-.124L7.817 9.523l-3.569 3.57c-.108.108-.223.209-.343.301-.015-.502-.041-.995-.078-1.48L8.473 7.27c.106-.107.25-.166.4-.166.15 0 .294.06.4.166.11.102.171.245.171.394 0 .12-.04.235-.111.33l-.06.065-.652.657 9.18 9.193.834-.841c3.564-3.568 3.564-9.348 0-12.916C15.005.534 9.175.466 5.461 3.947l-.212.204-2.36 2.359c-.117-.413-.244-.817-.38-1.212l.535-.533-.835-.841c-.125-.126-.254-.248-.386-.366-.352-.786-.745-1.532-1.178-2.234.76.42 1.48.942 2.14 1.565l.224.217.835.845.596-.59v-.017l.443-.438.173-.118C9.27-.795 15.528-.545 19.444 3.362zm-1.634 9.915c.232 0 .44.14.53.354.088.214.038.46-.126.624-.225.219-.583.219-.808 0-.164-.164-.213-.41-.125-.624.089-.214.298-.354.53-.354z" transform="translate(-621 -1849) translate(0 202) translate(345 1607) translate(276 40) translate(37.5 6.25)"/>
                        </g>
                        <g>
                            <path d="M36.937 32.25c-.596-.287-1.228-.597-1.88-.862 1.718-3.316 2.614-6.995 2.612-10.73C37.669 8.119 30.933 0 20.525 0 10.118 0 3.384 8.118 3.384 20.659c-.005 3.732.886 7.412 2.598 10.729-.641.287-1.27.575-1.869.883C1.588 33.543-.004 36.13 0 38.957v2.039c-.008 1.874 1.027 3.597 2.686 4.468 5.56 2.67 11.687 3.946 17.85 3.715 6.16.23 12.283-1.045 17.84-3.715 1.66-.87 2.696-2.594 2.688-4.468v-2.039c-.001-2.835-1.597-5.428-4.127-6.706zM4.877 20.66c0-11.633 6.138-19.155 15.648-19.155s15.649 7.522 15.649 19.155c.003 3.545-.858 7.039-2.51 10.176-.453-.177-.951-.355-1.45-.51-.794-.242-1.47-.452-2.088-.618-.808-.226-1.671-.453-2.543-.598-.77-.805-1.3-1.808-1.536-2.897 2.08-1.723 3.588-4.037 4.324-6.636.392-.038.763-.196 1.062-.453.795-.764 1.261-1.807 1.303-2.908.347-1.55-.443-3.13-1.892-3.783-.381-.116-.787-.124-1.173-.022-.444-1.25-1.272-2.327-2.367-3.076-2.11-1.158-4.662-1.165-6.779-.02-2.104-1.197-4.676-1.23-6.81-.089-1.124.765-1.955 1.887-2.358 3.185-.377-.103-.776-.095-1.149.022-1.45.65-2.24 2.233-1.891 3.783.043 1.098.511 2.136 1.305 2.897.298.257.67.415 1.062.453.728 2.608 2.246 4.926 4.346 6.636-.236 1.115-.767 2.146-1.538 2.985-1.585.265-2.543.51-2.543.51-.652.177-1.327.376-2.125.618l-1.458.51c-1.645-3.136-2.5-6.625-2.49-10.165zm9.114 9.977l.077-.045.142-.044.123-.088.065-.045c.92-.924 1.59-2.065 1.948-3.318 1.275.722 2.714 1.104 4.18 1.107 1.474-.013 2.921-.403 4.203-1.132.358 1.228 1.02 2.346 1.923 3.252l.068.023.12.088.145.066.065.023c.3.043.598.11.886.176-1.043 3.127-4.137 5.094-7.41 4.711-3.238.366-6.3-1.55-7.39-4.62.283-.066.568-.117.855-.154zm-2.578-16.634l.077.04c.116.078.249.125.388.137.195.004.384-.071.524-.209.14-.137.217-.325.216-.52.253-1.266 1.007-2.375 2.09-3.076 1.805-.728 3.848-.56 5.51.452.192.089.413.089.606 0 1.64-.976 3.646-1.119 5.409-.385 1.111.674 1.905 1.766 2.201 3.031l.02.066v.065l.023.068.089.132.065.088.134.111.1.066.142.045.134.023h.034l.111-.023h.109l.068-.023.165-.088c.242-.157.538-.205.818-.134.475.134.906 1.02.808 2.213-.015.701-.291 1.372-.774 1.88-.068.078-.163.126-.265.134l-.08-.023c-.195-.111-.434-.111-.63 0-.203.091-.354.27-.41.487-.59 2.652-2.088 5.014-4.235 6.68-2.574 1.924-6.108 1.924-8.681 0-2.139-1.673-3.635-4.032-4.236-6.68-.048-.214-.192-.394-.392-.487-.199-.11-.441-.11-.64 0l-.073.023c-.103-.008-.198-.056-.265-.134-.488-.505-.765-1.177-.775-1.88-.11-1.193.331-2.079.798-2.213.279-.074.576-.025.817.134zm28.158 26.994c.006 1.315-.72 2.526-1.882 3.141-5.348 2.55-11.232 3.772-17.153 3.56-5.92.215-11.805-1.007-17.152-3.56-1.168-.61-1.898-1.823-1.891-3.141v-2.039c.006-2.265 1.284-4.334 3.307-5.354 1.44-.742 2.94-1.357 4.486-1.84.667-.24 1.348-.44 2.039-.597l.342-.089c1.23 3.771 4.909 6.186 8.858 5.817 3.957.374 7.643-2.055 8.858-5.84l.345.09c.618.155 1.259.355 2.038.597 1.547.492 3.053 1.106 4.503 1.837 2.024 1.029 3.3 3.104 3.307 5.375l-.005 2.043z" transform="translate(-621 -1849) translate(0 202) translate(345 1607) translate(276 40)"/>
                        </g>
                    </g>
                </g>
            </g>
        </g>
    </g>
</svg>
