<svg xmlns="http://www.w3.org/2000/svg" width="62" height="50" viewBox="0 0 62 50">
    <g fill="none" fill-rule="evenodd">
        <g fill-rule="nonzero">
            <g>
                <g>
                    <g>
                        <g fill="#EAC213">
                            <path d="M1.04 1.625C3.11.342 5.573-.217 8.028.076c3.1-.368 6.208.621 8.526 2.713 2.317 2.091 3.618 5.082 3.57 8.203-.004.959-.11 1.914-.32 2.849.307.665.45 1.391.42 2.12l-.024.312c-.042 1.102-.513 2.145-1.312 2.905-.302.257-.675.415-1.07.452-.723 2.6-2.228 4.915-4.312 6.63.237 1.088.76 2.095 1.513 2.916.868.147 1.727.339 2.575.574l.378.105.809.239.901.274c1.622.511 3.2 1.154 4.717 1.923 2.431 1.231 3.995 3.68 4.103 6.386l.006.313v2.036c.008 1.87-1.021 3.588-2.672 4.464-5.554 2.667-11.674 3.94-17.83 3.71-2.536.095-5.065-.066-7.55-.473 1.556-.25 3.097-.596 4.611-1.038.488.02.976.03 1.465.03l.734-.007h1.502l.003-.959v.959l.704.007c5.183.002 10.306-1.108 15.023-3.255l.641-.3c1.094-.572 1.803-1.672 1.882-2.892l.007-.246.014-2.056c-.011-2.27-1.29-4.342-3.315-5.369-1.443-.73-2.943-1.343-4.484-1.835l-.873-.27c-.275-.083-.535-.159-.788-.228l-.375-.099c-.655-.184-1.319-.335-1.989-.453-.917 1.353-2.004 2.575-3.231 3.638-.296-.384-.63-.738-.998-1.06 1.09-.925 2.062-1.99 2.89-3.168-.785-.852-1.364-1.873-1.692-2.984-1.023.583-2.137.936-3.27 1.06.183-.531.345-1.069.488-1.61 1.038-.206 2.042-.64 2.93-1.305 2.142-1.667 3.637-4.025 4.232-6.672.05-.22.202-.4.41-.487.162-.092.355-.108.527-.046l.101.046.077.023.265-.134c.425-.454.69-1.032.757-1.646l.017-.231c.1-1.193-.353-2.077-.806-2.21-.234-.063-.481-.04-.697.062l-.126.07-.227.111c-.226.066-.47.025-.663-.11-.19-.15-.304-.376-.31-.618l-.098-.416-.381-1.467-.118-.438c-.095.03-.206.06-.33.09l-.413.09-.485.09-.268.045-.582.087-.635.082-.681.077-.72.07-.748.06-.77.05c-.26.014-.522.027-.785.038-.145-.445-.302-.879-.47-1.301l.38-.007.749-.021.734-.032.715-.043.688-.052.333-.03.641-.064.602-.073.56-.08.51-.086.236-.045.428-.095c.332-.08.6-.166.792-.254l.105-.053h.057l.142.043.134.045.11.066.11.088.078.133.089.177.409 1.55.174.68c.297-.057.601-.058.898-.005l.22.05.208.082c.08-.524.121-1.053.122-1.584.051-2.726-1.094-5.339-3.133-7.15-2.04-1.81-4.77-2.637-7.47-2.264-2.018-.28-4.052.11-5.802 1.077-.466-.312-.95-.599-1.451-.859l.266-.171z" transform="translate(-1073 -1849) translate(0 202) translate(345 1607) translate(728 40) translate(32.5)"/>
                        </g>
                        <g fill="#9533A3">
                            <path d="M36.937 32.25c-.596-.287-1.228-.597-1.88-.862 1.718-3.316 2.614-6.995 2.612-10.73C37.669 8.119 30.933 0 20.525 0 10.118 0 3.384 8.118 3.384 20.659c-.005 3.732.886 7.412 2.598 10.729-.641.287-1.27.575-1.869.883C1.588 33.543-.004 36.13 0 38.957v2.039c-.008 1.874 1.027 3.597 2.686 4.468 5.56 2.67 11.687 3.946 17.85 3.715 6.16.23 12.283-1.045 17.84-3.715 1.66-.87 2.696-2.594 2.688-4.468v-2.039c-.001-2.835-1.597-5.428-4.127-6.706zM4.877 20.66c0-11.633 6.138-19.155 15.648-19.155s15.649 7.522 15.649 19.155c.003 3.545-.858 7.039-2.51 10.176-.453-.177-.951-.355-1.45-.51-.794-.242-1.47-.452-2.088-.618-.808-.226-1.671-.453-2.543-.598-.77-.805-1.3-1.808-1.536-2.897 2.08-1.723 3.588-4.037 4.324-6.636.392-.038.763-.196 1.062-.453.795-.764 1.261-1.807 1.303-2.908.347-1.55-.443-3.13-1.892-3.783-.381-.116-.787-.124-1.173-.022-.444-1.25-1.272-2.327-2.367-3.076-2.11-1.158-4.662-1.165-6.779-.02-2.104-1.197-4.676-1.23-6.81-.089-1.124.765-1.955 1.887-2.358 3.185-.377-.103-.776-.095-1.149.022-1.45.65-2.24 2.233-1.891 3.783.043 1.098.511 2.136 1.305 2.897.298.257.67.415 1.062.453.728 2.608 2.246 4.926 4.346 6.636-.236 1.115-.767 2.146-1.538 2.985-1.585.265-2.543.51-2.543.51-.652.177-1.327.376-2.125.618l-1.458.51c-1.645-3.136-2.5-6.625-2.49-10.165zm9.114 9.977l.077-.045.142-.044.123-.088.065-.045c.92-.924 1.59-2.065 1.948-3.318 1.275.722 2.714 1.104 4.18 1.107 1.474-.013 2.921-.403 4.203-1.132.358 1.228 1.02 2.346 1.923 3.252l.068.023.12.088.145.066.065.023c.3.043.598.11.886.176-1.043 3.127-4.137 5.094-7.41 4.711-3.238.366-6.3-1.55-7.39-4.62.283-.066.568-.117.855-.154zm-2.578-16.634l.077.04c.116.078.249.125.388.137.195.004.384-.071.524-.209.14-.137.217-.325.216-.52.253-1.266 1.007-2.375 2.09-3.076 1.805-.728 3.848-.56 5.51.452.192.089.413.089.606 0 1.64-.976 3.646-1.119 5.409-.385 1.111.674 1.905 1.766 2.201 3.031l.02.066v.065l.023.068.089.132.065.088.134.111.1.066.142.045.134.023h.034l.111-.023h.109l.068-.023.165-.088c.242-.157.538-.205.818-.134.475.134.906 1.02.808 2.213-.015.701-.291 1.372-.774 1.88-.068.078-.163.126-.265.134l-.08-.023c-.195-.111-.434-.111-.63 0-.203.091-.354.27-.41.487-.59 2.652-2.088 5.014-4.235 6.68-2.574 1.924-6.108 1.924-8.681 0-2.139-1.673-3.635-4.032-4.236-6.68-.048-.214-.192-.394-.392-.487-.199-.11-.441-.11-.64 0l-.073.023c-.103-.008-.198-.056-.265-.134-.488-.505-.765-1.177-.775-1.88-.11-1.193.331-2.079.798-2.213.279-.074.576-.025.817.134zm28.158 26.994c.006 1.315-.72 2.526-1.882 3.141-5.348 2.55-11.232 3.772-17.153 3.56-5.92.215-11.805-1.007-17.152-3.56-1.168-.61-1.898-1.823-1.891-3.141v-2.039c.006-2.265 1.284-4.334 3.307-5.354 1.44-.742 2.94-1.357 4.486-1.84.667-.24 1.348-.44 2.039-.597l.342-.089c1.23 3.771 4.909 6.186 8.858 5.817 3.957.374 7.643-2.055 8.858-5.84l.345.09c.618.155 1.259.355 2.038.597 1.547.492 3.053 1.106 4.503 1.837 2.024 1.029 3.3 3.104 3.307 5.375l-.005 2.043z" transform="translate(-1073 -1849) translate(0 202) translate(345 1607) translate(728 40)"/>
                        </g>
                    </g>
                </g>
            </g>
        </g>
    </g>
</svg>
