<svg xmlns="http://www.w3.org/2000/svg" width="65" height="50" viewBox="0 0 65 50">
    <g fill="none" fill-rule="evenodd">
        <g fill="#9533A3" fill-rule="nonzero">
            <g>
                <g>
                    <g>
                        <g>
                            <g>
                                <path d="M22.845 10.985c.61.006 1.112.464 1.185 1.056l.01.139v13.103c-.002.315-.13.616-.353.837-.187.185-.428.301-.686.333l-.156.01-17.783-.002c-.23-.4-.498-.78-.799-1.133l15.018.002v-.083l.058-.297.077-.293.008-.017c.039-.131.085-.26.14-.386l.086-.186.052-.102.143-.263.16-.254.081-.088c.079-.111.163-.219.252-.322l.138-.15.017-.016c.095-.094.194-.183.297-.266l.241-.19c.101-.078.212-.149.325-.218l.172-.102.11-.05c.123-.063.249-.119.377-.168l.195-.068h.024c.13-.046.262-.083.396-.112l.203-.038.067-.018V15.8l-.067-.017c-.137-.018-.273-.044-.406-.078l-.2-.056h-.017c-.131-.046-.26-.099-.386-.158l-.186-.094-.11-.052c-.114-.058-.225-.122-.331-.192l-.157-.11-.092-.067-.243-.196-.23-.209v-.017c-.097-.092-.187-.19-.27-.294l-.119-.16-.09-.101-.303-.506-.052-.1-.12-.283-.105-.289-.01-.017-.076-.302-.058-.305v-.085H2.668v-.203c0-.311-.004-.62-.012-.925h20.189zm.038 11.83l-.404.116-.093.025-.175.07-.17.081-.041.017-.177.111-.168.126-.076.05-.31.269v.017l-.32.37-.213.347-.176.395-.034.1-.109.405v.016h2.428l.046-.042-.008-2.474zM8.269 13.553c.277 0 .507.2.555.462l.009.102v.503c1.124.202 1.953 1.165 1.986 2.307 0 .15-.059.293-.165.4-.105.105-.25.164-.399.164-.276 0-.508-.195-.56-.456l-.012-.101c-.045-.685-.599-1.215-1.269-1.246l-.145.001c-.733-.046-1.366.506-1.422 1.238 0 .809.48 1.23 1.422 1.23.666-.078 1.333.14 1.823.597.491.457.757 1.106.727 1.776-.034 1.074-.769 1.989-1.791 2.263l-.195.044v.488c0 .312-.253.564-.564.564-.277 0-.507-.2-.555-.462l-.009-.102v-.488c-1.123-.205-1.951-1.165-1.988-2.307-.011-.209.094-.407.273-.515.18-.108.404-.108.584 0 .18.108.284.306.273.515.055.68.61 1.203 1.277 1.231l.145-.001c.728.046 1.359-.502 1.414-1.23 0-.824-.47-1.229-1.414-1.229-.667.08-1.334-.139-1.826-.596-.491-.457-.757-1.107-.726-1.778.031-1.076.768-1.992 1.793-2.264l.195-.043v-.503c0-.312.253-.564.564-.564zm8.805 2.903c.493-.002.966.193 1.315.54.305.304.494.703.536 1.128l.01.184v.83c0 .968-.737 1.765-1.681 1.859l-.18.01h-.824c-.968-.005-1.762-.745-1.852-1.69l-.008-.18v-.829c0-.493.197-.965.546-1.312.305-.304.705-.49 1.13-.531l.184-.009h.824zM2.131 18.131l.009.178v.83c0 .824-.533 1.524-1.275 1.772.456-1.092.828-2.215 1.113-3.359.08.179.134.374.153.579zm14.943-.546h-.824c-.359.002-.656.264-.714.607l-.01.117v.826c-.002.192.074.377.21.513.11.11.25.18.4.203l.114.008h.824c.36 0 .659-.263.715-.607l.01-.117v-.826c-.007-.397-.328-.718-.725-.724zm5.77-5.473h-2.427v.035l.109.403.034.093.152.345.024.035.212.353.059.085.269.301.388.338.345.22.032.011.345.173.093.034.2.057.204.043.017.018V12.18l-.055-.068zM18.07.04c.175.08.298.24.334.426l.01.114v7.727c.003.152-.057.298-.164.406-.08.08-.182.135-.292.156l-.112.01h-7.733c-.232.003-.443-.137-.53-.353-.072-.178-.05-.378.055-.534l.072-.088L11.34 6.27c-2.868-1.577-6.56-.842-9.163.057-.076-.416-.161-.825-.255-1.226 3.45-1.31 7.322-1.111 10.648.597.139.096.228.25.244.418.013.135-.022.269-.096.38l-.064.077-1.18 1.185h5.81V1.943l-1.178 1.18c-.138.134-.332.188-.516.148l-.108-.034C10.96 1.245 5.76 1.832 1.818 4.677c-.092-.363-.191-.721-.298-1.073C5.42.8 10.576.074 15.215 1.924l.352.145L17.445.173c.163-.165.408-.218.624-.133z" transform="translate(-847 -2012) translate(0 202) translate(345 1607) translate(50 188) translate(452 15) translate(40 8.75)"/>
                            </g>
                            <g>
                                <path d="M36.937 32.25c-.596-.287-1.228-.597-1.88-.862 1.718-3.316 2.614-6.995 2.612-10.73C37.669 8.119 30.933 0 20.525 0 10.118 0 3.384 8.118 3.384 20.659c-.005 3.732.886 7.412 2.598 10.729-.641.287-1.27.575-1.869.883C1.588 33.543-.004 36.13 0 38.957v2.039c-.008 1.874 1.027 3.597 2.686 4.468 5.56 2.67 11.687 3.946 17.85 3.715 6.16.23 12.283-1.045 17.84-3.715 1.66-.87 2.696-2.594 2.688-4.468v-2.039c-.001-2.835-1.597-5.428-4.127-6.706zM4.877 20.66c0-11.633 6.138-19.155 15.648-19.155s15.649 7.522 15.649 19.155c.003 3.545-.858 7.039-2.51 10.176-.453-.177-.951-.355-1.45-.51-.794-.242-1.47-.452-2.088-.618-.808-.226-1.671-.453-2.543-.598-.77-.805-1.3-1.808-1.536-2.897 2.08-1.723 3.588-4.037 4.324-6.636.392-.038.763-.196 1.062-.453.795-.764 1.261-1.807 1.303-2.908.347-1.55-.443-3.13-1.892-3.783-.381-.116-.787-.124-1.173-.022-.444-1.25-1.272-2.327-2.367-3.076-2.11-1.158-4.662-1.165-6.779-.02-2.104-1.197-4.676-1.23-6.81-.089-1.124.765-1.955 1.887-2.358 3.185-.377-.103-.776-.095-1.149.022-1.45.65-2.24 2.233-1.891 3.783.043 1.098.511 2.136 1.305 2.897.298.257.67.415 1.062.453.728 2.608 2.246 4.926 4.346 6.636-.236 1.115-.767 2.146-1.538 2.985-1.585.265-2.543.51-2.543.51-.652.177-1.327.376-2.125.618l-1.458.51c-1.645-3.136-2.5-6.625-2.49-10.165zm9.114 9.977l.077-.045.142-.044.123-.088.065-.045c.92-.924 1.59-2.065 1.948-3.318 1.275.722 2.714 1.104 4.18 1.107 1.474-.013 2.921-.403 4.203-1.132.358 1.228 1.02 2.346 1.923 3.252l.068.023.12.088.145.066.065.023c.3.043.598.11.886.176-1.043 3.127-4.137 5.094-7.41 4.711-3.238.366-6.3-1.55-7.39-4.62.283-.066.568-.117.855-.154zm-2.578-16.634l.077.04c.116.078.249.125.388.137.195.004.384-.071.524-.209.14-.137.217-.325.216-.52.253-1.266 1.007-2.375 2.09-3.076 1.805-.728 3.848-.56 5.51.452.192.089.413.089.606 0 1.64-.976 3.646-1.119 5.409-.385 1.111.674 1.905 1.766 2.201 3.031l.02.066v.065l.023.068.089.132.065.088.134.111.1.066.142.045.134.023h.034l.111-.023h.109l.068-.023.165-.088c.242-.157.538-.205.818-.134.475.134.906 1.02.808 2.213-.015.701-.291 1.372-.774 1.88-.068.078-.163.126-.265.134l-.08-.023c-.195-.111-.434-.111-.63 0-.203.091-.354.27-.41.487-.59 2.652-2.088 5.014-4.235 6.68-2.574 1.924-6.108 1.924-8.681 0-2.139-1.673-3.635-4.032-4.236-6.68-.048-.214-.192-.394-.392-.487-.199-.11-.441-.11-.64 0l-.073.023c-.103-.008-.198-.056-.265-.134-.488-.505-.765-1.177-.775-1.88-.11-1.193.331-2.079.798-2.213.279-.074.576-.025.817.134zm28.158 26.994c.006 1.315-.72 2.526-1.882 3.141-5.348 2.55-11.232 3.772-17.153 3.56-5.92.215-11.805-1.007-17.152-3.56-1.168-.61-1.898-1.823-1.891-3.141v-2.039c.006-2.265 1.284-4.334 3.307-5.354 1.44-.742 2.94-1.357 4.486-1.84.667-.24 1.348-.44 2.039-.597l.342-.089c1.23 3.771 4.909 6.186 8.858 5.817 3.957.374 7.643-2.055 8.858-5.84l.345.09c.618.155 1.259.355 2.038.597 1.547.492 3.053 1.106 4.503 1.837 2.024 1.029 3.3 3.104 3.307 5.375l-.005 2.043z" transform="translate(-847 -2012) translate(0 202) translate(345 1607) translate(50 188) translate(452 15)"/>
                            </g>
                        </g>
                    </g>
                </g>
            </g>
        </g>
    </g>
</svg>
