<svg xmlns="http://www.w3.org/2000/svg" width="26" height="32" viewBox="0 0 26 32">
    <defs>
        <radialGradient id="r76q6wmioa" cx="92.454%" cy="-145.291%" r="140.582%" fx="92.454%" fy="-145.291%" gradientTransform="matrix(.7548 -.53539 .65596 .61607 1.18 -.063)">
            <stop offset="0%" stop-color="#ABF0FF"/>
            <stop offset="35.37%" stop-color="#10C0E6"/>
            <stop offset="100%" stop-color="#0071DB"/>
        </radialGradient>
    </defs>
    <g fill="none" fill-rule="evenodd" opacity=".8">
        <g fill="url(#r76q6wmioa)" transform="translate(-1214 -408)">
            <g>
                <g>
                    <g>
                        <path d="M25.53 11.994c.258 0 .467.209.467.466v8.074c0 3.47-2.822 6.291-6.291 6.291H16.26c-.129 0-.246.076-.298.194l-1.812 4.08c-.205.461-.646.748-1.151.748s-.946-.287-1.15-.748l-1.813-4.08c-.052-.118-.17-.194-.298-.194H6.294c-3.468 0-6.29-2.822-6.29-6.29v-1.308c0-.257.208-.466.466-.466s.466.209.466.466v1.307c0 2.955 2.404 5.358 5.358 5.358H9.74c.497 0 .949.294 1.15.748l1.813 4.08c.078.175.234.194.298.194.064 0 .22-.019.298-.194l1.812-4.08c.202-.454.654-.748 1.15-.748h3.446c2.954 0 5.358-2.403 5.358-5.358V12.46c0-.257.208-.466.466-.466zM13.004 18.77c1.01 0 1.831.822 1.831 1.832 0 1.01-.821 1.83-1.83 1.83-1.01 0-1.832-.82-1.832-1.83 0-1.01.821-1.832 1.831-1.832zm0 .934c-.495 0-.898.402-.898.898 0 .495.403.898.898.898s.898-.403.898-.898c0-.496-.403-.898-.898-.898zM19.706 0c3.469 0 6.29 2.822 6.29 6.291v4.303c0 .258-.208.467-.466.467s-.466-.21-.466-.467V6.291c0-2.954-2.404-5.358-5.358-5.358H6.294C3.34.933.936 3.337.936 6.291v11.07c0 .258-.208.467-.466.467s-.467-.21-.467-.467V6.291C.003 2.822 2.825 0 6.294 0zM13.1 4.217c2.778.056 5.067 2.272 5.21 5.045.077 1.476-.44 2.878-1.456 3.948-.578.608-1.304 1.078-2.1 1.358-.062.021-.102.075-.102.135v2.012c0 .437-.355.792-.792.792h-1.739c-.437 0-.793-.355-.793-.792V12.62c0-.593.482-1.075 1.075-1.075h.587c.555 0 1.07-.222 1.453-.625.382-.402.577-.93.548-1.487-.054-1.04-.914-1.873-1.958-1.894-1.016-.021-1.886.72-2.026 1.721-.06.428-.427.748-.856.748H8.537c-.239 0-.468-.1-.63-.277-.162-.177-.243-.417-.222-.657.007-.09.018-.182.03-.273.373-2.668 2.688-4.64 5.386-4.585zm-.02.932c-2.224-.044-4.135 1.582-4.442 3.782l-.018.145h1.47c.232-1.442 1.496-2.498 2.961-2.469 1.53.031 2.792 1.252 2.871 2.779.043.814-.243 1.588-.803 2.178-.56.59-1.316.915-2.129.915h-.587c-.078 0-.142.064-.142.142v3.953h1.458v-1.87c0-.456.292-.864.725-1.016.658-.232 1.257-.619 1.733-1.12.838-.883 1.265-2.04 1.202-3.258-.12-2.287-2.007-4.114-4.298-4.16z" transform="translate(345 202) translate(0 185) translate(869 21)"/>
                    </g>
                </g>
            </g>
        </g>
    </g>
</svg>
