<svg xmlns="http://www.w3.org/2000/svg" width="60" height="60" viewBox="0 0 60 60">
    <g fill="none" fill-rule="evenodd">
        <g fill="#3698E4" fill-rule="nonzero">
            <g>
                <g>
                    <path d="M57.371 0l.222.003.556.023.383.031.204.023c.401.06.717.376.777.777l.033.314.038.628.01.426v.325l-.007.355-.016.386-.024.415-.035.444-.048.473-.06.5-.036.26-.084.54-.1.566-.118.591-.137.616-.077.317-.169.65c-1.74 6.4-6.656 15.97-20.127 25.83l-.705.51-2.789 11.823c-.031.12-.083.231-.152.332l-.075.097L22.73 59.347c-.137.135-.312.224-.5.259l-.142.015-.255-.052c-.266-.074-.48-.268-.583-.52l-.038-.111-3.041-13.643-3.843-3.843L.72 38.388c-.329-.054-.596-.296-.683-.618-.083-.274-.027-.57.146-.793l.082-.09L12.358 24.77c.088-.082.192-.144.305-.183l.115-.032 11.804-2.816c5.09-7.089 10.114-11.884 14.68-15.122l.756-.525c.627-.426 1.244-.822 1.851-1.192l.724-.43c.479-.278.951-.54 1.416-.785l.691-.356c.229-.115.455-.225.68-.333l.668-.31c.22-.1.44-.196.655-.289l.643-.268.63-.247.616-.229.602-.21.588-.191.289-.09.565-.166.277-.077.542-.142.527-.128.51-.114.493-.1.24-.045.467-.082.667-.1.422-.055.403-.045.569-.05.688-.041.463-.015L57.37 0zm-21.74 36.565c-4.594 3.05-9.39 5.78-14.356 8.174l-1.245.591 2.58 11.582 10.764-10.75 2.257-9.597zm-24.32 7.143c.277-.084.575-.032.804.135l.094.08 3.46 3.48c.21.198.303.486.256.765l-.029.119-2.105 7.025c-.083.258-.272.465-.516.572l-.127.045-.214.025c-.193-.007-.379-.07-.534-.182l-.11-.093-8.362-8.364c-.226-.224-.318-.55-.242-.86.06-.272.25-.496.503-.603l.112-.039 7.01-2.105zm0 1.861l-5.053 1.532 6.248 6.256 1.513-5.081-2.707-2.707zM42.33 6.915c-11.61 8.257-20.669 19.6-26.155 32.735l-.319.775 3.324 3.324c13.211-5.346 24.65-14.294 33.017-25.817l.479-.668L42.329 6.915zm-19.28 17.05l-9.607 2.279-10.75 10.75 11.574 2.574c2.346-4.993 5.028-9.82 8.027-14.45l.757-1.153zm16.539-8.19c1.124 0 2.203.448 2.996 1.245 1.648 1.654 1.645 4.33-.007 5.98-1.651 1.649-4.327 1.649-5.979 0-1.651-1.65-1.654-4.326-.007-5.98.794-.797 1.872-1.245 2.997-1.245zm-.007 1.81c-.64.005-1.254.255-1.716.698-.938.951-.938 2.48 0 3.431.452.462 1.07.722 1.716.722.646 0 1.264-.26 1.716-.722.457-.454.714-1.071.714-1.715 0-.645-.257-1.262-.714-1.716-.46-.446-1.075-.696-1.716-.697zM57.756 1.849c-4.692.112-9.276 1.418-13.32 3.789l-.523.315 9.726 9.729c2.457-3.996 3.864-8.544 4.094-13.222l.023-.611z" transform="translate(-345 -3739) translate(345 3665) translate(0 74)"/>
                </g>
            </g>
        </g>
    </g>
</svg>
