<svg xmlns="http://www.w3.org/2000/svg" width="20" height="20" viewBox="0 0 20 20">
    <g fill="none" fill-rule="evenodd">
        <g fill="#FFF" fill-rule="nonzero">
            <g>
                <g>
                    <g>
                        <g>
                            <path d="M9.994 0C4.481 0 0 4.48 0 9.994c0 5.513 4.48 9.994 9.994 9.994 5.513 0 9.994-4.48 9.994-9.994C19.988 4.481 15.508 0 9.994 0zm0 18.98c-4.95 0-8.985-4.036-8.985-8.986 0-4.95 4.035-8.985 8.985-8.985 4.95 0 8.985 4.035 8.985 8.985 0 4.95-4.035 8.985-8.985 8.985z" transform="translate(-785 -340) translate(735 160) translate(50 154) translate(0 21) translate(0 5)"/>
                            <path d="M10.698 9.947l2.932-2.932c.188-.188.188-.516 0-.704-.187-.188-.516-.188-.703 0L9.994 9.243 7.062 6.311c-.188-.188-.517-.188-.704 0-.188.188-.188.516 0 .704L9.29 9.947l-2.932 2.91c-.188.187-.188.515 0 .703.094.094.234.14.352.14.117 0 .258-.046.352-.14l2.932-2.932 2.933 2.932c.094.094.234.14.352.14.117 0 .258-.046.351-.14.188-.188.188-.516 0-.704l-2.932-2.909z" transform="translate(-785 -340) translate(735 160) translate(50 154) translate(0 21) translate(0 5)"/>
                        </g>
                    </g>
                </g>
            </g>
        </g>
    </g>
</svg>
