<svg xmlns="http://www.w3.org/2000/svg" width="24" height="28" viewBox="0 0 24 28">
    <g fill="none" fill-rule="evenodd" opacity=".7">
        <g fill="#FFF" fill-rule="nonzero">
            <g>
                <g>
                    <g>
                        <g>
                            <path d="M11.51.112c.154-.15.398-.15.553 0 2.755 3.018 6.965 4.245 10.91 3.18.129-.057.277-.042.392.039.098.064.164.166.183.28l.005.068v7.136c.288 7.497-4.33 14.297-11.377 16.806l-.283.098-.11.026-.112-.026C4.56 25.325-.155 18.592.004 11.115l.009-.3V3.68c.002-.14.072-.27.188-.348.115-.08.264-.095.393-.039C4.541 4.357 8.752 3.13 11.51.112zm.273.873C8.981 3.761 5.009 4.995 1.138 4.307l-.283-.054v6.562c-.297 7.18 4.142 13.706 10.928 16.067 6.74-2.268 11.176-8.688 10.94-15.771l-.013-.296V4.253c-3.96.801-8.058-.424-10.927-3.268zm-.312 4.304c2.755 0 5.14 1.915 5.736 4.605.596 2.69-.757 5.432-3.254 6.597.017.093.028.187.033.282l.004.142v1.322c.579.168.99.673 1.043 1.265l.006.12v3.344c0 .76-.588 1.384-1.334 1.442l-.113.004H9.353c-.761 0-1.386-.586-1.447-1.333l-.005-.113v-3.344c.006-.604.383-1.136.94-1.347l.114-.038v-1.322c-.001-.142.01-.284.033-.424-2.497-1.165-3.85-3.908-3.253-6.598.596-2.69 2.981-4.604 5.736-4.604zm2.12 13.735H9.35c-.16-.003-.315.06-.43.171-.091.09-.151.206-.172.331l-.008.096v3.344c.006.305.234.554.529.592l.081.006h4.243c.305 0 .558-.223.603-.516l.007-.082v-3.344c0-.16-.066-.314-.18-.427-.092-.09-.21-.147-.335-.165l-.095-.006zm-2.12 1.097c.26.006.492.17.583.415.081.217.038.459-.108.633l-.06.062v.995c.009.156-.07.304-.203.385-.134.08-.301.08-.435 0-.115-.07-.188-.188-.202-.319l-.001-.066v-.992c-.134-.122-.211-.294-.212-.474 0-.17.067-.332.187-.452.1-.1.229-.163.367-.181l.084-.006zm1.671-3.319c-1.011.31-2.088.332-3.108.067l-.235-.067-.013.113v1.26h3.363v-1.26l-.007-.113zm-1.67-1.57c-.573 0-1.106.29-1.415.772.919.283 1.9.283 2.82 0-.308-.479-.837-.77-1.406-.773zm-.005-9.117c-2.35 0-4.387 1.622-4.914 3.912-.527 2.29.597 4.64 2.71 5.667.353-.63.957-1.076 1.657-1.231l.151-.029-.024-.114v-.311c-.774-.153-1.339-.821-1.36-1.61.005-.23.194-.413.424-.411.229-.002.415.182.418.411.015.236.124.456.302.611.179.156.412.233.648.216.487.031.908-.337.941-.824 0-.556-.311-.812-.941-.812-.467.059-.936-.093-1.281-.413-.345-.32-.531-.777-.507-1.247.026-.742.53-1.377 1.234-1.579l.126-.03v-.3c-.009-.157.07-.305.203-.385.134-.08.302-.08.435 0 .115.069.189.187.202.318l.002.066v.3c.77.16 1.33.825 1.355 1.61 0 .15-.08.287-.209.362-.129.074-.288.074-.417 0-.13-.075-.21-.213-.21-.362-.038-.483-.458-.844-.94-.811-.484-.034-.905.328-.943.81 0 .545.306.823.942.823.464-.057.93.093 1.273.41.343.318.529.77.508 1.237-.018.745-.523 1.384-1.232 1.58l-.127.03v.311l-.023.114c.71.114 1.336.526 1.723 1.127l.08.131c2.112-1.026 3.236-3.376 2.71-5.665-.528-2.29-2.566-3.912-4.916-3.912z" transform="translate(-1007 -1087) translate(345 997) translate(0 60) translate(466) translate(196 30)"/>
                        </g>
                    </g>
                </g>
            </g>
        </g>
    </g>
</svg>
