<svg xmlns="http://www.w3.org/2000/svg" width="24" height="24" viewBox="0 0 24 24">
    <g fill="none" fill-rule="evenodd" opacity=".7">
        <g fill="#FFF" fill-rule="nonzero">
            <g>
                <g>
                    <g>
                        <path d="M22.988 0c.173 0 .318.124.35.289l.007.064v22.575c0 .175-.127.32-.293.35l-.064.007H2.878c-.093 0-.183-.039-.25-.106-.049-.05-.082-.113-.095-.182l-.006-.07v-3.37c-.007-.13.059-.255.171-.323.113-.068.254-.068.366 0 .094.057.156.152.17.259l.002.064v3.024h19.4V4.233h-19.4v8.385c.007.132-.06.256-.172.324-.112.068-.253.068-.366 0-.093-.057-.155-.153-.169-.259l-.002-.065V.357c-.001-.094.035-.185.102-.252.049-.05.112-.084.18-.098L2.88 0h20.109zM7.462 17.584c.362 0 .66.271.704.622l.005.082v1.417c-.003.36-.274.655-.622.698l-.082.005H6.05c-.094 0-.184-.038-.25-.105s-.103-.158-.102-.252c.002-.093.04-.182.106-.247.05-.049.114-.081.181-.093l.07-.006h1.412v-1.417l-.704.01c-.196-.004-.353-.162-.357-.357 0-.175.126-.32.293-.351l.064-.006h.7zm8.865 2.12c.126 0 .242.068.304.177.063.108.063.242 0 .351-.052.09-.141.152-.242.17l-.062.006h-5.994c-.126 0-.242-.067-.305-.176-.063-.109-.063-.243 0-.351.053-.091.142-.153.243-.17l.062-.006h5.994zm-8.509-8.417c.549.004 1 .422 1.055.957l.005.101v2.11c0 .554-.418 1.01-.957 1.07l-.103.006H6.407l-1.505 4.398c-.04.121-.14.21-.26.235l-.063.007h-.018c-.12-.001-.23-.063-.294-.162l-.028-.053-1.237-2.794-2.786-1.24c-.138-.05-.226-.187-.215-.335.002-.122.07-.233.175-.291l.055-.025 4.407-1.511v-1.413c.004-.549.423-1 .959-1.054l.101-.005h2.12zm-1.627 2.688L1.32 15.652l2.089.925c.059.028.11.07.149.122l.034.056.93 2.09 1.669-4.87zm14.371 3.609c.198 0 .357.16.357.357-.003.174-.128.318-.293.35l-.064.007h-5.29c-.195-.005-.35-.163-.352-.357-.001-.094.035-.185.101-.252.05-.05.113-.084.18-.098l.07-.007h5.291zm-7.41 0c.094 0 .185.037.252.104s.105.158.104.253c-.002.174-.127.319-.293.35l-.064.007h-2.818c-.195-.004-.35-.163-.352-.357-.001-.094.036-.185.102-.252.05-.05.112-.084.18-.098l.07-.007h2.818zm4.586-3.475c.198 0 .357.16.357.357 0 .175-.126.321-.292.351l-.065.006h-1.753c-.197 0-.357-.16-.357-.357 0-.175.126-.32.293-.35l.064-.007h1.753zm-3.516 0c.197 0 .357.16.357.357 0 .175-.126.321-.293.351l-.064.006h-3.89c-.196 0-.356-.16-.356-.357 0-.175.126-.32.293-.35l.064-.007h3.89zM7.818 12h-2.12c-.17.001-.31.123-.34.284l-.007.062-.003 1.176 1.296-.451c.129-.043.27-.01.366.086.08.08.116.191.101.3l-.015.065-.443 1.302h1.166c.177-.005.32-.135.347-.303l.005-.064v-2.11c-.001-.093-.039-.182-.105-.247-.05-.048-.112-.08-.18-.094L7.819 12zm12.744 0c.126 0 .242.067.305.176.063.109.063.243 0 .351-.052.091-.142.153-.243.17l-.062.006h-6.35c-.195 0-.352-.157-.352-.351 0-.173.124-.316.288-.346l.063-.006h6.351zm-8.472 0c.194 0 .352.158.352.352 0 .172-.124.316-.288.346l-.064.005h-1.757c-.194 0-.352-.157-.352-.351 0-.173.125-.316.289-.346l.063-.006h1.757zM7.467 6.404c.36.002.656.272.699.621l.005.082v1.418c-.003.36-.274.655-.622.698l-.082.005H6.054c-.36 0-.657-.272-.698-.621l-.005-.082V7.107c0-.36.272-.658.621-.698l.082-.005h1.413zm10.977 2.12c.194 0 .351.158.351.352 0 .173-.124.316-.288.346l-.063.006h-3.87c-.095 0-.187-.037-.254-.104s-.104-.158-.103-.253c.001-.093.04-.182.106-.247.05-.049.114-.081.182-.093l.069-.006h3.87zm-5.639 0c.194 0 .352.158.352.352 0 .173-.125.316-.289.346l-.063.006h-2.472c-.194 0-.352-.158-.352-.352 0-.172.125-.316.289-.346l.063-.005h2.472zM7.467 7.108H6.054v1.418h1.413V7.107zm13.095-.703c.198 0 .357.16.357.357 0 .093-.038.183-.105.248-.05.048-.114.08-.182.093l-.07.005H17.75c-.093.002-.183-.034-.249-.099s-.103-.154-.102-.247c-.002-.094.035-.185.101-.252.05-.05.113-.084.18-.098l.07-.007h2.813zm-4.934 0c.094 0 .185.038.251.105s.103.157.102.252c0 .093-.037.182-.104.247-.05.049-.112.081-.18.093l-.069.006h-5.295c-.093.002-.183-.034-.25-.099-.065-.065-.102-.154-.102-.247-.001-.094.036-.185.102-.252.05-.05.112-.084.18-.098l.07-.007h5.295zm7.008-5.7L3.236.702v2.824h19.4V.703zm-1.753 1.164c.14-.135.362-.135.502 0 .067.063.105.15.107.242.001.199-.158.36-.357.363-.094.001-.184-.038-.247-.108-.07-.065-.109-.159-.105-.255.002-.09.037-.176.1-.242zm-3.879 0c.14-.134.36-.139.504-.01.061.07.096.16.1.252.003.095-.033.187-.1.255-.065.07-.157.109-.252.107-.096.002-.187-.037-.252-.107-.067-.067-.103-.16-.1-.255.001-.068.022-.133.058-.19l.042-.052zm2.194-.104c.193 0 .35.154.352.346 0 .194-.158.352-.352.352-.194 0-.351-.158-.351-.352.001-.192.159-.347.351-.346z" transform="translate(-753 -1089) translate(345 997) translate(0 60) translate(408 32)"/>
                    </g>
                </g>
            </g>
        </g>
    </g>
</svg>
