<svg xmlns="http://www.w3.org/2000/svg" width="24" height="25" viewBox="0 0 24 25">
    <g fill="none" fill-rule="evenodd" opacity=".7">
        <g fill="#050447">
            <g>
                <g>
                    <g>
                        <g>
                            <path d="M10.505 13.732c.116-.07.261-.07.377 0 .116.07.185.199.177.334v.628c.49.046.967.174 1.414.38l.32-.542c.1-.174.32-.237.498-.14.175.105.235.33.136.509l-.318.542c.406.282.759.634 1.04 1.04l.548-.314c.173-.1.395-.042.498.13.05.083.064.183.04.277-.025.094-.086.174-.17.222l-.555.314c.208.448.338.928.385 1.42h.628c.202 0 .366.165.366.367 0 .097-.04.189-.108.256-.07.068-.163.104-.26.101h-.628c-.044.493-.175.973-.385 1.42l.555.326c.084.048.144.128.169.222.024.093.01.193-.04.276-.066.11-.184.18-.313.184-.065-.002-.129-.02-.185-.054l-.547-.314c-.285.404-.637.755-1.04 1.04l.32.542c.1.175.042.397-.13.5-.057.034-.12.053-.185.055-.13-.001-.25-.071-.314-.184l-.32-.555c-.445.21-.923.338-1.413.378v.638c-.011.195-.172.347-.366.347s-.355-.152-.366-.347v-.64c-.492-.041-.973-.17-1.42-.378l-.314.555c-.067.113-.188.183-.32.184-.063-.003-.125-.021-.178-.055-.086-.046-.148-.126-.174-.22-.026-.094-.012-.194.037-.278l.32-.542c-.405-.284-.758-.635-1.041-1.04l-.555.314c-.054.033-.115.052-.179.054-.13-.004-.25-.073-.32-.184-.097-.175-.037-.397.136-.498l.545-.324c-.21-.447-.338-.928-.378-1.42h-.635c-.096.001-.189-.035-.257-.103-.068-.067-.107-.159-.106-.255 0-.097.037-.19.105-.26.068-.069.16-.108.258-.108h.635c.043-.492.172-.973.38-1.42l-.547-.315c-.13-.054-.216-.178-.222-.318-.006-.14.07-.272.194-.337.124-.066.274-.054.387.03l.554.314c.281-.407.634-.76 1.041-1.04l-.32-.54c-.065-.114-.066-.254 0-.367.065-.114.185-.184.316-.184s.253.069.318.182l.314.537c.45-.205.93-.333 1.42-.38v-.628c-.007-.135.061-.264.178-.334zm1.52 1.944c-1.304-.54-2.806-.242-3.804.757-.998.998-1.296 2.5-.755 3.803.54 1.304 1.813 2.154 3.225 2.154 1.924-.006 3.484-1.565 3.488-3.49 0-1.412-.85-2.684-2.154-3.224zm-1.52.375c.116-.07.261-.07.377 0 .116.07.185.198.177.333v.229c.619.13 1.067.668 1.083 1.3.008.135-.06.263-.177.333-.116.07-.261.07-.377 0-.117-.07-.185-.198-.177-.334-.03-.368-.351-.644-.72-.617h-.1c-.326.023-.595.282-.622.619 0 .411.239.618.722.618.377-.038.753.09 1.03.349s.428.625.416 1.004c-.017.632-.465 1.17-1.084 1.301v.222c.008.135-.06.264-.176.334-.116.07-.262.07-.378 0-.116-.07-.184-.199-.177-.334v-.222c-.619-.13-1.067-.668-1.084-1.3 0-.201.163-.363.363-.363.2 0 .363.162.363.362.052.358.36.623.721.623.362 0 .669-.265.721-.623 0-.422-.233-.629-.72-.629-.376.04-.75-.085-1.027-.343-.277-.258-.428-.623-.415-1 .016-.633.465-1.17 1.084-1.3v-.229c-.008-.135.06-.264.177-.333zm7.375-9.393c.533-.086 1.076-.086 1.61 0 .153.022.273.145.292.299l.222 1.354.035.012 1.11-.803c.125-.097.3-.097.426 0 .439.313.822.697 1.133 1.135.09.127.09.296 0 .422l-.802 1.11.017.032 1.35.212c.156.027.278.151.302.308.093.525.093 1.066.006 1.597-.026.156-.148.278-.303.303l-1.35.222-.016.032.802 1.11c.09.127.09.296 0 .423-.312.44-.69.829-1.124 1.15-.13.09-.302.085-.427-.01l-1.11-.802-.033.021-.222 1.355c-.023.154-.145.274-.299.293-.533.086-1.076.086-1.609 0-.154-.021-.276-.14-.303-.293l-.212-1.355-.037-.01-1.11.79c-.126.096-.298.1-.428.012-.437-.322-.82-.71-1.138-1.149-.095-.125-.095-.298 0-.423l.801-1.11-.01-.032-1.355-.222c-.155-.024-.278-.147-.302-.302-.088-.531-.088-1.073 0-1.604.025-.156.147-.278.302-.304l1.355-.212.005-.032-.801-1.11c-.095-.124-.095-.297 0-.422.313-.439.698-.823 1.138-1.135.126-.097.302-.097.428 0l1.11.803.032-.012.212-1.354c.024-.156.147-.278.303-.299zm1.23.678c-.282-.032-.567-.032-.85 0l-.207 1.3c-.024.133-.12.242-.248.282-.12.045-.238.096-.353.153-.12.06-.265.047-.373-.034l-1.063-.769c-.222.183-.425.387-.606.61l.77 1.06c.08.106.092.249.031.368-.057.115-.106.234-.146.357-.043.129-.153.225-.286.25l-1.295.205c-.018.14-.027.281-.028.423 0 .144.01.287.028.43l1.295.206c.134.016.246.11.286.238.04.123.089.242.146.357.06.123.048.269-.032.38l-.769 1.052c.177.226.38.429.606.606l1.057-.77c.115-.074.26-.086.384-.031.11.061.227.112.348.15.131.043.227.157.248.293l.207 1.29c.282.033.568.033.85 0l.206-1.29c.023-.134.116-.245.244-.293.124-.039.243-.09.358-.15.123-.055.266-.043.38.032l1.056.769c.226-.177.43-.38.607-.606l-.77-1.049c-.08-.11-.093-.256-.033-.38.059-.114.108-.234.147-.357.041-.13.156-.224.293-.238l1.29-.205c.016-.144.026-.29.027-.434 0-.142-.01-.283-.027-.423l-1.29-.205c-.135-.023-.248-.12-.292-.25-.04-.122-.089-.241-.144-.357-.06-.12-.048-.262.033-.369l.766-1.06c-.18-.224-.384-.428-.607-.609l-1.057.77c-.11.08-.257.093-.38.033-.113-.06-.23-.11-.351-.153-.128-.042-.223-.15-.25-.281zM7.414 0c.382.001.692.311.693.694v.573c.208.044.414.099.617.163l.288-.498c.193-.33.617-.441.948-.25l.85.499c.16.09.276.241.324.418.048.177.023.366-.068.525l-.288.498c.157.141.309.293.45.444l.498-.28c.33-.193.754-.082.949.248l.492.857c.19.33.076.752-.254.942l-.5.293c.066.203.12.41.164.618h.58c.38.002.69.31.693.692v.987c-.003.382-.312.69-.694.693h-.579c-.044.205-.098.408-.163.607l.5.293c.162.088.279.242.319.423.049.175.025.362-.066.52l-.492.856c-.092.16-.244.277-.422.324-.179.047-.369.02-.527-.074l-.498-.282c-.141.15-.293.303-.45.444l.288.498c.19.334.076.759-.256.954l-.85.487c-.158.095-.348.122-.526.075-.179-.047-.331-.164-.422-.324l-.288-.499c-.203.065-.409.12-.617.164v.573c.002.185-.07.362-.201.492-.13.13-.308.203-.492.202h-.977c-.185.002-.363-.07-.495-.2-.131-.13-.204-.309-.203-.494v-.573c-.208-.044-.415-.099-.618-.164l-.287.499c-.092.16-.244.277-.422.324-.179.047-.369.02-.527-.075l-.85-.487c-.331-.195-.445-.62-.254-.954l.292-.498c-.162-.141-.309-.293-.455-.444l-.499.282c-.158.094-.348.12-.526.074-.178-.047-.33-.164-.421-.324l-.494-.857C.585 9.8.56 9.611.609 9.434c.047-.177.164-.327.323-.418l.498-.293c-.065-.195-.118-.412-.163-.607H.694C.31 8.116 0 7.806 0 7.423v-.987c.001-.382.311-.692.694-.692h.573c.045-.207.098-.412.163-.618l-.498-.293c-.33-.19-.445-.612-.255-.942l.494-.857c.09-.16.243-.273.421-.314.177-.055.369-.031.526.065l.499.281c.146-.15.293-.303.455-.444l-.292-.498c-.092-.159-.117-.347-.07-.525.048-.177.165-.327.324-.418l.85-.499c.331-.191.755-.08.949.25l.287.498c.203-.064.41-.119.618-.163V.694c0-.185.074-.362.205-.492s.309-.203.493-.202zm11.275 9.753c.987.002 1.786.801 1.788 1.788 0 .723-.435 1.376-1.104 1.653-.669.277-1.438.124-1.95-.387-.512-.512-.665-1.282-.387-1.95.277-.669.93-1.104 1.653-1.104zM7.374.726h-.905v.845c-.001.183-.134.338-.314.369-.362.056-.718.15-1.062.28-.168.065-.359.002-.455-.15l-.421-.738-.787.456.423.737c.093.157.054.36-.091.471-.287.23-.548.49-.777.777-.114.139-.311.174-.466.084l-.737-.417-.45.786.724.424c.159.085.229.276.163.443-.134.343-.23.699-.285 1.062-.026.18-.18.315-.363.314H.726v.91h.845c.183 0 .337.134.363.314.056.364.151.72.285 1.062.067.168-.002.359-.16.445l-.727.433.45.781.737-.427c.158-.09.358-.05.47.094.228.288.489.549.776.777.14.114.175.312.083.466l-.422.737.79.455.422-.737c.096-.153.287-.216.455-.152.342.136.699.23 1.062.282.18.031.312.186.314.368v.846h.905v-.846c.002-.182.134-.338.315-.368.365-.053.724-.147 1.067-.282.166-.065.354 0 .444.152l.419.737.79-.455-.422-.737c-.087-.151-.048-.344.091-.45.289-.237.55-.506.78-.8.114-.139.31-.175.466-.087l.737.422.455-.777-.737-.433c-.154-.09-.218-.278-.152-.444.131-.343.226-.699.282-1.062.026-.18.18-.313.363-.314h.845v-.91h-.845c-.183 0-.337-.134-.363-.315-.056-.363-.15-.719-.282-1.062-.066-.165-.002-.354.152-.444l.737-.418-.455-.79-.74.42c-.156.088-.353.052-.466-.087-.227-.289-.488-.55-.777-.777-.145-.112-.184-.314-.09-.471l.426-.738-.79-.455-.424.735c-.09.153-.278.218-.444.152-.345-.128-.703-.222-1.067-.28-.18-.03-.313-.185-.315-.368V.726zm11.714 9.833c-.398-.164-.855-.072-1.158.233-.304.305-.393.762-.227 1.159s.555.654.985.652c.584-.004 1.056-.478 1.056-1.062 0-.43-.259-.818-.656-.982zM4.508 4.517c.974-.977 2.441-1.27 3.716-.743 1.275.527 2.107 1.77 2.108 3.15 0 1.884-1.524 3.411-3.408 3.414-1.38.001-2.624-.829-3.153-2.103-.53-1.274-.239-2.742.736-3.718zm4.307.507c-.767-.766-1.92-.994-2.921-.578-1.001.416-1.653 1.394-1.652 2.478.004 1.48 1.204 2.676 2.682 2.677C8.008 9.6 8.985 8.946 9.4 7.944c.414-1.002.183-2.154-.584-2.92zM15.578.367l1.094 1.887h-.731V5.97c0 .2-.163.363-.363.363-.2 0-.363-.162-.363-.363V2.254h-.726L15.578.367zm2.864 0l1.088 1.887h-.723V4.54c-.01.194-.171.346-.366.346-.194 0-.355-.152-.365-.346l-.003-2.287h-.725L18.442.367z" transform="translate(-708 -566) translate(0 202) translate(345 263) translate(1) translate(362 101)"/>
                        </g>
                    </g>
                </g>
            </g>
        </g>
    </g>
</svg>
