<svg xmlns="http://www.w3.org/2000/svg" width="24" height="24" viewBox="0 0 24 24">
    <g fill="none" fill-rule="evenodd" opacity=".7">
        <g fill="#FFF" fill-rule="nonzero">
            <g>
                <g>
                    <g>
                        <g>
                            <path d="M22.075 0c.95.002 1.729.735 1.804 1.666l.006.149v15.974c0 .48-.191.94-.531 1.278-.302.3-.699.483-1.12.52l-.16.006h-7.46v1.923h.511c1.109.002 2.007.901 2.009 2.01 0 .097-.038.19-.106.259-.052.051-.117.086-.188.1l-.072.006H7.122c-.097 0-.19-.037-.259-.106-.068-.069-.107-.162-.106-.26.002-1.058.82-1.924 1.86-2.003l.149-.006h.51v-1.923H1.815c-.95.003-1.73-.726-1.808-1.655L0 17.789V1.815C.002.864.735.084 1.666.006L1.815 0h20.26zm-6.95 22.246h-6.36c-.526.002-.994.322-1.191.801l-.043.123h8.824c-.147-.505-.585-.864-1.1-.917l-.13-.007zm-1.235-2.653H10v1.927h3.889v-1.927zm9.275-2.707H.725v.908c.004.559.428 1.017.972 1.078l.118.006h20.26c.56 0 1.02-.422 1.084-.966l.007-.118-.001-.908zM22.075.73H1.815c-.288 0-.565.113-.77.317-.175.174-.285.402-.313.645l-.007.123v14.34h1.971v-3.007c0-.201.164-.365.365-.365.097 0 .189.04.256.108.05.051.085.116.098.186l.006.071v3.008h1.816v-5.189c.01-.192.17-.343.363-.343.168 0 .311.115.351.273l.011.07v5.189h1.815v-3.74c-.007-.134.06-.26.174-.33.115-.068.258-.068.372 0 .092.056.153.148.17.25l.005.08v3.74h1.815v-4.457c-.008-.135.06-.262.175-.331.115-.07.259-.07.374 0 .092.055.154.148.171.251l.004.08v4.457h1.816v-5.908c.011-.193.17-.343.363-.343.169 0 .311.115.352.273l.01.07v5.908h1.815v-5.189c0-.199.161-.36.36-.36.174 0 .319.124.352.288l.008.072v5.19h1.817V8.8c.015-.189.172-.335.362-.335.166 0 .307.112.35.266l.012.069v7.356h1.815V7.713c0-.095.037-.187.105-.254s.16-.103.256-.101c.095-.002.188.034.257.101.051.05.086.114.1.183l.008.071v8.443h1.971V1.815c0-.289-.116-.565-.32-.769-.176-.174-.405-.282-.648-.31L22.075.73zM18.68 5.28l2.15.263-1.3 1.734-.28-.66-.762.322-2.498 2.138c-.076.062-.171.092-.267.086l-.071-.011-2.39-.682-2.407 1.37-.075.031-2.541.73c-.071.02-.146.015-.214-.01l-.065-.031-2.32-1.32-2.34 2.006c-.068.053-.152.083-.239.084-.107 0-.209-.046-.28-.127-.108-.13-.11-.314-.013-.444l.057-.06 2.54-2.17c.097-.082.228-.108.345-.072l.07.03L8.184 9.86l2.348-.677 2.503-1.418c.063-.039.136-.055.208-.048l.072.016 2.346.667 2.396-2.053.092-.054.815-.343-.285-.671zM9.958 6.853c.096 0 .188.04.256.108.067.068.105.161.104.257 0 .096-.038.188-.106.255-.051.05-.116.083-.186.095l-.071.006H6.49c-.095 0-.186-.037-.253-.104-.067-.066-.104-.157-.103-.252-.002-.174.12-.32.283-.357l.073-.008h3.468zm-5.253 0c.096 0 .188.039.256.108.068.068.105.16.105.257 0 .096-.038.187-.106.254-.05.05-.115.083-.185.096l-.07.006H3.06c-.095.002-.188-.035-.257-.102-.068-.066-.107-.158-.108-.254 0-.176.126-.323.292-.357l.073-.008h1.644zm8.508-2.212c.199 0 .36.16.36.36 0 .173-.123.318-.287.352l-.073.007H8.852c-.199 0-.36-.16-.36-.36 0-.173.123-.318.287-.352l.073-.007h4.361zm-6.15 0c.199 0 .36.16.36.36 0 .173-.123.318-.287.352l-.073.007H3.061c-.198 0-.36-.16-.36-.36 0-.173.124-.318.288-.352l.072-.007h4.002zm6.15-2.213c.199 0 .36.16.36.36 0 .173-.123.318-.287.352l-.073.007h-2.552c-.198 0-.36-.16-.36-.36 0-.173.124-.318.288-.352l.072-.007h2.552zm-4.34 0c.198 0 .36.16.36.36 0 .173-.124.318-.288.352l-.072.007H3.06c-.198 0-.36-.16-.36-.36 0-.173.124-.318.288-.352l.072-.007h5.812z" transform="translate(-1265 -1438) translate(345 997) translate(0 410) translate(722) translate(198 31)"/>
                        </g>
                    </g>
                </g>
            </g>
        </g>
    </g>
</svg>
