<svg xmlns="http://www.w3.org/2000/svg" width="24" height="23" viewBox="0 0 24 23">
    <g fill="none" fill-rule="evenodd" opacity=".7">
        <g fill="#FFF" fill-rule="nonzero">
            <g>
                <g>
                    <g>
                        <g>
                            <path d="M12.061 13.68c2.486.006 4.499 2.02 4.502 4.506-.003 2.486-2.02 4.499-4.505 4.497-2.485-.001-4.499-2.017-4.498-4.502 0-2.486 2.016-4.5 4.501-4.5zm1.447.999c-1.418-.588-3.05-.263-4.134.822-1.084 1.085-1.408 2.717-.82 4.134.589 1.417 1.973 2.34 3.507 2.337 2.09-.003 3.786-1.697 3.786-3.788.001-1.534-.922-2.918-2.34-3.505zm-1.624.494c.11-.063.245-.063.355 0 .11.064.177.18.177.308v.262c.665.13 1.15.705 1.166 1.382 0 .196-.159.355-.355.355-.196 0-.355-.16-.355-.355-.032-.417-.394-.73-.81-.7-.418-.03-.78.283-.812.7 0 .465.276.699.811.699.398-.047.797.084 1.09.358.293.274.45.662.43 1.063-.021.672-.505 1.24-1.166 1.368v.275c0 .196-.159.355-.355.355-.196 0-.355-.16-.355-.355v-.275c-.66-.128-1.144-.696-1.166-1.368 0-.196.159-.355.355-.355.196 0 .355.159.355.355.06.402.404.7.811.7.407 0 .752-.298.811-.7 0-.467-.276-.711-.81-.711-.397.047-.795-.082-1.087-.354-.293-.272-.452-.659-.434-1.058.018-.676.503-1.249 1.166-1.379v-.262c0-.127.068-.244.178-.308zm7.52-3.732c.697.02 1.251.59 1.251 1.288 0 .697-.554 1.268-1.251 1.288-.47.014-.909-.229-1.147-.633-.239-.404-.239-.906 0-1.31.238-.404.678-.647 1.147-.633zm-15.236-.53c.704 0 1.277.568 1.282 1.272.005.52-.305.992-.785 1.194-.479.202-1.033.095-1.402-.272-.37-.366-.48-.92-.282-1.4.198-.48.667-.794 1.187-.794zm15.45 1.293c-.214-.089-.461-.04-.625.126-.164.164-.212.412-.122.626.09.214.3.353.533.351.151 0 .296-.06.403-.168.107-.107.166-.253.166-.404 0-.232-.14-.442-.354-.53zM7.712 3.187c1.582 0 2.872 1.266 2.903 2.847v6.659c-.004.197-.163.356-.36.36-.197-.005-.354-.164-.356-.36v-6.66c0-1.207-.978-2.186-2.186-2.186s-2.187.98-2.187 2.187c0 .199-.161.36-.36.36-.095 0-.186-.038-.253-.106-.067-.067-.104-.159-.103-.254.03-1.581 1.32-2.847 2.902-2.847zm6.954 1.894c.72-.416 1.606-.416 2.325 0 .719.415 1.162 1.182 1.162 2.013 0 .196-.159.355-.355.355-.196 0-.355-.16-.355-.355-.023-.874-.738-1.57-1.612-1.57-.874 0-1.589.696-1.611 1.57v5.599c-.002.196-.16.355-.355.36-.198-.005-.356-.163-.36-.36v-5.6c0-.83.442-1.597 1.161-2.012zM4.17 11.62c-.312.001-.565.254-.565.567-.001.312.25.566.563.569.152 0 .298-.06.405-.168.108-.108.168-.254.167-.406-.003-.312-.257-.563-.57-.562zm10.242-9.328c1.704-.994 3.81-.994 5.514 0 1.703.994 2.739 2.829 2.711 4.8v1.464c.007.133-.06.258-.173.327-.113.068-.256.068-.37 0-.113-.069-.18-.194-.172-.327V7.094c0-2.627-2.13-4.756-4.756-4.756-2.626 0-4.755 2.13-4.755 4.756v5.238c.001.095-.036.187-.103.254-.066.068-.157.106-.252.107l-.07-.008c-.069-.014-.133-.048-.183-.099-.066-.068-.103-.159-.102-.254V7.094l.002-.246c.057-1.878 1.077-3.602 2.71-4.555zm7.876 7.356c.708.001 1.282.575 1.283 1.284 0 .708-.575 1.283-1.283 1.283-.71 0-1.284-.575-1.284-1.283 0-.71.575-1.284 1.284-1.284zm.218.753c-.214-.089-.46-.04-.625.124-.164.164-.213.411-.124.625.09.215.299.354.53.354.153.005.3-.056.407-.164.108-.109.167-.256.166-.408 0-.232-.14-.442-.354-.53zM1.283 8.388c.708 0 1.282.574 1.284 1.282 0 .52-.312.987-.792 1.186-.48.2-1.031.09-1.399-.277C.01 10.212-.1 9.659.098 9.18c.198-.48.666-.792 1.185-.792zm15.604.173c.37-.369.925-.478 1.407-.277.482.202.794.674.792 1.196-.001.709-.576 1.282-1.285 1.282-.522.002-.993-.312-1.194-.794-.2-.482-.09-1.038.28-1.407zm-15.2.69c-.167-.164-.415-.21-.63-.118-.213.092-.35.304-.346.537 0 .151.06.296.168.402.107.106.253.164.404.161.233 0 .443-.14.532-.356.088-.216.037-.463-.129-.627zm16.322-.302c-.215-.089-.462-.038-.626.128-.163.166-.21.414-.118.628.092.214.304.351.536.347.314-.003.565-.259.564-.572 0-.233-.14-.443-.356-.531zM5.165 7.126c.34 0 .667.134.907.375.24.24.376.567.375.907.003.523-.31.995-.793 1.196-.482.201-1.038.092-1.407-.278-.37-.37-.48-.925-.278-1.407.201-.482.673-.795 1.196-.793zm.218.753c-.215-.089-.461-.04-.625.124-.164.165-.213.411-.124.626.09.214.299.353.53.353.153 0 .299-.06.406-.168.107-.108.168-.254.167-.406 0-.232-.14-.44-.354-.53zm-.2-7.683c2.508-.672 5.156.421 6.46 2.668.098.17.041.387-.128.487-.173.095-.39.033-.487-.138C9.884 1.247 7.564.292 5.368.883c-2.196.59-3.725 2.58-3.729 4.853v1.56c.001.095-.036.186-.103.254-.066.068-.158.106-.253.106-.198 0-.36-.162-.36-.36v-1.56C.928 3.14 2.674.87 5.183.196z" transform="translate(-1521 -1439) translate(345 997) translate(0 410) translate(978) translate(198 32)"/>
                        </g>
                    </g>
                </g>
            </g>
        </g>
    </g>
</svg>
