<svg xmlns="http://www.w3.org/2000/svg" width="24" height="24" viewBox="0 0 24 24">
    <g fill="none" fill-rule="evenodd" opacity=".7">
        <g fill="#FFF" fill-rule="nonzero">
            <g>
                <g>
                    <g>
                        <path d="M18.607 0l.022.01.094.011.037.011.1.075 4.377 4.376h.006l.067.105.011.034.022.092h.002v18.14c-.002.171-.127.312-.29.341l-.062.006H6.331c-.172 0-.315-.121-.347-.284l-.006-.063v-7.663h-.092c-.332 0-.606-.248-.646-.569l-.005-.082v-.514c-.12-.024-.24-.052-.36-.085l-.177-.052-.252.44c-.09.147-.23.256-.394.306-.134.034-.273.026-.4-.02l-.094-.043-.777-.452c-.287-.167-.4-.519-.278-.818l.036-.074.258-.44c-.088-.085-.176-.17-.26-.256l-.124-.134-.446.253c-.289.165-.651.085-.847-.174l-.045-.068-.45-.767c-.087-.15-.11-.329-.065-.496.038-.14.12-.262.235-.348l.071-.048.441-.262c-.038-.115-.073-.231-.104-.348l-.043-.177H.656c-.333 0-.608-.248-.65-.57L0 9.313V8.41c.002-.333.252-.607.574-.647l.082-.005h.504c.027-.118.057-.235.092-.351l.055-.173-.44-.253c-.151-.087-.261-.23-.306-.399-.037-.141-.028-.29.026-.424l.038-.079.45-.766c.166-.287.516-.4.815-.278l.073.036.446.251c.08-.09.165-.177.253-.262l.133-.126-.255-.44c-.166-.288-.09-.65.169-.847l.068-.046.777-.44c.148-.09.327-.116.495-.072.14.036.262.118.35.231l.047.072.255.44c.118-.037.237-.07.357-.097l.18-.04v-.514c0-.33.246-.602.564-.645l.081-.005h.095V.357c0-.094.036-.185.102-.252.05-.05.113-.084.181-.098L6.331 0h12.276zm-.351.703H6.682v1.828h.09c.174-.002.342.066.465.188.104.102.17.234.19.376l.006.086v.515c.119.023.237.052.355.084l.175.052.251-.44c.086-.151.23-.26.398-.304.14-.036.288-.024.419.033l.076.04.777.44c.286.168.398.52.272.82l-.036.072-.252.441c.09.082.177.167.26.255l.123.133.446-.251c.149-.088.328-.111.494-.064.14.034.263.117.347.233l.046.073.456.766c.165.293.085.658-.176.856l-.07.046-.436.253c.038.115.072.23.102.348l.042.176h.513c.33.005.6.252.64.57l.005.082v.902c-.001.33-.247.603-.567.645l-.08.006h-.51c-.027.118-.057.235-.09.351l-.055.174.437.262c.151.085.262.228.308.395.038.14.029.287-.025.42l-.038.077-.456.772c-.081.153-.224.264-.393.304-.138.045-.287.037-.418-.021l-.076-.041-.446-.253c-.08.091-.164.18-.25.264l-.133.126.252.435c.088.149.112.326.068.493-.038.14-.12.262-.233.35l-.071.05-.777.45c-.29.163-.65.083-.847-.173l-.046-.068-.251-.441c-.117.037-.236.07-.355.098l-.18.039v.517c-.005.33-.254.6-.574.64l-.082.005h-.09v7.31h15.956V5.09h-4.03c-.095 0-.185-.038-.25-.105-.05-.05-.083-.114-.096-.182l-.006-.07V.704zm-5.187 12.455c1.772-1.89 4.694-2.074 6.687-.454l.148.125.021.01.016.021.204.179c1.52 1.53 1.867 3.86.882 5.76l-.097.177-.01.031-.022.02c-.21.353-.462.678-.753.968-.192.197-.4.377-.624.537-.836.594-1.836.913-2.86.913-.602.002-1.198-.108-1.76-.322-.264-.1-.52-.223-.76-.37l-.179-.114-.168-.113c-.22-.155-.426-.332-.613-.527-1.878-1.876-1.928-4.905-.112-6.841zm5.218 4.721l-.126.137c-.398.395-.935.618-1.496.62-.232-.002-.46-.04-.679-.116l-.16-.063-1.16 1.774c.16.089.326.166.497.23 1.259.482 2.668.332 3.794-.395l.159-.108c.187-.135.368-.284.536-.447.112-.116.217-.237.317-.364l.145-.193-1.827-1.075zm-1.974-5.553c-.926.074-1.799.456-2.482 1.08l-.143.138c-1.645 1.65-1.643 4.316 0 5.963.079.08.162.157.247.23l.131.105 1.171-1.773-.063-.053c-.396-.395-.618-.931-.618-1.49 0-.56.222-1.096.618-1.491.27-.272.609-.464.979-.555l.16-.033v-2.121zm3.394 1.29l-1.398 1.586c.303.374.468.84.468 1.322-.002.204-.032.406-.089.6l-.047.146 1.825 1.058.076-.168c.625-1.483.349-3.195-.71-4.406l-.125-.138zm-3.044 1.502c-.57-.001-1.085.342-1.303.87-.202.488-.112 1.046.226 1.445l.082.09c.453.448 1.15.539 1.701.22.551-.32.82-.969.654-1.584-.166-.615-.724-1.042-1.36-1.041zm.357-2.793v2.122c.215.037.421.109.613.21l.14.083 1.41-1.596c-.571-.43-1.243-.703-1.95-.797l-.213-.022zM6.724 3.237h-.788v.752c.002.177-.128.327-.303.35-.331.053-.655.142-.968.264-.142.056-.3.01-.394-.104l-.035-.054-.378-.645-.677.393.373.645c.089.15.053.344-.085.453-.194.158-.376.33-.545.514l-.163.19c-.091.125-.255.17-.394.114l-.058-.03-.65-.368-.394.683.65.367c.15.092.214.277.153.441-.123.312-.21.637-.262.968-.022.153-.14.27-.288.297l-.065.005H.708v.773h.745c.178.003.327.133.353.309.051.33.14.654.262.965.056.145.013.307-.1.407l-.052.039-.65.362.402.688.645-.367c.15-.092.345-.056.452.083.212.258.45.494.708.705.12.095.162.254.112.393l-.027.058-.373.645.677.399.378-.65c.083-.154.267-.222.43-.158.312.122.636.21.967.262.152.02.27.137.294.283l.005.064v.755h.798v-.745c-.004-.175.125-.325.299-.348.331-.05.656-.138.967-.262.142-.055.301-.01.395.105l.035.053.377.645.678-.399-.372-.65c-.086-.15-.05-.342.084-.451.259-.21.496-.447.708-.705.096-.121.258-.164.398-.112l.059.029.645.367.393-.682-.65-.367c-.152-.091-.217-.278-.156-.444.124-.312.212-.636.264-.967.022-.153.138-.272.284-.302l.065-.007h.747v-.77h-.745c-.177.001-.328-.13-.351-.305-.053-.331-.142-.656-.266-.968-.052-.145-.008-.305.105-.403l.053-.038.645-.367-.393-.683-.645.368c-.151.097-.351.06-.457-.085-.212-.257-.45-.493-.709-.703-.118-.096-.16-.255-.11-.395l.026-.058.372-.646-.681-.396-.378.645c-.083.153-.267.221-.43.158-.312-.123-.636-.211-.967-.264-.15-.021-.267-.137-.293-.282l-.006-.064v-.752zM4.116 6.66c.892-.895 2.236-1.165 3.404-.684 1.168.482 1.931 1.62 1.934 2.883-.002 1.723-1.395 3.121-3.118 3.13-1.264.002-2.404-.757-2.89-1.923-.486-1.167-.221-2.511.67-3.406zm3.924.482c-.693-.691-1.734-.897-2.638-.522-.904.376-1.493 1.26-1.491 2.24.002 1.334 1.085 2.415 2.42 2.415.979 0 1.861-.59 2.236-1.495.374-.905.166-1.946-.527-2.638zm11.785 2.851c.194 0 .352.158.352.352 0 .172-.125.316-.289.346l-.063.005H14.44c-.194 0-.351-.157-.351-.351 0-.173.124-.316.288-.346l.063-.006h5.386zm1.407-1.763c.197 0 .357.16.357.357 0 .094-.038.183-.106.248-.05.049-.113.081-.181.093l-.07.005h-3.627c-.093.002-.182-.033-.249-.098-.066-.066-.103-.155-.102-.248-.001-.094.035-.185.101-.252.05-.05.113-.084.18-.098l.07-.007h3.627zm-5.27 0c.094 0 .184.038.25.105.067.067.103.158.102.252 0 .093-.037.182-.103.248-.05.048-.113.08-.18.093l-.07.005H14.44c-.093.002-.182-.033-.248-.098-.067-.066-.104-.155-.103-.248-.001-.094.035-.185.101-.252.05-.05.113-.084.18-.098l.07-.007h1.523zm5.27-1.753c.194 0 .352.157.352.351 0 .173-.125.317-.288.346l-.064.006H14.44c-.094 0-.183-.039-.25-.105-.065-.067-.102-.158-.101-.252.002-.17.126-.312.289-.34l.062-.006h6.793zm-2.268-5.27v3.17h3.171l-3.17-3.17z" transform="translate(-1009 -1438) translate(345 997) translate(0 410) translate(664 31)"/>
                    </g>
                </g>
            </g>
        </g>
    </g>
</svg>
