<svg xmlns="http://www.w3.org/2000/svg" width="24" height="23" viewBox="0 0 24 23">
    <g fill="none" fill-rule="evenodd" opacity=".7">
        <g fill="#FFF" fill-rule="nonzero">
            <g>
                <g>
                    <g>
                        <g>
                            <g>
                                <path d="M15.585 8.624h.152c.56-.023 1.106.187 1.506.581.4.394.618.937.602 1.498.001.47-.135.93-.391 1.324.384.256.718.58.987.955.388-.311.872-.478 1.37-.472.561-.022 1.108.19 1.508.586.4.396.618.94.601 1.503 0 .466-.136.923-.393 1.312 1.105.747 1.782 1.981 1.819 3.314 0 1.774-1.359 2.866-3.533 2.866-2.173 0-3.527-1.092-3.527-2.866.005-.365.065-.727.179-1.075-.24.034-.482.052-.725.053-.24 0-.478-.02-.714-.063.11.35.169.714.173 1.081 0 1.774-1.348 2.866-3.527 2.866-2.179 0-3.532-1.092-3.532-2.866.005-.365.065-.728.178-1.075-.236.034-.475.051-.713.053-.243-.004-.485-.025-.725-.064.114.35.173.714.175 1.082 0 1.774-1.35 2.866-3.528 2.866S0 20.99 0 19.217c.039-1.329.712-2.558 1.811-3.306-.254-.39-.389-.847-.389-1.313-.016-.562.201-1.105.6-1.501.399-.396.944-.609 1.505-.588.5-.006.985.16 1.376.472.268-.376.603-.7.987-.955-.26-.392-.4-.852-.399-1.323-.016-.562.203-1.104.603-1.498.364-.359.848-.565 1.355-.581H7.6c.56-.022 1.105.189 1.504.583.4.393.617.935.601 1.496 0 .47-.136.93-.394 1.323.384.253.72.573.992.945.387-.309.87-.472 1.365-.462.5-.006.985.16 1.375.472.266-.375.6-.696.987-.945-.26-.396-.398-.86-.399-1.333-.016-.56.202-1.103.6-1.497.364-.358.847-.565 1.353-.582zM2.294 16.436c-.965.6-1.562 1.646-1.59 2.782 0 1.317.934 1.837 1.761 2.039l.213.046c.07.013.138.024.204.033l.191.022.174.014.22.008.188-.001.153-.007.175-.014.093-.01.199-.028.103-.018.213-.046c.828-.202 1.76-.721 1.76-2.038-.028-1.135-.628-2.178-1.595-2.771-.352.273-.783.424-1.229.43-.449-.004-.884-.16-1.233-.441zm10.597.013c-.716.573-1.734.573-2.45 0-.967.593-1.567 1.635-1.596 2.769 0 1.317.934 1.837 1.762 2.039l.213.046c.07.013.138.024.204.033l.19.022.175.014.22.008.187-.001.153-.007.174-.014.093-.01.198-.028.103-.018.213-.046c.826-.201 1.758-.72 1.758-2.036-.028-1.135-.63-2.178-1.597-2.771zm8.148 0c-.717.573-1.735.573-2.452 0-.966.593-1.567 1.635-1.596 2.769 0 1.317.932 1.837 1.759 2.039l.212.046c.07.013.138.024.204.033l.19.022.174.014.22.008.187-.001.153-.007.174-.014.094-.01.198-.028.103-.018.213-.046c.828-.201 1.762-.72 1.762-2.036-.028-1.134-.628-2.177-1.595-2.771zM8.824 12.548c-.717.573-1.735.573-2.451 0-.41.24-.755.575-1.009.976.182.328.274.699.268 1.075 0 .47-.136.93-.394 1.323.55.368 1 .865 1.313 1.448.259.058.521.096.786.115l.264.012c.35-.008.698-.05 1.039-.127.315-.584.77-1.082 1.323-1.448-.262-.392-.4-.852-.399-1.323-.006-.377.088-.748.273-1.075-.26-.398-.607-.731-1.013-.976zm8.15.003c-.355.273-.79.424-1.238.43-.445 0-.877-.152-1.224-.43-.407.242-.753.575-1.011.973.183.328.277.699.273 1.075 0 .466-.136.923-.393 1.312.549.37 1 .867 1.316 1.45.256.063.516.104.777.124l.263.012c.353 0 .705-.042 1.048-.124.315-.583.767-1.08 1.318-1.448-.26-.392-.4-.852-.399-1.323-.004-.376.09-.747.273-1.075-.255-.398-.598-.732-1.003-.976zm2.712.671c-.329.012-.644.146-.88.379-.267.262-.411.624-.397.998-.067.54.184 1.071.644 1.363.46.291 1.047.291 1.508 0 .46-.292.71-.823.643-1.363.014-.373-.13-.734-.395-.996-.237-.232-.55-.367-.878-.38h-.245zm-16.035.001h-.124c-.372-.019-.735.12-1.001.38-.236.233-.376.544-.395.872l-.001.124c-.04.815.582 1.512 1.397 1.564.778-.05 1.381-.687 1.399-1.454l-.001-.11c.013-.373-.131-.734-.397-.995-.236-.233-.55-.367-.877-.381zm8.142 0h-.124c-.372-.019-.735.12-1.001.38-.236.233-.376.544-.395.872l-.001.124c-.04.815.582 1.512 1.397 1.564.78-.048 1.383-.686 1.4-1.454l-.002-.11c.014-.373-.13-.735-.395-.997-.237-.232-.55-.367-.88-.38zm4.068-3.896h-.124c-.372-.019-.736.12-1.002.38-.236.233-.376.544-.394.872l-.002.124c-.044.817.58 1.517 1.398 1.564.393-.022.76-.2 1.023-.492.233-.261.365-.595.376-.942l-.002-.13c.014-.373-.13-.734-.395-.996-.237-.232-.55-.367-.878-.38zm-8.136 0h-.124c-.372-.018-.735.12-1 .381-.237.232-.377.543-.396.871l-.001.124c-.045.817.58 1.517 1.397 1.564.393-.022.761-.199 1.024-.492.233-.261.365-.595.376-.942l-.002-.13c.014-.373-.13-.735-.395-.997-.237-.232-.55-.367-.879-.38zM13.827.173c.102-.167.318-.222.488-.126.08.048.137.126.16.217.017.068.013.139-.01.203l-.03.063-.415.693c1.14.465 1.92 1.534 2.016 2.761-.15 1.451-1.18 2.652-2.578 3.028l-.157.038v1.711c0 .133-.074.255-.194.314-.05.026-.106.04-.163.043-.05-.003-.097-.015-.141-.036l-.063-.038-2.378-1.711c-2.3-.294-3.969-1.68-3.969-3.349 0-1.868 2.163-3.39 4.821-3.39.64-.004 1.277.087 1.89.272l.26.084.463-.777zm-2.605 1.124c-2.277 0-4.12 1.207-4.12 2.687 0 1.25 1.382 2.362 3.245 2.632l.188.024c.041 0 .081.01.117.029l.05.034 1.89 1.36V6.793c-.003-.16.103-.303.257-.346 1.508-.425 2.484-1.392 2.484-2.467-.092-.927-.68-1.726-1.526-2.093l-.144-.057-2.105 3.53c-.05.076-.125.13-.212.155l-.066.012h-.026c-.084.001-.165-.028-.229-.082l-.044-.044-1.438-1.744c-.124-.152-.103-.375.047-.5.072-.062.167-.09.26-.08.076.007.146.04.2.09l.039.042 1.118 1.353 1.79-3.002c-.493-.15-1.003-.237-1.518-.258l-.257-.004z" transform="translate(-1521 -951) translate(0 202) translate(345 263) translate(0 400) translate(925 54) translate(251 32)"/>
                            </g>
                        </g>
                    </g>
                </g>
            </g>
        </g>
    </g>
</svg>
