<svg xmlns="http://www.w3.org/2000/svg" width="24" height="26" viewBox="0 0 24 26">
    <g fill="none" fill-rule="evenodd" opacity=".7">
        <g fill="#FFF" fill-rule="nonzero">
            <g>
                <g>
                    <g>
                        <g>
                            <path d="M16.149 6.19c.142-.006.276.067.349.19.073.122.073.274 0 .397l-.306.555c.328.29.516.709.514 1.147v3.568c-.002.863-.7 1.562-1.563 1.564h-.95l-5.085 7.727c.54.1 1.066.267 1.564.498 1.223.544 2.29 1.621 1.934 2.815-.3.982-.966 1.089-1.042 1.1h-.052c-.065.002-.13-.014-.185-.046-1.027-.538-2.14-.89-3.29-1.043-.522-.032-1.047-.009-1.564.07-.824.191-1.69.05-2.41-.395L1.526 22.67C-.038 21.637-.47 19.532.56 17.966l2.584-3.926.075-.098c.533-.653 1.473-.798 2.178-.336.105.067.202.147.289.237.535-.296 1.191-.27 1.701.069.238.157.43.373.561.626.382-.044.768.046 1.091.254.18.114.333.264.451.441l1.23-1.881c-.443-.287-.71-.778-.713-1.305V8.48c.003-.862.701-1.56 1.564-1.563h3.568c.123.003.245.018.365.046l.312-.556c.064-.128.192-.21.334-.216zm-2.947 5.406l-.12.011c-.201.033-.379.151-.487.324L9.71 16.31c-.094.138-.267.202-.428.156-.163-.045-.28-.188-.29-.356-.013-.274-.156-.525-.386-.675-.23-.15-.517-.178-.773-.078-.104.039-.22.03-.319-.024-.096-.054-.165-.146-.19-.254-.05-.214-.181-.401-.366-.522-.342-.218-.789-.175-1.083.105-.088.089-.212.133-.336.118-.12-.025-.224-.101-.283-.208-.07-.13-.17-.241-.29-.325-.375-.243-.873-.163-1.153.186l-.347-.186.328.224-2.587 3.914c-.791 1.211-.458 2.834.748 3.635l2.536 1.668c.57.332 1.252.422 1.89.247.365-.034.764-.08 1.233-.08.15 0 .312 0 .474.012 1.207.141 2.377.503 3.452 1.067.158-.13.268-.31.312-.51.245-.787-.764-1.551-1.5-1.887-.498-.235-1.032-.385-1.58-.443-.147-.018-.293-.05-.434-.092-.116-.039-.208-.125-.256-.237-.038-.117-.02-.245.047-.348L13.8 12.8c.23-.339.167-.802-.15-1.066-.165-.116-.37-.162-.568-.127zm1.34 4.204c.31 0 .609.122.83.341.22.22.344.518.345.829v2.387c0 .31-.125.609-.345.828-.22.22-.52.342-.83.341h-2.373c-.366 0-.71-.172-.933-.462-.063-.082-.091-.186-.077-.289.014-.102.069-.195.152-.256.081-.063.185-.091.287-.078.102.013.195.065.258.147.071.102.188.163.313.162h2.372c.217-.002.392-.177.394-.393V16.97c-.003-.217-.177-.391-.394-.394h-.625c-.103.004-.204-.035-.278-.107-.075-.072-.116-.171-.116-.275 0-.105.04-.205.115-.28.074-.073.174-.115.28-.114zm7.905 0c.646.001 1.17.524 1.17 1.17v2.387c0 .645-.524 1.17-1.17 1.17h-2.38c-.31 0-.609-.123-.829-.342-.22-.22-.342-.518-.341-.828V16.97c0-.31.122-.608.342-.828.22-.22.517-.342.828-.342zm0 .776h-2.38c-.217.003-.392.177-.394.394v2.389c.002.216.177.391.394.394h2.38c.215-.005.387-.18.388-.394v-2.39c-.002-.214-.173-.388-.388-.393zm-6.654-8.525l-1.69 3.046.012.012c.53.396.74 1.09.519 1.714h.51c.206.001.405-.08.552-.226.147-.145.23-.343.23-.55L15.92 8.48c.002-.152-.043-.302-.127-.428zm-.695-.36H11.57c-.43.007-.776.358-.776.788v3.568c-.002.267.132.516.356.66l.791-1.2c.158-.237.376-.426.632-.549l-.997-1.553c-.115-.18-.062-.42.119-.535.18-.115.42-.062.535.12l1.153 1.795 1.715-3.094zm-8.456.21c.31-.001.608.122.828.341.219.22.342.517.34.828v2.386c-.001.645-.523 1.167-1.168 1.17H4.26c-.644-.005-1.165-.526-1.17-1.17V9.07c0-.31.124-.608.343-.827.22-.22.517-.343.827-.343zm15.805 0c.31 0 .608.122.827.342.22.22.343.517.343.827v2.386c-.005.644-.526 1.165-1.17 1.17h-2.38c-.646-.002-1.168-.524-1.17-1.17V9.07c-.001-.31.122-.609.341-.828.22-.22.518-.343.829-.342zm-15.805.775H4.26c-.213.004-.385.178-.388.391v2.39c.002.212.176.383.388.381h2.382c.213.001.388-.169.393-.382V9.07c-.004-.216-.177-.39-.393-.394zm15.805 0h-2.38c-.217.003-.392.177-.394.394v2.386c.001.103.044.201.118.273.073.072.173.111.276.11h2.38c.212 0 .385-.169.388-.38v-2.39c-.001-.214-.173-.389-.388-.393zm0-8.676c.31 0 .608.123.827.343.22.219.343.516.343.827v2.389c-.005.644-.526 1.165-1.17 1.17h-2.38c-.646-.003-1.168-.525-1.17-1.17v-2.39c-.001-.31.122-.608.341-.827.22-.22.518-.343.829-.342zm-7.906 0c.311-.001.61.121.83.34.221.22.345.518.346.83v2.389c-.007.646-.532 1.166-1.178 1.167h-2.373c-.645-.002-1.169-.522-1.175-1.167v-2.39c0-.31.125-.61.346-.829.22-.22.52-.342.832-.34zM6.642 0c.31 0 .608.122.828.342.219.22.342.517.34.828v2.389c-.003.643-.524 1.164-1.168 1.167H4.26c-.643-.005-1.163-.524-1.17-1.167v-2.39C3.09.525 3.615 0 4.26 0zm7.897.776h-2.373c-.215.002-.39.176-.393.391V3.56c.002.103.045.2.119.272.074.07.174.11.277.107h2.372c.213.002.387-.167.392-.38V1.17c-.002-.217-.177-.392-.394-.394zm-7.897 0H4.26c-.213.004-.385.177-.388.391V3.56c.004.211.177.38.388.38h2.382c.212 0 .386-.168.393-.38v-2.39C7.03.955 6.858.78 6.642.777zm15.805 0h-2.38c-.217.002-.392.177-.394.394v2.389c.004.213.18.383.394.38h2.38c.212 0 .385-.169.388-.38v-2.39c-.001-.214-.173-.389-.388-.393z" transform="translate(-1521 -1088) translate(345 997) translate(0 60) translate(978) translate(198 31)"/>
                        </g>
                    </g>
                </g>
            </g>
        </g>
    </g>
</svg>
