<svg xmlns="http://www.w3.org/2000/svg" width="24" height="24" viewBox="0 0 24 24">
    <g fill="none" fill-rule="evenodd" opacity=".7">
        <g fill="#FFF" fill-rule="nonzero">
            <g>
                <g>
                    <g>
                        <g>
                            <g>
                                <path d="M13 20.84c.677.019 1.25.507 1.375 1.172h.263c.096-.003.188.033.257.1s.108.158.108.254c0 .202-.163.365-.365.365h-.263c-.13.661-.702 1.143-1.375 1.16-.133.008-.26-.059-.329-.173-.069-.115-.069-.258 0-.372.069-.115.196-.182.33-.175.411-.035.72-.392.696-.805.024-.41-.286-.765-.697-.795-.473 0-.693.258-.693.795.047.398-.083.797-.356 1.091-.273.294-.661.453-1.062.435-.673-.017-1.245-.5-1.375-1.16H9.25c-.096-.001-.188-.04-.255-.109-.068-.068-.105-.16-.105-.257 0-.095.038-.186.105-.253.068-.067.16-.103.255-.101h.266c.126-.666.698-1.154 1.375-1.171.202 0 .366.163.366.365 0 .201-.164.365-.366.365-.413.026-.726.382-.7.795-.026.414.285.773.698.805.473 0 .693-.268.693-.805-.047-.398.083-.797.356-1.09.273-.294.661-.453 1.062-.435zm7.96-3.679c.141-.14.369-.14.51 0 .068.067.106.159.106.255 0 .095-.038.187-.106.254l-.183.183c.144.226.228.485.242.752.021.387-.121.765-.392 1.042-.144.134-.368.13-.506-.01s-.14-.364-.005-.506c.126-.133.192-.311.183-.494-.034-.438-.384-.785-.822-.816-.182-.014-.362.053-.49.184-.334.333-.306.676.074 1.063.45.378.616.997.416 1.55-.2.551-.725.92-1.312.921h-.07c-.267-.022-.524-.107-.752-.247l-.188.182c-.066.071-.16.111-.257.11-.096.001-.188-.039-.253-.11-.07-.067-.11-.16-.11-.257s.04-.19.11-.258l.188-.182c-.146-.226-.23-.485-.248-.753-.018-.386.124-.763.393-1.041.142-.143.373-.143.515 0 .143.141.143.372.001.514-.13.13-.197.312-.183.495.01.213.1.415.251.565.146.154.347.246.559.257.181.013.36-.049.494-.171.333-.345.311-.688-.075-1.064-.317-.25-.507-.625-.522-1.028-.015-.402.148-.79.446-1.062.28-.27.659-.414 1.047-.397.267.023.524.11.75.252zm-18.514.028c.13-.131.338-.143.482-.028l.189.18c.227-.14.485-.225.752-.247.386-.018.761.126 1.036.397.124.142.118.356-.014.49-.132.135-.345.145-.49.024-.132-.131-.315-.198-.5-.184-.215.012-.417.105-.568.259-.153.146-.243.347-.252.558-.011.182.054.36.18.49.334.334.677.313 1.059-.063.382-.467 1.021-.635 1.584-.418.563.217.923.771.892 1.374-.014.269-.098.529-.242.756l.188.182c.07.068.11.16.11.258 0 .097-.04.19-.11.257-.064.072-.156.112-.252.11-.098.002-.192-.038-.258-.11l-.187-.182c-.245.159-.53.245-.823.247-.364.004-.714-.14-.971-.397-.067-.067-.105-.158-.105-.253 0-.094.038-.185.105-.252.066-.072.16-.113.257-.113.098 0 .191.041.257.113.318.263.787.225 1.059-.086.153-.146.244-.347.253-.559.014-.183-.053-.364-.183-.495-.328-.332-.672-.31-1.053.076-.249.317-.625.508-1.027.523-.403.014-.792-.15-1.063-.448-.272-.275-.414-.655-.389-1.042.015-.267.098-.526.242-.752l-.183-.183c-.116-.143-.105-.351.025-.482zm11.225.944c.134-.007.26.06.33.175.068.114.068.257 0 .372-.07.114-.196.181-.33.174h-3.454c-.191-.01-.34-.169-.34-.36 0-.192.149-.35.34-.36zM11.941 5.04c2.654-.04 4.84 2.073 4.89 4.727-.096 1.083-.412 2.136-.93 3.093-.19.431-.393.871-.55 1.311.13.089.187.252.14.402-.046.15-.185.253-.343.253h-.096v.82c-.003.796-.65 1.44-1.446 1.439h-3.324c-.796 0-1.442-.643-1.445-1.439v-.817H8.74c-.202 0-.365-.164-.365-.365.004-.114.06-.22.15-.29-.15-.408-.344-.838-.527-1.246-.522-.979-.842-2.053-.94-3.158.048-2.652 2.23-4.767 4.883-4.73zm2.386 9.786H9.563v.817c0 .397.322.72.719.72h3.324c.191 0 .374-.076.51-.211.135-.135.21-.318.21-.51v-.816zm8.037-5.918c.193 0 .352.15.362.343v.268c.661.13 1.143.702 1.16 1.375-.01.193-.169.343-.362.343-.192 0-.352-.15-.362-.343-.054-.4-.396-.7-.8-.7-.405 0-.747.3-.8.7 0 .462.262.699.8.699.398-.049.797.081 1.091.354.294.274.453.663.434 1.064-.02.672-.501 1.242-1.16 1.375v.257c.007.134-.06.262-.176.331-.115.07-.26.07-.374 0-.116-.07-.183-.197-.176-.331v-.257c-.66-.134-1.143-.704-1.165-1.378-.007-.134.06-.261.176-.33.115-.07.259-.07.374 0 .115.069.183.196.175.33.061.396.4.687.8.687s.74-.291.8-.687c0-.478-.262-.698-.8-.698-.398.047-.797-.083-1.09-.356-.294-.273-.453-.661-.435-1.062.022-.673.505-1.242 1.165-1.373V9.25c.011-.193.17-.343.363-.343zM1.527 8.896c.197-.002.358.157.36.354v.266c.662.13 1.146.7 1.166 1.375-.005.198-.167.355-.365.354-.198.001-.359-.157-.361-.354-.031-.412-.388-.722-.8-.696-.412-.026-.77.284-.8.696 0 .464.264.7.8.7.398-.047.797.084 1.091.357.294.273.453.661.435 1.062-.023.673-.506 1.242-1.166 1.375v.257c0 .096-.036.189-.104.258-.067.068-.16.107-.256.107-.202 0-.365-.163-.365-.365v-.26c-.658-.134-1.138-.703-1.16-1.375-.008-.134.06-.261.175-.33.115-.07.259-.07.374 0 .115.069.183.196.175.33.036.41.392.715.801.688h.101c.365-.025.667-.313.699-.688 0-.478-.263-.698-.8-.698-.398.047-.797-.083-1.09-.356-.295-.273-.454-.661-.436-1.062.021-.672.502-1.24 1.16-1.373V9.25c.006-.198.168-.356.366-.354zm10.41-3.13c-2.25-.041-4.11 1.746-4.158 3.996.104 1.002.403 1.974.88 2.86.216.484.436.99.608 1.487h5.343c.179-.526.415-1.042.635-1.547.469-.869.76-1.82.855-2.8-.049-2.251-1.91-4.039-4.163-3.996zm1.484 2.56c.106-.171.327-.228.502-.129.082.05.141.129.165.221.023.093.008.191-.04.273l-2.22 3.674c-.065.098-.171.161-.289.172h-.022c-.114 0-.22-.055-.285-.15l-1.38-1.805c-.059-.076-.085-.171-.072-.266.012-.095.061-.18.137-.239.159-.122.386-.093.51.065l1.056 1.396zm3.735-5.895c.138-.14.362-.144.506-.01l.188.19c.559-.377 1.304-.316 1.794.148.067.067.105.157.105.252s-.038.186-.105.253c-.143.14-.372.14-.516 0-.135-.123-.312-.188-.494-.183-.212.015-.41.108-.559.26-.31.274-.344.746-.074 1.06.12.133.287.215.466.23.228-.019.439-.127.586-.301.25-.315.624-.504 1.025-.519.4-.014.788.148 1.059.444.275.275.418.655.392 1.044-.014.267-.098.526-.242.752l.183.18c.07.068.11.161.11.258 0 .098-.04.19-.11.258-.065.071-.157.111-.253.11-.097.001-.19-.039-.257-.11l-.188-.182c-.248.15-.532.232-.822.236-.363.004-.712-.135-.973-.387-.13-.144-.126-.366.012-.504s.36-.143.504-.012c.315.267.785.234 1.059-.075.152-.152.244-.354.257-.57.007-.182-.058-.36-.183-.493-.332-.334-.676-.3-1.058.074-.279.323-.68.514-1.106.527-.372-.017-.723-.179-.977-.45-.46-.492-.521-1.236-.145-1.795l-.189-.18c-.135-.141-.133-.365.005-.505zm-10.93-.01c.145-.121.358-.112.49.022.134.134.142.347.02.49l-.182.183c.144.226.227.485.242.753.025.386-.117.764-.392 1.037-.066.071-.16.112-.257.112-.098 0-.192-.04-.258-.112-.068-.067-.105-.158-.105-.253 0-.094.037-.185.105-.252.128-.134.194-.315.182-.5-.008-.213-.099-.413-.253-.56-.273-.309-.744-.342-1.058-.074-.137.121-.22.292-.231.474.023.23.135.44.312.589.314.283.499.683.51 1.106-.014.372-.174.723-.446.978-.259.251-.606.39-.967.387H3.87c-.269-.011-.53-.097-.752-.247l-.186.193c-.066.072-.16.112-.258.11-.096.001-.187-.039-.252-.11-.07-.067-.109-.16-.109-.258 0-.097.04-.19.11-.258l.18-.18c-.374-.56-.312-1.305.15-1.796.14-.14.368-.14.51 0 .07.065.108.157.108.252 0 .096-.039.187-.108.253-.265.317-.232.786.075 1.063.152.15.352.24.564.258.185.013.367-.053.5-.183.131-.123.21-.292.22-.472-.019-.229-.127-.441-.301-.592-.315-.246-.505-.619-.52-1.018-.014-.4.15-.785.445-1.054.489-.464 1.235-.527 1.794-.15zM13 .001c.676.023 1.247.51 1.375 1.175h.263c.133-.008.26.06.329.174.069.114.069.258 0 .372-.069.115-.196.182-.329.174h-.263c-.13.66-.702 1.142-1.375 1.16-.128 0-.247-.069-.311-.18-.065-.111-.065-.249 0-.36.064-.111.183-.18.311-.18.41-.03.721-.384.697-.795.029-.414-.283-.774-.697-.805-.473 0-.693.255-.693.805.044.396-.088.79-.36 1.081-.272.29-.658.447-1.056.43-.674-.016-1.246-.498-1.377-1.16H9.25c-.191-.01-.34-.169-.34-.36 0-.192.149-.35.34-.36h.266c.13-.664.7-1.15 1.375-1.171.198.006.356.167.358.365.002.2-.158.363-.358.365-.2.014-.387.107-.52.259-.13.152-.196.35-.18.551-.027.412.286.768.698.795.473 0 .693-.257.693-.795-.048-.4.08-.801.354-1.097C12.208.147 12.598-.014 13 0z" transform="translate(-595 -951) translate(0 202) translate(345 263) translate(0 400) translate(0 54) translate(249.999 31.999)"/>
                            </g>
                        </g>
                    </g>
                </g>
            </g>
        </g>
    </g>
</svg>
