<svg xmlns="http://www.w3.org/2000/svg" width="24" height="25" viewBox="0 0 24 25">
    <g fill="none" fill-rule="evenodd" opacity=".7">
        <g fill="#FFF" fill-rule="nonzero">
            <g>
                <g>
                    <g>
                        <g>
                            <path d="M3.26 18.41c.097 0 .189.039.256.108.068.068.105.161.104.257v4.705c.007.134-.06.262-.175.331-.115.07-.26.07-.375 0-.115-.07-.182-.197-.175-.33v-4.706c0-.097.037-.19.106-.26.069-.068.162-.106.26-.106zm2.9-1.462c.199.005.358.167.36.366v6.166c.008.134-.059.26-.173.33-.115.068-.258.068-.373 0-.114-.07-.181-.196-.174-.33v-6.166c.002-.2.161-.36.36-.366zm14.47-2.18c.097 0 .189.04.256.108.068.068.105.161.104.257v8.347c.008.134-.06.26-.174.33-.114.068-.258.068-.372 0-.115-.07-.182-.196-.174-.33v-8.347c-.001-.096.036-.189.104-.258.068-.068.16-.107.257-.107zm2.895.73c.197 0 .358.158.36.355v7.627c.008.134-.06.26-.174.33-.114.068-.257.068-.372 0-.114-.07-.181-.196-.174-.33v-7.627c.002-.197.163-.355.36-.354zM.365 20.226c.096 0 .189.04.256.108.068.068.105.161.104.257v2.89c0 .096-.037.189-.104.257-.068.069-.16.108-.256.108-.201 0-.365-.163-.365-.365v-2.89c0-.201.164-.365.365-.365zm8.685-1.45c.097 0 .19.037.26.106.068.069.106.162.105.26v4.34c.001.095-.036.188-.104.257-.067.068-.16.107-.256.107-.201 0-.364-.163-.365-.365v-4.34c0-.199.16-.362.36-.365zm5.79-3.642c.202 0 .365.164.365.366v7.981c0 .202-.163.365-.365.365-.096 0-.188-.039-.256-.107-.067-.069-.105-.162-.104-.258V15.5c0-.097.037-.19.104-.258.068-.069.16-.107.256-.108zm-2.895 1.815c.199.005.358.167.36.366v6.166c0 .129-.069.247-.18.312-.112.064-.249.064-.36 0-.111-.065-.18-.183-.18-.312v-6.166c.002-.2.161-.36.36-.366zm5.79-2.903c.095 0 .187.038.254.105.068.067.106.158.106.253v9.074c0 .128-.069.247-.18.311-.111.065-.248.065-.36 0-.11-.064-.18-.183-.18-.311V14.4c.002-.197.163-.356.36-.355zm-1.117-3.88c.803 0 1.455.652 1.455 1.456v.021l5.543 1.547c.194.056.307.257.253.452-.054.188-.25.298-.44.246L17.88 12.34c-.258.449-.734.726-1.251.73-.369 0-.723-.142-.99-.396l-4.86 3.104c.185.55.025 1.157-.407 1.546-.43.388-1.052.483-1.58.242-.527-.242-.861-.773-.85-1.354 0-.097.011-.195.033-.29l-1.3-.66c-.493.567-1.34.656-1.94.205L.597 18.86c-.069.046-.148.071-.23.075-.11.001-.214-.046-.286-.129-.124-.158-.1-.387.054-.516l4.135-3.385c-.093-.187-.14-.393-.14-.602 0-.803.651-1.453 1.454-1.453.802 0 1.453.65 1.453 1.453-.003.105-.016.209-.038.311l1.295.66c.255-.307.627-.494 1.026-.515.399-.02.788.126 1.074.405l4.85-3.104c-.051-.141-.078-.29-.08-.44 0-.804.651-1.455 1.455-1.455zm-6.94 5.366c-.273-.113-.587-.05-.797.159-.21.21-.272.524-.158.797.113.274.38.452.676.451.403-.002.728-.328.73-.73.001-.296-.177-.563-.45-.677zM.366 11.126c.199.005.358.166.36.365v4.352c0 .096-.037.189-.104.257-.068.069-.16.107-.256.108-.201 0-.365-.163-.365-.365V11.49c.004-.2.165-.36.365-.365zm5.237 2.45c-.4-.003-.727.319-.73.72-.003.4.319.727.72.73.399 0 .725-.32.73-.72.003-.4-.32-.727-.72-.73zM9.05 8.592c.096-.004.19.031.258.098.07.067.108.16.107.256v4.35c.001.097-.036.19-.104.258-.067.069-.16.107-.256.108-.201 0-.365-.164-.365-.366v-4.35c0-.095.039-.185.106-.252.068-.066.159-.103.254-.102zm-5.792.01c.192 0 .351.151.362.344v3.62c.007.134-.06.262-.175.33-.115.07-.26.07-.375 0-.115-.068-.182-.196-.175-.33v-3.62c.01-.193.17-.343.363-.343zm8.507-2.148c.111-.064.248-.064.36 0 .111.064.18.183.18.312V12.2c0 .128-.069.247-.18.311-.112.065-.249.065-.36 0-.111-.064-.18-.183-.18-.311V6.766c0-.129.069-.248.18-.312zm4.864 4.441c-.404 0-.73.327-.73.73-.001.194.075.38.213.518.137.137.323.213.517.213.403 0 .73-.327.73-.73 0-.404-.327-.73-.73-.73zM5.969 6.802c.114-.07.258-.07.372 0 .115.069.182.195.174.329v4.35c-.01.192-.168.341-.36.341-.191 0-.35-.15-.36-.34V7.13c-.008-.134.06-.26.174-.33zM23.525 4.95c.197-.001.357.157.36.354v5.812c-.01.191-.168.341-.36.341-.191 0-.35-.15-.36-.34V5.303c.003-.197.163-.354.36-.354zm-3.081 2.582c.114-.069.258-.069.372 0 .115.07.182.196.174.33v2.53c.008.133-.06.26-.174.328-.114.07-.258.07-.372 0-.115-.069-.182-.195-.174-.329v-2.53c-.008-.133.06-.26.174-.329zM14.84 4.22c.097 0 .19.039.259.108.068.068.107.161.106.258V9.3c-.004.198-.167.356-.365.355-.197.001-.358-.158-.36-.355V4.585c-.001-.096.036-.189.104-.258.067-.069.16-.108.256-.108zM13.9 0c.789 0 1.434.628 1.456 1.416-.003.15-.03.3-.081.44l3.368 2.138c.274-.264.641-.408 1.021-.4.38.008.741.167 1.004.441l2.68-1.524c.172-.099.392-.041.495.13.096.173.033.392-.14.49l-2.675 1.54c.036.125.056.255.058.386 0 .803-.65 1.453-1.453 1.453s-1.453-.65-1.453-1.453c0-.153.028-.306.08-.45l-3.365-2.139c-.267.254-.621.396-.99.398-.23-.002-.455-.058-.66-.162l-2.439 2.761c.163.242.25.526.252.817 0 .803-.651 1.455-1.455 1.455s-1.455-.652-1.455-1.455l.026-.237-1.476-.633c-.276.349-.695.554-1.14.558-.291-.001-.576-.091-.816-.257L.606 9.397c-.065.062-.151.096-.24.097-.107 0-.207-.048-.275-.129-.062-.071-.094-.164-.088-.26.006-.094.049-.182.12-.245L4.27 5.175c-.112-.204-.17-.433-.167-.665 0-.803.65-1.454 1.453-1.454S7.01 3.707 7.01 4.51l-.022.236 1.483.645c.268-.356.687-.567 1.133-.57.23.002.455.06.656.171l2.438-2.76c-.163-.24-.25-.525-.253-.816C12.466.628 13.111 0 13.9 0zm3.66 6.82c.111-.065.248-.065.36 0 .11.064.18.182.18.31v1.805c0 .199-.162.36-.36.36-.199 0-.36-.161-.36-.36V7.13c0-.129.069-.247.18-.312zM9.603 5.55c-.194 0-.38.076-.517.214-.137.137-.214.323-.213.517 0 .403.327.73.73.73.403 0 .73-.327.73-.73 0-.404-.327-.73-.73-.73zm10.028-1.227c-.194.002-.38.078-.517.215-.137.136-.214.322-.214.515.003.399.328.72.727.72.399-.002.722-.325.723-.724.001-.399-.32-.723-.72-.726zM5.558 3.779c-.403 0-.73.327-.73.73 0 .404.327.731.73.731.404 0 .73-.327.73-.73 0-.404-.326-.73-.73-.73zM13.9.685c-.194-.001-.38.076-.518.213-.137.137-.214.323-.213.517 0 .404.327.73.73.73.404 0 .731-.326.731-.73 0-.403-.327-.73-.73-.73z" transform="translate(-753 -1438) translate(345 997) translate(0 410) translate(210) translate(198 31.035)"/>
                        </g>
                    </g>
                </g>
            </g>
        </g>
    </g>
</svg>
