<svg xmlns="http://www.w3.org/2000/svg" width="24" height="24" viewBox="0 0 24 24">
    <g fill="none" fill-rule="evenodd" opacity=".7">
        <g fill="#FFF" fill-rule="nonzero">
            <g>
                <g>
                    <g>
                        <g>
                            <path d="M5.468 5.468c.124-.124.306-.168.473-.116l6.283 1.953c.248.078.387.341.31.59-.078.248-.341.386-.59.31L6.517 6.515l4.898 15.753 2.173-4.373c.067-.136.196-.23.345-.255.15-.025.302.024.409.131l5.074 5.074 3.431-3.431-5.074-5.074c-.107-.107-.156-.26-.131-.409.024-.15.119-.278.255-.345l4.373-2.173-6.724-2.09c-.248-.077-.386-.341-.309-.59.077-.247.34-.386.59-.309l7.843 2.44c.184.057.314.22.33.411.015.192-.088.374-.26.46L18.9 14.137l4.944 4.944c.183.184.183.482 0 .665l-4.097 4.097c-.184.184-.482.184-.666 0l-4.944-4.943-2.403 4.838c-.08.16-.244.261-.421.261l-.038-.001c-.192-.016-.355-.146-.412-.33L5.352 5.941c-.052-.167-.008-.35.116-.473zM2.895 8.041c.184-.184.482-.184.666 0 .184.184.184.482 0 .665L2.364 9.903c-.091.092-.212.138-.332.138-.12 0-.241-.046-.333-.138-.184-.184-.184-.482 0-.666zm10.726-.12c.159-.106.37-.103.527.004.163.11.24.32.188.51-.052.192-.224.334-.423.347-.199.013-.39-.105-.466-.29-.084-.205-.01-.447.174-.57zM2.162 5.331c.26 0 .471.21.471.47s-.21.47-.47.47H.47c-.26 0-.471-.21-.471-.47s.21-.47.47-.47zM1.7 1.698c.184-.184.482-.184.666 0L3.56 2.895c.184.184.184.482 0 .666-.092.092-.213.138-.333.138-.12 0-.24-.046-.333-.138L1.7 2.365c-.184-.184-.184-.482 0-.666zm7.538 0c.184-.184.482-.184.666 0 .184.184.184.482 0 .666L8.706 3.56c-.091.092-.212.138-.332.138-.12 0-.241-.046-.333-.138-.184-.184-.184-.482 0-.666zM5.801 0c.26 0 .47.21.47.47v1.692c0 .26-.21.471-.47.471s-.47-.21-.47-.47V.47C5.33.21 5.54 0 5.8 0z" transform="translate(-1265 -1089) translate(345 997) translate(0 60) translate(722) translate(198 32)"/>
                        </g>
                    </g>
                </g>
            </g>
        </g>
    </g>
</svg>
