<svg xmlns="http://www.w3.org/2000/svg" width="27" height="25" viewBox="0 0 27 25">
    <defs>
        <filter id="6e9pgtoy4a">
            <feColorMatrix in="SourceGraphic" values="0 0 0 0 0.776471 0 0 0 0 0.435294 0 0 0 0 0.925490 0 0 0 1.000000 0"/>
        </filter>
    </defs>
    <g fill="none" fill-rule="evenodd">
        <g>
            <g>
                <g>
                    <g>
                        <g filter="url(#6e9pgtoy4a)" transform="translate(-896 -2297) translate(0 202) translate(0 1975) translate(345 104) translate(393)">
                            <g>
                                <path fill="#1A171B" fill-rule="nonzero" d="M9.79 0l.028.012c1.812.002 3.587.51 5.127 1.465l.047.023.029.024c.606.389 1.17.84 1.683 1.346.984.984 1.745 2.168 2.232 3.472h6.927c.22.003.399.18.401.401.001.107-.04.21-.116.285-.076.076-.178.118-.285.117l-6.662-.001c.185.671.3 1.36.342 2.056 2.152 1.005 3.53 3.163 3.537 5.539.004.983-.233 1.952-.69 2.822l3.412 3.425c.298.298.466.702.466 1.123 0 .42-.168.824-.466 1.122l-.348.354c-.626.614-1.629.614-2.255 0l-3.413-3.413c-2.344 1.23-5.213.804-7.1-1.052-.933.297-1.906.448-2.886.449-1.196 0-2.382-.216-3.501-.637C1.894 17.253-.687 12.672.16 8.035 1.007 3.398 5.04.025 9.754.012L9.79 0zm12.163 18.27c-.404.569-.903 1.064-1.475 1.465l3.283 3.283c.31.307.81.307 1.121 0l.354-.342c.307-.316.307-.819 0-1.135zm-4.99-8.853c-2.939 0-5.321 2.383-5.321 5.322 0 2.938 2.382 5.32 5.321 5.32 2.939 0 5.321-2.382 5.321-5.32-.006-2.937-2.384-5.316-5.32-5.322zM8.42 14.491L6.96 18.317c1.662.55 3.45.596 5.138.13-.815-1.064-1.255-2.368-1.252-3.708v-.177c-.346.084-.7.127-1.057.13-.464-.001-.925-.069-1.37-.201zm8.341-3.588c.127-.077.285-.077.412 0 .127.076.2.216.193.364v.389c.847.143 1.475.865 1.5 1.725 0 .218-.178.395-.396.395-.219 0-.396-.177-.396-.395-.07-.553-.541-.967-1.098-.967s-1.028.414-1.1.967c.002.637.368.956 1.099.956.494-.058.989.103 1.353.442.364.34.56.821.537 1.318-.027.853-.652 1.57-1.494 1.712v.39c.008.148-.066.288-.193.365-.127.076-.285.076-.412 0-.126-.077-.2-.217-.192-.364v-.39c-.841-.146-1.465-.86-1.494-1.713-.008-.148.066-.288.193-.364.126-.076.285-.076.411 0 .127.076.201.216.193.364.075.549.544.958 1.099.958.554 0 1.023-.41 1.098-.958 0-.638-.373-.968-1.099-.968-.493.06-.987-.1-1.351-.436-.365-.337-.564-.817-.544-1.312.025-.857.65-1.578 1.494-1.725v-.39c-.013-.147.06-.287.187-.363zM4.906 10.18H.819c.089 2.244 1.02 4.373 2.61 5.96.804.795 1.75 1.432 2.788 1.879l1.458-3.812c-.505-.238-.964-.561-1.358-.957-.822-.822-1.322-1.911-1.411-3.07zm4.883-4.497c-1.608-.008-3.073.926-3.744 2.387-.672 1.462-.427 3.18.627 4.396 1.053 1.216 2.72 1.702 4.262 1.245.307-1.781 1.383-3.337 2.942-4.252-.175-2.13-1.95-3.77-4.087-3.776zM9.388.826c-2.244.09-4.371 1.023-5.959 2.611C1.839 5.021.907 7.147.819 9.388h4.087C5.09 6.993 6.993 5.09 9.388 4.902zm5.507 1.583l-2.177 3.46c.187.137.365.287.531.449.751.746 1.239 1.716 1.389 2.764 1.292-.534 2.73-.605 4.068-.2-.058-.59-.173-1.172-.342-1.74h-2.139c-.106.002-.209-.04-.285-.116-.075-.075-.117-.178-.116-.285.003-.22.18-.399.401-.401h1.852c-.448-1.086-1.106-2.072-1.935-2.903-.382-.382-.8-.726-1.247-1.028zM10.185.826v4.076c.651.056 1.285.24 1.866.54l2.167-3.459C12.984 1.284 11.602.887 10.185.826zm14.484 3.13c.107-.001.209.04.284.115.076.075.119.176.119.283 0 .222-.18.403-.403.405h-4.068c-.222-.003-.4-.184-.4-.405 0-.106.042-.207.117-.282.075-.075.177-.116.283-.116zm1.194-2.385c.141 0 .272.075.342.198.071.122.071.273 0 .395-.07.123-.2.198-.342.198h-5.262c-.141 0-.272-.075-.343-.198-.07-.122-.07-.273 0-.395.071-.123.202-.198.343-.198z" transform="translate(158 16)"/>
                            </g>
                        </g>
                    </g>
                </g>
            </g>
        </g>
    </g>
</svg>
