<svg xmlns="http://www.w3.org/2000/svg" width="50" height="50" viewBox="0 0 50 50">
    <defs>
        <radialGradient id="h4ykm0v7oa" cx="-6.111%" cy="92.988%" r="135.168%" fx="-6.111%" fy="92.988%" gradientTransform="scale(1 .8989) rotate(-38.277 .09 .982)">
            <stop offset="0%" stop-color="#FEDB41"/>
            <stop offset="100%" stop-color="#F4CA10"/>
        </radialGradient>
        <radialGradient id="c1gm1bb7cb" cx="-6.111%" cy="92.988%" r="135.168%" fx="-6.111%" fy="92.988%" gradientTransform="scale(1 .8989) rotate(-38.277 .09 .982)">
            <stop offset="0%" stop-color="#FEDB41"/>
            <stop offset="100%" stop-color="#F4CA10"/>
        </radialGradient>
        <radialGradient id="dipspggvoc" cx="31.532%" cy="-12.948%" r="181.025%" fx="31.532%" fy="-12.948%" gradientTransform="scale(.64452 1) rotate(-24.568 .402 -.529)">
            <stop offset="0%" stop-color="#FEDB41"/>
            <stop offset="100%" stop-color="#F0C60E"/>
        </radialGradient>
    </defs>
    <g fill="none" fill-rule="evenodd">
        <g>
            <g>
                <g>
                    <g>
                        <g>
                            <path fill="url(#h4ykm0v7oa)" d="M31.208 44.018l1.711 4.702C30.43 49.55 27.768 50 25 50s-5.43-.45-7.919-1.28l1.711-4.702c1.955.637 4.041.982 6.208.982s4.253-.345 6.208-.982zm9.637-6.813l4.1 2.87c-2.816 3.72-6.648 6.627-11.083 8.309l-1.711-4.7c3.464-1.327 6.465-3.59 8.694-6.479zm-31.69 0c2.136 2.77 4.981 4.962 8.263 6.308l.431.17-1.711 4.7c-4.435-1.681-8.267-4.588-11.083-8.308l4.1-2.87zM49.98 26c-.186 4.745-1.696 9.15-4.169 12.857l-.278.41-4.096-2.87c2.068-2.977 3.349-6.543 3.538-10.397h5.005zm-3.99-14.587C48.526 15.325 50 19.99 50 25h-5c0-3.942-1.14-7.618-3.11-10.716l4.1-2.87zM34.18 1.74c4.4 1.738 8.19 4.689 10.955 8.44l.292.405-4.095 2.87c-2.205-3.113-5.276-5.568-8.863-7.013L34.18 1.74zM25 0c2.888 0 5.662.49 8.242 1.39l-1.71 4.701C29.485 5.384 27.287 5 25 5s-4.485.384-6.532 1.091l-1.71-4.7C19.338.49 22.112 0 25 0z" transform="translate(-991 -4669) translate(0 4132) translate(0 332) translate(991 205)"/>
                            <path fill="#FFF" fill-rule="nonzero" d="M8.563 36.398l-4.096 2.868C1.83 35.476.213 30.921.02 26h5.005c.19 3.854 1.47 7.42 3.538 10.398zM4.01 11.413l4.1 2.871C6.14 17.382 5 21.058 5 25H0c0-5.01 1.473-9.675 4.01-13.587zM15.819 1.74l1.711 4.702c-3.587 1.445-6.658 3.9-8.863 7.012l-4.095-2.869C7.36 6.641 11.262 3.54 15.819 1.74z" opacity=".3" transform="translate(-991 -4669) translate(0 4132) translate(0 332) translate(991 205)"/>
                        </g>
                        <g opacity=".4">
                            <path fill="url(#c1gm1bb7cb)" d="M24.966 35.214l1.37 3.762C24.343 39.64 22.213 40 20 40c-2.214 0-4.344-.36-6.335-1.024l1.369-3.762c1.563.51 3.232.786 4.966.786s3.403-.276 4.966-.786zm7.71-5.45l3.28 2.296c-2.252 2.976-5.318 5.302-8.866 6.647l-1.37-3.76c2.772-1.061 5.173-2.871 6.956-5.183zm-25.352 0c1.709 2.215 3.985 3.97 6.61 5.046l.345.137-1.369 3.76c-3.548-1.345-6.614-3.671-8.866-6.647l3.28-2.296zm32.66-8.964c-.15 3.796-1.356 7.32-3.335 10.286l-.223.327-3.277-2.295c1.655-2.382 2.68-5.235 2.831-8.318h4.004zM36.791 9.13C38.821 12.26 40 15.993 40 20h-4c0-3.154-.912-6.095-2.488-8.572l3.28-2.297zm-9.446-7.738c3.52 1.39 6.551 3.751 8.764 6.752l.234.324-3.277 2.295c-1.763-2.49-4.22-4.454-7.09-5.61l1.369-3.761zM20 0c2.31 0 4.53.392 6.594 1.112l-1.368 3.76C23.588 4.308 21.83 4 20 4s-3.588.307-5.226.873l-1.368-3.76C15.471.391 17.69 0 20 0z" transform="translate(-991 -4669) translate(0 4132) translate(0 332) translate(991 205) translate(5 5)"/>
                            <path fill="#FFF" fill-rule="nonzero" d="M6.85 29.118l-3.276 2.295C1.464 28.381.17 24.737.016 20.8H4.02c.152 3.083 1.176 5.936 2.83 8.318zM3.209 9.13l3.279 2.298C4.912 13.905 4 16.846 4 20H0c0-4.008 1.179-7.74 3.209-10.87zM12.655 1.392l1.37 3.761c-2.87 1.156-5.328 3.12-7.091 5.61L3.657 8.468c2.23-3.155 5.352-5.636 8.998-7.076z" opacity=".3" transform="translate(-991 -4669) translate(0 4132) translate(0 332) translate(991 205) translate(5 5)"/>
                        </g>
                        <g>
                            <path fill="url(#dipspggvoc)" d="M12 5.625c-.239 0-.478.014-.703.042L9.89 13.36 12 15.47l2.11-2.11-1.407-7.692c-.225-.028-.464-.042-.703-.042zM7.037 8.426c-1.023.097-1.503-.576-1.606-1.179-.11-.657.176-1.42 1.067-1.643.264-.066.466-.277.52-.543.053-.266-.051-.539-.268-.702L1.125.141C.853-.065.47-.043.22.19c-.248.235-.292.614-.104.9l.608.92C1.63 3.348 1.658 5.113.8 6.5.276 7.323 0 8.24 0 9.153c0 2.706 2.208 4.908 4.948 4.908 1.169-.02 2.083-.947 2.083-2.109 0-.87.234-1.723.675-2.468.135-.227.131-.51-.01-.734-.143-.224-.396-.35-.66-.325zm16.166-1.923c-.86-1.392-.832-3.154.076-4.498l.604-.914c.188-.286.144-.665-.104-.9-.25-.234-.632-.256-.904-.05L17.25 4.359c-.217.163-.321.436-.268.702.054.266.256.477.52.543.895.224 1.182.988 1.07 1.647-.102.6-.616 1.27-1.609 1.175-.277-.03-.517.102-.659.325-.141.223-.145.507-.01.734.441.745.675 1.599.675 2.468 0 1.14.897 2.067 2.11 2.11 2.713 0 4.921-2.203 4.921-4.909 0-.91-.276-1.828-.797-2.65z" opacity=".8" transform="translate(-991 -4669) translate(0 4132) translate(0 332) translate(991 205) translate(13 16)"/>
                            <path fill="#FEDB41" d="M19.064 12.656c-.394-.014-.689-.323-.689-.703 0-1.125-.295-2.222-.872-3.178-1.012-1.73-2.831-2.883-4.8-3.108v7.692c0 .394-.31.703-.703.703-.394 0-.703-.309-.703-.703V5.667c-1.969.225-3.788 1.378-4.8 3.108-.577.956-.872 2.053-.872 3.178 0 .394-.31.703-.703.703-.394 0-.703.31-.703.703v2.813c0 .394.31.703.703.703h14.156c.394 0 .703-.31.703-.703v-2.813c0-.38-.337-.689-.717-.703z" transform="translate(-991 -4669) translate(0 4132) translate(0 332) translate(991 205) translate(13 16)"/>
                        </g>
                    </g>
                </g>
            </g>
        </g>
    </g>
</svg>
