<svg xmlns="http://www.w3.org/2000/svg" width="50" height="50" viewBox="0 0 50 50">
    <defs>
        <radialGradient id="sx8gc4gkza" cx="-6.111%" cy="92.988%" r="130.094%" fx="-6.111%" fy="92.988%">
            <stop offset="0%" stop-color="#FEDB41"/>
            <stop offset="100%" stop-color="#F4CA10"/>
        </radialGradient>
        <radialGradient id="rwbj58c5rb" cx="31.532%" cy="-12.948%" r="140.361%" fx="31.532%" fy="-12.948%" gradientTransform="matrix(.75599 -.53623 .65459 .6193 .162 .12)">
            <stop offset="0%" stop-color="#FEDB41"/>
            <stop offset="100%" stop-color="#F0C60E"/>
        </radialGradient>
        <radialGradient id="yjw3mpa5oc" cx="31.532%" cy="-12.948%" r="218.211%" fx="31.532%" fy="-12.948%" gradientTransform="matrix(.48628 -.34492 .8738 .19195 .275 .004)">
            <stop offset="0%" stop-color="#FEDB41"/>
            <stop offset="100%" stop-color="#F0C60E"/>
        </radialGradient>
    </defs>
    <g fill="none" fill-rule="evenodd">
        <g>
            <g>
                <g>
                    <g>
                        <g>
                            <path fill="#FEDB41" d="M31.208 44.018l1.711 4.702C30.43 49.55 27.768 50 25 50s-5.43-.45-7.919-1.28l1.711-4.702c1.955.637 4.041.982 6.208.982s4.253-.345 6.208-.982zm9.637-6.813l4.1 2.87c-2.816 3.72-6.648 6.627-11.083 8.309l-1.711-4.7c3.464-1.327 6.465-3.59 8.694-6.479zm-31.69 0c2.136 2.77 4.981 4.962 8.263 6.308l.431.17-1.711 4.7c-4.435-1.681-8.267-4.588-11.083-8.308l4.1-2.87zM49.98 26c-.186 4.745-1.696 9.15-4.169 12.857l-.278.41-4.096-2.87c2.068-2.977 3.349-6.543 3.538-10.397h5.005zM5.025 26c.19 3.854 1.47 7.42 3.538 10.398l-4.096 2.868C1.83 35.476.213 30.921.02 26h5.005zm40.964-14.587C48.527 15.325 50 19.99 50 25h-5c0-3.942-1.14-7.618-3.11-10.716l4.1-2.87zm-41.978 0l4.099 2.871C6.14 17.382 5 21.058 5 25H0c0-5.01 1.473-9.675 4.01-13.587zM34.18 1.74c4.4 1.738 8.19 4.689 10.955 8.44l.292.405-4.095 2.87c-2.205-3.113-5.276-5.568-8.863-7.013L34.18 1.74zM25 0c2.888 0 5.662.49 8.242 1.39l-1.71 4.701C29.485 5.384 27.287 5 25 5s-4.485.384-6.532 1.091l-1.71-4.7C19.338.49 22.112 0 25 0z" transform="translate(-991 -4871) translate(0 4132) translate(0 332) translate(991 407)"/>
                            <path fill="#FFF" fill-rule="nonzero" d="M15.819 1.74l1.711 4.702c-3.587 1.445-6.658 3.9-8.863 7.012l-4.095-2.869C7.36 6.641 11.262 3.54 15.819 1.74z" opacity=".3" transform="translate(-991 -4871) translate(0 4132) translate(0 332) translate(991 407)"/>
                        </g>
                        <g opacity=".4">
                            <path fill="url(#sx8gc4gkza)" d="M24.966 35.214l1.37 3.762C24.343 39.64 22.213 40 20 40c-2.214 0-4.344-.36-6.335-1.024l1.369-3.762c1.563.51 3.232.786 4.966.786s3.403-.276 4.966-.786zm7.71-5.45l3.28 2.296c-2.252 2.976-5.318 5.302-8.866 6.647l-1.37-3.76c2.772-1.061 5.173-2.871 6.956-5.183zm-25.352 0c1.709 2.215 3.985 3.97 6.61 5.046l.345.137-1.369 3.76c-3.548-1.345-6.614-3.671-8.866-6.647l3.28-2.296zm32.66-8.964c-.15 3.796-1.356 7.32-3.335 10.286l-.223.327-3.277-2.295c1.655-2.382 2.68-5.235 2.831-8.318h4.004zm-35.964 0c.152 3.083 1.176 5.936 2.83 8.318l-3.276 2.295C1.464 28.381.17 24.737.016 20.8H4.02zM36.79 9.13C38.821 12.26 40 15.993 40 20h-4c0-3.154-.912-6.095-2.488-8.572l3.28-2.297zm-33.582 0l3.279 2.298C4.912 13.905 4 16.846 4 20H0c0-4.008 1.179-7.74 3.209-10.87zm24.136-7.738c3.52 1.39 6.551 3.751 8.764 6.752l.234.324-3.277 2.295c-1.763-2.49-4.22-4.454-7.09-5.61l1.369-3.761zM20 0c2.31 0 4.53.392 6.594 1.112l-1.368 3.76C23.588 4.308 21.83 4 20 4s-3.588.307-5.226.873l-1.368-3.76C15.471.391 17.69 0 20 0z" transform="translate(-991 -4871) translate(0 4132) translate(0 332) translate(991 407) translate(5 5)"/>
                            <path fill="#FFF" fill-rule="nonzero" d="M12.655 1.392l1.37 3.761c-2.87 1.156-5.328 3.12-7.091 5.61L3.657 8.468c2.23-3.155 5.352-5.636 8.998-7.076z" opacity=".3" transform="translate(-991 -4871) translate(0 4132) translate(0 332) translate(991 407) translate(5 5)"/>
                        </g>
                        <g>
                            <path fill="#C6A62B" d="M9.28 3.06c-.201-.038-.42.012-.584.146-.164.134-.258.333-.258.544v1.266c0 .388-.316.703-.704.703-.387 0-.703-.315-.703-.703V3.75c0-.21-.094-.41-.258-.544-.163-.134-.383-.186-.584-.145C2.602 3.784 0 6.97 0 10.64v9.843c0 .235.118.455.313.585l4.219 2.813c.217.143.494.157.722.035.228-.122.371-.36.371-.62v-6.849c0-.247-.13-.476-.342-.603l-1.064-.638v-3.508l3.154 1.893c.223.133.5.133.723 0l3.154-1.893v3.508l-1.064.638c-.213.127-.342.356-.342.603v6.849c0 .26.143.498.37.62.228.121.504.11.723-.035l4.219-2.813c.195-.13.313-.35.313-.585v-9.843c0-3.67-2.603-6.857-6.19-7.58z" transform="translate(-991 -4871) translate(0 4132) translate(0 332) translate(991 407) translate(17 12)"/>
                            <path fill="url(#rwbj58c5rb)" d="M6.19 3.06c.2-.04.42.012.583.146.164.134.258.333.258.544v1.266c0 .388.316.703.703.703.388 0 .704-.315.704-.703V3.75c0-.21.094-.41.258-.544.163-.134.383-.184.583-.145 3.587.723 6.19 3.91 6.19 7.58l-.001 7.82-5.625 3.47v-5.483c0-.212.096-.41.257-.542l.086-.06 1.064-.64V11.7l-3.154 1.893c-.223.133-.5.133-.723 0L4.22 11.699v3.508l1.064.638c.213.127.342.356.342.603l-.001 5.473L0 18.431v-7.79c0-3.584 2.483-6.708 5.94-7.526z" transform="translate(-991 -4871) translate(0 4132) translate(0 332) translate(991 407) translate(17 12)"/>
                            <path fill="url(#yjw3mpa5oc)" d="M8.438 0H7.03c-.388 0-.703.315-.703.703V5.72c0 .775.63 1.406 1.406 1.406.776 0 1.407-.631 1.407-1.406V.703C9.14.315 8.826 0 8.437 0z" transform="translate(-991 -4871) translate(0 4132) translate(0 332) translate(991 407) translate(17 12)"/>
                        </g>
                    </g>
                </g>
            </g>
        </g>
    </g>
</svg>
