<svg xmlns="http://www.w3.org/2000/svg" width="50" height="50" viewBox="0 0 50 50">
    <defs>
        <radialGradient id="l0yjbwhq8a" cx="-6.111%" cy="92.988%" r="238.318%" fx="-6.111%" fy="92.988%" gradientTransform="scale(.46927 1) rotate(-18.41 -.096 1.143)">
            <stop offset="0%" stop-color="#ABF0FF"/>
            <stop offset="35.37%" stop-color="#10C0E6"/>
            <stop offset="100%" stop-color="#0071DB"/>
        </radialGradient>
    </defs>
    <g fill="none" fill-rule="evenodd">
        <g>
            <g>
                <g>
                    <g>
                        <g>
                            <path fill="#FFF" fill-rule="nonzero" d="M25 45c2.167 0 4.253-.345 6.208-.982l1.711 4.702C30.43 49.55 27.768 50 25 50s-5.43-.45-7.919-1.28l1.711-4.702c1.955.637 4.041.982 6.208.982zM40.845 37.205l4.1 2.87c-2.816 3.72-6.648 6.627-11.083 8.309l-1.711-4.7c3.464-1.327 6.465-3.59 8.694-6.479zM17.85 43.684l-1.712 4.7c-4.435-1.682-8.267-4.59-11.083-8.309l4.1-2.87c2.136 2.77 4.981 4.962 8.263 6.308l.431.17zM45.533 39.266l-4.096-2.868c2.068-2.978 3.349-6.544 3.538-10.398h5.005c-.186 4.745-1.696 9.15-4.169 12.857l-.278.41zM8.563 36.398l-4.096 2.868C1.83 35.476.213 30.921.02 26h5.005c.19 3.854 1.47 7.42 3.538 10.398zM50 25h-5c0-3.942-1.14-7.618-3.11-10.716l4.1-2.87C48.526 15.324 50 19.99 50 25zM4.01 11.413l4.1 2.871C6.14 17.382 5 21.058 5 25H0c0-5.01 1.473-9.675 4.01-13.587z" opacity=".3" transform="translate(-345 -4669) translate(0 4132) translate(0 332) translate(345 205)"/>
                            <path fill="#4ACDED" d="M34.181 1.74c4.4 1.738 8.19 4.689 10.955 8.44l.292.405-4.095 2.87c-2.205-3.113-5.276-5.568-8.863-7.013L34.18 1.74zM25 0c2.888 0 5.662.49 8.242 1.39l-1.71 4.701C29.485 5.384 27.287 5 25 5s-4.485.384-6.532 1.091l-1.71-4.7C19.338.49 22.112 0 25 0z" transform="translate(-345 -4669) translate(0 4132) translate(0 332) translate(345 205)"/>
                            <path fill="#FFF" fill-rule="nonzero" d="M15.819 1.74l1.711 4.702c-3.587 1.445-6.658 3.9-8.863 7.012l-4.095-2.869C7.36 6.641 11.262 3.54 15.819 1.74z" opacity=".3" transform="translate(-345 -4669) translate(0 4132) translate(0 332) translate(345 205)"/>
                        </g>
                        <g opacity=".4">
                            <path fill="#FFF" fill-rule="nonzero" d="M20 36c1.734 0 3.403-.276 4.966-.786l1.37 3.762C24.343 39.64 22.213 40 20 40c-2.214 0-4.344-.36-6.335-1.024l1.369-3.762c1.563.51 3.232.786 4.966.786zM32.676 29.764l3.28 2.296c-2.252 2.976-5.318 5.302-8.866 6.647l-1.37-3.76c2.772-1.061 5.173-2.871 6.956-5.183zM14.28 34.947l-1.37 3.76c-3.548-1.345-6.614-3.671-8.866-6.647l3.28-2.296c1.709 2.215 3.985 3.97 6.61 5.046l.345.137zM36.426 31.413l-3.277-2.295c1.655-2.382 2.68-5.235 2.831-8.318h4.004c-.15 3.796-1.356 7.32-3.335 10.286l-.223.327zM6.85 29.118l-3.276 2.295C1.464 28.381.17 24.737.016 20.8H4.02c.152 3.083 1.176 5.936 2.83 8.318zM40 20h-4c0-3.154-.912-6.095-2.488-8.572l3.28-2.297C38.821 12.26 40 15.992 40 20zM3.209 9.13l3.279 2.298C4.912 13.905 4 16.846 4 20H0c0-4.008 1.179-7.74 3.209-10.87z" opacity=".3" transform="translate(-345 -4669) translate(0 4132) translate(0 332) translate(345 205) translate(5 5)"/>
                            <path fill="url(#l0yjbwhq8a)" d="M27.345 1.392c3.52 1.39 6.551 3.751 8.764 6.752l.234.324-3.277 2.295c-1.763-2.49-4.22-4.454-7.09-5.61l1.369-3.761zM20 0c2.31 0 4.53.392 6.594 1.112l-1.368 3.76C23.588 4.308 21.83 4 20 4s-3.588.307-5.226.873l-1.368-3.76C15.471.391 17.69 0 20 0z" opacity=".8" transform="translate(-345 -4669) translate(0 4132) translate(0 332) translate(345 205) translate(5 5)"/>
                            <path fill="#FFF" fill-rule="nonzero" d="M12.655 1.392l1.37 3.761c-2.87 1.156-5.328 3.12-7.091 5.61L3.657 8.468c2.23-3.155 5.352-5.636 8.998-7.076z" opacity=".3" transform="translate(-345 -4669) translate(0 4132) translate(0 332) translate(345 205) translate(5 5)"/>
                        </g>
                        <g>
                            <path fill="#4ACDED" d="M9.771 10.239l-.97-1.125H6.81l-1.113 1.125c-2.887.875-4.995 3.56-4.995 6.73C.703 20.846 3.857 24 7.734 24s7.032-3.154 7.032-7.031c0-3.17-2.108-5.855-4.995-6.73zm5.626-4.127L12.584.392c-.118-.24-.363-.392-.63-.392H7.867l-.16 1.282 2.95 6.968 1.052.825 3.417-2.05c.314-.188.43-.585.27-.913zM3.857 1.333l-.972-.94L.072 6.112c-.161.328-.044.725.27.913l5.356 3.214.23-1.658-2.071-7.248z" transform="translate(-345 -4669) translate(0 4132) translate(0 332) translate(345 205) translate(17 13)"/>
                            <path fill="#2BB4D6" d="M10.653 15.61l-1.572-.24-.71-1.513c-.116-.246-.364-.404-.637-.404-.272 0-.52.158-.636.404l-.71 1.512-1.572.24c-.26.04-.477.223-.56.473-.085.25-.021.525.163.714l1.158 1.187-.275 1.685c-.043.266.07.533.29.688.22.155.509.17.744.04l1.398-.772 1.398.773c.237.13.527.113.746-.04.22-.156.332-.423.289-.689l-.275-1.685 1.158-1.187c.184-.189.247-.464.164-.714-.084-.25-.3-.432-.56-.472zM7.734 9.938c.708 0 1.392.105 2.037.3l.721-.432 1.218-.731L7.868 0H3.516c-.268 0-.513.152-.631.393l2.813 9.845c.645-.195 1.329-.3 2.036-.3z" transform="translate(-345 -4669) translate(0 4132) translate(0 332) translate(345 205) translate(17 13)"/>
                        </g>
                    </g>
                </g>
            </g>
        </g>
    </g>
</svg>
