<?xml version="1.0" encoding="UTF-8"?>
<svg width="30px" height="30px" viewBox="0 0 30 30" version="1.1" xmlns="http://www.w3.org/2000/svg" xmlns:xlink="http://www.w3.org/1999/xlink">
    <title>00957133-3403-4BC5-8FE6-9E97E482DE5E</title>
    <g id="Внутренние" stroke="none" stroke-width="1" fill="none" fill-rule="evenodd">
        <g id="Карьера-1920" transform="translate(-660.000000, -4726.000000)">
            <g id="Контент" transform="translate(0.000000, 202.000000)">
                <g id="Обратите-внимание" transform="translate(345.000000, 4051.000000)">
                    <g id="Ограничения" transform="translate(0.000000, 92.000000)">
                        <g id="Блок" transform="translate(50.000000, 241.000000)">
                            <g id="Пример" transform="translate(30.000000, 133.000000)">
                                <g id="Иконка" transform="translate(235.000000, 7.000000)">
                                    <g id="Path">
                                        <path d="M15,27 C16.3001703,27 17.5520461,26.7932264 18.7245369,26.4107698 L19.7513736,29.2318859 C18.2582514,29.7301418 16.6606401,30 15,30 C13.3393599,30 11.7417486,29.7301418 10.2486264,29.2318859 L11.2754631,26.4107698 C12.4479539,26.7932264 13.6998297,27 15,27 Z" fill="#2C2C2C" fill-rule="nonzero" opacity="0.300000012"></path>
                                        <path d="M24.5070216,22.3232957 L26.967091,24.0450988 C25.277664,26.2768002 22.9783442,28.0212242 20.3172161,29.0302863 L19.2905455,26.2102159 C21.3691216,25.4141865 23.1698121,24.0566814 24.5070216,22.3232957 Z" fill="#2C2C2C" fill-rule="nonzero" opacity="0.300000012"></path>
                                        <path d="M10.7094545,26.2102159 L9.68278385,29.0302863 C7.02165576,28.0212242 4.72233601,26.2768002 3.03290896,24.0450988 L5.49297844,22.3232957 C6.77447088,23.984457 8.48162553,25.3004085 10.4510933,26.1078013 L10.7094545,26.2102159 Z" fill="#2C2C2C" fill-rule="nonzero" opacity="0.300000012"></path>
                                        <path d="M27.3195403,23.5597179 L24.8619529,21.8386854 C26.1031709,20.0521107 26.871373,17.9121706 26.9852525,15.600172 L29.9882079,15.6002904 C29.876164,18.4471633 28.9706936,21.0901718 27.4867882,23.3143244 L27.3195403,23.5597179 Z" fill="#2C2C2C" fill-rule="nonzero" opacity="0.300000012"></path>
                                        <path d="M5.13804706,21.8386854 L2.68045968,23.5597179 C1.09746668,21.2856706 0.127985807,18.5526031 0.0117921182,15.6002904 L3.01474747,15.600172 C3.12862695,17.9121706 3.89682908,20.0521107 5.13804706,21.8386854 Z" fill="#2C2C2C" fill-rule="nonzero" opacity="0.300000012"></path>
                                        <path d="M30,15 L27,15 C27,12.634636 26.3156307,10.429115 25.1340987,8.57064355 L27.5936159,6.84805995 C29.1159229,9.19498784 30,11.9942503 30,15 Z" fill="#2C2C2C" fill-rule="nonzero" opacity="0.300000012"></path>
                                        <path d="M2.40638412,6.84805995 L4.86590131,8.57064355 C3.68436927,10.429115 3,12.634636 3,15 L0,15 C0,11.9942503 0.884077131,9.19498784 2.40638412,6.84805995 Z" fill="#2C2C2C" fill-rule="nonzero" opacity="0.300000012"></path>
                                        <path d="M27.2569917,6.35111822 L24.7996675,8.07251956 C23.4770569,6.20494615 21.6340102,4.73199337 19.4817863,3.86492033 L20.508641,1.04381211 C23.1488239,2.08677133 25.4221739,3.85725277 27.0815608,6.10812623 L27.2569917,6.35111822 Z" fill="#2C2C2C" fill-rule="nonzero" opacity="0.300000012"></path>
                                        <path d="M9.49135901,1.04381211 L10.5182137,3.86492033 C8.36598985,4.73199337 6.52294308,6.20494615 5.20033246,8.07251956 L2.74300831,6.35111822 C4.41591184,3.98464369 6.75688386,2.12401987 9.49135901,1.04381211 Z" fill="#2C2C2C" fill-rule="nonzero" opacity="0.300000012"></path>
                                        <path d="M15,0 C16.7327934,0 18.396962,0.293817797 19.9454029,0.834350526 L18.9193998,3.6546594 C17.6911291,3.23041015 16.3724721,3 15,3 C13.6275279,3 12.3088709,3.23041015 11.0806002,3.6546594 L10.0545971,0.834350526 C11.603038,0.293817797 13.2672066,0 15,0 Z" fill="#4ACDED"></path>
                                    </g>
                                    <g opacity="0.400000006" transform="translate(3.000000, 3.000000)" id="Path">
                                        <path d="M12,21.6 C13.0401363,21.6 14.0416369,21.4345811 14.9796295,21.1286158 L15.8010989,23.3855087 C14.6066011,23.7841135 13.3285121,24 12,24 C10.6714879,24 9.39339888,23.7841135 8.19890115,23.3855087 L9.02037051,21.1286158 C9.95836309,21.4345811 10.9598637,21.6 12,21.6 Z" fill="#000000" fill-rule="nonzero" opacity="0.300000012"></path>
                                        <path d="M19.6056173,17.8586365 L21.5736728,19.236079 C20.2221312,21.0214402 18.3826754,22.4169793 16.2537729,23.224229 L15.4324364,20.9681727 C17.0952973,20.3313492 18.5358496,19.2453451 19.6056173,17.8586365 Z" fill="#000000" fill-rule="nonzero" opacity="0.300000012"></path>
                                        <path d="M8.56756363,20.9681727 L7.74622708,23.224229 C5.61732461,22.4169793 3.77786881,21.0214402 2.42632717,19.236079 L4.39438275,17.8586365 C5.41957671,19.1875656 6.78530042,20.2403268 8.36087462,20.886241 L8.56756363,20.9681727 Z" fill="#000000" fill-rule="nonzero" opacity="0.300000012"></path>
                                        <path d="M21.8556323,18.8477743 L19.8895624,17.4709483 C20.8825367,16.0416886 21.4970984,14.3297365 21.588202,12.4801376 L23.9905663,12.4802323 C23.9009312,14.7577307 23.1765549,16.8721375 21.9894305,18.6514595 L21.8556323,18.8477743 Z" fill="#000000" fill-rule="nonzero" opacity="0.300000012"></path>
                                        <path d="M4.11043764,17.4709483 L2.14436775,18.8477743 C0.877973346,17.0285365 0.102388646,14.8420825 0.00943369455,12.4802323 L2.41179798,12.4801376 C2.50290156,14.3297365 3.11746326,16.0416886 4.11043764,17.4709483 Z" fill="#000000" fill-rule="nonzero" opacity="0.300000012"></path>
                                        <path d="M24,12 L21.6,12 C21.6,10.1077088 21.0525046,8.34329202 20.1072789,6.85651484 L22.0748927,5.47844796 C23.2927383,7.35599027 24,9.59540022 24,12 Z" fill="#000000" fill-rule="nonzero" opacity="0.300000012"></path>
                                        <path d="M1.9251073,5.47844796 L3.89272105,6.85651484 C2.94749542,8.34329202 2.4,10.1077088 2.4,12 L0,12 C0,9.59540022 0.707261705,7.35599027 1.9251073,5.47844796 Z" fill="#000000" fill-rule="nonzero" opacity="0.300000012"></path>
                                        <path d="M21.8055934,5.08089458 L19.839734,6.45801564 C18.7816455,4.96395692 17.3072081,3.7855947 15.5854291,3.09193627 L16.4069128,0.835049687 C18.5190591,1.66941706 20.3377391,3.08580222 21.6652487,4.88650099 L21.8055934,5.08089458 Z" fill="#000000" fill-rule="nonzero" opacity="0.300000012"></path>
                                        <path d="M7.59308721,0.835049687 L8.41457092,3.09193627 C6.69279188,3.7855947 5.21835446,4.96395692 4.16026597,6.45801564 L2.19440665,5.08089458 C3.53272947,3.18771495 5.40550709,1.6992159 7.59308721,0.835049687 Z" fill="#000000" fill-rule="nonzero" opacity="0.300000012"></path>
                                        <path d="M12,0 C13.3862347,0 14.7175696,0.235054237 15.9563223,0.667480421 L15.1355199,2.92372752 C14.1529033,2.58432812 13.0979777,2.4 12,2.4 C10.9020223,2.4 9.84709671,2.58432812 8.86448013,2.92372752 L8.0436777,0.667480421 C9.28243041,0.235054237 10.6137653,0 12,0 Z" fill="#4ACDED" opacity="0.800000012"></path>
                                    </g>
                                    <g id="award" transform="translate(10.800000, 9.000000)">
                                        <path d="M7.48125,6.44536758 L4.25053125,4.50688711 C4.13363672,4.43675039 3.98745703,4.43675039 3.8705625,4.50688711 L0.861328125,6.31228008 L6.99440506e-16,7.59199219 L6.99440506e-16,10.1762227 L8.12109375,10.1762227 L8.12109375,7.59223828 L7.48125,6.44536758 Z" id="Path" fill="#2BB4D6"></path>
                                        <path d="M3.8705625,7.85383594 L0,10.1762227 L0,12.2308594 C0,12.36375 0.0716132812,12.4865508 0.187277344,12.5520117 C0.302941406,12.6174727 0.4449375,12.61575 0.559125,12.5473359 L4.06054688,10.4464336 L7.56196875,12.5473359 C7.67485195,12.615184 7.81711875,12.6182602 7.93381641,12.5520117 C8.04948047,12.4865508 8.12109375,12.36375 8.12109375,12.2308594 L8.12109375,10.1762227 L4.25053125,7.85383594 C4.13363672,7.78369922 3.98745703,7.78369922 3.8705625,7.85383594 Z M7.75195312,0 L0.369140625,0 C0.165375,0 0,0.165375 0,0.369140625 L0,7.59199219 L3.8705625,5.26985156 C3.98745703,5.19971484 4.13363672,5.19971484 4.25053125,5.26985156 L8.12109375,7.59223828 L8.12109375,0.369140625 C8.12109375,0.165375 7.95571875,0 7.75195312,0 Z" id="Shape" fill="#4ACDED"></path>
                                    </g>
                                </g>
                            </g>
                        </g>
                    </g>
                </g>
            </g>
        </g>
    </g>
</svg>