<svg xmlns="http://www.w3.org/2000/svg" width="50" height="50" viewBox="0 0 50 50">
    <g fill="none" fill-rule="evenodd">
        <g>
            <g>
                <g>
                    <g>
                        <g>
                            <path fill="#FFF" fill-rule="nonzero" d="M25 45c2.167 0 4.253-.345 6.208-.982l1.711 4.702C30.43 49.55 27.768 50 25 50s-5.43-.45-7.919-1.28l1.711-4.702c1.955.637 4.041.982 6.208.982z" opacity=".3" transform="translate(-345 -4972) translate(0 4132) translate(0 332) translate(345 508)"/>
                            <path fill="#4ACDED" d="M40.845 37.205l4.1 2.87c-2.816 3.72-6.648 6.627-11.083 8.309l-1.711-4.7c3.464-1.327 6.465-3.59 8.694-6.479zM49.98 26c-.186 4.745-1.696 9.15-4.169 12.857l-.278.41-4.096-2.87c2.068-2.977 3.349-6.543 3.538-10.397h5.005zm-3.99-14.587C48.526 15.325 50 19.99 50 25h-5c0-3.942-1.14-7.618-3.11-10.716l4.1-2.87zM34.18 1.74c4.4 1.738 8.19 4.689 10.955 8.44l.292.405-4.095 2.87c-2.205-3.113-5.276-5.568-8.863-7.013L34.18 1.74zM25 0c2.888 0 5.662.49 8.242 1.39l-1.71 4.701C29.485 5.384 27.287 5 25 5s-4.485.384-6.532 1.091l-1.71-4.7C19.338.49 22.112 0 25 0z" transform="translate(-345 -4972) translate(0 4132) translate(0 332) translate(345 508)"/>
                            <path fill="#FFF" fill-rule="nonzero" d="M17.85 43.684l-1.712 4.7c-4.435-1.682-8.267-4.59-11.083-8.309l4.1-2.87c2.136 2.77 4.981 4.962 8.263 6.308l.431.17zM8.563 36.398l-4.096 2.868C1.83 35.476.213 30.921.02 26h5.005c.19 3.854 1.47 7.42 3.538 10.398zM4.01 11.413l4.1 2.871C6.14 17.382 5 21.058 5 25H0c0-5.01 1.473-9.675 4.01-13.587zM15.819 1.74l1.711 4.702c-3.587 1.445-6.658 3.9-8.863 7.012l-4.095-2.869C7.36 6.641 11.262 3.54 15.819 1.74z" opacity=".3" transform="translate(-345 -4972) translate(0 4132) translate(0 332) translate(345 508)"/>
                        </g>
                        <g opacity=".4">
                            <path fill="#FFF" fill-rule="nonzero" d="M20 36c1.734 0 3.403-.276 4.966-.786l1.37 3.762C24.343 39.64 22.213 40 20 40c-2.214 0-4.344-.36-6.335-1.024l1.369-3.762c1.563.51 3.232.786 4.966.786z" opacity=".3" transform="translate(-345 -4972) translate(0 4132) translate(0 332) translate(345 508) translate(5 5)"/>
                            <path fill="#4ACDED" d="M32.676 29.764l3.28 2.296c-2.252 2.976-5.318 5.302-8.866 6.647l-1.37-3.76c2.772-1.061 5.173-2.871 6.956-5.183zm7.308-8.964c-.15 3.796-1.356 7.32-3.335 10.286l-.223.327-3.277-2.295c1.655-2.382 2.68-5.235 2.831-8.318h4.004zM36.791 9.13C38.821 12.26 40 15.993 40 20h-4c0-3.154-.912-6.095-2.488-8.572l3.28-2.297zm-9.446-7.738c3.52 1.39 6.551 3.751 8.764 6.752l.234.324-3.277 2.295c-1.763-2.49-4.22-4.454-7.09-5.61l1.369-3.761zM20 0c2.31 0 4.53.392 6.594 1.112l-1.368 3.76C23.588 4.308 21.83 4 20 4s-3.588.307-5.226.873l-1.368-3.76C15.471.391 17.69 0 20 0z" opacity=".8" transform="translate(-345 -4972) translate(0 4132) translate(0 332) translate(345 508) translate(5 5)"/>
                            <path fill="#FFF" fill-rule="nonzero" d="M14.28 34.947l-1.37 3.76c-3.548-1.345-6.614-3.671-8.866-6.647l3.28-2.296c1.709 2.215 3.985 3.97 6.61 5.046l.345.137zM6.85 29.118l-3.276 2.295C1.464 28.381.17 24.737.016 20.8H4.02c.152 3.083 1.176 5.936 2.83 8.318zM3.209 9.13l3.279 2.298C4.912 13.905 4 16.846 4 20H0c0-4.008 1.179-7.74 3.209-10.87zM12.655 1.392l1.37 3.761c-2.87 1.156-5.328 3.12-7.091 5.61L3.657 8.468c2.23-3.155 5.352-5.636 8.998-7.076z" opacity=".3" transform="translate(-345 -4972) translate(0 4132) translate(0 332) translate(345 508) translate(5 5)"/>
                        </g>
                        <g>
                            <path fill="#4ACDED" d="M19.855 1.579h-.914C15.06 1.549 13.625.354 13.534.274c-.14-.148-.326-.224-.53-.228-.205-.004-.397.087-.543.233-.012.012-1.381 1.269-5.402 1.3h-.915l-1.12 1.168v3.676c0 1.408.268 2.776.765 4.043l2.009 1.777c1.142 1.854 2.826 3.37 4.89 4.3.099.045.205.067.312.067.107 0 .213-.022.313-.067 2.063-.93 3.747-2.446 4.89-4.3l1.703-1.371c.605-1.379.934-2.889.934-4.449V2.798l-.985-1.22z" transform="translate(-345 -4972) translate(0 4132) translate(0 332) translate(345 508) translate(12 18)"/>
                            <path fill="#2BB4D6" d="M6.145 1.579H.762C.34 1.579 0 1.92 0 2.34 0 3.358.407 4.317 1.147 5.04c.12.117.246.224.378.324l-.002.024c0 1.017.408 1.976 1.147 2.699.135.132.278.253.428.362.008 2.093 1.713 3.794 3.808 3.794h.892c-1.06-1.718-1.653-3.724-1.653-5.82V1.58zm19.093 0h-5.383v4.844c0 2.096-.594 4.102-1.653 5.82h.892c2.1 0 3.808-1.709 3.808-3.809v-.001c.921-.693 1.519-1.793 1.524-3.03.15-.11.292-.231.427-.363.74-.723 1.147-1.682 1.147-2.7 0-.42-.341-.761-.762-.761zM16.164 4.413c-1.066-.166-2.03-.43-2.866-.785-.19-.08-.405-.08-.596 0-.836.355-1.8.619-2.866.785-.371.058-.645.377-.645.753v1.258c0 2.582 1.258 5.026 3.365 6.535.133.095.288.142.444.142.155 0 .31-.047.444-.142 2.107-1.51 3.365-3.953 3.365-6.535V5.166c0-.376-.274-.695-.645-.753z" transform="translate(-345 -4972) translate(0 4132) translate(0 332) translate(345 508) translate(12 18)"/>
                        </g>
                    </g>
                </g>
            </g>
        </g>
    </g>
</svg>
