<svg xmlns="http://www.w3.org/2000/svg" width="30" height="29" viewBox="0 0 30 29">
    <g fill="none" fill-rule="evenodd">
        <g fill="#5885FF" fill-rule="nonzero">
            <g>
                <g>
                    <g>
                        <path d="M2.407 2.485c3.314-3.313 8.687-3.313 12 0l.668.676.477-.472v-.013l.355-.35.138-.096c3.371-2.866 8.378-2.666 11.51.46 3.199 3.203 3.199 8.393 0 11.597l-.674.673.074.084c.95.911 1.025 2.406.168 3.407-.413.467-.994.752-1.616.794.623.925.545 2.153-.19 2.992-.438.503-1.069.797-1.736.808-.163 0-.31-.014-.458-.027.034.204.04.413.02.619-.09.94-.716 1.743-1.606 2.059-.89.315-1.883.085-2.543-.59-.076.715-.465 1.36-1.062 1.761-.388.263-.845.404-1.314.404-.549-.007-1.08-.191-1.517-.525l-.633.633c-.456.452-1.074.705-1.717.7h-.06c-.667-.01-1.299-.298-1.744-.794-.356-.403-.563-.916-.586-1.454-.928.626-2.157.56-3.012-.162-.498-.448-.79-1.081-.808-1.75-.002-.15.01-.3.035-.446-.21.024-.422.028-.633.014-.725-.07-1.38-.46-1.785-1.065-.63-.976-.496-2.26.323-3.084-.387-.043-.759-.176-1.085-.39-.605-.405-.997-1.06-1.069-1.785-.072-.725.184-1.444.698-1.96l.243-.246-.869-.862C-.8 10.886-.8 5.694 2.4 2.485zm9.886 21.5l-.552.539c-.592.578-.645 1.513-.121 2.154.28.308.675.487 1.09.497.421.017.83-.144 1.125-.443l.607-.605-2.15-2.141zM8.407.916c-2.012 0-3.94.8-5.361 2.224C.197 5.991.197 10.604 3.038 13.456L15.452 25.87c.517.526 1.33.626 1.96.243.382-.252.632-.663.68-1.119.04-.452-.12-.9-.438-1.225l-5.557-5.562c-.086-.081-.136-.193-.138-.31 0-.123.05-.24.138-.324.082-.09.198-.141.32-.141s.238.051.32.141l5.568 5.548.04.054 1.251 1.254c.518.525 1.33.626 1.96.242.386-.248.634-.661.673-1.118.047-.452-.11-.9-.43-1.224l-6.91-6.91c-.175-.18-.175-.468 0-.648.177-.176.462-.176.64 0l6.916 6.91v.014c.296.29.697.445 1.111.432.419-.004.815-.186 1.091-.5.529-.647.469-1.593-.138-2.168l-.908-.916-5.92-5.913c-.163-.18-.156-.454.014-.626s.445-.18.626-.02l5.913 5.91.007.015c.298.292.7.452 1.118.444.42-.011.815-.197 1.091-.512.529-.646.47-1.59-.135-2.167L18.253 7.62l-2.855 2.855c-.507.51-1.195.795-1.913.795l-.256-.014c-.809-.074-1.541-.51-1.994-1.184-.713-1.105-.546-2.56.399-3.475l2.801-2.784-.668-.673C12.347 1.715 10.418.915 8.407.915zM9.49 21.183l-1.596 1.603c-.296.295-.457.7-.445 1.118.009.42.195.815.512 1.09.648.524 1.59.465 2.168-.138l.965-.965.021-.027.523-.526-2.148-2.155zm-2.792-2.789l-.194.19-.02.025-1.323 1.334c-.538.514-.642 1.335-.249 1.967.254.38.663.627 1.117.673.452.04.9-.117 1.227-.43l1.596-1.599-2.154-2.16zm-2.783-2.789l-.25.243c-.324.322-.486.774-.44 1.229.045.455.294.865.676 1.116.627.39 1.44.296 1.96-.23l.208-.202-2.154-2.156zM26.908 3.321c-2.96-2.95-7.749-2.95-10.709 0l-3.923 3.92c-.63.609-.748 1.575-.284 2.317.297.448.778.74 1.313.794.534.055 1.065-.133 1.446-.511l4.027-4.026c.085-.085.2-.133.32-.133s.236.048.32.133c.088.082.137.196.137.316s-.05.234-.137.316l-.52.525 7.343 7.355.667-.674c2.851-2.854 2.851-7.478 0-10.332zm-.66 7.3c.185 0 .352.112.423.284.071.17.032.368-.1.499-.18.175-.466.175-.646 0-.132-.131-.17-.328-.1-.5.07-.17.238-.282.423-.282zM11.262 3.326l.082.012c.165.04.294.168.333.332.04.165-.016.338-.145.448-.176.173-.459.173-.635 0-.084-.084-.131-.198-.131-.317 0-.118.047-.232.131-.316.11-.13.282-.186.447-.147z" transform="translate(-555 -459) translate(345 456) translate(210) translate(0 3)"/>
                    </g>
                </g>
            </g>
        </g>
    </g>
</svg>
