<svg xmlns="http://www.w3.org/2000/svg" width="50" height="50" viewBox="0 0 50 50">
    <g fill="none" fill-rule="evenodd">
        <g>
            <g>
                <g>
                    <g>
                        <g>
                            <path fill="#FFF" fill-rule="nonzero" d="M25 45c2.167 0 4.253-.345 6.208-.982l1.711 4.702C30.43 49.55 27.768 50 25 50s-5.43-.45-7.919-1.28l1.711-4.702c1.955.637 4.041.982 6.208.982zM40.845 37.205l4.1 2.87c-2.816 3.72-6.648 6.627-11.083 8.309l-1.711-4.7c3.464-1.327 6.465-3.59 8.694-6.479zM17.85 43.684l-1.712 4.7c-4.435-1.682-8.267-4.59-11.083-8.309l4.1-2.87c2.136 2.77 4.981 4.962 8.263 6.308l.431.17z" opacity=".3" transform="translate(-345 -4871) translate(0 4132) translate(0 332) translate(345 407)"/>
                            <path fill="#4ACDED" d="M49.98 26c-.186 4.745-1.696 9.15-4.169 12.857l-.278.41-4.096-2.87c2.068-2.977 3.349-6.543 3.538-10.397h5.005zm-3.99-14.587C48.526 15.325 50 19.99 50 25h-5c0-3.942-1.14-7.618-3.11-10.716l4.1-2.87zM34.18 1.74c4.4 1.738 8.19 4.689 10.955 8.44l.292.405-4.095 2.87c-2.205-3.113-5.276-5.568-8.863-7.013L34.18 1.74zM25 0c2.888 0 5.662.49 8.242 1.39l-1.71 4.701C29.485 5.384 27.287 5 25 5s-4.485.384-6.532 1.091l-1.71-4.7C19.338.49 22.112 0 25 0z" transform="translate(-345 -4871) translate(0 4132) translate(0 332) translate(345 407)"/>
                            <path fill="#FFF" fill-rule="nonzero" d="M8.563 36.398l-4.096 2.868C1.83 35.476.213 30.921.02 26h5.005c.19 3.854 1.47 7.42 3.538 10.398zM4.01 11.413l4.1 2.871C6.14 17.382 5 21.058 5 25H0c0-5.01 1.473-9.675 4.01-13.587zM15.819 1.74l1.711 4.702c-3.587 1.445-6.658 3.9-8.863 7.012l-4.095-2.869C7.36 6.641 11.262 3.54 15.819 1.74z" opacity=".3" transform="translate(-345 -4871) translate(0 4132) translate(0 332) translate(345 407)"/>
                        </g>
                        <g opacity=".4">
                            <path fill="#FFF" fill-rule="nonzero" d="M20 36c1.734 0 3.403-.276 4.966-.786l1.37 3.762C24.343 39.64 22.213 40 20 40c-2.214 0-4.344-.36-6.335-1.024l1.369-3.762c1.563.51 3.232.786 4.966.786zM32.676 29.764l3.28 2.296c-2.252 2.976-5.318 5.302-8.866 6.647l-1.37-3.76c2.772-1.061 5.173-2.871 6.956-5.183zM14.28 34.947l-1.37 3.76c-3.548-1.345-6.614-3.671-8.866-6.647l3.28-2.296c1.709 2.215 3.985 3.97 6.61 5.046l.345.137z" opacity=".3" transform="translate(-345 -4871) translate(0 4132) translate(0 332) translate(345 407) translate(5 5)"/>
                            <path fill="#4ACDED" d="M39.984 20.8c-.15 3.796-1.356 7.32-3.335 10.286l-.223.327-3.277-2.295c1.655-2.382 2.68-5.235 2.831-8.318h4.004zM36.791 9.13C38.821 12.26 40 15.993 40 20h-4c0-3.154-.912-6.095-2.488-8.572l3.28-2.297zm-9.446-7.738c3.52 1.39 6.551 3.751 8.764 6.752l.234.324-3.277 2.295c-1.763-2.49-4.22-4.454-7.09-5.61l1.369-3.761zM20 0c2.31 0 4.53.392 6.594 1.112l-1.368 3.76C23.588 4.308 21.83 4 20 4s-3.588.307-5.226.873l-1.368-3.76C15.471.391 17.69 0 20 0z" opacity=".8" transform="translate(-345 -4871) translate(0 4132) translate(0 332) translate(345 407) translate(5 5)"/>
                            <path fill="#FFF" fill-rule="nonzero" d="M6.85 29.118l-3.276 2.295C1.464 28.381.17 24.737.016 20.8H4.02c.152 3.083 1.176 5.936 2.83 8.318zM3.209 9.13l3.279 2.298C4.912 13.905 4 16.846 4 20H0c0-4.008 1.179-7.74 3.209-10.87zM12.655 1.392l1.37 3.761c-2.87 1.156-5.328 3.12-7.091 5.61L3.657 8.468c2.23-3.155 5.352-5.636 8.998-7.076z" opacity=".3" transform="translate(-345 -4871) translate(0 4132) translate(0 332) translate(345 407) translate(5 5)"/>
                        </g>
                        <g>
                            <path fill="#4ACDED" d="M19.848 17.48l-2.3-8.131-.298-2.177c-.086-.303-.362-.512-.677-.512H4.266c-.315 0-.591.21-.677.512l.333 2.177-2.302 8.132c-.083.293.033.607.287.776l8.437 5.625c.119.079.254.118.39.118s.272-.04.39-.118l8.438-5.625c.254-.17.37-.483.286-.776z" transform="translate(-345 -4871) translate(0 4132) translate(0 332) translate(345 407) translate(14 13)"/>
                            <path fill="#4ACDED" d="M21.382 3.905c-.122-.245-.374-.397-.648-.39l-3.086.08-.599-3.028c-.053-.269-.257-.482-.523-.547-.266-.065-.545.03-.716.244l-5.076 6.345L5.66.264C5.488.05 5.209-.045 4.943.02c-.266.065-.47.278-.523.547L3.82 3.595l-3.086-.08c-.274-.008-.526.145-.648.39-.121.245-.09.538.081.752l3.754 4.692.51-1.806c.087-.303.363-.512.677-.512h11.25c.315 0 .591.21.677.512l.511 1.806 3.754-4.692c.17-.214.202-.507.08-.752z" transform="translate(-345 -4871) translate(0 4132) translate(0 332) translate(345 407) translate(14 13)"/>
                            <path fill="#2BB4D6" d="M14.915 10.357c-.086-.304-.362-.513-.677-.513H7.23c-.315 0-.591.21-.677.513L4.888 16.28c-.082.293.034.606.287.775l5.17 3.447c.117.078.253.118.39.118.135 0 .271-.04.39-.118l5.169-3.447c.253-.169.369-.482.286-.775l-1.665-5.923z" transform="translate(-345 -4871) translate(0 4132) translate(0 332) translate(345 407) translate(14 13)"/>
                        </g>
                    </g>
                </g>
            </g>
        </g>
    </g>
</svg>
