<svg xmlns="http://www.w3.org/2000/svg" width="26" height="30" viewBox="0 0 26 30">
    <g fill="none" fill-rule="evenodd">
        <g fill="#FEDB41" fill-rule="nonzero">
            <g>
                <g>
                    <g>
                        <path d="M11.14 22.857c.183.003.348.11.424.276.067.171.028.367-.1.499l-1.307 1.306c3.946 2.182 9.833-1.117 9.9-1.158.18-.11.413-.075.553.082.14.151.162.377.053.552-3.135 4.405-8.916 6.03-13.888 3.905l-1.507 1.509c-.086.08-.2.123-.318.121l-.175-.027c-.164-.074-.27-.235-.276-.414V23.31c0-.25.202-.453.451-.454zm-1.09.909H5.4v4.648l.944-.943c.129-.134.326-.175.498-.105 4.021 1.774 8.714.994 11.945-1.99-3.016 1.568-6.604 1.573-9.624.015-.11-.079-.18-.202-.189-.337-.011-.134.036-.267.128-.364l.947-.924zM24.276 8.788c.526.005.95.43.956.956v10.482c-.002.252-.103.493-.283.67-.179.177-.421.276-.673.274H.95c-.522.001-.948-.42-.95-.944V9.744c.005-.524.427-.948.95-.956zm-2.858.902H3.862l-.01.068c-.026.163-.061.326-.107.485l-.007.014c-.049.162-.112.32-.188.47l-.041.086c-.072.144-.155.282-.248.413l-.054.068c-.202.267-.438.506-.7.713l-.073.04c-.132.094-.27.18-.413.257l-.08.04c-.152.071-.31.13-.472.175l-.014.014c-.16.05-.323.086-.49.107l-.06.014v4.66l.06.015c.168.016.333.047.494.093l.014.014c.161.05.316.122.472.188l.08.041c.138.066.276.161.414.241l.067.054c.266.2.502.435.7.701l.055.072c.09.133.173.271.248.413l.041.08c.074.153.137.31.188.472l.003.014c.046.16.081.322.107.486l.014.066h17.563v-.066c.026-.16.062-.317.107-.472l.007-.014c.047-.158.107-.311.181-.458l.041-.081c.073-.143.154-.281.243-.414l.065-.07c.095-.134.199-.26.312-.378l.013-.013c.114-.112.236-.216.365-.31l.066-.054c.121-.094.26-.175.397-.256l.088-.04c.148-.076.3-.139.458-.19h.02c.155-.054.315-.094.478-.12l.054-.013V12.64l-.054-.014c-.164-.021-.326-.057-.484-.107h-.014c-.158-.055-.31-.122-.458-.201l-.088-.042c-.137-.07-.267-.15-.39-.241l-.073-.054c-.133-.1-.26-.209-.38-.324v-.014c-.115-.11-.219-.232-.31-.363l-.072-.081-.243-.404-.04-.08c-.07-.15-.13-.302-.182-.458l-.006-.014c-.046-.16-.082-.322-.108-.485V9.69zm2.888 8.561l-.323.094-.074.02c-.095.033-.187.074-.276.12l-.033.015c-.097.055-.19.118-.276.189l-.06.04-.249.215v.014l-.208.242-.048.054-.17.277-.02.04-.12.276-.028.08-.087.324v.013h1.942l.037-.033-.007-1.98zM.93 18.231H.903v1.993l.047.026h1.993l-.006-.026-.08-.323-.028-.068-.121-.275-.02-.042-.175-.276-.048-.067c-.144-.171-.307-.325-.484-.461l-.061-.054-.276-.175-.034-.007-.283-.138-.073-.027-.324-.08zm11.685-7.388c.25 0 .451.202.451.451v.403c.9.161 1.563.932 1.59 1.845 0 .12-.048.235-.133.32-.084.084-.2.132-.319.131-.248.001-.452-.197-.458-.445-.038-.587-.544-1.032-1.13-.996-.587-.036-1.094.405-1.139.99 0 .647.385.984 1.138.984.533-.062 1.066.113 1.459.478.392.366.605.885.581 1.421-.029.913-.69 1.682-1.589 1.846v.39c0 .25-.202.451-.45.451-.25 0-.452-.202-.452-.451v-.39c-.898-.164-1.56-.933-1.59-1.846-.01-.167.075-.326.218-.412.144-.087.323-.087.467 0 .143.086.227.245.218.412.048.583.554 1.02 1.138.984.583.037 1.087-.402 1.131-.984 0-.66-.376-.983-1.13-.983-.534.063-1.068-.111-1.461-.477-.394-.366-.606-.886-.581-1.423.026-.914.69-1.684 1.59-1.845v-.403c0-.249.202-.451.451-.451zm7.044 2.323c.394-.002.773.154 1.052.432.28.278.436.655.437 1.05v.663c0 .823-.666 1.491-1.489 1.495H19c-.823-.004-1.488-.672-1.488-1.495v-.664c0-.394.157-.771.436-1.05.28-.277.658-.433 1.052-.431zm-13.429 0c.818 0 1.482.663 1.482 1.481v.664c0 .82-.661 1.488-1.482 1.495h-.666c-.82-.007-1.483-.674-1.483-1.495v-.664c0-.393.157-.77.435-1.048s.655-.434 1.048-.433zm13.43.902H19c-.319.002-.577.26-.58.58v.66c0 .154.06.302.17.41.108.11.256.17.41.17h.66c.32 0 .579-.26.579-.58v-.66c-.006-.319-.262-.575-.58-.58zm-13.43.001h-.666c-.315.008-.567.263-.572.578v.664c0 .316.256.573.572.576h.666c.32 0 .579-.26.58-.58v-.658c-.006-.318-.262-.575-.58-.58zm18.046-4.38h-1.942v.029l.087.322.027.075.122.276.019.027.17.283.047.068.215.24.248.217.062.054.276.175.026.01.276.138.074.028c.106.033.214.06.323.08l.014.013v-1.98l-.044-.054zm-21.333 0H.95l-.047.055v1.98H.93c.112-.014.223-.04.33-.081l.06-.026.308-.122.027-.027.276-.174.057-.041c.179-.136.339-.295.477-.472l.041-.066.182-.283.02-.048.121-.276.028-.068.08-.322.006-.028zM19.956.14c.13-.133.326-.175.5-.107.168.078.275.246.275.432v6.182c.002.121-.046.238-.131.324-.086.086-.203.134-.324.134H14.09c-.186.002-.354-.11-.424-.283-.07-.171-.03-.367.1-.498l1.307-1.306c-3.946-2.17-9.84 1.13-9.9 1.158-.18.11-.412.076-.552-.08-.144-.15-.167-.379-.054-.553 3.138-4.401 8.92-6.02 13.887-3.887zm-.128 1.416l-.942.943c-.133.13-.33.165-.5.091C14.364.82 9.674 1.596 6.44 4.571c3.015-1.558 6.598-1.563 9.618-.012.11.077.182.2.195.335.013.134-.034.268-.128.366l-.943.947h4.647V1.555z" transform="translate(-765 -461) translate(345 456) translate(420) translate(0 5)"/>
                    </g>
                </g>
            </g>
        </g>
    </g>
</svg>
