<svg xmlns="http://www.w3.org/2000/svg" width="30" height="29" viewBox="0 0 30 29">
    <g fill="none" fill-rule="evenodd">
        <g fill="#C66FEC" fill-rule="nonzero">
            <g>
                <path d="M27.306 16.806c-.678-.346-1.379-.644-2.098-.892 1.129-1.692 1.731-3.68 1.73-5.713.28-2.525-.496-5.054-2.145-6.985C23.143 1.284 20.768.12 18.23 0c-1.238-.014-2.463.245-3.59.758C13.767.5 12.858.372 11.945.373 10.137.16 8.326.737 6.975 1.957c-1.35 1.219-2.11 2.962-2.082 4.781 0 .546.057 1.091.168 1.626-.213.453-.296.957-.24 1.455.03.64.306 1.244.77 1.687.172.155.389.25.62.272.422 1.508 1.296 2.85 2.503 3.848-.134.652-.45 1.252-.912 1.73-.879.148-1.419.274-1.43.274-.375.094-.767.214-1.228.36-.942.306-1.859.684-2.742 1.131-1.47.74-2.4 2.245-2.402 3.89v1.186c-.01 1.093.591 2.1 1.557 2.61 3.231 1.56 6.795 2.305 10.38 2.17 3.584.137 7.146-.609 10.375-2.17.46-.238.849-.595 1.125-1.034 1.623-.305 3.194-.838 4.668-1.584.932-.492 1.51-1.464 1.5-2.518v-1.118c.002-1.583-.887-3.032-2.3-3.747zM18.23.892c2.296.133 4.436 1.207 5.915 2.969 1.48 1.761 2.166 4.055 1.9 6.34 0 1.94-.6 3.834-1.719 5.42l-.804-.226c-.46-.136-.927-.247-1.4-.333-.4-.43-.682-.959-.817-1.531.98-.883 1.692-2.022 2.057-3.29.205-.03.398-.117.554-.253.423-.412.672-.97.698-1.559.182-.838-.249-1.688-1.032-2.037-.194-.048-.395-.057-.592-.026-.237-.638-.665-1.188-1.227-1.572-.941-.543-2.083-.612-3.082-.186-.454-1.448-1.47-2.652-2.823-3.342.765-.252 1.566-.378 2.372-.374zm.499 17.099c-.467-.146-.86-.266-1.22-.36-.486-.143-.982-.255-1.483-.333-.44-.468-.742-1.048-.873-1.677.466-.372.882-.802 1.238-1.28.565.258 1.177.394 1.798.4.82-.005 1.625-.23 2.33-.651.187.567.491 1.089.893 1.531-.266 1.03-.722 2.001-1.346 2.864-.43-.174-.87-.334-1.337-.494zm.312-8.182c.049-.48-.028-.964-.224-1.406.117-.547.177-1.105.178-1.665 0-.424-.036-.847-.107-1.265.715-.316 1.53-.316 2.245 0 .564.338.967.89 1.118 1.531.017.126.081.24.18.32.117.081.263.106.4.067l.136-.066c.113-.067.247-.091.376-.067.193.053.433.466.373 1.09-.008.35-.14.685-.373.946l-.113.04c-.123-.053-.263-.053-.386 0-.122.056-.213.164-.247.294-.304 1.373-1.076 2.597-2.184 3.463-1.013.752-2.339.933-3.516.48.32-.569.575-1.172.76-1.798.228-.022.444-.115.615-.267.464-.443.74-1.047.769-1.687v-.01zm-7.098-8.53c1.567-.218 3.15.261 4.335 1.31 1.184 1.048 1.85 2.562 1.825 4.144-.004.302-.026.604-.067.904l-.106-.046c-.223-.058-.457-.063-.682-.014-.107-.32-.273-.818-.566-1.624l-.025-.04-.046-.08-.06-.067-.026-.026-.074-.04c-1.457-.947-3.34-.931-4.78.04-1.16.746-2.65.746-3.81 0l-.06-.027-.045-.026-.026-.014-.094-.013H7.55l-.074.027-.087.026-.066.04-.067.066-.02.027-.026.054-.034.053c-.286.799-.46 1.305-.566 1.624-.225-.049-.459-.044-.682.014l-.076.046c-.038-.298-.058-.598-.06-.899-.03-1.581.635-3.097 1.818-4.147 1.183-1.05 2.766-1.53 4.333-1.313zm-4.98 9.894c-.038-.132-.133-.24-.259-.293-.13-.061-.28-.061-.409 0l-.138-.067c-.276-.293-.435-.677-.446-1.079-.066-.772.234-1.21.46-1.279.158-.038.324-.008.46.082l.136.065c.137.041.285.017.402-.065.102-.077.167-.193.18-.32.034-.133.254-.772.494-1.451.6.286 1.258.436 1.924.439.868.008 1.716-.253 2.43-.746 1.123-.714 2.553-.733 3.695-.05.287.8.58 1.652.62 1.812.011.134.084.257.197.332.112.075.253.095.382.053l.136-.065c.138-.092.308-.123.47-.086.219.067.519.506.452 1.278-.012.4-.168.783-.439 1.078-.052.043-.12.063-.187.055-.122-.06-.265-.059-.387 0-.122.06-.21.173-.239.305-.344 1.534-1.212 2.9-2.454 3.862-1.492 1.118-3.542 1.118-5.033 0-1.239-.964-2.104-2.329-2.447-3.86zm2.543 4.98c1.504.853 3.345.853 4.848 0 .19.639.523 1.226.972 1.718-.882 1.249-2.043 2.276-3.39 3-1.346-.727-2.507-1.754-3.395-3 .45-.49.781-1.078.965-1.718zM.892 24.198v-1.186c.002-1.308.74-2.503 1.91-3.09.839-.426 1.712-.782 2.61-1.065.445-.147.817-.254 1.179-.36.012 0 .446-.106 1.157-.226.974 1.394 2.254 2.547 3.742 3.37v6.431c-3.287.07-6.545-.631-9.514-2.045-.674-.36-1.091-1.066-1.084-1.83v.001zm22.09 0c.005.764-.415 1.467-1.09 1.825-2.966 1.414-6.222 2.115-9.507 2.045V21.64c1.504-.83 2.79-2.002 3.755-3.423.38.08.758.174 1.132.273.374.1.732.2 1.185.346.9.283 1.773.644 2.61 1.08 1.169.586 1.907 1.781 1.91 3.09l.006 1.192zm5.728-2.53c.007.719-.389 1.382-1.025 1.718-1.223.627-2.524 1.089-3.869 1.371.04-.183.06-.37.06-.559v-1.186c-.003-.263-.03-.526-.079-.784.767-.16 1.523-.37 2.264-.626.235-.08.362-.335.283-.57-.08-.237-.335-.363-.571-.284-.73.246-1.472.45-2.224.613-.4-.968-1.132-1.761-2.063-2.238-.187-.093-.38-.2-.573-.28.587-.873 1.04-1.829 1.344-2.836.347.063.69.148 1.026.254.346.079.705.185 1.125.319.855.277 1.688.62 2.49 1.025 1.111.56 1.814 1.698 1.818 2.943l-.006 1.12z" transform="translate(-345 -456) translate(345 456)"/>
            </g>
        </g>
    </g>
</svg>
