<svg xmlns="http://www.w3.org/2000/svg" width="30" height="30" viewBox="0 0 30 30">
    <g fill="none" fill-rule="evenodd">
        <g fill="#A04EA8" fill-rule="nonzero">
            <g>
                <g>
                    <g>
                        <g>
                            <g>
                                <g>
                                    <path d="M29.548 21.817c.162 0 .31.086.391.226.081.14.081.312 0 .452-.08.14-.23.226-.39.226H15.454v2.388l4.116 4.116c.128.13.164.325.093.493-.07.168-.235.277-.417.277-.123 0-.24-.05-.324-.138l-3.468-3.468v3.158c-.013.242-.213.43-.455.43-.242 0-.442-.188-.455-.43V26.39l-3.475 3.468c-.082.09-.198.142-.32.142s-.238-.052-.32-.142c-.084-.084-.132-.198-.132-.317 0-.12.048-.233.132-.317l4.115-4.116v-2.387H.452c-.162 0-.31-.087-.391-.226-.081-.14-.081-.312 0-.452.08-.14.23-.226.39-.226zM28.18 2.266c.122-.001.24.047.326.133.086.086.134.204.133.326v17.264c0 .122-.047.24-.133.326-.087.086-.204.134-.326.133H1.814c-.25-.001-.452-.204-.452-.453V2.725c0-.121.046-.238.131-.324.085-.086.2-.134.321-.135zm-.452.912H2.273v16.358h25.454V3.178zm-2.58 1.868c.144-.207.427-.26.638-.122.1.065.169.168.191.285.023.116-.002.238-.07.335l-3.247 4.818c.445.588.461 1.397.04 2.002-.422.605-1.186.87-1.892.656-.706-.214-1.195-.858-1.21-1.595l-1.774-.691c-.307.508-.856.822-1.45.829-.264-.007-.524-.071-.76-.19l-2.114 2.672c.19.282.293.614.296.954.003.659-.374 1.261-.97 1.545-.595.284-1.3.199-1.81-.219-.51-.417-.734-1.092-.574-1.731l-.613-.415c-.324.356-.78.562-1.262.567-.323-.006-.639-.1-.913-.272l-3.316 3.414c-.084.089-.201.139-.323.138-.187.004-.355-.105-.427-.274-.073-.169-.036-.365.094-.496l3.365-3.468c-.117-.234-.179-.493-.18-.755 0-.941.764-1.704 1.704-1.704.941 0 1.704.763 1.704 1.704l-.033.324.648.445c.317-.32.75-.5 1.2-.498.246-.003.488.052.708.161l2.139-2.698c-.393-.613-.353-1.407.099-1.977.451-.57 1.216-.791 1.902-.549.686.242 1.143.893 1.137 1.62l1.746.672c.3-.536.864-.871 1.478-.877.225.004.447.051.654.138zM12.09 14.207c-.439.003-.793.358-.796.796 0 .44.356.796.796.796.44 0 .795-.357.795-.796-.003-.438-.358-.792-.795-.796zm-3.524-1.97c-.437.004-.79.358-.794.796 0 .44.356.796.796.796.44 0 .796-.357.796-.796-.004-.439-.36-.793-.798-.796zm12.732-1.66c-.211 0-.414.083-.563.233-.15.15-.233.352-.233.563 0 .44.357.796.796.796.44 0 .796-.356.796-.796 0-.21-.083-.414-.232-.563-.15-.15-.352-.233-.564-.232zm-4.925-1.525c-.443.006-.798.367-.796.81.018.427.369.764.796.764.428 0 .78-.337.797-.764.002-.443-.354-.805-.797-.81zm-3.258-4.505c.12-.003.235.043.32.126.085.084.133.2.132.319v2.28c.002.252-.2.46-.452.465h-1.566v1.796c.003.122-.043.24-.128.327-.085.088-.202.137-.324.137H4.088c-.122 0-.238-.05-.323-.137-.085-.087-.131-.205-.128-.327V4.992c-.002-.12.046-.235.131-.319.085-.083.2-.13.32-.126zm-2.47 3.19H4.548V9.08h6.099V7.737zm2.011-2.287H4.547v1.363h8.109V5.45zM29.543 0c.25 0 .451.202.451.452s-.202.452-.451.452H.452C.202.904 0 .7 0 .452 0 .202.202 0 .452 0z" transform="translate(-425 -4728) translate(0 202) translate(345 4051) translate(0 92) translate(50 241) translate(30 133) translate(0 9)"/>
                                </g>
                            </g>
                        </g>
                    </g>
                </g>
            </g>
        </g>
    </g>
</svg>
