<svg xmlns="http://www.w3.org/2000/svg" width="40" height="40" viewBox="0 0 40 40">
    <g fill="none" fill-rule="evenodd">
        <g fill="#FFF" fill-rule="nonzero">
            <g>
                <g>
                    <g>
                        <g>
                            <path d="M19.961 0c.333 0 .602.27.602.601v.628c9.883.32 17.82 8.257 18.14 18.14h.62c.215 0 .414.115.521.3.107.187.107.416 0 .602s-.306.301-.52.301h-.62c-.332 9.878-8.263 17.808-18.141 18.139v.61c0 .333-.27.602-.602.602-.332 0-.601-.27-.601-.602v-.61c-9.876-.335-17.804-8.263-18.139-18.139h-.62c-.214 0-.413-.115-.52-.3-.108-.187-.108-.416 0-.602.107-.186.306-.3.52-.3h.62C1.541 9.486 9.478 1.55 19.36 1.228V.6c0-.332.27-.601.601-.601zM4.85 20.572H2.433c.326 9.209 7.718 16.597 16.927 16.918v-2.406c-7.872-.333-14.178-6.64-14.51-14.512zm32.649 0h-2.417c-.333 7.873-6.64 14.179-14.512 14.512v2.405l.325-.014c8.944-.48 16.1-7.627 16.589-16.571l.015-.332zm-27.244 0H6.069c.32 7.203 6.087 12.97 13.291 13.291v-3.09c-6.25-.162-9.68-2.622-9.68-7.021.014-1.085.208-2.16.575-3.18zm23.608 0H29.67c.374 1.019.57 2.094.583 3.18 0 4.399-3.437 6.86-9.69 7.021v3.09c7.21-.31 12.985-6.082 13.3-13.291zm-8.316-9.143l-.141.003c-.332.026-.635.196-.83.465-.442.577-1.128.916-1.855.916-.727 0-1.413-.339-1.855-.916-.22-.287-.558-.458-.92-.467l-.133.012c-.31.044-.591.206-.786.455-.44.571-1.118.91-1.839.92-.727-.008-1.412-.347-1.86-.92-.193-.26-.49-.424-.813-.45-.323-.026-.642.088-.875.314.034.563.207 1.11.503 1.59.272.44.435.94.476 1.455l.143.09c.258.118.397.401.332.677-.066.275-.317.466-.6.455h-.028c-.142.46-.394.88-.735 1.22-1.744 1.726-2.762 4.052-2.847 6.504 0 3.86 3.05 5.819 9.077 5.819s9.08-1.957 9.08-5.82c-.08-2.452-1.1-4.78-2.847-6.502-.341-.341-.594-.76-.736-1.221h-.027c-.28.004-.523-.186-.588-.458-.065-.27.067-.55.317-.673l.153-.09c.04-.515.2-1.014.467-1.455.304-.478.483-1.026.519-1.591-.235-.235-.562-.355-.893-.33zm-5.586 7.034c.333 0 .602.269.602.6v.422c1.074.216 1.86 1.141 1.9 2.236 0 .336-.272.607-.607.607-.336 0-.607-.271-.607-.607-.053-.66-.627-1.156-1.288-1.112-.661-.043-1.236.452-1.292 1.112 0 .754.417 1.131 1.287 1.131.65-.068 1.298.147 1.778.59.48.445.746 1.074.729 1.728-.029 1.107-.82 2.047-1.906 2.264v.42c0 .216-.114.414-.3.522-.187.107-.416.107-.602 0-.186-.108-.3-.306-.3-.521v-.412c-1.084-.22-1.873-1.159-1.904-2.264.018-.322.284-.574.606-.574s.588.252.606.574c.085.649.638 1.134 1.293 1.134.655 0 1.208-.485 1.293-1.134 0-.745-.416-1.113-1.288-1.113-.654.076-1.31-.14-1.791-.59-.482-.449-.743-1.087-.713-1.745.037-1.1.825-2.029 1.903-2.246v-.421c0-.332.27-.601.601-.601zm.602-12.403v4.239c.496.141.936.433 1.26.835.213.295.555.47.92.47.363 0 .705-.175.919-.47.442-.578 1.127-.916 1.854-.916.727 0 1.413.338 1.855.916.083.105.13.234.134.368.008.875-.232 1.734-.691 2.479-.49.767-.389 1.769.243 2.424.854.868 1.56 1.87 2.09 2.966l4.716-.002c-.313-7.213-6.087-12.99-13.3-13.31zm0-3.627v2.424c7.878.321 14.191 6.634 14.512 14.512h2.424c-.33-9.213-7.723-16.605-16.936-16.936zM19.36 6.06c-7.207.329-12.972 6.102-13.291 13.31h4.702c.535-1.097 1.245-2.098 2.103-2.965.624-.659.722-1.657.237-2.424-.461-.748-.701-1.61-.692-2.489.003-.134.05-.263.135-.367.443-.578 1.13-.917 1.859-.917.728 0 1.415.339 1.86.917.212.295.554.47.919.47.364 0 .706-.175.92-.47.319-.4.756-.688 1.248-.826zm0-3.627c-9.212.33-16.603 7.724-16.927 16.936H4.85c.32-7.878 6.632-14.19 14.51-14.512zm1.034 13.541c.332 0 .6.27.6.602 0 .332-.268.601-.6.601h-.854c-.332-.005-.597-.278-.592-.61.005-.333.278-.598.61-.593zm-3.778-.392l.096.015.76.162c.158.027.3.116.393.247.093.132.13.295.103.454-.051.288-.298.5-.59.506l-.116-.019c-.293-.059-.567-.112-.845-.184-.324-.081-.522-.41-.44-.735.09-.318.414-.507.735-.43zm6.606.015c.154-.042.32-.021.457.06.139.08.239.212.279.367.04.156.015.32-.067.459-.083.138-.217.237-.373.277-.278.077-.557.13-.844.183l-.108.019c-.294-.005-.545-.214-.602-.502-.055-.33.165-.643.495-.7z" transform="translate(-1482 -738) translate(345 610) translate(630) translate(453 84) translate(54 44)"/>
                        </g>
                    </g>
                </g>
            </g>
        </g>
    </g>
</svg>
