<svg xmlns="http://www.w3.org/2000/svg" width="24" height="22" viewBox="0 0 24 22">
    <g fill="none" fill-rule="evenodd">
        <g fill="#039BE5" fill-rule="nonzero">
            <g>
                <g>
                    <g>
                        <path d="M22.499.111c.377-.145.802-.073 1.11.188.275.233.417.582.387.934l-.02.133-3.91 18.811c-.076.368-.331.669-.682.805-.13.05-.265.074-.4.074-.183 0-.365-.046-.528-.135l-.12-.076-5.338-3.876c-.123-.09-.285-.1-.418-.035l-.075.05-2.96 2.412c-.284.232-.664.308-1.015.202-.308-.093-.557-.313-.688-.602l-.048-.128-1.986-6.385-5.09-1.9C.284 10.42.002 10.016 0 9.553c-.002-.42.227-.794.593-.984l.114-.05L22.499.11zm.394.882l-.05.01L1.05 9.41c-.079.03-.095.092-.095.139 0 .035.01.078.048.11l.049.028 5.31 1.982c.11.041.2.122.255.225l.034.08 2.055 6.61c.02.066.07.09.098.098.021.007.057.012.096-.003l.04-.024 2.96-2.413c.25-.203.554-.306.86-.306.233 0 .467.06.676.18l.123.08L18.9 20.07c.056.042.112.03.14.019.021-.008.054-.026.075-.063l.016-.044L23.04 1.17c.016-.074-.024-.121-.049-.142-.018-.016-.052-.038-.098-.036zm-4.834 3.269c.287-.176.656-.107.86.16.18.238.174.56-.002.789l-.074.08-8.145 7.572c-.17.159-.292.364-.349.588l-.027.136-.277 2.057c-.047.347-.323.608-.673.633l-.056.002c-.29 0-.548-.168-.665-.43l-.038-.102-1.067-3.75c-.167-.585.049-1.214.528-1.577l.115-.079 9.87-6.08zm1.415 8.296l.086.01c.258.056.422.31.366.569l-1.1 5.065c-.048.224-.246.377-.467.377-.033 0-.067-.004-.102-.011-.258-.056-.421-.311-.365-.57l1.1-5.064c.055-.258.31-.422.568-.366zm-3.552-5.856l-5.876 5.461-.13.133c-.293.323-.483.73-.541 1.163l-.135.998-.774-2.722-.017-.084c-.022-.195.07-.39.242-.496l7.23-4.453zm4.03 3.653l.086.011c.258.056.422.31.366.569l-.073.334c-.048.224-.246.377-.466.377-.034 0-.068-.003-.102-.01-.258-.057-.422-.311-.366-.57l.073-.334c.056-.258.31-.422.568-.366z" transform="translate(-1395 -6151) translate(0 6013) translate(1395 102) translate(0 36)"/>
                    </g>
                </g>
            </g>
        </g>
    </g>
</svg>
