<svg xmlns="http://www.w3.org/2000/svg" width="34" height="41" viewBox="0 0 34 41">
    <g fill="none" fill-rule="evenodd">
        <g fill="#FFF" fill-rule="nonzero">
            <g>
                <g>
                    <g>
                        <g>
                            <path d="M29.737 26.024c-1.222-.62-2.494-1.138-3.801-1.55-.642-.195-1.186-.364-1.683-.497-.684-.19-1.376-.345-2.075-.464-.608-.661-1.029-1.472-1.22-2.35 1.68-1.381 2.893-3.247 3.475-5.342.318-.03.62-.158.863-.365.644-.613 1.023-1.453 1.057-2.341.074-.67-.036-1.348-.319-1.96.169-.754.255-1.524.257-2.296.04-2.516-1.009-4.926-2.877-6.611C21.547.562 19.042-.235 16.544.06c-2.5-.298-5.007.498-6.877 2.184-1.87 1.686-2.92 4.097-2.882 6.614 0 .755.084 1.507.25 2.243-.302.623-.423 1.318-.349 2.006.034.886.41 1.724 1.05 2.339.245.207.546.334.865.365.58 2.098 1.795 3.964 3.48 5.342-.19.916-.638 1.758-1.29 2.429-1.211.213-1.959.392-1.977.392-.525.142-1.068.302-1.708.498-1.306.414-2.575.938-3.793 1.566-2.037 1.02-3.32 3.106-3.313 5.384v1.641c-.006 1.507.824 2.893 2.155 3.598 4.476 2.148 9.409 3.175 14.37 2.99 4.962.186 9.894-.84 14.37-2.99 1.33-.706 2.16-2.092 2.154-3.598v-1.64c.003-2.281-1.277-4.37-3.312-5.4zM16.543 1.272c2.178-.3 4.377.366 6.021 1.825 1.644 1.46 2.567 3.565 2.526 5.762-.001.427-.034.854-.099 1.276l-.168-.065c-.293-.082-.601-.094-.9-.037-.097-.373-.24-.942-.47-1.797l-.02-.037-.052-.106-.064-.107-.087-.071-.09-.053-.107-.037-.115-.034h-.046c-1.607.063-3.123-.747-3.962-2.12l-.071-.088-.058-.09-.128-.07-.08-.054-.108-.02h-.124l-.08.018-.142.037h-.01l-.089.071-.08.056c-2.109 1.839-4.915 2.664-7.684 2.26l-.089.016h-.115l-.107.037-.099.034-.096.09-.072.07-.052.108-.037.09c-.231.855-.383 1.424-.472 1.797-.303-.058-.615-.045-.912.037l-.12.053c-.06-.419-.093-.841-.099-1.264-.04-2.199.886-4.305 2.531-5.764 1.646-1.46 3.848-2.125 6.026-1.823zm-6.928 13.73c-.04-.172-.156-.317-.316-.392-.16-.09-.355-.09-.516 0l-.054.018c-.087-.004-.169-.042-.227-.107-.384-.412-.602-.95-.614-1.514-.088-.96.259-1.674.642-1.781.225-.058.463-.019.658.107l.182.09c.182.06.38.033.54-.071.153-.104.244-.278.24-.463.026-.143.232-.981.464-1.853.266.018.605.036 1.014.036 2.411.077 4.772-.706 6.66-2.208 1.01 1.254 2.505 2.018 4.112 2.1.24.89.463 1.764.481 1.872.005.195.096.377.25.497.156.11.352.143.534.09l.183-.09c.196-.128.437-.167.664-.107.364.107.729.82.649 1.781-.017.564-.238 1.102-.624 1.514l-.213.107-.062-.018c-.157-.09-.35-.09-.507 0-.167.07-.29.216-.33.392-.48 2.133-1.685 4.034-3.41 5.377-2.072 1.55-4.917 1.55-6.989 0-1.722-1.346-2.927-3.245-3.41-5.377h-.001zm3.533 6.872c2.091 1.192 4.656 1.192 6.747 0 .265.896.731 1.718 1.364 2.405-1.228 1.747-2.847 3.184-4.728 4.194-1.878-1.016-3.496-2.45-4.728-4.194.627-.687 1.089-1.51 1.347-2.405h-.002zM1.202 33.064v-1.64c0-1.823 1.027-3.49 2.654-4.311 1.162-.597 2.373-1.093 3.62-1.48.536-.195 1.084-.356 1.64-.482.535-.14 1.076-.252 1.622-.337 1.354 1.933 3.129 3.533 5.191 4.682v8.956c-4.568.09-9.093-.89-13.212-2.866-.936-.492-1.52-1.464-1.515-2.522zm30.654 0c.006 1.062-.582 2.037-1.522 2.53-4.115 1.97-8.633 2.949-13.194 2.858v-8.956c2.082-1.148 3.864-2.772 5.198-4.74.54.094 1.075.215 1.603.364.5.126 1.015.286 1.64.481 1.243.397 2.451.891 3.615 1.479 1.631.827 2.662 2.498 2.671 4.327l-.011 1.657z" transform="translate(-1033 -738) translate(345 610) translate(630) translate(0 84) translate(58 44.28)"/>
                        </g>
                    </g>
                </g>
            </g>
        </g>
    </g>
</svg>
