<svg xmlns="http://www.w3.org/2000/svg" width="20" height="24" viewBox="0 0 20 24">
    <g fill="none" fill-rule="evenodd">
        <g fill="#23ACE5" fill-rule="nonzero">
            <g>
                <g>
                    <g>
                        <path d="M6.298 12.735c.297-.21.705-.136.915.16.209.297.136.706-.161.915-.083.054-2.02 1.407-4.443 2.03-1.134.403-1.26 1.615-1.294 2.724 0 .044-.005.083-.005.122-.01.438.024 1.114.102 1.504.793.447 3.903 2 8.584 2 4.7 0 7.79-1.548 8.58-1.995.077-.39.106-1.066.101-1.504-.005-.039-.005-.078-.005-.122-.034-1.11-.16-2.32-1.294-2.725-2.423-.623-4.36-1.97-4.443-2.029-.297-.21-.37-.618-.16-.915.209-.297.618-.37.914-.16.02.014 1.845 1.28 4.04 1.84l.048.014c2.112.72 2.175 2.973 2.204 3.936 0 .044.005.083.005.122v.015l.001.064v.2c-.004.482-.04 1.417-.234 1.935-.049.127-.141.234-.253.307-.146.092-3.645 2.326-9.5 2.326-5.853 0-9.352-2.229-9.498-2.326-.117-.073-.204-.18-.253-.307-.206-.521-.244-1.457-.249-1.94v-.279c.006-.039.006-.078.006-.121.029-.96.092-3.212 2.204-3.937l.049-.015c1.9-.482 3.511-1.489 3.932-1.767l.078-.052c.018-.012.027-.02.029-.02zM10.045 0c.983.02 1.863.253 2.618.686 1.012.58 2.238 1.82 2.36 4.414.034.345.345 3.966-1.528 6.078-.852.958-2.005 1.46-3.43 1.484h-.157c-1.425-.025-2.579-.526-3.425-1.484C4.609 9.066 4.92 5.445 4.955 5.1 5.076 2.487 6.322 1.246 7.344.667 8.361.087 9.422 0 9.962 0zm-.03 1.319h-.058c-1.06 0-3.538.374-3.698 3.863 0 .01-.005.025-.005.04-.005.029-.336 3.352 1.207 5.085.608.69 1.43 1.031 2.501 1.04h.049c1.075-.009 1.893-.35 2.506-1.04 1.547-1.743 1.207-5.052 1.202-5.086-.005-.01-.005-.024-.005-.039-.151-3.299-2.385-3.834-3.699-3.863z" transform="translate(-806 -494) translate(735 160) translate(50 292) translate(21 42)"/>
                    </g>
                </g>
            </g>
        </g>
    </g>
</svg>
