<svg xmlns="http://www.w3.org/2000/svg" width="24" height="15" viewBox="0 0 24 15">
    <g fill="none" fill-rule="evenodd">
        <g fill="#4B729F" fill-rule="nonzero">
            <g>
                <g>
                    <g>
                        <path d="M13.086.033c.03 0 .062.003.092.01.952.187 1.111.79 1.193 1.39.003.022.005.044.005.065l.003 4.214v.014c-.006.188.11.546.21.608.052-.025.154-.134.217-.2l.04-.044c.92-.977 1.555-2.148 2.054-3.166.261-.527.487-1.082.678-1.561.238-.6.675-.9 1.306-.889l3.647.003c.126 0 .26.002.403.027.291.05.705.157.928.523.222.365.13.781.041 1.062-.312.98-.893 1.786-1.455 2.564l-.065.09c-.288.398-.589.795-.88 1.178-.327.431-.665.878-.982 1.323-.212.296-.305.496-.291.631.014.138.145.323.414.585l.303.293.304.289c.57.54 1.16 1.099 1.683 1.724.287.347.614.766.866 1.252.242.468.245.996.01 1.413-.196.346-.529.56-.914.585l-.031.001-3.338-.001c-.93.07-1.77-.27-2.498-1.012-.322-.329-.63-.673-.927-1.005-.14-.156-.284-.318-.427-.474-.14-.154-.312-.33-.511-.459-.109-.07-.207-.104-.262-.09-.052.012-.118.084-.176.19-.21.381-.27.82-.295 1.36-.047 1.023-.475 1.441-1.525 1.489-.2.01-.397.014-.59.014-1.703 0-3.171-.365-4.473-1.11-1.238-.708-2.312-1.711-3.379-3.157C2.949 7.71 1.621 5.344.159 2.092c-.205-.455-.212-.838-.02-1.139.19-.3.538-.456 1.035-.465C2.228.468 3.308.468 4.477.487c.613.009 1.091.357 1.346.98.618 1.519 1.33 2.837 2.175 4.032.212.298.43.607.721.806.047.032.081.05.103.058.014-.02.033-.052.056-.105.08-.19.13-.42.157-.722.096-1.124.08-2.053-.05-2.92-.067-.447-.28-.68-.694-.76-.117-.022-.475-.09-.595-.429-.118-.335.114-.61.202-.713.303-.354.68-.68 1.394-.68zm-.05.956H9.292c-.153 0-.263.022-.36.072.55.25.898.738.998 1.413.143.943.16 1.943.058 3.146-.036.405-.109.726-.23 1.01-.186.442-.463.605-.663.664-.2.058-.52.071-.916-.2-.431-.295-.725-.71-.961-1.043-.889-1.254-1.635-2.636-2.28-4.224-.137-.334-.318-.382-.476-.384-1.158-.02-2.227-.019-3.27.001-.126.003-.197.018-.234.03.005.039.021.111.073.227 1.433 3.187 2.73 5.498 4.202 7.494.985 1.334 1.966 2.254 3.085 2.895 1.287.736 2.773 1.053 4.544.97.368-.017.479-.072.512-.103.025-.024.085-.119.102-.476.028-.583.097-1.201.411-1.774.243-.443.56-.603.781-.659.225-.056.584-.065 1.017.216.289.188.514.417.696.615.147.161.293.325.434.483.29.324.59.66.897.972.54.55 1.099.782 1.756.727l.04-.002 3.337.002c.03-.004.086-.018.132-.1.056-.1.083-.291-.026-.504-.21-.405-.498-.773-.752-1.079-.485-.582-1.03-1.097-1.605-1.642-.203-.192-.413-.391-.618-.59-.866-.846-.927-1.49-.233-2.458.325-.456.668-.908.999-1.345.287-.379.585-.77.866-1.16l.065-.09c.542-.75 1.054-1.459 1.319-2.292.052-.167.053-.246.05-.274-.023-.015-.095-.051-.269-.08-.069-.013-.157-.014-.242-.014l-3.652-.003h-.009c-.215-.004-.305.037-.404.286-.198.497-.432 1.074-.708 1.631-.53 1.08-1.209 2.33-2.216 3.4l-.038.04c-.215.229-.613.654-1.216.457l-.017-.006c-.662-.243-.857-1.13-.848-1.53l-.003-4.176c-.022-.15-.056-.34-.117-.42-.014-.02-.056-.075-.267-.123zM3.594 4.23c.23-.128.522-.044.65.187.724 1.31 1.457 2.464 2.241 3.527.157.212.112.511-.1.668-.086.063-.185.094-.284.094-.147 0-.291-.068-.385-.195-.809-1.096-1.564-2.284-2.31-3.632-.127-.23-.043-.522.188-.65zm-.956-1.88c.236-.118.523-.02.64.216.069.14.138.279.209.418.119.236.024.523-.211.642-.07.035-.143.052-.216.052-.174 0-.343-.096-.427-.263l-.212-.425c-.117-.237-.02-.524.217-.64z" transform="translate(-1395 -6190) translate(0 6013) translate(1395 102) translate(0 75)"/>
                    </g>
                </g>
            </g>
        </g>
    </g>
</svg>
