<svg xmlns="http://www.w3.org/2000/svg" width="40" height="40" viewBox="0 0 40 40">
    <g fill="none" fill-rule="evenodd">
        <g>
            <g>
                <g>
                    <g transform="translate(-995 -254) translate(735 160) translate(50 94) translate(210)">
                        <rect width="40" height="40" fill="#4B729F" rx="4"/>
                        <g fill="#FFF" fill-rule="nonzero">
                            <path d="M13.697 0c.032 0 .065.003.097.01.996.196 1.163.827 1.248 1.456.003.022.005.045.005.067l.003 4.411v.015c-.005.196.115.571.22.637.054-.027.161-.141.227-.211l.043-.046c.962-1.021 1.627-2.248 2.15-3.313.273-.551.509-1.133.708-1.634.25-.629.708-.942 1.368-.93l3.817.003c.132 0 .273.002.422.027.305.052.737.166.97.548.234.382.137.818.044 1.112-.326 1.027-.934 1.869-1.523 2.683l-.068.094c-.301.418-.616.833-.92 1.234-.343.451-.697.918-1.029 1.384-.222.31-.319.52-.304.661.014.144.152.339.433.613.209.204.426.41.636.608.597.566 1.214 1.15 1.76 1.805.301.363.644.802.907 1.31.253.49.257 1.043.01 1.48-.204.362-.552.585-.955.612l-.034.001-3.493-.002c-.973.075-1.852-.281-2.614-1.059-.338-.343-.66-.703-.97-1.052-.147-.163-.298-.332-.448-.496-.147-.161-.327-.345-.535-.48-.114-.074-.216-.11-.274-.095-.055.014-.124.089-.185.2-.218.399-.281.857-.309 1.423-.048 1.071-.496 1.509-1.596 1.559-.208.01-.415.015-.617.015-1.783 0-3.32-.382-4.681-1.162-1.297-.742-2.421-1.792-3.538-3.304C3.087 8.034 1.697 5.559.166 2.155-.048 1.68-.055 1.278.144.963.344.65.71.485 1.23.476 2.33.455 3.463.455 4.686.475c.642.01 1.142.373 1.409 1.025.647 1.59 1.391 2.97 2.276 4.22.222.313.451.637.755.845.05.034.085.051.108.06.014-.02.035-.054.058-.11.085-.199.137-.439.165-.755.1-1.177.084-2.149-.053-3.057-.07-.468-.293-.712-.726-.794-.123-.024-.497-.095-.622-.45-.125-.35.12-.638.21-.746C8.585.343 8.98 0 9.727 0zm-.052 1H9.726c-.16 0-.275.023-.377.076.575.261.94.772 1.045 1.48.149.986.168 2.033.06 3.291-.038.424-.114.76-.24 1.058-.195.463-.485.633-.694.694-.21.062-.545.075-.959-.208-.452-.31-.76-.743-1.006-1.092-.93-1.313-1.711-2.76-2.387-4.421-.143-.35-.332-.4-.498-.402-1.212-.02-2.331-.02-3.423.001-.13.003-.206.02-.244.032.005.04.022.115.076.236C2.58 5.081 3.936 7.5 5.478 9.59c1.03 1.397 2.057 2.36 3.229 3.03 1.346.771 2.902 1.103 4.755 1.016.386-.017.502-.075.536-.108.027-.025.09-.124.107-.498.03-.61.102-1.257.43-1.857.255-.463.586-.63.818-.69.235-.058.611-.067 1.064.227.303.196.538.436.729.644.154.168.307.34.455.505.303.34.617.69.938 1.017.565.577 1.15.819 1.838.761l.042-.001 3.493.001c.03-.004.09-.02.138-.104.059-.105.087-.305-.027-.527-.22-.425-.522-.81-.788-1.13-.508-.61-1.077-1.148-1.68-1.719-.212-.201-.432-.41-.646-.619-.907-.884-.97-1.557-.244-2.571.34-.478.699-.95 1.045-1.408.301-.397.613-.807.907-1.215l.068-.094c.567-.785 1.103-1.526 1.38-2.399.055-.174.056-.258.053-.287-.024-.015-.1-.053-.281-.084-.072-.012-.165-.013-.254-.013l-3.822-.004-.088.001c-.17.009-.254.07-.345.298-.207.52-.452 1.124-.74 1.708-.556 1.13-1.266 2.438-2.32 3.558l-.04.042c-.225.24-.642.685-1.273.479l-.017-.006c-.694-.255-.897-1.184-.889-1.603l-.003-4.37c-.022-.156-.058-.356-.122-.44-.015-.02-.058-.079-.279-.128zM3.761 4.392c.242-.133.547-.046.68.196C5.2 5.96 5.968 7.167 6.788 8.28c.164.222.117.535-.105.7-.09.066-.194.097-.297.097-.154 0-.305-.07-.403-.203-.847-1.147-1.638-2.39-2.418-3.802-.133-.241-.046-.546.196-.68zm-1-1.968c.248-.122.547-.02.67.227l.218.438c.125.246.026.547-.22.672-.073.036-.15.054-.226.054-.183 0-.359-.1-.447-.275-.075-.148-.149-.297-.222-.446-.123-.247-.021-.547.227-.67z" transform="translate(7 13)"/>
                        </g>
                    </g>
                </g>
            </g>
        </g>
    </g>
</svg>
