<svg xmlns="http://www.w3.org/2000/svg" width="30" height="27" viewBox="0 0 30 27">
    <g fill="none" fill-rule="evenodd">
        <g fill="#A04EA8" fill-rule="nonzero">
            <g>
                <g>
                    <g>
                        <g>
                            <g>
                                <g>
                                    <path d="M13.805.951c.718-1.23 2.557-1.205 3.242.044L29.764 24.22c.67 1.225-.244 2.757-1.634 2.757H1.856c-1.408 0-2.32-1.582-1.608-2.801l4.227-7.255c.382-.655 1.4-.06 1.019.594L1.266 24.77c-.262.45.068 1.027.59 1.027H28.13c.513 0 .845-.56.6-1.01L16.011 1.562c-.252-.46-.924-.47-1.188-.016L7.879 13.467c-.381.655-1.4.06-1.019-.594zm1.367 17.437c1.169 0 2.12.951 2.12 2.12 0 1.168-.951 2.12-2.12 2.12s-2.12-.952-2.12-2.12c0-1.169.951-2.12 2.12-2.12zm0 1.18c-.518 0-.94.422-.94.94s.422.94.94.94.94-.422.94-.94-.422-.94-.94-.94zM15.62 8.03c.426 0 .836.179 1.126.49.29.312.438.735.408 1.16l-.447 6.135c-.058.8-.732 1.426-1.533 1.426-.803 0-1.477-.626-1.535-1.426l-.446-6.136c-.031-.424.117-.847.407-1.158.29-.312.7-.491 1.126-.491zm0 1.18h-.894c-.136 0-.222.071-.262.114l.006-.006-.012.011-.02.026c-.028.038-.057.092-.067.163l-.002.076.446 6.135c.014.187.17.333.357.333.188 0 .345-.146.359-.333l.446-6.135c.01-.136-.055-.228-.095-.27-.04-.043-.126-.115-.262-.115zm-9.47 5.398c.32 0 .59.27.59.59 0 .32-.27.59-.59.59-.33 0-.603-.286-.589-.616.014-.31.278-.564.59-.564z" transform="translate(-425 -4624) translate(0 202) translate(345 4051) translate(0 92) translate(50 241) translate(30 32) translate(0 6)"/>
                                </g>
                            </g>
                        </g>
                    </g>
                </g>
            </g>
        </g>
    </g>
</svg>
