<svg xmlns="http://www.w3.org/2000/svg" width="24" height="24" viewBox="0 0 24 24"><g><g><g><path fill="#ff3838" d="M24 8.329v7.342c0 .668-.26 1.296-.732 1.768l-5.829 5.829c-.472.472-1.1.732-1.768.732H8.33c-.668 0-1.296-.26-1.768-.732L.732 17.439A2.484 2.484 0 0 1 0 15.671V8.33C0 7.66.26 7.033.732 6.56L6.561.732A2.484 2.484 0 0 1 8.329 0h7.342c.668 0 1.296.26 1.768.732l5.829 5.829c.472.472.732 1.1.732 1.768zm-1 7.342V8.33c0-.401-.156-.778-.44-1.061l-5.828-5.829A1.492 1.492 0 0 0 15.672 1H8.328c-.401 0-.778.156-1.061.44L1.439 7.267C1.156 7.55 1 7.928 1 8.328v7.343c0 .401.156.778.44 1.061l5.828 5.829c.283.283.66.439 1.06.439h7.343c.401 0 .778-.156 1.061-.44l5.829-5.828c.283-.283.439-.66.439-1.06zM11.5 18.5a.5.5 0 1 1 1 0 .5.5 0 0 1-1 0zm1-13v10a.5.5 0 1 1-1 0v-10a.5.5 0 1 1 1 0z"/></g></g></g></svg>