<svg xmlns="http://www.w3.org/2000/svg" width="30" height="30" viewBox="0 0 30 30"><g><g><g><g opacity=".3"><path fill="#fff" d="M15.001 27c1.3 0 2.552-.208 3.725-.59l1.027 2.821C18.26 29.73 16.662 30 15 30c-1.66 0-3.258-.27-4.751-.768l1.027-2.821A11.99 11.99 0 0 0 15 27z"/></g><g opacity=".3"><path fill="#fff" d="M24.506 22.32l2.46 1.722a15.041 15.041 0 0 1-6.65 4.985l-1.026-2.82a12.032 12.032 0 0 0 5.216-3.887z"/></g><g opacity=".3"><path fill="#fff" d="M10.707 26.207l-1.027 2.82a15.041 15.041 0 0 1-6.65-4.985l2.46-1.722a12.037 12.037 0 0 0 4.958 3.785z"/></g><g opacity=".3"><path fill="#fff" d="M27.318 23.56l-2.458-1.721a11.936 11.936 0 0 0 2.123-6.239h3.003a14.92 14.92 0 0 1-2.501 7.714z"/></g><g opacity=".3"><path fill="#fff" d="M5.136 21.839l-2.457 1.72A14.922 14.922 0 0 1 .01 15.6h3.003a11.936 11.936 0 0 0 2.123 6.239z"/></g><g opacity=".3"><path fill="#fff" d="M29.996 15.002h-3c0-2.365-.684-4.57-1.866-6.43l2.46-1.722a14.93 14.93 0 0 1 2.406 8.152z"/></g><g opacity=".3"><path fill="#fff" d="M2.406 6.85l2.46 1.723A11.944 11.944 0 0 0 3 15.002H0c0-3.006.884-5.805 2.406-8.152z"/></g><g opacity=".3"><path fill="#fff" d="M27.255 6.347L24.798 8.07A12.04 12.04 0 0 0 19.48 3.86l1.027-2.821a15.046 15.046 0 0 1 6.573 5.064z"/></g><g opacity=".3"><path fill="#fff" d="M9.488 1.04l1.027 2.821A12.04 12.04 0 0 0 5.197 8.07L2.74 6.347A15.048 15.048 0 0 1 9.488 1.04z"/></g><g><path fill="#8491b4" d="M14.995 0c1.733 0 3.397.294 4.946.834l-1.026 2.82A11.983 11.983 0 0 0 14.995 3c-1.372 0-2.69.23-3.919.655L10.05.835A14.978 14.978 0 0 1 14.995 0z"/></g></g><g opacity=".4"><g opacity=".12"><path fill="#fff" d="M15.001 24.601c1.04 0 2.042-.165 2.98-.471l.821 2.257a11.987 11.987 0 0 1-3.8.614c-1.33 0-2.608-.216-3.802-.614l.821-2.257c.938.306 1.94.471 2.98.471z"/></g><g opacity=".12"><path fill="#fff" d="M22.603 20.86l1.968 1.377a12.033 12.033 0 0 1-5.32 3.989l-.821-2.256a9.626 9.626 0 0 0 4.173-3.11z"/></g><g opacity=".12"><path fill="#fff" d="M11.571 23.97l-.821 2.256a12.033 12.033 0 0 1-5.32-3.989l1.968-1.377a9.63 9.63 0 0 0 3.967 3.028z"/></g><g opacity=".12"><path fill="#fff" d="M24.856 21.848L22.89 20.47a9.549 9.549 0 0 0 1.699-4.991h2.402a11.936 11.936 0 0 1-2.001 6.171z"/></g><g opacity=".12"><path fill="#fff" d="M7.111 20.47l-1.966 1.378A11.938 11.938 0 0 1 3.01 15.48h2.402a9.55 9.55 0 0 0 1.699 4.99z"/></g><g opacity=".12"><path fill="#fff" d="M27.003 15.002h-2.4a9.555 9.555 0 0 0-1.493-5.144l1.968-1.378a11.944 11.944 0 0 1 1.925 6.522z"/></g><g opacity=".12"><path fill="#fff" d="M4.925 8.48l1.968 1.378A9.555 9.555 0 0 0 5.4 15.002H3c0-2.405.707-4.644 1.925-6.522z"/></g><g opacity=".12"><path fill="#fff" d="M24.81 8.086l-1.966 1.377a9.632 9.632 0 0 0-4.254-3.366l.821-2.257c2.113.834 3.931 2.25 5.259 4.051z"/></g><g opacity=".12"><path fill="#fff" d="M10.589 3.84l.821 2.257a9.632 9.632 0 0 0-4.254 3.366L5.19 8.086a12.039 12.039 0 0 1 5.399-4.246z"/></g><g opacity=".4"><path fill="#8491b4" d="M14.996 3c1.387 0 2.718.235 3.957.667l-.821 2.257a9.587 9.587 0 0 0-3.136-.524 9.587 9.587 0 0 0-3.135.524l-.821-2.257A11.982 11.982 0 0 1 14.996 3z"/></g></g><g><g><path fill="#6a789d" d="M18.281 15.441l-3.23-1.938a.37.37 0 0 0-.38 0l-3.01 1.805-.861 1.28v2.584h8.121v-2.584z"/></g><g><path fill="#8491b4" d="M18.921 9.37v7.222l-3.87-2.322a.37.37 0 0 0-.38 0L10.8 16.592V9.369A.37.37 0 0 1 11.17 9h7.382a.37.37 0 0 1 .37.37zm-3.87 7.484l3.87 2.322v2.055a.37.37 0 0 1-.559.316l-3.501-2.1-3.502 2.1a.37.37 0 0 1-.559-.316v-2.055l3.87-2.322a.37.37 0 0 1 .38 0z"/></g></g></g></g></svg>