<svg xmlns="http://www.w3.org/2000/svg" width="30" height="30" viewBox="0 0 30 30"><g><g><g><g><path fill="#8491b4" d="M15 27c1.3 0 2.552-.207 3.725-.59l1.026 2.822C18.258 29.73 16.661 30 15 30c-1.66 0-3.258-.27-4.751-.768l1.026-2.821A11.99 11.99 0 0 0 15 27zm9.507-4.677l2.46 1.722a15.041 15.041 0 0 1-6.65 4.985l-1.026-2.82a12.032 12.032 0 0 0 5.216-3.887zM10.709 26.21l-1.026 2.82a15.041 15.041 0 0 1-6.65-4.985l2.46-1.722a12.037 12.037 0 0 0 4.958 3.785zm16.61-2.65l-2.457-1.721a11.936 11.936 0 0 0 2.123-6.239h3.003a14.92 14.92 0 0 1-2.501 7.714zM5.139 21.839l-2.458 1.72A14.922 14.922 0 0 1 .012 15.6h3.003a11.936 11.936 0 0 0 2.123 6.239zM30 15h-3c0-2.365-.684-4.57-1.866-6.43l2.46-1.722A14.93 14.93 0 0 1 30 15zM2.406 6.848l2.46 1.723A11.944 11.944 0 0 0 3 15H0c0-3.006.884-5.805 2.406-8.152zm24.851-.497L24.8 8.073a12.04 12.04 0 0 0-5.318-4.208l1.027-2.821a15.046 15.046 0 0 1 6.573 5.064zM9.491 1.044l1.027 2.82A12.04 12.04 0 0 0 5.2 8.074L2.743 6.35a15.048 15.048 0 0 1 6.748-5.307zM15.005 0c1.735 0 3.4.294 4.95.834l-1.027 2.82A12.006 12.006 0 0 0 15.005 3c-1.374 0-2.694.23-3.923.655L10.055.835C11.605.293 13.27 0 15.005 0z"/></g></g><g opacity=".4"><g opacity=".4"><path fill="#8491b4" d="M15 24.6c1.04 0 2.042-.165 2.98-.471l.821 2.257A11.987 11.987 0 0 1 15 27c-1.329 0-2.607-.216-3.801-.614l.821-2.257c.938.306 1.94.471 2.98.471zm7.606-3.741l1.968 1.375a12.03 12.03 0 0 1-5.32 3.98l-.822-2.252a9.624 9.624 0 0 0 4.174-3.103zm-11.038 3.103l-.822 2.252a12.03 12.03 0 0 1-5.32-3.98l1.968-1.375a9.627 9.627 0 0 0 3.967 3.022zm13.288-2.114L22.89 20.47a9.549 9.549 0 0 0 1.698-4.99h2.403a11.936 11.936 0 0 1-2.002 6.17zM7.11 20.47l-1.966 1.377A11.938 11.938 0 0 1 3.01 15.48h2.403a9.55 9.55 0 0 0 1.698 4.99zM27 15h-2.4a9.555 9.555 0 0 0-1.493-5.143l1.968-1.379A11.944 11.944 0 0 1 27 15zM4.925 8.478l1.968 1.379A9.555 9.555 0 0 0 5.4 15H3c0-2.405.707-4.644 1.925-6.522zm19.88-.397L22.84 9.458a9.632 9.632 0 0 0-4.255-3.366l.822-2.257c2.112.834 3.93 2.25 5.258 4.051zM10.594 3.835l.822 2.257A9.632 9.632 0 0 0 7.16 9.458L5.194 8.081a12.039 12.039 0 0 1 5.4-4.246zM15.005 3c1.388 0 2.721.235 3.961.667l-.822 2.257a9.61 9.61 0 0 0-3.139-.524 9.61 9.61 0 0 0-3.14.524l-.821-2.257A12.01 12.01 0 0 1 15.005 3z"/></g></g><g><g><path fill="#8491b4" d="M22.021 11.354a.42.42 0 0 0-.477-.006l-2.422 1.595a.421.421 0 0 0-.116.586c.14.208.213.45.213.7a1.267 1.267 0 0 1-2.531 0c0-.41.202-.796.54-1.034a.422.422 0 0 0 .104-.588L15.345 9.77c-.156-.225-.534-.225-.69 0l-1.987 2.838a.422.422 0 0 0 .103.588c.339.238.541.625.541 1.035 0 .698-.567 1.266-1.265 1.266a1.267 1.267 0 0 1-1.053-1.967.419.419 0 0 0-.116-.586l-2.422-1.595a.42.42 0 0 0-.643.453l1.715 6.75a.417.417 0 0 0 .479.314 30.316 30.316 0 0 1 9.986 0 .423.423 0 0 0 .479-.314l1.716-6.75a.422.422 0 0 0-.167-.447z"/></g><g><path fill="#6a789d" d="M20.475 18.565a.423.423 0 0 1-.478.315 30.271 30.271 0 0 0-9.985 0 .417.417 0 0 1-.478-.315l-.124-.487c1.698-.435 3.594-.678 5.594-.678 2 0 3.897.243 5.595.678z"/></g></g></g></g></svg>