<svg xmlns="http://www.w3.org/2000/svg" width="30" height="30" viewBox="0 0 30 30"><defs><radialGradient id="5j43a" cx="10.2" cy="9.01" r="15.4" gradientUnits="userSpaceOnUse"><stop offset="0" stop-color="#abf0ff"/><stop offset=".35" stop-color="#10c0e6"/><stop offset="1" stop-color="#0071db"/></radialGradient></defs><g><g><g><g opacity=".3"><path fill="#fff" d="M15.001 27c1.3 0 2.552-.208 3.725-.59l1.027 2.821C18.26 29.73 16.662 30 15 30c-1.66 0-3.258-.27-4.751-.768l1.027-2.821A11.99 11.99 0 0 0 15 27z"/></g><g opacity=".3"><path fill="#fff" d="M24.506 22.32l2.46 1.722a15.041 15.041 0 0 1-6.65 4.985l-1.026-2.82a12.032 12.032 0 0 0 5.216-3.887z"/></g><g opacity=".3"><path fill="#fff" d="M10.707 26.207l-1.027 2.82a15.041 15.041 0 0 1-6.65-4.985l2.46-1.722a12.037 12.037 0 0 0 4.958 3.785z"/></g><g opacity=".3"><path fill="#fff" d="M27.318 23.56l-2.458-1.721a11.936 11.936 0 0 0 2.123-6.239h3.003a14.92 14.92 0 0 1-2.501 7.714z"/></g><g opacity=".3"><path fill="#fff" d="M5.136 21.839l-2.457 1.72A14.922 14.922 0 0 1 .01 15.6h3.003a11.936 11.936 0 0 0 2.123 6.239z"/></g><g opacity=".3"><path fill="#fff" d="M29.996 15.002h-3c0-2.365-.684-4.57-1.866-6.43l2.46-1.722a14.93 14.93 0 0 1 2.406 8.152z"/></g><g opacity=".3"><path fill="#fff" d="M2.406 6.85l2.46 1.723A11.944 11.944 0 0 0 3 15.002H0c0-3.006.884-5.805 2.406-8.152z"/></g><g><path fill="#4acded" d="M27.242 6.351L24.79 8.073a12.02 12.02 0 0 0-5.307-4.208l1.024-2.821a15.02 15.02 0 0 1 6.56 5.064zM14.993 0c1.732 0 3.396.294 4.944.834l-1.026 2.82A11.973 11.973 0 0 0 14.993 3c-1.372 0-2.69.23-3.917.655L10.05.835A14.965 14.965 0 0 1 14.993 0z"/></g><g opacity=".3"><path fill="#fff" d="M9.488 1.04l1.027 2.821A12.04 12.04 0 0 0 5.197 8.07L2.74 6.347A15.048 15.048 0 0 1 9.488 1.04z"/></g></g><g opacity=".4"><g opacity=".12"><path fill="#fff" d="M15.001 24.601c1.04 0 2.042-.165 2.98-.471l.821 2.257a11.987 11.987 0 0 1-3.8.614c-1.33 0-2.608-.216-3.802-.614l.821-2.257c.938.306 1.94.471 2.98.471z"/></g><g opacity=".12"><path fill="#fff" d="M22.603 20.86l1.968 1.377a12.033 12.033 0 0 1-5.32 3.989l-.821-2.256a9.626 9.626 0 0 0 4.173-3.11z"/></g><g opacity=".12"><path fill="#fff" d="M11.571 23.97l-.821 2.256a12.033 12.033 0 0 1-5.32-3.989l1.968-1.377a9.63 9.63 0 0 0 3.967 3.028z"/></g><g opacity=".12"><path fill="#fff" d="M24.856 21.848L22.89 20.47a9.549 9.549 0 0 0 1.699-4.991h2.402a11.936 11.936 0 0 1-2.001 6.171z"/></g><g opacity=".12"><path fill="#fff" d="M7.111 20.47l-1.966 1.378A11.938 11.938 0 0 1 3.01 15.48h2.402a9.55 9.55 0 0 0 1.699 4.99z"/></g><g opacity=".12"><path fill="#fff" d="M27.003 15.002h-2.4a9.555 9.555 0 0 0-1.493-5.144l1.968-1.378a11.944 11.944 0 0 1 1.925 6.522z"/></g><g opacity=".12"><path fill="#fff" d="M4.925 8.48l1.968 1.378A9.555 9.555 0 0 0 5.4 15.002H3c0-2.405.707-4.644 1.925-6.522z"/></g><g opacity=".32"><path fill="url(#5j43a)" d="M24.802 8.08l-1.964 1.378a9.625 9.625 0 0 0-4.25-3.366l.82-2.257c2.11.834 3.927 2.25 5.254 4.051zM14.994 3c1.386 0 2.716.235 3.954.667l-.82 2.257a9.577 9.577 0 0 0-3.134-.524 9.577 9.577 0 0 0-3.134.524l-.82-2.257A11.97 11.97 0 0 1 14.994 3z"/></g><g opacity=".12"><path fill="#fff" d="M10.589 3.84l.821 2.257a9.632 9.632 0 0 0-4.254 3.366L5.19 8.086a12.039 12.039 0 0 1 5.399-4.246z"/></g></g><g><g><path fill="#4acded" d="M12.514 8.6l-.583-.564-1.688 3.425a.42.42 0 0 0 .162.547l3.214 1.925.137-.993zm6.924 2.867L17.75 8.036a.422.422 0 0 0-.378-.236H14.92l-.096.77 1.77 4.18.631.495 2.05-1.23a.422.422 0 0 0 .162-.548zm-3.375 2.476l-.583-.675h-1.194l-.667.675a4.226 4.226 0 0 0-2.997 4.038A4.224 4.224 0 0 0 14.84 22.2a4.224 4.224 0 0 0 4.218-4.219 4.226 4.226 0 0 0-2.996-4.038z"/></g><g><path fill="#2bb4d6" d="M13.618 13.943L11.93 8.036a.422.422 0 0 1 .379-.236h2.611l2.305 5.445-.73.438-.433.26a4.208 4.208 0 0 0-2.444 0zm2.973 3.223a.422.422 0 0 1 .238.712l-.695.712.165 1.01a.422.422 0 0 1-.62.438l-.84-.464-.838.464a.422.422 0 0 1-.62-.437l.164-1.011-.695-.712a.422.422 0 0 1 .239-.712l.943-.144.426-.908a.422.422 0 0 1 .764 0l.426.908z"/></g></g></g></g></svg>