<svg xmlns="http://www.w3.org/2000/svg" width="30" height="30" viewBox="0 0 30 30"><g><g><g><g opacity=".3"><path fill="#fff" d="M15.001 27c1.3 0 2.552-.208 3.725-.59l1.027 2.821C18.26 29.73 16.662 30 15 30c-1.66 0-3.258-.27-4.751-.768l1.027-2.821A11.99 11.99 0 0 0 15 27z"/></g><g><path fill="#fff" d="M14.995 0c1.733 0 3.397.294 4.946.834l-1.026 2.82A11.983 11.983 0 0 0 14.995 3c-1.372 0-2.69.23-3.919.655L10.05.835A14.978 14.978 0 0 1 14.995 0zm12.257 6.351l-2.457 1.722a12.04 12.04 0 0 0-5.318-4.208l1.027-2.821a15.046 15.046 0 0 1 6.573 5.064zM29.995 15h-3c0-2.365-.684-4.57-1.866-6.43l2.46-1.722A14.93 14.93 0 0 1 29.995 15zm-2.68 8.56l-2.458-1.721a11.936 11.936 0 0 0 2.124-6.239h3.003a14.92 14.92 0 0 1-2.502 7.714zm-2.813-1.237l2.46 1.722a15.041 15.041 0 0 1-6.65 4.985l-1.026-2.82a12.032 12.032 0 0 0 5.216-3.887z"/></g><g opacity=".3"><path fill="#fff" d="M10.707 26.207l-1.027 2.82a15.041 15.041 0 0 1-6.65-4.985l2.46-1.722a12.037 12.037 0 0 0 4.958 3.785z"/></g><g opacity=".3"><path fill="#fff" d="M5.136 21.839l-2.457 1.72A14.922 14.922 0 0 1 .01 15.6h3.003a11.936 11.936 0 0 0 2.123 6.239z"/></g><g opacity=".3"><path fill="#fff" d="M2.406 6.85l2.46 1.723A11.944 11.944 0 0 0 3 15.002H0c0-3.006.884-5.805 2.406-8.152z"/></g><g opacity=".3"><path fill="#fff" d="M9.488 1.04l1.027 2.821A12.04 12.04 0 0 0 5.197 8.07L2.74 6.347A15.048 15.048 0 0 1 9.488 1.04z"/></g></g><g opacity=".4"><g opacity=".12"><path fill="#fff" d="M15.001 24.601c1.04 0 2.042-.165 2.98-.471l.821 2.257a11.987 11.987 0 0 1-3.8.614c-1.33 0-2.608-.216-3.802-.614l.821-2.257c.938.306 1.94.471 2.98.471z"/></g><g opacity=".4"><path fill="#fff" d="M22.602 20.859l1.968 1.375a12.03 12.03 0 0 1-5.32 3.98l-.821-2.252a9.624 9.624 0 0 0 4.173-3.103zm2.25.989l-1.966-1.377a9.549 9.549 0 0 0 1.699-4.99h2.402a11.936 11.936 0 0 1-2.001 6.17zM27.006 15H24.6a9.537 9.537 0 0 0-1.496-5.143l1.972-1.379A11.922 11.922 0 0 1 27.006 15zm-2.204-6.92l-1.966 1.378a9.632 9.632 0 0 0-4.254-3.366l.821-2.257c2.112.834 3.931 2.25 5.259 4.051zM14.996 3c1.387 0 2.718.235 3.957.667l-.821 2.257a9.587 9.587 0 0 0-3.136-.524 9.587 9.587 0 0 0-3.135.524l-.821-2.257A11.982 11.982 0 0 1 14.996 3z"/></g><g opacity=".12"><path fill="#fff" d="M11.571 23.97l-.821 2.256a12.033 12.033 0 0 1-5.32-3.989l1.968-1.377a9.63 9.63 0 0 0 3.967 3.028z"/></g><g opacity=".12"><path fill="#fff" d="M7.111 20.47l-1.966 1.378A11.938 11.938 0 0 1 3.01 15.48h2.402a9.55 9.55 0 0 0 1.699 4.99z"/></g><g opacity=".12"><path fill="#fff" d="M4.925 8.48l1.968 1.378A9.555 9.555 0 0 0 5.4 15.002H3c0-2.405.707-4.644 1.925-6.522z"/></g><g opacity=".12"><path fill="#fff" d="M10.589 3.84l.821 2.257a9.632 9.632 0 0 0-4.254 3.366L5.19 8.086a12.039 12.039 0 0 1 5.399-4.246z"/></g></g><g><g><path fill="#fff" d="M19.11 11.75h-.55c-2.329-.019-3.189-.735-3.244-.783a.44.44 0 0 0-.318-.137.45.45 0 0 0-.325.14c-.008.007-.83.761-3.242.78h-.549l-.672.7v2.206c0 .845.16 1.666.46 2.426l1.204 1.066a6.66 6.66 0 0 0 2.934 2.58.457.457 0 0 0 .375 0 6.66 6.66 0 0 0 2.934-2.58l1.023-.823c.362-.827.56-1.733.56-2.669v-2.175z"/></g><g><path fill="#d2daef" d="M22.343 11.75h-3.23v2.907a6.65 6.65 0 0 1-.992 3.491h.535a2.288 2.288 0 0 0 2.285-2.285 2.283 2.283 0 0 0 .914-1.82 2.25 2.25 0 0 0 .945-1.837.457.457 0 0 0-.457-.456zm-11.456 0h-3.23a.457.457 0 0 0-.457.457 2.25 2.25 0 0 0 .915 1.814v.014c0 .61.243 1.186.687 1.62.081.079.167.151.257.217a2.288 2.288 0 0 0 2.285 2.276h.535a6.65 6.65 0 0 1-.992-3.491z"/></g><g><path fill="#d2daef" d="M16.894 13.448a7.3 7.3 0 0 1-1.72-.472.457.457 0 0 0-.357 0 7.298 7.298 0 0 1-1.72.472.457.457 0 0 0-.387.451v.755c0 1.55.755 3.015 2.019 3.921a.456.456 0 0 0 .532 0 4.836 4.836 0 0 0 2.02-3.921v-.755a.457.457 0 0 0-.387-.451z"/></g></g></g></g></svg>