<svg xmlns="http://www.w3.org/2000/svg" width="30" height="30" viewBox="0 0 30 30"><g><g><g><g><path fill="#8491b4" d="M15 27c1.302 0 2.555-.207 3.729-.59l1.028 2.822A15.015 15.015 0 0 1 15 30c-1.662 0-3.261-.27-4.756-.768l1.028-2.821c1.174.382 2.427.589 3.728.589zm9.496-4.677l2.457 1.722a15.023 15.023 0 0 1-6.642 4.985l-1.025-2.82a12.018 12.018 0 0 0 5.21-3.887zm2.814 1.237l-2.453-1.721a11.951 11.951 0 0 0 2.12-6.239h2.997a14.94 14.94 0 0 1-2.497 7.714zM29.995 15h-3c0-2.365-.684-4.57-1.866-6.43l2.46-1.722A14.93 14.93 0 0 1 29.995 15zm-2.753-8.649l-2.454 1.722a12.027 12.027 0 0 0-5.31-4.208l1.025-2.821a15.03 15.03 0 0 1 6.564 5.064zM14.995 0c1.733 0 3.397.294 4.946.834l-1.026 2.82A11.983 11.983 0 0 0 14.995 3c-1.372 0-2.69.23-3.919.655L10.05.835A14.978 14.978 0 0 1 14.995 0z"/></g><g opacity=".3"><path fill="#fff" d="M10.707 26.207l-1.027 2.82a15.041 15.041 0 0 1-6.65-4.985l2.46-1.722a12.037 12.037 0 0 0 4.958 3.785z"/></g><g opacity=".3"><path fill="#fff" d="M5.136 21.839l-2.457 1.72A14.922 14.922 0 0 1 .01 15.6h3.003a11.936 11.936 0 0 0 2.123 6.239z"/></g><g opacity=".3"><path fill="#fff" d="M2.406 6.85l2.46 1.723A11.944 11.944 0 0 0 3 15.002H0c0-3.006.884-5.805 2.406-8.152z"/></g><g opacity=".3"><path fill="#fff" d="M9.488 1.04l1.027 2.821A12.04 12.04 0 0 0 5.197 8.07L2.74 6.347A15.048 15.048 0 0 1 9.488 1.04z"/></g></g><g opacity=".4"><g opacity=".4"><path fill="#8491b4" d="M14.996 24.6c1.04 0 2.042-.165 2.98-.471l.821 2.257a11.987 11.987 0 0 1-3.8.614c-1.33 0-2.607-.216-3.802-.614l.822-2.257c.938.306 1.94.471 2.98.471zm7.606-3.741l1.968 1.375a12.03 12.03 0 0 1-5.32 3.98l-.821-2.252a9.624 9.624 0 0 0 4.173-3.103zm2.25.989l-1.966-1.377a9.549 9.549 0 0 0 1.699-4.99h2.402a11.936 11.936 0 0 1-2.001 6.17zM27.006 15H24.6a9.537 9.537 0 0 0-1.496-5.143l1.972-1.379A11.922 11.922 0 0 1 27.006 15zm-2.204-6.92l-1.966 1.378a9.632 9.632 0 0 0-4.254-3.366l.821-2.257c2.112.834 3.931 2.25 5.259 4.051zM14.996 3c1.387 0 2.718.235 3.957.667l-.821 2.257a9.587 9.587 0 0 0-3.136-.524 9.587 9.587 0 0 0-3.135.524l-.821-2.257A11.982 11.982 0 0 1 14.996 3z"/></g><g opacity=".12"><path fill="#fff" d="M11.571 23.97l-.821 2.256a12.033 12.033 0 0 1-5.32-3.989l1.968-1.377a9.63 9.63 0 0 0 3.967 3.028z"/></g><g opacity=".12"><path fill="#fff" d="M7.111 20.47l-1.966 1.378A11.938 11.938 0 0 1 3.01 15.48h2.402a9.55 9.55 0 0 0 1.699 4.99z"/></g><g opacity=".12"><path fill="#fff" d="M4.925 8.48l1.968 1.378A9.555 9.555 0 0 0 5.4 15.002H3c0-2.405.707-4.644 1.925-6.522z"/></g><g opacity=".12"><path fill="#fff" d="M10.589 3.84l.821 2.257a9.632 9.632 0 0 0-4.254 3.366L5.19 8.086a12.039 12.039 0 0 1 5.399-4.246z"/></g></g><g><g><path fill="#6a789d" d="M16.837 12.44c0 1.395-.902 2.954-2.109 2.954-1.207 0-2.11-1.56-2.11-2.953 0-1.282.829-2.11 2.11-2.11s2.11.828 2.11 2.11zm-2.52 5.068a.427.427 0 1 1-.854 0 .427.427 0 0 1 .853 0zm-1.698 0a.424.424 0 0 1-.422.427.424.424 0 0 1-.422-.427c0-.236.189-.427.422-.427.233 0 .422.191.422.427zm5.062 0a.424.424 0 0 1-.422.427.424.424 0 0 1-.422-.427c0-.236.19-.427.422-.427.233 0 .422.191.422.427zm-1.687 0a.424.424 0 0 1-.422.427.424.424 0 0 1-.422-.427c0-.236.189-.427.422-.427.233 0 .422.191.422.427zm.854 1.683a.424.424 0 0 1-.427.421.424.424 0 0 1-.427-.421c0-.233.19-.422.427-.422.235 0 .427.189.427.422zm-1.698 0a.422.422 0 1 1-.844 0 .422.422 0 0 1 .844 0zm-1.688 0a.422.422 0 1 1-.843 0 .422.422 0 0 1 .844 0zm-2.53-7.594v1.687l-.004.116a2.112 2.112 0 0 1-2.106 1.994.422.422 0 0 0-.422.422c0 3.71 3.121 6.384 6.328 6.384 3.49 0 6.328-2.895 6.328-6.384a.422.422 0 0 0-.422-.422 2.112 2.112 0 0 1-2.109-2.11v-1.687l-.003-.14A3.801 3.801 0 0 0 14.728 7.8a3.801 3.801 0 0 0-3.797 3.797z"/></g><g><path fill="#8491b4" d="M13.038 17.569a.422.422 0 1 0 0 .844.422.422 0 0 0 0-.844zm1.688 0a.422.422 0 1 0 0 .844.422.422 0 0 0 0-.844zm1.687 0a.422.422 0 1 0 0 .844.422.422 0 0 0 0-.844zm-.843-1.688a.422.422 0 1 0 0 .844.422.422 0 0 0 0-.844zm1.687 0a.422.422 0 1 0 0 .844.422.422 0 0 0 0-.844zm-5.062 0a.422.422 0 1 0 0 .844.422.422 0 0 0 0-.844zm1.687 0a.422.422 0 1 0 0 .844.422.422 0 0 0 0-.844zm.844-8.081a3.801 3.801 0 0 1 3.794 3.658l.003.139v1.687c0 1.163.946 2.11 2.11 2.11.144 0 .272.073.348.184C20.517 18.622 17.89 21 14.726 21c-2.922 0-5.772-2.22-6.256-5.42a.421.421 0 0 1 .35-.186 2.112 2.112 0 0 0 2.106-1.994l.003-.116v-1.687A3.801 3.801 0 0 1 14.726 7.8zm-1.688 10.969a.422.422 0 1 0 0 .844.422.422 0 0 0 0-.844zm1.688 0a.422.422 0 1 0 0 .844.422.422 0 0 0 0-.844zm1.687 0a.422.422 0 1 0 0 .844.422.422 0 0 0 0-.844zm-.843-1.688a.422.422 0 1 0 0 .844.422.422 0 0 0 0-.844zm1.687 0a.422.422 0 1 0 0 .844.422.422 0 0 0 0-.844zm-5.062 0a.422.422 0 1 0 0 .844.422.422 0 0 0 0-.844zm1.687 0a.422.422 0 1 0 0 .844.422.422 0 0 0 0-.844zm-1.266-4.64c0 1.394.903 2.953 2.11 2.953 1.207 0 2.11-1.56 2.11-2.953 0-.2-.021-.39-.06-.566.039-.211.06-.425.06-.634 0-1.282-.829-2.11-2.11-2.11s-2.11.828-2.11 2.11c0 .21.02.423.06.634-.04.176-.06.366-.06.566z"/></g></g></g></g></svg>