<svg xmlns="http://www.w3.org/2000/svg" width="30" height="30" viewBox="0 0 30 30"><g><g><g><g><path fill="#8491b4" d="M14.997 27c1.3 0 2.552-.207 3.725-.59l1.026 2.822c-1.493.498-3.09.768-4.75.768-1.662 0-3.26-.27-4.752-.768l1.027-2.821a11.99 11.99 0 0 0 3.724.589zm9.5-4.677l2.457 1.722a15.023 15.023 0 0 1-6.641 4.985l-1.025-2.82a12.018 12.018 0 0 0 5.21-3.887zm-13.79 3.887L9.68 29.03a15.041 15.041 0 0 1-6.65-4.985l2.46-1.722a12.037 12.037 0 0 0 4.958 3.785zm16.61-2.65l-2.458-1.721a11.936 11.936 0 0 0 2.123-6.239h3.003a14.92 14.92 0 0 1-2.501 7.714zm2.68-8.56h-3c0-2.365-.684-4.57-1.866-6.43l2.46-1.722A14.93 14.93 0 0 1 29.997 15zm-2.753-8.649L24.79 8.073a12.027 12.027 0 0 0-5.311-4.208l1.025-2.821a15.03 15.03 0 0 1 6.565 5.064zM14.997 0c1.733 0 3.397.294 4.946.834l-1.027 2.82A11.983 11.983 0 0 0 14.997 3c-1.372 0-2.691.23-3.92.655L10.053.835A14.978 14.978 0 0 1 14.997 0z"/></g><g opacity=".3"><path fill="#fff" d="M5.136 21.839l-2.457 1.72A14.922 14.922 0 0 1 .01 15.6h3.003a11.936 11.936 0 0 0 2.123 6.239z"/></g><g opacity=".3"><path fill="#fff" d="M2.406 6.85l2.46 1.723A11.944 11.944 0 0 0 3 15.002H0c0-3.006.884-5.805 2.406-8.152z"/></g><g opacity=".3"><path fill="#fff" d="M9.488 1.04l1.027 2.821A12.04 12.04 0 0 0 5.197 8.07L2.74 6.347A15.048 15.048 0 0 1 9.488 1.04z"/></g></g><g opacity=".4"><g opacity=".4"><path fill="#8491b4" d="M15.004 24.6c1.04 0 2.041-.165 2.98-.471l.82 2.257a11.987 11.987 0 0 1-3.8.614c-1.329 0-2.607-.216-3.801-.614l.821-2.257c.938.306 1.94.471 2.98.471zm7.605-3.741l1.968 1.375a12.03 12.03 0 0 1-5.32 3.98l-.82-2.252a9.624 9.624 0 0 0 4.172-3.103zm-11.038 3.103l-.821 2.252a12.03 12.03 0 0 1-5.32-3.98l1.968-1.375a9.627 9.627 0 0 0 3.967 3.022zm13.288-2.114l-1.966-1.377a9.549 9.549 0 0 0 1.699-4.99h2.402a11.936 11.936 0 0 1-2 6.17zM27.004 15h-2.4a9.555 9.555 0 0 0-1.493-5.143l1.968-1.379A11.944 11.944 0 0 1 27.004 15zm-2.195-6.92l-1.966 1.378a9.632 9.632 0 0 0-4.254-3.366l.822-2.257c2.112.834 3.93 2.25 5.258 4.051zM15.004 3c1.386 0 2.717.235 3.956.667l-.82 2.257a9.587 9.587 0 0 0-3.136-.524 9.587 9.587 0 0 0-3.136.524l-.82-2.257A11.982 11.982 0 0 1 15.003 3z"/></g><g opacity=".12"><path fill="#fff" d="M7.111 20.47l-1.966 1.378A11.938 11.938 0 0 1 3.01 15.48h2.402a9.55 9.55 0 0 0 1.699 4.99z"/></g><g opacity=".12"><path fill="#fff" d="M4.925 8.48l1.968 1.378A9.555 9.555 0 0 0 5.4 15.002H3c0-2.405.707-4.644 1.925-6.522z"/></g><g opacity=".12"><path fill="#fff" d="M10.589 3.84l.821 2.257a9.632 9.632 0 0 0-4.254 3.366L5.19 8.086a12.039 12.039 0 0 1 5.399-4.246z"/></g></g><g><g><path fill="#6a789d" d="M21.722 13.502c.312.494.478 1.044.478 1.59a2.953 2.953 0 0 1-2.953 2.945c-.728-.025-1.266-.581-1.266-1.265 0-.522-.14-1.034-.404-1.48a.42.42 0 0 1 .005-.441.409.409 0 0 1 .396-.195c.596.057.904-.345.966-.706.066-.395-.106-.853-.643-.988a.42.42 0 0 1-.15-.746l3.374-2.532a.422.422 0 0 1 .605.57l-.363.549a2.487 2.487 0 0 0-.045 2.699zm-9.7 1.154a.42.42 0 0 1 .401.635 2.91 2.91 0 0 0-.404 1.48 1.26 1.26 0 0 1-1.25 1.266c-1.644 0-2.969-1.32-2.969-2.945 0-.547.166-1.098.48-1.592a2.485 2.485 0 0 0-.045-2.694l-.365-.552a.422.422 0 0 1 .605-.57l3.375 2.532a.422.422 0 0 1-.15.746c-.536.134-.708.592-.641.986.062.362.35.766.963.708zM15.429 13l.847 4.615-1.271 1.266-1.27-1.266L14.58 13a3.456 3.456 0 0 1 .848 0z"/></g><g><path fill="#8491b4" d="M19.237 17.193a.421.421 0 0 1-.413-.421c0-.675-.177-1.334-.523-1.907A3.869 3.869 0 0 0 15.42 13v4.615a.418.418 0 0 1-.422.422.418.418 0 0 1-.422-.422V13a3.869 3.869 0 0 0-2.88 1.865 3.684 3.684 0 0 0-.523 1.907.418.418 0 0 1-.422.421.418.418 0 0 0-.422.422v1.688c0 .236.186.422.422.422h8.494a.418.418 0 0 0 .421-.422v-1.688c0-.228-.202-.413-.43-.422z"/></g></g></g></g></svg>