<svg xmlns="http://www.w3.org/2000/svg" width="30" height="30" viewBox="0 0 30 30"><defs><radialGradient id="31yna" cx="1.54" cy="25.32" r="31.21" gradientUnits="userSpaceOnUse"><stop offset="0" stop-color="#fedb41"/><stop offset="1" stop-color="#f4ca10"/></radialGradient></defs><g><g><g><g><path fill="#fedb41" d="M14.998 27c1.3 0 2.552-.207 3.725-.59l1.027 2.822c-1.494.498-3.091.768-4.752.768-1.66 0-3.258-.27-4.751-.768l1.027-2.821a11.99 11.99 0 0 0 3.724.589zm9.507-4.677l2.46 1.722a15.041 15.041 0 0 1-6.65 4.985l-1.026-2.82a12.032 12.032 0 0 0 5.216-3.887zM10.708 26.21L9.68 29.03a15.041 15.041 0 0 1-6.65-4.985l2.46-1.722a12.037 12.037 0 0 0 4.958 3.785zm16.61-2.65l-2.458-1.721a11.936 11.936 0 0 0 2.123-6.239h3.003a14.92 14.92 0 0 1-2.501 7.714zM5.136 21.839l-2.457 1.72A14.922 14.922 0 0 1 .01 15.6h3.003a11.936 11.936 0 0 0 2.123 6.239zM29.998 15h-3c0-2.365-.684-4.57-1.866-6.43l2.46-1.722A14.93 14.93 0 0 1 29.998 15zm-2.743-8.649l-2.457 1.722a12.04 12.04 0 0 0-5.318-4.208l1.027-2.821a15.046 15.046 0 0 1 6.573 5.064zM14.998 0c1.733 0 3.397.294 4.946.834l-1.026 2.82A11.983 11.983 0 0 0 14.998 3c-1.372 0-2.69.23-3.92.655L10.054.835A14.978 14.978 0 0 1 14.998 0z"/></g><g opacity=".3"><path fill="#fff" d="M2.406 6.85l2.46 1.723A11.944 11.944 0 0 0 3 15.002H0c0-3.006.884-5.805 2.406-8.152z"/></g><g opacity=".3"><path fill="#fff" d="M9.488 1.04l1.027 2.821A12.04 12.04 0 0 0 5.197 8.07L2.74 6.347A15.048 15.048 0 0 1 9.488 1.04z"/></g></g><g opacity=".4"><g opacity=".4"><path fill="url(#31yna)" d="M15 24.6c1.04 0 2.042-.165 2.98-.471l.822 2.257A11.987 11.987 0 0 1 15 27c-1.329 0-2.607-.216-3.802-.614l.822-2.257c.938.306 1.94.471 2.98.471zm7.606-3.741l1.968 1.375a12.03 12.03 0 0 1-5.32 3.98l-.821-2.252a9.624 9.624 0 0 0 4.173-3.103zm-11.038 3.103l-.821 2.252a12.03 12.03 0 0 1-5.32-3.98l1.968-1.375a9.627 9.627 0 0 0 3.966 3.022zm13.288-2.114L22.89 20.47a9.549 9.549 0 0 0 1.699-4.99h2.402a11.936 11.936 0 0 1-2.001 6.17zM7.111 20.47l-1.966 1.377A11.938 11.938 0 0 1 3.01 15.48h2.402a9.55 9.55 0 0 0 1.699 4.99zM27.001 15h-2.4a9.555 9.555 0 0 0-1.493-5.143l1.967-1.379A11.944 11.944 0 0 1 27.001 15zm-2.195-6.92L22.84 9.459a9.632 9.632 0 0 0-4.254-3.366l.821-2.257c2.113.834 3.931 2.25 5.259 4.051zM15.006 3c1.388 0 2.72.235 3.96.667l-.821 2.257a9.61 9.61 0 0 0-3.14-.524 9.61 9.61 0 0 0-3.139.524l-.822-2.257A12.01 12.01 0 0 1 15.006 3z"/></g><g opacity=".12"><path fill="#fff" d="M4.925 8.48l1.968 1.378A9.555 9.555 0 0 0 5.4 15.002H3c0-2.405.707-4.644 1.925-6.522z"/></g><g opacity=".12"><path fill="#fff" d="M10.589 3.84l.821 2.257a9.632 9.632 0 0 0-4.254 3.366L5.19 8.086a12.039 12.039 0 0 1 5.399-4.246z"/></g></g><g><g><path fill="#c6a62b" d="M19.481 10.753A2.956 2.956 0 0 0 16.528 7.8h-.844l-.843 4.697 4.64-.844zM13.153 7.8a2.956 2.956 0 0 0-2.953 2.953v.9l4.64.844-.843-4.697zm-1.314 6.244l1.704 1.134-3.343-1.215v4.013c0 .927.439 1.803 1.181 2.36L13.07 21.6c.278.21.599.37.928.463l.815-6.196.029.001h.028l.815 6.195c.33-.092.65-.252.928-.463l1.688-1.264a2.953 2.953 0 0 0 1.181-2.36v-4.013l-3.338 1.213 1.713-1.14a.865.865 0 0 0 .327-.94.843.843 0 0 0-.811-.6h-5.063a.844.844 0 0 0-.812.607.867.867 0 0 0 .342.941z"/></g><g><path fill="#fedb41" d="M15.684 7.8l-.843 4.697 4.64-.844v-.9l-.002-.128a2.957 2.957 0 0 0-2.95-2.825zm-2.53 0l-.129.003a2.957 2.957 0 0 0-2.825 2.95v.9l4.64.844-.843-4.697zm-.845 4.697l-.08.004a.843.843 0 0 0-.732.603.868.868 0 0 0 .342.942l1.704 1.134-3.343-1.215v3.363l4.019 3.058.593-4.515h.057l.6 4.57 4.012-2.662v-3.814l-3.338 1.214 1.713-1.142.065-.052a.867.867 0 0 0 .262-.888.843.843 0 0 0-.811-.6z"/></g><g><path fill="#050447" d="M17.372 17.981a.424.424 0 0 0-.422.427c0 .236.189.427.422.427a.424.424 0 0 0 .422-.427.424.424 0 0 0-.422-.427zm.427-1.687a.427.427 0 1 0 0 .854.427.427 0 0 0 0-.854zm-5.49 1.687a.424.424 0 0 0-.421.427c0 .236.188.427.421.427a.424.424 0 0 0 .422-.427.424.424 0 0 0-.422-.427zm0-1.26a.424.424 0 0 0-.421-.427.424.424 0 0 0-.422.427c0 .235.189.427.422.427a.424.424 0 0 0 .421-.427zm2.763-1.338a.476.476 0 0 1-.236.067.477.477 0 0 1-.236-.067l-2.527-1.688a.441.441 0 0 1-.169-.481.417.417 0 0 1 .405-.295h5.054c.185 0 .353.118.404.295a.441.441 0 0 1-.169.481zm.612-3.73V7.8h-1.687v3.853H10.2v2.312l3.797 2.531v5.577a2.88 2.88 0 0 0 1.687 0v-5.577l3.797-2.531v-2.312z"/></g></g></g></g></svg>