<svg xmlns="http://www.w3.org/2000/svg" width="30" height="30" viewBox="0 0 30 30"><defs><radialGradient id="cgd9a" cx="1.53" cy="25.32" r="31.22" gradientUnits="userSpaceOnUse"><stop offset="0" stop-color="#fedb41"/><stop offset="1" stop-color="#f4ca10"/></radialGradient><radialGradient id="cgd9b" cx="13.13" cy="7.56" r="13.03" gradientUnits="userSpaceOnUse"><stop offset="0" stop-color="#fedb41"/><stop offset="1" stop-color="#f0c60e"/></radialGradient><radialGradient id="cgd9c" cx="14.53" cy="6.65" r="3.68" gradientUnits="userSpaceOnUse"><stop offset="0" stop-color="#fedb41"/><stop offset="1" stop-color="#f0c60e"/></radialGradient></defs><g><g><g><g><path fill="#fedb41" d="M15 27c1.3 0 2.552-.207 3.725-.59l1.026 2.822C18.258 29.73 16.661 30 15 30c-1.66 0-3.258-.27-4.751-.768l1.026-2.821A11.99 11.99 0 0 0 15 27zm9.507-4.677l2.46 1.722a15.041 15.041 0 0 1-6.65 4.985l-1.026-2.82a12.032 12.032 0 0 0 5.216-3.887zM10.709 26.21l-1.026 2.82a15.041 15.041 0 0 1-6.65-4.985l2.46-1.722a12.037 12.037 0 0 0 4.958 3.785zm16.61-2.65l-2.457-1.721a11.936 11.936 0 0 0 2.123-6.239h3.003a14.92 14.92 0 0 1-2.501 7.714zM5.139 21.839l-2.458 1.72A14.922 14.922 0 0 1 .012 15.6h3.003a11.936 11.936 0 0 0 2.123 6.239zM30 15h-3c0-2.365-.684-4.57-1.866-6.43l2.46-1.722A14.93 14.93 0 0 1 30 15zM2.406 6.848l2.46 1.723A11.944 11.944 0 0 0 3 15H0c0-3.006.884-5.805 2.406-8.152zm24.851-.497L24.8 8.073a12.04 12.04 0 0 0-5.318-4.208l1.027-2.821a15.046 15.046 0 0 1 6.573 5.064zM15.005 0c1.735 0 3.4.294 4.95.834l-1.027 2.82A12.006 12.006 0 0 0 15.005 3c-1.374 0-2.694.23-3.923.655L10.055.835C11.605.293 13.27 0 15.005 0z"/></g><g opacity=".3"><path fill="#fff" d="M9.488 1.04l1.027 2.821A12.04 12.04 0 0 0 5.197 8.07L2.74 6.347A15.048 15.048 0 0 1 9.488 1.04z"/></g></g><g opacity=".4"><g opacity=".4"><path fill="url(#cgd9a)" d="M15 24.6c1.04 0 2.042-.165 2.98-.471l.821 2.257A11.987 11.987 0 0 1 15 27c-1.329 0-2.607-.216-3.801-.614l.821-2.257c.938.306 1.94.471 2.98.471zm7.606-3.741l1.968 1.375a12.03 12.03 0 0 1-5.32 3.98l-.822-2.252a9.624 9.624 0 0 0 4.174-3.103zm-11.038 3.103l-.822 2.252a12.03 12.03 0 0 1-5.32-3.98l1.968-1.375a9.627 9.627 0 0 0 3.967 3.022zm13.288-2.114L22.89 20.47a9.549 9.549 0 0 0 1.698-4.99h2.403a11.936 11.936 0 0 1-2.002 6.17zM7.11 20.47l-1.966 1.377A11.938 11.938 0 0 1 3.01 15.48h2.403a9.55 9.55 0 0 0 1.698 4.99zM27 15h-2.4a9.555 9.555 0 0 0-1.493-5.143l1.968-1.379A11.944 11.944 0 0 1 27 15zM4.925 8.478l1.968 1.379A9.555 9.555 0 0 0 5.4 15H3c0-2.405.707-4.644 1.925-6.522zm19.88-.397L22.84 9.458a9.632 9.632 0 0 0-4.255-3.366l.822-2.257c2.112.834 3.93 2.25 5.258 4.051zM15.006 3c1.388 0 2.721.235 3.961.667l-.822 2.257a9.61 9.61 0 0 0-3.139-.524 9.61 9.61 0 0 0-3.14.524l-.821-2.257A12.01 12.01 0 0 1 15.005 3z"/></g><g opacity=".12"><path fill="#fff" d="M10.589 3.84l.821 2.257a9.632 9.632 0 0 0-4.254 3.366L5.19 8.086a12.039 12.039 0 0 1 5.399-4.246z"/></g></g><g><g><path fill="#c6a62b" d="M15.768 9.038a.421.421 0 0 0-.505.414v.76a.422.422 0 0 1-.844 0v-.76a.421.421 0 0 0-.505-.414 4.649 4.649 0 0 0-3.714 4.548v5.906c0 .141.07.273.188.351l2.531 1.688a.423.423 0 0 0 .656-.351v-4.11a.42.42 0 0 0-.205-.361l-.639-.383V14.22l1.893 1.136c.133.08.3.08.433 0l1.893-1.136v2.105l-.639.383a.42.42 0 0 0-.205.362v4.109a.422.422 0 0 0 .656.35l2.531-1.687a.423.423 0 0 0 .188-.35v-5.907a4.649 4.649 0 0 0-3.713-4.548z"/></g><g><path fill="url(#cgd9b)" d="M15.768 9.038a4.649 4.649 0 0 1 3.713 4.548v4.693l-3.375 2.081v-3.29a.42.42 0 0 1 .205-.361l.639-.383V14.22l-1.893 1.136c-.133.08-.3.08-.433 0L12.73 14.22v2.105l.639.383a.42.42 0 0 1 .205.362v3.284L10.2 18.26v-4.674a4.649 4.649 0 0 1 3.714-4.548.425.425 0 0 1 .505.414v.76a.422.422 0 0 0 .843 0v-.76a.421.421 0 0 1 .506-.414z"/></g><g><path fill="url(#cgd9c)" d="M15.266 7.2h-.844a.422.422 0 0 0-.422.422v3.01a.845.845 0 0 0 1.687 0v-3.01a.422.422 0 0 0-.421-.422z"/></g></g></g></g></svg>