<svg xmlns="http://www.w3.org/2000/svg" width="65" height="118" viewBox="0 0 65 118"><g><g transform="matrix(1 0 0 -1 0 151)"><g><path fill="none" stroke="#fedb41" stroke-dasharray="0 4" stroke-linecap="round" stroke-miterlimit="20" stroke-width="2" d="M1 118v0h8.782a8 8 0 0 0 8-8V48c0-5.523 4.477-10 10-10h29.747v0"/></g><g transform="rotate(-270 60.5 113.5)"><path fill="#fedb41" d="M60.5 33l4.5 9h-9z"/></g></g><g><g><path fill="none" stroke="#fedb41" stroke-dasharray="0 4" stroke-linecap="round" stroke-miterlimit="20" stroke-width="2" d="M1 27v0h8.782a8 8 0 0 0 8-8v-5c0-5.523 4.477-10 10-10h29.747v0"/></g><g transform="rotate(-270 60.5 4.5)"><path fill="#fedb41" d="M60.5 0L65 9h-9z"/></g></g></g></svg>