<svg xmlns="http://www.w3.org/2000/svg" width="24" height="24" viewBox="0 0 24 24"><g><g><g><path fill="#4acded" d="M14.285 16.709l-2.08-3.603a1.126 1.126 0 0 1-.58-2.166V6a.375.375 0 0 1 .75 0v4.94a1.127 1.127 0 0 1 .48 1.79l2.08 3.604a.375.375 0 0 1-.65.375zM12 12.375a.375.375 0 1 0 0-.75.375.375 0 0 0 0 .75zM5.83 8.437a.375.375 0 0 1-.513.138l-.974-.563a.375.375 0 0 1 .375-.65l.974.563c.18.104.241.333.138.513zm12.34 7.126a.375.375 0 0 1 .513-.138l.974.563a.375.375 0 1 1-.375.65l-.974-.563a.375.375 0 0 1-.138-.512zm-9.595 3.12l-.563.974a.375.375 0 1 1-.65-.375l.563-.974a.375.375 0 0 1 .65.375zm8.062-13.965l-.562.974a.375.375 0 1 1-.65-.375l.563-.974a.375.375 0 1 1 .65.375zm1.533 3.72a.375.375 0 0 1 .138-.513l.974-.562a.375.375 0 0 1 .375.65l-.974.562a.374.374 0 0 1-.513-.137zM4.206 16.5a.375.375 0 0 1 .137-.512l.974-.563a.375.375 0 0 1 .375.65l-.974.562a.374.374 0 0 1-.512-.137zm12.431 2.782a.375.375 0 0 1-.65.375l-.562-.974a.375.375 0 0 1 .65-.375zM8.437 5.83a.374.374 0 0 1-.512-.138l-.562-.974a.375.375 0 0 1 .65-.375l.562.974a.375.375 0 0 1-.137.513zM19.5 11.625h1.125a.375.375 0 0 1 0 .75H19.5a.375.375 0 0 1 0-.75zm-15 .75H3.375a.375.375 0 0 1 0-.75H4.5a.375.375 0 0 1 0 .75zm7.5 6.75c.207 0 .375.168.375.375v1.125a.375.375 0 0 1-.75 0V19.5c0-.207.168-.375.375-.375zM11.625 4.5V3.375a.375.375 0 0 1 .75 0V4.5a.375.375 0 0 1-.75 0zm6.845-.297a.375.375 0 0 1 .53-.03c.271.243.533.503.778.773a.375.375 0 0 1-.556.504 9.836 9.836 0 0 0-.722-.718.375.375 0 0 1-.03-.53zM22.5 12c0 2.805-1.092 5.441-3.075 7.425A10.431 10.431 0 0 1 12 22.5c-2.402 0-4.75-.832-6.612-2.343a.375.375 0 1 1 .473-.582A9.771 9.771 0 0 0 12 21.75c5.376 0 9.75-4.374 9.75-9.75 0-1.94-.568-3.812-1.642-5.417a.375.375 0 0 1 .624-.417A10.45 10.45 0 0 1 22.5 12zM4.732 18.5a.375.375 0 1 1-.559.5A10.482 10.482 0 0 1 1.5 12c0-2.805 1.092-5.441 3.075-7.425A10.431 10.431 0 0 1 12 1.5c2.088 0 4.105.612 5.834 1.769a.375.375 0 1 1-.417.623A9.703 9.703 0 0 0 12 2.25c-5.376 0-9.75 4.374-9.75 9.75 0 2.403.882 4.71 2.482 6.5zM24 12c0 3.205-1.248 6.219-3.515 8.485A11.922 11.922 0 0 1 12 24a11.921 11.921 0 0 1-8.485-3.515A11.922 11.922 0 0 1 0 12c0-3.205 1.248-6.219 3.515-8.485A11.922 11.922 0 0 1 12 0c3.205 0 6.219 1.248 8.485 3.515A11.922 11.922 0 0 1 24 12zm-.75 0c0-3.005-1.17-5.83-3.295-7.955A11.176 11.176 0 0 0 12 .75c-3.005 0-5.83 1.17-7.955 3.295A11.176 11.176 0 0 0 .75 12c0 3.005 1.17 5.83 3.295 7.955A11.176 11.176 0 0 0 12 23.25c3.005 0 5.83-1.17 7.955-3.295A11.176 11.176 0 0 0 23.25 12z"/></g></g></g></svg>