<svg xmlns="http://www.w3.org/2000/svg" width="23" height="30" viewBox="0 0 23 30"><g><g><path fill="#45a7e7" d="M15.9 18.16a4.986 4.986 0 0 1 4.98 4.98 4.986 4.986 0 0 1-4.98 4.98 4.986 4.986 0 0 1-4.98-4.98 4.986 4.986 0 0 1 4.98-4.98zm0 9.083a4.107 4.107 0 0 0 4.103-4.103 4.107 4.107 0 0 0-4.103-4.103 4.107 4.107 0 0 0-4.103 4.103 4.107 4.107 0 0 0 4.103 4.103zm6.384-3.825c.241.027.414.244.387.484a6.795 6.795 0 0 1-6.762 6.04l-13.624.004a.439.439 0 0 1-.438-.438v-1.383H.469a.439.439 0 0 1-.439-.439V25.87c0-.242.197-.438.439-.438h1.378v-.94H.469a.439.439 0 0 1-.439-.438v-1.817c0-.242.197-.438.439-.438h1.378v-.942H.469a.439.439 0 0 1-.439-.439v-1.816c0-.242.197-.439.439-.439h1.378v-.943H.469a.439.439 0 0 1-.439-.439v-1.816c0-.242.196-.439.439-.439h1.377v-1.374c0-.242.197-.438.439-.438h5.01V9.314a.439.439 0 0 1 .878 0v3.399h.94V3.298c.096-.416.336-.529.719-.337l2.14 1.778c.388.323 1.175-.262.608-.733L8.948.987a.477.477 0 0 0-.61 0L4.705 4.006c-.525.438.175 1.094.609.733l2.14-1.778c.383-.192.622-.08.719.337v4.105a.439.439 0 0 1-.877 0v-3.17l-1.421 1.18c-.66.47-1.295.411-1.907-.175-.458-.584-.4-1.22.176-1.906L7.777.312a1.354 1.354 0 0 1 1.731 0l3.633 3.02c.574.476.653 1.332.176 1.906-.587.585-1.223.644-1.907.175l-1.42-1.18v8.48H15c.243 0 .44.196.44.438v1.817a.439.439 0 0 1-.44.438h-1.377v.94s2.03-.015 2.286-.015a6.807 6.807 0 0 1 6.685 5.529.439.439 0 0 1-.861.164 5.93 5.93 0 0 0-5.824-4.816 5.935 5.935 0 0 0-5.929 5.928 5.935 5.935 0 0 0 5.93 5.929 5.918 5.918 0 0 0 5.89-5.26.439.439 0 0 1 .484-.387zm-19.56-8.893l11.838.004v-.939H2.724zM.907 16.342h11.839v-.936L.907 15.402zm1.817 1.82h8.546c.386-.36.813-.676 1.274-.939h-9.82zM.907 19.98h8.975a6.83 6.83 0 0 1 .597-.94H.907zm0 3.635H9.12a6.692 6.692 0 0 1 0-.941H6.393a.439.439 0 0 1 0-.877h2.842a6.74 6.74 0 0 1 .261-.94H2.724v.94h1.758c.243 0 .439.196.439.438v.002a.439.439 0 0 1-.439.439H.907zm1.817 1.817h6.778a6.746 6.746 0 0 1-.263-.94H2.724zM.907 27.248h9.582a6.823 6.823 0 0 1-.6-.94H.907zm11.672 1.821a6.842 6.842 0 0 1-1.288-.939H2.724v.94z"/></g></g></svg>