<svg xmlns="http://www.w3.org/2000/svg" width="23" height="30" viewBox="0 0 23 30"><defs><radialGradient id="f46ia" cx="2.24" cy="29.95" r="54.67" gradientUnits="userSpaceOnUse"><stop offset="0" stop-color="#9a4ca1"/><stop offset="1" stop-color="#c657d5"/></radialGradient></defs><g><g><path fill="url(#f46ia)" d="M20.89 23.14a4.985 4.985 0 0 1-4.98 4.98 4.986 4.986 0 0 1-4.98-4.98 4.986 4.986 0 0 1 4.98-4.98 4.985 4.985 0 0 1 4.98 4.98zm-.877 0a4.107 4.107 0 0 0-4.103-4.103 4.107 4.107 0 0 0-4.103 4.103 4.107 4.107 0 0 0 4.103 4.103 4.107 4.107 0 0 0 4.103-4.103zm2.267.518c.24.036.404.26.368.5-.495 3.286-3.407 5.784-6.729 5.784l-13.624.004a.439.439 0 0 1-.439-.438v-1.383H.48a.439.439 0 0 1-.439-.439V25.87c0-.243.196-.439.439-.439h1.377v-.94H.48a.439.439 0 0 1-.439-.438v-1.817c0-.242.196-.438.439-.438h1.377v-.942H.48a.439.439 0 0 1-.439-.438V18.6c0-.242.196-.438.439-.438h1.377v-.944H.48a.439.439 0 0 1-.439-.439v-1.816c0-.242.196-.439.439-.439h1.377v-1.382c0-.242.197-.438.439-.438h4.8l-2.94-2.444c-.586-.587-.644-1.223-.176-1.907.611-.585 1.246-.644 1.906-.176L7.306 9.36V5.365a.439.439 0 0 1 .877 0v4.93c-.003.497-.412.6-.719.336l-2.14-1.778c-.464-.386-1.089.334-.61.733l3.634 3.02c.17.14.44.14.61 0l3.633-3.02c.566-.47-.222-1.056-.61-.733l-2.14 1.778c-.389.307-.71.073-.719-.337V.877h-.939v2.577a.439.439 0 0 1-.877 0V.439c0-.243.196-.439.439-.439H9.56c.242 0 .439.196.439.439v8.92l1.42-1.18c.685-.468 1.32-.41 1.907.175.477.575.398 1.43-.176 1.907l-2.94 2.444h4.8c.242 0 .438.196.438.438v1.817a.439.439 0 0 1-.438.438h-1.378v.948s2.03-.015 2.286-.015c3.322 0 6.234 2.498 6.729 5.784a.439.439 0 0 1-.867.131c-.433-2.872-2.953-5.038-5.862-5.038a5.935 5.935 0 0 0-5.928 5.928 5.935 5.935 0 0 0 5.928 5.928c2.91 0 5.43-2.165 5.862-5.037a.438.438 0 0 1 .499-.369zM2.734 14.521h11.838v-.94H2.734zm-1.817 1.82h11.839v-.939H.917zm0 3.638h8.975c.173-.33.373-.644.596-.94h-4.02a.439.439 0 0 1 0-.876h4.811c.386-.36.814-.677 1.275-.94h-9.82v.94h1.822a.439.439 0 0 1 0 .877H.917zm1.817.877v.94h6.513c.064-.322.152-.636.26-.94zM.917 23.615h8.214a6.702 6.702 0 0 1-.001-.94H.917zm1.817 1.816h6.778a6.745 6.745 0 0 1-.263-.94H2.734zM.917 27.247H10.5a6.823 6.823 0 0 1-.6-.939H.917zM12.59 29.07a6.842 6.842 0 0 1-1.288-.94H2.734v.94z"/></g></g></svg>