<svg xmlns="http://www.w3.org/2000/svg" width="24" height="24" viewBox="0 0 24 24"><g><g><g><path fill="#18c83e" d="M9.2 5.2h5.6V6H9.2zm6.4 0h.8V6h-.8zm-8 0h.8V6h-.8zm9.764 15.636a.395.395 0 0 1 .236.364v2.4a.4.4 0 0 1-.4.4H6.8a.4.4 0 0 1-.4-.4v-2.4a.395.395 0 0 1 .236-.364l.964-.428V14a3.602 3.602 0 0 1 3.6-3.6h1.6a3.606 3.606 0 0 1 3.6 3.6v6.408zM8.4 20.052l1.836-.816a.38.38 0 0 1 .288-.012l.128-.772A2.8 2.8 0 0 1 9.2 16v-2.4a.406.406 0 0 1 .312-.392l3.6-.8a.396.396 0 0 1 .308.06l1.2.8a.4.4 0 0 1 .18.332V16a2.8 2.8 0 0 1-1.452 2.452l.128.772a.38.38 0 0 1 .288.012l1.836.816V14a2.803 2.803 0 0 0-2.8-2.8h-1.6a2.784 2.784 0 0 0-2.504 1.552A2.731 2.731 0 0 0 8.4 14zM12 18a2 2 0 0 0 2-2v-2.184l-.88-.588-3.12.692V16a2 2 0 0 0 2 2zm.584.736a2.696 2.696 0 0 1-1.168 0l-.188 1.128.772.772.772-.772zM16.8 21.46l-3.112-1.384-1.404 1.408a.403.403 0 0 1-.568 0l-1.404-1.408L7.2 21.46v1.74h9.6zm-6-6.66h.8v.8h-.8zm1.6 0h.8v.8h-.8zM4.4 4h.8v.8h-.8zM2.8 4h.8v.8h-.8zM8 2.8v.4a.413.413 0 0 1-.116.284L6.8 4.564V5.6a2.804 2.804 0 0 1-1.2 2.296V9l1.44 1.08a.41.41 0 0 1 .152.408l-.8 3.6A.406.406 0 0 1 6 14.4H2a.406.406 0 0 1-.392-.312l-.8-3.6a.41.41 0 0 1 .152-.408L2.4 9V7.896A2.804 2.804 0 0 1 1.2 5.6V4.564L.116 3.484A.413.413 0 0 1 0 3.2v-.4A2.803 2.803 0 0 1 2.8 0h2.4A2.803 2.803 0 0 1 8 2.8zM4.96 9.52a.406.406 0 0 1-.16-.32v-.916a2.817 2.817 0 0 1-1.6 0V9.2c0 .126-.06.244-.16.32l-1.392 1.044.672 3.036h3.36l.672-3.036zM6 3.512l-2.752-.688L2 3.448V5.6a2 2 0 1 0 4 0zM7.2 2.8a2 2 0 0 0-2-2H2.8a2 2 0 0 0-2 2v.236l.4.4V3.2a.39.39 0 0 1 .22-.356l1.6-.8a.391.391 0 0 1 .276-.032l3.2.8A.4.4 0 0 1 6.8 3.2v.236l.4-.4zm14-2.8A2.803 2.803 0 0 1 24 2.8v.8a1.204 1.204 0 0 1-1.2 1.2v.8a2.804 2.804 0 0 1-1.2 2.296V9l1.44 1.08a.41.41 0 0 1 .152.408l-.8 3.6A.406.406 0 0 1 22 14.4h-4a.406.406 0 0 1-.392-.312l-.8-3.6a.41.41 0 0 1 .152-.408L18.4 9V7.896A2.804 2.804 0 0 1 17.2 5.6V4.288A2.792 2.792 0 0 1 16 2V.4c0-.22.18-.4.4-.4zm-.24 9.52a.406.406 0 0 1-.16-.32v-.916a2.817 2.817 0 0 1-1.6 0V9.2c0 .126-.06.244-.16.32l-1.392 1.044.672 3.036h3.36l.672-3.036zM22 3.512l-2.752-.688L18 3.448V5.6a2 2 0 1 0 4 0zm1.2-.712a2 2 0 0 0-2-2h-4.4V2c0 .431.14.851.4 1.196a.396.396 0 0 1 .22-.352l1.6-.8a.391.391 0 0 1 .276-.032l3.2.8a.4.4 0 0 1 .304.388V4a.4.4 0 0 0 .4-.4zM20.4 4h.8v.8h-.8zm-1.6 0h.8v.8h-.8zm.8 11.2h.8v.8h-.8zm0 1.6h.8v4.8a.4.4 0 0 1-.4.4h-1.6v-.8h1.2zm-16-1.6h.8v.8h-.8zm.8 6h1.2v.8H4a.4.4 0 0 1-.4-.4v-4.8h.8z"/></g></g></g></svg>