<svg xmlns="http://www.w3.org/2000/svg" width="24" height="20" viewBox="0 0 24 20"><g><g><g><path fill="#1cc9c4" d="M17.614 14.252v-3.226H15.61v5.984h2.004v-1.352a.352.352 0 1 1 .703 0v1.446a.61.61 0 0 1-.61.609h-2.19a.61.61 0 0 1-.61-.61v-6.171a.61.61 0 0 1 .61-.61h2.19a.61.61 0 0 1 .61.61v3.32a.352.352 0 1 1-.703 0zm6.386-1v.67c0 .464-.34.85-.784.924.022.079.035.162.035.248v.67a.932.932 0 0 1-.207.586c.129.16.207.364.207.586v.67c0 .517-.421.937-.938.937h-2.166v.589c0 .403-.328.73-.73.73H4.583a.731.731 0 0 1-.73-.73v-.589h-.948a.352.352 0 1 1 0-.703h.948v-1.139H.937a.235.235 0 0 0-.234.235v.67c0 .13.105.234.234.234H1.5a.352.352 0 1 1 0 .703H.937A.939.939 0 0 1 0 17.606v-.67c0-.222.078-.425.207-.586A.933.933 0 0 1 0 15.764v-.67c0-.465.34-.85.784-.924a.934.934 0 0 1-.035-.248v-.67c0-.086.013-.17.035-.248A.938.938 0 0 1 0 12.08v-.67c0-.465.34-.85.784-.924a.934.934 0 0 1-.035-.248v-.67c0-.517.421-.938.938-.938h2.166V.75c0-.402.328-.73.73-.73h3.652a.352.352 0 1 1 0 .703H4.583a.027.027 0 0 0-.027.028v18.38c0 .016.012.028.027.028h14.834a.027.027 0 0 0 .027-.027V.75a.027.027 0 0 0-.027-.027H9.64a.352.352 0 1 1 0-.703h9.776c.402 0 .73.328.73.73v6.038h2.166c.517 0 .938.42.938.938v.67a.938.938 0 0 1-.696.905c.026.084.04.174.04.267v.67a.933.933 0 0 1-.04.267c.4.107.696.472.696.905v.67a.932.932 0 0 1-.035.248c.444.074.784.46.784.924zm-22.313.904h2.166v-1.139H1.687a.235.235 0 0 0-.234.235v.67c0 .13.105.234.234.234zm-.234-3.918c0 .13.105.234.234.234h2.166V9.333H1.687a.235.235 0 0 0-.234.235zm-.516 2.076h2.916v-1.139H.937a.235.235 0 0 0-.234.235v.67c0 .13.105.234.234.234zm2.916 3.684V14.86H.937a.235.235 0 0 0-.234.235v.67c0 .13.105.234.234.234zm18.694-.904a.235.235 0 0 0-.234-.235h-2.166V16h2.166c.13 0 .234-.106.234-.235zm-.655-5.526a.235.235 0 0 0-.235-.234h-1.51v1.138h1.51c.13 0 .235-.105.235-.234zm-1.745 2.746h2.166c.13 0 .234-.105.234-.234v-.67a.235.235 0 0 0-.234-.235h-2.166zm0-4.823v1.14h2.166c.13 0 .234-.106.234-.235v-.67a.235.235 0 0 0-.234-.235zm2.4 9.445a.235.235 0 0 0-.234-.235h-2.166v1.14h2.166c.13 0 .234-.106.234-.235zm.75-3.684a.235.235 0 0 0-.234-.235h-2.916v1.14h2.916c.129 0 .234-.106.234-.235zm-12.393-1.054h2.192a.61.61 0 0 1 .609.609v4.297a.61.61 0 0 1-.61.609h-2.19a.61.61 0 0 1-.61-.61v-4.296a.61.61 0 0 1 .61-.61zm.094 4.812h2.004V12.9h-2.004zm-2.514-3.875a.61.61 0 0 1 .609.61v3.359a.61.61 0 0 1-.61.609h-2.19a.61.61 0 0 1-.61-.61v-3.359a.61.61 0 0 1 .61-.609zm-.094.703H6.386v3.172H8.39zm2.916-7.86c0-.194.157-.351.351-.351h5.504a.352.352 0 1 1 0 .703h-5.504a.352.352 0 0 1-.351-.352zm.351-2.067h5.504a.352.352 0 1 1 0 .703h-5.504a.352.352 0 1 1 0-.703zM13.064 2.9a.352.352 0 1 1 0-.703h4.097a.352.352 0 1 1 0 .703zM7.77 4.202c.577.204.898.738.798 1.329a1.332 1.332 0 0 1-.945 1.054v.204a.352.352 0 1 1-.703 0v-.17c-.26-.027-.472-.103-.76-.292a.352.352 0 0 1 .385-.588.99.99 0 0 0 .375.171V4.62a2.35 2.35 0 0 1-.47-.277c-.274-.215-.4-.587-.327-.972.079-.418.37-.75.76-.868l.037-.01v-.175a.352.352 0 1 1 .703 0v.126c.413.045.72.197.74.206a.352.352 0 0 1-.314.63c-.006-.003-.185-.089-.426-.128v.997l.147.053zm-.844-.386v-.532a.452.452 0 0 0-.111.217c-.025.124.004.237.074.29l.037.025zm.697 1.087v.915a.632.632 0 0 0 .252-.404.462.462 0 0 0-.252-.511z"/></g></g></g></svg>