<svg xmlns="http://www.w3.org/2000/svg" width="30" height="30" viewBox="0 0 30 30"><g><g><g opacity=".5"><path fill="#050447" d="M7.76 21.228a.458.458 0 0 1-.317.774H3.397a.457.457 0 0 1-.318-.774.448.448 0 0 1 .318-.134h4.044c.12 0 .234.049.317.134zm1.474-3.278a.453.453 0 0 1 0 .906H3.398a.453.453 0 0 1 0-.906zm-6.29-2.692c0-.25.204-.453.454-.453H8.34a.453.453 0 1 1 0 .906H3.398a.453.453 0 0 1-.453-.453zm6.744-3.145a.453.453 0 0 1-.454.453H5.867a.448.448 0 0 1-.444-.453.457.457 0 0 1 .444-.453h3.367c.248.004.449.204.454.453zm-.046-3.369a.448.448 0 0 1-.408.678H5.867a.448.448 0 0 1 0-.894h3.367a.448.448 0 0 1 .408.216zm-6.244 3.822a.448.448 0 0 1-.446-.453.457.457 0 0 1 .446-.453h.546a.457.457 0 0 1 .317.772.448.448 0 0 1-.317.134zm-.423-3.59c0-.238.185-.435.423-.448h.546a.448.448 0 0 1 0 .894h-.546a.448.448 0 0 1-.423-.447zm26.2 16.716a.453.453 0 1 1 0 .907h-7.002v2.57a.449.449 0 0 1-.453.453H.446A.447.447 0 0 1 0 29.17V.441A.445.445 0 0 1 .446 0h15.71l.12.027.04.014.13.082 5.594 5.594v.014l.086.12.013.04.028.12v4.37c.103.06.195.137.273.227l2.512-1.292a1.419 1.419 0 0 1-.041-.347 1.678 1.678 0 1 1 .453 1.146l-2.511 1.292c.028.114.043.23.044.347a1.69 1.69 0 0 1-1.686 1.678 1.637 1.637 0 0 1-.72-.173l-3.275 3.785c.187.275.287.6.287.932a1.677 1.677 0 0 1-3.025 1.013l-2.025.787v5.916h1.572v-3.731a.437.437 0 0 1 .446-.44h2.699a.437.437 0 0 1 .446.44v3.731h1.798V15.618a.445.445 0 0 1 .447-.44h2.692a.45.45 0 0 1 .453.44v10.074h1.791v-12.7a.449.449 0 0 1 .453-.452h2.693c.25 0 .453.203.453.453v12.7zM25.87 8.672a.786.786 0 1 0 1.452.602.786.786 0 0 0-1.452-.602zm-5.564 17.025h1.798v-9.622h-1.798zm-5.383-.005h1.793v-3.274h-1.793zm.892-6.93a.78.78 0 0 0 .787-.782.783.783 0 1 0-1.34.555c.147.147.346.23.553.231zm6.177-7.008a.787.787 0 0 0-1.573 0 .793.793 0 0 0 .787.786.793.793 0 0 0 .786-.786zm-5.417-10.22V5.58h4.065zm4.697 25.065h-9.265a.45.45 0 0 1-.456-.453V8.969a.45.45 0 1 1 .9 0v9.848l1.695-.663-.013-.174a1.684 1.684 0 0 1 1.678-1.678c.249.004.494.058.72.16l3.275-3.772a1.654 1.654 0 0 1-.286-.936c0-.932.754-1.688 1.686-1.692l.066.012V6.49H16.13a.449.449 0 0 1-.453-.453V.894H.892V28.73h20.38zm6.217-.907v-12.26h-1.792v12.26z"/></g></g></g></svg>