<svg xmlns="http://www.w3.org/2000/svg" width="20" height="29" viewBox="0 0 20 29"><defs><radialGradient id="bkq8a" cx="1.95" cy="29.09" r="52.25" gradientUnits="userSpaceOnUse"><stop offset="0" stop-color="#9a4ca1"/><stop offset="1" stop-color="#c657d5"/></radialGradient></defs><g><g><g><path fill="url(#bkq8a)" d="M6.732 4.085a.426.426 0 0 1-.3-.73l.971-.96a.426.426 0 1 1 .6.606l-.234.232h.403c.423 0 .767.344.767.766v4.106a.426.426 0 1 1-.853 0v-4.02zM8.611 1.8a.426.426 0 0 1 .003-.603L9.7.123a.426.426 0 0 1 .6 0l3.267 3.233a.426.426 0 0 1-.3.729h-1.354v4.02a.426.426 0 1 1-.853 0V3.999c0-.422.344-.766.767-.766h.403L10 1.026l-.786.777A.426.426 0 0 1 8.61 1.8zm1.388 7.312c5.509 0 9.99 4.481 9.99 9.99 0 5.508-4.481 9.989-9.99 9.989a9.909 9.909 0 0 1-5.939-1.957.426.426 0 0 1 .508-.685 9.063 9.063 0 0 0 5.431 1.79c5.039 0 9.138-4.1 9.138-9.138s-4.1-9.137-9.138-9.137-9.137 4.1-9.137 9.137c0 2.338.883 4.563 2.486 6.265a.426.426 0 0 1-.62.584A9.95 9.95 0 0 1 .01 19.101c0-5.508 4.481-9.99 9.99-9.99zm3.458-2.378a.426.426 0 0 1 .067-.599l1.227-.98a.426.426 0 0 1 .532 0l1.227.98a.426.426 0 1 1-.532.666l-.535-.427v2.71a.426.426 0 1 1-.852 0v-2.71l-.535.427a.426.426 0 0 1-.599-.067zm-9.436.067a.426.426 0 0 1-.532-.666l1.227-.98a.426.426 0 0 1 .532 0l1.227.98a.426.426 0 1 1-.532.666l-.535-.427v2.71a.426.426 0 1 1-.852 0v-2.71zm4.027 15.358a.426.426 0 1 1 .467-.713c.408.267.653.35 1.018.374v-2.736c-.407-.18-.702-.35-.939-.535-.437-.344-.636-.943-.519-1.566.129-.683.603-1.227 1.238-1.418.074-.022.147-.04.22-.056v-.487a.426.426 0 1 1 .852 0v.436c.764.067 1.31.404 1.342.424a.426.426 0 0 1-.453.722 2.44 2.44 0 0 0-.889-.288v2.196c.139.053.278.103.413.151.965.341 1.482 1.2 1.316 2.186-.13.774-.72 1.602-1.729 1.79v.542a.426.426 0 1 1-.852 0v-.508c-.513-.027-.906-.136-1.485-.514zm1.072-4.281c.116.09.257.177.413.26V16.39c-.376.126-.567.468-.62.75-.058.31.021.592.207.738zm1.394 1.589l-.129-.046v2.339c.514-.17.816-.624.888-1.052.036-.215.089-.942-.759-1.241zM2.529 19.1c0-4.119 3.351-7.47 7.47-7.47 4.12 0 7.471 3.351 7.471 7.47 0 4.12-3.351 7.471-7.47 7.471-4.12 0-7.471-3.351-7.471-7.47zm.852 0a6.626 6.626 0 0 0 6.618 6.619 6.626 6.626 0 0 0 6.619-6.619 6.626 6.626 0 0 0-6.619-6.618 6.626 6.626 0 0 0-6.618 6.618z"/></g></g></g></svg>