<svg xmlns="http://www.w3.org/2000/svg" width="12" height="12" viewBox="0 0 12 12"><g><g opacity=".5"><g opacity=".5"><path fill="#fff" d="M7.875 4.887c0 .872-.598 1.607-1.406 1.815v.763a.469.469 0 1 1-.938 0V6.293c0-.259.21-.469.469-.469A.939.939 0 0 0 6 3.95a.939.939 0 0 0-.938.938.469.469 0 1 1-.937 0c0-1.034.841-1.875 1.875-1.875s1.875.84 1.875 1.875zM12 6c0 3.316-2.684 6-6 6S0 9.316 0 6s2.684-6 6-6 6 2.684 6 6zm-.938 0A5.06 5.06 0 0 0 6 .937 5.06 5.06 0 0 0 .937 6 5.06 5.06 0 0 0 6 11.063 5.06 5.06 0 0 0 11.063 6zM5.415 8.871a.586.586 0 1 1 1.172 0 .586.586 0 0 1-1.172 0z"/></g></g></g></svg>