<svg xmlns="http://www.w3.org/2000/svg" width="16" height="16" viewBox="0 0 16 16"><g><g opacity=".5"><g opacity=".5"><path fill="#b7b7b7" d="M10.5 6.516a2.504 2.504 0 0 1-1.875 2.42v1.017a.625.625 0 1 1-1.25 0V8.391c0-.346.28-.625.625-.625.69 0 1.25-.561 1.25-1.25 0-.69-.56-1.25-1.25-1.25s-1.25.56-1.25 1.25a.625.625 0 1 1-1.25 0c0-1.379 1.121-2.5 2.5-2.5s2.5 1.121 2.5 2.5zM16 8c0 4.422-3.579 8-8 8-4.422 0-8-3.579-8-8 0-4.422 3.579-8 8-8 4.422 0 8 3.579 8 8zm-1.25 0c0-3.731-3.02-6.75-6.75-6.75A6.746 6.746 0 0 0 1.25 8c0 3.731 3.02 6.75 6.75 6.75 3.731 0 6.75-3.02 6.75-6.75zm-7.531 3.828a.781.781 0 1 1 1.562 0 .781.781 0 0 1-1.562 0z"/></g></g></g></svg>