<svg xmlns="http://www.w3.org/2000/svg" width="26" height="34" viewBox="0 0 26 34"><g><g><path fill="#ff3838" d="M15.455 20.625c-.001.669-.27 1.309-.747 1.778l.74 4.13a.525.525 0 0 1-.11.423c-.099.11-.24.175-.388.179h-4.025a.508.508 0 0 1-.492-.596l.74-4.13a2.493 2.493 0 0 1-.749-1.777 2.525 2.525 0 0 1 2.518-2.524 2.524 2.524 0 0 1 2.513 2.517zm-1.603 1.203a1.51 1.51 0 1 0-2.42-1.196c.004.468.221.908.59 1.196a.47.47 0 0 1 .187.474l-.679 3.823h2.824l-.689-3.823a.506.506 0 0 1 .187-.474zm12.032-6.393v4.675a13.459 13.459 0 0 1-3.997 9.5 12.71 12.71 0 0 1-8.953 3.733h-.171C5.696 33.213.026 27.462 0 20.393v-4.958a2.02 2.02 0 0 1 2.008-2.016h.168v-2.525a10.766 10.766 0 1 1 21.53 0v2.525h.16a2.022 2.022 0 0 1 2.018 2.016zM3.18 13.419h2.277v-2.525a7.483 7.483 0 0 1 14.966 0v2.525h2.27v-2.525a9.758 9.758 0 0 0-19.513 0zm16.235 0v-2.525a6.476 6.476 0 1 0-12.95 0v2.525zm5.46 2.016a1.003 1.003 0 0 0-1.01-1H2.008a1 1 0 0 0-1.008 1v4.963c.026 6.518 5.26 11.82 11.777 11.929a11.56 11.56 0 0 0 8.402-3.435 12.399 12.399 0 0 0 3.697-8.782z"/></g></g></svg>