<svg xmlns="http://www.w3.org/2000/svg" width="20" height="22" viewBox="0 0 20 22"><g><g><g><path fill="#fedb41" d="M4.692 11.387a.328.328 0 0 1-.332-.323v-3.9a.33.33 0 0 1 .659 0v3.9a.326.326 0 0 1-.327.323zM2.634 2a2 2 0 1 1 4 0 2 2 0 0 1-4 0zm2-1.336A1.341 1.341 0 0 0 3.291 2 1.338 1.338 0 1 0 4.634.66zm9.419 9.746a1.068 1.068 0 0 0-.835-.986v2.031c.87.049 1.537.79 1.494 1.66a1.738 1.738 0 0 1-1.494 1.66v.44a.328.328 0 1 1-.655 0v-.44a1.738 1.738 0 0 1-1.494-1.66.33.33 0 0 1 .659 0c.018.48.364.885.835.977V12.07a1.585 1.585 0 0 1-1.494-1.66 1.731 1.731 0 0 1 1.494-1.66v-.439a.328.328 0 1 1 .655 0v.439a1.731 1.731 0 0 1 1.494 1.66.33.33 0 1 1-.659 0zm-1.49-.986c-.47.102-.811.506-.835.986a.915.915 0 0 0 .835 1zm1.49 3.691a.92.92 0 0 0-.835-.996v1.977a1.04 1.04 0 0 0 .835-.977zm4.101-1.357a5.264 5.264 0 1 1-10.528 0 5.264 5.264 0 0 1 10.528 0zm-5.263 4.609a4.613 4.613 0 0 0 4.6-4.609 4.6 4.6 0 1 0-4.6 4.609zm6.747-6.077A6.905 6.905 0 0 1 7.365 15.9v4.286a1.535 1.535 0 0 1-1.528 1.533 1.52 1.52 0 0 1-1.2-.586c-.287.371-.73.588-1.2.586a1.535 1.535 0 0 1-1.528-1.533V13.76a1.241 1.241 0 0 1-.625.176A1.287 1.287 0 0 1 0 12.646V7.08a2.24 2.24 0 0 1 2.236-2.226H7.1a2.221 2.221 0 0 1 1.953 1.171 6.825 6.825 0 0 1 3.838-1.171 6.905 6.905 0 0 1 6.747 5.436zM2.568 7.422v5.127H6.03a6.813 6.813 0 0 1 .733-3.965V7.422A.329.329 0 0 1 7.1 7.09a.329.329 0 0 1 .327.332v.127a7.2 7.2 0 0 1 1.089-1.133A1.57 1.57 0 0 0 7.1 5.508H5.019V5.9a.33.33 0 1 1-.659 0v-.392H2.236A1.582 1.582 0 0 0 .659 7.08v5.566a.625.625 0 1 0 1.25 0V7.422a.328.328 0 0 1 .327-.332c.183 0 .332.149.332.332zm4.146 7.409a6.806 6.806 0 0 1-.576-1.631h-3.57v6.986a.872.872 0 1 0 1.743 0v-5.713a.327.327 0 0 1 .328-.323c.18 0 .328.143.332.323v5.717a.872.872 0 1 0 1.743 0zm6.177 3.177a6.255 6.255 0 0 0 6.25-6.246 6.25 6.25 0 1 0-6.25 6.25z"/></g></g></g></svg>