<svg xmlns="http://www.w3.org/2000/svg" width="26" height="18" viewBox="0 0 26 18"><g><g opacity=".7"><path fill="#fff" d="M3.81 7.773a1.263 1.263 0 0 1-.37-.893v-.816c0-.7.564-1.27 1.265-1.275h.823a1.274 1.274 0 0 1 1.267 1.275v.816a1.263 1.263 0 0 1-1.267 1.263h-.823c-.335 0-.657-.133-.894-.37zm.405-.893a.49.49 0 0 0 .49.494h.823a.49.49 0 0 0 .488-.494v-.816a.49.49 0 0 0-.488-.494h-.823a.49.49 0 0 0-.49.494zm10.233 0v-.816c-.001-.7.563-1.27 1.264-1.275h.823c.7.006 1.264.575 1.263 1.275v.816a1.263 1.263 0 0 1-1.267 1.263h-.823a1.263 1.263 0 0 1-1.26-1.263zm.772 0a.488.488 0 0 0 .488.494h.823a.488.488 0 0 0 .488-.494v-.816a.49.49 0 0 0-.488-.494h-.823a.49.49 0 0 0-.488.494zm-3.504.942c0-.647-.367-.965-1.096-.965a1.675 1.675 0 0 1-1.873-1.735c.027-.849.65-1.56 1.488-1.7v-.39a.385.385 0 0 1 .77 0v.39c.838.14 1.461.851 1.487 1.7a.388.388 0 1 1-.776 0 1.042 1.042 0 0 0-1.096-.964 1.042 1.042 0 0 0-1.093.964c0 .632.364.965 1.093.965a1.675 1.675 0 0 1 1.872 1.735 1.788 1.788 0 0 1-1.49 1.705v.385a.385.385 0 1 1-.77 0v-.385a1.788 1.788 0 0 1-1.48-1.705.388.388 0 1 1 .775 0c.042.565.527.993 1.093.964a1.042 1.042 0 0 0 1.096-.964zM.862 12.944A.865.865 0 0 1 0 12.083V.861A.865.865 0 0 1 .862 0h19.516c.474.001.86.386.86.861v11.222a.863.863 0 0 1-.86.861zM3.538 11.9l.006.057.034.206h14.128l.03-.206.01-.046.076-.288.022-.068.075-.207.04-.092.08-.173.058-.092.092-.16.055-.097.118-.148.057-.077.177-.183.011-.024.212-.195.076-.054.15-.118.092-.07.153-.09.1-.058.16-.08.103-.046.185-.064.085-.028.282-.081.051-.008.21-.038v-5.8l-.21-.033-.051-.01-.282-.072-.085-.034-.185-.072-.102-.058-.158-.06-.103-.057-.153-.098-.093-.066-.15-.117-.075-.058-.222-.195V2.63l-.178-.195-.057-.083-.116-.143-.057-.092-.092-.165-.058-.091-.08-.173-.04-.092-.075-.207-.022-.068-.076-.287-.01-.058-.03-.195H3.578l-.034.206-.006.057-.074.287-.03.08-.074.197-.04.103-.08.16-.057.104-.093.15-.06.09-.118.162-.057.07a3.46 3.46 0 0 1-.407.412l-.076.058-.155.115-.092.058-.16.102-.093.047-.171.08-.098.046-.201.07-.075.034-.287.068-.04.012-.224.035V9.36L1 9.395l.04.015.287.065.075.024.201.08.098.046.171.08.092.047.161.103.092.057.155.115.076.058c.147.126.283.264.407.413l.057.069.116.161.062.08.093.161.056.104.081.16.04.103.074.19.03.087zm16.84.263a.085.085 0 0 0 .091-.08l-.012-1.93-.022.012a2.87 2.87 0 0 0-.322.08l-.052.02-.275.118-.046.023-.276.173-.057.046c-.09.065-.174.138-.253.217v.012l-.217.241-.036.058-.167.275-.033.057-.11.277-.024.046c-.033.11-.06.22-.08.333v.022zM20.383.781h-1.89v.034l.08.321.01.046.118.276.033.058.167.275.036.058c.07.084.144.165.223.241v.012l.247.217.057.033c.088.068.18.13.276.186l.046.02.275.118.052.03c.104.035.212.06.322.073l.03.012V.861a.085.085 0 0 0-.082-.08zM.802.802a.08.08 0 0 0-.026.059v1.94l.034-.01.327-.086h.046l.287-.133.047-.022c.101-.045.196-.103.281-.173l.058-.046c.18-.134.34-.293.476-.47l.04-.058.178-.274.024-.059.12-.288.017-.046.081-.32V.78H.862a.08.08 0 0 0-.06.021zm0 11.34a.08.08 0 0 0 .06.021h1.93v-.034l-.08-.321-.019-.058-.12-.276-.023-.057-.178-.276-.04-.058a2.175 2.175 0 0 0-.476-.47l-.058-.046a1.268 1.268 0 0 0-.28-.172l-.048-.023-.287-.127-.046-.012a1.748 1.748 0 0 0-.327-.08l-.034-.01v1.94c0 .022.01.044.026.059zm22.203 2.95H2.54a.39.39 0 1 1 0-.78h20.078V2.538a.393.393 0 0 1 .385-.39.398.398 0 0 1 .39.39v12.164a.39.39 0 0 1-.387.39zm2.422-10.669a.386.386 0 0 1 .11.275v12.147a.386.386 0 0 1-.384.39H4.687a.385.385 0 1 1 0-.768h20.078V4.697a.387.387 0 0 1 .662-.274z"/></g></g></svg>