<svg xmlns="http://www.w3.org/2000/svg" width="14" height="14" viewBox="0 0 14 14"><g><g><path fill="#fedb41" d="M13.967 4.135a.437.437 0 0 1-.405.27h-2.187v4.813a3.942 3.942 0 0 1-3.938 3.937.439.439 0 0 1-.342-.71l.983-1.229a3.07 3.07 0 0 0 .672-1.913V4.405H6.562a.439.439 0 0 1-.308-.747l3.5-3.5c.17-.17.448-.17.618 0l3.5 3.5a.44.44 0 0 1 .095.477zm-1.46-.605l-2.445-2.444L7.62 3.53h1.568c.242 0 .438.196.438.437v5.336c0 .89-.307 1.764-.863 2.46l-.262.328a3.068 3.068 0 0 0 2-2.873v-5.25c0-.242.196-.438.437-.438zM7.874 9.216a3.943 3.943 0 0 1-3.938 3.94A3.943 3.943 0 0 1 0 9.215a3.943 3.943 0 0 1 3.938-3.94 3.943 3.943 0 0 1 3.937 3.94zm-.875 0A3.067 3.067 0 0 0 3.937 6.15 3.067 3.067 0 0 0 .876 9.216a3.067 3.067 0 0 0 3.063 3.065A3.067 3.067 0 0 0 7 9.216zm-1.75.657c0 .475-.367.877-.875 1.027v.506a.438.438 0 1 1-.875 0v-.499c-.14-.04-.273-.1-.392-.18A.439.439 0 0 1 3.594 10c.092.06.21.093.344.093.267 0 .437-.144.437-.22 0-.075-.17-.218-.438-.218-.723 0-1.312-.492-1.312-1.095 0-.476.367-.877.875-1.028v-.505a.438.438 0 1 1 .875 0v.498c.14.04.273.1.392.18a.439.439 0 0 1-.486.729.619.619 0 0 0-.343-.093c-.268 0-.438.143-.438.219 0 .075.17.219.438.219.723 0 1.312.491 1.312 1.095z"/></g></g></svg>