<svg xmlns="http://www.w3.org/2000/svg" width="26" height="26" viewBox="0 0 26 26"><g><g opacity=".7"><path fill="#fff" d="M7.099 11.418v2.922a.392.392 0 1 1-.783 0v-2.922a.399.399 0 0 1 .394-.394c.215.005.387.18.389.394zm4.905.313c0 .516.29.754.875.754a1.489 1.489 0 0 1 1.662 1.543 1.575 1.575 0 0 1-1.269 1.495v.28a.388.388 0 1 1-.776 0v-.28a1.57 1.57 0 0 1-1.265-1.494.39.39 0 1 1 .778 0 .883.883 0 0 0 1.75 0c0-.516-.281-.754-.875-.754a1.482 1.482 0 0 1-1.653-1.543 1.572 1.572 0 0 1 1.265-1.496v-.29a.388.388 0 1 1 .776 0v.29c.72.143 1.245.763 1.27 1.496a.383.383 0 0 1-.395.382.38.38 0 0 1-.388-.382.823.823 0 0 0-.875-.754.823.823 0 0 0-.88.753zm-6.57-.313v2.922a.397.397 0 0 1-.38.394h-.832v1.594a.378.378 0 0 1-.243.356l-.145.034a.417.417 0 0 1-.278-.119L.113 13.157a.398.398 0 0 1 0-.556l3.443-3.443a.402.402 0 0 1 .416-.077c.145.058.241.199.243.356v1.587h.831c.215.005.386.18.388.394zm-.774.395h-.83a.394.394 0 0 1-.393-.395v-1.031L.936 12.88l2.501 2.504V14.34c0-.217.175-.393.392-.394h.829zm15.86-.395v2.922a.398.398 0 0 1-.388.394h-2.73a4.883 4.883 0 1 1-6.367-6.376V4.213h-1.59a.402.402 0 0 1-.364-.237.392.392 0 0 1 .083-.429L12.607.104a.414.414 0 0 1 .55 0L16.6 3.547a.393.393 0 0 1 .083.435.408.408 0 0 1-.356.237h-1.593v2.62a.392.392 0 1 1-.784 0V3.825a.39.39 0 0 1 .388-.394h1.04L12.883.938l-2.5 2.493h1.044a.39.39 0 0 1 .386.394v4.293c.352-.075.71-.115 1.069-.119a4.908 4.908 0 0 1 4.511 3.025h2.73a.398.398 0 0 1 .396.394zm-7.636 5.566a4.104 4.104 0 1 0-3.797-2.53 4.104 4.104 0 0 0 3.796 2.53zm6.845-5.175h-2.085a4.758 4.758 0 0 1 0 2.137h2.084zm5.93.784a.393.393 0 0 1 0 .555l-3.442 3.443a.417.417 0 0 1-.278.119l-.145-.035a.378.378 0 0 1-.237-.356V9.433c0-.155.094-.295.237-.356a.402.402 0 0 1 .424.082l3.443 3.443zm-.83.287l-2.492-2.493v4.997zm-8.499 8.672a.383.383 0 0 1 .274.66l-3.443 3.444a.356.356 0 0 1-.272.118.385.385 0 0 1-.278-.118l-3.443-3.443a.383.383 0 0 1 .278-.66h1.59v-2.401a.375.375 0 0 1 .225-.348.381.381 0 0 1 .41.046l1.213.975 1.21-.975a.392.392 0 0 1 .419-.046.38.38 0 0 1 .22.348v2.4zm-.948.777h-1.044a.39.39 0 0 1-.388-.394v-1.96l-.823.661a.383.383 0 0 1-.486 0l-.824-.661v1.96a.39.39 0 0 1-.389.394h-1.043l2.499 2.493z"/></g></g></svg>