<svg xmlns="http://www.w3.org/2000/svg" width="18" height="18" viewBox="0 0 18 18"><g><g><path fill="#8491b4" d="M14.645 4.012a8.33 8.33 0 0 1 1.409 4.523 8.287 8.287 0 0 1-.638 3.323 8.388 8.388 0 0 1-1.826 2.72 8.389 8.389 0 0 1-2.722 1.821 8.27 8.27 0 0 1-3.324.634 8.336 8.336 0 0 1-4.517-1.41A8.377 8.377 0 0 1 .46 12.901c.749.19 1.522.286 2.308.286 2.52 0 4.89-.982 6.672-2.764a9.373 9.373 0 0 0 2.763-6.671c0-.788-.096-1.562-.286-2.312a8.389 8.389 0 0 1 2.728 2.572zM10.817.18a.672.672 0 0 0-.174.724c.33.906.499 1.864.499 2.847a8.32 8.32 0 0 1-2.452 5.92 8.318 8.318 0 0 1-5.922 2.454c-.98 0-1.937-.168-2.843-.5a.672.672 0 0 0-.845.91 9.431 9.431 0 0 0 8.447 5.558 9.325 9.325 0 0 0 3.748-.715 9.445 9.445 0 0 0 3.064-2.05 9.447 9.447 0 0 0 2.056-3.062 9.317 9.317 0 0 0 .72-3.747 9.388 9.388 0 0 0-1.589-5.099A9.44 9.44 0 0 0 11.552.06a.672.672 0 0 0-.735.12z"/></g></g></svg>