<svg xmlns="http://www.w3.org/2000/svg" width="34" height="26" viewBox="0 0 34 26"><g><g><path fill="#3698e4" d="M24.688 23.976l-2.504-2.498a.493.493 0 0 0-.808.135 8.395 8.395 0 0 1-1.196 1.899 1.683 1.683 0 0 1-2.874-1.198c.003-.443.182-.867.5-1.176a8.383 8.383 0 0 1 1.897-1.198.508.508 0 0 0 .275-.374.483.483 0 0 0-.14-.433l-2.497-2.498 2.01-2.023a7.086 7.086 0 0 0 1.071 1.54 2.673 2.673 0 0 0 3.798 0 2.69 2.69 0 0 0 0-3.799 7.47 7.47 0 0 0-1.557-1.061l2.025-2.02 2.495 2.497c.112.123.278.18.442.154a.51.51 0 0 0 .366-.28 8.395 8.395 0 0 1 1.195-1.9 1.735 1.735 0 0 1 2.377 0 1.685 1.685 0 0 1 0 2.379 7.928 7.928 0 0 1-1.898 1.196.528.528 0 0 0-.277.374.487.487 0 0 0 .143.433l2.494 2.513zm-16.132-.01L6.06 21.468a.548.548 0 0 0-.44-.153.51.51 0 0 0-.367.285 8.444 8.444 0 0 1-1.195 1.898 1.684 1.684 0 0 1-2.87-1.196c0-.442.179-.865.496-1.172a8.384 8.384 0 0 1 1.898-1.197.507.507 0 0 0 .277-.373.525.525 0 0 0-.142-.434l-2.492-2.5 2.004-2.018a7.081 7.081 0 0 0 1.07 1.54 2.685 2.685 0 1 0 3.795-3.797 7.78 7.78 0 0 0-1.547-1.06l2.01-2.02 2.212 2.217.291.283c.112.122.278.18.441.153a.507.507 0 0 0 .366-.283 8.173 8.173 0 0 1 1.197-1.906 1.703 1.703 0 0 1 2.375 0c.655.657.655 1.72 0 2.377a7.928 7.928 0 0 1-1.898 1.195.527.527 0 0 0-.275.374.47.47 0 0 0 .14.433l2.497 2.512zm3.22-17.913a.485.485 0 0 0 .142-.433.542.542 0 0 0-.28-.375A8.389 8.389 0 0 1 9.743 4.05a1.66 1.66 0 0 1-.493-1.18c.003-.448.18-.877.493-1.197a1.736 1.736 0 0 1 2.377 0c.486.58.89 1.224 1.202 1.913.076.14.21.239.367.27a.476.476 0 0 0 .433-.149l2.496-2.496 7.347 7.346-2.392 2.383-.104.12a.497.497 0 0 0-.143.433c.03.161.132.3.277.375a8.389 8.389 0 0 1 1.898 1.195c.655.657.655 1.72 0 2.377a1.72 1.72 0 0 1-2.377 0 8.46 8.46 0 0 1-1.195-1.9.508.508 0 0 0-.366-.282h-.083a.473.473 0 0 0-.358.153l-.232.214-2.272 2.271-2.01-1.995a8.348 8.348 0 0 0 1.547-1.072 2.685 2.685 0 1 0-3.796-3.796 7.32 7.32 0 0 0-1.069 1.53L9.28 8.55zm21.33 10.22l-2.364-2.364a8.32 8.32 0 0 0 1.541-1.072 2.686 2.686 0 1 0-3.797-3.798 7.324 7.324 0 0 0-1.072 1.531l-2.37-2.36L16.982.156a.504.504 0 0 0-.71 0l-2.37 2.355a7.623 7.623 0 0 0-1.063-1.54 2.643 2.643 0 0 0-1.907-.792A2.613 2.613 0 0 0 9.036.97a2.671 2.671 0 0 0 0 3.8c.467.418.987.775 1.545 1.06l-2.37 2.38-2.85 2.855a.469.469 0 0 0-.154.434.508.508 0 0 0 .282.375 8.394 8.394 0 0 1 1.9 1.196 1.685 1.685 0 0 1-2.38 2.379 8.2 8.2 0 0 1-1.195-1.9.508.508 0 0 0-.367-.284.53.53 0 0 0-.442.153L.153 16.272a.49.49 0 0 0-.153.359.46.46 0 0 0 .153.344l2.371 2.377a7.733 7.733 0 0 0-1.548 1.063c-.51.5-.796 1.185-.792 1.899a2.68 2.68 0 0 0 2.692 2.692 2.659 2.659 0 0 0 1.9-.778 7.9 7.9 0 0 0 1.071-1.556l2.371 2.364c.09.1.217.155.35.153a.475.475 0 0 0 .36-.153l7.703-7.702 2.018 2.018a7.949 7.949 0 0 0-1.546 1.063 2.67 2.67 0 0 0-.794 1.899c0 .718.286 1.407.794 1.914a2.706 2.706 0 0 0 3.798 0 7.9 7.9 0 0 0 1.072-1.556l2.37 2.364c.093.1.224.156.36.153a.46.46 0 0 0 .351-.153l8.062-8.06a.46.46 0 0 0 .153-.345.49.49 0 0 0-.163-.359z"/></g></g></svg>