<svg xmlns="http://www.w3.org/2000/svg" width="14" height="14" viewBox="0 0 14 14"><g><g><g><path fill="#fedb41" d="M7.002 0a.291.291 0 0 0-.183.52l1.459 1.166a.292.292 0 0 0 .364-.456L7.914.648c3.107.444 5.504 3.124 5.504 6.352 0 2.89-1.95 5.434-4.742 6.188a.291.291 0 1 0 .152.563A7.007 7.007 0 0 0 14.002 7c0-3.86-3.14-7-7-7z"/></g><g><path fill="#fedb41" d="M7.182 13.481l-1.458-1.166a.292.292 0 0 0-.365.456l.729.582C2.98 12.91.583 10.23.583 7.001c0-2.89 1.95-5.434 4.743-6.188A.291.291 0 1 0 5.174.25 7.007 7.007 0 0 0 0 7c0 3.861 3.14 7 7 7a.291.291 0 0 0 .182-.519z"/></g></g></g></svg>