<svg xmlns="http://www.w3.org/2000/svg" width="30" height="30" viewBox="0 0 30 30"><g><g><g opacity=".5"><path fill="#050447" d="M25.928 8.365c0 .48-.258.924-.676 1.16v4.439a1.356 1.356 0 0 1-.676 2.53h-1.809a1.356 1.356 0 0 1-.676-2.53V9.53a1.33 1.33 0 0 1-.676-1.165 1.362 1.362 0 0 1 1.35-1.357h1.811c.747.005 1.35.61 1.352 1.357zm-1.242 6.33a.448.448 0 0 1-.342-.433V9.231a.436.436 0 0 1 .342-.428.468.468 0 0 0 .338-.438.45.45 0 0 0-.448-.46h-1.81a.45.45 0 0 0-.447.46c.004.203.14.38.334.438.2.044.343.223.342.428v5.031a.448.448 0 0 1-.343.438.448.448 0 0 0 .114.883h1.814a.448.448 0 0 0 .114-.883zm-5.3-5.17v4.439a1.356 1.356 0 0 1-.677 2.53h-1.808a1.356 1.356 0 0 1-.676-2.53V9.53a1.33 1.33 0 0 1-.676-1.165 1.362 1.362 0 0 1 1.352-1.357h1.808c.747.005 1.35.61 1.354 1.357 0 .48-.259.924-.676 1.16zm-.563 5.17a.45.45 0 0 1-.342-.433V9.235c0-.205.142-.383.342-.428a.466.466 0 0 0 .208-.766.45.45 0 0 0-.322-.135h-1.808a.45.45 0 0 0-.444.46c.003.202.137.378.33.437.201.044.343.223.342.428v5.031a.45.45 0 0 1-.334.438.448.448 0 0 0 .106.883h1.814a.448.448 0 0 0 .113-.883zm-5.303-5.17v4.434a1.356 1.356 0 0 1-.677 2.53h-1.807a1.356 1.356 0 0 1-.676-2.53V9.526a1.332 1.332 0 0 1-.678-1.16 1.363 1.363 0 0 1 1.354-1.358h1.807c.747.005 1.35.61 1.353 1.357 0 .48-.258.924-.676 1.16zm-.563 5.17a.45.45 0 0 1-.34-.433V9.231c0-.205.14-.383.34-.428a.465.465 0 0 0 .335-.438.45.45 0 0 0-.449-.46h-1.807a.45.45 0 0 0-.449.46c.004.204.14.38.335.438.2.045.342.223.342.428v5.031a.45.45 0 0 1-.342.438.448.448 0 0 0 .114.883h1.812a.448.448 0 0 0 .113-.883zm-5.303-5.17v4.434a1.356 1.356 0 0 1-.676 2.53h-1.81a1.356 1.356 0 0 1-.675-2.53V9.526a1.33 1.33 0 0 1-.676-1.16 1.362 1.362 0 0 1 1.352-1.358h1.809c.747.005 1.35.61 1.352 1.357 0 .48-.258.924-.676 1.16zm-.562 5.17a.448.448 0 0 1-.342-.433V9.231a.436.436 0 0 1 .342-.428.468.468 0 0 0 .334-.438.45.45 0 0 0-.448-.46h-1.81a.45.45 0 0 0-.448.46c.005.203.14.38.335.438.2.044.343.223.342.428v5.031c0 .208-.14.389-.342.438a.448.448 0 0 0 .114.883h1.813a.448.448 0 0 0 .114-.883zM2.29 5.589a.458.458 0 0 1 .268-.514L14.699.03a.524.524 0 0 1 .348 0l12.14 5.044c.2.086.312.301.268.514a.446.446 0 0 1-.438.362H2.732a.446.446 0 0 1-.442-.362zm2.705-.548h19.752L14.873.942zm20.692 16.593c.251 0 .455.203.455.455a.464.464 0 0 1-.455.455h-.453a.46.46 0 0 1-.455-.455.453.453 0 0 1 .455-.455zm-5.746 0a.453.453 0 0 1 .455.455.46.46 0 0 1-.455.455h-.878a.46.46 0 0 1-.455-.455.453.453 0 0 1 .455-.455zm-12.347 0a.455.455 0 0 1 .459.455.464.464 0 0 1-.455.455H6.72a.46.46 0 0 1-.455-.455.453.453 0 0 1 .455-.455zm3.41.132a.453.453 0 0 1 .132.323.46.46 0 0 1-.455.455h-.885a.46.46 0 0 1-.319-.776.451.451 0 0 1 .32-.134h.884c.12-.001.237.047.322.132zm6.174 0a.453.453 0 0 1 .132.323.46.46 0 0 1-.455.455h-.878a.46.46 0 0 1-.455-.455.453.453 0 0 1 .455-.455h.878c.12-.001.237.047.323.132zm-4.287.778a.46.46 0 0 1-.455-.455.453.453 0 0 1 .455-.455h.878a.453.453 0 0 1 .455.455.46.46 0 0 1-.455.455zm10.138-.91a.453.453 0 0 1 .455.455.46.46 0 0 1-.455.455h-.878a.46.46 0 0 1-.455-.455.453.453 0 0 1 .455-.455zm-18.522 0a.451.451 0 0 1 .455.455.46.46 0 0 1-.455.455h-.449a.464.464 0 0 1-.455-.455c0-.252.204-.455.455-.455zm20.276-1.072a.448.448 0 0 1 0-.896h.451a.448.448 0 1 1 0 .896zm-8.852 0a.448.448 0 0 1 0-.896h.843a.448.448 0 1 1 0 .896zm-2.953 0a.448.448 0 0 1 0-.896h.843a.448.448 0 1 1 0 .896zm-2.954 0a.448.448 0 0 1 0-.896h.845a.448.448 0 1 1 0 .896zm-2.11-.896a.448.448 0 1 1 0 .896h-.843a.448.448 0 1 1 0-.896zm13.923.896a.448.448 0 0 1 0-.896h.844a.448.448 0 1 1 0 .896zm-2.96 0a.448.448 0 0 1 0-.896h.844a.448.448 0 1 1 0 .896zm-13.915-.896a.448.448 0 1 1 0 .896h-.455a.448.448 0 1 1 0-.896zm24.783 6.964v1.348a1.802 1.802 0 0 1-1.808 1.795H1.807A1.802 1.802 0 0 1 0 27.977v-1.348l.014-.068v-.053l2.29-8.625a.462.462 0 0 1 .439-.348h24.263a.464.464 0 0 1 .436.348l2.29 8.625v.053zm-28.707-.456h10.24l.548-2.102a.465.465 0 0 1 .435-.335h5.223c.203.005.378.14.435.335l.557 2.102h10.23l-2.048-7.728H3.088zm16.095-1.526h-4.525l-.402 1.526h5.332zm11.708 2.437H.904v.893a.9.9 0 0 0 .904.898h26.13a.9.9 0 0 0 .903-.898z"/></g></g></g></svg>