<svg xmlns="http://www.w3.org/2000/svg" width="20" height="20" viewBox="0 0 20 20"><g><g><path fill="#fedb41" d="M15.297 9.99a5.313 5.313 0 0 1-5.307 5.307A5.313 5.313 0 0 1 4.683 9.99 5.313 5.313 0 0 1 9.99 4.683a5.313 5.313 0 0 1 5.307 5.307zm-1.364 0A3.948 3.948 0 0 0 9.99 6.047 3.948 3.948 0 0 0 6.047 9.99a3.948 3.948 0 0 0 3.943 3.943 3.948 3.948 0 0 0 3.943-3.943zm3.121 6.1a.682.682 0 1 1-.964.964l-1.37-1.371a.682.682 0 1 1 .964-.964zM2.926 3.89a.682.682 0 1 1 .965-.964l1.37 1.37a.682.682 0 0 1-.964.965zm17.055 6.1a.682.682 0 0 1-.682.682h-1.94a.682.682 0 1 1 0-1.364h1.94c.376 0 .682.306.682.682zm-17.36.682H.68a.682.682 0 0 1 0-1.364h1.94a.682.682 0 0 1 0 1.364zm12.098-5.411a.682.682 0 0 1 0-.965l1.37-1.37a.682.682 0 1 1 .965.964l-1.371 1.37a.68.68 0 0 1-.964 0zM5.26 14.719a.682.682 0 0 1 0 .964l-1.371 1.37a.68.68 0 0 1-.964 0 .682.682 0 0 1 0-.964l1.371-1.37a.682.682 0 0 1 .964 0zM9.307 2.621V.68a.682.682 0 0 1 1.364 0v1.94a.682.682 0 1 1-1.364 0zm1.364 14.739v1.938a.682.682 0 1 1-1.364 0V17.36a.682.682 0 0 1 1.364 0z"/></g></g></svg>