<svg xmlns="http://www.w3.org/2000/svg" width="56" height="56" viewBox="0 0 56 56"><g><g><path fill="#e2e0e0" d="M42.95 48.632c-.35.254-.707.5-1.068.735-.165.108-.33.216-.5.321-.471.292-.951.57-1.44.83-.109.057-.218.111-.327.167a25.468 25.468 0 0 1-3.487 1.476l-.127.043c-.626.208-1.261.393-1.903.552l-.006.001c-.648.16-1.304.293-1.963.402l-.054.01c-.621.101-1.247.174-1.875.229-.11.01-.222.017-.334.025a24.78 24.78 0 0 1-1.871.077c-.634 0-1.266-.031-1.894-.078-.11-.008-.218-.015-.326-.025a25.845 25.845 0 0 1-1.89-.233l-.084-.015a25.39 25.39 0 0 1-3.888-.971l-.118-.04a25.845 25.845 0 0 1-1.862-.713l-.013-.006a26.08 26.08 0 0 1-1.704-.816c-.073-.038-.147-.074-.22-.113a25.69 25.69 0 0 1-1.937-1.155 25.406 25.406 0 0 1-1.338-.933l-.133-.104.096-.054 7.904-4.313a4.229 4.229 0 0 0 2.205-3.714l-.001-3.602-.23-.278c-.022-.025-2.184-2.655-3-6.216l-.091-.396-.341-.221a1.657 1.657 0 0 1-.769-1.392v-3.545c0-.465.197-.898.557-1.223l.33-.298v-5.57l-.01-.131c-.002-.024-.297-2.429 1.396-4.36 1.446-1.648 3.923-2.485 7.361-2.485 3.425 0 5.894.83 7.344 2.466 1.691 1.911 1.414 4.361 1.412 4.381l-.009 5.701.33.298c.359.324.557.758.557 1.223v3.545a1.67 1.67 0 0 1-1.18 1.575l-.498.153-.16.495a18.502 18.502 0 0 1-2.495 5.032c-.262.37-.517.698-.736.949l-.247.283V40.3c0 1.612.895 3.062 2.337 3.782l8.464 4.233.16.083c-.107.081-.217.156-.325.234zM2.5 28C2.5 13.939 13.939 2.5 28 2.5S53.5 13.939 53.5 28c0 7.577-3.325 14.389-8.589 19.063a7.494 7.494 0 0 0-.893-.537l-8.467-4.233a2.217 2.217 0 0 1-1.232-1.993v-2.957c.196-.242.403-.516.617-.817a20.378 20.378 0 0 0 2.616-5.123 3.63 3.63 0 0 0 2.085-3.289v-3.545c0-.867-.318-1.708-.887-2.369v-4.667c.052-.519.236-3.448-1.883-5.864C35.024 9.565 32.041 8.5 28 8.5c-4.041 0-7.024 1.065-8.867 3.168-2.119 2.416-1.935 5.345-1.883 5.864v4.667a3.644 3.644 0 0 0-.887 2.369v3.545c0 1.101.494 2.128 1.34 2.821.81 3.173 2.477 5.575 3.093 6.389v2.894a2.23 2.23 0 0 1-1.162 1.958l-7.907 4.313a7.227 7.227 0 0 0-.752.476C5.776 42.292 2.5 35.522 2.5 28zm53 0C55.5 12.837 43.163.5 28 .5S.5 12.837.5 28c0 8.009 3.444 15.228 8.926 20.258l-.026.023.892.752c.058.049.121.089.179.137.474.393.965.766 1.465 1.127.162.117.324.234.489.348.534.368 1.082.717 1.642 1.048.122.072.245.142.368.212a27.44 27.44 0 0 0 1.88.98l.142.064a27.252 27.252 0 0 0 6.651 2.105l.184.033c.724.125 1.456.225 2.197.292.09.008.18.013.271.021.738.061 1.484.1 2.24.1.749 0 1.488-.039 2.222-.098l.279-.021a27.808 27.808 0 0 0 2.178-.287l.187-.034a27.251 27.251 0 0 0 6.557-2.055c.076-.035.153-.068.229-.104a27.639 27.639 0 0 0 2.25-1.189 27.514 27.514 0 0 0 1.581-1c.185-.126.366-.259.549-.391.439-.316.87-.642 1.289-.983.093-.075.193-.14.284-.217l.915-.764-.027-.023C52.023 43.302 55.5 36.05 55.5 28z"/></g></g></svg>