<svg xmlns="http://www.w3.org/2000/svg" width="24" height="22" viewBox="0 0 24 22"><g><g><g><path fill="#fedb41" d="M4.256 19.662a.352.352 0 0 1-.352-.351v-1.05a.352.352 0 1 1 .703 0v1.05a.352.352 0 0 1-.351.351zm19.33-4.884a1.294 1.294 0 0 1-.058 1.948 16.196 16.196 0 0 1-10.574 3.685.352.352 0 0 1 .012-.703 15.499 15.499 0 0 0 10.115-3.525.584.584 0 0 0 .216-.44.583.583 0 0 0-.19-.45l-.019-.018a.946.946 0 0 0-1.13-.117l-2.02 1.23a8.388 8.388 0 0 1-7.103.769c-1.206-.414-1.434-2.022-.391-2.755l2.102-1.478a.538.538 0 0 0 .14-.743.538.538 0 0 0-.567-.229l-5.526 1.213V19l.361.104c.85.245 1.728.419 2.61.515a.352.352 0 0 1-.077.699c-.921-.1-1.839-.282-2.728-.538l-.166-.048v.139a.878.878 0 0 1-.877.877H6.367a.844.844 0 0 1-.807.715l-4.682.163h-.03a.84.84 0 0 1-.589-.238.842.842 0 0 1-.259-.61v-5.103a.352.352 0 1 1 .703 0v5.103a.144.144 0 0 0 .15.145l4.682-.163a.145.145 0 0 0 .14-.145V11.66a.145.145 0 0 0-.14-.146l-4.682-.163a.144.144 0 0 0-.15.145v2.791a.352.352 0 1 1-.703 0v-2.79c0-.233.092-.45.259-.61a.839.839 0 0 1 .619-.238l4.682.163a.844.844 0 0 1 .807.714h1.35c.483 0 .876.393.876.877v.042l3.264-.716-1.275-.963a.352.352 0 0 1-.069-.492c.003-.004.22-.296.566-.83a3.051 3.051 0 0 1-2.187-2.922 3.05 3.05 0 0 1 3.047-3.046c.702 0 1.348.239 1.864.64.29-.74.546-1.482.762-2.211a.352.352 0 0 1 .437-.237l2.953.874a3.044 3.044 0 0 1 .711-1.477.352.352 0 1 1 .528.465 2.34 2.34 0 0 0-.584 1.546 2.346 2.346 0 0 0 2.344 2.344 2.346 2.346 0 0 0 2.343-2.344A2.346 2.346 0 0 0 20.215.853a.352.352 0 0 1-.222-.668A3.05 3.05 0 0 1 24 3.075a3.05 3.05 0 0 1-3.365 3.031c-.243.654-.51 1.311-.796 1.963a3.05 3.05 0 0 1 1.847 2.8 3.05 3.05 0 0 1-3.046 3.046c-.62 0-1.197-.186-1.678-.506a21.243 21.243 0 0 1-.795 1.147.352.352 0 0 1-.493.067l-1.116-.848-1.71 1.202a.858.858 0 0 0 .215 1.515 7.687 7.687 0 0 0 6.51-.705l2.02-1.23a1.651 1.651 0 0 1 1.974.203zM7.89 12.403a.174.174 0 0 0-.174-.174H6.379v7.816h1.337a.174.174 0 0 0 .174-.174zm10.75-3.877a2.346 2.346 0 0 0-2.343 2.343 2.346 2.346 0 0 0 2.343 2.343 2.346 2.346 0 0 0 2.343-2.343 2.346 2.346 0 0 0-2.343-2.343zm-6.701.34a2.346 2.346 0 0 0 2.343-2.344 2.346 2.346 0 0 0-2.343-2.343 2.346 2.346 0 0 0-2.344 2.343 2.346 2.346 0 0 0 2.344 2.343zm3.331 2.925c.33.495.265 1.13-.13 1.544l.674.512c.143-.2.351-.502.606-.895a3.035 3.035 0 0 1-.826-2.083 3.05 3.05 0 0 1 3.566-3.001c.28-.637.543-1.28.783-1.918a3.052 3.052 0 0 1-2.03-2.687l-2.776-.822a28.565 28.565 0 0 1-.793 2.215 3.03 3.03 0 0 1 .641 1.866 3.05 3.05 0 0 1-3.046 3.046c-.035 0-.07 0-.104-.002-.232.369-.424.653-.556.845l1.482 1.12 1.207-.265a1.236 1.236 0 0 1 1.302.525z"/></g></g></g></svg>