<svg xmlns="http://www.w3.org/2000/svg" width="14" height="14" viewBox="0 0 14 14"><g><g><path fill="#fedb41" d="M8.46 3.3a.36.36 0 0 0 .122-.247c0-.223-.123-.331-.38-.331a.725.725 0 0 1-.573-.195.761.761 0 0 1 .362-1.29v-.111A.216.216 0 0 1 8.092.93a.21.21 0 0 1 .22 0 .215.215 0 0 1 .102.196v.112c.34.076.584.376.592.727a.216.216 0 0 1-.103.196.21.21 0 0 1-.22 0 .216.216 0 0 1-.102-.196.385.385 0 0 0-.38-.33c-.19 0-.35.14-.379.33 0 .223.12.331.378.331.21-.023.42.047.574.192a.77.77 0 0 1-.36 1.296V3.9a.214.214 0 0 1-.212.203.214.214 0 0 1-.213-.203v-.115a.769.769 0 0 1-.593-.731c0-.057.021-.112.061-.153a.21.21 0 0 1 .302 0c.04.04.063.095.063.153a.36.36 0 0 0 .12.246c.072.063.164.094.258.088a.354.354 0 0 0 .26-.087zM4.45 4.58a.357.357 0 0 0 .38-.33c0-.224-.122-.326-.38-.326a.732.732 0 0 1-.574-.197.748.748 0 0 1-.233-.566.771.771 0 0 1 .595-.725v-.115c0-.057.022-.112.061-.152a.211.211 0 0 1 .15-.064c.119 0 .214.097.214.216v.115c.338.078.58.376.592.725a.216.216 0 0 1-.103.196.21.21 0 0 1-.22 0 .216.216 0 0 1-.102-.196.388.388 0 0 0-.38-.322.388.388 0 0 0-.381.322c0 .23.123.33.38.33a.725.725 0 0 1 .574.194.769.769 0 0 1-.36 1.295v.115a.22.22 0 0 1-.213.216.217.217 0 0 1-.212-.216V4.98a.773.773 0 0 1-.595-.731.214.214 0 0 1 .214-.21c.116-.001.21.093.212.21a.358.358 0 0 0 .38.33zm7.391 5.133a.751.751 0 0 1-.459.694.738.738 0 0 1-.81-.163.757.757 0 0 1-.16-.819.743.743 0 0 1 .686-.463c.41 0 .743.336.743.75zM14 8.377v2.678a.482.482 0 0 1-.478.484h-.328v1.392A1.067 1.067 0 0 1 12.133 14H1.06c-.28 0-.55-.112-.75-.312-.199-.2-.31-.473-.311-.757V4.79c0-.285.111-.558.31-.76.2-.202.47-.316.752-.316h.903v-.005a2.513 2.513 0 0 1 1.337-2.223 2.463 2.463 0 0 1 2.57.169A2.491 2.491 0 0 1 8.201 0a2.48 2.48 0 0 1 2.135 1.23c.447.762.464 1.705.043 2.483h1.567a.21.21 0 0 1 .15.064c.04.041.062.097.061.154v1.493h.82c.057.002.111.025.152.065a.25.25 0 0 1 .064.153v2.252h.328a.48.48 0 0 1 .478.483zM10.084 4.14a2.475 2.475 0 0 1-1.883.878 2.39 2.39 0 0 1-1.418-.465 2.465 2.465 0 0 1-.529.872h5.48V4.14zM6.22 1.954a2.497 2.497 0 0 1 .678 2.155c.364.31.826.478 1.302.477a2.07 2.07 0 0 0 2.023-2.08c0-1.135-.9-2.06-2.023-2.08a2.067 2.067 0 0 0-1.98 1.528zM2.48 3.096c-.266.873.066 1.82.816 2.33h2.307a2.088 2.088 0 0 0 .813-2.33A2.059 2.059 0 0 0 4.45 1.628a2.057 2.057 0 0 0-1.97 1.468zM.493 4.456a.649.649 0 0 0 0 .654.635.635 0 0 0 .568.316h1.582a2.485 2.485 0 0 1-.635-1.285h-.947a.635.635 0 0 0-.568.315zm12.273 7.085h-1.637a1.815 1.815 0 0 1-1.805-1.824c0-1.007.808-1.823 1.805-1.823h1.637v-.535h-.104a.21.21 0 0 1-.15-.064.217.217 0 0 1 .15-.369h.104V5.858H1.061c-.23 0-.455-.078-.636-.223v1.291h.104a.22.22 0 0 1 .214.218c0 .12-.096.216-.214.216H.425v4.713h.104c.116 0 .21.095.21.213a.212.212 0 0 1-.21.213H.425v.432c0 .17.066.334.186.455.12.12.281.188.45.188h11.072c.168 0 .33-.068.448-.189a.644.644 0 0 0 .185-.454V12.5h-.104a.212.212 0 0 1-.21-.213c0-.118.094-.213.21-.213h.104zm.81-3.164a.061.061 0 0 0-.054-.057h-2.393a1.39 1.39 0 0 0-1.353 1.396c0 .76.601 1.38 1.353 1.396h2.393a.061.061 0 0 0 .053-.057zM7.81 6.927a.217.217 0 0 1 .15.368.21.21 0 0 1-.15.064h-.607a.215.215 0 0 1-.214-.216.22.22 0 0 1 .214-.217zm.999.217a.22.22 0 0 1 .214-.216h.608a.217.217 0 0 1 .15.368.21.21 0 0 1-.15.064h-.608a.215.215 0 0 1-.214-.216zm-2.821-.218a.22.22 0 0 1 .214.218c0 .12-.096.216-.214.216h-.604a.211.211 0 0 1-.153-.063.218.218 0 0 1 .152-.37zm-4.396.371a.218.218 0 0 1 .152-.37h.605a.22.22 0 0 1 .214.217c0 .12-.096.216-.214.216h-.605a.211.211 0 0 1-.152-.063zm9.25.063a.21.21 0 0 1-.15-.064.217.217 0 0 1 .15-.369h.608a.217.217 0 0 1 .15.37.21.21 0 0 1-.15.063zm-7.49-.217a.22.22 0 0 1 .212-.217h.606a.218.218 0 0 1 .152.372.211.211 0 0 1-.154.062h-.604a.215.215 0 0 1-.211-.217zm6.49 5.143a.212.212 0 0 1-.211.213h-.608a.212.212 0 0 1-.211-.213c0-.118.094-.213.21-.213h.609c.116 0 .21.095.21.213zm.85-.15a.21.21 0 0 1 .15-.063h.608c.116 0 .21.095.21.213a.212.212 0 0 1-.21.213h-.608a.211.211 0 0 1-.21-.21c-.001-.057.02-.112.06-.153zm-6.31.15a.212.212 0 0 1-.21.213h-.608a.212.212 0 0 1-.211-.213c0-.118.094-.213.21-.213h.608c.117 0 .211.095.211.213zm-1.822 0a.212.212 0 0 1-.211.213h-.605a.212.212 0 0 1-.21-.213c0-.118.094-.213.21-.213h.605c.116 0 .21.095.21.213zm3.639 0a.212.212 0 0 1-.211.213h-.604a.212.212 0 0 1-.211-.213c0-.118.094-.213.21-.213h.605c.116 0 .21.095.21.213zm1.822 0a.212.212 0 0 1-.21.213h-.608a.212.212 0 0 1-.21-.213c0-.118.094-.213.21-.213h.607c.117 0 .211.095.211.213z"/></g></g></svg>