<svg xmlns="http://www.w3.org/2000/svg" width="14" height="14" viewBox="0 0 14 14"><g><g><g><path fill="#4acded" d="M12.647 11.174a7.05 7.05 0 0 1-.374.46.546.546 0 0 1-.772.048.547.547 0 0 1-.047-.772 5.96 5.96 0 0 0 .315-.388.547.547 0 0 1 .878.652zm1.22-2.679a6.986 6.986 0 0 1-.15.574.547.547 0 0 1-1.046-.323c.05-.158.092-.321.127-.483a.547.547 0 0 1 1.07.232zm-3.211 3.877a.545.545 0 0 1-.212.744 7.074 7.074 0 0 1-.533.267.552.552 0 0 1-.729-.274.545.545 0 0 1 .276-.723c.152-.069.303-.144.45-.225a.552.552 0 0 1 .748.21zM7 2.078c.302 0 .547.245.547.547V7a.547.547 0 0 1-.16.387L5.22 9.552a.545.545 0 0 1-.773 0 .547.547 0 0 1 0-.773l2.005-2.006V2.625c0-.302.245-.547.547-.547zm7-.355v1.613a1.75 1.75 0 0 1-1.75 1.75h-1.67a.547.547 0 1 1 0-1.094h1.504A5.92 5.92 0 0 0 7 1.094 5.913 5.913 0 0 0 1.094 7 5.913 5.913 0 0 0 7 12.906h.027c.167 0 .335-.007.5-.02a.547.547 0 1 1 .092 1.09 7.13 7.13 0 0 1-.592.024H7a6.954 6.954 0 0 1-4.95-2.05A6.954 6.954 0 0 1 0 7c0-1.87.728-3.628 2.05-4.95A6.954 6.954 0 0 1 7 0a7.016 7.016 0 0 1 5.906 3.241V1.723a.547.547 0 1 1 1.094 0z"/></g></g></g></svg>