<svg xmlns="http://www.w3.org/2000/svg" width="20" height="20" viewBox="0 0 20 20"><g><g><g><path fill="#23ace5" d="M2.165 4.053a.3.3 0 0 1 .304-.304h5.41a.3.3 0 0 1 .3.304c-.002.165-.134.3-.3.304H2.47a.306.306 0 0 1-.304-.304zm9.327 11.955a.304.304 0 1 1 0 .607h-1.54a.304.304 0 0 1 0-.607zm-4.777.304a.304.304 0 0 1-.304.303H2.469a.304.304 0 0 1 0-.607H6.41c.168 0 .304.136.304.304zM2.469 5.553h9.023a.306.306 0 0 1 .216.517.3.3 0 0 1-.212.09H2.47a.3.3 0 0 1-.304-.303.306.306 0 0 1 .304-.304zm9.325 2.107v6.849a.3.3 0 0 1-.298.302H2.47a.3.3 0 0 1-.304-.302v-6.85a.306.306 0 0 1 .304-.303h9.023a.306.306 0 0 1 .302.304zm-9.026 3.974h1.875v-1.92H2.768zm2.474 0h5.942v-1.92H5.242zm5.942-3.67H5.242v1.151h5.942zm-8.416 0v1.151h1.875V7.963zm1.875 6.241v-1.92H2.768v1.92zm6.544-1.92H5.244v1.92h5.943zm8.595-8.526v5.276a.3.3 0 1 1-.598 0V3.759a1.088 1.088 0 0 0-.786-1.036v13.575l-.013.091v.01l-1.148 3.258a.306.306 0 0 1-.29.202.299.299 0 0 1-.281-.196l-1.152-3.259v-.009l-.014-.091V2.377a.309.309 0 0 1 .156-.274l.38-.193V.615A.289.289 0 0 1 16.2.347l.21-.107c.34-.169.74-.169 1.08 0l.21.107a.288.288 0 0 1 .165.268V1.91l.322.16c.893.055 1.59.794 1.594 1.689zm-3.398 11.893a1.164 1.164 0 0 1 1.134 0l.286.151v-4.09l-.567-.303a.64.64 0 0 0-.571 0l-.567.304v4.09zm1.42-4.617V2.554l-.567-.305a.593.593 0 0 0-.571 0l-.567.305v8.478l.285-.152a1.213 1.213 0 0 1 1.134 0zm-.071 5.416l-.496-.268a.588.588 0 0 0-.571 0l-.496.263.78 2.205zM13.956 4.036v15.517a.3.3 0 0 1-.3.303H.3A.3.3 0 0 1 0 19.553V.303A.3.3 0 0 1 .299 0h9.607l.019.008.08.019.027.009.09.055 3.749 3.749.054.091.012.024zm-3.75-3.01V3.75h2.723zm3.147 3.33H9.906a.305.305 0 0 1-.299-.303V.607H.603v18.641h12.75z"/></g></g></g></svg>